<?xml version="1.0" encoding="iso-8859-1"?>
<!-- Generator: Adobe Illustrator 19.0.0, SVG Export Plug-In . SVG Version: 6.00 Build 0)  -->
<svg version="1.1" id="Capa_1" xmlns="http://www.w3.org/2000/svg" xmlns:xlink="http://www.w3.org/1999/xlink" x="0px" y="0px"
	 viewBox="0 0 512 512" style="enable-background:new 0 0 512 512;" xml:space="preserve">
<circle style="fill:#7EC359;" cx="256" cy="256" r="256"/>
<g>
	<path style="fill:#FDFEFF;" d="M64.64,318.392l58.904-169.256l58.904,169.256h5.092L126.1,141.86
		c-0.844,0.104-1.712,0.176-2.628,0.176c-0.868,0-1.692-0.064-2.5-0.156L59.548,318.392H64.64z"/>
	<path style="fill:#FDFEFF;" d="M125.948,318.392V141.884c-0.796,0.092-1.616,0.156-2.472,0.156c-0.808,0-1.584-0.052-2.336-0.132
		v176.488h4.808V318.392z"/>
</g>
<path style="fill:#F1592F;" d="M53.984,308.836c0,28.152,31.932,50.972,71.32,50.972s71.32-22.82,71.32-50.972H53.984z"/>
<g>
	<path style="fill:#FDFEFF;" d="M123.544,144.228c-6.004,0-10.888-4.884-10.888-10.888s4.884-10.888,10.888-10.888
		c6.004,0,10.888,4.884,10.888,10.888S129.548,144.228,123.544,144.228z M123.544,127.26c-3.352,0-6.08,2.728-6.08,6.08
		s2.728,6.08,6.08,6.08c3.352,0,6.08-2.728,6.08-6.08S126.896,127.26,123.544,127.26z"/>
	<path style="fill:#FDFEFF;" d="M329.556,318.392l58.904-169.256l58.904,169.256h5.092l-61.408-176.444
		c-0.596,0.052-1.204,0.092-1.836,0.092c-1.156,0-2.236-0.112-3.276-0.276L324.46,318.392H329.556z"/>
	<path style="fill:#FDFEFF;" d="M390.864,318.392v-176.44c-0.54,0.04-1.084,0.08-1.652,0.08c-1.108,0-2.144-0.104-3.148-0.256
		c0,0.016-0.008,0.028-0.008,0.04v176.572h4.808V318.392z"/>
</g>
<path style="fill:#F1592F;" d="M458.016,308.836c0,28.152-31.932,50.972-71.32,50.972s-71.32-22.82-71.32-50.972H458.016z"/>
<path style="fill:#FDFEFF;" d="M388.456,144.228c-6.004,0-10.888-4.884-10.888-10.888s4.884-10.888,10.888-10.888
	s10.888,4.884,10.888,10.888S394.46,144.228,388.456,144.228z M388.456,127.26c-3.352,0-6.08,2.728-6.08,6.08s2.728,6.08,6.08,6.08
	s6.08-2.728,6.08-6.08S391.808,127.26,388.456,127.26z"/>
<g>
	<path style="fill:#D2D2D4;" d="M110.276,126.944c-3.1,0-5.612-2.512-5.612-5.612s2.512-5.612,5.612-5.612
		c11.472,0,26.784,1.532,51.184-16.876c16.892-12.744,42.952-24.276,94.936-0.112c2.812,1.304,4.028,4.644,2.724,7.452
		c-1.304,2.812-4.644,4.032-7.452,2.724c-52.544-24.42-74.196-8.084-83.448-1.108C140.88,128.428,122.664,126.944,110.276,126.944z"
		/>
	<path style="fill:#D2D2D4;" d="M401.724,126.944c-12.112,0-30.46,1.592-57.94-19.14c-9.248-6.976-30.904-23.316-83.448,1.108
		c-2.808,1.308-6.148,0.088-7.452-2.724c-1.308-2.812-0.088-6.148,2.724-7.452c51.984-24.164,78.04-12.632,94.936,0.112
		c24.28,18.316,39.492,16.876,51.18,16.876c3.1,0,5.612,2.512,5.612,5.612S404.82,126.944,401.724,126.944z"/>
</g>
<path style="fill:#656D7A;" d="M262.312,130.656h-12.62V82.2c0-3.424,2.776-6.2,6.2-6.2h0.22c3.424,0,6.2,2.776,6.2,6.2V130.656z"/>
<path style="fill:#4D535F;" d="M266.1,292.864h-20.196V133.5c0-5.48,4.444-9.924,9.924-9.924h0.348c5.48,0,9.924,4.444,9.924,9.924
	V292.864z"/>
<path style="fill:#656D7A;" d="M271.024,392.44H240.98V283.004c0-8.152,6.608-14.764,14.764-14.764h0.52
	c8.152,0,14.764,6.608,14.764,14.764V392.44H271.024z"/>
<ellipse style="fill:#4D535F;" cx="256.08" cy="402.12" rx="51.08" ry="23.032"/>
<rect x="191.732" y="402.12" style="fill:#656D7A;" width="127.524" height="20.644"/>
<rect x="181.68" y="415.36" style="fill:#4D535F;" width="147.584" height="20.644"/>
<g>
</g>
<g>
</g>
<g>
</g>
<g>
</g>
<g>
</g>
<g>
</g>
<g>
</g>
<g>
</g>
<g>
</g>
<g>
</g>
<g>
</g>
<g>
</g>
<g>
</g>
<g>
</g>
<g>
</g>
</svg>
