<?xml version="1.0" encoding="iso-8859-1"?>
<!-- Generator: Adobe Illustrator 19.0.0, SVG Export Plug-In . SVG Version: 6.00 Build 0)  -->
<svg version="1.1" id="Capa_1" xmlns="http://www.w3.org/2000/svg" xmlns:xlink="http://www.w3.org/1999/xlink" x="0px" y="0px"
	 viewBox="0 0 512 512" style="enable-background:new 0 0 512 512;" xml:space="preserve">
<circle style="fill:#7EC359;" cx="256" cy="256" r="256"/>
<rect x="209.48" y="335.24" style="fill:#4D535F;" width="93.676" height="78.976"/>
<g>
	<polygon style="fill:#656D7A;" points="346.304,392.824 166.372,392.824 148.252,426.896 364.424,426.896 	"/>
	<rect x="40.664" y="49.624" style="fill:#656D7A;" width="430.68" height="303.804"/>
</g>
<rect x="63.2" y="71.476" style="fill:#FDFEFF;" width="388.36" height="232.64"/>
<circle style="fill:#FFFFFF;" cx="256" cy="327.756" r="12.44"/>
<rect x="177.76" y="235.828" style="fill:#656D7A;" width="26.848" height="41.56"/>
<rect x="230.812" y="213.36" style="fill:#70B1E1;" width="26.848" height="64.04"/>
<rect x="283.884" y="184.36" style="fill:#F5EA07;" width="26.848" height="93.032"/>
<g>
	<rect x="336.96" y="160.64" style="fill:#F1592F;" width="26.848" height="116.76"/>
	
		<rect x="224.29" y="66.604" transform="matrix(-0.4069 -0.9135 0.9135 -0.4069 191.066 433.39)" style="fill:#F1592F;" width="23.881" height="176.124"/>
	<polygon style="fill:#F1592F;" points="316.888,149.352 347.952,104.876 294.108,98.22 	"/>
</g>
<g>
</g>
<g>
</g>
<g>
</g>
<g>
</g>
<g>
</g>
<g>
</g>
<g>
</g>
<g>
</g>
<g>
</g>
<g>
</g>
<g>
</g>
<g>
</g>
<g>
</g>
<g>
</g>
<g>
</g>
</svg>
