<?xml version="1.0" encoding="iso-8859-1"?>
<!-- Generator: Adobe Illustrator 19.0.0, SVG Export Plug-In . SVG Version: 6.00 Build 0)  -->
<svg version="1.1" id="Capa_1" xmlns="http://www.w3.org/2000/svg" xmlns:xlink="http://www.w3.org/1999/xlink" x="0px" y="0px"
	 viewBox="0 0 512 512" style="enable-background:new 0 0 512 512;" xml:space="preserve">
<circle style="fill:#FAD307;" cx="256" cy="256" r="256"/>
<g>
	<rect x="240.6" y="32.936" style="fill:#656D7A;" width="30.796" height="38.344"/>
	<path style="fill:#656D7A;" d="M364.812,117.796l-17.86-12.212l57.132-83.552c3.192-4.668,9.564-5.864,14.232-2.672l0.956,0.656
		c4.668,3.192,5.864,9.564,2.672,14.232L364.812,117.796z"/>
	<path style="fill:#656D7A;" d="M147.188,117.796l17.86-12.212l-57.132-83.556c-3.192-4.668-9.564-5.864-14.232-2.672l-0.956,0.656
		c-4.668,3.192-5.864,9.564-2.672,14.232L147.188,117.796z"/>
</g>
<g>
	<path style="fill:#D2D2D4;" d="M419.192,19.956l-0.8-0.548c-4.712-3.22-11.14-2.012-14.364,2.696l-13.336,19.5
		c6.656,0.572,13.224,4.504,16.468,10.052c0.472,0.804,0.856,1.624,1.196,2.444l13.528-19.784
		C425.112,29.608,423.904,23.18,419.192,19.956z"/>
	<path style="fill:#D2D2D4;" d="M114.256,45.168c2.548-1.488,5.14-2.324,7.7-2.604l-13.988-20.456
		c-3.22-4.712-9.652-5.92-14.364-2.696l-0.8,0.548c-4.712,3.22-5.92,9.652-2.696,14.364l15.2,22.228
		C106.996,51.776,110.252,47.512,114.256,45.168z"/>
</g>
<g>
	<path style="fill:#F1592F;" d="M440.192,104.948l-8.76,12.936L322.684,43.612l8.86-12.956
		c12.436-18.188,37.356-22.868,55.54-10.432l42.672,29.18C448.068,61.924,452.728,86.74,440.192,104.948z"/>
	<path style="fill:#F1592F;" d="M71.808,104.948l8.76,12.936l108.748-74.272l-8.86-12.956C168.02,12.468,143.1,7.788,124.916,20.224
		L82.24,49.404C63.932,61.924,59.272,86.74,71.808,104.948z"/>
</g>
<g>
	<polygon style="fill:#656D7A;" points="379.06,471.74 397.152,462.752 380.284,406.548 344.456,424.348 	"/>
	<circle style="fill:#656D7A;" cx="391.28" cy="472.84" r="17.556"/>
	<polygon style="fill:#656D7A;" points="132.94,471.74 114.848,462.752 131.716,406.548 167.544,424.348 	"/>
	<circle style="fill:#656D7A;" cx="120.72" cy="472.84" r="17.556"/>
</g>
<circle style="fill:#F1592F;" cx="256" cy="264.16" r="198.592"/>
<circle style="fill:#FDFEFF;" cx="256" cy="264.16" r="173.88"/>
<g>
	<path style="fill:#4D535F;" d="M245.652,132.792L245.652,132.792c3.424,15.844,5.148,32.008,5.148,48.22v119.624h10.396v-119.62
		c0-16.204,1.724-32.36,5.144-48.196l0.004-0.024l-10.34-14.032L245.652,132.792z"/>
	<path style="fill:#4D535F;" d="M132.82,273.852L132.82,273.852c14.832-3.204,29.964-4.82,45.136-4.82h111.972v-9.728H177.956
		c-15.168,0-30.288-1.616-45.116-4.816l-0.024-0.004l-13.136,9.68L132.82,273.852z"/>
</g>
<circle style="fill:#656D7A;" cx="256" cy="264.16" r="16.196"/>
<path style="fill:#F1592F;" d="M237.436,282.728c-1.648-1.648-1.648-4.324,0-5.972l109.12-109.124c1.648-1.648,4.324-1.648,5.972,0
	s1.648,4.324,0,5.972l-109.12,109.124C241.76,284.38,239.088,284.38,237.436,282.728z"/>
<circle style="fill:#D64331;" cx="256" cy="264.16" r="9.904"/>
<g>
	<circle style="fill:#656D7A;" cx="256" cy="106.888" r="7.276"/>
	<circle style="fill:#656D7A;" cx="256" cy="421.44" r="7.276"/>
	<circle style="fill:#656D7A;" cx="177.36" cy="127.96" r="7.276"/>
	<circle style="fill:#656D7A;" cx="334.64" cy="400.36" r="7.276"/>
	<circle style="fill:#656D7A;" cx="119.792" cy="185.52" r="7.276"/>
	<circle style="fill:#656D7A;" cx="392.2" cy="342.8" r="7.276"/>
	<circle style="fill:#656D7A;" cx="98.72" cy="264.16" r="7.276"/>
	<circle style="fill:#656D7A;" cx="413.28" cy="264.16" r="7.276"/>
	<circle style="fill:#656D7A;" cx="119.792" cy="342.8" r="7.276"/>
	<circle style="fill:#656D7A;" cx="392.2" cy="185.52" r="7.276"/>
	<circle style="fill:#656D7A;" cx="177.36" cy="400.36" r="7.276"/>
	<circle style="fill:#656D7A;" cx="334.64" cy="127.96" r="7.276"/>
</g>
<rect x="217" y="19.328" style="fill:#4D535F;" width="77.968" height="20.42"/>
<g>
</g>
<g>
</g>
<g>
</g>
<g>
</g>
<g>
</g>
<g>
</g>
<g>
</g>
<g>
</g>
<g>
</g>
<g>
</g>
<g>
</g>
<g>
</g>
<g>
</g>
<g>
</g>
<g>
</g>
</svg>
