<?xml version="1.0" encoding="iso-8859-1"?>
<!-- Generator: Adobe Illustrator 19.0.0, SVG Export Plug-In . SVG Version: 6.00 Build 0)  -->
<svg version="1.1" id="Capa_1" xmlns="http://www.w3.org/2000/svg" xmlns:xlink="http://www.w3.org/1999/xlink" x="0px" y="0px"
	 viewBox="0 0 512 512" style="enable-background:new 0 0 512 512;" xml:space="preserve">
<circle style="fill:#7EC359;" cx="256" cy="256" r="256"/>
<path style="fill:#353944;" d="M269.22,418.028l0.656,22.68c0,0-0.728,8.868,4.58,10.612c0,0,8.724,1.6,11.048-3.052l0.436-9.888
	c0,0-0.656-15.264-2.544-18.392L269.22,418.028z"/>
<g>
	<path style="fill:#F7CFA3;" d="M270.164,439.472c0,0,7.052,5.16,15.34-0.58l-2.328-18.172h-12.648L270.164,439.472z"/>
	<path style="fill:#F7CFA3;" d="M272.636,447.832l3.312-3.012c1.116-1.012,2.768-1.16,4.044-0.36l4.204,2.64
		C284.196,447.104,277.508,451.028,272.636,447.832z"/>
	<path style="fill:#F7CFA3;" d="M206.264,422.608l-4.288,18.248v7.78c6.372,4.552,10.96-2.452,15.412-7.488v-10.54
		c0,0-0.164-1.8,0.796-2.884c0.82-0.928,1.336-2.084,1.292-3.32l-0.272-7.608L206.264,422.608z"/>
</g>
<g>
	<path style="fill:#353944;" d="M201.976,439.764c0,0,4.436,6.688,15.992,0.508l-0.944,6.108c0,0-0.072,7.124-8.94,5.888
		c0,0-3.924,0.944-6.544-0.944C201.54,451.32,198.416,446.596,201.976,439.764z"/>
	<polygon style="fill:#353944;" points="217.392,444.012 218.768,444.012 219.06,432.276 223.856,417.496 221.096,418.68 
		217.024,423.48 216.224,431.84 	"/>
</g>
<path style="fill:#656D7A;" d="M299.836,259.892l-1.984,12.252c0,0,0.408,18.112-4.628,30.032c0,0-5.4,23.56-2.756,35.396
	c0.468,2.084,0.736,4.18,0.868,6.316c0.548,8.964,1.28,29.736-2.496,43.504l-5.26,34.836c0,0-9.2,6.576-14.244-1.532
	c0,0-2.452-6.808-0.16-18.272c1.792-8.956,0.04-2.768-1.592-45.82c0,0,0.38-4.184-0.952-9.508c-0.792-3.164-1.132-6.428-1.252-9.688
	c-0.812-22.316,0.272-11.412-5.68-52.412c-15.292,38.512-14.72,51.768-22.268,68.436c-0.896,1.98-1.576,4.036-2.012,6.164
	c-7.912,38.696-6.084,29.816-9.088,44.256c-0.452,2.172-0.552,4.396-0.44,6.612c0.136,2.776-0.308,7.316-3.664,11.764
	c0,0-8.984,7.56-16.872,1.096l0.988-21.36l1.972-4.712l0.768-16l0.98-2.408c0,0,0.988-19.94,2.74-24.756c0,0,0.308-7.52,2.308-11.6
	c1.636-3.332,2.736-6.9,2.84-10.616c1.792-65.144,2.148-30.428,2.616-71.98l0.072-6.304l0.096-8.388l3.452-2.952l4.492-4.044
	c0,0,18.12,9.824,49.216-3.996l9.956,3.2l9.584,3.084l2.084,13.104l0.66,4.152L299.836,259.892z"/>
<path style="fill:#F7CFA3;" d="M201.976,448.716l3.312-3.012c1.116-1.012,2.768-1.16,4.044-0.36l4.204,2.64
	C213.536,447.988,206.848,451.916,201.976,448.716z"/>
<path style="fill:#4D535F;" d="M245.196,144.348c0,0-2.524-8.124-3.164-9.384s2.86-26.628,3.164-27.848
	c0.304-1.216-0.608-18.716,0-19.172c0.608-0.456,6.264-10.42,6.264-10.42c35.16,6.512,34.212,6.008,34.212,6.008
	c5.732,13.68,4.36,8.428,6.088,36.824l-6.544,10.044l-14.86,6.504L245.196,144.348z"/>
<path style="fill:#F7CFA3;" d="M209.416,233.604c0,0-1.832,0.992-4.16,0.228c0,0-4.92,0.456-4.808-1.564c0,0-1.412-2.48,3.968-3.7
	l5.76,3.204L209.416,233.604z"/>
<path style="fill:#D64331;" d="M325.636,161.844c0,0,1.2,5.88-4.124,11.492l-9.3,0.772l-4.564-9.512V159.8
	C307.648,159.796,322.24,155.512,325.636,161.844z"/>
<path style="fill:#F0B97C;" d="M254.196,110.764c0,0,3.464,15.188-6.66,23.444l-8.26,20.516v19.716l17.296,4.528l16.804-13.988
	l5.46-21.98l2.664-12.92c0,0-2.132-5.46,1.732-25.312L254.196,110.764z"/>
<path style="fill:#F7CFA3;" d="M280.324,71.468l5.992,13.62l0.872,11.768l-3.952,10.568c0,0-5.744,11.656-15.552,10.788
	c0,0-5.228,1.852-11.112-2.832c0,0-6.976-6.536-7.192-13.836c-0.128-4.3-0.856-1.48-0.856-18.98l3.028-12.048l4.24-4.54
	C262.36,64.68,271.252,61.14,280.324,71.468z"/>
<path style="fill:#F1592F;" d="M287.188,126.728l17.292,9.096c0,0,12.692,1.056,14.384,16.5l6.768,9.52c0,0-3.448-1.008-7.24,3.16
	c0,0-19.136,8.896-19.608,11.172l-1.704,40.548c0,0-3.412,9.568-0.472,18.472l3.124,19.796h-79.144l-1.012-11.124
	c0,0-1.516-3.036,2.824-5.86l1.276-77.844l-6.968-7.424l-2.356-1.216l4.636-11.548c0,0,1.748-3.496,6-3.496
	c0,0,11.396-2.28,12.992-4.788l14.464-3.756c0,0-1.184,3.184,0.456,6.34c1.036,1.992,1.648,4.176,1.668,6.424
	c0.028,2.756-0.348,6.584-1.852,11.204l2.052,8.888l7.672-4.94l14.892-20.132L287.188,126.728z"/>
<path style="fill:#D64331;" d="M248.412,127.94c-0.124,0.54-0.188,1.084-0.22,1.628c-0.332,6.412,6.564,8.732,1.048,24.248
	l0.012-0.3c0.536,2.68,1.296,6.832,1.652,9.66c-0.912-2.688-2.06-6.78-2.78-9.536c4.536-16.348-0.392-16.744-0.404-22.432
	C247.744,129.968,248.036,128.752,248.412,127.94z"/>
<path style="fill:#656D7A;" d="M277.908,80.124c0,0,4.348,6.764,4.48,11.656c0,0,0.516,6.952,3.412,10.488
	c0,0,0.92,10.736-5.704,18.272c-1.016,1.16-1.892,2.436-2.648,3.78l-13.296,23.608l-11.984,14.04h7.704l15.408-24.228
	c0,0,0.856,2.224-0.94,4.964c0,0-6.592,9.496-2.14,17.46l-3.196,12.416l6.448,1.112l12.5,2.484l1.884-8.816l1.712,5.564
	c0,0-1.54-9.244,1.368-17.464c0,0,5.224-6.164,6.248-16.952c0,0,0.512-4.024,2.912-4.196c0,0-4.196-9.504-2.824-16.864
	c0,0,1.112-11.688-3.596-26.092c0,0-3.68-29.212-17.976-36.148c0,0-11.044-5.48-15.152-0.856c0,0-11.472-3.168-17.72,18.748
	c0,0-4.536,16.672-5.908,31.664c0,0-2.224,25.008-6.164,29.544l-5.82,5.308l5.908-3.168l-5.908,14.04c0,0,18.66-2.396,21.612-16.096
	c0,0,4.156-11.3,0.988-22.428c0,0-2.224-12.448-0.684-16.156l1.452-11.752c0.056-8.556,5.752-16.228,11.224-15.248
	C265.508,69.528,273.536,69.352,277.908,80.124z"/>
<path style="fill:#FDFEFF;" d="M232.476,143.488c-9.508,0-17.244-7.736-17.244-17.244S222.968,109,232.476,109
	s17.244,7.736,17.244,17.244S241.984,143.488,232.476,143.488z M232.476,112.872c-7.372,0-13.372,6-13.372,13.372
	c0,7.372,6,13.372,13.372,13.372s13.372-6,13.372-13.372C245.844,118.872,239.848,112.872,232.476,112.872z"/>
<g>
	<rect x="229.4" y="133.44" style="fill:#D2D2D4;" width="6.704" height="17.296"/>
	
		<rect x="264.808" y="154.366" transform="matrix(-0.7071 -0.7071 0.7071 -0.7071 344.1761 462.63)" style="fill:#D2D2D4;" width="6.188" height="11.336"/>
	
		<rect x="194.517" y="154.377" transform="matrix(-0.7071 0.7071 -0.7071 -0.7071 450.5117 133.4821)" style="fill:#D2D2D4;" width="6.188" height="11.336"/>
</g>
<g>
	<path style="fill:#FDFEFF;" d="M277.32,156.348l-5.712-5.712c-0.46-0.46-1.204-0.46-1.664,0l-2.104,2.104
		c-0.46,0.46-0.46,1.204,0,1.664l5.712,5.712c0.46,0.46,1.204,0.46,1.664,0l2.104-2.104
		C277.78,157.552,277.78,156.808,277.32,156.348z"/>
	<path style="fill:#FDFEFF;" d="M195.58,150.636c-0.46-0.46-1.204-0.46-1.664,0l-5.712,5.712c-0.46,0.46-0.46,1.204,0,1.664
		l2.104,2.104c0.46,0.46,1.204,0.46,1.664,0l5.708-5.716c0.46-0.46,0.46-1.204,0-1.664L195.58,150.636z"/>
</g>
<path style="fill:#70B1E1;" d="M185.172,192.156c0-26.24,21.348-47.588,47.588-47.588s47.588,21.348,47.588,47.588
	S259,239.744,232.76,239.744S185.172,218.396,185.172,192.156z"/>
<circle style="fill:#FDFEFF;" cx="232.76" cy="192.16" r="40.764"/>
<path style="fill:#E8E7E8;" d="M226.552,130.816c0,2.268-0.176,4.372,2.328,4.372h7.76c2.504,0,2.328-2.104,2.328-4.372H226.552z"/>
<path style="fill:#FDFEFF;" d="M239.524,124.796H226c-1.224,0-2.216,0.992-2.216,2.216v2.68c0,1.224,0.992,2.216,2.216,2.216h13.524
	c1.224,0,2.216-0.992,2.216-2.216v-2.68C241.74,125.788,240.748,124.796,239.524,124.796z"/>
<g>
	<circle style="fill:#656D7A;" cx="215.18" cy="161.86" r="1.808"/>
	<circle style="fill:#656D7A;" cx="250.36" cy="223.004" r="1.808"/>
	<circle style="fill:#656D7A;" cx="202.248" cy="174.744" r="1.808"/>
	<circle style="fill:#656D7A;" cx="263.272" cy="210.12" r="1.808"/>
	<circle style="fill:#656D7A;" cx="202.2" cy="210" r="1.808"/>
	<path style="fill:#656D7A;" d="M262.432,173.28c0.864-0.496,1.972-0.2,2.468,0.668c1.192,2.072-1.944,3.876-3.136,1.804
		C261.268,174.884,261.564,173.78,262.432,173.28z"/>
	<circle style="fill:#656D7A;" cx="215.076" cy="222.944" r="1.808"/>
	<path style="fill:#656D7A;" d="M248.88,161.012c1.2-2.068,4.328-0.256,3.128,1.812c-0.5,0.864-1.608,1.16-2.472,0.656
		C248.676,162.984,248.38,161.876,248.88,161.012z"/>
	<rect x="266.24" y="191.812" style="fill:#656D7A;" width="3.616" height="2.124"/>
	<rect x="195.684" y="191.812" style="fill:#656D7A;" width="3.616" height="2.124"/>
	<rect x="231.7" y="226.32" style="fill:#656D7A;" width="2.124" height="3.616"/>
	<rect x="231.7" y="155.8" style="fill:#656D7A;" width="2.124" height="3.616"/>
</g>
<path style="fill:#F5EA07;" d="M231.46,217.128v-4.32c-5.404-0.552-10.256-2.7-14.556-6.448l4.32-5.148
	c3.312,2.88,6.724,4.596,10.236,5.148v-11.48c-4.456-1.064-7.72-2.464-9.792-4.2c-2.072-1.736-3.108-4.312-3.108-7.724
	s1.192-6.204,3.58-8.372s5.492-3.352,9.32-3.548v-2.96h3.788v3.02c4.34,0.316,8.44,1.796,12.308,4.436l-3.848,5.444
	c-2.604-1.852-5.424-3-8.46-3.432v11.124h0.176c4.536,1.064,7.872,2.508,10,4.32c2.132,1.816,3.196,4.448,3.196,7.9
	s-1.224,6.264-3.672,8.432c-2.444,2.172-5.68,3.352-9.704,3.552v4.26h-3.784V217.128z M227.284,178.932
	c-1.004,0.888-1.508,1.992-1.508,3.316c0,1.32,0.392,2.368,1.184,3.136c0.788,0.768,2.284,1.508,4.496,2.216v-10.236
	C229.684,177.524,228.292,178.044,227.284,178.932z M239.74,204.88c1.104-0.908,1.656-2.052,1.656-3.432s-0.436-2.476-1.304-3.284
	s-2.484-1.568-4.852-2.276v10.648C237.14,206.34,238.636,205.788,239.74,204.88z"/>
<g>
	<path style="fill:#F7CFA3;" d="M232.5,235.872c-0.276,2.632-0.232,1.648-0.232,5.128c-0.572,2.672-2.632,2.288-2.632,2.288
		c-2.444,0.304-2.976-3.168-2.976-3.168c-1.792-0.192-2.9,1.376-2.9,1.376c-1.452,2.136-3.588,1.068-3.588,1.068
		c-1.792-0.156-1.488-3.052-1.488-3.052c-1.792,0.572-3.776-0.876-3.776-0.876c-5.92-0.004-5.636,0.032-4.388-5.304
		c-0.592-2.38,2.516-4.964,4.084-7.096c0.876-0.768,1.724-0.232,1.724-0.232c2.62,0.564-0.092,4.476-0.916,8.476l2.012,1.64
		c0.868,0.708,2.176,0.288,2.476-0.788c0.976-3.52,1.908-9.528,5.132-7.84c2.46,1.084,0.2,5.456-0.284,9.76
		c1.236,0.756,2.7,1.848,2.8,0.34c0.452-6.956-0.848-10.68,2.164-9.844c0.488,0.056,0.844,0.228,1.096,0.452
		C231.324,228.652,232.376,235.188,232.5,235.872z"/>
	<path style="fill:#F7CFA3;" d="M216.092,230.352l-2.652,5.216l-3.076,2.68c-1.2-1.072-0.22-3.184,0.16-4.748
		c-0.008-0.032-0.012-0.06-0.02-0.092c-0.704-1.412,1.324-3.624,2.268-4.712L216.092,230.352z"/>
	<path style="fill:#F7CFA3;" d="M236.684,237.404c-1.316,0.856-3.896,1.176-5.432,1.22v2.228c3.28-0.064,7.128-0.364,8.736-0.8
		c0.092-0.128,1.42-1.384,1.536-1.496l0,0l0.268-0.256C242.036,235.824,238.572,236.176,236.684,237.404z"/>
	<path style="fill:#F7CFA3;" d="M232.5,236.04l-0.952-5.152c-0.284-1.548-0.02-2.768-1.84-2.976
		c-3.012-0.836-1.712,2.884-2.164,9.844c-0.1,1.508-1.564,0.416-2.8-0.34c0.488-4.3,2.748-8.676,0.284-9.76
		c-3.22-1.688-4.156,4.32-5.132,7.84c-0.296,1.08-1.604,1.496-2.476,0.788l-2.012-1.64c0.82-4,3.536-7.912,0.916-8.476
		c0,0-0.848-0.536-1.724,0.232c-1.548,2.104-4.58,4.632-4.104,6.996c0.808,0.436,1.632,0.844,2.472,1.232
		c5.88,2.716,12.412,4.26,19.3,4.332C232.432,238.968,232.5,236.04,232.5,236.04z"/>
</g>
<g>
	<path style="fill:#E8E7E8;" d="M217.34,227.244l-1.032,1.732c-1.072,1.232-3.288,1.02-2.804-1.156
		c0.884-1.088,1.592-2.424,2.82-1.644C216.908,226.296,217.2,226.736,217.34,227.244z"/>
	<path style="fill:#E8E7E8;" d="M225.892,228.6l-0.328,1.3c-0.516,1.272-3.28,0.38-3.136-0.2l0.1-1.732
		C223.564,227.056,225.344,227.276,225.892,228.6z"/>
	<path style="fill:#E8E7E8;" d="M229.328,232.264c-0.912,0.16-0.94-0.204-0.94-0.204l-0.748-2.7c0.2-1.964,2.068-1.444,2.068-1.444
		c0.488,0.056,0.844,0.228,1.096,0.452C230.864,230.556,231.4,232.328,229.328,232.264z"/>
	<path style="fill:#E8E7E8;" d="M241.788,238.3c-0.192,0.184-1.672,1.58-1.832,1.792c-0.448,0.012-1.072-0.056-1.132-0.512
		l1.108-1.148C239.936,238.428,240.868,238.924,241.788,238.3z"/>
</g>
<g>
	<path style="fill:#D64331;" d="M301.416,161.092c-1.18,4.668-3.748,11.34-2.628,15.088
		C296.272,172.672,299.072,164.628,301.416,161.092z"/>
	<path style="fill:#D64331;" d="M311.136,138.936c-6.94,2.308-10.736,13.644-12.984,20.032
		C299.22,150.676,304.304,139.516,311.136,138.936z"/>
	<path style="fill:#D64331;" d="M296.896,158.42c0,0-0.02,0.08-0.064,0.232c-1.912,6.604-1.948,14.228-1.788,20.824
		C292.996,172.028,294.268,162.872,296.896,158.42z"/>
</g>
<path style="fill:#F7CFA3;" d="M326.5,222.668c-2.492,7.936,2.024,13.096-4.764,15.724c0,0-6.304,5.036-8.668,0.856
	c0,0-6.032-3.664-7.436-8.12c-4.684-7.028-7.152-8.404-8.772-13.736c0-0.036,0-0.036,0-0.036c-0.172-0.684-0.308-1.372-0.308-1.952
	c0,0-4.384-16-8.12-22.712c0,0-1.128-6.2-6.304-8.632c0,0-6.476-0.172-9.352-2.296c0,0-2.844-0.856-3.564,1.372
	c0,0-2.156,0.924-2.5-1.508c0,0-0.24-1.68-0.96-2.328c0,0-0.652-0.856,0-1.748c0,0,0.068-0.616-0.788-1.372
	c0,0-1.712-0.824-0.276-3.184c0,0-0.788-2.056,1.404-3.804c0,0-0.96-1.268-0.24-2.26l-16.236,0.104c0,0-2.228,0-3.016-0.924
	c0,0,0-0.036-0.036-0.036l-0.036-0.036c-0.036-0.036-0.036-0.068-0.068-0.104c0-0.036,0-0.036-0.036-0.068
	c0-0.036-0.036-0.068-0.036-0.104s-0.036-0.036-0.036-0.068v-0.036c0-0.036,0-0.068-0.036-0.068v-0.204
	c0-0.172,0.036-0.344,0.068-0.512c0,0,0.96-1.68,3.184-1.644c0.204,0,0.444,0.036,0.684,0.068l7.64-0.444l9.216-0.48
	c0,0,2.568-1.336,7.364,0.204l2.364,0.616c0,0-1.372-3.184,1.232-5.38c0,0,1.988-1.848,2.364,2.328c0,0,1.3,2.876,4.42,4.692
	l5.172,4.488c2.872,1.436,7.888,3.668,8.736,6.852c0.48-2.296,19.596-11.168,19.596-11.168c0.788-0.892,1.576-1.508,2.296-1.988
	c1.028,3.664,1.68,8.84,1.132,15.928C320.224,192.228,328.872,213.184,326.5,222.668z"/>
<g>
	<path style="fill:#E8E7E8;" d="M248.74,166.104h-2.136c-0.004-0.004-0.008-0.012-0.012-0.016c-0.016-0.02-0.032-0.04-0.048-0.06
		c-0.02-0.024-0.036-0.052-0.056-0.08c-0.016-0.024-0.032-0.052-0.048-0.084v-0.004c-0.012-0.024-0.024-0.056-0.036-0.084
		c0,0,0-0.004-0.004-0.004c-0.008-0.024-0.016-0.048-0.024-0.072c-0.004-0.012-0.008-0.028-0.012-0.044
		c-0.008-0.024-0.012-0.048-0.016-0.072c-0.008-0.036-0.012-0.068-0.012-0.104c-0.004-0.036-0.004-0.068-0.004-0.104
		c0-0.152,0.028-0.316,0.092-0.5c0,0,0.932-1.688,3.152-1.652c0.132,0.248,0.248,0.608,0.308,1.14
		C249.888,164.368,250.3,165.708,248.74,166.104z"/>
	<path style="fill:#E8E7E8;" d="M278.272,157.32l0.156,1.836c0,0,1.244,1.116,2.036,1.008c0,0,0.34-1.44-1.104-3.448
		c-0.332-0.088-0.628-0.068-0.868,0.108C278.336,156.94,278.256,157.128,278.272,157.32z"/>
</g>
<polygon style="fill:#353944;" points="300.184,257.736 299.836,259.892 220.58,259.892 220.652,253.584 299.524,253.584 "/>
<rect x="254.4" y="253.6" style="fill:#E8BB20;" width="11.956" height="6.304"/>
<path style="fill:#F0B97C;" d="M298.788,176.176c14.728,28.676,19.328,29.052,23.76,34.692c1.76,2.188,2.908,4.472,3.088,7.172
	c-0.284-1.72-0.764-2.852-1.632-4.264C320.152,207.608,309.248,202.992,298.788,176.176z"/>
<g>
</g>
<g>
</g>
<g>
</g>
<g>
</g>
<g>
</g>
<g>
</g>
<g>
</g>
<g>
</g>
<g>
</g>
<g>
</g>
<g>
</g>
<g>
</g>
<g>
</g>
<g>
</g>
<g>
</g>
</svg>
