<?xml version="1.0" encoding="iso-8859-1"?>
<!-- Generator: Adobe Illustrator 19.0.0, SVG Export Plug-In . SVG Version: 6.00 Build 0)  -->
<svg version="1.1" id="Capa_1" xmlns="http://www.w3.org/2000/svg" xmlns:xlink="http://www.w3.org/1999/xlink" x="0px" y="0px"
	 viewBox="0 0 512 512" style="enable-background:new 0 0 512 512;" xml:space="preserve">
<circle style="fill:#7EC359;" cx="256" cy="256" r="256"/>
<path style="fill:#FDFEFF;" d="M296.888,250.536c-4.644,1.756-4.64,8.316,0,10.068c43.692,16.516,74.764,58.736,74.764,108.216
	v105.796H140.344V368.82c0-49.476,31.072-91.7,74.768-108.216c4.644-1.756,4.644-8.312,0-10.068
	c-43.696-16.528-74.768-58.748-74.768-108.224V36.516h231.308v105.796C371.656,191.788,340.58,234.008,296.888,250.536z"/>
<g>
	<path style="fill:#4D535F;" d="M163.492,415.604v16.572h185.016v-16.572c0-51.092-41.416-92.508-92.508-92.508l0,0
		C204.908,323.096,163.492,364.512,163.492,415.604z"/>
	<path style="fill:#4D535F;" d="M163.492,128.12v14.192c0,38.252,24.036,73.044,59.812,86.576
		c11.204,4.236,18.44,14.712,18.436,26.688V375h28.52V255.572c0-11.976,7.236-22.452,18.44-26.688
		c35.776-13.528,59.808-48.32,59.808-86.576V128.12C285.616,99.924,233.076,158.4,163.492,128.12z"/>
</g>
<g>
	<rect x="119.08" y="24.972" style="fill:#F1592F;" width="273.84" height="35.564"/>
	<rect x="119.08" y="451.48" style="fill:#F1592F;" width="273.84" height="35.564"/>
</g>
<g>
	<path style="fill:#F5EA07;" d="M211,147.904v-19.828c-6.184-1.768-10.72-4.44-13.604-8.02s-4.328-7.928-4.328-13.036
		c0-5.172,1.632-9.52,4.896-13.036s7.612-5.544,13.036-6.08V83.22h6.86v4.684c5.016,0.6,9.008,2.312,11.972,5.136
		c2.964,2.824,4.86,6.6,5.68,11.332l-11.972,1.56c-0.724-3.724-2.62-6.248-5.68-7.572v18.504c7.572,2.052,12.728,4.708,15.476,7.972
		c2.744,3.264,4.116,7.452,4.116,12.564c0,5.712-1.728,10.52-5.18,14.432s-8.256,6.308-14.408,7.192v8.848H211v-8.612
		c-5.456-0.664-9.892-2.696-13.296-6.104c-3.408-3.408-5.584-8.22-6.532-14.432l12.352-1.324c0.504,2.524,1.452,4.7,2.84,6.532
		C207.752,145.756,209.296,147.084,211,147.904z M211,98.216c-1.86,0.632-3.344,1.704-4.448,3.216
		c-1.104,1.516-1.656,3.188-1.656,5.016c0,1.672,0.504,3.224,1.516,4.66c1.008,1.436,2.54,2.596,4.592,3.48V98.216H211z
		 M217.864,148.564c2.368-0.44,4.292-1.536,5.772-3.288c1.484-1.752,2.224-3.808,2.224-6.176c0-2.112-0.624-3.936-1.868-5.464
		c-1.248-1.532-3.288-2.704-6.128-3.524V148.564z"/>
	<path style="fill:#F5EA07;" d="M291.996,168.204v-19.728c-6.152-1.756-10.664-4.416-13.536-7.98s-4.308-7.888-4.308-12.972
		c0-5.148,1.624-9.472,4.872-12.972c3.248-3.5,7.572-5.516,12.972-6.052v-4.66h6.828v4.66c4.992,0.596,8.96,2.3,11.912,5.108
		s4.832,6.568,5.648,11.276l-11.912,1.552c-0.72-3.704-2.604-6.216-5.648-7.532v18.408c7.532,2.04,12.664,4.684,15.396,7.932
		s4.096,7.416,4.096,12.5c0,5.68-1.72,10.468-5.156,14.36s-8.216,6.276-14.336,7.156v8.804h-6.828v-8.568
		c-5.432-0.66-9.84-2.684-13.232-6.072c-3.388-3.388-5.556-8.176-6.496-14.36l12.288-1.32c0.504,2.512,1.444,4.676,2.824,6.496
		C288.764,166.068,290.304,167.388,291.996,168.204z M291.996,118.768c-1.852,0.628-3.328,1.696-4.424,3.2
		c-1.1,1.508-1.648,3.172-1.648,4.992c0,1.664,0.504,3.208,1.508,4.636c1.004,1.428,2.528,2.58,4.568,3.46v-16.288H291.996z
		 M298.824,168.864c2.356-0.44,4.268-1.532,5.744-3.272s2.212-3.792,2.212-6.144c0-2.104-0.62-3.916-1.86-5.44
		s-3.272-2.692-6.096-3.508V168.864z"/>
	<path style="fill:#F5EA07;" d="M253.672,233.556v-13.94c-4.348-1.244-7.536-3.12-9.564-5.64c-2.028-2.516-3.044-5.572-3.044-9.168
		c0-3.636,1.148-6.692,3.444-9.168c2.296-2.472,5.352-3.9,9.168-4.276v-3.292h4.824v3.292c3.528,0.42,6.332,1.624,8.416,3.608
		c2.084,1.984,3.416,4.64,3.992,7.968l-8.416,1.096c-0.512-2.616-1.84-4.392-3.992-5.324v13.008c5.324,1.44,8.948,3.312,10.88,5.608
		c1.928,2.296,2.896,5.24,2.896,8.832c0,4.016-1.216,7.396-3.644,10.148s-5.804,4.436-10.132,5.056v6.22h-4.824v-6.056
		c-3.836-0.464-6.952-1.896-9.348-4.292s-3.928-5.78-4.592-10.148l8.684-0.932c0.356,1.776,1.02,3.304,1.996,4.592
		C251.388,232.048,252.472,232.976,253.672,233.556z M253.672,198.62c-1.308,0.444-2.352,1.196-3.128,2.264
		c-0.776,1.064-1.164,2.24-1.164,3.528c0,1.176,0.356,2.268,1.064,3.276s1.784,1.824,3.228,2.444L253.672,198.62L253.672,198.62z
		 M258.496,234.02c1.664-0.312,3.016-1.08,4.06-2.312s1.564-2.68,1.564-4.34c0-1.488-0.44-2.768-1.316-3.844
		c-0.876-1.076-2.312-1.904-4.308-2.48L258.496,234.02L258.496,234.02z"/>
	<path style="fill:#F5EA07;" d="M254.124,300.684V289.46c-3.5-1-6.068-2.512-7.7-4.54c-1.636-2.028-2.452-4.488-2.452-7.38
		c0-2.928,0.924-5.388,2.772-7.38s4.308-3.14,7.38-3.444v-2.652h3.884v2.652c2.84,0.34,5.1,1.308,6.776,2.908
		c1.68,1.6,2.752,3.736,3.216,6.416l-6.776,0.884c-0.412-2.108-1.484-3.536-3.216-4.288v10.476c4.288,1.16,7.208,2.664,8.76,4.516
		c1.552,1.848,2.332,4.22,2.332,7.112c0,3.232-0.976,5.956-2.932,8.172s-4.676,3.572-8.156,4.072v5.008h-3.884v-4.876
		c-3.088-0.376-5.6-1.528-7.528-3.456c-1.928-1.928-3.16-4.652-3.696-8.172l6.992-0.752c0.284,1.428,0.82,2.66,1.608,3.696
		C252.284,299.472,253.16,300.22,254.124,300.684z M254.124,272.556c-1.052,0.356-1.892,0.964-2.52,1.82
		c-0.624,0.856-0.936,1.804-0.936,2.84c0,0.948,0.284,1.828,0.856,2.64s1.436,1.468,2.6,1.968V272.556z M258.008,301.06
		c1.34-0.252,2.428-0.872,3.268-1.86c0.84-0.992,1.26-2.156,1.26-3.496c0-1.196-0.352-2.228-1.06-3.096
		c-0.704-0.868-1.86-1.532-3.468-1.996L258.008,301.06L258.008,301.06z"/>
</g>
<g>
</g>
<g>
</g>
<g>
</g>
<g>
</g>
<g>
</g>
<g>
</g>
<g>
</g>
<g>
</g>
<g>
</g>
<g>
</g>
<g>
</g>
<g>
</g>
<g>
</g>
<g>
</g>
<g>
</g>
</svg>
