<?xml version="1.0" encoding="iso-8859-1"?>
<!-- Generator: Adobe Illustrator 19.0.0, SVG Export Plug-In . SVG Version: 6.00 Build 0)  -->
<svg version="1.1" id="Capa_1" xmlns="http://www.w3.org/2000/svg" xmlns:xlink="http://www.w3.org/1999/xlink" x="0px" y="0px"
	 viewBox="0 0 512 512" style="enable-background:new 0 0 512 512;" xml:space="preserve">
<circle style="fill:#4D5BA5;" cx="256" cy="256" r="256"/>
<path style="fill:#E8BB20;" d="M365.564,103c-12.588-23.104-56.872-40.148-109.572-40.148c-52.684,0-96.972,17.044-109.556,40.148
	c-18.704-34.096,36.08-67,109.556-67C329.588,36,384.236,68.972,365.564,103z"/>
<g>
	<path style="fill:#D64331;" d="M142.836,85.68v18.372c0,20.244,25.456,45.988,91.056,70.04v-38.384
		C201.256,130.912,142.836,118.516,142.836,85.68z"/>
	<path style="fill:#D64331;" d="M369.164,85.68v18.372c0,20.244-25.456,45.988-91.056,70.04v-38.384
		C310.744,130.912,369.164,118.516,369.164,85.68z"/>
</g>
<path style="fill:#E34E30;" d="M282.892,178.896h-53.784L216.596,138.2c-1.42-4.616,2.032-9.288,6.864-9.288h65.084
	c4.828,0,8.28,4.672,6.864,9.288L282.892,178.896z"/>
<polygon style="fill:#F1592F;" points="282.892,178.896 229.108,178.896 189.864,413.372 256,476 322.136,413.372 "/>
<g>
</g>
<g>
</g>
<g>
</g>
<g>
</g>
<g>
</g>
<g>
</g>
<g>
</g>
<g>
</g>
<g>
</g>
<g>
</g>
<g>
</g>
<g>
</g>
<g>
</g>
<g>
</g>
<g>
</g>
</svg>
