<?xml version="1.0" encoding="iso-8859-1"?>
<!-- Generator: Adobe Illustrator 19.0.0, SVG Export Plug-In . SVG Version: 6.00 Build 0)  -->
<svg version="1.1" id="Capa_1" xmlns="http://www.w3.org/2000/svg" xmlns:xlink="http://www.w3.org/1999/xlink" x="0px" y="0px"
	 viewBox="0 0 512 512" style="enable-background:new 0 0 512 512;" xml:space="preserve">
<circle style="fill:#7EC359;" cx="256" cy="256" r="256"/>
<polygon style="fill:#FDFEFF;" points="393.444,305.284 382.396,305.284 382.396,268.152 129.928,268.152 129.928,305.284 
	118.88,305.284 118.88,257.104 393.444,257.104 "/>
<path style="fill:#E8E7E8;" d="M157.432,413.404c-1.8,4.304-2.608,8.664-3.556,13.332c-2.564,12.532-14.052,11.472-7.964,49.26
	h-36.444c0.508-6.228-4.024-7.228-8.024-8.008c0.412-0.244,0.412-1.036-0.016-2.44c0.092-3.204-0.336-6.316-0.992-9.444
	c-1.252-5.888,0.136-11.212-2.516-16.888c-2.076-4.44-6.164-5.156-9.64-3.724v-18.336c2.612-1.412,6.176-3.4,8.3-5.46
	c2.012-1.848,3.432-3.904,4.424-6.012c3.752-7.98,1.16-16.416,1.16-16.416h47.612c0,0-2.44,7.904,0.84,15.668
	c0.672,1.6,1.588,3.188,2.824,4.716C154.908,411.468,155.888,412.2,157.432,413.404z"/>
<path style="fill:#F0B97C;" d="M146.532,426.632c2.016-2.164,5.056-2.856,7.824-2.252c0.776-3.788,1.584-7.404,3.08-10.976
	c-1.592-1.144-2.876-2.364-4-3.752c-1.236-1.524-2.152-3.112-2.824-4.716c-3.28-7.764-0.84-15.668-0.84-15.668H102.16
	c0,0,2.592,8.436-1.16,16.416c-0.992,2.104-2.412,4.164-4.424,6.012c-2.072,2.008-5.756,4.092-8.292,5.464v8.132
	c4.76-7.332,12.964-10.624,17.18-3.012c4.284-2.2,9.904-1.3,11.264,4.28c0.932-0.104,1.932-0.064,2.996,0.168
	c2.32,0.508,5.996,3.096,8.316,2.46c3.64-0.996,6.976-2.78,10.612-3.796c3.132-0.872,5.724-0.048,7.552,1.612
	C146.32,426.884,146.416,426.752,146.532,426.632z"/>
<g>
	<path style="fill:#4D535F;" d="M104.944,466.596c-0.012-1.7-0.328-6.64-0.056-8.156c-0.44-1.268-0.62-4.788-0.644-6.148h-2.228
		v-5.748c-2.208-2.148-2.62-4.32-2.588-7.064c-2.328-2.508-3.336-5.228-3.372-8.188c-1.56-1.748-2.884-5.82-3.196-7.788
		c-1.38-2.16-1.716-5.572-1.452-8.112c-2.132,1.272-4.716,2.668-7.656,4.116c-9.964,4.988-23.632,10.772-34.568,15.208
		c-11.028,4.484-18.232,15.18-18.232,27.08V476h79.84v-1.336C107.42,473.524,104.968,470.308,104.944,466.596z"/>
	<path style="fill:#4D535F;" d="M147.184,459.92c0.004-0.504-0.048-1-0.136-1.48c0.44-1.268,0.62-4.788,0.644-6.148h2.228v-5.748
		c2.208-2.148,2.62-4.32,2.588-7.064c2.328-2.508,3.336-5.228,3.372-8.188c1.644-1.84,2.9-5.92,3.196-7.788
		c1.38-2.16,1.716-5.572,1.452-8.112c2.132,1.272,4.716,2.668,7.656,4.116c9.964,4.988,23.632,10.772,34.568,15.208
		c11.028,4.484,18.232,15.18,18.232,27.08V476h-79.84v-1.336C147.5,472.512,147.14,466.576,147.184,459.92z"/>
</g>
<polygon style="fill:#5F87C4;" points="141.016,476 109.56,476 119.036,439.08 129.944,439.08 "/>
<path style="fill:#70B1E1;" d="M119.952,446.512c0,0-13.208-2.62-4.904-21.844l10.044-6.336l7.868,3.168l5.68,9.72
	c0,0-3.744,16.548-12.668,15.292H119.952z"/>
<g>
	<path style="fill:#F7CFA3;" d="M85.712,353.852c0,28.912,17.372,52.348,38.804,52.348s38.804-23.436,38.804-52.348l-4.42-24.108
		c0,0-9.412-7.3-10.76-8.644c-1.344-1.344-14.6-4.42-14.6-4.42l-29.636,1.92l-10.9,9.22l-3.652,13.64L85.712,353.852z"/>
	
		<ellipse transform="matrix(-0.3531 -0.9356 0.9356 -0.3531 -221.7754 575.1671)" style="fill:#F7CFA3;" cx="87.96" cy="364.256" rx="13.284" ry="6.148"/>
	
		<ellipse transform="matrix(-0.3531 0.9356 -0.9356 -0.3531 560.2538 341.1255)" style="fill:#F7CFA3;" cx="162.193" cy="364.254" rx="13.284" ry="6.148"/>
</g>
<g>
	<path style="fill:#FDFEFF;" d="M125.092,418.332l-15.288,22.272l-17.04-26.04c3.604-2.228,6.388-4.948,8.236-8.88L125.092,418.332z
		"/>
	<path style="fill:#FDFEFF;" d="M157.952,413.772l-17.56,26.836l-15.3-22.272l25.524-13.396
		C152.2,408.712,154.924,411.796,157.952,413.772z"/>
</g>
<g>
	<path style="fill:#656D7A;" d="M117.02,476H97.6l-12.92-24.24l12.448-9.612l-15.072,1.524l1.692-24.164
		c3.528-1.744,10.004-5.072,12.832-7.812L117.02,476z"/>
	<path style="fill:#656D7A;" d="M152.248,442.148l12.448,9.612L151.776,476h-19.42l21.084-66.348
		c3.064,3.78,7.304,6.02,12.096,8.512l1.784,25.508L152.248,442.148z"/>
	<path style="fill:#656D7A;" d="M146.62,325.788c0,0,17.252,2.572,10.52,35.652h4.908c0,0,9.54-23.308,1.404-37.756L146.62,325.788z
		"/>
</g>
<path style="fill:#4D535F;" d="M167.204,323.536c0,0-24.928,30.904-71.708,6.488c0,0-10.416,5.804-3.928,31.416h-5.976
	c0,0-7.232-26.28-0.452-36.952c0,0-4.684-5.16-2.9-10.42c0,0,2.444,4.956,5.884,6.172c0,0-6.728-7.384-1.212-15.024
	c0,0,0.1,7.588,4.804,9.66C91.712,314.876,129.508,276.132,167.204,323.536z"/>
<g>
	<path style="fill:#FDFEFF;" d="M118.488,354.8c-0.58,4.332-4.364,12.688-13.556,12.688h-2.692c-4.616,0-8.496-3.084-9.164-8.816
		v-6.78c0,0-0.2-6.22,8.136-5.86h8.42c0,0,7.616,0.756,8.856,4.984V354.8z"/>
	<path style="fill:#FDFEFF;" d="M155.748,351.888c0,4,1.384,15.596-9.164,15.596h-2.688c-8.424,0-12.832-7.284-13.556-12.688v-3.788
		c1.24-4.228,8.86-4.984,8.86-4.984h8.416C155.948,345.668,155.748,351.888,155.748,351.888z"/>
</g>
<path style="fill:#353944;" d="M134.736,345.02c-6.724,1.744-14.16,1.724-20.82,0c-13.28-3.436-31.192,1.26-31.192,1.26l0.5,3.624
	c1.712-0.16,3.02,0.056,3.992,0.408c1.464,0.532,2.472,1.88,2.576,3.432l0.224,3.408c0.888,12.228,10.868,11.78,10.868,11.78h5.716
	c9.368,0,13.896-8.88,14.556-13.252c0.568-3.736,3.164-3.964,3.164-3.964s2.592,0.224,3.16,3.964
	c0.656,4.308,5.104,13.252,14.912,13.252h5.36c0,0,9.984,0.452,10.876-11.78l0.224-3.408c0.104-1.552,1.108-2.904,2.572-3.432
	c0.976-0.352,2.28-0.568,3.996-0.408l0.66-3.624C166.084,346.28,148.012,341.584,134.736,345.02z M118.488,354.8
	c-0.58,4.332-4.364,12.688-13.556,12.688h-2.692c-4.616,0-8.496-3.084-9.164-8.816v-6.78c0,0-0.2-6.22,8.136-5.86h8.42
	c0,0,7.616,0.756,8.856,4.984V354.8z M155.748,351.888c0,4,1.384,15.596-9.164,15.596h-2.688c-8.424,0-12.832-7.284-13.556-12.688
	v-3.788c1.24-4.228,8.86-4.984,8.86-4.984h8.416C155.948,345.668,155.748,351.888,155.748,351.888z"/>
<path style="fill:#F0B97C;" d="M131.836,390.42H117.2c-1.496,0-2.708-1.212-2.708-2.708l0,0c0-1.496,1.212-2.708,2.708-2.708h14.632
	c1.496,0,2.708,1.212,2.708,2.708l0,0C134.54,389.208,133.332,390.42,131.836,390.42z"/>
<path style="fill:#E8E7E8;" d="M415.016,413.404c-1.8,4.304-2.608,8.664-3.556,13.332c-2.564,12.532-14.052,11.472-7.964,49.26
	h-36.444c0.508-6.228-4.024-7.228-8.024-8.008c0.412-0.244,0.412-1.036-0.016-2.44c0.092-3.204-0.336-6.316-0.992-9.444
	c-1.252-5.888,0.136-11.212-2.516-16.888c-2.076-4.44-6.164-5.156-9.64-3.724v-18.336c2.004-1.084,4.856-2.704,6.668-4.072
	c0.58-0.444,1.128-0.9,1.632-1.388c2.012-1.848,3.432-3.904,4.424-6.012c3.752-7.98,1.16-16.416,1.16-16.416h47.612
	c0,0-2.44,7.904,0.84,15.668c0.672,1.6,1.588,3.188,2.824,4.716c0.976,1.204,2.152,2.364,3.556,3.432
	C414.712,413.192,414.88,413.3,415.016,413.404z"/>
<path style="fill:#F0B97C;" d="M404.116,426.632c2.016-2.164,5.056-2.856,7.824-2.252c0.776-3.788,1.584-7.404,3.08-10.976
	c-0.148-0.104-0.312-0.212-0.444-0.32c-1.404-1.068-2.58-2.228-3.556-3.432c-1.236-1.524-2.152-3.112-2.824-4.716
	c-3.28-7.764-0.84-15.668-0.84-15.668h-47.612c0,0,2.592,8.436-1.16,16.416c-0.992,2.104-2.412,4.164-4.424,6.012
	c-0.504,0.488-1.052,0.944-1.632,1.388c-1.808,1.368-4.664,2.996-6.66,4.076v8.132c4.76-7.332,12.964-10.624,17.18-3.012
	c4.284-2.2,9.904-1.3,11.264,4.28c0.932-0.104,1.932-0.064,2.996,0.168c2.32,0.508,5.996,3.096,8.316,2.46
	c3.64-0.996,6.976-2.78,10.612-3.796c3.132-0.872,5.724-0.048,7.552,1.612C403.9,426.884,404,426.752,404.116,426.632z"/>
<g>
	<path style="fill:#4D535F;" d="M362.528,466.596c-0.012-1.7-0.328-6.64-0.056-8.156c-0.44-1.268-0.62-4.788-0.644-6.148H359.6
		v-5.748c-2.208-2.148-2.62-4.32-2.588-7.064c-2.328-2.508-3.336-5.228-3.372-8.188c-1.648-1.848-2.892-5.884-3.196-7.788
		c-1.38-2.16-1.716-5.572-1.452-8.112c-2.132,1.272-4.716,2.668-7.656,4.116c-9.964,4.988-23.632,10.772-34.568,15.208
		c-11.028,4.484-18.232,15.18-18.232,27.08V476h79.84v-1.336C365.004,473.524,362.552,470.308,362.528,466.596z"/>
	<path style="fill:#4D535F;" d="M404.576,466.596c0.012-1.7,0.328-6.64,0.056-8.156c0.44-1.268,0.62-4.788,0.644-6.148h2.228v-5.748
		c2.208-2.148,2.62-4.32,2.588-7.064c2.328-2.508,3.336-5.228,3.372-8.188c1.56-1.748,2.884-5.82,3.196-7.788
		c1.38-2.16,1.716-5.572,1.452-8.112c2.132,1.272,4.716,2.668,7.656,4.116c9.964,4.988,23.632,10.772,34.568,15.208
		c11.028,4.484,18.232,15.18,18.232,27.08V476h-79.84v-1.336C402.1,473.524,404.552,470.308,404.576,466.596z"/>
</g>
<polygon style="fill:#5F87C4;" points="398.6,476 367.144,476 376.62,439.08 387.528,439.08 "/>
<path style="fill:#70B1E1;" d="M377.536,446.512c0,0-13.208-2.62-4.904-21.844l10.044-6.336l7.868,3.168l5.68,9.72
	c0,0-3.744,16.548-12.668,15.292H377.536z"/>
<g>
	<path style="fill:#F7CFA3;" d="M343.296,353.852c0,28.912,17.372,52.348,38.804,52.348s38.804-23.436,38.804-52.348l-4.42-24.108
		c0,0-9.412-7.3-10.756-8.644s-14.6-4.42-14.6-4.42l-29.636,1.92l-10.9,9.22l-3.652,13.64L343.296,353.852z"/>
	
		<ellipse transform="matrix(-0.3531 -0.9356 0.9356 -0.3531 126.7853 816.1561)" style="fill:#F7CFA3;" cx="345.555" cy="364.246" rx="13.284" ry="6.148"/>
	
		<ellipse transform="matrix(-0.3531 0.9356 -0.9356 -0.3531 908.843 100.1189)" style="fill:#F7CFA3;" cx="419.808" cy="364.266" rx="13.284" ry="6.148"/>
</g>
<g>
	<path style="fill:#FDFEFF;" d="M382.676,418.332l-15.288,22.272l-17.04-26.04c0.84-0.52,1.556-1.008,2.18-1.48
		c2.912-2.212,4.82-4.776,6.056-7.4L382.676,418.332z"/>
	<path style="fill:#FDFEFF;" d="M415.536,413.772l-17.56,26.836l-15.3-22.272L408.2,404.94c1.204,2.868,3.188,5.72,6.376,8.148
		C414.864,413.316,415.184,413.544,415.536,413.772z"/>
</g>
<g>
	<path style="fill:#656D7A;" d="M374.604,476h-19.42l-12.92-24.24l12.448-9.612l-15.072,1.524l1.692-24.164
		c3.192-1.576,8.38-4.292,11.196-6.424c0.58-0.444,1.128-0.9,1.632-1.388L374.604,476z"/>
	<path style="fill:#656D7A;" d="M409.832,442.148l12.448,9.612L409.36,476h-19.42l21.084-66.348
		c0.976,1.204,2.152,2.364,3.556,3.432c1.996,1.572,6.3,3.912,8.544,5.08l1.784,25.508L409.832,442.148z"/>
	<path style="fill:#656D7A;" d="M404.204,325.788c0,0,17.252,2.572,10.52,35.652h4.908c0,0,9.54-23.308,1.404-37.756
		L404.204,325.788z"/>
</g>
<path style="fill:#4D535F;" d="M424.788,323.536c0,0-24.928,30.904-71.708,6.488c0,0-10.416,5.804-3.928,31.416h-5.976
	c0,0-7.232-26.28-0.452-36.952c0,0-4.684-5.16-2.9-10.42c0,0,2.444,4.956,5.884,6.172c0,0-6.728-7.384-1.212-15.024
	c0,0,0.1,7.588,4.804,9.66C349.296,314.876,387.092,276.132,424.788,323.536z"/>
<g>
	<path style="fill:#FDFEFF;" d="M376.072,354.8c0,0-1.16,8.644-8.56,11.74c-1.58,0.66-3.288,0.944-5,0.944h-2.688
		c-1.992,0-3.964-0.596-5.54-1.816c-1.636-1.268-3.208-3.404-3.628-6.996v-6.78c0,0-0.2-6.22,8.136-5.86h8.42
		c0,0,7.616,0.756,8.856,4.984v3.784H376.072z"/>
	<path style="fill:#FDFEFF;" d="M413.332,351.888v6.78c-0.42,3.596-1.988,5.732-3.624,6.996c-1.576,1.22-3.548,1.816-5.54,1.816
		h-2.688c-1.712,0-3.42-0.284-5-0.944c-7.396-3.096-8.56-11.74-8.56-11.74v-3.788c1.24-4.228,8.86-4.984,8.86-4.984h8.416
		C413.532,345.668,413.332,351.888,413.332,351.888z"/>
</g>
<path style="fill:#353944;" d="M392.32,345.02c-6.724,1.744-14.16,1.724-20.82,0c-13.28-3.436-31.192,1.26-31.192,1.26l0.5,3.624
	c1.712-0.16,3.02,0.056,3.992,0.408c1.464,0.532,2.472,1.88,2.576,3.432l0.224,3.408c0.888,12.228,10.868,11.78,10.868,11.78h5.716
	c3.24,0,6.42-1.1,8.852-3.244c3.496-3.092,5.336-7.552,5.704-10.004c0.568-3.736,3.164-3.964,3.164-3.964s2.592,0.224,3.16,3.964
	c0.304,2.008,1.592,5.356,3.964,8.2c2.696,3.236,6.736,5.048,10.948,5.048h5.36c0,0,9.984,0.452,10.876-11.78l0.224-3.408
	c0.104-1.552,1.108-2.904,2.572-3.432c0.976-0.352,2.28-0.568,3.996-0.408l0.66-3.624C423.668,346.28,405.596,341.584,392.32,345.02
	z M376.072,354.8c0,0-1.16,8.644-8.56,11.74c-1.58,0.66-3.288,0.944-5,0.944h-2.688c-1.992,0-3.964-0.596-5.54-1.816
	c-1.636-1.268-3.208-3.404-3.628-6.996v-6.78c0,0-0.2-6.22,8.136-5.86h8.42c0,0,7.616,0.756,8.856,4.984v3.784H376.072z
	 M413.332,351.888v6.78c-0.42,3.596-1.988,5.732-3.624,6.996c-1.576,1.22-3.548,1.816-5.54,1.816h-2.688
	c-1.712,0-3.42-0.284-5-0.944c-7.396-3.096-8.56-11.74-8.56-11.74v-3.788c1.24-4.228,8.86-4.984,8.86-4.984h8.416
	C413.532,345.668,413.332,351.888,413.332,351.888z"/>
<path style="fill:#F0B97C;" d="M389.42,390.42h-14.636c-1.496,0-2.708-1.212-2.708-2.708l0,0c0-1.496,1.212-2.708,2.708-2.708
	h14.636c1.496,0,2.708,1.212,2.708,2.708l0,0C392.124,389.208,390.916,390.42,389.42,390.42z"/>
<rect x="250.64" y="206.24" style="fill:#FDFEFF;" width="11.048" height="56.48"/>
<g>
	<rect x="226.4" y="253.6" style="fill:#F1592F;" width="59.524" height="18.08"/>
	<rect x="247.124" y="232.88" style="fill:#F1592F;" width="18.08" height="28.576"/>
</g>
<path style="fill:#E8E7E8;" d="M287.368,149.444c-1.8,4.304-2.608,8.664-3.556,13.332c-1.204,5.888-5.704,10.572-7.628,16.232
	c-3.676,10.772-2.104,22.044-0.336,33.028h-36.444c0.288-3.54-1.512-6.972-6.148-7.704c-0.624-0.076-1.252-0.184-1.876-0.304
	c0.412-0.244,0.412-1.036-0.016-2.44c0.092-3.204-0.336-6.316-0.992-9.444c-1.252-5.888,0.136-11.212-2.516-16.888
	c-2.076-4.44-6.164-5.156-9.64-3.724v-18.336c2.004-1.084,4.856-2.704,6.668-4.072c0.58-0.444,1.128-0.9,1.632-1.388
	c2.012-1.848,3.432-3.904,4.424-6.012c3.752-7.98,1.16-16.416,1.16-16.416h47.612c0,0-2.44,7.904,0.84,15.668
	c0.672,1.6,1.588,3.188,2.824,4.716c0.976,1.204,2.152,2.364,3.556,3.432C287.06,149.232,287.228,149.336,287.368,149.444z"/>
<path style="fill:#F0B97C;" d="M276.464,162.668c2.016-2.164,5.056-2.856,7.824-2.252c0.776-3.788,1.584-7.404,3.08-10.976
	c-0.148-0.104-0.312-0.212-0.444-0.32c-1.404-1.068-2.58-2.228-3.556-3.432c-1.236-1.524-2.152-3.112-2.824-4.716
	c-3.28-7.764-0.84-15.668-0.84-15.668h-47.608c0,0,2.592,8.436-1.16,16.416c-0.992,2.104-2.412,4.164-4.424,6.012
	c-0.504,0.488-1.052,0.944-1.632,1.388c-1.808,1.368-4.664,2.996-6.66,4.076v8.132c1.368-2.108,3.344-4.088,6-5.904
	c4.62-3.156,9.08-0.896,11.18,2.892c4.284-2.2,9.904-1.3,11.264,4.28c0.932-0.104,1.932-0.064,2.996,0.168
	c2.32,0.508,5.996,3.096,8.316,2.46c3.64-0.996,6.976-2.78,10.612-3.796c3.132-0.872,5.72-0.048,7.552,1.612
	C276.252,162.92,276.348,162.792,276.464,162.668z"/>
<g>
	<path style="fill:#4D535F;" d="M234.876,202.632c-0.012-1.7-0.328-6.64-0.056-8.156c-0.44-1.268-0.62-4.788-0.644-6.148h-2.228
		v-5.748c-2.208-2.148-2.62-4.32-2.588-7.064c-2.328-2.508-3.336-5.228-3.372-8.188c-1.584-1.776-2.868-5.724-3.196-7.788
		c-1.38-2.16-1.716-5.572-1.452-8.112c-2.132,1.272-4.716,2.668-7.656,4.116c-9.964,4.988-23.632,10.772-34.568,15.208
		c-11.028,4.484-18.232,15.18-18.232,27.08v14.204h79.84V210.7C237.356,209.56,234.9,206.344,234.876,202.632z"/>
	<path style="fill:#4D535F;" d="M277.116,195.96c0.004-0.504-0.048-1-0.136-1.48c0.44-1.268,0.62-4.788,0.644-6.148h2.228v-5.748
		c2.208-2.148,2.62-4.32,2.588-7.064c2.328-2.508,3.336-5.228,3.372-8.188c1.648-1.848,2.892-5.884,3.196-7.788
		c1.38-2.16,1.716-5.572,1.452-8.112c2.132,1.272,4.716,2.668,7.656,4.116c9.964,4.988,23.632,10.772,34.568,15.208
		c11.028,4.484,18.232,15.18,18.232,27.08v14.204H271.08v-1.336C277.436,208.552,277.076,202.616,277.116,195.96z"/>
</g>
<polygon style="fill:#5F87C4;" points="270.952,212.04 239.496,212.04 248.968,175.12 259.876,175.12 "/>
<path style="fill:#70B1E1;" d="M249.884,182.548c0,0-13.208-2.62-4.904-21.844l10.044-6.336l7.868,3.168l5.68,9.72
	c0,0-3.744,16.548-12.668,15.292H249.884z"/>
<g>
	<path style="fill:#F7CFA3;" d="M215.648,89.888c0,28.912,17.372,52.348,38.804,52.348s38.804-23.436,38.804-52.348l-4.42-24.108
		c0,0-9.412-7.3-10.756-8.644c-1.344-1.344-14.6-4.42-14.6-4.42l-29.636,1.92l-10.896,9.22l-3.652,13.64L215.648,89.888z"/>
	
		<ellipse transform="matrix(-0.3531 -0.9356 0.9356 -0.3531 201.0382 339.5792)" style="fill:#F7CFA3;" cx="217.919" cy="100.286" rx="13.284" ry="6.148"/>
	
		<ellipse transform="matrix(-0.3531 0.9356 -0.9356 -0.3531 489.1346 -137.6157)" style="fill:#F7CFA3;" cx="292.144" cy="100.296" rx="13.284" ry="6.148"/>
</g>
<g>
	<path style="fill:#FDFEFF;" d="M255.024,154.372l-15.288,22.272l-17.04-26.04c0.84-0.52,1.556-1.008,2.18-1.48
		c2.912-2.212,4.82-4.776,6.056-7.4L255.024,154.372z"/>
	<path style="fill:#FDFEFF;" d="M287.884,149.812l-17.56,26.836l-15.3-22.272l25.524-13.396c1.204,2.868,3.188,5.72,6.376,8.148
		C287.212,149.352,287.536,149.58,287.884,149.812z"/>
</g>
<g>
	<path style="fill:#656D7A;" d="M246.952,212.04h-19.42l-12.92-24.24l12.448-9.612l-15.072,1.524l1.692-24.164
		c3.192-1.576,8.38-4.292,11.196-6.424c0.58-0.444,1.128-0.9,1.632-1.388L246.952,212.04z"/>
	<path style="fill:#656D7A;" d="M282.18,178.184l12.448,9.612l-12.92,24.24h-19.42l21.084-66.348
		c0.976,1.204,2.152,2.364,3.556,3.432c0.288,0.228,0.612,0.456,0.96,0.688c1.892,1.296,4.5,2.792,7.584,4.392l1.784,25.508
		L282.18,178.184z"/>
	<path style="fill:#656D7A;" d="M276.552,61.824c0,0,17.252,2.572,10.52,35.652h4.908c0,0,9.54-23.308,1.404-37.756L276.552,61.824z
		"/>
</g>
<path style="fill:#4D535F;" d="M297.136,59.576c0,0-24.928,30.904-71.708,6.488c0,0-10.416,5.804-3.928,31.416h-5.976
	c0,0-7.232-26.28-0.452-36.952c0,0-4.684-5.16-2.9-10.42c0,0,2.444,4.956,5.884,6.172c0,0-6.728-7.384-1.212-15.024
	c0,0,0.1,7.588,4.804,9.66C221.648,50.916,259.44,12.168,297.136,59.576z"/>
<g>
	<path style="fill:#FDFEFF;" d="M248.42,90.836c-0.58,4.332-4.364,12.688-13.556,12.688h-2.688c-10.34,0-9.164-11.348-9.164-15.596
		c0,0-0.2-6.22,8.136-5.86h8.42c0,0,7.616,0.756,8.856,4.984v3.784H248.42z"/>
	<path style="fill:#FDFEFF;" d="M285.68,87.928c0,4,1.296,15.596-9.164,15.596h-2.688c-8.424,0-12.832-7.284-13.556-12.688v-3.788
		c1.24-4.228,8.86-4.984,8.86-4.984h8.416C285.88,81.704,285.68,87.928,285.68,87.928z"/>
</g>
<path style="fill:#353944;" d="M264.668,81.056c-6.724,1.744-14.16,1.724-20.82,0c-13.28-3.436-31.192,1.26-31.192,1.26l0.5,3.624
	c1.712-0.16,3.02,0.056,3.992,0.408c1.464,0.532,2.472,1.88,2.576,3.432l0.224,3.408c0.888,12.228,10.868,11.78,10.868,11.78h5.716
	c9.368,0,13.896-8.88,14.556-13.252c0.568-3.736,3.164-3.964,3.164-3.964s2.592,0.224,3.16,3.964
	c0.656,4.308,5.104,13.252,14.912,13.252h5.36c0,0,9.984,0.452,10.876-11.78l0.224-3.408c0.104-1.552,1.108-2.904,2.572-3.432
	c0.976-0.352,2.28-0.568,3.996-0.408l0.66-3.624C296.016,82.316,277.948,77.62,264.668,81.056z M248.42,90.836
	c-0.58,4.332-4.364,12.688-13.556,12.688h-2.688c-10.34,0-9.164-11.348-9.164-15.596c0,0-0.2-6.22,8.136-5.86h8.42
	c0,0,7.616,0.756,8.856,4.984v3.784H248.42z M285.68,87.928c0,4,1.296,15.596-9.164,15.596h-2.688
	c-8.424,0-12.832-7.284-13.556-12.688v-3.788c1.24-4.228,8.86-4.984,8.86-4.984h8.416C285.88,81.704,285.68,87.928,285.68,87.928z"
	/>
<path style="fill:#F0B97C;" d="M261.768,126.46h-14.636c-1.496,0-2.708-1.212-2.708-2.708l0,0c0-1.496,1.212-2.708,2.708-2.708
	h14.636c1.496,0,2.708,1.212,2.708,2.708l0,0C264.476,125.248,263.264,126.46,261.768,126.46z"/>
<g>
</g>
<g>
</g>
<g>
</g>
<g>
</g>
<g>
</g>
<g>
</g>
<g>
</g>
<g>
</g>
<g>
</g>
<g>
</g>
<g>
</g>
<g>
</g>
<g>
</g>
<g>
</g>
<g>
</g>
</svg>
