<?xml version="1.0" encoding="iso-8859-1"?>
<!-- Generator: Adobe Illustrator 19.0.0, SVG Export Plug-In . SVG Version: 6.00 Build 0)  -->
<svg version="1.1" id="Capa_1" xmlns="http://www.w3.org/2000/svg" xmlns:xlink="http://www.w3.org/1999/xlink" x="0px" y="0px"
	 viewBox="0 0 512 512" style="enable-background:new 0 0 512 512;" xml:space="preserve">
<circle style="fill:#5F87C4;" cx="256" cy="256" r="256"/>
<polygon style="fill:#FDFEFF;" points="431.88,32 431.88,480 80.12,480 80.12,119.12 167.24,32 "/>
<polygon style="fill:#E8E7E8;" points="167.24,32 167.24,119.12 80.12,119.12 "/>
<g>
	<rect x="108.32" y="216.84" style="fill:#D2D2D4;" width="295.356" height="14.864"/>
	<rect x="108.32" y="263.788" style="fill:#D2D2D4;" width="295.356" height="14.864"/>
	<rect x="108.32" y="310.76" style="fill:#D2D2D4;" width="295.356" height="14.864"/>
	<rect x="108.32" y="357.68" style="fill:#D2D2D4;" width="295.356" height="14.864"/>
</g>
<rect x="308.2" y="405.44" style="fill:#6BBE49;" width="95.468" height="27.428"/>
<g>
	<path style="fill:#F1592F;" d="M179.968,193.528V169.42h-8.608v-4.908h23.06v4.908h-8.588v24.108H179.968z"/>
	<path style="fill:#F1592F;" d="M221.352,193.528h-6.372l-2.532-6.592h-11.6l-2.396,6.592h-6.212l11.3-29.016h6.196L221.352,193.528
		z M210.568,182.052l-4-10.768l-3.92,10.768H210.568z"/>
	<path style="fill:#F1592F;" d="M221.512,193.528l9.916-15.14l-8.984-13.876h6.848l5.82,9.324l5.7-9.324h6.788l-9.024,14.092
		l9.916,14.924h-7.064l-6.432-10.036l-6.452,10.036L221.512,193.528L221.512,193.528z"/>
	<path style="fill:#F1592F;" d="M251.496,193.528v-29.016h21.516v4.908h-15.656v6.432h14.568v4.888h-14.568v7.896h16.208v4.888
		h-22.068V193.528z"/>
	<path style="fill:#F1592F;" d="M277.048,184.088l5.7-0.556c0.344,1.912,1.04,3.32,2.088,4.216s2.464,1.344,4.244,1.344
		c1.888,0,3.308-0.4,4.264-1.196s1.436-1.732,1.436-2.8c0-0.688-0.2-1.272-0.604-1.752s-1.104-0.9-2.108-1.256
		c-0.688-0.236-2.248-0.66-4.692-1.268c-3.14-0.78-5.344-1.736-6.612-2.868c-1.78-1.596-2.672-3.544-2.672-5.84
		c0-1.476,0.42-2.86,1.256-4.148s2.044-2.268,3.624-2.94c1.576-0.672,3.48-1.008,5.712-1.008c3.64,0,6.384,0.8,8.224,2.396
		s2.808,3.728,2.9,6.392l-5.86,0.256c-0.252-1.492-0.788-2.564-1.612-3.216c-0.824-0.652-2.06-0.98-3.712-0.98
		c-1.704,0-3.036,0.348-4,1.048c-0.62,0.448-0.932,1.048-0.932,1.8c0,0.688,0.292,1.272,0.872,1.76
		c0.74,0.62,2.532,1.268,5.384,1.94s4.96,1.368,6.324,2.088s2.436,1.704,3.208,2.948c0.772,1.248,1.156,2.788,1.156,4.62
		c0,1.664-0.46,3.22-1.384,4.672s-2.228,2.532-3.92,3.236c-1.688,0.704-3.792,1.06-6.312,1.06c-3.668,0-6.484-0.848-8.452-2.544
		C278.608,189.804,277.432,187.336,277.048,184.088z"/>
	<path style="fill:#F1592F;" d="M360.136,174.264v-19.64c-6.124-1.752-10.616-4.4-13.476-7.944s-4.288-7.852-4.288-12.916
		c0-5.124,1.616-9.428,4.852-12.916s7.54-5.492,12.916-6.024v-4.64h6.796v4.64c4.968,0.592,8.92,2.288,11.86,5.084
		s4.812,6.54,5.624,11.228l-11.86,1.548c-0.72-3.688-2.592-6.188-5.624-7.5v18.328c7.5,2.032,12.608,4.664,15.328,7.9
		s4.08,7.384,4.08,12.444c0,5.656-1.712,10.42-5.132,14.296s-8.18,6.252-14.272,7.124v8.764h-6.796v-8.532
		c-5.408-0.656-9.796-2.672-13.172-6.048s-5.532-8.14-6.468-14.296l12.236-1.312c0.5,2.5,1.436,4.656,2.812,6.468
		S358.448,173.452,360.136,174.264z M360.136,125.044c-1.844,0.624-3.312,1.688-4.408,3.188c-1.096,1.5-1.64,3.156-1.64,4.968
		c0,1.656,0.5,3.196,1.5,4.616s2.516,2.572,4.548,3.444V125.044z M366.932,174.92c2.344-0.436,4.252-1.524,5.72-3.256
		s2.204-3.772,2.204-6.116c0-2.092-0.616-3.9-1.852-5.416s-3.256-2.68-6.072-3.492L366.932,174.92L366.932,174.92z"/>
</g>
<g>
</g>
<g>
</g>
<g>
</g>
<g>
</g>
<g>
</g>
<g>
</g>
<g>
</g>
<g>
</g>
<g>
</g>
<g>
</g>
<g>
</g>
<g>
</g>
<g>
</g>
<g>
</g>
<g>
</g>
</svg>
