<?xml version="1.0" encoding="iso-8859-1"?>
<!-- Generator: Adobe Illustrator 19.0.0, SVG Export Plug-In . SVG Version: 6.00 Build 0)  -->
<svg version="1.1" id="Capa_1" xmlns="http://www.w3.org/2000/svg" xmlns:xlink="http://www.w3.org/1999/xlink" x="0px" y="0px"
	 viewBox="0 0 512 512" style="enable-background:new 0 0 512 512;" xml:space="preserve">
<circle style="fill:#F1592F;" cx="256" cy="256" r="256"/>
<g>
	<path style="fill:#FDFEFF;" d="M256,36.028c-121.476,0-219.988,98.472-219.988,219.992c0,121.476,98.512,219.988,219.988,219.988
		s219.988-98.512,219.988-219.988C475.988,134.5,377.476,36.028,256,36.028z M256,437.92c-100.464,0-181.9-81.436-181.9-181.9
		c0-100.508,81.436-181.944,181.9-181.944s181.9,81.436,181.9,181.944C437.9,356.484,356.464,437.92,256,437.92z"/>
	<path style="fill:#FDFEFF;" d="M256,113.92c-78.468,0-142.096,63.588-142.096,142.096c0,78.468,63.628,142.096,142.096,142.096
		s142.096-63.628,142.096-142.096C398.096,177.512,334.468,113.92,256,113.92z M256,357.188
		c-55.86,0-101.168-45.312-101.168-101.168c0-55.9,45.312-101.208,101.168-101.208S357.168,200.12,357.168,256.02
		C357.168,311.876,311.86,357.188,256,357.188z"/>
	<path style="fill:#FDFEFF;" d="M249.72,298.396V260.8c-11.724-3.348-20.308-8.42-25.812-15.208
		c-5.444-6.788-8.196-15.028-8.196-24.72c0-9.812,3.112-18.052,9.272-24.72c6.22-6.668,14.448-10.512,24.736-11.532v-8.884h13.012
		v8.884c9.512,1.136,17.08,4.38,22.7,9.736c5.624,5.352,9.212,12.516,10.768,21.488l-22.7,2.96
		c-1.376-7.06-4.964-11.844-10.768-14.356v35.084c14.356,3.888,24.136,8.928,29.34,15.12s7.808,14.132,7.808,23.824
		c0,10.828-3.292,19.948-9.812,27.368c-6.58,7.416-15.672,11.964-27.336,13.64v16.78H249.72v-16.332
		c-10.348-1.256-18.752-5.116-25.212-11.576s-10.588-15.584-12.384-27.368l23.42-2.512c0.956,4.784,2.752,8.912,5.384,12.384
		C243.556,294.328,246.488,296.84,249.72,298.396z M249.72,204.18c-3.528,1.196-6.34,3.232-8.436,6.1s-3.14,6.04-3.14,9.512
		c0,3.172,0.956,6.116,2.872,8.84c1.916,2.72,4.816,4.92,8.704,6.596L249.72,204.18L249.72,204.18z M262.728,299.652
		c4.488-0.836,8.136-2.916,10.948-6.236s4.216-7.224,4.216-11.708c0-4.008-1.196-7.464-3.56-10.364
		c-2.364-2.9-6.22-5.128-11.604-6.684V299.652z"/>
</g>
<polygon style="fill:#7EC359;" points="465.176,46.824 450.036,0 378.496,71.54 393.636,118.364 440.46,133.5 512,61.964 "/>
<g>
	<polygon style="fill:#FDFEFF;" points="497.384,76.572 482.984,90.972 436.16,75.836 421.024,29.012 435.424,14.612 
		450.564,61.436 	"/>
	<polygon style="fill:#FDFEFF;" points="469.472,104.488 455.072,118.888 408.248,103.748 393.108,56.924 407.512,42.524 
		422.648,89.348 	"/>
</g>
<path style="fill:#4D535F;" d="M486.772,25.228c-3.704-3.704-9.708-3.704-13.412,0L256.108,242.476
	c-3.704,3.704-3.704,9.708,0,13.416c3.704,3.704,9.708,3.704,13.416,0L486.772,38.64C490.476,34.936,490.476,28.932,486.772,25.228z
	"/>
<g>
</g>
<g>
</g>
<g>
</g>
<g>
</g>
<g>
</g>
<g>
</g>
<g>
</g>
<g>
</g>
<g>
</g>
<g>
</g>
<g>
</g>
<g>
</g>
<g>
</g>
<g>
</g>
<g>
</g>
</svg>
