<?xml version="1.0" encoding="iso-8859-1"?>
<!-- Generator: Adobe Illustrator 19.0.0, SVG Export Plug-In . SVG Version: 6.00 Build 0)  -->
<svg version="1.1" id="Capa_1" xmlns="http://www.w3.org/2000/svg" xmlns:xlink="http://www.w3.org/1999/xlink" x="0px" y="0px"
	 viewBox="0 0 512 512" style="enable-background:new 0 0 512 512;" xml:space="preserve">
<circle style="fill:#EE4B68;" cx="256" cy="256" r="256"/>
<polygon style="fill:#F5EA07;" points="256,89.244 114.516,208.376 101.624,193.064 256,63.06 410.376,193.064 397.484,208.376 "/>
<rect x="57.612" y="230.944" style="fill:#FDFEFF;" width="396.76" height="226.44"/>
<g>
	<rect x="57.612" y="183.568" style="fill:#D2D2D4;" width="396.76" height="48.656"/>
	<circle style="fill:#D2D2D4;" cx="256" cy="88.96" r="34.32"/>
</g>
<circle style="fill:#FDFEFF;" cx="256" cy="88.96" r="16.66"/>
<rect x="208.48" y="381.68" style="fill:#656D7A;" width="31.872" height="49.336"/>
<rect x="271.492" y="354.96" style="fill:#7EC359;" width="31.872" height="76.04"/>
<rect x="334.48" y="320.56" style="fill:#F5EA07;" width="31.872" height="110.444"/>
<g>
	<rect x="397.48" y="292.4" style="fill:#F1592F;" width="31.872" height="138.612"/>
	<path style="fill:#F1592F;" d="M152.268,308.96l45.984-45.984c-12.272-10.816-28.336-17.432-45.984-17.432
		c-17.644,0-33.712,6.616-45.984,17.432L152.268,308.96z"/>
</g>
<path style="fill:#7EC359;" d="M147.864,317.012l-47.808-47.808c-10.816,12.272-17.432,28.336-17.432,45.98
	c0,36.976,28.836,67.136,65.236,69.42v-67.592H147.864z"/>
<path style="fill:#70B1E1;" d="M156.672,317.012v67.596c36.4-2.284,65.24-32.444,65.24-69.42c0-17.644-6.616-33.708-17.432-45.984
	L156.672,317.012z"/>
<g>
</g>
<g>
</g>
<g>
</g>
<g>
</g>
<g>
</g>
<g>
</g>
<g>
</g>
<g>
</g>
<g>
</g>
<g>
</g>
<g>
</g>
<g>
</g>
<g>
</g>
<g>
</g>
<g>
</g>
</svg>
