<?xml version="1.0" encoding="iso-8859-1"?>
<!-- Generator: Adobe Illustrator 19.0.0, SVG Export Plug-In . SVG Version: 6.00 Build 0)  -->
<svg version="1.1" id="Capa_1" xmlns="http://www.w3.org/2000/svg" xmlns:xlink="http://www.w3.org/1999/xlink" x="0px" y="0px"
	 viewBox="0 0 512 512" style="enable-background:new 0 0 512 512;" xml:space="preserve">
<circle style="fill:#4D5BA5;" cx="256" cy="256" r="256"/>
<g>
	<polygon style="fill:#F7CFA3;" points="204.484,48.704 167.04,48.704 77.452,463.296 114.892,463.296 	"/>
	<polygon style="fill:#F7CFA3;" points="307.516,48.704 344.96,48.704 434.548,463.296 397.108,463.296 	"/>
</g>
<rect x="50.488" y="71.248" style="fill:#D2D2D4;" width="411" height="271.772"/>
<rect x="74.492" y="95.248" style="fill:#FDFEFF;" width="363" height="223.768"/>
<path style="fill:#7EC359;" d="M256,118.012c-49.22,0-89.116,39.9-89.116,89.116c0,49.22,39.9,89.116,89.116,89.116
	c24.608,0,46.888-9.976,63.016-26.1L256,207.132V118.012z"/>
<path style="fill:#F5EA07;" d="M319.016,144.116c-16.128-16.128-38.408-26.1-63.016-26.1v89.116L319.016,144.116z"/>
<path style="fill:#F1592F;" d="M319.016,144.116L256,207.132l63.016,63.016c16.128-16.128,26.104-38.408,26.104-63.016
	C345.116,182.52,335.144,160.24,319.016,144.116z"/>
<g>
</g>
<g>
</g>
<g>
</g>
<g>
</g>
<g>
</g>
<g>
</g>
<g>
</g>
<g>
</g>
<g>
</g>
<g>
</g>
<g>
</g>
<g>
</g>
<g>
</g>
<g>
</g>
<g>
</g>
</svg>
