<?xml version="1.0" encoding="iso-8859-1"?>
<!-- Generator: Adobe Illustrator 19.0.0, SVG Export Plug-In . SVG Version: 6.00 Build 0)  -->
<svg version="1.1" id="Capa_1" xmlns="http://www.w3.org/2000/svg" xmlns:xlink="http://www.w3.org/1999/xlink" x="0px" y="0px"
	 viewBox="0 0 512 512" style="enable-background:new 0 0 512 512;" xml:space="preserve">
<circle style="fill:#7EC359;" cx="256" cy="256" r="256"/>
<circle style="fill:#F1592F;" cx="256" cy="256" r="210"/>
<circle style="fill:#FDFEFF;" cx="256" cy="256" r="187.512"/>
<path style="fill:#70B1E1;" d="M256,90.824c-91.088,0-165.176,74.092-165.176,165.176h2.156
	c13.4-75.576,85.896-127.472,163.02-113.8C256,121.968,256,109.9,256,90.824z"/>
<path style="fill:#F1592F;" d="M372.748,139.252c-48.828,48.828-23.236,23.236-42,42.004c19.936,19.94,33.936,45.824,39.064,74.744
	h51.364C421.18,210.456,402.656,169.16,372.748,139.252z"/>
<path style="fill:#F5EA07;" d="M372.748,139.252C342.84,109.344,301.544,90.824,256,90.824c0,19.08,0,31.14,0,51.38
	c28.916,5.128,54.804,19.112,74.744,39.056C359.452,152.548,354.548,157.452,372.748,139.252z"/>
<g>
	<polygon style="fill:#656D7A;" points="248.592,274.82 319.32,192.624 237.124,263.352 	"/>
	<circle style="fill:#656D7A;" cx="256" cy="256" r="14.96"/>
</g>
<circle style="fill:#FDFEFF;" cx="256" cy="256" r="7.104"/>
<path style="fill:#656D7A;" d="M329.432,390.116H182.568c-7.324,0-13.26-5.936-13.26-13.26v-38.58c0-7.324,5.936-13.26,13.26-13.26
	h146.864c7.324,0,13.26,5.936,13.26,13.26v38.58C342.692,384.18,336.756,390.116,329.432,390.116z"/>
<g>
	<path style="fill:#FDFEFF;" d="M186.976,338.648c2.748-2.172,6.192-3.26,10.336-3.26s7.588,1.088,10.336,3.26
		s4.124,4.912,4.124,8.212s-1.54,6.224-4.616,8.768c4.144,2.624,6.216,6.316,6.216,11.072c0,3.692-1.476,6.788-4.432,9.288
		c-2.952,2.504-6.828,3.756-11.628,3.756s-8.672-1.252-11.628-3.756c-2.952-2.5-4.428-5.596-4.428-9.288
		c0-4.756,2.072-8.444,6.212-11.072c-3.076-2.544-4.612-5.464-4.612-8.768S184.228,340.824,186.976,338.648z M191.284,371.656
		c1.884,1.208,3.896,1.816,6.028,1.816s4.144-0.604,6.032-1.816c1.884-1.208,2.828-2.944,2.828-5.2s-0.9-3.996-2.704-5.228
		c-1.804-1.228-3.856-1.844-6.152-1.844s-4.348,0.616-6.152,1.844c-1.808,1.232-2.708,2.972-2.708,5.228
		C188.452,368.712,189.396,370.444,191.284,371.656z M191.868,352.092c1.54,1.252,3.356,1.876,5.444,1.876
		c2.092,0,3.908-0.624,5.444-1.876c1.54-1.252,2.308-2.788,2.308-4.616c0-1.824-0.768-3.352-2.308-4.58
		c-1.536-1.232-3.352-1.848-5.444-1.848s-3.904,0.616-5.444,1.848c-1.536,1.228-2.304,2.76-2.304,4.58
		C189.56,349.304,190.328,350.84,191.868,352.092z"/>
	<path style="fill:#FDFEFF;" d="M226.1,338.648c2.748-2.172,6.192-3.26,10.336-3.26s7.588,1.088,10.336,3.26
		s4.124,4.912,4.124,8.212s-1.54,6.224-4.616,8.768c4.144,2.624,6.216,6.316,6.216,11.072c0,3.692-1.476,6.788-4.432,9.288
		c-2.952,2.504-6.828,3.756-11.628,3.756s-8.672-1.252-11.628-3.756c-2.952-2.5-4.428-5.596-4.428-9.288
		c0-4.756,2.072-8.444,6.212-11.072c-3.076-2.544-4.612-5.464-4.612-8.768S223.356,340.824,226.1,338.648z M230.408,371.656
		c1.884,1.208,3.896,1.816,6.028,1.816s4.144-0.604,6.032-1.816c1.884-1.208,2.828-2.944,2.828-5.2s-0.9-3.996-2.704-5.228
		c-1.804-1.228-3.856-1.844-6.152-1.844s-4.348,0.616-6.152,1.844c-1.808,1.232-2.708,2.972-2.708,5.228
		C227.576,368.712,228.52,370.444,230.408,371.656z M230.992,352.092c1.54,1.252,3.356,1.876,5.444,1.876
		c2.092,0,3.908-0.624,5.444-1.876c1.54-1.252,2.308-2.788,2.308-4.616c0-1.824-0.768-3.352-2.308-4.58
		c-1.536-1.232-3.352-1.848-5.444-1.848s-3.904,0.616-5.444,1.848c-1.536,1.228-2.304,2.76-2.304,4.58
		C228.688,349.304,229.456,350.84,230.992,352.092z"/>
	<path style="fill:#FDFEFF;" d="M265.224,338.648c2.748-2.172,6.192-3.26,10.336-3.26s7.588,1.088,10.336,3.26
		s4.124,4.912,4.124,8.212s-1.54,6.224-4.616,8.768c4.144,2.624,6.216,6.316,6.216,11.072c0,3.692-1.476,6.788-4.432,9.288
		c-2.952,2.504-6.828,3.756-11.628,3.756s-8.672-1.252-11.628-3.756c-2.952-2.5-4.428-5.596-4.428-9.288
		c0-4.756,2.072-8.444,6.212-11.072c-3.076-2.544-4.612-5.464-4.612-8.768S262.48,340.824,265.224,338.648z M269.532,371.656
		c1.884,1.208,3.896,1.816,6.028,1.816s4.144-0.604,6.032-1.816c1.884-1.208,2.828-2.944,2.828-5.2s-0.9-3.996-2.704-5.228
		c-1.804-1.228-3.856-1.844-6.152-1.844s-4.348,0.616-6.152,1.844c-1.808,1.232-2.708,2.972-2.708,5.228
		C266.704,368.712,267.648,370.444,269.532,371.656z M270.116,352.092c1.54,1.252,3.356,1.876,5.444,1.876
		c2.092,0,3.908-0.624,5.444-1.876c1.54-1.252,2.308-2.788,2.308-4.616c0-1.824-0.768-3.352-2.308-4.58
		c-1.536-1.232-3.352-1.848-5.444-1.848s-3.904,0.616-5.444,1.848c-1.536,1.228-2.304,2.76-2.304,4.58
		C267.812,349.304,268.58,350.84,270.116,352.092z"/>
	<path style="fill:#FDFEFF;" d="M304.352,338.648c2.748-2.172,6.192-3.26,10.336-3.26s7.588,1.088,10.336,3.26
		s4.124,4.912,4.124,8.212s-1.54,6.224-4.616,8.768c4.144,2.624,6.216,6.316,6.216,11.072c0,3.692-1.476,6.788-4.432,9.288
		c-2.952,2.504-6.828,3.756-11.628,3.756s-8.672-1.252-11.628-3.756c-2.952-2.5-4.428-5.596-4.428-9.288
		c0-4.756,2.072-8.444,6.212-11.072c-3.076-2.544-4.612-5.464-4.612-8.768S301.604,340.824,304.352,338.648z M308.66,371.656
		c1.884,1.208,3.896,1.816,6.028,1.816s4.144-0.604,6.032-1.816c1.884-1.208,2.828-2.944,2.828-5.2s-0.9-3.996-2.704-5.228
		c-1.804-1.228-3.856-1.844-6.152-1.844s-4.348,0.616-6.152,1.844c-1.808,1.232-2.708,2.972-2.708,5.228
		C305.828,368.712,306.772,370.444,308.66,371.656z M309.24,352.092c1.54,1.252,3.356,1.876,5.444,1.876
		c2.092,0,3.908-0.624,5.444-1.876c1.54-1.252,2.308-2.788,2.308-4.616c0-1.824-0.768-3.352-2.308-4.58
		c-1.536-1.232-3.352-1.848-5.444-1.848s-3.904,0.616-5.444,1.848c-1.536,1.228-2.304,2.76-2.304,4.58
		C306.936,349.304,307.704,350.84,309.24,352.092z"/>
</g>
<g>
</g>
<g>
</g>
<g>
</g>
<g>
</g>
<g>
</g>
<g>
</g>
<g>
</g>
<g>
</g>
<g>
</g>
<g>
</g>
<g>
</g>
<g>
</g>
<g>
</g>
<g>
</g>
<g>
</g>
</svg>
