<?xml version="1.0" encoding="iso-8859-1"?>
<!-- Generator: Adobe Illustrator 19.0.0, SVG Export Plug-In . SVG Version: 6.00 Build 0)  -->
<svg version="1.1" id="Capa_1" xmlns="http://www.w3.org/2000/svg" xmlns:xlink="http://www.w3.org/1999/xlink" x="0px" y="0px"
	 viewBox="0 0 512 512" style="enable-background:new 0 0 512 512;" xml:space="preserve">
<circle style="fill:#DFDFDF;" cx="256" cy="256" r="256"/>
<path style="fill:#5F87C4;" d="M285.972,143.548c-1.54,3.676-2.228,7.408-3.04,11.396c-1.032,5.032-4.876,9.036-6.52,13.876
	c-3.144,9.208-1.8,18.844-0.288,28.232h-31.152c0.248-3.024-1.292-5.96-5.256-6.584c-0.536-0.064-1.068-0.156-1.604-0.26
	c0.352-0.208,0.352-0.888-0.012-2.088c0.08-2.74-0.288-5.4-0.848-8.072c-1.068-5.032,0.116-9.584-2.152-14.436
	c-1.772-3.796-5.268-4.408-8.24-3.18v-15.676c4.752-2.568,8.564-4.896,10.876-9.808c3.208-6.82,0.992-14.032,0.992-14.032h40.7
	c0,0-2.088,6.756,0.716,13.392c0.572,1.368,1.356,2.724,2.412,4.028C283.812,141.892,284.652,142.516,285.972,143.548z"/>
<path style="fill:#F0B97C;" d="M276.652,154.852c1.724-1.852,4.324-2.44,6.688-1.924c0.664-3.24,1.352-6.328,2.632-9.384
	c-1.36-0.976-2.46-2.02-3.42-3.204c-1.056-1.304-1.84-2.66-2.412-4.028c-2.804-6.636-0.716-13.392-0.716-13.392h-40.696
	c0,0,2.216,7.212-0.992,14.032c-2.308,4.904-6.116,7.232-10.868,9.808v6.948c4.068-6.264,11.08-9.084,14.684-2.576
	c3.664-1.88,8.464-1.112,9.628,3.66c0.796-0.088,1.652-0.056,2.56,0.144c1.984,0.436,5.124,2.648,7.108,2.104
	c3.112-0.852,5.964-2.376,9.072-3.244c2.676-0.748,4.892-0.044,6.456,1.38C276.472,155.068,276.556,154.956,276.652,154.852z"/>
<g>
	<path style="fill:#4D535F;" d="M241.108,189.012c-0.008-1.456-0.28-5.676-0.048-6.972c-0.376-1.084-0.532-4.096-0.548-5.256h-1.904
		v-4.912c-1.884-1.836-2.24-3.692-2.212-6.04c-1.992-2.144-2.852-4.472-2.884-7c-1.428-1.6-2.5-5.2-2.732-6.656
		c-1.18-1.844-1.468-4.764-1.24-6.932c-8.736,5.216-26.736,12.724-36.096,16.52c-9.428,3.832-15.584,12.976-15.584,23.148v12.14
		h68.248v-1.144C243.224,194.936,241.124,192.184,241.108,189.012z"/>
	<path style="fill:#4D535F;" d="M277.048,189.012c0.008-1.456,0.28-5.676,0.048-6.972c0.376-1.084,0.532-4.096,0.548-5.256h1.904
		v-4.912c1.884-1.836,2.24-3.692,2.212-6.04c1.992-2.144,2.852-4.472,2.884-7c1.336-1.496,2.464-4.976,2.732-6.656
		c1.18-1.844,1.468-4.764,1.24-6.932c1.824,1.088,4.032,2.28,6.544,3.52c8.516,4.264,20.2,9.208,29.548,13
		c9.428,3.832,15.584,12.976,15.584,23.148v12.14h-68.24v-1.144C274.932,194.936,277.028,192.184,277.048,189.012z"/>
</g>
<polygon style="fill:#E34E30;" points="268.896,197.052 248.096,197.052 251.776,165.492 264.16,165.492 "/>
<path style="fill:#F1592F;" d="M254.56,168.644c0,0-9.788-1.944-3.636-16.192l7.444-4.696l5.832,2.348l4.208,7.204
	c0,0-2.776,12.268-9.388,11.332h-4.46V168.644z"/>
<path style="fill:#F7CFA3;" d="M224.668,92.64c0,24.712,14.852,44.748,33.172,44.748s33.172-20.036,33.172-44.748l-3.776-20.608
	c0,0-8.048-6.24-9.196-7.388c-1.148-1.148-12.48-3.776-12.48-3.776l-25.332,1.644l-9.316,7.884l-3.12,11.66L224.668,92.64z"/>
<path style="fill:#70B1E1;" d="M258.328,147.76L245.26,166.8l-14.568-22.26c3.08-1.904,5.46-4.228,7.04-7.588L258.328,147.76z"/>
<path style="fill:#656D7A;" d="M232.108,95.64c0,0,4.456-9.784,4.456-22.36c0,0,16.816,20.788,47.412,6.812
	c0,0-2.632,12.752,2.432,17.644h5.268l-2.028-28.472c0,0-1.012-19.74-26.34-20.44h-7.88C237.016,48.824,224,61.728,224,78.14v14.532
	l5.064,3.668L232.108,95.64z"/>
<path style="fill:#70B1E1;" d="M286.416,143.86l-15.008,22.94l-13.08-19.04l21.816-11.448
	C281.5,139.536,283.828,142.172,286.416,143.86z"/>
<g>
	<path style="fill:#656D7A;" d="M251.428,197.052h-16.6l-11.044-20.72l10.64-8.216l-12.884,1.304l1.448-20.656
		c3.032-1.496,8.548-4.332,10.968-6.676L251.428,197.052z"/>
	<path style="fill:#656D7A;" d="M281.54,168.116l10.64,8.216l-11.044,20.72h-16.6l18.02-56.712c2.64,3.256,6.604,5.336,10.34,7.276
		l1.524,21.804L281.54,168.116z"/>
</g>
<path style="fill:#F0B97C;" d="M264.796,123.9h-13.92c-0.888,0-1.608-0.72-1.608-1.608v-1.412c0-0.888,0.72-1.608,1.608-1.608h13.92
	c0.888,0,1.608,0.72,1.608,1.608v1.412C266.404,123.18,265.684,123.9,264.796,123.9z"/>
<g>
	<path style="fill:#FDFEFF;" d="M252.952,98.208c-0.536,4-3.868,10.264-10.968,10.264h-2.176c-8.312,0-7.416-8.62-7.416-12.62
		c0,0-0.16-5.032,6.584-4.74h6.812c0,0,6.16,0.612,7.164,4.032V98.208z"/>
	<path style="fill:#FDFEFF;" d="M283.1,95.852v5.488c-0.536,4.608-3.652,7.132-7.416,7.132h-2.176
		c-6.312,0-10.296-5.24-10.968-10.264v-3.064c1-3.42,7.168-4.032,7.168-4.032h6.808C283.26,90.82,283.1,95.852,283.1,95.852z"/>
</g>
<path style="fill:#353944;" d="M266.1,90.296c-5.44,1.408-11.456,1.396-16.844,0c-10.744-2.78-25.236,1.02-25.236,1.02l0.408,2.932
	c0,0,2.444,0.044,3.232,0.332c1.184,0.428,2,1.524,2.084,2.776l0.184,2.756c0.716,9.896,8.796,9.528,8.796,9.528h4.624
	c7.288,0,11.172-6.72,11.776-10.72c0.46-3.024,2.56-3.204,2.56-3.204s2.1,0.184,2.556,3.204c0.608,4,4.48,10.72,12.064,10.72h4.336
	c0,0,8.076,0.364,8.8-9.528l0.184-2.756c0.084-1.256,0.896-2.348,2.08-2.776c0.792-0.284,1.844-0.46,3.232-0.332l0.532-2.932
	C291.464,91.316,276.84,87.516,266.1,90.296z M252.952,98.208c-0.536,4-3.868,10.264-10.968,10.264h-2.176
	c-8.312,0-7.416-8.62-7.416-12.62c0,0-0.16-5.032,6.584-4.74h6.812c0,0,6.16,0.612,7.164,4.032V98.208z M283.1,95.852v5.488
	c-0.536,4.608-3.652,7.132-7.416,7.132h-2.176c-6.312,0-10.296-5.24-10.968-10.264v-3.064c1-3.42,7.168-4.032,7.168-4.032h6.808
	C283.26,90.82,283.1,95.852,283.1,95.852z"/>
<g>
	<path style="fill:#F7CFA3;" d="M232.152,107.48c-1.2,0.328-2.236-0.416-2.652-1.504c-0.948-2.488-1.096-4.732-0.984-7.372
		c0.036-0.876,0.496-1.476,1.1-1.8c-2.264-4.216-5.38-6.748-7.624-5.904c-6.476,2.444,1.544,23.688,8.02,21.244
		c1.416-0.536,2.204-2.316,2.32-4.728C232.272,107.44,232.212,107.46,232.152,107.48z"/>
	<path style="fill:#F7CFA3;" d="M293.488,90.904c-2.396-0.904-5.788,2.048-8.076,6.788c0.132,0.116,0.26,0.252,0.372,0.416
		c1.86,2.632,0.064,6.252-1.18,8.748c-0.34,0.68-0.864,1.008-1.42,1.08c0.196,2.152,0.968,3.72,2.284,4.22
		C291.944,114.592,299.964,93.348,293.488,90.904z"/>
</g>
<rect x="126.876" y="197.04" style="fill:#F5EA07;" width="258.24" height="23.028"/>
<polygon style="fill:#E8BB20;" points="351.148,448.824 169.56,448.824 146.2,220.08 374.504,220.08 "/>
<g>
</g>
<g>
</g>
<g>
</g>
<g>
</g>
<g>
</g>
<g>
</g>
<g>
</g>
<g>
</g>
<g>
</g>
<g>
</g>
<g>
</g>
<g>
</g>
<g>
</g>
<g>
</g>
<g>
</g>
</svg>
