<?xml version="1.0" encoding="iso-8859-1"?>
<!-- Generator: Adobe Illustrator 19.0.0, SVG Export Plug-In . SVG Version: 6.00 Build 0)  -->
<svg version="1.1" id="Capa_1" xmlns="http://www.w3.org/2000/svg" xmlns:xlink="http://www.w3.org/1999/xlink" x="0px" y="0px"
	 viewBox="0 0 511.608 511.608" style="enable-background:new 0 0 511.608 511.608;" xml:space="preserve">
<circle style="fill:#896D61;" cx="255.804" cy="255.804" r="255.804"/>
<rect x="180.284" y="405.724" style="fill:#F5EB07;" width="77.332" height="19.244"/>
<g>
	<rect x="252.604" y="409.284" style="fill:#E8BB20;" width="2.476" height="12.08"/>
	<rect x="246.244" y="409.284" style="fill:#E8BB20;" width="2.476" height="12.08"/>
	<rect x="239.884" y="409.284" style="fill:#E8BB20;" width="2.476" height="12.08"/>
	<rect x="233.564" y="409.284" style="fill:#E8BB20;" width="2.476" height="12.08"/>
	<rect x="227.208" y="409.284" style="fill:#E8BB20;" width="2.476" height="12.08"/>
	<rect x="220.884" y="409.284" style="fill:#E8BB20;" width="2.476" height="12.08"/>
	<rect x="214.52" y="409.284" style="fill:#E8BB20;" width="2.476" height="12.08"/>
	<rect x="208.164" y="409.284" style="fill:#E8BB20;" width="2.476" height="12.08"/>
	<rect x="201.844" y="409.284" style="fill:#E8BB20;" width="2.476" height="12.08"/>
	<rect x="195.488" y="409.284" style="fill:#E8BB20;" width="2.476" height="12.08"/>
	<rect x="189.164" y="409.284" style="fill:#E8BB20;" width="2.476" height="12.08"/>
	<rect x="182.8" y="409.284" style="fill:#E8BB20;" width="2.476" height="12.08"/>
</g>
<rect x="172.004" y="384.524" style="fill:#F5EB07;" width="77.332" height="19.244"/>
<g>
	<rect x="244.324" y="388.124" style="fill:#E8BB20;" width="2.476" height="12.08"/>
	<rect x="237.964" y="388.124" style="fill:#E8BB20;" width="2.476" height="12.08"/>
	<rect x="231.62" y="388.124" style="fill:#E8BB20;" width="2.476" height="12.08"/>
	<rect x="225.284" y="388.124" style="fill:#E8BB20;" width="2.476" height="12.08"/>
	<rect x="218.932" y="388.124" style="fill:#E8BB20;" width="2.476" height="12.08"/>
	<rect x="212.604" y="388.124" style="fill:#E8BB20;" width="2.476" height="12.08"/>
	<rect x="206.244" y="388.124" style="fill:#E8BB20;" width="2.476" height="12.08"/>
	<rect x="199.884" y="388.124" style="fill:#E8BB20;" width="2.476" height="12.08"/>
	<rect x="193.564" y="388.124" style="fill:#E8BB20;" width="2.476" height="12.08"/>
	<rect x="187.208" y="388.124" style="fill:#E8BB20;" width="2.476" height="12.08"/>
	<rect x="180.884" y="388.124" style="fill:#E8BB20;" width="2.476" height="12.08"/>
	<rect x="174.52" y="388.124" style="fill:#E8BB20;" width="2.476" height="12.08"/>
</g>
<rect x="163.168" y="363.324" style="fill:#F5EB07;" width="77.332" height="19.244"/>
<g>
	<rect x="235.488" y="366.924" style="fill:#E8BB20;" width="2.476" height="12.08"/>
	<rect x="229.164" y="366.924" style="fill:#E8BB20;" width="2.476" height="12.08"/>
	<rect x="222.8" y="366.924" style="fill:#E8BB20;" width="2.476" height="12.08"/>
	<rect x="216.444" y="366.924" style="fill:#E8BB20;" width="2.476" height="12.08"/>
	<rect x="210.112" y="366.924" style="fill:#E8BB20;" width="2.476" height="12.08"/>
	<rect x="203.768" y="366.924" style="fill:#E8BB20;" width="2.476" height="12.08"/>
	<rect x="197.444" y="366.924" style="fill:#E8BB20;" width="2.476" height="12.08"/>
	<rect x="191.08" y="366.924" style="fill:#E8BB20;" width="2.476" height="12.08"/>
	<rect x="184.724" y="366.924" style="fill:#E8BB20;" width="2.476" height="12.08"/>
	<rect x="178.388" y="366.924" style="fill:#E8BB20;" width="2.476" height="12.08"/>
	<rect x="172.044" y="366.924" style="fill:#E8BB20;" width="2.476" height="12.08"/>
	<rect x="165.7" y="366.924" style="fill:#E8BB20;" width="2.476" height="12.08"/>
</g>
<rect x="202.03" y="326.884" transform="matrix(-0.7071 0.7071 -0.7071 -0.7071 634.6857 406.3761)" style="fill:#F5EB07;" width="62.299" height="15.504"/>
<g>
	
		<rect x="252.048" y="309.894" transform="matrix(-0.7071 0.7071 -0.7071 -0.7071 654.5405 358.3959)" style="fill:#E8BB20;" width="1.992" height="9.728"/>
	
		<rect x="248.408" y="313.505" transform="matrix(-0.7071 0.7071 -0.7071 -0.7071 650.8801 367.1343)" style="fill:#E8BB20;" width="1.992" height="9.728"/>
	
		<rect x="244.84" y="317.104" transform="matrix(-0.7071 0.7071 -0.7071 -0.7071 647.3348 375.8017)" style="fill:#E8BB20;" width="1.992" height="9.728"/>
	
		<rect x="241.2" y="320.744" transform="matrix(-0.7071 0.7071 -0.7071 -0.7071 643.694 384.5886)" style="fill:#E8BB20;" width="1.992" height="9.728"/>
	
		<rect x="237.612" y="324.343" transform="matrix(-0.7071 0.7071 -0.7071 -0.7071 640.1145 393.27)" style="fill:#E8BB20;" width="1.992" height="9.728"/>
	
		<rect x="233.996" y="327.95" transform="matrix(-0.7071 0.7071 -0.7071 -0.7071 636.4922 401.9846)" style="fill:#E8BB20;" width="1.992" height="9.728"/>
	
		<rect x="230.367" y="331.554" transform="matrix(-0.7071 0.7071 -0.7071 -0.7071 632.8452 410.7021)" style="fill:#E8BB20;" width="1.992" height="9.728"/>
	
		<rect x="226.751" y="335.199" transform="matrix(-0.7071 0.7071 -0.7071 -0.7071 629.2485 419.482)" style="fill:#E8BB20;" width="1.992" height="9.728"/>
	
		<rect x="223.142" y="338.802" transform="matrix(-0.7071 0.7071 -0.7071 -0.7071 625.6366 428.1853)" style="fill:#E8BB20;" width="1.992" height="9.728"/>
	
		<rect x="219.531" y="342.401" transform="matrix(-0.7071 0.7071 -0.7071 -0.7071 622.0162 436.8818)" style="fill:#E8BB20;" width="1.992" height="9.728"/>
	
		<rect x="215.916" y="346.043" transform="matrix(-0.7071 0.7071 -0.7071 -0.7071 618.4212 445.6553)" style="fill:#E8BB20;" width="1.992" height="9.728"/>
	
		<rect x="212.288" y="349.654" transform="matrix(-0.7071 0.7071 -0.7071 -0.7071 614.7809 454.386)" style="fill:#E8BB20;" width="1.992" height="9.728"/>
</g>
<rect x="184.521" y="320.235" transform="matrix(-0.7071 0.7071 -0.7071 -0.7071 600.0939 407.4067)" style="fill:#F5EB07;" width="62.299" height="15.504"/>
<g>
	
		<rect x="234.547" y="303.233" transform="matrix(-0.7071 0.7071 -0.7071 -0.7071 619.9548 359.4004)" style="fill:#E8BB20;" width="1.992" height="9.728"/>
	
		<rect x="230.942" y="306.845" transform="matrix(-0.7071 0.7071 -0.7071 -0.7071 616.3537 368.1162)" style="fill:#E8BB20;" width="1.992" height="9.728"/>
	
		<rect x="227.361" y="310.469" transform="matrix(-0.7071 0.7071 -0.7071 -0.7071 612.8044 376.8341)" style="fill:#E8BB20;" width="1.992" height="9.728"/>
	
		<rect x="223.722" y="314.091" transform="matrix(-0.7071 0.7071 -0.7071 -0.7071 609.1531 385.5914)" style="fill:#E8BB20;" width="1.992" height="9.728"/>
	
		<rect x="220.109" y="317.672" transform="matrix(-0.7071 0.7071 -0.7071 -0.7071 605.5167 394.2582)" style="fill:#E8BB20;" width="1.992" height="9.728"/>
	
		<rect x="216.493" y="321.327" transform="matrix(-0.7071 0.7071 -0.7071 -0.7071 601.9288 403.0558)" style="fill:#E8BB20;" width="1.992" height="9.728"/>
	
		<rect x="212.881" y="324.899" transform="matrix(-0.7071 0.7071 -0.7071 -0.7071 598.2879 411.7061)" style="fill:#E8BB20;" width="1.992" height="9.728"/>
	
		<rect x="209.265" y="328.51" transform="matrix(-0.7071 0.7071 -0.7071 -0.7071 594.6685 420.4276)" style="fill:#E8BB20;" width="1.992" height="9.728"/>
	
		<rect x="205.633" y="332.177" transform="matrix(-0.7071 0.7071 -0.7071 -0.7071 591.0616 429.2569)" style="fill:#E8BB20;" width="1.992" height="9.728"/>
	
		<rect x="202.027" y="335.762" transform="matrix(-0.7071 0.7071 -0.7071 -0.7071 587.4412 437.9261)" style="fill:#E8BB20;" width="1.992" height="9.728"/>
	
		<rect x="198.416" y="339.377" transform="matrix(-0.7071 0.7071 -0.7071 -0.7071 583.8322 446.6499)" style="fill:#E8BB20;" width="1.992" height="9.728"/>
	
		<rect x="194.796" y="342.984" transform="matrix(-0.7071 0.7071 -0.7071 -0.7071 580.2032 455.3689)" style="fill:#E8BB20;" width="1.992" height="9.728"/>
</g>
<rect x="154.957" y="325.635" transform="matrix(-0.7071 0.7071 -0.7071 -0.7071 553.4443 437.5301)" style="fill:#F5EB07;" width="62.299" height="15.504"/>
<g>
	
		<rect x="204.989" y="308.639" transform="matrix(-0.7071 0.7071 -0.7071 -0.7071 573.3188 389.5293)" style="fill:#E8BB20;" width="1.992" height="9.728"/>
	
		<rect x="201.389" y="312.307" transform="matrix(-0.7071 0.7071 -0.7071 -0.7071 569.7668 398.3361)" style="fill:#E8BB20;" width="1.992" height="9.728"/>
	
		<rect x="197.749" y="315.886" transform="matrix(-0.7071 0.7071 -0.7071 -0.7071 566.0837 407.0198)" style="fill:#E8BB20;" width="1.992" height="9.728"/>
	
		<rect x="194.152" y="319.509" transform="matrix(-0.7071 0.7071 -0.7071 -0.7071 562.5048 415.7482)" style="fill:#E8BB20;" width="1.992" height="9.728"/>
	
		<rect x="190.545" y="323.121" transform="matrix(-0.7071 0.7071 -0.7071 -0.7071 558.9008 424.4661)" style="fill:#E8BB20;" width="1.992" height="9.728"/>
	
		<rect x="186.917" y="326.728" transform="matrix(-0.7071 0.7071 -0.7071 -0.7071 555.2587 433.1876)" style="fill:#E8BB20;" width="1.992" height="9.728"/>
	
		<rect x="183.297" y="330.347" transform="matrix(-0.7071 0.7071 -0.7071 -0.7071 551.6376 441.9267)" style="fill:#E8BB20;" width="1.992" height="9.728"/>
	
		<rect x="179.698" y="333.962" transform="matrix(-0.7071 0.7071 -0.7071 -0.7071 548.0497 450.6423)" style="fill:#E8BB20;" width="1.992" height="9.728"/>
	
		<rect x="176.073" y="337.578" transform="matrix(-0.7071 0.7071 -0.7071 -0.7071 544.4189 459.3774)" style="fill:#E8BB20;" width="1.992" height="9.728"/>
	
		<rect x="172.469" y="341.149" transform="matrix(-0.7071 0.7071 -0.7071 -0.7071 540.7916 468.0221)" style="fill:#E8BB20;" width="1.992" height="9.728"/>
	
		<rect x="168.829" y="344.808" transform="matrix(-0.7071 0.7071 -0.7071 -0.7071 537.1656 476.8435)" style="fill:#E8BB20;" width="1.992" height="9.728"/>
	
		<rect x="165.229" y="348.388" transform="matrix(-0.7071 0.7071 -0.7071 -0.7071 533.5508 485.499)" style="fill:#E8BB20;" width="1.992" height="9.728"/>
</g>
<rect x="240.855" y="381.21" transform="matrix(-0.7071 -0.7071 0.7071 -0.7071 200.8118 864.843)" style="fill:#F5EB07;" width="77.331" height="19.244"/>
<g>
	
		<rect x="302.958" y="409.439" transform="matrix(-0.7071 -0.7071 0.7071 -0.7071 225.5078 924.3667)" style="fill:#E8BB20;" width="2.476" height="12.08"/>
	
		<rect x="298.479" y="404.964" transform="matrix(-0.7071 -0.7071 0.7071 -0.7071 221.0247 913.5585)" style="fill:#E8BB20;" width="2.476" height="12.08"/>
	
		<rect x="293.999" y="400.484" transform="matrix(-0.7071 -0.7071 0.7071 -0.7071 216.5444 902.7435)" style="fill:#E8BB20;" width="2.476" height="12.08"/>
	
		<rect x="289.519" y="396.008" transform="matrix(-0.7071 -0.7071 0.7071 -0.7071 212.0613 891.9353)" style="fill:#E8BB20;" width="2.476" height="12.08"/>
	
		<rect x="285.01" y="391.504" transform="matrix(-0.7071 -0.7071 0.7071 -0.7071 207.55 881.0588)" style="fill:#E8BB20;" width="2.476" height="12.08"/>
	
		<rect x="280.519" y="386.997" transform="matrix(-0.7071 -0.7071 0.7071 -0.7071 203.0697 870.1872)" style="fill:#E8BB20;" width="2.476" height="12.08"/>
	
		<rect x="276.039" y="382.521" transform="matrix(-0.7071 -0.7071 0.7071 -0.7071 198.5866 859.379)" style="fill:#E8BB20;" width="2.476" height="12.08"/>
	
		<rect x="271.559" y="378.045" transform="matrix(-0.7071 -0.7071 0.7071 -0.7071 194.1035 848.5708)" style="fill:#E8BB20;" width="2.476" height="12.08"/>
	
		<rect x="267.073" y="373.56" transform="matrix(-0.7071 -0.7071 0.7071 -0.7071 189.6176 837.7421)" style="fill:#E8BB20;" width="2.476" height="12.08"/>
	
		<rect x="262.599" y="369.094" transform="matrix(-0.7071 -0.7071 0.7071 -0.7071 185.1373 826.9544)" style="fill:#E8BB20;" width="2.476" height="12.08"/>
	
		<rect x="258.119" y="364.61" transform="matrix(-0.7071 -0.7071 0.7071 -0.7071 180.6599 816.1326)" style="fill:#E8BB20;" width="2.476" height="12.08"/>
	
		<rect x="253.61" y="360.103" transform="matrix(-0.7071 -0.7071 0.7071 -0.7071 176.1513 805.2493)" style="fill:#E8BB20;" width="2.476" height="12.08"/>
</g>
<rect x="250" y="360.363" transform="matrix(-0.7071 -0.7071 0.7071 -0.7071 231.164 835.7209)" style="fill:#F5EB07;" width="77.331" height="19.244"/>
<g>
	
		<rect x="312.103" y="388.592" transform="matrix(-0.7071 -0.7071 0.7071 -0.7071 255.8601 895.2445)" style="fill:#E8BB20;" width="2.476" height="12.08"/>
	
		<rect x="307.626" y="384.111" transform="matrix(-0.7071 -0.7071 0.7071 -0.7071 251.3854 884.4295)" style="fill:#E8BB20;" width="2.476" height="12.08"/>
	
		<rect x="303.103" y="379.637" transform="matrix(-0.7071 -0.7071 0.7071 -0.7071 246.8284 873.5931)" style="fill:#E8BB20;" width="2.476" height="12.08"/>
	
		<rect x="298.623" y="375.157" transform="matrix(-0.7071 -0.7071 0.7071 -0.7071 242.3481 862.778)" style="fill:#E8BB20;" width="2.476" height="12.08"/>
	
		<rect x="294.143" y="370.682" transform="matrix(-0.7071 -0.7071 0.7071 -0.7071 237.865 851.9698)" style="fill:#E8BB20;" width="2.476" height="12.08"/>
	
		<rect x="289.692" y="366.178" transform="matrix(-0.7071 -0.7071 0.7071 -0.7071 233.4502 841.1334)" style="fill:#E8BB20;" width="2.476" height="12.08"/>
	
		<rect x="285.183" y="361.67" transform="matrix(-0.7071 -0.7071 0.7071 -0.7071 228.9416 830.25)" style="fill:#E8BB20;" width="2.476" height="12.08"/>
	
		<rect x="280.703" y="357.194" transform="matrix(-0.7071 -0.7071 0.7071 -0.7071 224.4586 819.4419)" style="fill:#E8BB20;" width="2.476" height="12.08"/>
	
		<rect x="276.183" y="352.719" transform="matrix(-0.7071 -0.7071 0.7071 -0.7071 219.9071 808.6054)" style="fill:#E8BB20;" width="2.476" height="12.08"/>
	
		<rect x="271.7" y="348.236" transform="matrix(-0.7071 -0.7071 0.7071 -0.7071 215.4241 797.7835)" style="fill:#E8BB20;" width="2.476" height="12.08"/>
	
		<rect x="267.229" y="343.746" transform="matrix(-0.7071 -0.7071 0.7071 -0.7071 210.9654 786.9572)" style="fill:#E8BB20;" width="2.476" height="12.08"/>
	
		<rect x="262.76" y="339.244" transform="matrix(-0.7071 -0.7071 0.7071 -0.7071 206.5204 776.1116)" style="fill:#E8BB20;" width="2.476" height="12.08"/>
</g>
<rect x="270.816" y="351.234" transform="matrix(-0.7071 -0.7071 0.7071 -0.7071 273.1549 834.8556)" style="fill:#F5EB07;" width="77.331" height="19.244"/>
<g>
	
		<rect x="332.928" y="379.471" transform="matrix(-0.7071 -0.7071 0.7071 -0.7071 297.8594 894.3997)" style="fill:#E8BB20;" width="2.476" height="12.08"/>
	
		<rect x="328.448" y="374.992" transform="matrix(-0.7071 -0.7071 0.7071 -0.7071 293.3792 883.5847)" style="fill:#E8BB20;" width="2.476" height="12.08"/>
	
		<rect x="323.968" y="370.516" transform="matrix(-0.7071 -0.7071 0.7071 -0.7071 288.896 872.7765)" style="fill:#E8BB20;" width="2.476" height="12.08"/>
	
		<rect x="319.471" y="366.002" transform="matrix(-0.7071 -0.7071 0.7071 -0.7071 284.4101 861.8912)" style="fill:#E8BB20;" width="2.476" height="12.08"/>
	
		<rect x="314.996" y="361.52" transform="matrix(-0.7071 -0.7071 0.7071 -0.7071 279.9412 851.0762)" style="fill:#E8BB20;" width="2.476" height="12.08"/>
	
		<rect x="310.488" y="357.025" transform="matrix(-0.7071 -0.7071 0.7071 -0.7071 275.4241 840.2134)" style="fill:#E8BB20;" width="2.476" height="12.08"/>
	
		<rect x="306.008" y="352.541" transform="matrix(-0.7071 -0.7071 0.7071 -0.7071 270.9467 829.3915)" style="fill:#E8BB20;" width="2.476" height="12.08"/>
	
		<rect x="301.528" y="348.069" transform="matrix(-0.7071 -0.7071 0.7071 -0.7071 266.4607 818.5901)" style="fill:#E8BB20;" width="2.476" height="12.08"/>
	
		<rect x="297.056" y="343.581" transform="matrix(-0.7071 -0.7071 0.7071 -0.7071 262.0009 807.7667)" style="fill:#E8BB20;" width="2.476" height="12.08"/>
	
		<rect x="292.568" y="339.118" transform="matrix(-0.7071 -0.7071 0.7071 -0.7071 257.4945 796.9738)" style="fill:#E8BB20;" width="2.476" height="12.08"/>
	
		<rect x="288.076" y="334.61" transform="matrix(-0.7071 -0.7071 0.7071 -0.7071 253.0143 786.1022)" style="fill:#E8BB20;" width="2.476" height="12.08"/>
	
		<rect x="283.585" y="330.123" transform="matrix(-0.7071 -0.7071 0.7071 -0.7071 248.5198 775.2667)" style="fill:#E8BB20;" width="2.476" height="12.08"/>
</g>
<rect x="292.558" y="342.97" transform="matrix(-0.7071 -0.7071 0.7071 -0.7071 316.1135 836.1214)" style="fill:#F5EB07;" width="77.331" height="19.244"/>
<g>
	
		<rect x="354.633" y="371.223" transform="matrix(-0.7071 -0.7071 0.7071 -0.7071 340.7441 895.6665)" style="fill:#E8BB20;" width="2.476" height="12.08"/>
	
		<rect x="350.181" y="366.723" transform="matrix(-0.7071 -0.7071 0.7071 -0.7071 336.3264 884.8369)" style="fill:#E8BB20;" width="2.476" height="12.08"/>
	
		<rect x="345.701" y="362.243" transform="matrix(-0.7071 -0.7071 0.7071 -0.7071 331.8462 874.0219)" style="fill:#E8BB20;" width="2.476" height="12.08"/>
	
		<rect x="341.181" y="357.768" transform="matrix(-0.7071 -0.7071 0.7071 -0.7071 327.2948 863.1854)" style="fill:#E8BB20;" width="2.476" height="12.08"/>
	
		<rect x="336.673" y="353.264" transform="matrix(-0.7071 -0.7071 0.7071 -0.7071 322.7834 852.3089)" style="fill:#E8BB20;" width="2.476" height="12.08"/>
	
		<rect x="332.193" y="348.784" transform="matrix(-0.7071 -0.7071 0.7071 -0.7071 318.3032 841.4939)" style="fill:#E8BB20;" width="2.476" height="12.08"/>
	
		<rect x="327.718" y="344.314" transform="matrix(-0.7071 -0.7071 0.7071 -0.7071 313.8257 830.6993)" style="fill:#E8BB20;" width="2.476" height="12.08"/>
	
		<rect x="323.257" y="339.789" transform="matrix(-0.7071 -0.7071 0.7071 -0.7071 309.4097 819.819)" style="fill:#E8BB20;" width="2.476" height="12.08"/>
	
		<rect x="318.781" y="335.325" transform="matrix(-0.7071 -0.7071 0.7071 -0.7071 304.925 809.0342)" style="fill:#E8BB20;" width="2.476" height="12.08"/>
	
		<rect x="314.301" y="330.838" transform="matrix(-0.7071 -0.7071 0.7071 -0.7071 300.4503 798.2055)" style="fill:#E8BB20;" width="2.476" height="12.08"/>
	
		<rect x="309.781" y="326.37" transform="matrix(-0.7071 -0.7071 0.7071 -0.7071 295.8933 787.3827)" style="fill:#E8BB20;" width="2.476" height="12.08"/>
	
		<rect x="305.273" y="321.858" transform="matrix(-0.7071 -0.7071 0.7071 -0.7071 291.3876 776.4926)" style="fill:#E8BB20;" width="2.476" height="12.08"/>
	<path style="fill:#E8BB20;" d="M268.312,285.208c-15.34-12.576-37.924-12.576-53.264,0c-20.732,16.996-20.732,48.444,0,65.44
		c15.34,12.576,37.924,12.576,53.264,0C289.044,333.648,289.044,302.204,268.312,285.208z"/>
</g>
<g>
	<path style="fill:#F5EA07;" d="M241.68,353.416c19.604,0.004,35.496-15.888,35.492-35.492c0-19.6-15.892-35.492-35.492-35.492
		s-35.492,15.892-35.492,35.492C206.188,337.524,222.076,353.416,241.68,353.416z M209.924,317.924
		c-0.004-17.54,14.216-31.76,31.756-31.756c17.544,0,31.76,14.216,31.76,31.76c0,17.536-14.22,31.756-31.756,31.756
		C224.14,349.684,209.924,335.468,209.924,317.924z"/>
	<path style="fill:#F5EA07;" d="M240.432,338.292v-3.588c-4.488-0.46-8.516-2.244-12.084-5.356l3.588-4.276
		c2.752,2.392,5.584,3.816,8.5,4.276v-9.532c-3.7-0.884-6.412-2.048-8.132-3.488s-2.58-3.58-2.58-6.412
		c0-2.832,0.988-5.152,2.972-6.952c1.98-1.8,4.56-2.784,7.74-2.948v-2.456h3.144v2.504c3.604,0.264,7.008,1.492,10.22,3.684
		l-3.192,4.52c-2.164-1.54-4.504-2.488-7.024-2.848v9.236h0.148c3.764,0.884,6.536,2.08,8.304,3.588
		c1.768,1.508,2.652,3.692,2.652,6.56c0,2.868-1.016,5.2-3.048,7s-4.716,2.784-8.056,2.948v3.536h-3.152V338.292z M236.968,306.576
		c-0.836,0.736-1.252,1.656-1.252,2.752s0.328,1.964,0.984,2.604c0.656,0.64,1.9,1.252,3.732,1.844v-8.5
		C238.96,305.404,237.804,305.84,236.968,306.576z M247.312,328.12c0.916-0.752,1.376-1.704,1.376-2.848
		c0-1.148-0.36-2.056-1.08-2.728s-2.064-1.3-4.028-1.892v8.844C245.152,329.332,246.396,328.876,247.312,328.12z"/>
</g>
<path style="fill:#D2D2D4;" d="M332.84,352.756c0,0,4.108,19.024,15.328,34.872c4.136,5.84,7.456,12.272,9.496,19.168
	c0.936,3.172,1.74,6.624,2.144,10.06c0.42,3.576,3.536,6.208,6.916,5.944c4.34-0.336,10.608-2.152,18.196-8.128
	c2.064-1.624,2.844-4.512,1.98-7.172c-3.516-10.828-11.844-39.608-6.532-54.756L332.84,352.756z"/>
<path style="fill:#FDFEFF;" d="M431.652,292.528c-3.808-0.204-6.672-0.932-8.76-1.76c2.368-2.396,3.9-5.856,4.172-9.728
	c0.556-7.86-4.332-14.3-10.688-14.74c-6.248-0.452-12.076,5.028-12.648,13.108c-0.376,5.356,1.848,10.196,5.42,12.788
	c-1.404,2.38-3.304,4.272-5.144,5.72c-15.608-33.204-60.892-47.932-106.624-35.032l5.464,2.392l-8.112,24.932l19.676,8.624
	l-8.112,24.932l19.676,8.624l-8.112,24.932l19.68,8.632l-8.112,24.932l19.676,8.624l-1.3,3.98c7.504-3.332,14.48-7.288,20.828-11.74
	c5.536,8.624,8.7,17.78,9.708,26.36c0.424,3.58,3.544,6.208,6.912,5.944c4.348-0.332,10.612-2.148,18.196-8.124
	c2.068-1.628,2.848-4.508,1.98-7.176c-2.368-7.312-6.936-22.808-8.016-36.768c-0.412-5.336,0.712-10.704,3.236-15.424
	c8.7-16.264,11.416-34.008,6.448-50.572c3.02-2.056,6.52-5.076,9.064-9.268c3.184,1.904,8.088,3.796,15.272,4.144
	c2.636,0.144,4.824-2.216,4.292-4.996C435.356,293.964,433.584,292.632,431.652,292.528z M415.004,285.832
	c-4.312-0.308-3.672-11.572,0.784-11.216C420.072,274.908,419.488,286.188,415.004,285.832z"/>
<g>
	<path style="fill:#D2D2D4;" d="M330.28,278.816c-10.712-1.044-21.932,0.04-32.852,3.076l-2.704,8.312l4.2,1.84
		c10.1-2.972,20.496-4.052,30.364-3.088c0.784,0.076,1.54-0.028,2.236-0.28c1.784-0.648,3.132-2.276,3.332-4.296
		C335.128,281.584,333.08,279.092,330.28,278.816z"/>
	<path style="fill:#D2D2D4;" d="M113.384,332.368c0,0-8.64,15.996-9.8,34.164c-0.704,11.04-4.108,20.472-9.148,27.888
		c-1.896,2.788-1.116,6.584,1.656,8.496c3.568,2.46,9.548,5.068,19.128,5.56c2.608,0.132,5.004-1.42,5.988-3.836
		c4.008-9.836,15.44-35.348,28.956-42.752L113.384,332.368z"/>
</g>
<path style="fill:#FDFEFF;" d="M168.412,383.136l22.24-13.884l-9.528-19.264l22.24-13.884l-9.532-19.252l22.24-13.884l-9.532-19.252
	l22.24-13.884l-2.644-5.344c-2.884-1.3-5.852-2.508-8.892-3.616c-47.54-17.304-62.036,3.46-78.26-14.912
	c-7.104-8.04-14.668-13.14-14.668-13.14c-11.208,16.936-2.672,36.272-4.04,32.272c1.46,4.268-1.232,5.796-4.304,8.548
	c-9.888,8.868-20.032,3.824-25.964,1.664l-9.764,44.036c5.676,2.068,15.032,4.356,17.824,15.124
	c2.296,8.864,6.384,17.568,12.02,25.736c9.032,13.092,4.872,35.336-4.216,48.672c-1.888,2.772-1.104,6.524,1.656,8.428
	c3.568,2.468,9.556,5.088,19.164,5.58c2.612,0.14,5.004-1.42,5.988-3.84c2.328-5.708,7.156-16.704,13.444-26.364
	c6.16,3.532,12.78,6.624,19.804,9.18c2.816,1.024,5.64,1.936,8.46,2.748l3.552-2.216L168.412,383.136z"/>
<g>
	<path style="fill:#D2D2D4;" d="M213.96,279.084c-2.28-1.036-4.592-2.02-6.964-2.884c-9.484-3.452-19.232-5.368-28.972-5.696
		c-2.812-0.092-5.168,2.108-5.26,4.92c-0.096,2.812,2.108,5.164,4.92,5.264c8.664,0.292,17.356,2,25.828,5.084
		c1.72,0.628,3.404,1.32,5.072,2.048l-2.036-4.108L213.96,279.084z"/>
	<path style="fill:#D2D2D4;" d="M139.692,297.424c-1.832,5.036-7.404,7.636-12.44,5.8c-5.036-1.832-7.636-7.404-5.8-12.44
		C125.836,278.736,144.084,285.36,139.692,297.424z"/>
</g>
<path style="fill:#E8E7E8;" d="M93.068,300.212c-2.696,12.16-8.436,20.72-12.82,19.124c-4.388-1.596-5.756-12.748-3.064-24.908
	c2.696-12.16,8.436-20.72,12.82-19.124S95.764,288.056,93.068,300.212z"/>
<g>
	<path style="fill:#D2D2D4;" d="M91.208,298.42c-0.748,5.42-2.388,9.58-3.668,9.292c-1.28-0.288-1.712-4.912-0.964-10.332
		c0.748-5.42,2.388-9.58,3.668-9.292C91.524,288.376,91.956,293,91.208,298.42z"/>
	<path style="fill:#D2D2D4;" d="M83.872,296.776c-0.748,5.42-2.388,9.58-3.668,9.292c-1.28-0.288-1.712-4.912-0.964-10.332
		c0.748-5.42,2.388-9.58,3.668-9.292C84.184,286.728,84.616,291.356,83.872,296.776z"/>
</g>
<rect x="235.534" y="133.94" transform="matrix(-0.866 0.5 -0.5 -0.866 697.697 110.2906)" style="fill:#F5EA07;" width="197.076" height="29.363"/>
<rect x="241.077" y="154.626" transform="matrix(-0.866 0.5 -0.5 -0.866 712.8397 125.4292)" style="fill:#E8BB20;" width="197.076" height="7.188"/>
<polygon style="fill:#4D535F;" points="313.06,205.34 278.068,225.868 239.108,158.384 242.996,133.3 264.228,120.76 "/>
<path style="fill:#D2D2D4;" d="M139.696,265.852c0.664-1.34,0.428-3.072-0.572-4.184c-0.58-0.648-1.364-1.076-2.028-1.64
	c-5.64-4.808-0.256-16.484-10.184-19.328c-1.052,1.36,0.048,3.308-0.06,5.024c-0.068,1.088-0.636,2.068-1.116,3.048
	c-1.836,3.76-3.308,11.32-0.724,14.52c1.748,2.164,5.084,2.368,7.044,4.348c2.188,2.212,2.528,3.596,4.62,0.936
	C137.528,267.484,139.016,267.224,139.696,265.852z"/>
<g>
	<polygon style="fill:#FDFEFF;" points="183.02,229.848 165.028,237.548 158.544,225.34 169.124,213.128 189.444,213.128 	"/>
	<polygon style="fill:#FDFEFF;" points="192.808,174.572 210.8,166.872 217.284,179.084 206.704,191.292 186.38,191.292 	"/>
	<polygon style="fill:#FDFEFF;" points="314.832,238.6 307.132,220.608 331.552,220.608 331.552,245.028 	"/>
	<polygon style="fill:#FDFEFF;" points="356.524,212.556 348.824,194.564 373.24,194.564 373.24,218.984 	"/>
	<polygon style="fill:#FDFEFF;" points="234.088,249.72 226.388,231.728 238.596,225.244 250.808,235.824 250.808,256.148 	"/>
	<polygon style="fill:#FDFEFF;" points="284.036,260.956 291.74,278.948 279.528,285.432 267.32,274.852 267.32,254.528 	"/>
</g>
<g>
</g>
<g>
</g>
<g>
</g>
<g>
</g>
<g>
</g>
<g>
</g>
<g>
</g>
<g>
</g>
<g>
</g>
<g>
</g>
<g>
</g>
<g>
</g>
<g>
</g>
<g>
</g>
<g>
</g>
</svg>
