<?xml version="1.0" encoding="iso-8859-1"?>
<!-- Generator: Adobe Illustrator 19.0.0, SVG Export Plug-In . SVG Version: 6.00 Build 0)  -->
<svg version="1.1" id="Capa_1" xmlns="http://www.w3.org/2000/svg" xmlns:xlink="http://www.w3.org/1999/xlink" x="0px" y="0px"
	 viewBox="0 0 512 512" style="enable-background:new 0 0 512 512;" xml:space="preserve">
<circle style="fill:#4786C6;" cx="256" cy="256" r="256"/>
<g>
	<rect x="69.604" y="44.08" style="fill:#D2D2D4;" width="372.8" height="37.92"/>
	<rect x="31.74" y="446.52" style="fill:#D2D2D4;" width="448.52" height="34.832"/>
</g>
<rect x="47.736" y="411.68" style="fill:#E8E7E8;" width="416.52" height="34.832"/>
<rect x="62.276" y="113.656" style="fill:#FDFEFF;" width="387.44" height="298.04"/>
<rect x="244.8" y="221" style="fill:#F7CFA3;" width="168.8" height="136.2"/>
<rect x="261.8" y="236.6" style="fill:#656D7A;" width="134.796" height="104.92"/>
<rect x="98.4" y="220.76" style="fill:#F7CFA3;" width="111.908" height="191.032"/>
<g>
	<rect x="114.048" y="235.992" style="fill:#656D7A;" width="80.64" height="77.936"/>
	<rect x="114.048" y="332.08" style="fill:#656D7A;" width="80.64" height="67.904"/>
</g>
<polygon style="fill:#F1592F;" points="69.544,76.528 18.692,185.74 86.492,185.74 122.816,76.528 "/>
<polygon style="fill:#F5EA07;" points="122.816,76.528 86.492,185.74 154.296,185.74 176.088,76.528 "/>
<polygon style="fill:#F1592F;" points="176.088,76.528 154.296,185.74 222.1,185.74 229.364,76.528 "/>
<polygon style="fill:#F5EA07;" points="229.364,76.528 222.1,185.74 289.9,185.74 282.636,76.528 "/>
<polygon style="fill:#F1592F;" points="282.636,76.528 289.9,185.74 357.704,185.74 335.912,76.528 "/>
<polygon style="fill:#F5EA07;" points="335.912,76.528 357.704,185.74 425.508,185.74 389.184,76.528 "/>
<polygon style="fill:#F1592F;" points="389.184,76.528 425.508,185.74 493.308,185.74 442.456,76.528 "/>
<g>
	<path style="fill:#E8BB20;" d="M222.1,185.72h67.82v13.936c0,18.664-15.196,33.86-33.96,33.86c-18.664,0-33.86-15.196-33.86-33.86
		L222.1,185.72L222.1,185.72z"/>
	<path style="fill:#E8BB20;" d="M425.456,185.72v13.936c0,18.664-15.092,33.86-33.86,33.86c-18.764,0-33.86-15.196-33.86-33.86
		V185.72H425.456z"/>
	<path style="fill:#E8BB20;" d="M86.46,185.72h67.82v13.936c0,18.664-15.196,33.86-33.86,33.86c-18.764,0-33.96-15.196-33.96-33.86
		V185.72z"/>
</g>
<g>
	<path style="fill:#E34E30;" d="M493.276,185.72v13.936c0,18.664-15.196,33.86-33.86,33.86c-18.764,0-33.96-15.196-33.96-33.86
		V185.72H493.276z"/>
	<path style="fill:#E34E30;" d="M154.28,185.72h67.82v13.936c0,18.664-15.196,33.86-33.86,33.86c-18.764,0-33.96-15.196-33.96-33.86
		V185.72z"/>
	<path style="fill:#E34E30;" d="M289.92,185.72h67.82v13.936c0,18.664-15.196,33.86-33.96,33.86c-18.664,0-33.86-15.196-33.86-33.86
		L289.92,185.72L289.92,185.72z"/>
	<path style="fill:#E34E30;" d="M18.74,185.72h67.716v13.936c0,18.664-15.092,33.86-33.86,33.86s-33.86-15.196-33.86-33.86V185.72
		H18.74z"/>
</g>
<g>
</g>
<g>
</g>
<g>
</g>
<g>
</g>
<g>
</g>
<g>
</g>
<g>
</g>
<g>
</g>
<g>
</g>
<g>
</g>
<g>
</g>
<g>
</g>
<g>
</g>
<g>
</g>
<g>
</g>
</svg>
