<?xml version="1.0" encoding="iso-8859-1"?>
<!-- Generator: Adobe Illustrator 19.0.0, SVG Export Plug-In . SVG Version: 6.00 Build 0)  -->
<svg version="1.1" id="Capa_1" xmlns="http://www.w3.org/2000/svg" xmlns:xlink="http://www.w3.org/1999/xlink" x="0px" y="0px"
	 viewBox="0 0 512 512" style="enable-background:new 0 0 512 512;" xml:space="preserve">
<circle style="fill:#7EC359;" cx="256" cy="256" r="256"/>
<g>
	<rect x="250.52" y="231.352" style="fill:#FDFEFF;" width="10.928" height="42.828"/>
	<polygon style="fill:#FDFEFF;" points="392.528,338.12 381.6,338.12 381.6,279.644 130.4,279.644 130.4,338.12 119.472,338.12 
		119.472,268.716 392.528,268.716 	"/>
</g>
<polygon style="fill:#4D535F;" points="110.092,415.884 94.18,460.432 168.712,460.432 152.804,415.884 "/>
<rect x="40.928" y="300.6" style="fill:#656D7A;" width="181.04" height="132.52"/>
<rect x="49.812" y="309.48" style="fill:#70B1E1;" width="163.272" height="99.8"/>
<rect x="86.76" y="455.08" style="fill:#656D7A;" width="89.372" height="15.06"/>
<g>
	<circle style="fill:#4D535F;" cx="131.448" cy="420.92" r="6.512"/>
	<polygon style="fill:#4D535F;" points="359.196,415.884 343.288,460.432 417.82,460.432 401.908,415.884 	"/>
</g>
<rect x="290.04" y="300.6" style="fill:#656D7A;" width="181.04" height="132.52"/>
<rect x="298.92" y="309.48" style="fill:#70B1E1;" width="163.272" height="99.8"/>
<rect x="335.868" y="455.08" style="fill:#656D7A;" width="89.372" height="15.06"/>
<g>
	<circle style="fill:#4D535F;" cx="380.56" cy="420.92" r="6.512"/>
	<rect x="208.44" y="48.748" style="fill:#4D535F;" width="95.092" height="194.908"/>
</g>
<path style="fill:#656D7A;" d="M298.928,48.748h-85.856v135.88c27.852,23.264,56.472,23.264,85.86,0L298.928,48.748z"/>
<g>
	<path style="fill:#353944;" d="M298.928,184.628c-18.48,39.04-70.388,39.216-85.852,0
		C240.924,207.888,269.544,207.888,298.928,184.628z"/>
	<path style="fill:#353944;" d="M267.508,219.38h-23.252c-4.588,0-8.304,3.72-8.304,8.304c0,4.588,3.72,8.304,8.304,8.304h23.252
		c4.588,0,8.304-3.72,8.304-8.304C275.812,223.096,272.096,219.38,267.508,219.38z"/>
</g>
<g>
	<rect x="217.8" y="83.312" style="fill:#4D535F;" width="76.36" height="19.708"/>
	<rect x="217.8" y="57.66" style="fill:#4D535F;" width="76.36" height="19.708"/>
</g>
<g>
	<path style="fill:#353944;" d="M288.18,75.108h-9.908v-4h9.908V75.108z M279.096,74.284h8.26v-2.352h-8.26V74.284z"/>
	<path style="fill:#353944;" d="M292.028,69.208h-72.056V59.92h72.052v9.288H292.028z M220.796,68.384H291.2V60.74h-70.404V68.384z"
		/>
	<circle style="fill:#353944;" cx="223.492" cy="73.112" r="1.524"/>
	<circle style="fill:#353944;" cx="229.28" cy="73.112" r="1.524"/>
	<circle style="fill:#353944;" cx="235.076" cy="73.112" r="1.524"/>
	<path style="fill:#353944;" d="M288.18,100.76h-9.908v-4h9.908V100.76z M279.096,99.936h8.26v-2.352h-8.26V99.936z"/>
	<path style="fill:#353944;" d="M292.028,94.86h-72.056v-9.288h72.052v9.288H292.028z M220.796,94.036H291.2v-7.644h-70.404V94.036z
		"/>
	<circle style="fill:#353944;" cx="223.492" cy="98.764" r="1.524"/>
	<circle style="fill:#353944;" cx="229.28" cy="98.764" r="1.524"/>
	<circle style="fill:#353944;" cx="235.076" cy="98.764" r="1.524"/>
</g>
<ellipse style="fill:#4D535F;" cx="241.8" cy="115.472" rx="13.444" ry="7.196"/>
<rect x="217.8" y="112.72" style="fill:#353944;" width="52.16" height="5.492"/>
<g>
	<rect x="213.08" y="128.68" style="fill:#4D535F;" width="85.856" height="1.92"/>
	<circle style="fill:#4D535F;" cx="257.48" cy="122.192" r="1.86"/>
	<circle style="fill:#4D535F;" cx="225" cy="122.192" r="1.86"/>
</g>
<g>
	<path style="fill:#353944;" d="M256,172.576c-5.012,0-9.092,4.08-9.092,9.092s4.08,9.092,9.092,9.092s9.092-4.08,9.092-9.092
		S261.012,172.576,256,172.576z M256,187.876c-3.424,0-6.208-2.784-6.208-6.208s2.784-6.208,6.208-6.208s6.208,2.784,6.208,6.208
		S259.424,187.876,256,187.876z"/>
	<path style="fill:#353944;" d="M256,168.656c4.156,0,7.54-3.384,7.54-7.54c0-4.156-3.384-7.54-7.54-7.54s-7.54,3.384-7.54,7.54
		S251.844,168.656,256,168.656z M256,156.46c2.568,0,4.656,2.088,4.656,4.656c0,2.568-2.088,4.656-4.656,4.656
		s-4.656-2.088-4.656-4.656S253.432,156.46,256,156.46z"/>
	
		<rect x="258.565" y="152.29" transform="matrix(-0.7071 0.7071 -0.7071 -0.7071 560.1868 74.1872)" style="fill:#353944;" width="12.328" height="1.644"/>
	<polygon style="fill:#353944;" points="245.168,152.064 251.656,158.52 250.492,159.68 244.036,153.224 	"/>
	<circle style="fill:#353944;" cx="243.584" cy="151.816" r="1.76"/>
	<circle style="fill:#353944;" cx="269.2" cy="148.28" r="1.76"/>
</g>
<g>
	<rect x="236.2" y="263.08" style="fill:#FDFEFF;" width="39.624" height="22.2"/>
	<rect x="115.876" y="265.12" style="fill:#FDFEFF;" width="18.12" height="18.12"/>
	<rect x="378" y="265.12" style="fill:#FDFEFF;" width="18.12" height="18.12"/>
</g>
<g>
</g>
<g>
</g>
<g>
</g>
<g>
</g>
<g>
</g>
<g>
</g>
<g>
</g>
<g>
</g>
<g>
</g>
<g>
</g>
<g>
</g>
<g>
</g>
<g>
</g>
<g>
</g>
<g>
</g>
</svg>
