<?xml version="1.0" encoding="iso-8859-1"?>
<!-- Generator: Adobe Illustrator 19.0.0, SVG Export Plug-In . SVG Version: 6.00 Build 0)  -->
<svg version="1.1" id="Capa_1" xmlns="http://www.w3.org/2000/svg" xmlns:xlink="http://www.w3.org/1999/xlink" x="0px" y="0px"
	 viewBox="0 0 512 512" style="enable-background:new 0 0 512 512;" xml:space="preserve">
<circle style="fill:#4D5BA5;" cx="256" cy="256" r="256"/>
<rect x="50.604" y="130.764" style="fill:#D2D2D4;" width="410.8" height="313.84"/>
<rect x="74.056" y="156.36" style="fill:#FDFEFF;" width="363.88" height="262.64"/>
<rect x="50.604" y="67.38" style="fill:#656D7A;" width="410.8" height="63.384"/>
<rect x="227.608" y="86.3" style="fill:#FDFEFF;" width="208.12" height="25.548"/>
<circle style="fill:#7EC359;" cx="86.236" cy="99.072" r="15.276"/>
<circle style="fill:#F5EA07;" cx="129.24" cy="99.072" r="15.276"/>
<circle style="fill:#70B1E1;" cx="172.24" cy="99.072" r="15.276"/>
<circle style="fill:#FDFEFF;" cx="256" cy="287.692" r="60.98"/>
<path style="fill:#F1592F;" d="M355.092,300.9v-26.416l-15.728-1.732c-0.856-4.752-2.08-9.352-3.7-13.8l12.748-9.376l-13.208-22.868
	l-14.5,6.372c-3.068-3.636-6.44-7.032-10.096-10.076l6.372-14.524l-22.868-13.208l-9.376,12.768c-4.424-1.62-9.048-2.848-13.8-3.7
	l-1.732-15.748h-26.416l-1.732,15.748c-4.752,0.856-9.376,2.08-13.8,3.7l-9.376-12.768l-22.868,13.208l6.372,14.524
	c-3.656,3.044-7.032,6.44-10.096,10.076l-14.5-6.372l-13.208,22.868l12.748,9.376c-1.62,4.448-2.848,9.048-3.7,13.8l-15.728,1.732
	V300.9l15.728,1.728c0.856,4.752,2.08,9.376,3.7,13.8l-12.748,9.376l13.208,22.868l14.5-6.352c3.088,3.636,6.46,7.008,10.096,10.076
	l-6.372,14.5l22.868,13.208l9.376-12.748c4.424,1.62,9.048,2.848,13.8,3.7l1.732,15.728h26.416l1.732-15.728
	c4.752-0.852,9.376-2.08,13.8-3.7l9.376,12.748l22.868-13.208l-6.352-14.5c3.636-3.068,7.008-6.44,10.076-10.076l14.5,6.352
	l13.208-22.868l-12.748-9.376c1.62-4.424,2.848-9.044,3.7-13.8L355.092,300.9z M256,348.672c-33.688,0-60.98-27.292-60.98-60.98
	s27.292-60.98,60.98-60.98s60.98,27.292,60.98,60.98S289.688,348.672,256,348.672z"/>
<path style="fill:#E8BB20;" d="M252.356,312.296V290.48c-6.804-1.944-11.784-4.888-14.98-8.828c-3.16-3.94-4.756-8.724-4.756-14.344
	c0-5.692,1.804-10.476,5.38-14.344c3.612-3.872,8.384-6.1,14.356-6.692v-5.156h7.552v5.156c5.52,0.66,9.912,2.544,13.176,5.648
	c3.264,3.108,5.348,7.264,6.248,12.472l-13.176,1.72c-0.8-4.096-2.88-6.872-6.248-8.332v20.36c8.332,2.256,14.008,5.18,17.028,8.776
	s4.532,8.2,4.532,13.824c0,6.284-1.908,11.576-5.692,15.88c-3.82,4.304-9.096,6.944-15.864,7.916v9.736h-7.552v-9.476
	c-6.004-0.728-10.884-2.968-14.632-6.716s-6.144-9.044-7.184-15.88l13.592-1.46c0.556,2.776,1.596,5.172,3.124,7.184
	C248.78,309.936,250.48,311.392,252.356,312.296z M252.356,257.62c-2.048,0.696-3.68,1.876-4.896,3.54s-1.824,3.508-1.824,5.52
	c0,1.84,0.556,3.548,1.668,5.128s2.796,2.856,5.052,3.828V257.62z M259.904,313.024c2.604-0.484,4.72-1.692,6.352-3.62
	s2.448-4.192,2.448-6.796c0-2.324-0.696-4.332-2.064-6.016s-3.612-2.976-6.736-3.88V313.024z"/>
<g>
</g>
<g>
</g>
<g>
</g>
<g>
</g>
<g>
</g>
<g>
</g>
<g>
</g>
<g>
</g>
<g>
</g>
<g>
</g>
<g>
</g>
<g>
</g>
<g>
</g>
<g>
</g>
<g>
</g>
</svg>
