<?xml version="1.0" encoding="iso-8859-1"?>
<!-- Generator: Adobe Illustrator 19.0.0, SVG Export Plug-In . SVG Version: 6.00 Build 0)  -->
<svg version="1.1" id="Capa_1" xmlns="http://www.w3.org/2000/svg" xmlns:xlink="http://www.w3.org/1999/xlink" x="0px" y="0px"
	 viewBox="0 0 512 512" style="enable-background:new 0 0 512 512;" xml:space="preserve">
<circle style="fill:#6FB1E1;" cx="256" cy="256" r="256"/>
<path style="fill:#FDFEFF;" d="M449.252,75.52V234.1c0,78.976-36.236,154.912-101.272,203.44
	c-24.984,18.64-55.368,34.616-91.98,44.076c-36.612-9.46-66.996-25.436-91.98-44.076C98.984,389.012,62.748,313.076,62.748,234.1
	V75.52C189.568,80.44,256,30.384,256,30.384S322.432,80.44,449.252,75.52z"/>
<path style="fill:#F1592F;" d="M256,448.416c-26.312-7.796-50.78-20.064-72.84-36.524C127.8,370.584,94.748,304.116,94.748,234.1
	V107.632C174.66,105.104,229.14,82.28,256,67.796c26.864,14.484,81.348,37.308,161.252,39.832v126.468
	c0,70.016-33.052,136.484-88.412,177.792C306.78,428.352,282.312,440.62,256,448.416z"/>
<circle style="fill:#FDFEFF;" cx="256" cy="258.12" r="110"/>
<path style="fill:#F1592F;" d="M184,275.244c0,0,31.92,13.44,52.756,42.336c0,0,29.904-49.396,72.58-72.916
	c0,0-12.096-21.504-3.024-46.032c0,0-46.704,18.48-69.892,84.004l-16.464-31.248L184,275.244z"/>
<g>
</g>
<g>
</g>
<g>
</g>
<g>
</g>
<g>
</g>
<g>
</g>
<g>
</g>
<g>
</g>
<g>
</g>
<g>
</g>
<g>
</g>
<g>
</g>
<g>
</g>
<g>
</g>
<g>
</g>
</svg>
