<?xml version="1.0" encoding="iso-8859-1"?>
<!-- Generator: Adobe Illustrator 19.0.0, SVG Export Plug-In . SVG Version: 6.00 Build 0)  -->
<svg version="1.1" id="Capa_1" xmlns="http://www.w3.org/2000/svg" xmlns:xlink="http://www.w3.org/1999/xlink" x="0px" y="0px"
	 viewBox="0 0 512 512" style="enable-background:new 0 0 512 512;" xml:space="preserve">
<circle style="fill:#F1592F;" cx="256" cy="256" r="256"/>
<g>
	<path style="fill:#D2D2D4;" d="M80.628,122.056c-2.636,0-4.768-2.136-4.768-4.768c0-2.636,2.136-4.772,4.768-4.772
		c9.112,0,16.812-11.82,16.812-25.812s-7.696-25.812-16.812-25.812c-2.636,0-4.768-2.136-4.768-4.768s2.136-4.772,4.768-4.772
		c14.532,0,26.352,15.86,26.352,35.352S95.156,122.056,80.628,122.056z"/>
	<path style="fill:#D2D2D4;" d="M139.084,122.056c-2.636,0-4.772-2.136-4.772-4.768c0-2.636,2.136-4.772,4.772-4.772
		c9.112,0,16.812-11.82,16.812-25.812s-7.696-25.812-16.812-25.812c-2.636,0-4.772-2.136-4.772-4.768s2.136-4.772,4.772-4.772
		c14.532,0,26.352,15.86,26.352,35.352S153.616,122.056,139.084,122.056z"/>
	<path style="fill:#D2D2D4;" d="M197.544,122.056c-2.636,0-4.772-2.136-4.772-4.768c0-2.636,2.136-4.772,4.772-4.772
		c9.112,0,16.812-11.82,16.812-25.812s-7.696-25.812-16.812-25.812c-2.636,0-4.772-2.136-4.772-4.768s2.136-4.772,4.772-4.772
		c14.532,0,26.352,15.86,26.352,35.352S212.072,122.056,197.544,122.056z"/>
	<path style="fill:#D2D2D4;" d="M256,122.056c-2.636,0-4.768-2.136-4.768-4.768c0-2.636,2.136-4.772,4.768-4.772
		c9.112,0,16.812-11.82,16.812-25.812s-7.7-25.816-16.812-25.816c-2.636,0-4.768-2.136-4.768-4.768s2.136-4.772,4.768-4.772
		c14.532,0,26.352,15.86,26.352,35.352S270.532,122.056,256,122.056z"/>
	<path style="fill:#D2D2D4;" d="M314.456,122.056c-2.636,0-4.768-2.136-4.768-4.768c0-2.636,2.136-4.772,4.768-4.772
		c9.112,0,16.812-11.82,16.812-25.812s-7.696-25.812-16.812-25.812c-2.636,0-4.768-2.136-4.768-4.768s2.136-4.772,4.768-4.772
		c14.532,0,26.352,15.86,26.352,35.352S328.988,122.056,314.456,122.056z"/>
	<path style="fill:#D2D2D4;" d="M372.916,122.056c-2.636,0-4.768-2.136-4.768-4.768c0-2.636,2.136-4.772,4.768-4.772
		c9.112,0,16.812-11.82,16.812-25.812s-7.696-25.812-16.812-25.812c-2.636,0-4.768-2.136-4.768-4.768s2.136-4.772,4.768-4.772
		c14.532,0,26.352,15.86,26.352,35.352S387.444,122.056,372.916,122.056z"/>
	<path style="fill:#D2D2D4;" d="M431.064,122.056c-2.636,0-4.768-2.136-4.768-4.768c0-2.636,2.136-4.772,4.768-4.772
		c9.112,0,16.812-11.82,16.812-25.812s-7.696-25.812-16.812-25.812c-2.636,0-4.768-2.136-4.768-4.768s2.136-4.772,4.768-4.772
		c14.532,0,26.352,15.86,26.352,35.352S445.596,122.056,431.064,122.056z"/>
</g>
<rect x="35.56" y="154.96" style="fill:#5F87C4;" width="440.88" height="305.68"/>
<rect x="35.56" y="78.5" style="fill:#4D5BA5;" width="440.88" height="76.48"/>
<rect x="59.408" y="178.812" style="fill:#FDFEFF;" width="393.2" height="258"/>
<g>
	<rect x="205.6" y="203.94" style="fill:#D2D2D4;" width="38.356" height="38.356"/>
	<rect x="268.08" y="203.94" style="fill:#D2D2D4;" width="38.356" height="38.356"/>
</g>
<rect x="330.56" y="203.94" style="fill:#F1592F;" width="38.356" height="38.356"/>
<rect x="393" y="203.94" style="fill:#70B1E1;" width="38.356" height="38.356"/>
<g>
	<rect x="80.64" y="260.4" style="fill:#D2D2D4;" width="38.356" height="38.356"/>
	<rect x="143.104" y="260.4" style="fill:#D2D2D4;" width="38.356" height="38.356"/>
	<rect x="205.6" y="260.4" style="fill:#D2D2D4;" width="38.356" height="38.356"/>
	<rect x="268.08" y="260.4" style="fill:#D2D2D4;" width="38.356" height="38.356"/>
</g>
<rect x="330.56" y="260.4" style="fill:#F1592F;" width="38.356" height="38.356"/>
<rect x="393" y="260.4" style="fill:#70B1E1;" width="38.356" height="38.356"/>
<g>
	<rect x="80.64" y="316.84" style="fill:#D2D2D4;" width="38.356" height="38.356"/>
	<rect x="143.104" y="316.84" style="fill:#D2D2D4;" width="38.356" height="38.356"/>
	<rect x="205.6" y="316.84" style="fill:#D2D2D4;" width="38.356" height="38.356"/>
	<rect x="268.08" y="316.84" style="fill:#D2D2D4;" width="38.356" height="38.356"/>
</g>
<rect x="330.56" y="316.84" style="fill:#F1592F;" width="38.356" height="38.356"/>
<rect x="393" y="316.84" style="fill:#70B1E1;" width="38.356" height="38.356"/>
<g>
	<rect x="80.64" y="373.32" style="fill:#D2D2D4;" width="38.356" height="38.356"/>
	<rect x="143.104" y="373.32" style="fill:#D2D2D4;" width="38.356" height="38.356"/>
	<rect x="205.6" y="373.32" style="fill:#D2D2D4;" width="38.356" height="38.356"/>
</g>
<g>
	<circle style="fill:#FDFEFF;" cx="431.36" cy="116.72" r="11.872"/>
	<circle style="fill:#FDFEFF;" cx="372.92" cy="116.72" r="11.872"/>
	<circle style="fill:#FDFEFF;" cx="314.44" cy="116.72" r="11.872"/>
	<circle style="fill:#FDFEFF;" cx="256" cy="116.72" r="11.872"/>
	<circle style="fill:#FDFEFF;" cx="197.56" cy="116.72" r="11.872"/>
	<circle style="fill:#FDFEFF;" cx="139.084" cy="116.72" r="11.872"/>
	<circle style="fill:#FDFEFF;" cx="80.64" cy="116.72" r="11.872"/>
</g>
<g>
	<path style="fill:#D2D2D4;" d="M431.064,122.056c-14.532,0-26.352-15.86-26.352-35.352s11.82-35.352,26.352-35.352
		c2.636,0,4.772,2.136,4.772,4.772s-2.136,4.768-4.772,4.768c-9.112,0-16.812,11.82-16.812,25.812s7.696,25.812,16.812,25.812
		c2.636,0,4.772,2.136,4.772,4.772C435.836,119.92,433.7,122.056,431.064,122.056z"/>
	<path style="fill:#D2D2D4;" d="M372.916,122.056c-14.532,0-26.352-15.86-26.352-35.352s11.82-35.352,26.352-35.352
		c2.636,0,4.772,2.136,4.772,4.772s-2.136,4.768-4.772,4.768c-9.112,0-16.812,11.82-16.812,25.812s7.696,25.812,16.812,25.812
		c2.636,0,4.772,2.136,4.772,4.772C377.684,119.92,375.548,122.056,372.916,122.056z"/>
	<path style="fill:#D2D2D4;" d="M314.456,122.056c-14.528,0-26.348-15.86-26.348-35.352s11.82-35.352,26.348-35.352
		c2.636,0,4.772,2.136,4.772,4.772s-2.136,4.768-4.772,4.768c-9.112,0-16.808,11.82-16.808,25.812s7.696,25.812,16.808,25.812
		c2.636,0,4.772,2.136,4.772,4.772C319.228,119.92,317.092,122.056,314.456,122.056z"/>
	<path style="fill:#D2D2D4;" d="M256,122.056c-14.532,0-26.352-15.86-26.352-35.352S241.468,51.352,256,51.352
		c2.636,0,4.772,2.136,4.772,4.772s-2.136,4.764-4.772,4.764c-9.112,0-16.812,11.82-16.812,25.812s7.696,25.812,16.812,25.812
		c2.636,0,4.772,2.136,4.772,4.772S258.636,122.056,256,122.056z"/>
	<path style="fill:#D2D2D4;" d="M197.544,122.056c-14.528,0-26.348-15.86-26.348-35.352s11.82-35.352,26.348-35.352
		c2.636,0,4.768,2.136,4.768,4.772s-2.136,4.768-4.768,4.768c-9.112,0-16.808,11.82-16.808,25.812s7.696,25.812,16.808,25.812
		c2.636,0,4.768,2.136,4.768,4.772C202.312,119.92,200.176,122.056,197.544,122.056z"/>
	<path style="fill:#D2D2D4;" d="M139.084,122.056c-14.532,0-26.352-15.86-26.352-35.352s11.82-35.352,26.352-35.352
		c2.636,0,4.772,2.136,4.772,4.772s-2.136,4.768-4.772,4.768c-9.112,0-16.812,11.82-16.812,25.812s7.696,25.812,16.812,25.812
		c2.636,0,4.772,2.136,4.772,4.772C143.856,119.92,141.72,122.056,139.084,122.056z"/>
	<path style="fill:#D2D2D4;" d="M80.628,122.056c-14.528,0-26.348-15.86-26.348-35.352S66.1,51.352,80.628,51.352
		c2.636,0,4.768,2.136,4.768,4.772s-2.136,4.768-4.768,4.768c-9.112,0-16.808,11.82-16.808,25.812s7.696,25.812,16.808,25.812
		c2.636,0,4.768,2.136,4.768,4.772C85.396,119.92,83.26,122.056,80.628,122.056z"/>
</g>
<g>
</g>
<g>
</g>
<g>
</g>
<g>
</g>
<g>
</g>
<g>
</g>
<g>
</g>
<g>
</g>
<g>
</g>
<g>
</g>
<g>
</g>
<g>
</g>
<g>
</g>
<g>
</g>
<g>
</g>
</svg>
