<?xml version="1.0" encoding="iso-8859-1"?>
<!-- Generator: Adobe Illustrator 19.0.0, SVG Export Plug-In . SVG Version: 6.00 Build 0)  -->
<svg version="1.1" id="Capa_1" xmlns="http://www.w3.org/2000/svg" xmlns:xlink="http://www.w3.org/1999/xlink" x="0px" y="0px"
	 viewBox="0 0 512 512" style="enable-background:new 0 0 512 512;" xml:space="preserve">
<circle style="fill:#70B1E1;" cx="256" cy="256" r="256"/>
<g>
	<polygon style="fill:#353944;" points="177.428,444.104 127.416,444.104 127.416,475.8 157.428,475.8 	"/>
	<polygon style="fill:#353944;" points="408.468,444.104 358.456,444.104 378.456,475.8 408.468,475.8 	"/>
</g>
<rect x="67.896" y="36.2" style="fill:#4D535F;" width="400.08" height="411.96"/>
<rect x="104.68" y="75.448" style="fill:#353944;" width="322.32" height="333.48"/>
<rect x="44" y="75.448" style="fill:#656D7A;" width="47.768" height="333.48"/>
<g>
	<circle style="fill:#D2D2D4;" cx="67.896" cy="135.336" r="14.688"/>
	<circle style="fill:#D2D2D4;" cx="67.896" cy="206.572" r="14.688"/>
	<circle style="fill:#D2D2D4;" cx="67.896" cy="277.8" r="14.688"/>
	<circle style="fill:#D2D2D4;" cx="67.896" cy="349.04" r="14.688"/>
</g>
<path style="fill:#F5EA07;" d="M382.66,335.804c0,63.176-52.276,73.12-116.824,73.12c-64.52,0-116.824-9.944-116.824-73.12
	c0-51.94,35.388-116.644,83.816-138.056c-26.764-24.584,31.208,28.148-35.18-32.132c-5.916-5.424-3.616-15.032,4.184-17.356
	c3.952-1.188,8.16-2.016,12.604-2.48c2.376-0.284,4.832-0.44,7.336-0.492c-2.396-6.392-0.312-11.116,3.9-13.688
	c24.692-14.98,49.98-14.284,75.728,0.18c4.168,2.328,6.768,7.204,4.312,13.508c7.176,0.172,14.276,1.132,21.256,3.384
	c7.284,2.352,9.324,11.572,3.976,16.944c-33.012,32.784-32.236,32.08-32.236,32.08C347.196,219.032,382.66,283.812,382.66,335.804z"
	/>
<g>
	<path style="fill:#E8BB20;" d="M256.832,200.032c-2.092,30.176-22.792,62.692-47.816,85.804
		c26.768-21.548,50.472-53.612,54.728-85.356c-0.168-0.148-0.324-0.328-0.488-0.48C260.944,200.296,259.16,200.312,256.832,200.032z
		"/>
	<path style="fill:#E8BB20;" d="M278.216,200.016c-2.264,0.264-4.02,0.244-6.172-0.02c-0.376,0.184-0.74,0.436-1.116,0.604
		c-7.132,31.472,3.148,68.784,19.108,97.488C276.336,269.008,268.092,229.92,278.216,200.016z"/>
	<path style="fill:#E8BB20;" d="M245.588,201.64c-1.592-0.416-3.084-0.964-4.464-1.64c-0.848,0.464-1.684,0.988-2.54,1.372
		c-6.872,30.372,2.356,67.332,19.108,97.488C242.612,266.788,236.68,229.304,245.588,201.64z"/>
	<path style="fill:#E8BB20;" d="M292.248,200c-1.664,0.728-3.48,1.272-5.432,1.628c3.888,30.544-9.648,65.912-27.972,92.468
		c21.54-27.124,36.552-62.304,34.728-93.076C293.116,200.72,292.696,200.324,292.248,200z"/>
	<path style="fill:#E8BB20;" d="M257.7,202.708c-15.712-15.684-34.764-36.084-43.136-56.616c-0.052-0.104-0.076-0.208-0.128-0.308
		c2.376-0.284,4.832-0.44,7.336-0.492c-0.584-1.552-1.024-2.52-1.112-4.184l0.208-0.052
		C224.764,160.54,245.06,187.988,257.7,202.708z"/>
	<path style="fill:#E8BB20;" d="M312.016,145.652c-13.856,13.856-30.372,35.964-24.124,54.628c-0.064-0.092-0.912-1.86-1.136-2.532
		c-6.272-18.84,7.76-41.732,19.964-57.288c0.08,2.028-0.356,3.16-1.008,4.828C307.86,145.344,309.976,145.472,312.016,145.652z"/>
</g>
<g>
	<path style="fill:#F1592F;" d="M304.116,201.568c-24.904,6.564-51.084,6.564-75.988,0c-4.64-1.224-2.852-8.392,1.936-7.132
		c23.636,6.22,48.48,6.22,72.112,0c1.928-0.508,3.912,0.576,4.468,2.492c0.008,0.024,0.012,0.048,0.02,0.072
		C307.236,198.964,306.092,201.048,304.116,201.568z"/>
	<ellipse style="fill:#F1592F;" cx="263.376" cy="309.36" rx="56.804" ry="67.072"/>
	<path style="fill:#F1592F;" d="M224.78,240.496c1.928,0,3.436-1.6,3.376-3.528c-0.376-12.34,0.972-24.712,4.14-36.752
		c1.152-4.384-5.416-6.036-6.536-1.776c-3.348,12.704-4.776,25.764-4.384,38.784C221.428,239.056,222.956,240.496,224.78,240.496
		L224.78,240.496z"/>
	<path style="fill:#F1592F;" d="M198.4,260.496c3.572-23.564,13.168-45.92,27.856-64.884c2.748-3.548,8.144,0.512,5.328,4.152
		c-13.932,18-23.04,39.216-26.436,61.576c-0.276,1.824-1.92,3.136-3.748,2.94c-0.024-0.004-0.044-0.004-0.068-0.008
		C199.46,264.076,198.116,262.368,198.4,260.496z"/>
</g>
<path style="fill:#F5EA07;" d="M260.968,354.148v-7.996c-10.004-1.02-18.984-5-26.944-11.936l7.996-9.528
	c6.136,5.328,12.452,8.504,18.948,9.528v-21.248c-8.252-1.968-14.292-4.564-18.124-7.776s-5.752-7.976-5.752-14.292
	c0-6.316,2.212-11.48,6.628-15.5c4.416-4.016,10.168-6.204,17.252-6.568v-5.476h7.008v5.584c8.032,0.588,15.624,3.324,22.78,8.216
	l-7.12,10.076c-4.816-3.432-10.04-5.548-15.66-6.356v20.588h0.328c8.396,1.976,14.564,4.64,18.508,7.996
	c3.944,3.36,5.912,8.236,5.912,14.62c0,6.392-2.264,11.596-6.792,15.608c-4.528,4.02-10.512,6.208-17.96,6.572v7.884h-7.008V354.148
	z M253.244,283.456c-1.86,1.64-2.788,3.684-2.788,6.132s0.728,4.38,2.188,5.804c1.46,1.428,4.232,2.796,8.324,4.108v-18.948
	C257.684,280.844,255.108,281.812,253.244,283.456z M276.304,331.476c2.04-1.676,3.064-3.792,3.064-6.352
	c0-2.552-0.808-4.58-2.412-6.08c-1.604-1.496-4.6-2.9-8.98-4.216v19.712C271.48,334.18,274.256,333.156,276.304,331.476z"/>
<g>
</g>
<g>
</g>
<g>
</g>
<g>
</g>
<g>
</g>
<g>
</g>
<g>
</g>
<g>
</g>
<g>
</g>
<g>
</g>
<g>
</g>
<g>
</g>
<g>
</g>
<g>
</g>
<g>
</g>
</svg>
