<?xml version="1.0" encoding="iso-8859-1"?>
<!-- Generator: Adobe Illustrator 19.0.0, SVG Export Plug-In . SVG Version: 6.00 Build 0)  -->
<svg version="1.1" id="Capa_1" xmlns="http://www.w3.org/2000/svg" xmlns:xlink="http://www.w3.org/1999/xlink" x="0px" y="0px"
	 viewBox="0 0 512 512" style="enable-background:new 0 0 512 512;" xml:space="preserve">
<circle style="fill:#F1592F;" cx="256" cy="256" r="256"/>
<polygon style="fill:#5F87C4;" points="148.244,205.22 148.244,101.552 6.972,101.552 41.604,153.388 6.972,205.22 "/>
<polygon style="fill:#4D5BA5;" points="78.36,153.388 148.244,101.552 148.244,205.22 78.36,205.22 "/>
<polygon style="fill:#5F87C4;" points="363.756,205.22 363.756,101.552 505.028,101.552 470.396,153.388 505.028,205.22 "/>
<polygon style="fill:#4D5BA5;" points="433.64,153.388 363.756,101.552 363.756,205.22 433.64,205.22 "/>
<polygon style="fill:#70B1E1;" points="433.64,334.26 256,446.812 78.36,334.26 78.36,153.388 433.64,153.388 "/>
<g>
	<path style="fill:#FDFEFF;" d="M145.464,221.436l12.044-1.172c0.724,4.044,2.196,7.012,4.412,8.908
		c2.216,1.896,5.208,2.844,8.972,2.844c3.988,0,6.992-0.844,9.012-2.532s3.032-3.66,3.032-5.916c0-1.448-0.424-2.684-1.276-3.7
		s-2.336-1.904-4.456-2.656c-1.448-0.5-4.752-1.396-9.912-2.676c-6.636-1.644-11.292-3.668-13.968-6.064
		c-3.764-3.372-5.648-7.488-5.648-12.336c0-3.124,0.884-6.044,2.656-8.76c1.772-2.72,4.32-4.788,7.652-6.212
		c3.332-1.42,7.352-2.132,12.064-2.132c7.696,0,13.488,1.688,17.376,5.06s5.932,7.876,6.128,13.508l-12.38,0.544
		c-0.528-3.152-1.664-5.416-3.408-6.796s-4.356-2.072-7.84-2.072c-3.596,0-6.412,0.74-8.448,2.216
		c-1.312,0.948-1.964,2.216-1.964,3.804c0,1.448,0.612,2.692,1.84,3.724c1.56,1.312,5.352,2.676,11.376,4.1
		c6.024,1.42,10.476,2.892,13.364,4.412s5.144,3.596,6.776,6.232s2.448,5.888,2.448,9.764c0,3.512-0.976,6.804-2.928,9.872
		s-4.712,5.348-8.28,6.836s-8.016,2.236-13.34,2.236c-7.752,0-13.704-1.792-17.86-5.376
		C148.752,233.516,146.272,228.296,145.464,221.436z"/>
	<path style="fill:#FDFEFF;" d="M261.02,241.388h-13.468L242.2,227.46h-24.508l-5.06,13.928H199.5l23.88-61.312h13.092
		L261.02,241.388z M238.224,217.128l-8.448-22.752l-8.28,22.752H238.224z"/>
	<path style="fill:#FDFEFF;" d="M267.92,241.388v-60.812h12.38v50.48h30.78v10.332H267.92z"/>
	<path style="fill:#FDFEFF;" d="M319.904,241.388v-61.312h45.46v10.372h-33.08v13.592h30.78v10.332h-30.78v16.688h34.252v10.332
		h-46.632V241.388z"/>
	<path style="fill:#FDFEFF;" d="M191.604,303.88c0-10.34,2.268-18,6.808-22.988c4.54-4.984,10.692-7.48,18.46-7.48
		c8.032,0,14.316,2.48,18.856,7.44c4.54,4.96,6.808,12.636,6.808,23.028c0,10.34-2.268,18-6.808,22.988
		c-4.54,4.984-10.692,7.48-18.46,7.48c-8.032,0-14.316-2.48-18.856-7.44C193.872,321.948,191.604,314.272,191.604,303.88z
		 M208.844,303.72c0,7.504,0.864,12.544,2.596,15.116c1.312,1.888,3.124,2.836,5.432,2.836c2.36,0,4.2-0.944,5.512-2.836
		c1.68-2.572,2.52-7.612,2.52-15.116s-0.84-12.516-2.52-15.036c-1.312-1.94-3.148-2.912-5.512-2.912
		c-2.308,0-4.12,0.944-5.432,2.836C209.708,291.176,208.844,296.216,208.844,303.72z M233.72,395.2h-16.376l61.484-121.788h15.904
		L233.72,395.2z M269.464,364.892c0-10.34,2.268-18,6.808-22.988c4.54-4.984,10.748-7.48,18.62-7.48
		c7.924,0,14.156,2.492,18.696,7.48c4.54,4.984,6.808,12.648,6.808,22.988c0,10.392-2.268,18.08-6.808,23.068
		c-4.54,4.984-10.692,7.48-18.46,7.48c-8.032,0-14.316-2.492-18.856-7.48C271.732,382.972,269.464,375.284,269.464,364.892z
		 M286.704,364.812c0,7.504,0.864,12.516,2.596,15.036c1.312,1.94,3.124,2.912,5.432,2.912c2.36,0,4.172-0.944,5.432-2.836
		c1.732-2.572,2.596-7.612,2.596-15.116s-0.84-12.544-2.52-15.116c-1.312-1.888-3.148-2.836-5.512-2.836s-4.172,0.944-5.432,2.836
		C287.568,352.268,286.704,357.308,286.704,364.812z"/>
</g>
<g>
</g>
<g>
</g>
<g>
</g>
<g>
</g>
<g>
</g>
<g>
</g>
<g>
</g>
<g>
</g>
<g>
</g>
<g>
</g>
<g>
</g>
<g>
</g>
<g>
</g>
<g>
</g>
<g>
</g>
</svg>
