<?xml version="1.0" encoding="iso-8859-1"?>
<!-- Generator: Adobe Illustrator 19.0.0, SVG Export Plug-In . SVG Version: 6.00 Build 0)  -->
<svg version="1.1" id="Capa_1" xmlns="http://www.w3.org/2000/svg" xmlns:xlink="http://www.w3.org/1999/xlink" x="0px" y="0px"
	 viewBox="0 0 511.992 511.992" style="enable-background:new 0 0 511.992 511.992;" xml:space="preserve">
<circle style="fill:#4C5BA8;" cx="255.996" cy="255.996" r="255.996"/>
<g>
	<path style="fill:#6BBE49;" d="M254.136,354.02c-4.792-87.82,93.46-137.972,97.648-140.064l7.148,9.884
		c-0.956,0.48-95.356,48.796-90.94,129.656L254.136,354.02z"/>
	<path style="fill:#6BBE49;" d="M257.856,354.02L244,353.496c4.416-80.86-89.984-129.176-90.94-129.656l7.148-9.884
		C164.396,216.048,262.648,266.2,257.856,354.02z"/>
	<rect x="249.076" y="128.116" style="fill:#6BBE49;" width="13.868" height="218.36"/>
</g>
<g>
	<path style="fill:#7EC359;" d="M172.304,283.988L172.304,283.988L172.304,283.988c0,39.932,38.7,72.292,86.424,72.292
		C258.728,316.348,220.032,283.988,172.304,283.988z"/>
	<path style="fill:#7EC359;" d="M339.688,283.988L339.688,283.988L339.688,283.988c0,39.928-38.692,72.292-86.424,72.292l0,0l0,0
		C253.264,316.352,291.956,283.988,339.688,283.988z"/>
</g>
<circle style="fill:#F5EA07;" cx="255.996" cy="112.316" r="74.52"/>
<g>
	<path style="fill:#E8BB20;" d="M255.992,176.168c-35.208,0-63.856-28.644-63.856-63.856s28.648-63.856,63.856-63.856
		s63.856,28.644,63.856,63.856S291.2,176.168,255.992,176.168z M255.992,59.72c-29,0-52.596,23.592-52.596,52.596
		s23.596,52.596,52.596,52.596s52.596-23.592,52.596-52.596S284.992,59.72,255.992,59.72z"/>
	<path style="fill:#E8BB20;" d="M253.948,150.924v-6.8c-8.508-0.868-16.148-4.252-22.916-10.152l6.8-8.104
		c5.22,4.532,10.592,7.232,16.116,8.104V115.9c-7.02-1.676-12.156-3.88-15.416-6.616c-3.26-2.732-4.892-6.784-4.892-12.156
		s1.88-9.764,5.636-13.184c3.756-3.416,8.648-5.276,14.672-5.588v-4.66h5.964v4.748c6.832,0.5,13.288,2.828,19.376,6.988
		l-6.056,8.572c-4.096-2.92-8.54-4.72-13.32-5.404v17.512h0.28c7.14,1.68,12.388,3.944,15.74,6.8
		c3.356,2.86,5.028,7.004,5.028,12.436c0,5.436-1.924,9.864-5.776,13.276c-3.852,3.42-8.94,5.28-15.276,5.592v6.704h-5.96V150.924z
		 M247.38,90.796c-1.58,1.396-2.372,3.136-2.372,5.216s0.616,3.728,1.86,4.936c1.244,1.212,3.6,2.376,7.08,3.496V88.328
		C251.152,88.576,248.964,89.4,247.38,90.796z M266.992,131.644c1.736-1.424,2.608-3.224,2.608-5.4c0-2.172-0.688-3.896-2.052-5.172
		s-3.912-2.468-7.636-3.584v16.764C262.888,133.944,265.252,133.072,266.992,131.644z"/>
</g>
<circle style="fill:#F5EA07;" cx="347.556" cy="218.196" r="57.528"/>
<g>
	<path style="fill:#E8BB20;" d="M347.556,267.488c-27.18,0-49.296-22.116-49.296-49.296s22.116-49.296,49.296-49.296
		s49.296,22.116,49.296,49.296S374.736,267.488,347.556,267.488z M347.556,177.584c-22.388,0-40.604,18.216-40.604,40.604
		s18.212,40.608,40.604,40.608s40.604-18.216,40.604-40.604S369.944,177.584,347.556,177.584z"/>
	<path style="fill:#E8BB20;" d="M345.976,248v-5.248c-6.568-0.672-12.468-3.284-17.692-7.836l5.248-6.256
		c4.028,3.5,8.176,5.584,12.444,6.256v-13.952c-5.42-1.292-9.384-2.996-11.9-5.108c-2.516-2.108-3.776-5.24-3.776-9.384
		c0-4.148,1.452-7.54,4.352-10.176s6.676-4.072,11.328-4.312v-3.596h4.604v3.668c5.272,0.388,10.26,2.184,14.96,5.396l-4.676,6.616
		c-3.164-2.252-6.592-3.644-10.284-4.172v13.52h0.212c5.512,1.296,9.564,3.048,12.152,5.248c2.588,2.208,3.884,5.408,3.884,9.6
		c0,4.196-1.488,7.616-4.46,10.248c-2.972,2.64-6.904,4.076-11.792,4.316v5.176h-4.604V248z M340.904,201.58
		c-1.22,1.076-1.832,2.42-1.832,4.028s0.476,2.876,1.436,3.812c0.96,0.936,2.78,1.836,5.468,2.7v-12.444
		C343.82,199.864,342.128,200.5,340.904,201.58z M356.044,233.112c1.34-1.1,2.012-2.492,2.012-4.172
		c0-1.676-0.528-3.008-1.584-3.992c-1.052-0.984-3.02-1.904-5.896-2.768v12.944C352.88,234.888,354.7,234.216,356.044,233.112z"/>
</g>
<circle style="fill:#F5EA07;" cx="164.436" cy="218.196" r="57.528"/>
<g>
	<path style="fill:#E8BB20;" d="M164.432,267.488c-27.18,0-49.296-22.116-49.296-49.296s22.116-49.296,49.296-49.296
		s49.296,22.116,49.296,49.296S191.616,267.488,164.432,267.488z M164.432,177.584c-22.388,0-40.604,18.216-40.604,40.604
		s18.216,40.608,40.604,40.608s40.604-18.216,40.604-40.604S186.824,177.584,164.432,177.584z"/>
	<path style="fill:#E8BB20;" d="M162.852,248v-5.248c-6.568-0.672-12.468-3.284-17.692-7.836l5.248-6.256
		c4.028,3.5,8.176,5.584,12.444,6.256v-13.952c-5.42-1.292-9.384-2.996-11.9-5.108c-2.516-2.108-3.776-5.24-3.776-9.384
		c0-4.148,1.452-7.54,4.352-10.176c2.9-2.636,6.676-4.072,11.328-4.312v-3.596h4.604v3.668c5.272,0.388,10.26,2.184,14.96,5.396
		l-4.676,6.616c-3.164-2.252-6.592-3.644-10.284-4.172v13.52h0.216c5.512,1.296,9.564,3.048,12.152,5.248
		c2.588,2.208,3.884,5.408,3.884,9.6c0,4.196-1.488,7.616-4.46,10.248c-2.972,2.64-6.904,4.076-11.792,4.316v5.176h-4.608V248z
		 M157.784,201.58c-1.22,1.076-1.832,2.42-1.832,4.028s0.476,2.876,1.436,3.812c0.96,0.936,2.78,1.836,5.468,2.7v-12.444
		C160.696,199.864,159.004,200.5,157.784,201.58z M172.924,233.112c1.34-1.1,2.012-2.492,2.012-4.172
		c0-1.676-0.528-3.008-1.584-3.992s-3.02-1.904-5.896-2.768v12.944C169.756,234.888,171.58,234.216,172.924,233.112z"/>
</g>
<polygon style="fill:#F1592F;" points="301.864,469.664 210.128,469.664 189.388,346.484 322.604,346.484 "/>
<rect x="182.712" y="335.436" style="fill:#E34E30;" width="146.572" height="22.112"/>
<g>
</g>
<g>
</g>
<g>
</g>
<g>
</g>
<g>
</g>
<g>
</g>
<g>
</g>
<g>
</g>
<g>
</g>
<g>
</g>
<g>
</g>
<g>
</g>
<g>
</g>
<g>
</g>
<g>
</g>
</svg>
