<?xml version="1.0" encoding="iso-8859-1"?>
<!-- Generator: Adobe Illustrator 19.0.0, SVG Export Plug-In . SVG Version: 6.00 Build 0)  -->
<svg version="1.1" id="Capa_1" xmlns="http://www.w3.org/2000/svg" xmlns:xlink="http://www.w3.org/1999/xlink" x="0px" y="0px"
	 viewBox="0 0 512 512" style="enable-background:new 0 0 512 512;" xml:space="preserve">
<circle style="fill:#4C5BA8;" cx="256" cy="256" r="256"/>
<rect x="81.436" y="31.664" style="fill:#FDFEFF;" width="349.12" height="448.68"/>
<rect x="115.052" y="68.996" style="fill:#70B1E1;" width="111.04" height="122.264"/>
<path style="fill:#E8E7E8;" d="M188.832,154.936c-1.044,2.496-1.512,5.028-2.064,7.736c-0.7,3.416-3.312,6.136-4.428,9.42
	c-2.132,6.252-1.22,12.792-0.196,19.168H161c0.168-2.056-0.876-4.044-3.568-4.472c-0.364-0.044-0.728-0.108-1.088-0.176
	c0.24-0.14,0.24-0.604-0.008-1.416c0.052-1.86-0.196-3.664-0.576-5.48c-0.728-3.416,0.08-6.508-1.46-9.8
	c-1.204-2.576-3.576-2.992-5.596-2.16v-10.64c0.984-0.532,1.86-1.036,2.604-1.504c0.488-0.3,0.904-0.584,1.264-0.86
	c0.336-0.256,0.656-0.524,0.948-0.804c1.168-1.072,1.992-2.268,2.568-3.488c2.176-4.632,0.672-9.528,0.672-9.528h27.632
	c0,0-1.416,4.584,0.488,9.092c0.388,0.928,0.92,1.852,1.636,2.736c0.568,0.7,1.248,1.372,2.064,1.992
	C188.656,154.812,188.752,154.876,188.832,154.936z"/>
<path style="fill:#F0B97C;" d="M182.508,162.612c1.172-1.256,2.936-1.656,4.54-1.304c0.448-2.2,0.92-4.296,1.788-6.372
	c-0.084-0.06-0.18-0.124-0.26-0.184c-0.816-0.62-1.496-1.292-2.064-1.992c-0.716-0.884-1.248-1.808-1.636-2.736
	c-1.904-4.508-0.488-9.092-0.488-9.092h-27.632c0,0,1.504,4.896-0.672,9.528c-0.576,1.22-1.4,2.416-2.568,3.488
	c-0.292,0.284-0.612,0.548-0.948,0.804c-0.364,0.276-0.78,0.556-1.264,0.86c-0.74,0.468-1.62,0.976-2.6,1.508v4.72
	c0.792-1.224,1.94-2.372,3.484-3.428c2.68-1.832,5.268-0.52,6.488,1.68c2.488-1.276,5.748-0.756,6.536,2.484
	c0.54-0.06,1.12-0.036,1.74,0.1c1.348,0.296,3.48,1.796,4.828,1.428c4.12-1.128,7.584-3.952,10.54-1.268
	C182.384,162.756,182.44,162.68,182.508,162.612z"/>
<g>
	<path style="fill:#4D535F;" d="M158.372,185.804c-0.004-0.988-0.188-3.852-0.032-4.732c-0.256-0.736-0.36-2.78-0.372-3.568h-1.292
		v-3.336c-1.28-1.248-1.52-2.508-1.5-4.1c-1.352-1.456-1.936-3.036-1.956-4.752c-0.904-1.016-1.672-3.376-1.856-4.52
		c-0.8-1.252-0.996-3.236-0.844-4.708c-1.236,0.74-2.736,1.548-4.444,2.388c-5.78,2.896-13.712,6.252-20.06,8.828
		c-6.4,2.604-10.58,8.808-10.58,15.716v8.244h46.332v-0.776C159.812,189.824,158.388,187.956,158.372,185.804z"/>
	<path style="fill:#4D535F;" d="M182.884,181.928c0-0.292-0.028-0.58-0.08-0.86c0.256-0.736,0.36-2.78,0.372-3.568h1.292v-3.336
		c1.28-1.248,1.52-2.508,1.5-4.1c1.352-1.456,1.936-3.036,1.956-4.752c0.956-1.072,1.68-3.412,1.856-4.52
		c0.8-1.252,0.996-3.236,0.844-4.708c5.932,3.54,18.152,8.636,24.504,11.216c6.4,2.604,10.58,8.808,10.58,15.716v8.244h-46.324
		v-0.776C183.064,189.24,182.86,185.816,182.884,181.928z"/>
</g>
<polygon style="fill:#5F87C4;" points="179.308,191.26 161.052,191.26 166.548,169.836 172.88,169.836 "/>
<path style="fill:#70B1E1;" d="M167.08,174.148c0,0-7.664-1.52-2.848-12.676l5.828-3.676l4.564,1.836l3.296,5.64
	c0,0-2.172,9.604-7.352,8.872h-3.488V174.148z"/>
<path style="fill:#F7CFA3;" d="M147.212,120.376c0,16.78,10.084,30.38,22.52,30.38s22.52-13.6,22.52-30.38l-2.564-13.992
	c0,0-5.464-4.236-6.244-5.016s-8.472-2.564-8.472-2.564l-17.2,1.116l-6.324,5.352l-2.12,7.916L147.212,120.376z"/>
<path style="fill:#656D7A;" d="M149.552,120.656l2.676-6.576v-3.792c0,0,2.34-7.916,8.584-5.796c0,0,6.468,4.52,19.844-0.36
	c0,0,8.248,1.14,7.136,6.828c0,0-0.78,8.696,2.34,9.7l1.48,5.352l2.644-2.452c0,0,3.012-14.268-8.696-25.752
	c0,0-1.672-4.236-5.684-3.12c0,0-2.34-8.14-17.836-1.448s-14.828,18.728-14.828,18.728l-0.78,12.152l2.676,0.224L149.552,120.656z"
	/>
<g>
	
		<ellipse transform="matrix(-0.3531 -0.9356 0.9356 -0.3531 82.6774 310.0165)" style="fill:#F7CFA3;" cx="148.518" cy="126.425" rx="7.708" ry="3.568"/>
	
		<ellipse transform="matrix(-0.3531 0.9356 -0.9356 -0.3531 377.5031 -8.2355)" style="fill:#F7CFA3;" cx="191.599" cy="126.393" rx="7.708" ry="3.568"/>
</g>
<g>
	<path style="fill:#FDFEFF;" d="M170.064,157.796l-8.872,12.924l-9.888-15.112c0.488-0.3,0.904-0.584,1.264-0.86
		c1.692-1.284,2.796-2.772,3.516-4.292L170.064,157.796z"/>
	<path style="fill:#FDFEFF;" d="M189.136,155.148l-10.192,15.572l-8.88-12.924l14.812-7.772c0.7,1.664,1.852,3.32,3.7,4.728
		C188.744,154.884,188.932,155.016,189.136,155.148z"/>
</g>
<g>
	<path style="fill:#656D7A;" d="M165.38,191.26h-11.272l-7.5-14.068l7.224-5.576l-8.748,0.884l0.984-14.024
		c2.08-1.028,3.876-2.008,5.232-2.868c0.488-0.3,0.904-0.584,1.264-0.86c0.336-0.256,0.656-0.524,0.948-0.804L165.38,191.26z"/>
	<path style="fill:#656D7A;" d="M185.824,171.616l7.224,5.576l-7.5,14.068H174.28l12.236-38.504c0.568,0.7,1.248,1.372,2.064,1.992
		c0.168,0.132,0.356,0.264,0.556,0.4c1.096,0.752,2.612,1.62,4.4,2.548l1.036,14.804L185.824,171.616z"/>
</g>
<g>
	<rect x="256.28" y="83.288" style="fill:#D2D2D4;" width="140.64" height="12.964"/>
	<rect x="256.28" y="123.644" style="fill:#D2D2D4;" width="140.64" height="12.964"/>
	<rect x="256.28" y="164" style="fill:#D2D2D4;" width="140.64" height="12.964"/>
	<rect x="115.052" y="213.2" style="fill:#D2D2D4;" width="281.88" height="12.08"/>
	<rect x="115.052" y="256.76" style="fill:#D2D2D4;" width="281.88" height="12.08"/>
	<rect x="115.052" y="300.28" style="fill:#D2D2D4;" width="281.88" height="12.08"/>
	<rect x="115.052" y="343.824" style="fill:#D2D2D4;" width="281.88" height="12.08"/>
	<rect x="115.052" y="387.36" style="fill:#D2D2D4;" width="281.88" height="12.08"/>
	<rect x="115.052" y="430.92" style="fill:#D2D2D4;" width="281.88" height="12.08"/>
</g>
<g>
</g>
<g>
</g>
<g>
</g>
<g>
</g>
<g>
</g>
<g>
</g>
<g>
</g>
<g>
</g>
<g>
</g>
<g>
</g>
<g>
</g>
<g>
</g>
<g>
</g>
<g>
</g>
<g>
</g>
</svg>
