<?xml version="1.0" encoding="iso-8859-1"?>
<!-- Generator: Adobe Illustrator 19.0.0, SVG Export Plug-In . SVG Version: 6.00 Build 0)  -->
<svg version="1.1" id="Capa_1" xmlns="http://www.w3.org/2000/svg" xmlns:xlink="http://www.w3.org/1999/xlink" x="0px" y="0px"
	 viewBox="0 0 512 512" style="enable-background:new 0 0 512 512;" xml:space="preserve">
<circle style="fill:#4C5BA8;" cx="256" cy="256" r="256"/>
<path style="fill:#FDFEFF;" d="M450.78,129.628H61.22c-7.492,0-13.568,6.076-13.568,13.568v323.576
	c0,7.492,6.076,13.568,13.568,13.568h389.56c7.492,0,13.568-6.076,13.568-13.568V143.196
	C464.348,135.704,458.272,129.628,450.78,129.628z"/>
<rect x="68.24" y="268.4" style="fill:#4D535F;" width="189.76" height="189.76"/>
<g>
	<path style="fill:#353944;" d="M121.024,288.932h-25.86c-3.516,0-6.364,2.852-6.364,6.364v25.86c0,3.516,2.848,6.364,6.364,6.364
		h25.86c3.516,0,6.364-2.852,6.364-6.364v-25.86C127.392,291.78,124.54,288.932,121.024,288.932z"/>
	<path style="fill:#353944;" d="M180.056,288.932h-25.86c-3.516,0-6.364,2.852-6.364,6.364v25.86c0,3.516,2.852,6.364,6.364,6.364
		h25.86c3.516,0,6.364-2.852,6.364-6.364v-25.86C186.42,291.78,183.572,288.932,180.056,288.932z"/>
	<path style="fill:#353944;" d="M239.084,288.932h-25.86c-3.516,0-6.364,2.852-6.364,6.364v25.86c0,3.516,2.852,6.364,6.364,6.364
		h25.86c3.516,0,6.364-2.852,6.364-6.364v-25.86C245.452,291.78,242.6,288.932,239.084,288.932z"/>
	<path style="fill:#353944;" d="M121.024,347.96h-25.86c-3.516,0-6.364,2.848-6.364,6.364v25.86c0,3.516,2.848,6.364,6.364,6.364
		h25.86c3.516,0,6.364-2.848,6.364-6.364v-25.86C127.392,350.812,124.54,347.96,121.024,347.96z"/>
	<path style="fill:#353944;" d="M121.024,406.992h-25.86c-3.516,0-6.364,2.848-6.364,6.364v25.86c0,3.516,2.848,6.364,6.364,6.364
		h25.86c3.516,0,6.364-2.848,6.364-6.364v-25.86C127.392,409.84,124.54,406.992,121.024,406.992z"/>
	<path style="fill:#353944;" d="M180.056,347.96h-25.86c-3.516,0-6.364,2.848-6.364,6.364v25.86c0,3.516,2.852,6.364,6.364,6.364
		h25.86c3.516,0,6.364-2.848,6.364-6.364v-25.86C186.42,350.812,183.572,347.96,180.056,347.96z"/>
	<path style="fill:#353944;" d="M180.056,406.992h-25.86c-3.516,0-6.364,2.848-6.364,6.364v25.86c0,3.516,2.852,6.364,6.364,6.364
		h25.86c3.516,0,6.364-2.848,6.364-6.364v-25.86C186.42,409.84,183.572,406.992,180.056,406.992z"/>
	<path style="fill:#353944;" d="M239.084,347.96h-25.86c-3.516,0-6.364,2.848-6.364,6.364v25.86c0,3.516,2.852,6.364,6.364,6.364
		h25.86c3.516,0,6.364-2.848,6.364-6.364v-25.86C245.452,350.812,242.6,347.96,239.084,347.96z"/>
	<path style="fill:#353944;" d="M239.084,406.992h-25.86c-3.516,0-6.364,2.848-6.364,6.364v25.86c0,3.516,2.852,6.364,6.364,6.364
		h25.86c3.516,0,6.364-2.848,6.364-6.364v-25.86C245.452,409.84,242.6,406.992,239.084,406.992z"/>
</g>
<g>
	<path style="fill:#656D7A;" d="M117.024,284.932h-25.86c-3.516,0-6.364,2.852-6.364,6.364v25.86c0,3.516,2.848,6.364,6.364,6.364
		h25.86c3.516,0,6.364-2.852,6.364-6.364v-25.86C123.392,287.78,120.54,284.932,117.024,284.932z"/>
	<path style="fill:#656D7A;" d="M176.056,284.932h-25.86c-3.516,0-6.364,2.852-6.364,6.364v25.86c0,3.516,2.852,6.364,6.364,6.364
		h25.86c3.516,0,6.364-2.852,6.364-6.364v-25.86C182.42,287.78,179.572,284.932,176.056,284.932z"/>
	<path style="fill:#656D7A;" d="M235.084,284.932h-25.86c-3.516,0-6.364,2.852-6.364,6.364v25.86c0,3.516,2.852,6.364,6.364,6.364
		h25.86c3.516,0,6.364-2.852,6.364-6.364v-25.86C241.452,287.78,238.6,284.932,235.084,284.932z"/>
	<path style="fill:#656D7A;" d="M117.024,343.96h-25.86c-3.516,0-6.364,2.848-6.364,6.364v25.86c0,3.516,2.848,6.364,6.364,6.364
		h25.86c3.516,0,6.364-2.848,6.364-6.364v-25.86C123.392,346.812,120.54,343.96,117.024,343.96z"/>
	<path style="fill:#656D7A;" d="M117.024,402.992h-25.86c-3.516,0-6.364,2.848-6.364,6.364v25.86c0,3.516,2.848,6.364,6.364,6.364
		h25.86c3.516,0,6.364-2.848,6.364-6.364v-25.86C123.392,405.84,120.54,402.992,117.024,402.992z"/>
	<path style="fill:#656D7A;" d="M176.056,343.96h-25.86c-3.516,0-6.364,2.848-6.364,6.364v25.86c0,3.516,2.852,6.364,6.364,6.364
		h25.86c3.516,0,6.364-2.848,6.364-6.364v-25.86C182.42,346.812,179.572,343.96,176.056,343.96z"/>
	<path style="fill:#656D7A;" d="M176.056,402.992h-25.86c-3.516,0-6.364,2.848-6.364,6.364v25.86c0,3.516,2.852,6.364,6.364,6.364
		h25.86c3.516,0,6.364-2.848,6.364-6.364v-25.86C182.42,405.84,179.572,402.992,176.056,402.992z"/>
	<path style="fill:#656D7A;" d="M235.084,343.96h-25.86c-3.516,0-6.364,2.848-6.364,6.364v25.86c0,3.516,2.852,6.364,6.364,6.364
		h25.86c3.516,0,6.364-2.848,6.364-6.364v-25.86C241.452,346.812,238.6,343.96,235.084,343.96z"/>
	<path style="fill:#656D7A;" d="M235.084,402.992h-25.86c-3.516,0-6.364,2.848-6.364,6.364v25.86c0,3.516,2.852,6.364,6.364,6.364
		h25.86c3.516,0,6.364-2.848,6.364-6.364v-25.86C241.452,405.84,238.6,402.992,235.084,402.992z"/>
</g>
<g>
	<path style="fill:#FDFEFF;" d="M99.056,409.84h10.076v24.892h-5.344v-20.156h-4.736v-4.736H99.056z"/>
	<path style="fill:#FDFEFF;" d="M165.012,419.828c0.628-0.888,0.944-1.752,0.944-2.584c0-0.828-0.272-1.524-0.82-2.084
		c-0.548-0.556-1.248-0.836-2.1-0.836c-1.568,0-3.052,1.116-4.452,3.348l-4.452-2.636c1.164-1.804,2.44-3.168,3.828-4.096
		c1.388-0.924,3.156-1.388,5.308-1.388s4.036,0.684,5.664,2.048c1.624,1.364,2.44,3.224,2.44,5.572c0,1.28-0.328,2.508-0.98,3.688
		c-0.652,1.172-1.856,2.676-3.612,4.504l-4.488,4.664h9.828v4.984h-17.56v-4.128l7.3-7.48
		C163.332,421.912,164.384,420.72,165.012,419.828z"/>
	<path style="fill:#FDFEFF;" d="M214.64,414.436V409.7h15.24v3.844l-5.092,5.804c1.996,0.332,3.536,1.168,4.628,2.508
		c1.092,1.34,1.64,2.888,1.64,4.648c0,2.612-0.884,4.656-2.652,6.14c-1.768,1.484-4.028,2.224-6.784,2.224s-5.544-0.972-8.368-2.92
		l2.28-4.416c2.352,1.66,4.452,2.492,6.304,2.492c1.116,0,2.036-0.272,2.76-0.816c0.724-0.548,1.088-1.336,1.088-2.372
		c0-1.032-0.416-1.852-1.248-2.456s-1.984-0.908-3.456-0.908c-0.784,0-1.888,0.228-3.312,0.68v-4.096l4.772-5.624h-7.8V414.436z"/>
	<path style="fill:#FDFEFF;" d="M105.012,364.928v-4.296h5.28v4.296h2.78v4.756h-2.78v5.88h-5.28v-5.88h-9.896v-4.192l8.768-14.544
		h5.988l-8.344,13.98L105.012,364.928L105.012,364.928z"/>
	<path style="fill:#FDFEFF;" d="M170.432,350.808v4.756h-9.72v4.12c0.728-0.208,1.56-0.316,2.5-0.316
		c2.372,0,4.412,0.716,6.128,2.148c1.712,1.432,2.572,3.364,2.572,5.796c0,2.428-0.888,4.436-2.66,6.02
		c-1.772,1.584-3.964,2.376-6.568,2.376c-3.336,0-6.116-1.232-8.348-3.696l2.888-4.016c0.212,0.212,0.496,0.472,0.844,0.776
		c0.352,0.304,0.996,0.708,1.936,1.216c0.94,0.504,1.88,0.756,2.816,0.756s1.772-0.284,2.5-0.844c0.728-0.564,1.092-1.4,1.092-2.5
		c0-1.104-0.396-1.956-1.18-2.552c-0.788-0.596-1.8-0.896-3.044-0.896s-2.688,0.448-4.332,1.34l-2.288-2.464V350.82h14.864V350.808z
		"/>
	<path style="fill:#FDFEFF;" d="M223.476,355.248c-1.528,0-2.708,0.512-3.54,1.532c-0.832,1.024-1.344,2.412-1.532,4.172
		c1.528-0.984,3.144-1.48,4.86-1.48c2.3,0,4.22,0.752,5.76,2.256c1.536,1.5,2.304,3.504,2.304,6.004s-0.828,4.504-2.48,6.004
		s-3.74,2.252-6.252,2.252c-1.74,0-3.248-0.332-4.528-1.004c-1.28-0.668-2.272-1.604-2.976-2.8
		c-1.408-2.324-2.112-5.232-2.112-8.732c0-2.256,0.276-4.232,0.828-5.936s1.308-3.048,2.272-4.032
		c1.88-1.972,4.204-2.956,6.972-2.956c1.152,0,2.248,0.172,3.292,0.512s1.848,0.688,2.412,1.04c0.564,0.352,1.184,0.796,1.868,1.34
		l-2.608,3.872c-0.14-0.14-0.348-0.328-0.616-0.56c-0.268-0.236-0.804-0.54-1.604-0.916
		C225,355.432,224.228,355.248,223.476,355.248z M222.752,364.12c-1.092,0-2.008,0.324-2.748,0.968
		c-0.74,0.648-1.108,1.484-1.108,2.52c0,1.032,0.352,1.916,1.056,2.66c0.704,0.74,1.584,1.108,2.644,1.108
		c1.056,0,1.936-0.328,2.64-0.984c0.704-0.66,1.056-1.512,1.056-2.552c0-1.048-0.316-1.924-0.952-2.644
		C224.708,364.476,223.844,364.12,222.752,364.12z"/>
	<path style="fill:#FDFEFF;" d="M95.204,299.808v-7.888h17.784v4.156l-9.968,20.46h-5.988l9.508-19.9h-6.2v3.168h-5.136V299.808z"/>
	<path style="fill:#FDFEFF;" d="M157.016,293.432c1.632-1.292,3.668-1.936,6.112-1.936s4.472,0.644,6.092,1.936
		s2.428,2.884,2.428,4.772s-0.728,3.516-2.184,4.876c2.04,1.572,3.064,3.64,3.064,6.2c0,2.16-0.868,3.976-2.608,5.456
		c-1.74,1.48-4.004,2.22-6.796,2.22c-2.796,0-5.06-0.74-6.796-2.22c-1.74-1.48-2.608-3.3-2.608-5.456c0-2.56,1.02-4.624,3.064-6.2
		c-1.48-1.384-2.22-3.016-2.22-4.896C154.568,296.312,155.38,294.728,157.016,293.432z M160.448,311.552
		c0.82,0.552,1.712,0.828,2.676,0.828s1.856-0.276,2.676-0.828c0.82-0.552,1.232-1.356,1.232-2.412s-0.4-1.864-1.196-2.432
		c-0.8-0.56-1.704-0.844-2.712-0.844c-1.012,0-1.916,0.28-2.712,0.844c-0.8,0.564-1.196,1.376-1.196,2.432
		C159.216,310.196,159.624,311,160.448,311.552z M160.784,300.792c0.668,0.564,1.448,0.844,2.34,0.844s1.672-0.28,2.34-0.844
		c0.668-0.56,1.004-1.26,1.004-2.096s-0.328-1.532-0.988-2.096c-0.656-0.564-1.444-0.844-2.36-0.844s-1.704,0.28-2.36,0.844
		c-0.656,0.56-0.984,1.26-0.984,2.096C159.78,299.532,160.112,300.232,160.784,300.792z"/>
	<path style="fill:#FDFEFF;" d="M220.832,312.24c1.528,0,2.708-0.512,3.54-1.532c0.832-1.02,1.344-2.412,1.532-4.172
		c-1.5,1.008-3.124,1.512-4.86,1.512c-2.3,0-4.22-0.756-5.756-2.268c-1.54-1.516-2.308-3.516-2.308-6.004s0.828-4.492,2.484-6.004
		c1.656-1.516,3.736-2.272,6.252-2.272c1.736,0,3.244,0.336,4.524,1.004c1.28,0.672,2.284,1.604,3.012,2.8
		c1.384,2.324,2.076,5.236,2.076,8.736c0,2.252-0.276,4.232-0.828,5.932c-0.552,1.704-1.3,3.048-2.236,4.032
		c-1.924,1.972-4.26,2.956-7.008,2.956c-1.152,0-2.256-0.168-3.312-0.512c-1.056-0.34-1.856-0.68-2.396-1.02s-1.164-0.78-1.868-1.32
		l2.748-3.876c0.164,0.14,0.384,0.324,0.652,0.548s0.792,0.52,1.568,0.896C219.424,312.052,220.152,312.24,220.832,312.24z
		 M221.592,303.364c1.092,0,2-0.316,2.728-0.952c0.728-0.632,1.092-1.468,1.092-2.5s-0.352-1.924-1.056-2.676
		s-1.584-1.128-2.64-1.128s-1.92,0.336-2.588,1.004s-1.004,1.52-1.004,2.552s0.304,1.908,0.916,2.624
		C219.648,303.004,220.5,303.364,221.592,303.364z"/>
</g>
<g>
	<path style="fill:#D2D2D4;" d="M443.32,272.384H301.58c-3.832,0-6.936,3.104-6.936,6.936v39.088c0,3.832,3.104,6.936,6.936,6.936
		h141.74c3.832,0,6.936-3.104,6.936-6.936V279.32C450.256,275.488,447.152,272.384,443.32,272.384z"/>
	<path style="fill:#D2D2D4;" d="M443.32,340.776H301.58c-3.832,0-6.936,3.104-6.936,6.936V386.8c0,3.832,3.104,6.936,6.936,6.936
		h141.74c3.832,0,6.936-3.104,6.936-6.936v-39.088C450.256,343.88,447.152,340.776,443.32,340.776z"/>
	<path style="fill:#D2D2D4;" d="M443.32,409.168H301.58c-3.832,0-6.936,3.104-6.936,6.936v39.088c0,3.832,3.104,6.936,6.936,6.936
		h141.74c3.832,0,6.936-3.104,6.936-6.936v-39.088C450.256,412.276,447.152,409.168,443.32,409.168z"/>
</g>
<path style="fill:#F1592F;" d="M439.32,268.384H297.58c-3.832,0-6.936,3.104-6.936,6.936v39.088c0,3.832,3.104,6.936,6.936,6.936
	h141.74c3.832,0,6.936-3.104,6.936-6.936V275.32C446.256,271.488,443.152,268.384,439.32,268.384z"/>
<g>
	<path style="fill:#656D7A;" d="M439.32,336.776H297.58c-3.832,0-6.936,3.104-6.936,6.936V382.8c0,3.832,3.104,6.936,6.936,6.936
		h141.74c3.832,0,6.936-3.104,6.936-6.936v-39.088C446.256,339.88,443.152,336.776,439.32,336.776z"/>
	<path style="fill:#656D7A;" d="M439.32,405.168H297.58c-3.832,0-6.936,3.104-6.936,6.936v39.088c0,3.832,3.104,6.936,6.936,6.936
		h141.74c3.832,0,6.936-3.104,6.936-6.936v-39.088C446.256,408.276,443.152,405.168,439.32,405.168z"/>
</g>
<g>
	<path style="fill:#FDFEFF;" d="M368.452,445.524c-3.712,0-6.488-1.26-8.328-3.78c-1.844-2.52-2.764-5.884-2.764-10.092
		s0.92-7.572,2.764-10.092c1.84-2.516,4.616-3.78,8.328-3.78c3.708,0,6.484,1.26,8.328,3.78c1.84,2.52,2.764,5.888,2.764,10.092
		c0,4.208-0.92,7.572-2.764,10.092S372.16,445.524,368.452,445.524z M364.5,425.184c-0.844,1.636-1.268,3.796-1.268,6.484
		s0.424,4.852,1.268,6.488c0.844,1.636,2.164,2.456,3.952,2.456s3.108-0.82,3.952-2.456s1.268-3.8,1.268-6.488
		s-0.42-4.848-1.268-6.484c-0.844-1.636-2.164-2.456-3.952-2.456C366.66,422.728,365.344,423.548,364.5,425.184z"/>
	<path style="fill:#FDFEFF;" d="M366.508,287.192c0,1.544-0.548,2.844-1.648,3.908c-1.1,1.06-2.48,1.592-4.14,1.592
		c-1.664,0-3.044-0.536-4.14-1.608c-1.1-1.072-1.648-2.376-1.648-3.908s0.548-2.832,1.648-3.908c1.1-1.068,2.48-1.608,4.14-1.608
		s3.04,0.536,4.14,1.608C365.96,284.336,366.508,285.648,366.508,287.192z M381.58,280.992l-19.664,27.432h-6.752l19.7-27.432
		H381.58z M359.544,288.584c0.3,0.356,0.688,0.532,1.156,0.532c0.468,0,0.864-0.176,1.176-0.532
		c0.312-0.352,0.472-0.816,0.472-1.392s-0.16-1.052-0.472-1.432c-0.316-0.38-0.7-0.568-1.156-0.568c-0.46,0-0.844,0.188-1.156,0.568
		c-0.316,0.38-0.472,0.856-0.472,1.432S359.24,288.232,359.544,288.584z M381.972,303.244c0,1.544-0.548,2.844-1.648,3.908
		c-1.1,1.056-2.48,1.588-4.14,1.588c-1.664,0-3.044-0.536-4.14-1.608c-1.1-1.068-1.648-2.372-1.648-3.904
		c0-1.528,0.548-2.832,1.648-3.908c1.1-1.072,2.48-1.608,4.14-1.608s3.04,0.536,4.14,1.608
		C381.424,300.392,381.972,301.7,381.972,303.244z M375.004,304.636c0.3,0.356,0.688,0.532,1.156,0.532
		c0.472,0,0.864-0.176,1.18-0.532c0.312-0.352,0.472-0.816,0.472-1.392s-0.16-1.052-0.472-1.436c-0.316-0.376-0.7-0.568-1.156-0.568
		c-0.46,0-0.844,0.192-1.156,0.568c-0.316,0.38-0.472,0.86-0.472,1.436C374.552,303.816,374.704,304.284,375.004,304.636z"/>
	<path style="fill:#FDFEFF;" d="M355.212,377.128c-3.712,0-6.488-1.26-8.328-3.78c-1.844-2.52-2.764-5.884-2.764-10.092
		s0.92-7.572,2.764-10.092c1.84-2.516,4.616-3.78,8.328-3.78c3.708,0,6.484,1.26,8.328,3.78c1.84,2.52,2.764,5.888,2.764,10.092
		c0,4.208-0.92,7.572-2.764,10.092C361.696,375.872,358.92,377.128,355.212,377.128z M351.26,356.792
		c-0.844,1.636-1.268,3.796-1.268,6.484s0.424,4.852,1.268,6.488c0.844,1.636,2.164,2.456,3.952,2.456s3.108-0.82,3.952-2.456
		s1.268-3.8,1.268-6.488s-0.42-4.848-1.268-6.484c-0.844-1.636-2.164-2.456-3.952-2.456
		C353.42,354.332,352.104,355.156,351.26,356.792z"/>
	<path style="fill:#FDFEFF;" d="M381.692,377.128c-3.712,0-6.488-1.26-8.328-3.78c-1.844-2.52-2.764-5.884-2.764-10.092
		s0.92-7.572,2.764-10.092c1.84-2.516,4.616-3.78,8.328-3.78c3.708,0,6.484,1.26,8.328,3.78c1.84,2.52,2.764,5.888,2.764,10.092
		c0,4.208-0.92,7.572-2.764,10.092C388.176,375.872,385.4,377.128,381.692,377.128z M377.736,356.792
		c-0.844,1.636-1.268,3.796-1.268,6.484s0.424,4.852,1.268,6.488c0.844,1.636,2.164,2.456,3.952,2.456s3.108-0.82,3.952-2.456
		s1.268-3.8,1.268-6.488s-0.42-4.848-1.268-6.484c-0.844-1.636-2.164-2.456-3.952-2.456
		C379.9,354.332,378.584,355.156,377.736,356.792z"/>
</g>
<rect x="267.972" y="238.624" style="fill:#D2D2D4;" width="4.84" height="241.72"/>
<path style="fill:#F1592F;" d="M450.78,129.628H61.22c-7.492,0-13.568,6.076-13.568,13.568v98.376h416.696v-98.376
	C464.348,135.704,458.272,129.628,450.78,129.628z"/>
<rect x="290.64" y="155.104" style="fill:#FDFEFF;" width="155.612" height="67.06"/>
<rect x="65.744" y="199.928" style="fill:#D64331;" width="169.944" height="22.236"/>
<polygon style="fill:#FDFEFF;" points="224.596,31.66 224.596,211.048 76.832,211.048 76.832,31.66 85.84,40.668 94.408,32.044 
	102.972,40.668 111.54,32.044 120.16,40.668 128.728,32.044 137.292,40.668 145.86,32.044 154.484,40.668 163.048,32.044 
	181.268,40.668 189.836,32.044 198.456,40.668 207.024,32.044 215.592,40.668 "/>
<g>
	<rect x="88.56" y="80.36" style="fill:#D2D2D4;" width="124.28" height="7.944"/>
	<rect x="88.56" y="99.456" style="fill:#D2D2D4;" width="85.476" height="7.944"/>
	<rect x="88.56" y="135.812" style="fill:#D2D2D4;" width="124.28" height="7.944"/>
	<rect x="88.56" y="155.104" style="fill:#D2D2D4;" width="124.28" height="7.944"/>
	<rect x="88.56" y="174.396" style="fill:#D2D2D4;" width="72.36" height="7.944"/>
</g>
<rect x="267.972" y="129.628" style="fill:#D64331;" width="4.84" height="111.944"/>
<g>
</g>
<g>
</g>
<g>
</g>
<g>
</g>
<g>
</g>
<g>
</g>
<g>
</g>
<g>
</g>
<g>
</g>
<g>
</g>
<g>
</g>
<g>
</g>
<g>
</g>
<g>
</g>
<g>
</g>
</svg>
