<?xml version="1.0" encoding="iso-8859-1"?>
<!-- Generator: Adobe Illustrator 19.0.0, SVG Export Plug-In . SVG Version: 6.00 Build 0)  -->
<svg version="1.1" id="Capa_1" xmlns="http://www.w3.org/2000/svg" xmlns:xlink="http://www.w3.org/1999/xlink" x="0px" y="0px"
	 viewBox="0 0 512 512" style="enable-background:new 0 0 512 512;" xml:space="preserve">
<circle style="fill:#F1592F;" cx="256" cy="256" r="256"/>
<path style="fill:#E8BB20;" d="M494.264,407.776c0,16.088-24.164,29.132-53.968,29.132c-29.804,0-53.968-13.044-53.968-29.132
	v-11.524h107.936L494.264,407.776L494.264,407.776z"/>
<ellipse style="fill:#F5EA07;" cx="440.28" cy="396.24" rx="53.968" ry="29.132"/>
<path style="fill:#E8BB20;" d="M494.264,389.2c0,16.088-24.164,29.132-53.968,29.132c-29.804,0-53.968-13.044-53.968-29.132v-11.524
	h107.936L494.264,389.2L494.264,389.2z"/>
<ellipse style="fill:#F5EA07;" cx="440.28" cy="377.68" rx="53.968" ry="29.132"/>
<path style="fill:#E8BB20;" d="M494.264,370.624c0,16.088-24.164,29.132-53.968,29.132c-29.804,0-53.968-13.044-53.968-29.132V359.1
	h107.936L494.264,370.624L494.264,370.624z"/>
<ellipse style="fill:#F5EA07;" cx="440.28" cy="359.12" rx="53.968" ry="29.132"/>
<path style="fill:#E8BB20;" d="M494.264,352.048c0,16.088-24.164,29.132-53.968,29.132c-29.804,0-53.968-13.044-53.968-29.132
	v-11.524h107.936L494.264,352.048L494.264,352.048z"/>
<ellipse style="fill:#F5EA07;" cx="440.28" cy="340.52" rx="53.968" ry="29.132"/>
<path style="fill:#E8BB20;" d="M494.264,333.472c0,16.088-24.164,29.132-53.968,29.132c-29.804,0-53.968-13.044-53.968-29.132
	v-11.524h107.936L494.264,333.472L494.264,333.472z"/>
<ellipse style="fill:#F5EA07;" cx="440.28" cy="321.96" rx="53.968" ry="29.132"/>
<path style="fill:#E8BB20;" d="M494.264,314.896c0,16.088-24.164,29.132-53.968,29.132c-29.804,0-53.968-13.044-53.968-29.132
	v-11.524h107.936L494.264,314.896L494.264,314.896z"/>
<ellipse style="fill:#F5EA07;" cx="440.28" cy="303.372" rx="53.968" ry="29.132"/>
<path style="fill:#E8BB20;" d="M494.264,296.32c0,16.088-24.164,29.132-53.968,29.132c-29.804,0-53.968-13.044-53.968-29.132
	v-11.524h107.936L494.264,296.32L494.264,296.32z"/>
<ellipse style="fill:#F5EA07;" cx="440.28" cy="284.8" rx="53.968" ry="29.132"/>
<path style="fill:#E8BB20;" d="M494.264,277.748c0,16.088-24.164,29.132-53.968,29.132c-29.804,0-53.968-13.044-53.968-29.132
	v-11.524h107.936L494.264,277.748L494.264,277.748z"/>
<ellipse style="fill:#F5EA07;" cx="440.28" cy="266.24" rx="53.968" ry="29.132"/>
<path style="fill:#E8BB20;" d="M494.264,259.172c0,16.088-24.164,29.132-53.968,29.132c-29.804,0-53.968-13.044-53.968-29.132
	v-11.524h107.936L494.264,259.172L494.264,259.172z"/>
<ellipse style="fill:#F5EA07;" cx="440.28" cy="247.644" rx="53.968" ry="29.132"/>
<path style="fill:#E8BB20;" d="M494.264,240.596c0,16.088-24.164,29.132-53.968,29.132c-29.804,0-53.968-13.044-53.968-29.132
	v-11.524h107.936L494.264,240.596L494.264,240.596z"/>
<ellipse style="fill:#F5EA07;" cx="440.28" cy="229.08" rx="53.968" ry="29.132"/>
<path style="fill:#E8BB20;" d="M494.264,222.02c0,16.088-24.164,29.132-53.968,29.132c-29.804,0-53.968-13.044-53.968-29.132
	v-11.524h107.936L494.264,222.02L494.264,222.02z"/>
<ellipse style="fill:#F5EA07;" cx="440.28" cy="210.496" rx="53.968" ry="29.132"/>
<path style="fill:#E8BB20;" d="M494.264,203.444c0,16.088-24.164,29.132-53.968,29.132c-29.804,0-53.968-13.044-53.968-29.132
	V191.92h107.936L494.264,203.444L494.264,203.444z"/>
<ellipse style="fill:#F5EA07;" cx="440.28" cy="191.92" rx="53.968" ry="29.132"/>
<g>
	<path style="fill:#E8BB20;" d="M440.296,214.98c-25.496,0-46.244-10.344-46.244-23.064s20.748-23.064,46.244-23.064
		s46.244,10.344,46.244,23.064S465.792,214.98,440.296,214.98z M440.296,172.924c-21.004,0-38.092,8.52-38.092,18.996
		s17.088,18.996,38.092,18.996s38.092-8.52,38.092-18.996C478.384,181.444,461.296,172.924,440.296,172.924z"/>
	<path style="fill:#E8BB20;" d="M438.812,205.864v-2.456c-6.164-0.312-11.696-1.536-16.596-3.668l4.924-2.928
		c3.78,1.636,7.668,2.612,11.672,2.928v-6.528c-5.084-0.604-8.804-1.4-11.164-2.388c-2.36-0.988-3.544-2.452-3.544-4.392
		s1.36-3.528,4.084-4.76c2.72-1.232,6.264-1.904,10.628-2.016v-1.684h4.32v1.716c4.948,0.18,9.624,1.02,14.032,2.524l-4.388,3.096
		c-2.968-1.056-6.184-1.704-9.648-1.952v6.324h0.204c5.172,0.608,8.972,1.424,11.4,2.456c2.428,1.032,3.644,2.528,3.644,4.492
		s-1.396,3.564-4.184,4.796c-2.788,1.236-6.476,1.908-11.064,2.02v2.42L438.812,205.864L438.812,205.864z M434.056,184.148
		c-1.144,0.504-1.72,1.132-1.72,1.884s0.448,1.344,1.348,1.784s2.608,0.86,5.128,1.264v-5.82
		C436.788,183.344,435.204,183.644,434.056,184.148z M448.26,198.9c1.256-0.516,1.888-1.164,1.888-1.952
		c0-0.784-0.496-1.408-1.484-1.868s-2.832-0.892-5.532-1.296v6.056C445.288,199.732,447,199.416,448.26,198.9z"/>
	<path style="fill:#E8BB20;" d="M248.536,407.776c0,16.088-24.164,29.132-53.968,29.132S140.6,423.864,140.6,407.776v-11.524
		h107.936L248.536,407.776L248.536,407.776z"/>
</g>
<ellipse style="fill:#F5EA07;" cx="194.568" cy="396.24" rx="53.968" ry="29.132"/>
<path style="fill:#E8BB20;" d="M248.536,389.2c0,16.088-24.164,29.132-53.968,29.132S140.6,405.288,140.6,389.2v-11.524h107.936
	L248.536,389.2L248.536,389.2z"/>
<ellipse style="fill:#F5EA07;" cx="194.568" cy="377.68" rx="53.968" ry="29.132"/>
<path style="fill:#E8BB20;" d="M248.536,370.624c0,16.088-24.164,29.132-53.968,29.132S140.6,386.712,140.6,370.624V359.1h107.936
	L248.536,370.624L248.536,370.624z"/>
<ellipse style="fill:#F5EA07;" cx="194.568" cy="359.12" rx="53.968" ry="29.132"/>
<path style="fill:#E8BB20;" d="M248.536,352.048c0,16.088-24.164,29.132-53.968,29.132S140.6,368.136,140.6,352.048v-11.524h107.936
	L248.536,352.048L248.536,352.048z"/>
<ellipse style="fill:#F5EA07;" cx="194.568" cy="340.52" rx="53.968" ry="29.132"/>
<path style="fill:#E8BB20;" d="M248.536,333.472c0,16.088-24.164,29.132-53.968,29.132s-53.968-13.04-53.968-29.132v-11.524h107.936
	L248.536,333.472L248.536,333.472z"/>
<ellipse style="fill:#F5EA07;" cx="194.568" cy="321.96" rx="53.968" ry="29.132"/>
<path style="fill:#E8BB20;" d="M248.536,314.896c0,16.088-24.164,29.132-53.968,29.132s-53.968-13.04-53.968-29.132v-11.524h107.936
	L248.536,314.896L248.536,314.896z"/>
<ellipse style="fill:#F5EA07;" cx="194.568" cy="303.372" rx="53.968" ry="29.132"/>
<path style="fill:#E8BB20;" d="M248.536,296.32c0,16.088-24.164,29.132-53.968,29.132S140.6,312.412,140.6,296.32v-11.524h107.936
	L248.536,296.32L248.536,296.32z"/>
<ellipse style="fill:#F5EA07;" cx="194.568" cy="284.8" rx="53.968" ry="29.132"/>
<path style="fill:#E8BB20;" d="M248.536,277.748c0,16.088-24.164,29.132-53.968,29.132S140.6,293.836,140.6,277.748v-11.524h107.936
	L248.536,277.748L248.536,277.748z"/>
<ellipse style="fill:#F5EA07;" cx="194.568" cy="266.24" rx="53.968" ry="29.132"/>
<path style="fill:#E8BB20;" d="M248.536,259.172c0,16.088-24.164,29.132-53.968,29.132S140.6,275.26,140.6,259.172v-11.524h107.936
	L248.536,259.172L248.536,259.172z"/>
<ellipse style="fill:#F5EA07;" cx="194.568" cy="247.644" rx="53.968" ry="29.132"/>
<g>
	<path style="fill:#E8BB20;" d="M194.564,270.708c-25.496,0-46.244-10.344-46.244-23.064s20.748-23.064,46.244-23.064
		s46.244,10.344,46.244,23.064S220.064,270.708,194.564,270.708z M194.564,228.652c-21.004,0-38.092,8.52-38.092,18.996
		s17.088,18.996,38.092,18.996s38.092-8.52,38.092-18.996S215.568,228.652,194.564,228.652z"/>
	<path style="fill:#E8BB20;" d="M193.084,261.592v-2.456c-6.164-0.312-11.696-1.536-16.596-3.668l4.924-2.928
		c3.78,1.636,7.668,2.612,11.672,2.928v-6.528c-5.084-0.604-8.804-1.4-11.164-2.388s-3.544-2.452-3.544-4.392s1.36-3.528,4.084-4.76
		c2.72-1.232,6.264-1.904,10.628-2.016V233.7h4.32v1.716c4.948,0.18,9.624,1.02,14.032,2.524l-4.388,3.096
		c-2.968-1.056-6.184-1.704-9.648-1.952v6.324h0.204c5.172,0.608,8.972,1.424,11.4,2.456s3.644,2.528,3.644,4.492
		s-1.396,3.564-4.184,4.796c-2.788,1.236-6.476,1.908-11.064,2.02v2.42H193.084z M188.328,239.876
		c-1.144,0.504-1.72,1.132-1.72,1.884s0.448,1.344,1.348,1.784c0.9,0.44,2.608,0.86,5.128,1.264v-5.82
		C191.06,239.072,189.476,239.368,188.328,239.876z M202.532,254.628c1.256-0.516,1.888-1.164,1.888-1.952
		c0-0.784-0.496-1.408-1.484-1.868s-2.832-0.892-5.532-1.296v6.056C199.56,255.456,201.272,255.144,202.532,254.628z"/>
	<path style="fill:#E8BB20;" d="M371.4,407.776c0,16.088-24.164,29.132-53.968,29.132s-53.968-13.044-53.968-29.132v-11.524H371.4
		V407.776z"/>
</g>
<ellipse style="fill:#F5EA07;" cx="317.44" cy="396.24" rx="53.968" ry="29.132"/>
<path style="fill:#E8BB20;" d="M371.4,389.2c0,16.088-24.164,29.132-53.968,29.132s-53.968-13.044-53.968-29.132v-11.524H371.4
	V389.2z"/>
<ellipse style="fill:#F5EA07;" cx="317.44" cy="377.68" rx="53.968" ry="29.132"/>
<path style="fill:#E8BB20;" d="M371.4,370.624c0,16.088-24.164,29.132-53.968,29.132s-53.968-13.044-53.968-29.132V359.1H371.4
	V370.624z"/>
<ellipse style="fill:#F5EA07;" cx="317.44" cy="359.12" rx="53.968" ry="29.132"/>
<path style="fill:#E8BB20;" d="M371.4,352.048c0,16.088-24.164,29.132-53.968,29.132s-53.968-13.044-53.968-29.132v-11.524H371.4
	V352.048z"/>
<ellipse style="fill:#F5EA07;" cx="317.44" cy="340.52" rx="53.968" ry="29.132"/>
<path style="fill:#E8BB20;" d="M371.4,333.472c0,16.088-24.164,29.132-53.968,29.132s-53.968-13.044-53.968-29.132v-11.524H371.4
	V333.472z"/>
<ellipse style="fill:#F5EA07;" cx="317.44" cy="321.96" rx="53.968" ry="29.132"/>
<path style="fill:#E8BB20;" d="M371.4,314.896c0,16.088-24.164,29.132-53.968,29.132s-53.968-13.044-53.968-29.132v-11.524H371.4
	V314.896z"/>
<ellipse style="fill:#F5EA07;" cx="317.44" cy="303.372" rx="53.968" ry="29.132"/>
<g>
	<path style="fill:#E8BB20;" d="M317.432,326.436c-25.496,0-46.244-10.344-46.244-23.064c0-12.716,20.748-23.064,46.244-23.064
		s46.244,10.344,46.244,23.064C363.676,316.088,342.928,326.436,317.432,326.436z M317.432,284.376
		c-21.004,0-38.092,8.52-38.092,18.996s17.088,18.996,38.092,18.996s38.092-8.52,38.092-18.996
		C355.52,292.896,338.432,284.376,317.432,284.376z"/>
	<path style="fill:#E8BB20;" d="M315.948,317.316v-2.456c-6.164-0.312-11.696-1.536-16.596-3.668l4.924-2.928
		c3.78,1.636,7.668,2.612,11.672,2.928v-6.528c-5.084-0.604-8.804-1.4-11.164-2.388c-2.36-0.988-3.544-2.452-3.544-4.392
		s1.36-3.528,4.084-4.76c2.72-1.232,6.264-1.904,10.628-2.016v-1.684h4.32v1.716c4.948,0.18,9.624,1.02,14.032,2.524l-4.388,3.096
		c-2.968-1.056-6.184-1.704-9.648-1.952v6.324h0.204c5.172,0.608,8.972,1.424,11.4,2.456c2.428,1.032,3.644,2.528,3.644,4.492
		s-1.396,3.564-4.184,4.796c-2.788,1.236-6.476,1.908-11.064,2.02v2.42H315.948z M311.192,295.6c-1.144,0.504-1.72,1.132-1.72,1.884
		s0.448,1.344,1.348,1.784s2.608,0.86,5.128,1.264v-5.82C313.924,294.8,312.34,295.096,311.192,295.6z M325.396,310.352
		c1.256-0.516,1.888-1.164,1.888-1.952c0-0.784-0.496-1.408-1.484-1.868c-0.988-0.46-2.832-0.892-5.532-1.296v6.056
		C322.424,311.184,324.136,310.868,325.396,310.352z"/>
	<path style="fill:#E8BB20;" d="M125.672,407.776c0,16.088-24.164,29.132-53.968,29.132s-53.968-13.044-53.968-29.132v-11.524
		h107.936V407.776z"/>
</g>
<ellipse style="fill:#F5EA07;" cx="71.704" cy="396.24" rx="53.968" ry="29.132"/>
<path style="fill:#E8BB20;" d="M125.672,389.2c0,16.088-24.164,29.132-53.968,29.132S17.736,405.288,17.736,389.2v-11.524h107.936
	V389.2z"/>
<ellipse style="fill:#F5EA07;" cx="71.704" cy="377.68" rx="53.968" ry="29.132"/>
<path style="fill:#E8BB20;" d="M125.672,370.624c0,16.088-24.164,29.132-53.968,29.132s-53.968-13.044-53.968-29.132V359.1h107.936
	V370.624z"/>
<ellipse style="fill:#F5EA07;" cx="71.704" cy="359.12" rx="53.968" ry="29.132"/>
<path style="fill:#E8BB20;" d="M125.672,352.048c0,16.088-24.164,29.132-53.968,29.132s-53.968-13.044-53.968-29.132v-11.524
	h107.936V352.048z"/>
<ellipse style="fill:#F5EA07;" cx="71.704" cy="340.52" rx="53.968" ry="29.132"/>
<g>
	<path style="fill:#E8BB20;" d="M71.7,363.584c-25.496,0-46.244-10.344-46.244-23.064c0-12.716,20.748-23.064,46.244-23.064
		s46.244,10.344,46.244,23.064C117.948,353.24,97.2,363.584,71.7,363.584z M71.7,321.528c-21.004,0-38.092,8.52-38.092,18.996
		S50.696,359.52,71.7,359.52s38.092-8.52,38.092-18.996C109.792,330.048,92.704,321.528,71.7,321.528z"/>
	<path style="fill:#E8BB20;" d="M70.22,354.468v-2.456c-6.164-0.312-11.696-1.536-16.596-3.668l4.924-2.928
		c3.78,1.636,7.668,2.612,11.672,2.928v-6.528c-5.084-0.604-8.804-1.4-11.164-2.388s-3.544-2.452-3.544-4.392s1.36-3.528,4.084-4.76
		c2.72-1.232,6.264-1.904,10.628-2.016v-1.684h4.32v1.716c4.948,0.18,9.624,1.02,14.032,2.524l-4.388,3.096
		c-2.968-1.056-6.184-1.704-9.648-1.952v6.324h0.204c5.172,0.608,8.972,1.424,11.4,2.456c2.428,1.032,3.644,2.528,3.644,4.492
		s-1.396,3.564-4.184,4.796c-2.788,1.236-6.476,1.908-11.064,2.02v2.42H70.22z M65.464,332.752c-1.144,0.504-1.72,1.132-1.72,1.884
		s0.448,1.344,1.348,1.784s2.608,0.86,5.128,1.264v-5.82C68.196,331.948,66.612,332.248,65.464,332.752z M79.664,347.504
		c1.256-0.516,1.888-1.164,1.888-1.952c0-0.784-0.496-1.408-1.484-1.868c-0.988-0.46-2.832-0.892-5.532-1.296v6.056
		C76.696,348.336,78.404,348.02,79.664,347.504z"/>
</g>
<g>
	<path style="fill:#FDFEFF;" d="M460.208,110.716h-26.724c-10.028,0-10.04-15.184,0-15.184h26.724c4.192,0,7.592,3.4,7.592,7.592
		S464.4,110.716,460.208,110.716z"/>
	<path style="fill:#FDFEFF;" d="M290.52,211.5l-84.804-63.7c-8.008-6.02,1.08-18.168,9.12-12.144l84.804,63.7
		C307.628,205.36,298.576,217.536,290.52,211.5z"/>
	<path style="fill:#FDFEFF;" d="M55.472,240.16h-31.24c-4.192,0-7.592-3.4-7.592-7.592s3.4-7.592,7.592-7.592h31.24
		C65.5,224.976,65.512,240.16,55.472,240.16z"/>
	<path style="fill:#FDFEFF;" d="M86.06,213.316l84.692-75.656c7.476-6.676,17.608,4.632,10.116,11.32l-84.692,75.66
		C88.7,231.32,78.568,220.004,86.06,213.316z"/>
	<path style="fill:#FDFEFF;" d="M320.724,197.008l73.148-83.512c6.604-7.56,18.036,2.46,11.42,10l-73.144,83.516
		C325.576,214.524,314.088,204.576,320.724,197.008z"/>
	<path style="fill:#FDFEFF;" d="M413.036,131.16c-15.456,0-28.032-12.576-28.032-28.032s12.576-28.032,28.032-28.032
		s28.032,12.576,28.032,28.032S428.496,131.16,413.036,131.16z M413.036,90.28c-7.084,0-12.848,5.764-12.848,12.848
		s5.764,12.848,12.848,12.848C430.012,115.976,430.02,90.28,413.036,90.28z"/>
	<path style="fill:#FDFEFF;" d="M312.192,244.64c-15.456,0-28.032-12.576-28.032-28.032s12.576-28.028,28.032-28.028
		s28.032,12.576,28.032,28.028C340.22,232.064,327.648,244.64,312.192,244.64z M312.192,203.76c-7.084,0-12.848,5.76-12.848,12.844
		s5.764,12.848,12.848,12.848c7.084,0,12.848-5.764,12.848-12.848S319.276,203.76,312.192,203.76z"/>
	<path style="fill:#FDFEFF;" d="M192.516,159.632c-15.456,0-28.032-12.576-28.032-28.032s12.576-28.032,28.032-28.032
		s28.032,12.576,28.032,28.032S207.972,159.632,192.516,159.632z M192.516,118.748c-7.084,0-12.848,5.764-12.848,12.848
		c0,7.084,5.764,12.848,12.848,12.848c7.084,0,12.848-5.764,12.848-12.848C205.364,124.512,199.6,118.748,192.516,118.748z"/>
	<path style="fill:#FDFEFF;" d="M75.916,260.604c-15.456,0-28.032-12.576-28.032-28.032S60.46,204.54,75.916,204.54
		s28.032,12.576,28.032,28.032S91.372,260.604,75.916,260.604z M75.916,219.724c-16.976,0-16.984,25.696,0,25.696
		c7.084,0,12.848-5.764,12.848-12.848S83,219.724,75.916,219.724z"/>
</g>
<g>
</g>
<g>
</g>
<g>
</g>
<g>
</g>
<g>
</g>
<g>
</g>
<g>
</g>
<g>
</g>
<g>
</g>
<g>
</g>
<g>
</g>
<g>
</g>
<g>
</g>
<g>
</g>
<g>
</g>
</svg>
