<?xml version="1.0" encoding="iso-8859-1"?>
<!-- Generator: Adobe Illustrator 19.0.0, SVG Export Plug-In . SVG Version: 6.00 Build 0)  -->
<svg version="1.1" id="Capa_1" xmlns="http://www.w3.org/2000/svg" xmlns:xlink="http://www.w3.org/1999/xlink" x="0px" y="0px"
	 viewBox="0 0 512 512" style="enable-background:new 0 0 512 512;" xml:space="preserve">
<circle style="fill:#7EC359;" cx="256" cy="256" r="256"/>
<polygon style="fill:#656D7A;" points="334.916,461.316 310.132,396.844 198.976,396.844 175.544,461.316 132.54,461.316 
	187.528,320.14 227.108,320.14 210.612,365.468 297.92,365.468 281.088,320.14 322.932,320.14 379.46,461.316 "/>
<rect x="49.908" y="90.14" style="fill:#FDFEFF;" width="412.2" height="258.8"/>
<rect x="33.796" y="65.568" style="fill:#656D7A;" width="444.4" height="24.568"/>
<rect x="363.24" y="172.08" style="fill:#7EC359;" width="21.152" height="133.928"/>
<rect x="328.48" y="203.784" style="fill:#F5EA07;" width="21.152" height="102.228"/>
<rect x="293.72" y="227.4" style="fill:#F1592F;" width="21.152" height="78.612"/>
<rect x="258.956" y="245.2" style="fill:#70B1E1;" width="21.152" height="60.82"/>
<rect x="224.2" y="257.8" style="fill:#7EC359;" width="21.152" height="48.2"/>
<rect x="189.44" y="272.36" style="fill:#F1592F;" width="21.152" height="33.644"/>
<rect x="154.664" y="286.92" style="fill:#F5EA07;" width="21.152" height="19.088"/>
<rect x="119.904" y="293" style="fill:#70B1E1;" width="21.152" height="13"/>
<g>
	<path style="fill:#F1592F;" d="M383.088,143.348c-13.688,15.116-45.036,39.568-66.84,53.916
		c-46.716,30.176-97.056,54.176-113.084,60.404c-37.568,15.268-36.244,15.308-93,33.252l-1.048-3.464
		c56.2-18.7,54.564-18.58,92.016-34.46c14.1-5.72,63.004-29.388,111.18-61.54c27.772-18.876,55.356-43.156,64.664-53.708
		L383.088,143.348z"/>
	<polygon style="fill:#F1592F;" points="384.748,150.488 393.684,125.224 369.58,136.928 	"/>
</g>
<g>
	<polygon style="fill:#656D7A;" points="407.432,323.08 90.212,323.08 90.212,131.204 97.12,131.204 97.12,316.176 407.432,316.176 
			"/>
	<polygon style="fill:#656D7A;" points="102.164,133.9 93.668,110.964 85.168,133.9 	"/>
	<polygon style="fill:#656D7A;" points="403.896,328.128 426.832,319.628 403.896,311.132 	"/>
</g>
<circle style="fill:#F5EA07;" cx="163.476" cy="191.456" r="53.436"/>
<g>
	<path style="fill:#E8BB20;" d="M163.476,237.248c-25.248,0-45.792-20.54-45.792-45.792s20.544-45.792,45.792-45.792
		s45.792,20.54,45.792,45.792S188.72,237.248,163.476,237.248z M163.476,153.74c-20.796,0-37.716,16.92-37.716,37.716
		s16.92,37.716,37.716,37.716s37.716-16.92,37.716-37.716S184.272,153.74,163.476,153.74z"/>
	<path style="fill:#E8BB20;" d="M162.008,219.144v-4.876c-6.104-0.624-11.58-3.048-16.436-7.28l4.876-5.812
		c3.744,3.252,7.596,5.188,11.556,5.812v-12.96c-5.036-1.2-8.716-2.784-11.056-4.744c-2.336-1.96-3.508-4.864-3.508-8.716
		s1.348-7.004,4.04-9.452c2.692-2.448,6.204-3.784,10.524-4.008v-3.34h4.276v3.404c4.9,0.36,9.528,2.028,13.896,5.012l-4.344,6.144
		c-2.94-2.092-6.124-3.384-9.552-3.876v12.56h0.2c5.12,1.204,8.884,2.828,11.288,4.876c2.404,2.048,3.608,5.024,3.608,8.92
		s-1.38,7.072-4.144,9.52c-2.76,2.452-6.412,3.788-10.956,4.008v4.808L162.008,219.144L162.008,219.144z M157.296,176.024
		c-1.132,1-1.7,2.248-1.7,3.74s0.444,2.672,1.336,3.54s2.584,1.704,5.076,2.508v-11.556
		C160.004,174.432,158.432,175.024,157.296,176.024z M171.36,205.316c1.244-1.024,1.872-2.312,1.872-3.872
		c0-1.556-0.492-2.796-1.472-3.708s-2.804-1.768-5.476-2.572v12.024C168.42,206.968,170.112,206.34,171.36,205.316z"/>
</g>
<g>
</g>
<g>
</g>
<g>
</g>
<g>
</g>
<g>
</g>
<g>
</g>
<g>
</g>
<g>
</g>
<g>
</g>
<g>
</g>
<g>
</g>
<g>
</g>
<g>
</g>
<g>
</g>
<g>
</g>
</svg>
