<?xml version="1.0" encoding="iso-8859-1"?>
<!-- Generator: Adobe Illustrator 19.0.0, SVG Export Plug-In . SVG Version: 6.00 Build 0)  -->
<svg version="1.1" id="Capa_1" xmlns="http://www.w3.org/2000/svg" xmlns:xlink="http://www.w3.org/1999/xlink" x="0px" y="0px"
	 viewBox="0 0 512 512" style="enable-background:new 0 0 512 512;" xml:space="preserve">
<circle style="fill:#F1592F;" cx="256" cy="256" r="256"/>
<path style="fill:#4D535F;" d="M118.276,134.236l-25.26,129.208l226.748,226.748L474.216,335.74L247.464,108.992L118.276,134.236z
	 M185.808,201.768c-9.564,9.564-25.052,9.564-34.616,0s-9.564-25.052,0-34.616c9.544-9.544,25.032-9.548,34.596,0.016
	S195.352,192.22,185.808,201.768z"/>
<path style="fill:#FDFEFF;" d="M238.152,168.824c-34.872,34.872-91.612,34.872-126.484,0s-34.872-91.612,0-126.48
	s91.612-34.872,126.484,0C273.024,77.212,273.024,133.952,238.152,168.824z M122.336,53.012c-28.988,28.988-28.988,76.156,0,105.144
	s76.156,28.988,105.144,0s28.988-76.16,0-105.148C198.496,24.02,151.328,24.02,122.336,53.012z"/>
<path style="fill:#4D535F;" d="M187.888,199.364l23.784,23.784l74.976-74.976l-39.18-39.18L122.024,133.5l31.572,31.572
	c9.588-7.384,23.392-6.704,32.196,2.096C194.592,175.972,195.268,189.776,187.888,199.364z"/>
<rect x="192.714" y="233.499" transform="matrix(0.7071 0.7071 -0.7071 0.7071 313.5199 -120.5073)" style="fill:#FDFEFF;" width="219.022" height="169.398"/>
<path style="fill:#F1592F;" d="M326.652,351.124L301.228,325.7c-10.192,5.664-19.436,8.048-27.728,7.16s-15.716-4.612-22.268-11.164
	c-6.632-6.632-10.112-14.3-10.436-22.996s2.648-16.868,8.92-24.512l-6.008-6.008l8.796-8.796l6.008,6.008
	c7.2-5.664,14.512-8.584,21.932-8.768c7.424-0.184,14.692,2.236,21.812,7.252l-13.348,17.352
	c-5.704-3.844-11.368-4.652-16.988-2.428l23.724,23.724c12.336-7.08,22.36-10.284,30.064-9.616
	c7.704,0.668,14.836,4.276,21.388,10.832c7.32,7.32,11.276,15.704,11.86,25.148c0.588,9.444-2.496,18.676-9.252,27.696
	l11.344,11.344l-8.796,8.796l-11.044-11.044c-7.848,6.148-16.14,9.224-24.876,9.224c-8.736,0-17.696-3.376-26.88-10.132
	l14.136-17.536c3.884,2.588,7.888,4.168,12.012,4.732C319.736,352.54,323.416,352.256,326.652,351.124z M262.944,287.416
	c-1.576,3.196-2.104,6.472-1.576,9.828c0.524,3.356,1.96,6.208,4.308,8.556c2.144,2.144,4.784,3.488,7.916,4.036
	c3.136,0.548,6.584,0.072,10.344-1.424L262.944,287.416z M336.3,343.176c2.468-3.6,3.528-7.472,3.184-11.62
	s-2.032-7.736-5.068-10.768c-2.712-2.712-5.844-4.248-9.404-4.612s-7.684,0.748-12.376,3.336L336.3,343.176z"/>
<g>
</g>
<g>
</g>
<g>
</g>
<g>
</g>
<g>
</g>
<g>
</g>
<g>
</g>
<g>
</g>
<g>
</g>
<g>
</g>
<g>
</g>
<g>
</g>
<g>
</g>
<g>
</g>
<g>
</g>
</svg>
