<?xml version="1.0" encoding="iso-8859-1"?>
<!-- Generator: Adobe Illustrator 19.0.0, SVG Export Plug-In . SVG Version: 6.00 Build 0)  -->
<svg version="1.1" id="Capa_1" xmlns="http://www.w3.org/2000/svg" xmlns:xlink="http://www.w3.org/1999/xlink" x="0px" y="0px"
	 viewBox="0 0 512 512" style="enable-background:new 0 0 512 512;" xml:space="preserve">
<circle style="fill:#40B9E3;" cx="256" cy="256" r="256"/>
<path style="fill:#F0B97C;" d="M261.268,386.172H130.464c0,0,26.024-36.384,34.204-78.516h62.396
	C235.244,349.788,261.268,386.172,261.268,386.172z"/>
<path style="fill:#D2D2D4;" d="M372.516,487.7l-20.852-78.496c-3.76-14.156-15.764-24.516-30.284-26.356
	c-53.224-6.764-79.064-30.252-79.064-30.252c-9.62,22.164-31.06,30.616-46.448,29.704c-30.948,4.776-40.704-13.984-46.46-29.704
	c0,0-25.84,23.488-79.064,30.252c-14.52,1.84-26.528,12.2-30.284,26.356L19.216,487.7H372.516z"/>
<path style="fill:#F7CFA3;" d="M195.864,202.156c-97.528,0-62.04,159.5,0,159.5c33.532,0,60.716-48.532,60.716-92.58
	S229.4,202.156,195.864,202.156z"/>
<path style="fill:#656D7A;" d="M138.836,299.84c0,0-20.932-35.496,0-69.172c0,0,3.64-25.18,33.372-29.732
	c0,0-3.672-6.424,11.244-3.744c0,0,3.864-0.32-0.964-2.144c0,0,4.508-2.684,15.128,2.576c0,0,0.216-2.788-6.868-5.58
	c0,0,6.328-5.256,30.148,7.832c0,0,0.108-3.968-7.296-7.512c0,0,12.232,0.536,22.744,14.912c0,0,22.852,6.652,25.856,35.512v32.864
	l-8.692,19.428l-4.316-20.004l0.64-21.028c0.08-3.94-0.42-27.26-14.792-22.744c-15.516,4.876-56.36,3.944-73.012,0.36
	c-8.104-1.744-18.976,8.48-19.336,20.352C141.552,289.568,144.564,270.48,138.836,299.84z"/>
<g>
	
		<ellipse transform="matrix(0.3947 -0.9188 0.9188 0.3947 -120.3879 412.4471)" style="fill:#F7CFA3;" cx="252.843" cy="297.595" rx="11.78" ry="5.424"/>
	
		<ellipse transform="matrix(0.3947 0.9188 -0.9188 0.3947 357.5134 52.488)" style="fill:#F7CFA3;" cx="138.92" cy="297.587" rx="11.78" ry="5.424"/>
</g>
<polygon style="fill:#D64331;" points="215.876,487.7 206.332,401.892 185.4,401.892 175.856,487.7 "/>
<path style="fill:#F1592F;" d="M195.864,382.304l-18.328,18.148l6.428,6.428c6.572,6.572,17.228,6.572,23.796,0l6.428-6.428
	L195.864,382.304z"/>
<g>
	<path style="fill:#FDFEFF;" d="M152.08,346.916c0,0-5.552,19.088,43.784,35.388l-25.504,32.36
		C170.364,414.664,112.404,384.316,152.08,346.916z"/>
	<path style="fill:#FDFEFF;" d="M239.648,346.916c0,0,5.552,19.088-43.784,35.388l25.504,32.36
		C221.368,414.664,279.324,384.316,239.648,346.916z"/>
</g>
<polygon style="fill:#F1592F;" points="492.788,24.3 492.788,188.632 358.556,188.632 287.456,245.864 287.36,188.632 
	256.308,188.632 256.308,24.3 "/>
<g>
	<circle style="fill:#FDFEFF;" cx="435.32" cy="106.464" r="18.484"/>
	<circle style="fill:#FDFEFF;" cx="374.56" cy="106.464" r="18.484"/>
	<circle style="fill:#FDFEFF;" cx="313.76" cy="106.464" r="18.484"/>
	<path style="fill:#FDFEFF;" d="M186.352,277.128c-0.928,6.916-6.984,20.388-21.792,20.388h-4.32
		c-7.42,0-13.656-4.952-14.732-14.168c0-9.084-2.556-20.996,13.08-20.32c6.608,0,24.976-1.5,27.764,8.008L186.352,277.128
		L186.352,277.128z"/>
	<path style="fill:#FDFEFF;" d="M246.236,272.448v10.9c-1.068,9.176-7.276,14.168-14.728,14.168h-4.32
		c-12.556,0-20.452-10.436-21.792-20.388v-6.088c2.772-9.468,21.248-8.008,27.764-8.008
		C246.56,262.448,246.236,272.448,246.236,272.448z"/>
</g>
<path style="fill:#353944;" d="M212.468,261.408c-30.392,7.872-39.368-9.588-82.936,1.88l0.232,5.968
	c5.116-0.48,10.132,1.016,10.476,6.172l0.364,5.476c1.424,19.656,17.472,18.932,17.472,18.932c9.328,0,16.472,0.92,23.412-5.216
	c5.62-4.968,8.572-12.136,9.168-16.08c0.916-6.004,5.084-6.368,5.084-6.368s4.168,0.364,5.076,6.368
	c1.056,6.924,8.204,21.296,23.964,21.296h8.616c0,0,16.048,0.728,17.476-18.932l0.364-5.476c0.168-2.492,1.78-4.664,4.132-5.516
	c1.572-0.564,4.072-0.9,6.828-0.644v-6C262.2,263.272,233.808,255.884,212.468,261.408z M186.352,277.128
	c-0.928,6.916-6.984,20.388-21.792,20.388h-4.32c-7.42,0-13.656-4.952-14.732-14.168c0-9.084-2.556-20.996,13.08-20.32
	c6.608,0,24.976-1.5,27.764,8.008L186.352,277.128L186.352,277.128z M246.236,272.448v10.9c-1.068,9.176-7.276,14.168-14.728,14.168
	h-4.32c-12.556,0-20.452-10.436-21.792-20.388v-6.088c2.772-9.468,21.248-8.008,27.764-8.008
	C246.56,262.448,246.236,272.448,246.236,272.448z"/>
<g>
</g>
<g>
</g>
<g>
</g>
<g>
</g>
<g>
</g>
<g>
</g>
<g>
</g>
<g>
</g>
<g>
</g>
<g>
</g>
<g>
</g>
<g>
</g>
<g>
</g>
<g>
</g>
<g>
</g>
</svg>
