<?xml version="1.0" encoding="iso-8859-1"?>
<!-- Generator: Adobe Illustrator 19.0.0, SVG Export Plug-In . SVG Version: 6.00 Build 0)  -->
<svg version="1.1" id="Capa_1" xmlns="http://www.w3.org/2000/svg" xmlns:xlink="http://www.w3.org/1999/xlink" x="0px" y="0px"
	 viewBox="0 0 512 512" style="enable-background:new 0 0 512 512;" xml:space="preserve">
<circle style="fill:#6FB1E1;" cx="256" cy="256" r="256"/>
<polygon style="fill:#4D535F;" points="331.824,452.196 308.012,390.248 201.208,390.248 178.7,452.196 137.38,452.196 
	190.212,316.552 228.24,316.552 212.388,360.104 296.276,360.104 280.104,316.552 320.308,316.552 374.624,452.196 "/>
<rect x="57.984" y="75.804" style="fill:#FDFEFF;" width="396.04" height="262.84"/>
<rect x="42.504" y="52.2" style="fill:#F1592F;" width="427" height="23.608"/>
<polygon style="fill:#656D7A;" points="391.984,143.236 300.428,234.792 255.796,190.136 209.816,236.12 166.408,192.688 
	81.208,277.892 73.984,270.668 166.408,178.272 209.816,221.676 255.796,175.72 300.428,220.348 384.764,136.016 "/>
<circle style="fill:#70B1E1;" cx="301.08" cy="226.36" r="14.036"/>
<g>
	<circle style="fill:#F5EA07;" cx="256" cy="185.08" r="14.036"/>
	<circle style="fill:#F5EA07;" cx="166.276" cy="188.16" r="14.036"/>
</g>
<circle style="fill:#F1592F;" cx="210.08" cy="228.04" r="14.036"/>
<polygon style="fill:#656D7A;" points="402.82,126.672 353.068,135.436 394.052,176.42 "/>
<g>
</g>
<g>
</g>
<g>
</g>
<g>
</g>
<g>
</g>
<g>
</g>
<g>
</g>
<g>
</g>
<g>
</g>
<g>
</g>
<g>
</g>
<g>
</g>
<g>
</g>
<g>
</g>
<g>
</g>
</svg>
