<?xml version="1.0" encoding="iso-8859-1"?>
<!-- Generator: Adobe Illustrator 19.0.0, SVG Export Plug-In . SVG Version: 6.00 Build 0)  -->
<svg version="1.1" id="Capa_1" xmlns="http://www.w3.org/2000/svg" xmlns:xlink="http://www.w3.org/1999/xlink" x="0px" y="0px"
	 viewBox="0 0 511.608 511.608" style="enable-background:new 0 0 511.608 511.608;" xml:space="preserve">
<circle style="fill:#F1592F;" cx="255.804" cy="255.804" r="255.804"/>
<polygon style="fill:#F0B97C;" points="192.116,438.28 203.564,406.784 305.396,406.784 317.5,438.28 357.868,438.28 
	317.124,336.516 278.788,336.516 294.208,378.04 214.22,378.04 229.336,336.516 193.076,336.516 153.44,438.28 "/>
<rect x="67" y="77.472" style="fill:#FDFEFF;" width="377.6" height="283"/>
<rect x="52.244" y="54.964" style="fill:#F0B97C;" width="407.12" height="22.508"/>
<g>
	<rect x="88.644" y="101.292" style="fill:#D2D2D4;" width="334.28" height="2.68"/>
	<rect x="88.644" y="115.844" style="fill:#D2D2D4;" width="334.28" height="2.68"/>
	<rect x="88.644" y="130.36" style="fill:#D2D2D4;" width="334.28" height="2.68"/>
	<rect x="88.644" y="144.884" style="fill:#D2D2D4;" width="334.28" height="2.68"/>
	<rect x="88.644" y="159.428" style="fill:#D2D2D4;" width="334.28" height="2.68"/>
	<rect x="88.644" y="173.96" style="fill:#D2D2D4;" width="334.28" height="2.68"/>
	<rect x="88.644" y="188.484" style="fill:#D2D2D4;" width="334.28" height="2.68"/>
	<rect x="88.644" y="203.028" style="fill:#D2D2D4;" width="334.28" height="2.68"/>
	<rect x="88.644" y="217.564" style="fill:#D2D2D4;" width="334.28" height="2.68"/>
	<rect x="88.644" y="232.084" style="fill:#D2D2D4;" width="334.28" height="2.68"/>
	<rect x="88.644" y="246.632" style="fill:#D2D2D4;" width="334.28" height="2.68"/>
	<rect x="88.644" y="261.164" style="fill:#D2D2D4;" width="334.28" height="2.68"/>
	<rect x="88.644" y="275.696" style="fill:#D2D2D4;" width="334.28" height="2.68"/>
	<rect x="88.644" y="290.244" style="fill:#D2D2D4;" width="334.28" height="2.68"/>
	<rect x="88.644" y="304.764" style="fill:#D2D2D4;" width="334.28" height="2.68"/>
	<rect x="88.644" y="319.3" style="fill:#D2D2D4;" width="334.28" height="2.68"/>
	<rect x="88.644" y="333.844" style="fill:#D2D2D4;" width="334.28" height="2.68"/>
	<rect x="378.004" y="102.632" style="fill:#D2D2D4;" width="2.68" height="232.68"/>
	<rect x="363.484" y="102.632" style="fill:#D2D2D4;" width="2.68" height="232.68"/>
	<rect x="348.924" y="102.632" style="fill:#D2D2D4;" width="2.68" height="232.68"/>
	<rect x="334.404" y="102.632" style="fill:#D2D2D4;" width="2.68" height="232.68"/>
	<rect x="319.884" y="102.632" style="fill:#D2D2D4;" width="2.68" height="232.68"/>
	<rect x="305.324" y="102.632" style="fill:#D2D2D4;" width="2.68" height="232.68"/>
	<rect x="290.804" y="102.632" style="fill:#D2D2D4;" width="2.68" height="232.68"/>
	<rect x="276.244" y="102.632" style="fill:#D2D2D4;" width="2.68" height="232.68"/>
	<rect x="261.724" y="102.632" style="fill:#D2D2D4;" width="2.68" height="232.68"/>
	<rect x="247.196" y="102.632" style="fill:#D2D2D4;" width="2.68" height="232.68"/>
	<rect x="232.684" y="102.632" style="fill:#D2D2D4;" width="2.68" height="232.68"/>
	<rect x="218.124" y="102.632" style="fill:#D2D2D4;" width="2.68" height="232.68"/>
	<rect x="203.596" y="102.632" style="fill:#D2D2D4;" width="2.68" height="232.68"/>
	<rect x="189.044" y="102.632" style="fill:#D2D2D4;" width="2.68" height="232.68"/>
	<rect x="174.528" y="102.632" style="fill:#D2D2D4;" width="2.68" height="232.68"/>
	<rect x="160.004" y="102.632" style="fill:#D2D2D4;" width="2.68" height="232.68"/>
	<rect x="145.46" y="102.632" style="fill:#D2D2D4;" width="2.68" height="232.68"/>
	<rect x="130.924" y="102.632" style="fill:#D2D2D4;" width="2.68" height="232.68"/>
	<rect x="116.404" y="102.632" style="fill:#D2D2D4;" width="2.68" height="232.68"/>
	<rect x="101.86" y="102.632" style="fill:#D2D2D4;" width="2.68" height="232.68"/>
	<rect x="87.324" y="102.632" style="fill:#D2D2D4;" width="2.68" height="232.68"/>
	<rect x="421.604" y="102.632" style="fill:#D2D2D4;" width="2.68" height="232.68"/>
	<rect x="407.084" y="102.632" style="fill:#D2D2D4;" width="2.68" height="232.68"/>
	<rect x="392.524" y="102.632" style="fill:#D2D2D4;" width="2.68" height="232.68"/>
	<path style="fill:#D2D2D4;" d="M424.284,337.856H87.324V101.292h336.96V337.856L424.284,337.856z M90.008,335.176h331.596v-231.2
		H90.008V335.176z"/>
</g>
<rect x="104.524" y="320.644" style="fill:#4D535F;" width="302.52" height="14.532"/>
<rect x="335.74" y="146.236" style="fill:#7EC359;" width="29.068" height="159.872"/>
<rect x="292.124" y="175.304" style="fill:#70B1E1;" width="29.068" height="130.804"/>
<rect x="248.524" y="204.364" style="fill:#7EC359;" width="29.068" height="101.736"/>
<rect x="204.924" y="233.444" style="fill:#F5EA07;" width="29.068" height="72.68"/>
<rect x="161.324" y="262.484" style="fill:#F1592F;" width="29.068" height="43.6"/>
<g>
	<path style="fill:#7EC359;" d="M161.332,240.14c-1.512,0-3.032-0.508-4.288-1.552c-2.844-2.368-3.228-6.6-0.856-9.444
		l66.492-79.792c2.784-3.34,6.868-5.368,11.212-5.564c4.352-0.216,8.6,1.452,11.672,4.528l16.016,16.016
		c0.512,0.512,1.092,0.616,1.488,0.616c0.328,0,0.952-0.08,1.488-0.616l42.068-42.072c2.616-2.62,6.864-2.62,9.48,0
		c2.62,2.62,2.62,6.86,0,9.48l-42.064,42.072c-2.932,2.932-6.824,4.544-10.968,4.544s-8.04-1.612-10.968-4.544l-16.016-16.016
		c-0.572-0.572-1.244-0.612-1.584-0.616c-0.348,0.016-1.004,0.136-1.524,0.756l-66.496,79.792
		C165.16,239.316,163.252,240.14,161.332,240.14z"/>
	<polygon style="fill:#7EC359;" points="328.568,109.808 289.368,118.144 320.232,149.004 	"/>
</g>
<g>
</g>
<g>
</g>
<g>
</g>
<g>
</g>
<g>
</g>
<g>
</g>
<g>
</g>
<g>
</g>
<g>
</g>
<g>
</g>
<g>
</g>
<g>
</g>
<g>
</g>
<g>
</g>
<g>
</g>
</svg>
