<?xml version="1.0" encoding="iso-8859-1"?>
<!-- Generator: Adobe Illustrator 19.0.0, SVG Export Plug-In . SVG Version: 6.00 Build 0)  -->
<svg version="1.1" id="Capa_1" xmlns="http://www.w3.org/2000/svg" xmlns:xlink="http://www.w3.org/1999/xlink" x="0px" y="0px"
	 viewBox="0 0 512 512" style="enable-background:new 0 0 512 512;" xml:space="preserve">
<circle style="fill:#F1592F;" cx="256" cy="256" r="256"/>
<path style="fill:#FDFEFF;" d="M360.392,56H151.608c-9.744,0-17.644,7.9-17.644,17.644v364.712c0,9.744,7.9,17.644,17.644,17.644
	h208.788c9.744,0,17.644-7.9,17.644-17.644V73.644C378.04,63.9,370.14,56,360.392,56z"/>
<rect x="153.12" y="89.132" style="fill:#5F87C4;" width="205.72" height="316.92"/>
<g>
	<circle style="fill:#D2D2D4;" cx="256" cy="431.2" r="14.328"/>
	<path style="fill:#D2D2D4;" d="M276.108,78.192h-40.216c-1.168,0-2.116-0.948-2.116-2.116v-4.228c0-1.168,0.948-2.116,2.116-2.116
		h40.216c1.168,0,2.116,0.948,2.116,2.116v4.228C278.224,77.244,277.276,78.192,276.108,78.192z"/>
</g>
<circle style="fill:#F5EA07;" cx="251.308" cy="220.56" r="71.6"/>
<g>
	<path style="fill:#E8BB20;" d="M247.932,243.364v-20.216c-6.304-1.8-10.928-4.528-13.872-8.18
		c-2.944-3.652-4.416-8.084-4.416-13.292c0-5.276,1.664-9.708,4.996-13.292c3.328-3.588,7.76-5.652,13.292-6.2V177.4h6.996v4.776
		c5.116,0.612,9.184,2.356,12.208,5.236s4.952,6.732,5.792,11.556l-12.208,1.592c-0.74-3.796-2.668-6.368-5.792-7.72v18.868
		c7.72,2.092,12.98,4.8,15.78,8.132c2.8,3.328,4.196,7.6,4.196,12.812c0,5.824-1.76,10.728-5.284,14.716s-8.42,6.432-14.692,7.336
		v9.024h-6.996v-8.78c-5.564-0.676-10.084-2.752-13.56-6.224c-3.476-3.476-5.692-8.38-6.66-14.716l12.592-1.352
		c0.516,2.572,1.48,4.792,2.896,6.66C244.616,241.176,246.192,242.528,247.932,243.364z M247.932,192.696
		c-1.896,0.644-3.408,1.736-4.536,3.28s-1.688,3.248-1.688,5.116c0,1.704,0.516,3.288,1.544,4.752s2.588,2.644,4.68,3.548V192.696z
		 M254.928,244.04c2.412-0.452,4.376-1.568,5.888-3.352c1.512-1.784,2.268-3.884,2.268-6.296c0-2.156-0.636-4.012-1.904-5.572
		c-1.272-1.56-3.352-2.76-6.248-3.596v18.816H254.928z"/>
	<path style="fill:#E8BB20;" d="M251.784,280.808h-0.476c-3.768,0-7.536-0.352-11.2-1.04l1.04-5.512
		c3.32,0.624,6.74,0.944,10.16,0.944L251.784,280.808z M263.492,279.576l-1.132-5.496c3.484-0.716,6.908-1.78,10.172-3.16
		l2.18,5.172C271.108,277.612,267.336,278.784,263.492,279.576z M228.828,276.472c-3.628-1.46-7.136-3.288-10.424-5.436l3.068-4.696
		c2.98,1.944,6.16,3.604,9.448,4.928L228.828,276.472z M285.044,270.48l-3.144-4.648c2.936-1.988,5.696-4.276,8.204-6.8l3.984,3.952
		C291.324,265.772,288.28,268.292,285.044,270.48z M209.244,263.692c-2.804-2.736-5.352-5.756-7.572-8.98l4.62-3.184
		c2.012,2.924,4.328,5.664,6.872,8.148L209.244,263.692z M301.512,253.884l-4.676-3.108c1.972-2.96,3.656-6.128,5.004-9.408
		l5.188,2.136C305.54,247.124,303.68,250.616,301.512,253.884z M195.972,244.428c-1.552-3.596-2.756-7.36-3.576-11.196l5.484-1.172
		c0.744,3.476,1.836,6.884,3.24,10.144L195.972,244.428z M310.42,232.248l-5.508-1.08c0.684-3.476,1.028-7.044,1.028-10.608
		c0.004-0.612-0.008-1.212-0.028-1.812l5.608-0.192c0.024,0.672,0.036,1.344,0.032,2.016
		C311.552,224.488,311.172,228.42,310.42,232.248z M191.068,221.568l-0.004-1.028c0-3.572,0.316-7.172,0.948-10.68l5.524,0.992
		c-0.568,3.18-0.86,6.448-0.86,9.712l0.004,0.904L191.068,221.568z M304.528,208.172c-0.8-3.456-1.944-6.852-3.408-10.084
		l5.112-2.312c1.612,3.572,2.88,7.316,3.764,11.132L304.528,208.172z M200.436,200.604l-5.224-2.056
		c1.432-3.636,3.228-7.156,5.348-10.464l4.724,3.024C203.364,194.112,201.732,197.308,200.436,200.604z M295.8,188.852
		c-2.056-2.888-4.416-5.588-7.004-8.032l3.852-4.084c2.852,2.692,5.448,5.672,7.72,8.852L295.8,188.852z M211.884,182.74
		l-4.048-3.884c2.712-2.824,5.712-5.396,8.916-7.648l3.224,4.592C217.064,177.84,214.344,180.176,211.884,182.74z M280.376,174.296
		c-3.016-1.896-6.22-3.5-9.528-4.772l2.004-5.24c3.652,1.396,7.188,3.168,10.512,5.26L280.376,174.296z M229.252,170.56
		l-2.268-5.136c3.58-1.58,7.336-2.816,11.164-3.668l1.224,5.476C235.9,168.008,232.496,169.128,229.252,170.56z M260.576,166.708
		c-3.932-0.668-7.068-0.812-10.636-0.76l-0.132-5.612c3.96-0.052,7.436,0.112,11.712,0.844L260.576,166.708z"/>
</g>
<polygon style="fill:#4D535F;" points="310.672,265.888 297.04,272.092 318.688,293.74 306.024,306.404 284.376,284.756 
	278.172,298.388 267.48,255.212 "/>
<g>
</g>
<g>
</g>
<g>
</g>
<g>
</g>
<g>
</g>
<g>
</g>
<g>
</g>
<g>
</g>
<g>
</g>
<g>
</g>
<g>
</g>
<g>
</g>
<g>
</g>
<g>
</g>
<g>
</g>
</svg>
