<?xml version="1.0" encoding="iso-8859-1"?>
<!-- Generator: Adobe Illustrator 19.0.0, SVG Export Plug-In . SVG Version: 6.00 Build 0)  -->
<svg version="1.1" id="Capa_1" xmlns="http://www.w3.org/2000/svg" xmlns:xlink="http://www.w3.org/1999/xlink" x="0px" y="0px"
	 viewBox="0 0 512 512" style="enable-background:new 0 0 512 512;" xml:space="preserve">
<circle style="fill:#7EC359;" cx="256" cy="256" r="256"/>
<g>
	<path style="fill:#4D535F;" d="M334.208,175.912H177.792v-49.464c0-14.3,11.636-25.936,25.936-25.936h104.548
		c14.3,0,25.936,11.636,25.936,25.936v49.464H334.208z M200.052,153.652h111.896v-27.204c0-2.024-1.648-3.676-3.676-3.676H203.728
		c-2.024,0-3.676,1.648-3.676,3.676V153.652z"/>
	<path style="fill:#4D535F;" d="M463.576,202.256H48.424v219.828c0,10.176,8.252,18.428,18.428,18.428h378.3
		c10.176,0,18.428-8.252,18.428-18.428V202.256H463.576z"/>
</g>
<path style="fill:#656D7A;" d="M445.92,146.036H66.08c-9.752,0-17.66,7.908-17.66,17.66V282.9c143.916,28.56,271.94,30.1,415.156,0
	V163.696C463.576,153.944,455.672,146.036,445.92,146.036z"/>
<path style="fill:#D2D2D4;" d="M273.76,356.032h-35.52c-4.072,0-7.372-3.3-7.372-7.372V290.3c0-4.072,3.3-7.372,7.372-7.372h35.52
	c4.072,0,7.372,3.3,7.372,7.372v58.364C281.132,352.732,277.832,356.032,273.76,356.032z"/>
<circle style="fill:#FDFEFF;" cx="256" cy="338.2" r="9.448"/>
<g>
</g>
<g>
</g>
<g>
</g>
<g>
</g>
<g>
</g>
<g>
</g>
<g>
</g>
<g>
</g>
<g>
</g>
<g>
</g>
<g>
</g>
<g>
</g>
<g>
</g>
<g>
</g>
<g>
</g>
</svg>
