<?xml version="1.0" encoding="iso-8859-1"?>
<!-- Generator: Adobe Illustrator 19.0.0, SVG Export Plug-In . SVG Version: 6.00 Build 0)  -->
<svg version="1.1" id="Capa_1" xmlns="http://www.w3.org/2000/svg" xmlns:xlink="http://www.w3.org/1999/xlink" x="0px" y="0px"
	 viewBox="0 0 512 512" style="enable-background:new 0 0 512 512;" xml:space="preserve">
<circle style="fill:#6FB1E1;" cx="256" cy="259.52" r="252.48"/>
<rect x="85.196" y="55.908" style="fill:#E34E30;" width="341.6" height="422.76"/>
<rect x="103.524" y="73.096" style="fill:#FDFEFF;" width="304.96" height="388.44"/>
<path style="fill:#4D535F;" d="M285.964,39.256c0.704-2.596,1.196-5.276,1.196-8.096C287.16,13.952,273.208,0,256,0
	s-31.16,13.952-31.16,31.16c0,2.788,0.484,5.436,1.172,8.008L163.284,60.5v23.292h185.432V60.5L285.964,39.256z"/>
<circle style="fill:#6FB1E1;" cx="256" cy="28.696" r="15.244"/>
<rect x="128.48" y="124.44" style="fill:#F5EA07;" width="51.732" height="51.732"/>
<rect x="128.48" y="203.36" style="fill:#7EC359;" width="51.732" height="51.732"/>
<rect x="128.48" y="282.28" style="fill:#D2D2D4;" width="51.732" height="51.732"/>
<rect x="128.48" y="361.2" style="fill:#F1592F;" width="51.732" height="51.732"/>
<rect x="210.596" y="142.696" style="fill:#D2D2D4;" width="177.6" height="15.2"/>
<rect x="210.596" y="221.64" style="fill:#F1592F;" width="177.6" height="15.2"/>
<rect x="210.596" y="300.56" style="fill:#F5EA07;" width="177.6" height="15.2"/>
<rect x="210.596" y="379.48" style="fill:#7EC359;" width="177.6" height="15.2"/>
<g>
</g>
<g>
</g>
<g>
</g>
<g>
</g>
<g>
</g>
<g>
</g>
<g>
</g>
<g>
</g>
<g>
</g>
<g>
</g>
<g>
</g>
<g>
</g>
<g>
</g>
<g>
</g>
<g>
</g>
</svg>
