<?xml version="1.0" encoding="iso-8859-1"?>
<!-- Generator: Adobe Illustrator 19.0.0, SVG Export Plug-In . SVG Version: 6.00 Build 0)  -->
<svg version="1.1" id="Capa_1" xmlns="http://www.w3.org/2000/svg" xmlns:xlink="http://www.w3.org/1999/xlink" x="0px" y="0px"
	 viewBox="0 0 512 512" style="enable-background:new 0 0 512 512;" xml:space="preserve">
<circle style="fill:#F1592F;" cx="256" cy="256" r="256"/>
<path style="fill:#E8BB20;" d="M436,364.392c0,16.16-24.264,29.256-54.2,29.256s-54.2-13.1-54.2-29.256v-11.576H436V364.392z"/>
<ellipse style="fill:#F5EA07;" cx="381.8" cy="352.8" rx="54.2" ry="29.256"/>
<path style="fill:#E8BB20;" d="M436,345.736c0,16.16-24.264,29.256-54.2,29.256s-54.2-13.1-54.2-29.256V334.16H436V345.736z"/>
<ellipse style="fill:#F5EA07;" cx="381.8" cy="334.16" rx="54.2" ry="29.256"/>
<path style="fill:#E8BB20;" d="M436,327.08c0,16.16-24.264,29.256-54.2,29.256s-54.2-13.096-54.2-29.256v-11.576H436V327.08z"/>
<ellipse style="fill:#F5EA07;" cx="381.8" cy="315.504" rx="54.2" ry="29.256"/>
<path style="fill:#E8BB20;" d="M436,308.424c0,16.16-24.264,29.256-54.2,29.256s-54.2-13.096-54.2-29.256v-11.576H436V308.424z"/>
<ellipse style="fill:#F5EA07;" cx="381.8" cy="296.84" rx="54.2" ry="29.256"/>
<path style="fill:#E8BB20;" d="M436,289.768c0,16.16-24.264,29.256-54.2,29.256s-54.2-13.096-54.2-29.256v-11.576H436V289.768z"/>
<ellipse style="fill:#F5EA07;" cx="381.8" cy="278.2" rx="54.2" ry="29.256"/>
<path style="fill:#E8BB20;" d="M436,271.116c0,16.16-24.264,29.256-54.2,29.256s-54.2-13.1-54.2-29.256V259.54H436V271.116z"/>
<ellipse style="fill:#F5EA07;" cx="381.8" cy="259.54" rx="54.2" ry="29.256"/>
<path style="fill:#E8BB20;" d="M436,252.46c0,16.16-24.264,29.256-54.2,29.256s-54.2-13.096-54.2-29.256v-11.576H436V252.46z"/>
<ellipse style="fill:#F5EA07;" cx="381.8" cy="240.88" rx="54.2" ry="29.256"/>
<path style="fill:#E8BB20;" d="M436,233.804c0,16.16-24.264,29.256-54.2,29.256s-54.2-13.096-54.2-29.256v-11.576H436V233.804z"/>
<ellipse style="fill:#F5EA07;" cx="381.8" cy="222.24" rx="54.2" ry="29.256"/>
<path style="fill:#E8BB20;" d="M436,215.148c0,16.16-24.264,29.256-54.2,29.256s-54.2-13.096-54.2-29.256v-11.576H436V215.148z"/>
<ellipse style="fill:#F5EA07;" cx="381.8" cy="203.576" rx="54.2" ry="29.256"/>
<path style="fill:#E8BB20;" d="M436,196.496c0,16.16-24.264,29.256-54.2,29.256s-54.2-13.1-54.2-29.256V184.92H436V196.496z"/>
<ellipse style="fill:#F5EA07;" cx="381.8" cy="184.92" rx="54.2" ry="29.256"/>
<path style="fill:#E8BB20;" d="M436,177.84c0,16.16-24.264,29.256-54.2,29.256s-54.2-13.1-54.2-29.256v-11.576H436V177.84z"/>
<ellipse style="fill:#F5EA07;" cx="381.8" cy="166.264" rx="54.2" ry="29.256"/>
<path style="fill:#E8BB20;" d="M436,159.184c0,16.16-24.264,29.256-54.2,29.256s-54.2-13.096-54.2-29.256v-11.576H436V159.184z"/>
<ellipse style="fill:#F5EA07;" cx="381.8" cy="147.608" rx="54.2" ry="29.256"/>
<g>
	<path style="fill:#E8BB20;" d="M381.8,170.772c-25.608,0-46.444-10.388-46.444-23.16s20.836-23.16,46.444-23.16
		s46.444,10.388,46.444,23.16S407.408,170.772,381.8,170.772z M381.8,128.532c-21.092,0-38.252,8.556-38.252,19.076
		s17.16,19.076,38.252,19.076s38.252-8.556,38.252-19.076S402.892,128.532,381.8,128.532z"/>
	<path style="fill:#E8BB20;" d="M380.312,161.616v-2.468c-6.188-0.316-11.744-1.544-16.668-3.68l4.944-2.94
		c3.796,1.644,7.704,2.624,11.724,2.94v-6.556c-5.104-0.608-8.84-1.408-11.212-2.4c-2.372-0.992-3.56-2.46-3.56-4.408
		s1.368-3.54,4.1-4.78s6.292-1.912,10.672-2.028v-1.688h4.336v1.724c4.968,0.18,9.664,1.024,14.092,2.536l-4.404,3.108
		c-2.98-1.06-6.212-1.712-9.688-1.96v6.352h0.204c5.196,0.608,9.008,1.432,11.448,2.468s3.66,2.54,3.66,4.512s-1.4,3.576-4.2,4.816
		c-2.8,1.24-6.504,1.916-11.112,2.028v2.432h-4.336V161.616z M375.532,139.804c-1.148,0.504-1.724,1.136-1.724,1.892
		s0.448,1.352,1.352,1.792s2.62,0.864,5.148,1.268v-5.844C378.28,139,376.684,139.296,375.532,139.804z M389.796,154.62
		c1.264-0.516,1.896-1.168,1.896-1.96c0-0.788-0.5-1.412-1.492-1.876s-2.844-0.896-5.556-1.3v6.08
		C386.816,155.456,388.532,155.14,389.796,154.62z"/>
	<path style="fill:#E8BB20;" d="M310.2,364.392c0,16.16-24.264,29.256-54.2,29.256s-54.2-13.1-54.2-29.256v-11.576h108.4V364.392z"
		/>
</g>
<ellipse style="fill:#F5EA07;" cx="256" cy="352.8" rx="54.2" ry="29.256"/>
<path style="fill:#E8BB20;" d="M310.2,345.736c0,16.16-24.264,29.256-54.2,29.256s-54.2-13.1-54.2-29.256V334.16h108.4V345.736z"/>
<ellipse style="fill:#F5EA07;" cx="256" cy="334.16" rx="54.2" ry="29.256"/>
<path style="fill:#E8BB20;" d="M310.2,327.08c0,16.16-24.264,29.256-54.2,29.256s-54.2-13.096-54.2-29.256v-11.576h108.4V327.08z"/>
<ellipse style="fill:#F5EA07;" cx="256" cy="315.504" rx="54.2" ry="29.256"/>
<path style="fill:#E8BB20;" d="M310.2,308.424c0,16.16-24.264,29.256-54.2,29.256s-54.2-13.1-54.2-29.256v-11.576h108.4V308.424z"/>
<ellipse style="fill:#F5EA07;" cx="256" cy="296.84" rx="54.2" ry="29.256"/>
<path style="fill:#E8BB20;" d="M310.2,289.768c0,16.16-24.264,29.256-54.2,29.256s-54.2-13.1-54.2-29.256v-11.576h108.4V289.768z"/>
<ellipse style="fill:#F5EA07;" cx="256" cy="278.2" rx="54.2" ry="29.256"/>
<path style="fill:#E8BB20;" d="M310.2,271.116c0,16.16-24.264,29.256-54.2,29.256s-54.2-13.1-54.2-29.256V259.54h108.4V271.116z"/>
<ellipse style="fill:#F5EA07;" cx="256" cy="259.54" rx="54.2" ry="29.256"/>
<path style="fill:#E8BB20;" d="M310.2,252.46c0,16.16-24.264,29.256-54.2,29.256s-54.2-13.1-54.2-29.256v-11.576h108.4V252.46z"/>
<ellipse style="fill:#F5EA07;" cx="256" cy="240.88" rx="54.2" ry="29.256"/>
<path style="fill:#E8BB20;" d="M310.2,233.804c0,16.16-24.264,29.256-54.2,29.256s-54.2-13.1-54.2-29.256v-11.576h108.4V233.804z"/>
<ellipse style="fill:#F5EA07;" cx="256" cy="222.24" rx="54.2" ry="29.256"/>
<path style="fill:#E8BB20;" d="M310.2,215.148c0,16.16-24.264,29.256-54.2,29.256s-54.2-13.1-54.2-29.256v-11.576h108.4V215.148z"/>
<ellipse style="fill:#F5EA07;" cx="256" cy="203.576" rx="54.2" ry="29.256"/>
<g>
	<path style="fill:#E8BB20;" d="M256,226.736c-25.608,0-46.444-10.388-46.444-23.16s20.836-23.16,46.444-23.16
		s46.444,10.388,46.444,23.16C302.44,216.344,281.604,226.736,256,226.736z M256,184.496c-21.092,0-38.252,8.556-38.252,19.076
		s17.16,19.076,38.252,19.076s38.252-8.556,38.252-19.076S277.092,184.496,256,184.496z"/>
	<path style="fill:#E8BB20;" d="M254.508,217.58v-2.468c-6.188-0.316-11.744-1.544-16.668-3.68l4.944-2.94
		c3.796,1.644,7.704,2.624,11.724,2.94v-6.556c-5.104-0.608-8.84-1.408-11.212-2.4c-2.372-0.992-3.56-2.46-3.56-4.408
		s1.368-3.54,4.1-4.78c2.732-1.24,6.292-1.912,10.672-2.028v-1.688h4.336v1.724c4.968,0.18,9.664,1.024,14.092,2.536l-4.404,3.108
		c-2.98-1.06-6.212-1.712-9.688-1.96v6.352h0.204c5.196,0.608,9.008,1.432,11.448,2.468s3.66,2.54,3.66,4.512s-1.4,3.576-4.2,4.816
		c-2.8,1.24-6.504,1.916-11.112,2.028v2.432h-4.336V217.58z M249.732,195.772c-1.148,0.504-1.724,1.136-1.724,1.892
		s0.448,1.352,1.352,1.792s2.62,0.864,5.148,1.268v-5.844C252.48,194.964,250.884,195.264,249.732,195.772z M263.996,210.584
		c1.264-0.516,1.896-1.172,1.896-1.96c0-0.788-0.5-1.412-1.492-1.876c-0.992-0.46-2.844-0.896-5.556-1.3v6.08
		C261.012,211.42,262.732,211.104,263.996,210.584z"/>
	<path style="fill:#E8BB20;" d="M184.4,364.392c0,16.16-24.264,29.256-54.2,29.256S76,380.548,76,364.392v-11.576h108.4V364.392z"/>
</g>
<ellipse style="fill:#F5EA07;" cx="130.2" cy="352.8" rx="54.2" ry="29.256"/>
<path style="fill:#E8BB20;" d="M184.4,345.736c0,16.16-24.264,29.256-54.2,29.256S76,361.892,76,345.736V334.16h108.4V345.736z"/>
<ellipse style="fill:#F5EA07;" cx="130.2" cy="334.16" rx="54.2" ry="29.256"/>
<path style="fill:#E8BB20;" d="M184.4,327.08c0,16.16-24.264,29.256-54.2,29.256S76,343.24,76,327.08v-11.576h108.4V327.08z"/>
<ellipse style="fill:#F5EA07;" cx="130.2" cy="315.504" rx="54.2" ry="29.256"/>
<path style="fill:#E8BB20;" d="M184.4,308.424c0,16.16-24.264,29.256-54.2,29.256S76,324.584,76,308.424v-11.576h108.4V308.424z"/>
<ellipse style="fill:#F5EA07;" cx="130.2" cy="296.84" rx="54.2" ry="29.256"/>
<path style="fill:#E8BB20;" d="M184.4,289.768c0,16.16-24.264,29.256-54.2,29.256S76,305.928,76,289.768v-11.576h108.4V289.768z"/>
<ellipse style="fill:#F5EA07;" cx="130.2" cy="278.2" rx="54.2" ry="29.256"/>
<path style="fill:#E8BB20;" d="M184.4,271.116c0,16.16-24.264,29.256-54.2,29.256S76,287.272,76,271.116V259.54h108.4V271.116z"/>
<ellipse style="fill:#F5EA07;" cx="130.2" cy="259.54" rx="54.2" ry="29.256"/>
<g>
	<path style="fill:#E8BB20;" d="M130.196,282.7c-25.608,0-46.444-10.388-46.444-23.16s20.836-23.16,46.444-23.16
		s46.444,10.388,46.444,23.16S155.804,282.7,130.196,282.7z M130.196,240.464c-21.092,0-38.252,8.556-38.252,19.076
		c0,10.52,17.16,19.076,38.252,19.076s38.252-8.556,38.252-19.076S151.288,240.464,130.196,240.464z"/>
	<path style="fill:#E8BB20;" d="M128.708,273.544v-2.464c-6.188-0.316-11.744-1.544-16.668-3.68l4.944-2.94
		c3.796,1.644,7.704,2.624,11.724,2.94v-6.56c-5.104-0.608-8.84-1.408-11.212-2.4s-3.56-2.46-3.56-4.408s1.368-3.54,4.1-4.78
		c2.732-1.24,6.292-1.912,10.672-2.028v-1.688h4.336v1.724c4.968,0.18,9.664,1.024,14.092,2.536l-4.404,3.108
		c-2.98-1.06-6.212-1.712-9.688-1.96v6.352h0.204c5.196,0.608,9.008,1.432,11.448,2.468c2.44,1.036,3.66,2.54,3.66,4.512
		s-1.4,3.576-4.2,4.816c-2.8,1.24-6.504,1.916-11.112,2.028v2.432h-4.336V273.544z M123.932,251.736
		c-1.148,0.504-1.724,1.136-1.724,1.892s0.448,1.352,1.352,1.792s2.62,0.864,5.148,1.268v-5.848
		C126.676,250.928,125.084,251.228,123.932,251.736z M138.196,266.552c1.264-0.516,1.896-1.172,1.896-1.96s-0.5-1.412-1.492-1.876
		c-0.992-0.46-2.844-0.896-5.556-1.3v6.08C135.212,267.384,136.932,267.068,138.196,266.552z"/>
</g>
<g>
</g>
<g>
</g>
<g>
</g>
<g>
</g>
<g>
</g>
<g>
</g>
<g>
</g>
<g>
</g>
<g>
</g>
<g>
</g>
<g>
</g>
<g>
</g>
<g>
</g>
<g>
</g>
<g>
</g>
</svg>
