<?xml version="1.0" encoding="iso-8859-1"?>
<!-- Generator: Adobe Illustrator 19.0.0, SVG Export Plug-In . SVG Version: 6.00 Build 0)  -->
<svg version="1.1" id="Capa_1" xmlns="http://www.w3.org/2000/svg" xmlns:xlink="http://www.w3.org/1999/xlink" x="0px" y="0px"
	 viewBox="0 0 512 512" style="enable-background:new 0 0 512 512;" xml:space="preserve">
<circle style="fill:#4D5BA5;" cx="256" cy="256" r="256"/>
<path style="fill:#F7CFA3;" d="M464.64,348.916l0.08,0.04c2.676,1.236,1.8,5.912,0.28,8.44c0,0-9.2,8.68-28.28,11.2
	c-0.16,0.04-0.36,0.08-0.52,0.08l-8.96,6.48c-15.26,10.972-104.112,60.928-108.12,62.88c-6.88,3.44-22.24,11.76-35,23.76
	c-5.88,5.56-13.52,8.88-21.6,9c-12.848,0.212-17.62-4.432-33.8-7.32c-15.76-2.8-48.8-9.28-86.32-20.2c0,0-48.28-9.56-66.64-5.48
	c-29.08-28.84-51.32-64.64-63.92-104.68c28.168,0.12,31.644-5.044,55.28-1.44c13.356-0.12,18.776-7.108,33.76-10.32
	c19.4-4.16,62.84-10,99.2,10.08c7.2,3.96,13.36,9.52,18.44,16c3.92,5.04,14.76,11.96,44.6,9.44c0,0,25.32-5.52,48.2,0.52
	l39.56-10.56c0,0,8.68-0.36,17-5.92c0,0,21.48-11.68,34.68-3.6c0,0,23.6-15.48,36.4-12c0,0,32.64-17.76,42.52,11.56
	c0.08,0.16,0.12,0.32,0.16,0.44C481.64,337.316,471.6,348.916,464.64,348.916z"/>
<path style="fill:#F0B97C;" d="M163.904,408.916c9.86,4.644,25.588,7.14,48.784,1.34c15.536-3.888,41.064,1.936,58.476-0.672
	c4.64-0.744,21.76-8.032,49.376-8.032l-0.28,0.012c16.364-1.596,25.096-6.836,22.28-22.908c-3.796-13.82-17.296-18.088-31.216-21.24
	c33.04,3.632,40.42,21.108,33.464,37.488l0.076-0.192c-1.772,4.64-6.396,7.124-11.172,8.82c-16.572,5.968-23.12,0.336-54.364,9.38
	l0.416-0.164c-12.196,5.744-36.6,1.188-48.096,0.76C211.404,412.372,185.344,422.528,163.904,408.916z"/>
<g>
	<path style="fill:#FDFEFF;" d="M301.224,384.108c0,0-4.26,17.872,14.556,17.244c13.124,0.012,16.688,0.888,20.688-2.412
		c14.444-11.928-1.684-30.28-11.752-30.28h-11.848C312.868,368.66,301,367.092,301.224,384.108z"/>
	<path style="fill:#FDFEFF;" d="M465.304,356.756c-0.096,0.216-0.2,0.432-0.308,0.66c0,0-9.2,8.676-28.264,11.196
		c2.492-2.68,8.44-6.452,21.908-11.196C458.64,357.416,461.852,356.308,465.304,356.756z"/>
	<path style="fill:#FDFEFF;" d="M481.64,337.332c0,0-10.06,11.58-17,11.58l-2.196-2.868l9.628-6.944
		c4.936-1.548,7.788-2.092,9.424-2.212C481.548,337.036,481.592,337.18,481.64,337.332z"/>
</g>
<circle style="fill:#F5EA07;" cx="281.16" cy="253.12" r="82.928"/>
<g>
	<path style="fill:#E8BB20;" d="M281.14,324.164c-39.18,0-71.06-31.876-71.06-71.06s31.88-71.06,71.06-71.06
		s71.06,31.876,71.06,71.06S320.32,324.164,281.14,324.164z M281.14,194.576c-32.272,0-58.528,26.256-58.528,58.528
		s26.256,58.532,58.528,58.532s58.528-26.256,58.528-58.532S313.416,194.576,281.14,194.576z"/>
	<path style="fill:#E8BB20;" d="M278.864,296.072v-7.568c-9.468-0.964-17.968-4.732-25.504-11.296l7.568-9.02
		c5.808,5.044,11.784,8.048,17.936,9.02v-20.112c-7.812-1.864-13.528-4.32-17.156-7.36s-5.444-7.552-5.444-13.528
		s2.092-10.868,6.272-14.672c4.18-3.8,9.624-5.872,16.328-6.216v-5.184h6.636v5.284c7.6,0.556,14.788,3.148,21.564,7.78l-6.74,9.536
		c-4.56-3.248-9.504-5.252-14.824-6.016v19.488h0.312c7.948,1.868,13.784,4.392,17.52,7.568c3.732,3.18,5.596,7.796,5.596,13.84
		c0,6.048-2.144,10.976-6.428,14.772c-4.284,3.804-9.952,5.876-17,6.22v7.46h-6.636V296.072z M271.556,229.16
		c-1.76,1.552-2.64,3.488-2.64,5.804s0.688,4.148,2.072,5.492c1.384,1.348,4.008,2.644,7.88,3.888v-17.936
		C275.756,226.688,273.316,227.604,271.556,229.16z M293.38,274.616c1.932-1.588,2.904-3.588,2.904-6.012
		c0-2.416-0.764-4.336-2.284-5.752c-1.52-1.416-4.352-2.748-8.5-3.992v18.656C288.816,277.176,291.444,276.204,293.38,274.616z"/>
</g>
<circle style="fill:#F5EA07;" cx="165.08" cy="96.08" r="76.88"/>
<g>
	<path style="fill:#E8BB20;" d="M165.068,161.972c-36.324,0-65.88-29.552-65.88-65.88s29.556-65.88,65.88-65.88
		s65.88,29.552,65.88,65.88S201.392,161.972,165.068,161.972z M165.068,41.832c-29.92,0-54.264,24.344-54.264,54.264
		s24.344,54.264,54.264,54.264s54.264-24.344,54.264-54.264S194.988,41.832,165.068,41.832z"/>
	<path style="fill:#E8BB20;" d="M162.96,135.932v-7.016c-8.78-0.896-16.66-4.388-23.644-10.472l7.016-8.36
		c5.384,4.676,10.928,7.46,16.628,8.36V99.796c-7.244-1.728-12.54-4.004-15.904-6.824c-3.364-2.82-5.048-7-5.048-12.54
		s1.94-10.072,5.816-13.6c3.876-3.524,8.924-5.444,15.14-5.764V56.26h6.152v4.9c7.048,0.516,13.712,2.916,19.992,7.212l-6.248,8.844
		c-4.228-3.012-8.812-4.868-13.744-5.576v18.068h0.288c7.368,1.732,12.78,4.072,16.24,7.016c3.46,2.948,5.188,7.228,5.188,12.832
		c0,5.608-1.988,10.176-5.96,13.696c-3.972,3.528-9.224,5.448-15.76,5.768v6.92h-6.152V135.932z M156.18,73.896
		c-1.632,1.44-2.448,3.236-2.448,5.38c0,2.148,0.636,3.844,1.92,5.092c1.284,1.252,3.716,2.452,7.304,3.604V71.344
		C160.076,71.604,157.816,72.452,156.18,73.896z M176.416,116.036c1.792-1.472,2.692-3.328,2.692-5.572
		c0-2.24-0.708-4.02-2.116-5.336c-1.408-1.312-4.036-2.544-7.88-3.7v17.296C172.184,118.412,174.62,117.512,176.416,116.036z"/>
</g>
<circle style="fill:#F5EA07;" cx="397.2" cy="96.08" r="76.88"/>
<g>
	<path style="fill:#E8BB20;" d="M397.216,161.972c-36.324,0-65.88-29.552-65.88-65.88s29.556-65.88,65.88-65.88
		s65.88,29.552,65.88,65.88S433.54,161.972,397.216,161.972z M397.216,41.832c-29.92,0-54.264,24.344-54.264,54.264
		s24.344,54.264,54.264,54.264s54.264-24.344,54.264-54.264S427.136,41.832,397.216,41.832z"/>
	<path style="fill:#E8BB20;" d="M395.104,135.932v-7.016c-8.78-0.896-16.66-4.388-23.644-10.472l7.016-8.36
		c5.384,4.676,10.928,7.46,16.628,8.36V99.796c-7.244-1.728-12.54-4.004-15.904-6.824c-3.364-2.82-5.048-7-5.048-12.54
		s1.94-10.072,5.816-13.6c3.876-3.524,8.924-5.444,15.14-5.764V56.26h6.152v4.9c7.048,0.516,13.712,2.916,19.992,7.212l-6.248,8.844
		c-4.228-3.012-8.812-4.868-13.744-5.576v18.068h0.288c7.368,1.732,12.78,4.072,16.24,7.016c3.46,2.948,5.188,7.228,5.188,12.832
		c0,5.608-1.988,10.176-5.96,13.696c-3.972,3.528-9.224,5.448-15.76,5.768v6.92h-6.152V135.932z M388.324,73.896
		c-1.632,1.44-2.448,3.236-2.448,5.38c0,2.148,0.636,3.844,1.92,5.092c1.284,1.252,3.716,2.452,7.304,3.604V71.344
		C392.22,71.604,389.96,72.452,388.324,73.896z M408.56,116.036c1.792-1.472,2.692-3.328,2.692-5.572c0-2.24-0.708-4.02-2.116-5.336
		c-1.408-1.312-4.036-2.544-7.88-3.7v17.296C404.328,118.412,406.764,117.512,408.56,116.036z"/>
</g>
<g>
</g>
<g>
</g>
<g>
</g>
<g>
</g>
<g>
</g>
<g>
</g>
<g>
</g>
<g>
</g>
<g>
</g>
<g>
</g>
<g>
</g>
<g>
</g>
<g>
</g>
<g>
</g>
<g>
</g>
</svg>
