<?xml version="1.0" encoding="iso-8859-1"?>
<!-- Generator: Adobe Illustrator 19.0.0, SVG Export Plug-In . SVG Version: 6.00 Build 0)  -->
<svg version="1.1" id="Capa_1" xmlns="http://www.w3.org/2000/svg" xmlns:xlink="http://www.w3.org/1999/xlink" x="0px" y="0px"
	 viewBox="0 0 512 512" style="enable-background:new 0 0 512 512;" xml:space="preserve">
<circle style="fill:#70B1E1;" cx="256" cy="256" r="256"/>
<path style="fill:#656D7A;" d="M421.284,105.204H90.716c-14.24,0-25.78,11.544-25.78,25.78v249.788h382.132V130.988
	C447.068,116.748,435.524,105.204,421.284,105.204z"/>
<rect x="87.584" y="127.852" style="fill:#FDFEFF;" width="336.84" height="230.28"/>
<polygon style="fill:#D2D2D4;" points="490.864,403.132 21.136,403.132 64.932,380.768 447.068,380.768 "/>
<path id="SVGCleanerId_0" style="fill:#656D7A;" d="M470.976,423.02H41.024c-10.984,0-19.888-8.904-19.888-19.888l0,0h469.732l0,0
	C490.864,414.116,481.96,423.02,470.976,423.02z"/>
<g>
	<path id="SVGCleanerId_0_1_" style="fill:#656D7A;" d="M470.976,423.02H41.024c-10.984,0-19.888-8.904-19.888-19.888l0,0h469.732
		l0,0C490.864,414.116,481.96,423.02,470.976,423.02z"/>
</g>
<rect x="222.788" y="403.12" style="fill:#4D535F;" width="66.424" height="19.888"/>
<path style="fill:#E8BB20;" d="M244.128,281.876V245.24c-11.424-3.264-19.804-8.204-25.136-14.82s-8-14.644-8-24.088
	c0-9.56,3.016-17.588,9.048-24.088s14.064-10.244,24.088-11.236v-8.656h12.68v8.656c9.268,1.108,16.64,4.268,22.12,9.488
	c5.48,5.216,8.976,12.196,10.492,20.94l-22.12,2.884c-1.34-6.88-4.84-11.54-10.492-13.988v34.188
	c13.988,3.788,23.52,8.7,28.592,14.732c5.072,6.032,7.608,13.772,7.608,23.216c0,10.552-3.192,19.44-9.576,26.668
	s-15.256,11.66-26.624,13.292v16.352h-12.68v-15.912c-10.084-1.224-18.272-4.984-24.568-11.28
	c-6.296-6.296-10.316-15.184-12.068-26.668l22.82-2.448c0.932,4.664,2.68,8.684,5.248,12.068
	C238.124,277.912,240.98,280.36,244.128,281.876z M244.128,190.068c-3.44,1.164-6.18,3.148-8.22,5.944
	c-2.04,2.796-3.06,5.888-3.06,9.268c0,3.088,0.932,5.96,2.796,8.612s4.692,4.796,8.48,6.428v-30.252H244.128z M256.804,283.1
	c4.372-0.816,7.928-2.84,10.668-6.076s4.108-7.04,4.108-11.412c0-3.904-1.152-7.272-3.452-10.1c-2.304-2.828-6.076-5-11.324-6.512
	V283.1z"/>
<polygon style="fill:#4D535F;" points="303.6,255.54 293.952,261.352 310.824,278.224 299.008,290.04 282.132,273.168 
	276.324,282.82 269.936,249.164 "/>
<g>
</g>
<g>
</g>
<g>
</g>
<g>
</g>
<g>
</g>
<g>
</g>
<g>
</g>
<g>
</g>
<g>
</g>
<g>
</g>
<g>
</g>
<g>
</g>
<g>
</g>
<g>
</g>
<g>
</g>
</svg>
