<?xml version="1.0" encoding="iso-8859-1"?>
<!-- Generator: Adobe Illustrator 19.0.0, SVG Export Plug-In . SVG Version: 6.00 Build 0)  -->
<svg version="1.1" id="Capa_1" xmlns="http://www.w3.org/2000/svg" xmlns:xlink="http://www.w3.org/1999/xlink" x="0px" y="0px"
	 viewBox="0 0 512 512" style="enable-background:new 0 0 512 512;" xml:space="preserve">
<circle style="fill:#EE4C68;" cx="256" cy="256" r="256"/>
<path style="fill:#FDFEFF;" d="M303.068,245.02c-7.66,5.28-7.66,16.684,0,21.964c26.552,18.296,43.956,48.916,43.956,83.604v41.028
	H164.976v-41.028c0-34.688,17.404-65.304,43.956-83.604c7.66-5.28,7.66-16.684,0-21.964c-26.552-18.3-43.96-48.92-43.96-83.604
	v-41.032H347.02v41.028C347.024,196.1,329.62,226.72,303.068,245.02z"/>
<rect x="153.64" y="104.16" style="fill:#4D535F;" width="204.68" height="28.16"/>
<rect x="134.168" y="76" style="fill:#656D7A;" width="243.664" height="28.16"/>
<path style="fill:#F5EA07;" d="M336.132,374.084v6.64H175.868v-6.64c0-22.132,20.032-42.164,40.068-56.664
	c9.664-6.992,31.224-17.492,31.224-46.14l0,0c0-17.2-9.324-33.144-24.48-41.272c-9.016-4.836-16.86-11.576-22.992-19.676
	c-9.228-12.184,4.432-28.36,18.04-21.412c11.876,6.064,25.536,11.064,38.276,11.064c12.74,0,26.4-5,38.276-11.064
	c13.608-6.948,27.268,9.228,18.04,21.412c-6.136,8.1-13.976,14.84-22.992,19.676c-15.156,8.132-24.48,24.076-24.48,41.272l0,0
	c0,15.912,8.016,30.796,21.384,39.428C308.932,325.364,336.132,348.3,336.132,374.084z"/>
<rect x="153.64" y="379.64" style="fill:#4D535F;" width="204.68" height="28.16"/>
<rect x="134.168" y="407.84" style="fill:#656D7A;" width="243.664" height="28.16"/>
<circle style="fill:#E8BB20;" cx="207.62" cy="351.48" r="24.12"/>
<g>
	<path style="fill:#DA8D27;" d="M192.448,347.444c-2.028,5.476-0.304,12.116,4.74,16.376s11.876,4.848,16.94,1.936L192.448,347.444z
		"/>
	<path style="fill:#DA8D27;" d="M201.848,343.272l0.616-0.732c-0.836-0.864-1.348-1.924-1.54-3.172l1.468-0.252
		c0.148,0.96,0.48,1.74,0.996,2.332l1.64-1.944c-0.604-0.816-0.952-1.52-1.056-2.112c-0.104-0.588,0.092-1.172,0.576-1.752
		c0.488-0.576,1.088-0.88,1.804-0.904c0.712-0.028,1.408,0.22,2.084,0.732l0.424-0.5l0.64,0.54l-0.432,0.512
		c0.688,0.672,1.172,1.512,1.448,2.508l-1.428,0.372c-0.176-0.684-0.488-1.284-0.94-1.788l-1.588,1.88l0.032,0.024
		c0.616,0.828,0.972,1.548,1.076,2.16c0.1,0.612-0.096,1.208-0.588,1.792c-0.492,0.584-1.104,0.884-1.824,0.904
		c-0.724,0.016-1.44-0.244-2.148-0.784l-0.608,0.72L201.848,343.272z M206.6,336.216c-0.296,0.008-0.54,0.12-0.728,0.344
		s-0.272,0.456-0.248,0.7c0.024,0.244,0.172,0.584,0.444,1.02l1.464-1.732C207.208,336.32,206.9,336.208,206.6,336.216z
		 M205,342.384c0.316,0.004,0.572-0.108,0.772-0.344c0.196-0.232,0.28-0.48,0.248-0.74c-0.032-0.26-0.196-0.62-0.496-1.08l-1.52,1.8
		C204.352,342.26,204.684,342.38,205,342.384z"/>
	<path style="fill:#DA8D27;" d="M216.224,355.416l0.616-0.732c-0.836-0.864-1.348-1.924-1.54-3.172l1.468-0.252
		c0.148,0.96,0.48,1.74,0.996,2.332l1.64-1.944c-0.604-0.816-0.952-1.52-1.056-2.112c-0.104-0.588,0.092-1.172,0.576-1.752
		c0.488-0.576,1.088-0.88,1.804-0.904c0.712-0.028,1.408,0.22,2.084,0.732l0.424-0.5l0.64,0.54l-0.432,0.512
		c0.688,0.672,1.172,1.512,1.448,2.508l-1.428,0.372c-0.176-0.684-0.488-1.284-0.94-1.788l-1.588,1.88l0.032,0.024
		c0.616,0.828,0.972,1.548,1.076,2.16c0.1,0.612-0.096,1.208-0.588,1.792c-0.492,0.584-1.104,0.884-1.824,0.904
		c-0.724,0.016-1.44-0.244-2.148-0.784l-0.608,0.72L216.224,355.416z M220.976,348.356c-0.296,0.008-0.54,0.12-0.728,0.344
		c-0.188,0.228-0.272,0.46-0.248,0.7c0.024,0.244,0.172,0.584,0.444,1.02l1.464-1.732
		C221.584,348.46,221.272,348.352,220.976,348.356z M219.376,354.528c0.316,0.004,0.572-0.108,0.772-0.344
		c0.196-0.232,0.28-0.48,0.248-0.74c-0.032-0.26-0.196-0.62-0.496-1.08l-1.52,1.8C218.728,354.4,219.06,354.524,219.376,354.528z"/>
</g>
<circle style="fill:#E8BB20;" cx="212.24" cy="167.156" r="25.208"/>
<g>
	<path style="fill:#DA8D27;" d="M197.42,174.176c2.076,5.736,7.924,9.872,14.82,9.872s12.744-4.136,14.82-9.872H197.42z"/>
	<path style="fill:#DA8D27;" d="M202.112,164.508v-1c-1.252-0.128-2.372-0.624-3.368-1.492l1-1.192
		c0.768,0.668,1.556,1.064,2.368,1.192v-2.656c-1.032-0.248-1.788-0.572-2.264-0.972c-0.48-0.4-0.72-0.996-0.72-1.788
		s0.276-1.436,0.828-1.936s1.272-0.776,2.156-0.82v-0.684h0.876v0.696c1.004,0.072,1.952,0.416,2.848,1.028l-0.888,1.26
		c-0.604-0.428-1.256-0.692-1.956-0.796v2.572h0.04c1.048,0.248,1.82,0.58,2.312,1c0.492,0.42,0.74,1.028,0.74,1.828
		s-0.284,1.448-0.848,1.952c-0.564,0.504-1.312,0.776-2.244,0.82v0.984h-0.88V164.508z M201.144,155.672
		c-0.232,0.204-0.348,0.46-0.348,0.768s0.092,0.548,0.272,0.724c0.184,0.18,0.528,0.348,1.04,0.512v-2.368
		C201.7,155.348,201.376,155.468,201.144,155.672z M204.028,161.676c0.256-0.208,0.384-0.472,0.384-0.792s-0.1-0.572-0.3-0.76
		c-0.2-0.188-0.576-0.364-1.124-0.528v2.464C203.424,162.012,203.772,161.884,204.028,161.676z"/>
	<path style="fill:#DA8D27;" d="M221.764,164.508v-1c-1.252-0.128-2.372-0.624-3.368-1.492l1-1.192
		c0.768,0.668,1.556,1.064,2.368,1.192v-2.656c-1.032-0.248-1.788-0.572-2.264-0.972c-0.48-0.4-0.72-0.996-0.72-1.788
		s0.276-1.436,0.828-1.936s1.272-0.776,2.156-0.82v-0.684h0.876v0.696c1.004,0.072,1.952,0.416,2.848,1.028l-0.888,1.26
		c-0.604-0.428-1.256-0.692-1.956-0.796v2.572h0.04c1.048,0.248,1.82,0.58,2.312,1c0.492,0.42,0.74,1.028,0.74,1.828
		s-0.284,1.448-0.848,1.952c-0.564,0.504-1.312,0.776-2.244,0.82v0.984h-0.88V164.508z M220.8,155.672
		c-0.232,0.204-0.348,0.46-0.348,0.768s0.092,0.548,0.272,0.724c0.184,0.18,0.528,0.348,1.04,0.512v-2.368
		C221.356,155.348,221.032,155.468,220.8,155.672z M223.684,161.676c0.256-0.208,0.384-0.472,0.384-0.792s-0.1-0.572-0.3-0.76
		c-0.2-0.188-0.576-0.364-1.124-0.528v2.464C223.08,162.012,223.428,161.884,223.684,161.676z"/>
</g>
<circle style="fill:#E8BB20;" cx="256" cy="222" r="18.552"/>
<g>
	<path style="fill:#DA8D27;" d="M245.092,227.148c1.528,4.22,5.832,7.264,10.908,7.264c5.076,0,9.38-3.044,10.908-7.264
		L245.092,227.148L245.092,227.148z"/>
	<path style="fill:#DA8D27;" d="M248.548,220.032v-0.736c-0.92-0.092-1.744-0.46-2.476-1.096l0.736-0.876
		c0.564,0.492,1.144,0.78,1.744,0.876v-1.956c-0.76-0.18-1.316-0.42-1.668-0.716s-0.528-0.732-0.528-1.316s0.204-1.056,0.608-1.424
		c0.408-0.368,0.936-0.572,1.588-0.604v-0.504h0.644v0.512c0.74,0.056,1.436,0.304,2.096,0.756l-0.656,0.928
		c-0.444-0.316-0.924-0.512-1.44-0.584v1.892h0.032c0.772,0.18,1.34,0.428,1.704,0.736s0.544,0.756,0.544,1.344
		s-0.208,1.068-0.624,1.436c-0.416,0.368-0.968,0.572-1.652,0.604v0.724h-0.652V220.032z M247.836,213.532
		c-0.172,0.152-0.256,0.34-0.256,0.564s0.068,0.404,0.2,0.532c0.136,0.132,0.388,0.256,0.764,0.376v-1.744
		C248.244,213.292,248.008,213.38,247.836,213.532z M249.956,217.948c0.188-0.156,0.28-0.348,0.28-0.584s-0.076-0.42-0.22-0.56
		c-0.148-0.136-0.424-0.268-0.824-0.388v1.812C249.512,218.196,249.768,218.1,249.956,217.948z"/>
	<path style="fill:#DA8D27;" d="M263.012,220.032v-0.736c-0.92-0.092-1.744-0.46-2.476-1.096l0.736-0.876
		c0.564,0.492,1.144,0.78,1.744,0.876v-1.956c-0.76-0.18-1.316-0.42-1.668-0.716s-0.528-0.732-0.528-1.316s0.204-1.056,0.608-1.424
		c0.408-0.368,0.936-0.572,1.588-0.604v-0.504h0.644v0.512c0.74,0.056,1.436,0.304,2.096,0.756l-0.656,0.928
		c-0.444-0.316-0.924-0.512-1.44-0.584v1.892h0.032c0.772,0.18,1.34,0.428,1.704,0.736s0.544,0.756,0.544,1.344
		s-0.208,1.068-0.624,1.436c-0.416,0.368-0.968,0.572-1.652,0.604v0.724h-0.652V220.032z M262.3,213.532
		c-0.172,0.152-0.256,0.34-0.256,0.564s0.068,0.404,0.2,0.532c0.136,0.132,0.388,0.256,0.764,0.376v-1.744
		C262.708,213.292,262.472,213.38,262.3,213.532z M264.42,217.948c0.188-0.156,0.28-0.348,0.28-0.584s-0.076-0.42-0.22-0.56
		c-0.148-0.136-0.424-0.268-0.824-0.388v1.812C263.976,218.196,264.232,218.1,264.42,217.948z"/>
</g>
<circle style="fill:#E8BB20;" cx="256" cy="303" r="22.528"/>
<g>
	<path style="fill:#DA8D27;" d="M242.756,309.288c1.856,5.128,7.08,8.824,13.244,8.824s11.388-3.696,13.244-8.824H242.756z"/>
	<path style="fill:#DA8D27;" d="M246.948,300.652v-0.892c-1.116-0.112-2.12-0.56-3.008-1.332l0.892-1.064
		c0.684,0.596,1.392,0.948,2.116,1.064v-2.372c-0.92-0.22-1.596-0.508-2.024-0.868c-0.428-0.36-0.644-0.892-0.644-1.596
		s0.248-1.284,0.74-1.732s1.136-0.692,1.928-0.732v-0.612h0.784v0.624c0.896,0.064,1.744,0.372,2.544,0.916l-0.796,1.124
		c-0.54-0.384-1.12-0.62-1.748-0.708v2.3h0.036c0.936,0.22,1.628,0.52,2.068,0.892c0.44,0.376,0.66,0.92,0.66,1.632
		c0,0.712-0.252,1.296-0.76,1.744c-0.504,0.448-1.176,0.692-2.004,0.736v0.88h-0.784V300.652z M246.084,292.756
		c-0.208,0.184-0.312,0.412-0.312,0.684s0.08,0.488,0.244,0.648s0.472,0.312,0.928,0.46v-2.116
		C246.58,292.464,246.292,292.572,246.084,292.756z M248.66,298.12c0.228-0.188,0.344-0.424,0.344-0.708s-0.092-0.512-0.268-0.68
		c-0.18-0.168-0.512-0.324-1.004-0.472v2.2C248.12,298.42,248.432,298.308,248.66,298.12z"/>
	<path style="fill:#DA8D27;" d="M264.512,300.652v-0.892c-1.116-0.112-2.12-0.56-3.008-1.332l0.892-1.064
		c0.684,0.596,1.392,0.948,2.116,1.064v-2.372c-0.92-0.22-1.596-0.508-2.024-0.868c-0.428-0.36-0.644-0.892-0.644-1.596
		s0.248-1.284,0.74-1.732s1.136-0.692,1.928-0.732v-0.612h0.784v0.624c0.896,0.064,1.744,0.372,2.544,0.916l-0.796,1.124
		c-0.54-0.384-1.12-0.62-1.748-0.708v2.3h0.036c0.936,0.22,1.628,0.52,2.068,0.892c0.44,0.376,0.66,0.92,0.66,1.632
		c0,0.712-0.252,1.296-0.76,1.744c-0.504,0.448-1.176,0.692-2.004,0.736v0.88h-0.784V300.652z M263.652,292.756
		c-0.208,0.184-0.312,0.412-0.312,0.684s0.08,0.488,0.244,0.648s0.472,0.312,0.928,0.46v-2.116
		C264.148,292.464,263.86,292.572,263.652,292.756z M266.224,298.12c0.228-0.188,0.344-0.424,0.344-0.708s-0.092-0.512-0.268-0.68
		s-0.512-0.324-1.004-0.472v2.2C265.688,298.42,265.996,298.308,266.224,298.12z"/>
</g>
<circle style="fill:#E8BB20;" cx="286.48" cy="182.112" r="18.552"/>
<g>
	<path style="fill:#DA8D27;" d="M275.568,187.276c1.528,4.22,5.832,7.264,10.908,7.264s9.38-3.044,10.908-7.264H275.568z"/>
	<path style="fill:#DA8D27;" d="M279.02,180.164v-0.736c-0.92-0.092-1.744-0.46-2.476-1.096l0.736-0.876
		c0.564,0.492,1.144,0.78,1.744,0.876v-1.956c-0.76-0.18-1.316-0.42-1.668-0.716s-0.528-0.732-0.528-1.316s0.204-1.056,0.608-1.424
		c0.408-0.368,0.936-0.572,1.588-0.604v-0.504h0.644v0.512c0.74,0.056,1.436,0.304,2.096,0.756l-0.656,0.928
		c-0.444-0.316-0.924-0.512-1.44-0.584v1.892h0.032c0.772,0.18,1.34,0.428,1.704,0.736s0.544,0.756,0.544,1.344
		s-0.208,1.068-0.624,1.436c-0.416,0.368-0.968,0.572-1.652,0.604v0.724h-0.652V180.164z M278.308,173.664
		c-0.172,0.152-0.256,0.34-0.256,0.564s0.068,0.404,0.2,0.532c0.136,0.132,0.388,0.256,0.764,0.376v-1.744
		C278.72,173.424,278.48,173.512,278.308,173.664z M280.432,178.08c0.188-0.156,0.28-0.348,0.28-0.584s-0.076-0.42-0.22-0.56
		c-0.148-0.136-0.424-0.268-0.824-0.388v1.812C279.988,178.328,280.244,178.232,280.432,178.08z"/>
	<path style="fill:#DA8D27;" d="M293.484,180.164v-0.736c-0.92-0.092-1.744-0.46-2.476-1.096l0.736-0.876
		c0.564,0.492,1.144,0.78,1.744,0.876v-1.956c-0.76-0.18-1.316-0.42-1.668-0.716s-0.528-0.732-0.528-1.316s0.204-1.056,0.608-1.424
		c0.408-0.368,0.936-0.572,1.588-0.604v-0.504h0.644v0.512c0.74,0.056,1.436,0.304,2.096,0.756l-0.656,0.928
		c-0.444-0.316-0.924-0.512-1.44-0.584v1.892h0.032c0.772,0.18,1.34,0.428,1.704,0.736s0.544,0.756,0.544,1.344
		s-0.208,1.068-0.624,1.436c-0.416,0.368-0.968,0.572-1.652,0.604v0.724h-0.652V180.164z M292.776,173.664
		c-0.172,0.152-0.256,0.34-0.256,0.564s0.068,0.404,0.2,0.532c0.136,0.132,0.388,0.256,0.764,0.376v-1.744
		C293.184,173.424,292.944,173.512,292.776,173.664z M294.896,178.08c0.188-0.156,0.28-0.348,0.28-0.584s-0.076-0.42-0.22-0.56
		c-0.148-0.136-0.424-0.268-0.824-0.388v1.812C294.452,178.328,294.708,178.232,294.896,178.08z"/>
</g>
<circle style="fill:#E8BB20;" cx="277.32" cy="357.52" r="18.14"/>
<g>
	<path style="fill:#DA8D27;" d="M273.2,368.564c3.952,1.912,9.04,1.104,12.592-2.36s4.488-8.532,2.676-12.532L273.2,368.564z"/>
	<path style="fill:#DA8D27;" d="M270.76,361.224l-0.5-0.516c-0.708,0.564-1.536,0.868-2.484,0.924l-0.084-1.116
		c0.728-0.044,1.336-0.236,1.816-0.576l-1.332-1.368c-0.656,0.392-1.208,0.604-1.656,0.636c-0.448,0.032-0.872-0.152-1.268-0.56
		s-0.58-0.876-0.548-1.412c0.032-0.536,0.264-1.036,0.7-1.504l-0.344-0.352l0.452-0.44l0.352,0.36
		c0.552-0.468,1.216-0.768,1.984-0.9l0.176,1.096c-0.524,0.08-0.996,0.272-1.408,0.576l1.292,1.324l0.02-0.02
		c0.664-0.4,1.228-0.616,1.692-0.648s0.896,0.16,1.3,0.572c0.4,0.412,0.584,0.888,0.544,1.432s-0.288,1.06-0.744,1.552l0.496,0.508
		L270.76,361.224z M265.828,357.16c-0.016,0.224,0.052,0.412,0.204,0.568s0.32,0.236,0.504,0.236s0.448-0.084,0.792-0.26
		l-1.188-1.22C265.948,356.712,265.844,356.936,265.828,357.16z M270.324,358.804c0.028-0.236-0.04-0.436-0.2-0.6
		s-0.34-0.244-0.536-0.24s-0.48,0.1-0.844,0.292l1.236,1.268C270.184,359.28,270.3,359.04,270.324,358.804z"/>
	<path style="fill:#DA8D27;" d="M280.888,351.352l-0.5-0.516c-0.708,0.564-1.536,0.868-2.484,0.924l-0.084-1.116
		c0.728-0.044,1.336-0.236,1.816-0.576l-1.332-1.368c-0.656,0.392-1.208,0.604-1.656,0.636c-0.448,0.032-0.872-0.152-1.268-0.56
		s-0.58-0.876-0.548-1.412c0.032-0.536,0.264-1.036,0.7-1.504l-0.344-0.352l0.452-0.44l0.352,0.36
		c0.552-0.468,1.216-0.768,1.984-0.9l0.176,1.096c-0.524,0.08-0.996,0.272-1.408,0.576l1.292,1.324l0.02-0.02
		c0.664-0.4,1.228-0.616,1.692-0.648s0.896,0.16,1.3,0.572c0.4,0.412,0.584,0.888,0.544,1.432s-0.288,1.06-0.744,1.552l0.496,0.508
		L280.888,351.352z M275.952,347.284c-0.016,0.224,0.052,0.412,0.204,0.568s0.32,0.236,0.504,0.236s0.448-0.084,0.792-0.26
		l-1.188-1.22C276.072,346.84,275.968,347.064,275.952,347.284z M280.452,348.928c0.028-0.236-0.04-0.436-0.2-0.6
		s-0.34-0.244-0.536-0.24s-0.48,0.1-0.844,0.292l1.236,1.268C280.308,349.408,280.424,349.168,280.452,348.928z"/>
</g>
<g>
</g>
<g>
</g>
<g>
</g>
<g>
</g>
<g>
</g>
<g>
</g>
<g>
</g>
<g>
</g>
<g>
</g>
<g>
</g>
<g>
</g>
<g>
</g>
<g>
</g>
<g>
</g>
<g>
</g>
</svg>
