<?xml version="1.0" encoding="iso-8859-1"?>
<!-- Generator: Adobe Illustrator 19.0.0, SVG Export Plug-In . SVG Version: 6.00 Build 0)  -->
<svg version="1.1" id="Capa_1" xmlns="http://www.w3.org/2000/svg" xmlns:xlink="http://www.w3.org/1999/xlink" x="0px" y="0px"
	 viewBox="0 0 512 512" style="enable-background:new 0 0 512 512;" xml:space="preserve">
<circle style="fill:#70B1E1;" cx="256" cy="256" r="256"/>
<path style="fill:#656D7A;" d="M443.168,162.876H68.832c-7.9,0-14.304,6.404-14.304,14.304v219.48h402.948V177.18
	C457.476,169.28,451.068,162.876,443.168,162.876z"/>
<rect x="76.48" y="184.84" style="fill:#FDFEFF;" width="359.04" height="189.8"/>
<path style="fill:#4D535F;" d="M42.056,396.664v31.748c0,9.64,7.812,17.452,17.452,17.452h392.98c9.64,0,17.452-7.816,17.452-17.452
	v-31.748H42.056z"/>
<polygon style="fill:#353944;" points="293.74,396.664 218.26,396.664 222.544,412.208 289.456,412.208 "/>
<rect x="81.904" y="91.196" style="fill:#656D7A;" width="348.2" height="35.416"/>
<polygon style="fill:#F1592F;" points="81.848,121.488 34.352,186.132 97.68,186.132 131.604,121.488 "/>
<polygon style="fill:#F5EA07;" points="131.604,121.488 97.68,186.132 161.008,186.132 181.364,121.488 "/>
<polygon style="fill:#F1592F;" points="181.364,121.488 161.008,186.132 224.336,186.132 231.12,121.488 "/>
<polygon style="fill:#F5EA07;" points="231.12,121.488 224.336,186.132 287.664,186.132 280.88,121.488 "/>
<polygon style="fill:#F1592F;" points="280.88,121.488 287.664,186.132 350.992,186.132 330.636,121.488 "/>
<polygon style="fill:#F5EA07;" points="330.636,121.488 350.992,186.132 414.32,186.132 380.396,121.488 "/>
<polygon style="fill:#F1592F;" points="380.396,121.488 414.32,186.132 477.648,186.132 430.152,121.488 "/>
<g>
	<path style="fill:#E8BB20;" d="M224.336,186.112h63.344v13.016c0,17.432-14.192,31.624-31.72,31.624
		c-17.432,0-31.624-14.192-31.624-31.624V186.112z"/>
	<path style="fill:#E8BB20;" d="M414.272,186.112v13.016c0,17.432-14.096,31.624-31.624,31.624
		c-17.528,0-31.624-14.192-31.624-31.624v-13.016L414.272,186.112L414.272,186.112z"/>
	<path style="fill:#E8BB20;" d="M97.648,186.112h63.344v13.016c0,17.432-14.192,31.624-31.624,31.624
		c-17.528,0-31.72-14.192-31.72-31.624C97.648,199.128,97.648,186.112,97.648,186.112z"/>
</g>
<g>
	<path style="fill:#E34E30;" d="M477.616,186.112v13.016c0,17.432-14.192,31.624-31.624,31.624c-17.528,0-31.72-14.192-31.72-31.624
		v-13.016L477.616,186.112L477.616,186.112z"/>
	<path style="fill:#E34E30;" d="M160.992,186.112h63.344v13.016c0,17.432-14.192,31.624-31.624,31.624
		c-17.528,0-31.72-14.192-31.72-31.624V186.112z"/>
	<path style="fill:#E34E30;" d="M287.68,186.112h63.344v13.016c0,17.432-14.192,31.624-31.72,31.624
		c-17.432,0-31.624-14.192-31.624-31.624V186.112z"/>
	<path style="fill:#E34E30;" d="M34.4,186.112h63.248v13.016c0,17.432-14.096,31.624-31.624,31.624S34.4,216.564,34.4,199.132
		V186.112z"/>
</g>
<g>
	<path style="fill:#F1592F;" d="M101.956,304.172l8.992-0.876c0.54,3.02,1.64,5.236,3.292,6.648
		c1.656,1.416,3.888,2.124,6.696,2.124c2.976,0,5.22-0.628,6.728-1.888c1.508-1.26,2.264-2.732,2.264-4.416
		c0-1.084-0.316-2.004-0.952-2.764s-1.744-1.42-3.324-1.984c-1.084-0.376-3.548-1.04-7.4-2c-4.952-1.228-8.428-2.736-10.428-4.528
		c-2.808-2.52-4.216-5.588-4.216-9.212c0-2.332,0.66-4.512,1.984-6.54c1.32-2.028,3.228-3.576,5.712-4.636
		c2.488-1.06,5.488-1.592,9.008-1.592c5.744,0,10.068,1.26,12.972,3.776c2.904,2.52,4.428,5.88,4.572,10.084l-9.24,0.404
		c-0.396-2.352-1.244-4.044-2.544-5.072c-1.3-1.032-3.252-1.544-5.852-1.544c-2.684,0-4.788,0.552-6.308,1.656
		c-0.98,0.708-1.468,1.656-1.468,2.84c0,1.084,0.456,2.008,1.372,2.78c1.164,0.98,3.996,2,8.492,3.06
		c4.496,1.06,7.82,2.16,9.976,3.292c2.156,1.136,3.84,2.684,5.056,4.652c1.216,1.968,1.828,4.396,1.828,7.292
		c0,2.624-0.728,5.08-2.184,7.368c-1.456,2.288-3.516,3.992-6.18,5.104c-2.664,1.112-5.984,1.672-9.96,1.672
		c-5.788,0-10.228-1.336-13.332-4.012C104.412,313.192,102.56,309.292,101.956,304.172z"/>
	<path style="fill:#F1592F;" d="M188.216,319.064h-10.052l-3.996-10.396h-18.296l-3.776,10.396h-9.804l17.828-45.768h9.772
		L188.216,319.064z M171.204,300.956l-6.308-16.984l-6.18,16.984H171.204z"/>
	<path style="fill:#F1592F;" d="M193.368,319.064v-45.392h9.24v37.684h22.98v7.712h-32.22V319.064z"/>
	<path style="fill:#F1592F;" d="M232.176,319.064v-45.768h33.936v7.744h-24.696v10.148h22.98v7.712h-22.98v12.456h25.568v7.712
		h-34.808V319.064z"/>
	<polygon style="fill:#F1592F;" points="413.184,311.924 404.532,316.916 407.116,326.576 397.46,329.16 397.46,339.16 
		387.46,339.16 384.872,348.808 375.224,346.22 370.22,354.884 361.568,349.88 354.496,356.952 347.424,349.88 338.768,354.884 
		333.764,346.22 324.116,348.808 321.528,339.16 311.532,339.16 311.532,329.16 301.884,326.576 304.472,316.928 295.808,311.924 
		300.812,303.268 293.74,296.196 300.812,289.124 295.808,280.472 304.472,275.464 301.884,265.82 311.532,263.232 311.532,253.232 
		321.528,253.232 324.116,243.572 333.776,246.16 338.768,237.508 347.424,242.512 354.496,235.44 361.568,242.512 370.22,237.508 
		375.216,246.16 384.872,243.572 387.46,253.232 397.46,253.232 397.46,263.232 407.116,265.82 404.532,275.476 413.184,280.472 
		408.18,289.124 415.252,296.196 408.18,303.268 	"/>
</g>
<path style="fill:#FDFEFF;" d="M319.452,279.572c0-5.628,1.236-9.796,3.704-12.508c2.472-2.712,5.82-4.068,10.048-4.068
	c4.368,0,7.792,1.348,10.26,4.048c2.472,2.7,3.704,6.876,3.704,12.532c0,5.628-1.236,9.796-3.704,12.508
	c-2.472,2.712-5.82,4.068-10.048,4.068c-4.368,0-7.792-1.348-10.26-4.048S319.452,285.228,319.452,279.572z M328.832,279.488
	c0,4.084,0.472,6.828,1.412,8.224c0.716,1.028,1.7,1.544,2.956,1.544c1.284,0,2.284-0.516,3-1.544c0.912-1.4,1.372-4.14,1.372-8.224
	s-0.456-6.812-1.372-8.184c-0.716-1.056-1.712-1.584-3-1.584c-1.256,0-2.244,0.516-2.956,1.544
	C329.304,272.66,328.832,275.404,328.832,279.488z M342.372,329.272h-8.912l33.46-66.276h8.656L342.372,329.272z M361.82,312.776
	c0-5.628,1.236-9.796,3.704-12.508c2.472-2.712,5.848-4.068,10.132-4.068c4.312,0,7.704,1.356,10.176,4.068
	s3.704,6.884,3.704,12.508c0,5.656-1.236,9.84-3.704,12.552c-2.472,2.712-5.82,4.068-10.048,4.068c-4.368,0-7.792-1.356-10.26-4.068
	C363.056,322.616,361.82,318.432,361.82,312.776z M371.204,312.732c0,4.084,0.472,6.812,1.412,8.184
	c0.716,1.056,1.7,1.584,2.956,1.584c1.284,0,2.272-0.516,2.956-1.544c0.944-1.4,1.412-4.14,1.412-8.224s-0.456-6.828-1.372-8.224
	c-0.716-1.028-1.712-1.544-3-1.544s-2.272,0.516-2.956,1.544C371.676,305.908,371.204,308.648,371.204,312.732z"/>
<g>
</g>
<g>
</g>
<g>
</g>
<g>
</g>
<g>
</g>
<g>
</g>
<g>
</g>
<g>
</g>
<g>
</g>
<g>
</g>
<g>
</g>
<g>
</g>
<g>
</g>
<g>
</g>
<g>
</g>
</svg>
