<?xml version="1.0" encoding="iso-8859-1"?>
<!-- Generator: Adobe Illustrator 19.0.0, SVG Export Plug-In . SVG Version: 6.00 Build 0)  -->
<svg version="1.1" id="Capa_1" xmlns="http://www.w3.org/2000/svg" xmlns:xlink="http://www.w3.org/1999/xlink" x="0px" y="0px"
	 viewBox="0 0 512 512" style="enable-background:new 0 0 512 512;" xml:space="preserve">
<circle style="fill:#F5EA07;" cx="256" cy="256" r="256"/>
<path style="fill:#656D7A;" d="M339.824,76H172.176c-14.436,0-26.144,11.704-26.144,26.14v307.716
	c0,14.436,11.704,26.144,26.144,26.144H339.82c14.436,0,26.14-11.704,26.14-26.144V102.144C365.964,87.704,354.26,76,339.824,76z"/>
<g>
	<path style="fill:#4D535F;" d="M277.392,98.104h-42.784c-2.356,0-4.264,1.912-4.264,4.264v0.46c0,2.356,1.908,4.264,4.264,4.264
		h42.788c2.356,0,4.264-1.912,4.264-4.264v-0.46C281.66,100.016,279.748,98.104,277.392,98.104z"/>
	<circle style="fill:#4D535F;" cx="256" cy="414.56" r="9.524"/>
</g>
<rect x="157.52" y="120.44" style="fill:#FDFEFF;" width="196.96" height="273.2"/>
<circle style="fill:#F5EA07;" cx="256" cy="257" r="39.016"/>
<g>
	<path style="fill:#E8BB20;" d="M256,290.348c-18.38,0-33.332-14.952-33.332-33.336c0-18.38,14.952-33.332,33.332-33.332
		s33.332,14.952,33.332,33.332C289.332,275.396,274.38,290.348,256,290.348z M256,229.024c-15.432,0-27.992,12.556-27.992,27.992
		s12.556,27.992,27.992,27.992s27.992-12.556,27.992-27.992S271.432,229.024,256,229.024z"/>
	<path style="fill:#E8BB20;" d="M254.412,267.736v-9.508c-2.964-0.848-5.14-2.128-6.524-3.848c-1.384-1.716-2.076-3.8-2.076-6.252
		c0-2.48,0.784-4.564,2.348-6.252c1.564-1.688,3.648-2.66,6.252-2.916v-2.248h3.292v2.248c2.404,0.288,4.32,1.108,5.74,2.464
		c1.424,1.356,2.328,3.164,2.724,5.436l-5.74,0.748c-0.348-1.784-1.256-2.996-2.724-3.632v8.872c3.632,0.984,6.104,2.256,7.42,3.824
		c1.316,1.564,1.976,3.576,1.976,6.024c0,2.74-0.828,5.044-2.484,6.92s-3.96,3.024-6.912,3.448v4.244h-3.292v-4.132
		c-2.616-0.316-4.744-1.292-6.376-2.928c-1.632-1.632-2.676-3.94-3.132-6.92l5.924-0.636c0.244,1.212,0.696,2.256,1.36,3.132
		C252.852,266.708,253.596,267.344,254.412,267.736z M254.412,243.908c-0.892,0.304-1.604,0.816-2.132,1.544
		c-0.528,0.728-0.796,1.528-0.796,2.404c0,0.8,0.244,1.548,0.728,2.236s1.216,1.244,2.2,1.668L254.412,243.908L254.412,243.908z
		 M257.704,268.056c1.136-0.212,2.056-0.736,2.768-1.576s1.068-1.828,1.068-2.96c0-1.012-0.3-1.888-0.896-2.62
		s-1.576-1.296-2.94-1.692V268.056z"/>
</g>
<polygon style="fill:#7EC359;" points="198.152,315.104 233.496,314.8 221.388,281.6 "/>
<g>
	<polygon style="fill:#F1592F;" points="290.612,232.428 278.504,199.224 313.844,198.92 	"/>
	<path style="fill:#F1592F;" d="M299.584,204.244l-7.7,11.104c41.492,35.656,10.544,103.936-43.848,96.092l-8.34,12.032
		C310.168,340.72,355.36,250.24,299.584,204.244z"/>
</g>
<path style="fill:#7EC359;" d="M263.96,202.588l8.34-12.032c-70.468-17.248-115.66,73.232-59.884,119.228l7.7-11.104
	C178.624,263.024,209.572,194.744,263.96,202.588z"/>
<g>
</g>
<g>
</g>
<g>
</g>
<g>
</g>
<g>
</g>
<g>
</g>
<g>
</g>
<g>
</g>
<g>
</g>
<g>
</g>
<g>
</g>
<g>
</g>
<g>
</g>
<g>
</g>
<g>
</g>
</svg>
