<?xml version="1.0" encoding="iso-8859-1"?>
<!-- Generator: Adobe Illustrator 19.0.0, SVG Export Plug-In . SVG Version: 6.00 Build 0)  -->
<svg version="1.1" id="Capa_1" xmlns="http://www.w3.org/2000/svg" xmlns:xlink="http://www.w3.org/1999/xlink" x="0px" y="0px"
	 viewBox="0 0 512 512" style="enable-background:new 0 0 512 512;" xml:space="preserve">
<circle style="fill:#F1592F;" cx="256" cy="256" r="256"/>
<rect x="50.604" y="130.768" style="fill:#D2D2D4;" width="410.8" height="313.84"/>
<rect x="74.056" y="156.36" style="fill:#FDFEFF;" width="363.88" height="262.64"/>
<rect x="50.604" y="67.38" style="fill:#656D7A;" width="410.8" height="63.384"/>
<rect x="227.608" y="86.3" style="fill:#FDFEFF;" width="208.12" height="25.548"/>
<circle style="fill:#7EC359;" cx="86.236" cy="99.076" r="15.276"/>
<circle style="fill:#F5EA07;" cx="129.24" cy="99.076" r="15.276"/>
<circle style="fill:#70B1E1;" cx="172.24" cy="99.076" r="15.276"/>
<path style="fill:#656D7A;" d="M184.064,215.74v143.88h143.88V215.74L184.064,215.74L184.064,215.74z M201.288,342.428V232.964
	H310.72v109.464H201.288z"/>
<circle style="fill:#F5EA07;" cx="206.08" cy="237.76" r="62.404"/>
<g>
	<path style="fill:#E8BB20;" d="M206.076,291.088c-29.4,0-53.316-23.92-53.316-53.32s23.92-53.316,53.316-53.316
		s53.316,23.92,53.316,53.316C259.392,267.168,235.472,291.088,206.076,291.088z M206.076,192.996
		c-24.688,0-44.772,20.084-44.772,44.772s20.084,44.776,44.772,44.776s44.772-20.084,44.772-44.776
		C250.848,213.08,230.76,192.996,206.076,192.996z"/>
	<path style="fill:#E8BB20;" d="M203.536,254.92v-15.208c-4.744-1.356-8.22-3.404-10.436-6.152c-2.216-2.748-3.32-6.08-3.32-10
		c0-3.968,1.252-7.304,3.756-10c2.504-2.7,5.836-4.252,10-4.664v-3.592h5.264v3.592c3.848,0.46,6.908,1.772,9.184,3.94
		c2.276,2.164,3.728,5.064,4.356,8.692l-9.184,1.196c-0.556-2.856-2.008-4.792-4.356-5.808v14.192
		c5.808,1.572,9.764,3.612,11.868,6.116c2.104,2.504,3.156,5.716,3.156,9.636c0,4.38-1.324,8.072-3.976,11.072
		c-2.648,3-6.336,4.84-11.052,5.516v6.788h-5.264v-6.608c-4.188-0.508-7.588-2.068-10.2-4.684
		c-2.612-2.612-4.284-6.304-5.008-11.072l9.472-1.016c0.388,1.936,1.112,3.604,2.176,5.008
		C201.04,253.276,202.228,254.292,203.536,254.92z M203.536,216.808c-1.428,0.484-2.564,1.308-3.412,2.468s-1.272,2.444-1.272,3.848
		c0,1.284,0.388,2.476,1.16,3.576s1.948,1.992,3.52,2.668v-12.56H203.536z M208.796,255.428c1.816-0.34,3.292-1.18,4.428-2.524
		c1.136-1.344,1.708-2.924,1.708-4.736c0-1.62-0.476-3.02-1.432-4.192s-2.524-2.076-4.7-2.704v14.156H208.796z"/>
</g>
<circle style="fill:#70B1E1;" cx="305.92" cy="337.64" r="62.404"/>
<g>
	<path style="fill:#FDFEFF;" d="M305.924,390.936c-29.4,0-53.316-23.92-53.316-53.32s23.92-53.316,53.316-53.316
		c29.4,0,53.316,23.92,53.316,53.316C359.24,367.02,335.324,390.936,305.924,390.936z M305.924,292.844
		c-24.688,0-44.772,20.084-44.772,44.772c0,24.688,20.084,44.776,44.772,44.776s44.772-20.084,44.772-44.776
		C350.696,312.932,330.612,292.844,305.924,292.844z"/>
	<path style="fill:#FDFEFF;" d="M319.916,312.44l-2.132,10.008c-2.048-2.048-5.032-3.072-8.96-3.072s-7.104,1.408-9.536,4.228
		c-1.372,1.588-2.348,3.576-2.928,5.96h19.868l-1.156,5.6H295.64c-0.024,0.552-0.036,1.264-0.036,2.132
		c0,0.844,0.024,1.72,0.072,2.636h18.388l-1.156,5.6h-16.472c0.604,2.576,1.528,4.6,2.78,6.068c2.408,2.84,5.54,4.264,9.392,4.264
		c4.624,0,8.308-1.42,11.056-4.264v11.056c-3.132,1.564-6.78,2.348-10.944,2.348c-7.032,0-12.812-2.408-17.34-7.224
		c-3.084-3.276-5.116-7.356-6.104-12.248h-5.348l1.156-5.6h3.54c-0.024-0.576-0.036-1.192-0.036-1.844
		c0-1.108,0.024-2.084,0.072-2.928h-4.732l1.156-5.6h4.3c1.012-4.792,3.024-8.804,6.032-12.028
		c4.552-4.864,10.536-7.296,17.952-7.296C313.416,310.236,316.932,310.972,319.916,312.44z"/>
</g>
<g>
</g>
<g>
</g>
<g>
</g>
<g>
</g>
<g>
</g>
<g>
</g>
<g>
</g>
<g>
</g>
<g>
</g>
<g>
</g>
<g>
</g>
<g>
</g>
<g>
</g>
<g>
</g>
<g>
</g>
</svg>
