<?xml version="1.0" encoding="iso-8859-1"?>
<!-- Generator: Adobe Illustrator 19.0.0, SVG Export Plug-In . SVG Version: 6.00 Build 0)  -->
<svg version="1.1" id="Capa_1" xmlns="http://www.w3.org/2000/svg" xmlns:xlink="http://www.w3.org/1999/xlink" x="0px" y="0px"
	 viewBox="0 0 512 512" style="enable-background:new 0 0 512 512;" xml:space="preserve">
<circle style="fill:#F5EB07;" cx="256" cy="256" r="256"/>
<path style="fill:#656D7A;" d="M409.096,23.024H102.904c-10.452,0-18.928,8.476-18.928,18.928v428.096
	c0,10.456,8.476,18.928,18.928,18.928h306.192c10.456,0,18.928-8.476,18.928-18.928V41.952
	C428.024,31.496,419.552,23.024,409.096,23.024z"/>
<rect x="119.672" y="67.668" style="fill:#FDFEFF;" width="272.64" height="351"/>
<g>
	<circle style="fill:#4D535F;" cx="256" cy="452.96" r="17.644"/>
	<path style="fill:#4D535F;" d="M295.852,42.12h-49.476c-2.192,0-3.968,1.776-3.968,3.968c0,2.192,1.776,3.968,3.968,3.968h49.476
		c2.192,0,3.968-1.776,3.968-3.968S298.044,42.12,295.852,42.12z"/>
	<path style="fill:#4D535F;" d="M227.768,42.12h-11.616c-2.192,0-3.968,1.776-3.968,3.968c0,2.192,1.776,3.968,3.968,3.968h11.616
		c2.192,0,3.968-1.776,3.968-3.968C231.736,43.896,229.96,42.12,227.768,42.12z"/>
</g>
<g>
	<path style="fill:#D2D2D4;" d="M392.324,320.652v98.032H119.676v-111.28c0,0,22.088-7.116,31.58,18.36
		c0,0,35.52-26.004,43.5,15.004c0,0,20.516-4.004,24.492,21.504c0,0,10.012-2.004,12.016,8.996h62.48c0,0,8.504-27.512,32.012-6.992
		c0,0-2.496-27.02,20.98-15.496c0,0,1.508-38.016,33.488-17.5C380.22,331.28,383.3,322.068,392.324,320.652z"/>
	<path style="fill:#D2D2D4;" d="M285.924,279.744h-52.792c-19.156,83.396-75.008,91.524-75.008,91.524h202.804
		C360.932,371.272,305.08,363.14,285.924,279.744z"/>
</g>
<g>
	<path style="fill:#E8E7E8;" d="M392.324,418.684H119.676v-90.916c0,0,22.088-7.148,31.58,18.36c0,0,35.52-26.004,43.5,15.004
		c0,0,20.516-4.004,24.492,21.472c0,0,10.012-2.004,12.016,8.996h62.48c0,0,8.504-27.48,32.012-6.992c0,0-2.496-26.988,20.98-15.496
		c0,0,1.508-37.988,33.488-17.5c0,0,3.08-9.18,12.108-10.596v77.668H392.324z"/>
	<path style="fill:#E8E7E8;" d="M285.924,295.94h-52.792c-19.156,93.116-75.008,102.196-75.008,102.196h202.804
		C360.932,398.136,305.08,389.06,285.924,295.94z"/>
</g>
<polygon style="fill:#656D7A;" points="299.228,306.392 219.82,306.392 225.356,295.156 293.692,295.156 "/>
<g>
	<path style="fill:#F1592F;" d="M339.228,299.252c0,0-22.452-60.68-32.408-70.64l-38.232,38.232
		C278.544,276.8,339.228,299.252,339.228,299.252z"/>
	<path style="fill:#F1592F;" d="M179.832,299.252c0,0,22.452-60.68,32.408-70.64l38.232,38.232
		C240.512,276.8,179.832,299.252,179.832,299.252z"/>
</g>
<path style="fill:#70B1E1;" d="M293.744,295.94h-68.42c-9.764-23.844-14.664-49.548-14.664-75.212
	c0-23.764,4.18-47.492,12.576-69.836c8.108-21.672,20.212-42.036,36.284-59.672c16.068,17.636,28.176,38.004,36.32,59.672
	C313.272,197.316,312.552,249.992,293.744,295.94z"/>
<path style="fill:#F1592F;" d="M295.836,150.892c-10.196,8.148-22.736,12.932-36.32,12.932c-13.548,0-26.084-4.784-36.284-12.932
	c8.108-21.672,20.212-42.036,36.284-59.672C275.588,108.856,287.692,129.224,295.836,150.892z"/>
<circle style="fill:#5F87C4;" cx="259.532" cy="210.484" r="28.524"/>
<circle style="fill:#E8E7E8;" cx="259.532" cy="210.484" r="18.148"/>
<ellipse style="fill:#F1592F;" cx="259.532" cy="286.84" rx="2.896" ry="34.356"/>
<g>
	<path style="fill:#E8BB20;" d="M254.508,386.02v-4.952c-6.196-0.632-11.756-3.096-16.684-7.392l4.952-5.9
		c3.8,3.3,7.712,5.264,11.732,5.9V360.52c-5.112-1.22-8.848-2.824-11.224-4.816s-3.564-4.94-3.564-8.848
		c0-3.912,1.368-7.108,4.104-9.596s6.296-3.84,10.684-4.068V329.8h4.34v3.456c4.972,0.364,9.676,2.06,14.108,5.088l-4.408,6.24
		c-2.984-2.124-6.216-3.436-9.696-3.936v12.748h0.204c5.2,1.224,9.02,2.872,11.46,4.952c2.444,2.08,3.66,5.1,3.66,9.056
		s-1.4,7.18-4.204,9.664c-2.804,2.488-6.508,3.844-11.12,4.072v4.88L254.508,386.02L254.508,386.02z M249.728,342.244
		c-1.152,1.016-1.728,2.284-1.728,3.8s0.448,2.712,1.356,3.592c0.904,0.884,2.62,1.732,5.156,2.544v-11.732
		C252.476,340.628,250.88,341.228,249.728,342.244z M264.004,371.984c1.264-1.036,1.9-2.348,1.9-3.932c0-1.58-0.5-2.836-1.492-3.764
		s-2.848-1.796-5.56-2.612v12.204C261.02,373.656,262.736,373.024,264.004,371.984z"/>
	<path style="fill:#E8BB20;" d="M210.108,410.432v-3.316c-4.152-0.424-7.876-2.076-11.18-4.952l3.316-3.952
		c2.544,2.212,5.164,3.528,7.86,3.952v-8.816c-3.424-0.816-5.928-1.892-7.52-3.228c-1.592-1.332-2.388-3.308-2.388-5.928
		s0.916-4.764,2.748-6.432c1.832-1.664,4.22-2.572,7.156-2.724v-2.272h2.908v2.316c3.332,0.244,6.484,1.38,9.452,3.408l-2.956,4.18
		c-2-1.424-4.164-2.3-6.496-2.636v8.54h0.136c3.484,0.82,6.044,1.924,7.68,3.316c1.636,1.396,2.452,3.416,2.452,6.068
		s-0.94,4.812-2.816,6.476c-1.88,1.668-4.36,2.576-7.452,2.728v3.272H210.108z M206.904,381.104
		c-0.772,0.68-1.156,1.528-1.156,2.544s0.3,1.816,0.908,2.408c0.608,0.592,1.756,1.16,3.452,1.704v-7.86
		C208.748,380.02,207.676,380.42,206.904,381.104z M216.472,401.028c0.848-0.696,1.272-1.572,1.272-2.636c0-1.06-0.336-1.9-1-2.52
		s-1.908-1.204-3.724-1.748v8.176C214.472,402.148,215.624,401.724,216.472,401.028z"/>
	<path style="fill:#E8BB20;" d="M296.688,410.432v-3.316c-4.152-0.424-7.876-2.076-11.18-4.952l3.316-3.952
		c2.544,2.212,5.164,3.528,7.86,3.952v-8.816c-3.424-0.816-5.928-1.892-7.52-3.228c-1.592-1.332-2.388-3.308-2.388-5.928
		s0.916-4.764,2.748-6.432c1.832-1.664,4.22-2.572,7.156-2.724v-2.272h2.92v2.316c3.332,0.244,6.484,1.38,9.452,3.408l-2.956,4.18
		c-2-1.424-4.164-2.3-6.496-2.636v8.54h0.136c3.484,0.82,6.044,1.924,7.68,3.316c1.636,1.396,2.452,3.416,2.452,6.068
		s-0.94,4.812-2.816,6.476c-1.88,1.668-4.36,2.576-7.452,2.728v3.272H296.688z M293.484,381.104
		c-0.772,0.68-1.156,1.528-1.156,2.544s0.3,1.816,0.908,2.408c0.608,0.592,1.756,1.16,3.452,1.704v-7.86
		C295.328,380.02,294.26,380.42,293.484,381.104z M303.052,401.028c0.848-0.696,1.272-1.572,1.272-2.636c0-1.06-0.336-1.9-1-2.52
		s-1.908-1.204-3.724-1.748v8.176C301.052,402.148,302.204,401.724,303.052,401.028z"/>
	<path style="fill:#E8BB20;" d="M146.228,410.432v-4.576c-5.728-0.584-10.868-2.864-15.424-6.832l4.576-5.456
		c3.512,3.052,7.128,4.868,10.848,5.456V386.86c-4.724-1.128-8.18-2.612-10.376-4.452c-2.192-1.84-3.292-4.568-3.292-8.18
		c0-3.616,1.264-6.572,3.792-8.872c2.528-2.3,5.82-3.552,9.876-3.76v-3.136h4.012v3.196c4.596,0.336,8.944,1.904,13.04,4.704
		l-4.076,5.768c-2.756-1.964-5.748-3.176-8.964-3.636v11.788h0.188c4.808,1.132,8.336,2.656,10.596,4.576
		c2.256,1.924,3.384,4.716,3.384,8.372c0,3.66-1.296,6.64-3.888,8.932c-2.592,2.3-6.02,3.552-10.28,3.764v4.512h-4.012V410.432z
		 M141.804,369.964c-1.064,0.94-1.596,2.108-1.596,3.512s0.416,2.508,1.252,3.32c0.836,0.816,2.424,1.6,4.764,2.352V368.3
		C144.348,368.468,142.872,369.024,141.804,369.964z M155.004,397.456c1.168-0.96,1.756-2.172,1.756-3.636
		c0-1.46-0.46-2.624-1.38-3.48s-2.632-1.66-5.14-2.412v11.284C152.244,399.004,153.836,398.416,155.004,397.456z"/>
	<path style="fill:#E8BB20;" d="M365.628,410.432v-4.576c-5.728-0.584-10.868-2.864-15.424-6.832l4.576-5.456
		c3.512,3.052,7.128,4.868,10.848,5.456V386.86c-4.724-1.128-8.18-2.612-10.376-4.452s-3.292-4.568-3.292-8.18
		c0-3.616,1.264-6.572,3.792-8.872c2.528-2.3,5.82-3.552,9.876-3.76v-3.136h4.012v3.196c4.596,0.336,8.944,1.904,13.04,4.704
		l-4.076,5.768c-2.756-1.964-5.748-3.176-8.964-3.636v11.788h0.188c4.808,1.132,8.336,2.656,10.596,4.576
		c2.256,1.924,3.384,4.716,3.384,8.372c0,3.66-1.296,6.64-3.888,8.932c-2.592,2.3-6.02,3.552-10.28,3.764v4.512h-4.012V410.432z
		 M361.208,369.964c-1.064,0.94-1.596,2.108-1.596,3.512s0.416,2.508,1.252,3.32c0.836,0.816,2.424,1.6,4.764,2.352V368.3
		C363.748,368.468,362.272,369.024,361.208,369.964z M374.404,397.456c1.168-0.96,1.756-2.172,1.756-3.636
		c0-1.46-0.46-2.624-1.38-3.48s-2.632-1.66-5.14-2.412v11.284C371.644,399.004,373.236,398.416,374.404,397.456z"/>
</g>
<g>
</g>
<g>
</g>
<g>
</g>
<g>
</g>
<g>
</g>
<g>
</g>
<g>
</g>
<g>
</g>
<g>
</g>
<g>
</g>
<g>
</g>
<g>
</g>
<g>
</g>
<g>
</g>
<g>
</g>
</svg>
