<?xml version="1.0" encoding="iso-8859-1"?>
<!-- Generator: Adobe Illustrator 19.0.0, SVG Export Plug-In . SVG Version: 6.00 Build 0)  -->
<svg version="1.1" id="Capa_1" xmlns="http://www.w3.org/2000/svg" xmlns:xlink="http://www.w3.org/1999/xlink" x="0px" y="0px"
	 viewBox="0 0 512 512" style="enable-background:new 0 0 512 512;" xml:space="preserve">
<circle style="fill:#FAD307;" cx="256" cy="256" r="256"/>
<g>
	<polygon style="fill:#FDFEFF;" points="466.544,215.284 466.544,483.732 326.172,445.548 185.828,483.732 45.456,445.548 
		45.456,177.08 185.828,215.284 326.172,177.08 	"/>
	<polygon style="fill:#FDFEFF;" points="443.028,228.836 326.176,197.036 326.176,197.04 382.08,212.252 437.288,227.28 
		443.02,228.84 443.02,358.116 443.02,378.724 443.02,457.376 443.028,457.38 	"/>
	<rect x="256" y="143.416" style="fill:#FDFEFF;" width="0" height="145.44"/>
</g>
<g>
	<path style="fill:#F7CFA3;" d="M68.984,251.852L173.212,368.04c1.696-1.388,11.108-9.06,12.62-10.404v-122.4h-0.004h-0.004
		c-65.932-17.944-48.708-13.256-116.84-31.796C68.984,203.44,68.984,251.852,68.984,251.852z"/>
	<polygon style="fill:#F7CFA3;" points="382.08,212.252 326.176,197.04 326.176,233.768 	"/>
</g>
<polygon style="fill:#F0B97C;" points="185.832,357.64 324.888,234.26 326.176,233.768 326.176,197.04 326.172,197.04 
	185.832,235.24 "/>
<polygon style="fill:#FDFEFF;" points="68.984,431.988 68.984,282.38 68.972,282.372 68.972,431.992 90.764,437.92 90.772,437.912 
	"/>
<g>
	<polygon style="fill:#F7CFA3;" points="68.984,282.38 68.984,431.988 90.772,437.912 157.068,378.504 	"/>
	<polygon style="fill:#F7CFA3;" points="326.176,266.756 326.176,282.796 326.452,282.8 443.02,358.116 443.02,228.84 
		437.288,227.28 326.972,266.064 	"/>
</g>
<polygon style="fill:#F0B97C;" points="326.176,282.796 326.176,266.756 308.228,282.384 "/>
<polygon style="fill:#FDFEFF;" points="185.832,463.764 122.028,446.784 122.02,446.792 185.824,463.776 326.168,425.592 
	443.02,457.376 443.02,457.376 326.176,425.58 "/>
<g>
	<polygon style="fill:#7EC359;" points="122.028,446.784 185.832,463.764 185.832,390.832 	"/>
	<polygon style="fill:#7EC359;" points="326.452,303.556 326.176,303.528 326.176,425.58 443.02,457.376 443.02,378.724 	"/>
</g>
<polygon style="fill:#6BBE49;" points="185.832,390.832 185.832,463.764 326.176,425.58 326.176,303.528 290,299.54 "/>
<g>
	<rect x="106.392" y="426.12" style="fill:#FDFEFF;" width="0.008" height="32.492"/>
	<rect x="68.972" y="251.848" style="fill:#FDFEFF;" width="0.012" height="30.528"/>
	<path style="fill:#FDFEFF;" d="M185.832,357.64c-1.512,1.344-10.924,9.012-12.62,10.404L68.984,251.852v30.528l88.084,96.12
		l-66.296,59.412l31.26,8.872l63.804-55.956V357.64H185.832z"/>
	<polygon style="fill:#FDFEFF;" points="326.176,282.796 326.176,303.528 326.452,303.556 443.02,378.724 443.02,358.116 
		326.452,282.8 	"/>
	<polygon style="fill:#FDFEFF;" points="326.176,266.756 326.972,266.064 437.288,227.28 382.08,212.252 326.176,233.768 	"/>
</g>
<polygon style="fill:#E8E7E8;" points="308.228,282.384 326.176,266.756 326.176,233.768 324.888,234.26 185.832,357.64 
	185.832,390.832 290,299.54 326.176,303.528 326.176,282.796 "/>
<path style="fill:#FDFEFF;" d="M303.076,369.924c0,15.972-28.92,56.508-28.92,56.508s-28.92-40.536-28.92-56.508
	s12.948-28.92,28.92-28.92C290.128,341.004,303.076,353.952,303.076,369.924z"/>
<circle style="fill:#6BBE49;" cx="274.16" cy="369.92" r="16.264"/>
<polygon style="fill:#F1592F;" points="341.172,193.112 207.144,193.112 207.144,122.604 341.172,122.604 319.244,157.86 "/>
<rect x="201.4" y="92.64" style="fill:#656D7A;" width="11.496" height="349.04"/>
<circle style="fill:#4D535F;" cx="207.144" cy="89.504" r="19.112"/>
<g>
</g>
<g>
</g>
<g>
</g>
<g>
</g>
<g>
</g>
<g>
</g>
<g>
</g>
<g>
</g>
<g>
</g>
<g>
</g>
<g>
</g>
<g>
</g>
<g>
</g>
<g>
</g>
<g>
</g>
</svg>
