<?xml version="1.0" encoding="iso-8859-1"?>
<!-- Generator: Adobe Illustrator 19.0.0, SVG Export Plug-In . SVG Version: 6.00 Build 0)  -->
<svg version="1.1" id="Capa_1" xmlns="http://www.w3.org/2000/svg" xmlns:xlink="http://www.w3.org/1999/xlink" x="0px" y="0px"
	 viewBox="0 0 512 512" style="enable-background:new 0 0 512 512;" xml:space="preserve">
<circle style="fill:#7EC359;" cx="256" cy="256" r="256"/>
<path style="fill:#F1592F;" d="M411.648,360.248c0-71.904-69.688-217.408-155.648-217.408S100.352,288.344,100.352,360.248
	S170.04,442,256,442S411.648,432.148,411.648,360.248z"/>
<path style="fill:#E34E30;" d="M294.724,151.656c13.656-18.808,22.376-43.848,22.376-59.724c0-28.128-27.356-31.98-61.1-31.98
	s-61.1,3.856-61.1,31.98c0,15.876,8.72,40.912,22.376,59.724H294.724z"/>
<path style="fill:#F1592F;" d="M274.924,151.656c7.94-22.02,13.116-53.324,13.116-72.768c0-32.44-14.348-36.888-32.044-36.888
	c-17.7,0-32.044,4.444-32.044,36.888c0,19.444,5.176,50.748,13.116,72.768H274.924z"/>
<g>
	<path style="fill:#E8E7E8;" d="M312.028,163.8H199.972c-2.604,0-4.716-2.112-4.716-4.716V147.56c0-2.604,2.112-4.716,4.716-4.716
		h112.06c2.604,0,4.716,2.112,4.716,4.716v11.524C316.748,161.688,314.636,163.8,312.028,163.8z"/>
	<path style="fill:#E8E7E8;" d="M171.84,220.316c3.204-26.116,11.9-43.768,19.68-54.82c-11.424,4.196-25.552,12.976-34.68,31.324
		c-3.656,7.336-15.46,1.416-11.852-5.856c20.468-41.156,62.548-41.756,64.328-41.756l20.884-0.064l-16.456,11.396
		c-0.208,0.144-23.452,17.108-28.948,61.92C183.808,230.528,170.836,228.488,171.84,220.316z"/>
</g>
<circle style="fill:#F5EA07;" cx="256" cy="300.84" r="94.968"/>
<g>
	<path style="fill:#E8BB20;" d="M255.996,382.212c-44.868,0-81.38-36.508-81.38-81.38s36.508-81.38,81.38-81.38
		s81.38,36.508,81.38,81.38S300.868,382.212,255.996,382.212z M255.996,233.804c-36.96,0-67.028,30.068-67.028,67.028
		s30.072,67.028,67.028,67.028s67.028-30.068,67.028-67.028S292.956,233.804,255.996,233.804z"/>
	<path style="fill:#E8BB20;" d="M253.388,350.04v-8.668c-10.844-1.108-20.58-5.42-29.208-12.936l8.668-10.328
		c6.652,5.776,13.496,9.216,20.54,10.328v-23.032c-8.948-2.136-15.492-4.948-19.648-8.428c-4.156-3.484-6.236-8.648-6.236-15.492
		s2.396-12.444,7.184-16.8c4.788-4.352,11.024-6.724,18.7-7.12v-5.936h7.6v6.052c8.704,0.636,16.936,3.604,24.696,8.908
		l-7.72,10.924c-5.224-3.72-10.884-6.016-16.976-6.888v22.32h0.356c9.1,2.14,15.788,5.028,20.064,8.668
		c4.276,3.644,6.412,8.928,6.412,15.848c0,6.928-2.456,12.568-7.364,16.916c-4.908,4.356-11.396,6.728-19.468,7.124v8.544h-7.6
		V350.04z M245.016,273.412c-2.016,1.776-3.024,3.996-3.024,6.648s0.788,4.748,2.372,6.288c1.584,1.544,4.588,3.028,9.024,4.452
		v-20.54C249.828,270.58,247.036,271.628,245.016,273.412z M270.012,325.468c2.212-1.816,3.324-4.112,3.324-6.884
		c0-2.768-0.876-4.968-2.612-6.588s-4.984-3.144-9.732-4.568v21.368C264.784,328.4,267.796,327.288,270.012,325.468z"/>
</g>
<g>
</g>
<g>
</g>
<g>
</g>
<g>
</g>
<g>
</g>
<g>
</g>
<g>
</g>
<g>
</g>
<g>
</g>
<g>
</g>
<g>
</g>
<g>
</g>
<g>
</g>
<g>
</g>
<g>
</g>
</svg>
