<?xml version="1.0" encoding="iso-8859-1"?>
<!-- Generator: Adobe Illustrator 19.0.0, SVG Export Plug-In . SVG Version: 6.00 Build 0)  -->
<svg version="1.1" id="Capa_1" xmlns="http://www.w3.org/2000/svg" xmlns:xlink="http://www.w3.org/1999/xlink" x="0px" y="0px"
	 viewBox="0 0 512 512" style="enable-background:new 0 0 512 512;" xml:space="preserve">
<circle style="fill:#D2D2D4;" cx="256" cy="256" r="256"/>
<circle style="fill:#E8BB20;" cx="256" cy="256" r="107.604"/>
<g>
	<path style="fill:#FDFEFF;" d="M256,347.936c-50.692,0-91.932-41.24-91.932-91.936c0-50.692,41.24-91.932,91.932-91.932
		s91.932,41.24,91.932,91.932C347.932,306.696,306.688,347.936,256,347.936z M256,178.804c-42.564,0-77.196,34.632-77.196,77.196
		c0,42.568,34.632,77.2,77.196,77.2s77.196-34.632,77.196-77.2S298.564,178.804,256,178.804z"/>
	<path style="fill:#FDFEFF;" d="M247.26,284.12h-22.68v-13.508h22.68v-7.336h-22.68v-13.508h15.956l-19.012-38.572h18.828
		l12.228,26.04c1.548,3.26,2.648,6.132,3.3,8.62c0.772-2.688,1.872-5.564,3.3-8.62l12.468-26.04h18.828l-19.256,38.572h16.2v13.508
		h-22.984v7.336h22.984v13.508h-22.984v16.688H247.26L247.26,284.12L247.26,284.12z"/>
</g>
<polygon style="fill:#F1592F;" points="86.884,425.828 190.204,424.944 154.808,327.872 "/>
<g>
	<polygon style="fill:#896D61;" points="357.188,184.12 321.792,87.048 425.112,86.16 	"/>
	<path style="fill:#896D61;" d="M383.42,101.732l-22.508,32.46c61.616,52.948,74.544,145.24,27.248,213.448
		c-35.884,51.756-96.972,75.908-155.436,67.476l-24.388,35.168c78.18,19.136,163.584-10.32,212.088-80.272
		C480.072,283.992,462.756,167.156,383.42,101.732z"/>
</g>
<path style="fill:#F1592F;" d="M123.84,164.36c35.884-51.756,96.972-75.908,155.436-67.476l24.388-35.168
	c-78.18-19.14-163.584,10.32-212.088,80.272c-59.644,86.02-42.328,202.856,37.008,268.28l22.508-32.46
	C89.472,324.864,76.544,232.572,123.84,164.36z"/>
<g>
</g>
<g>
</g>
<g>
</g>
<g>
</g>
<g>
</g>
<g>
</g>
<g>
</g>
<g>
</g>
<g>
</g>
<g>
</g>
<g>
</g>
<g>
</g>
<g>
</g>
<g>
</g>
<g>
</g>
</svg>
