<?xml version="1.0" encoding="iso-8859-1"?>
<!-- Generator: Adobe Illustrator 19.0.0, SVG Export Plug-In . SVG Version: 6.00 Build 0)  -->
<svg version="1.1" id="Capa_1" xmlns="http://www.w3.org/2000/svg" xmlns:xlink="http://www.w3.org/1999/xlink" x="0px" y="0px"
	 viewBox="0 0 512 512" style="enable-background:new 0 0 512 512;" xml:space="preserve">
<circle style="fill:#7EC359;" cx="256" cy="256" r="256"/>
<g>
	<path style="fill:#F1592F;" d="M319.384,150.756H192.616c-55.6,38.892-94.448,122.364-94.448,186.98
		C98.168,424.904,168.832,456,256,456s157.832-31.096,157.832-118.264C413.832,273.12,374.984,189.648,319.384,150.756z"/>
	<path style="fill:#F1592F;" d="M361.06,71.128c-28.22,16.952-48.856,34.992-45.092,56.616H199.236
		c-12.68-29.62-33.748-43.504-55.148-56.732c-3.288-2.208-5.576-4.768-3.908-7.068c2.48-3.372,11.724-4.768,41.232,11.532
		c6.244,3.44,17.448,4,25.168,1.884c7.724-2.116,18.064-6.58,31.508-15.624c8.152-5.532,23.832-7.348,36.464-4.184
		c21.536,5.412,26.988,14.888,48.76,9.604c7.724-1.884,17.112-3.928,25.548-5.14C359.868,60.432,368.304,66.78,361.06,71.128z"/>
</g>
<path style="fill:#E8E7E8;" d="M332.624,136.484c0,8.252-6.66,15.192-15.192,15.192H194.596c-8.416,0-15.192-6.776-15.192-15.192
	c0-8.408,6.824-15.192,15.192-15.192h122.836C325.848,121.292,332.624,128.136,332.624,136.484z"/>
<circle style="fill:#F5EA07;" cx="256" cy="319.596" r="95.404"/>
<path style="fill:#E8BB20;" d="M256,401.108c-44.944,0-81.508-36.564-81.508-81.512c0-44.944,36.564-81.508,81.508-81.508
	s81.508,36.564,81.508,81.508C337.508,364.544,300.944,401.108,256,401.108z M256,251.152c-37.74,0-68.444,30.704-68.444,68.444
	c0,37.744,30.704,68.448,68.444,68.448s68.444-30.704,68.444-68.448C324.444,281.856,293.74,251.152,256,251.152z"/>
<path style="fill:#FDFEFF;" d="M252.116,345.816v-23.252c-7.252-2.072-12.568-5.208-15.952-9.404
	c-3.384-4.2-5.076-9.296-5.076-15.288c0-6.068,1.916-11.164,5.744-15.288s8.924-6.5,15.288-7.132v-5.492h8.048v5.492
	c5.884,0.704,10.56,2.708,14.04,6.02c3.476,3.312,5.696,7.74,6.66,13.292l-14.04,1.832c-0.852-4.364-3.072-7.324-6.66-8.88v21.696
	c8.88,2.404,14.928,5.52,18.144,9.352c3.22,3.828,4.828,8.74,4.828,14.732c0,6.696-2.024,12.336-6.076,16.924
	s-9.684,7.4-16.896,8.436v10.376h-8.048v-10.1c-6.4-0.776-11.596-3.164-15.592-7.16s-6.548-9.636-7.656-16.924l14.484-1.552
	c0.592,2.96,1.7,5.512,3.328,7.656C248.304,343.3,250.116,344.856,252.116,345.816z M252.116,287.552
	c-2.184,0.74-3.92,1.996-5.216,3.772s-1.944,3.736-1.944,5.884c0,1.96,0.592,3.784,1.776,5.464c1.184,1.684,2.98,3.044,5.384,4.08
	V287.552z M260.16,346.596c2.776-0.516,5.032-1.804,6.768-3.856c1.74-2.052,2.608-4.468,2.608-7.24c0-2.48-0.732-4.616-2.192-6.408
	s-3.856-3.172-7.188-4.136v21.64H260.16z"/>
<g>
</g>
<g>
</g>
<g>
</g>
<g>
</g>
<g>
</g>
<g>
</g>
<g>
</g>
<g>
</g>
<g>
</g>
<g>
</g>
<g>
</g>
<g>
</g>
<g>
</g>
<g>
</g>
<g>
</g>
</svg>
