<?xml version="1.0" encoding="iso-8859-1"?>
<!-- Generator: Adobe Illustrator 19.0.0, SVG Export Plug-In . SVG Version: 6.00 Build 0)  -->
<svg version="1.1" id="Capa_1" xmlns="http://www.w3.org/2000/svg" xmlns:xlink="http://www.w3.org/1999/xlink" x="0px" y="0px"
	 viewBox="0 0 511.992 511.992" style="enable-background:new 0 0 511.992 511.992;" xml:space="preserve">
<circle style="fill:#F1592F;" cx="255.996" cy="255.996" r="255.996"/>
<path style="fill:#FDFEFF;" d="M167.64,434.168h176.696c40.728-28.096,67.448-75.048,67.448-128.264
	c0-64.508-39.252-119.828-95.104-143.544V75.736H195.312v86.624c-55.852,23.716-95.104,79.036-95.104,143.544
	C100.208,359.12,126.924,406.072,167.64,434.168z"/>
<path style="fill:#70B1E1;" d="M118.556,317.652c3.344,39.068,23.188,75.048,54.812,98.728h165.244
	c31.628-23.676,51.476-59.66,54.824-98.728C268.012,276.284,261.084,375.756,118.556,317.652z"/>
<g>
	<rect x="182.364" y="67.944" style="fill:#FDFEFF;" width="147.264" height="37.22"/>
	<circle style="fill:#FDFEFF;" cx="193.356" cy="369.796" r="15.856"/>
	<circle style="fill:#FDFEFF;" cx="342.556" cy="353.956" r="15.856"/>
	<circle style="fill:#FDFEFF;" cx="271.852" cy="385.636" r="15.856"/>
</g>
<g>
	<circle style="fill:#70B1E1;" cx="161.636" cy="330.436" r="15.856"/>
	<circle style="fill:#70B1E1;" cx="255.996" cy="330.436" r="15.856"/>
</g>
<g>
	<path style="fill:#F5EA07;" d="M210.752,297.084v-17.388c-5.424-1.548-9.4-3.892-11.932-7.032s-3.796-6.952-3.796-11.432
		c0-4.536,1.432-8.348,4.296-11.432c2.864-3.084,6.672-4.86,11.432-5.332v-4.112h6.016v4.108c4.4,0.524,7.9,2.028,10.5,4.504
		s4.26,5.788,4.98,9.94l-10.5,1.368c-0.636-3.264-2.296-5.476-4.98-6.64v16.224c6.64,1.8,11.164,4.128,13.568,6.992
		c2.408,2.864,3.612,6.536,3.612,11.016c0,5.008-1.516,9.224-4.544,12.656s-7.24,5.532-12.636,6.308v7.76h-6.016v-7.552
		c-4.784-0.58-8.672-2.364-11.66-5.352c-2.988-2.988-4.896-7.208-5.728-12.656l10.832-1.16c0.444,2.212,1.272,4.12,2.488,5.728
		C207.9,295.2,209.256,296.364,210.752,297.084z M210.752,253.512c-1.632,0.552-2.932,1.492-3.9,2.82
		c-0.968,1.328-1.452,2.796-1.452,4.4c0,1.468,0.444,2.828,1.328,4.088s2.228,2.276,4.024,3.048L210.752,253.512L210.752,253.512z
		 M216.768,297.664c2.076-0.388,3.764-1.348,5.064-2.884c1.3-1.536,1.952-3.34,1.952-5.416c0-1.852-0.548-3.452-1.64-4.792
		s-2.884-2.372-5.372-3.092v16.184H216.768z"/>
	<path style="fill:#F5EA07;" d="M268.948,254.196v-17.388c-5.424-1.548-9.4-3.892-11.932-7.032
		c-2.532-3.14-3.796-6.952-3.796-11.432c0-4.536,1.432-8.348,4.296-11.432c2.864-3.084,6.672-4.86,11.432-5.332v-4.108h6.016v4.108
		c4.4,0.524,7.9,2.028,10.5,4.504s4.26,5.788,4.98,9.94l-10.5,1.368c-0.636-3.264-2.296-5.476-4.98-6.64v16.224
		c6.64,1.8,11.164,4.128,13.568,6.992s3.612,6.536,3.612,11.016c0,5.008-1.516,9.224-4.544,12.656
		c-3.028,3.432-7.24,5.532-12.636,6.308v7.76h-6.016v-7.552c-4.784-0.58-8.672-2.364-11.66-5.352
		c-2.988-2.988-4.896-7.208-5.728-12.656l10.832-1.16c0.444,2.212,1.272,4.12,2.488,5.728S267.452,253.476,268.948,254.196z
		 M268.948,210.624c-1.632,0.552-2.932,1.492-3.9,2.82s-1.452,2.796-1.452,4.4c0,1.468,0.444,2.828,1.328,4.088
		s2.228,2.276,4.024,3.048V210.624z M274.964,254.776c2.076-0.388,3.764-1.348,5.064-2.884s1.952-3.34,1.952-5.416
		c0-1.852-0.548-3.452-1.64-4.792c-1.092-1.34-2.884-2.372-5.372-3.092v16.184H274.964z"/>
	<path style="fill:#F5EA07;" d="M237.236,172.236v-17.388c-5.424-1.548-9.4-3.892-11.932-7.032
		c-2.532-3.14-3.796-6.952-3.796-11.432c0-4.536,1.432-8.348,4.296-11.432c2.864-3.084,6.672-4.86,11.432-5.332v-4.108h6.016v4.108
		c4.4,0.524,7.9,2.028,10.5,4.504s4.26,5.788,4.98,9.94l-10.5,1.368c-0.636-3.264-2.296-5.476-4.98-6.64v16.224
		c6.64,1.8,11.164,4.128,13.568,6.992c2.408,2.864,3.612,6.536,3.612,11.016c0,5.008-1.516,9.224-4.544,12.656
		s-7.24,5.532-12.636,6.308v7.76h-6.016v-7.552c-4.784-0.58-8.672-2.364-11.66-5.352s-4.896-7.208-5.728-12.656l10.832-1.16
		c0.444,2.212,1.272,4.12,2.488,5.728C234.388,170.352,235.744,171.516,237.236,172.236z M237.236,128.664
		c-1.632,0.552-2.932,1.492-3.9,2.82c-0.968,1.328-1.452,2.796-1.452,4.4c0,1.468,0.444,2.828,1.328,4.088s2.228,2.276,4.024,3.048
		L237.236,128.664L237.236,128.664z M243.252,172.816c2.076-0.388,3.764-1.348,5.064-2.884s1.952-3.34,1.952-5.416
		c0-1.852-0.548-3.452-1.64-4.792c-1.092-1.34-2.884-2.372-5.372-3.092v16.184H243.252z"/>
</g>
<g>
</g>
<g>
</g>
<g>
</g>
<g>
</g>
<g>
</g>
<g>
</g>
<g>
</g>
<g>
</g>
<g>
</g>
<g>
</g>
<g>
</g>
<g>
</g>
<g>
</g>
<g>
</g>
<g>
</g>
</svg>
