<?xml version="1.0" encoding="iso-8859-1"?>
<!-- Generator: Adobe Illustrator 19.0.0, SVG Export Plug-In . SVG Version: 6.00 Build 0)  -->
<svg version="1.1" id="Capa_1" xmlns="http://www.w3.org/2000/svg" xmlns:xlink="http://www.w3.org/1999/xlink" x="0px" y="0px"
	 viewBox="0 0 512 512" style="enable-background:new 0 0 512 512;" xml:space="preserve">
<circle style="fill:#FDFEFF;" cx="256" cy="256" r="256"/>
<path style="fill:#E8BB20;" d="M385.008,291.98c0,38.46-57.76,69.64-129.008,69.64s-129.008-31.18-129.008-69.64v-27.552h258.016
	V291.98z"/>
<ellipse style="fill:#F5EA07;" cx="256" cy="264.44" rx="129" ry="69.64"/>
<path style="fill:#E8BB20;" d="M385.008,247.576c0,38.46-57.76,69.64-129.008,69.64s-129.008-31.18-129.008-69.64v-27.552h258.016
	V247.576z"/>
<ellipse style="fill:#F5EA07;" cx="256" cy="220.04" rx="129" ry="69.64"/>
<g>
	<path style="fill:#E8BB20;" d="M255.996,275.152c-60.952,0-110.548-24.732-110.548-55.128s49.596-55.128,110.548-55.128
		s110.548,24.732,110.548,55.128S316.948,275.152,255.996,275.152z M255.996,174.616c-50.208,0-91.056,20.368-91.056,45.408
		s40.848,45.408,91.056,45.408s91.056-20.368,91.056-45.408S306.204,174.616,255.996,174.616z"/>
	<path style="fill:#E8BB20;" d="M252.452,253.36v-5.872c-14.732-0.748-27.956-3.672-39.676-8.764l11.772-6.996
		c9.036,3.912,18.336,6.244,27.904,6.996V223.12c-12.152-1.448-21.044-3.352-26.688-5.712s-8.472-5.856-8.472-10.496
		s3.256-8.432,9.76-11.38s14.976-4.556,25.404-4.824v-4.02h10.324v4.1c11.824,0.432,23.008,2.44,33.548,6.036l-10.488,7.4
		c-7.092-2.52-14.784-4.076-23.06-4.668v15.12h0.484c12.364,1.448,21.444,3.408,27.252,5.872c5.808,2.468,8.708,6.048,8.708,10.736
		c0,4.692-3.332,8.516-10,11.46c-6.668,2.952-15.48,4.56-26.444,4.828v5.788L252.452,253.36L252.452,253.36z M241.08,201.448
		c-2.736,1.204-4.108,2.708-4.108,4.504s1.068,3.216,3.224,4.26c2.152,1.048,6.236,2.052,12.26,3.016v-13.916
		C247.616,199.528,243.824,200.24,241.08,201.448z M275.032,236.712c3.004-1.232,4.516-2.784,4.516-4.664
		c0-1.876-1.188-3.364-3.552-4.464s-6.772-2.132-13.224-3.096v14.476C267.932,238.696,272.02,237.944,275.032,236.712z"/>
</g>
<path style="fill:#F1592F;" d="M319.52,66.416l-8.584,25.748c-62.58-20.86-130.432-4.888-177.04,41.72
	c-62.604,62.768-67.248,164.76-10.592,232.616l18.036,18.036l-19.232,19.232l-19.232-19.34c-42.32-50.36-55.408-117.068-40.2-177.64
	C90.824,94.74,208.116,29.308,319.52,66.416z"/>
<path style="fill:#70B1E1;" d="M192.456,445.484l8.636-25.748c165.072,55.36,298.136-141.928,187.636-274.224l-18.308-18.36
	l19.176-19.176c12.42,12.456,43.084,38.428,58.288,93.056C491.636,356.268,344.848,496.588,192.456,445.484z"/>
<polygon style="fill:#F1592F;" points="92.116,419.892 169.232,432.652 156.468,355.536 "/>
<polygon style="fill:#70B1E1;" points="419.892,92.112 342.772,79.352 355.536,156.468 "/>
<g>
</g>
<g>
</g>
<g>
</g>
<g>
</g>
<g>
</g>
<g>
</g>
<g>
</g>
<g>
</g>
<g>
</g>
<g>
</g>
<g>
</g>
<g>
</g>
<g>
</g>
<g>
</g>
<g>
</g>
</svg>
