<?xml version="1.0" encoding="iso-8859-1"?>
<!-- Generator: Adobe Illustrator 19.0.0, SVG Export Plug-In . SVG Version: 6.00 Build 0)  -->
<svg version="1.1" id="Capa_1" xmlns="http://www.w3.org/2000/svg" xmlns:xlink="http://www.w3.org/1999/xlink" x="0px" y="0px"
	 viewBox="0 0 512 512" style="enable-background:new 0 0 512 512;" xml:space="preserve">
<circle style="fill:#F1592F;" cx="256" cy="256" r="256"/>
<g>
	<polygon style="fill:#D2D2D4;" points="264.088,241.252 232.82,222.296 284.42,139.9 315.692,158.86 	"/>
	<polygon style="fill:#D2D2D4;" points="265.208,199.064 233.936,180.112 313.484,54.384 344.752,73.336 	"/>
</g>
<polygon style="fill:#FDFEFF;" points="215.136,280.248 183.868,261.292 234.848,182.948 266.116,201.908 "/>
<path style="fill:#4D535F;" d="M292.916,185.42v32.836c29.076,11.476,49.656,39.804,49.656,72.964
	c0,43.3-35.112,78.436-78.436,78.436c-26.648,0-50.156-13.316-64.328-33.624h-35.74c17.14,38.196,55.496,64.808,100.068,64.808
	c60.536,0,109.644-49.08,109.644-109.616C373.776,240.62,339.492,198.064,292.916,185.42z"/>
<rect x="138.224" y="327.24" style="fill:#353944;" width="97.58" height="15.38"/>
<polygon style="fill:#E8E7E8;" points="234.324,265.972 189.104,238.556 277.328,96.972 322.544,124.388 "/>
<polygon style="fill:#FDFEFF;" points="343.288,81.444 306.528,59.16 314.32,47.632 351.08,69.92 "/>
<circle style="fill:#353944;" cx="290.72" cy="200.92" r="28.488"/>
<g>
	<circle style="fill:#656D7A;" cx="290.72" cy="200.92" r="14.456"/>
	<path style="fill:#656D7A;" d="M289.26,369.76L289.26,369.76c-8.692,0-15.984,6.556-16.904,15.196l-5.184,48.688h65.02
		l-27.784-54.596C301.512,373.348,295.656,369.76,289.26,369.76z"/>
</g>
<rect x="157.16" y="425.32" style="fill:#353944;" width="209.04" height="22.304"/>
<circle style="fill:#E8E7E8;" cx="289.04" cy="385.84" r="10.808"/>
<circle style="fill:#D2D2D4;" cx="289.04" cy="385.84" r="4.784"/>
<g>
</g>
<g>
</g>
<g>
</g>
<g>
</g>
<g>
</g>
<g>
</g>
<g>
</g>
<g>
</g>
<g>
</g>
<g>
</g>
<g>
</g>
<g>
</g>
<g>
</g>
<g>
</g>
<g>
</g>
</svg>
