<?xml version="1.0" encoding="iso-8859-1"?>
<!-- Generator: Adobe Illustrator 19.0.0, SVG Export Plug-In . SVG Version: 6.00 Build 0)  -->
<svg version="1.1" id="Capa_1" xmlns="http://www.w3.org/2000/svg" xmlns:xlink="http://www.w3.org/1999/xlink" x="0px" y="0px"
	 viewBox="0 0 512 512" style="enable-background:new 0 0 512 512;" xml:space="preserve">
<circle style="fill:#F5EB07;" cx="256" cy="256" r="256"/>
<g>
	<path style="fill:#656D7A;" d="M153.38,488.312H99.692c-4.568,0-8.532-3.152-9.564-7.6L49.048,303.46
		c-1.5-6.476,3.736-12.544,10.364-12l69.24,4.628c4.388,0.36,8,3.596,8.836,7.92l8.488,43.932c1.172,6.056-3.468,11.68-9.64,11.68
		h-15.48c-4.76,0-8.824,3.404-9.668,8.092c-2.132,11.832-3.088,33.672,15.192,44.896c19.568,12.016,32.736,40.584,36.728,64.648l0,0
		C163.864,483.124,159.292,488.312,153.38,488.312z"/>
	<circle style="fill:#656D7A;" cx="438.76" cy="226.04" r="57.884"/>
</g>
<path style="fill:#FDFEFF;" d="M415.896,52.32v347.448c-88.756-59.048-176.32-99.1-260.768-89.54V141.86
	C239.576,151.416,327.136,111.344,415.896,52.32z"/>
<path style="fill:#E8E7E8;" d="M167.496,172.148c87.38,0.384,142.412-29.104,236.032-81.048
	C333.52,144.348,254.312,185.164,167.496,172.148z"/>
<g>
	<path style="fill:#F1592F;" d="M155.14,141.872V310.24H51.536c-13.892,0-25.924-9.468-29.44-22.916
		c-1.164-4.468-2.18-9-3.028-13.576c-0.888-4.7-1.608-9.444-2.18-14.232c-0.488-4.236-0.868-8.512-1.124-12.832
		c-0.276-4.7-0.424-9.444-0.404-14.232c0-4.236,0.128-8.512,0.34-12.812c0.232-4.7,0.616-9.444,1.1-14.232
		c0.424-4.236,0.952-8.512,1.588-12.812c0.7-4.7,1.484-9.444,2.416-14.232c0.804-4.3,1.716-8.62,2.712-12.96
		c3.156-13.788,15.46-23.528,29.588-23.528H155.14V141.872z"/>
	<path style="fill:#F1592F;" d="M442.772,51.004V401.06c0,7.44-6.032,13.448-13.448,13.448s-13.428-6.012-13.428-13.448V51.004
		c0-7.416,6.012-13.428,13.428-13.428C436.624,37.58,442.772,43.468,442.772,51.004z"/>
</g>
<g>
	<path style="fill:#D64331;" d="M60.496,185.476c0,3.964-3.236,7.116-7.116,7.116H18.392c0.7-4.7,1.484-9.444,2.416-14.232H53.38
		C57.296,178.36,60.496,181.56,60.496,185.476z"/>
	<path style="fill:#D64331;" d="M54.14,212.524c0,3.964-3.236,7.116-7.116,7.116H15.7c0.232-4.7,0.616-9.444,1.1-14.232h30.22
		C50.944,205.404,54.14,208.604,54.14,212.524z"/>
	<path style="fill:#D64331;" d="M54.14,239.568c0,3.964-3.236,7.116-7.116,7.116h-31.26c-0.276-4.7-0.424-9.444-0.404-14.232h31.66
		C50.944,232.452,54.14,235.648,54.14,239.568z"/>
	<path style="fill:#D64331;" d="M60.496,266.632c0,3.948-3.22,7.116-7.116,7.116H19.068c-0.888-4.7-1.608-9.444-2.18-14.232H53.38
		C57.296,259.516,60.496,262.716,60.496,266.632z"/>
</g>
<g>
</g>
<g>
</g>
<g>
</g>
<g>
</g>
<g>
</g>
<g>
</g>
<g>
</g>
<g>
</g>
<g>
</g>
<g>
</g>
<g>
</g>
<g>
</g>
<g>
</g>
<g>
</g>
<g>
</g>
</svg>
