<?xml version="1.0" encoding="iso-8859-1"?>
<!-- Generator: Adobe Illustrator 19.0.0, SVG Export Plug-In . SVG Version: 6.00 Build 0)  -->
<svg version="1.1" id="Capa_1" xmlns="http://www.w3.org/2000/svg" xmlns:xlink="http://www.w3.org/1999/xlink" x="0px" y="0px"
	 viewBox="0 0 512.004 512.004" style="enable-background:new 0 0 512.004 512.004;" xml:space="preserve">
<circle style="fill:#F5EB07;" cx="256" cy="256.002" r="256"/>
<rect x="58.228" y="317.282" style="fill:#5F87C4;" width="30.58" height="144.28"/>
<rect x="163.46" y="282.762" style="fill:#F1592F;" width="30.58" height="178.804"/>
<rect x="216.08" y="315.474" style="fill:#7EC359;" width="30.58" height="146.096"/>
<rect x="268.68" y="248.402" style="fill:#70B1E1;" width="30.58" height="213.16"/>
<rect x="321.32" y="173.842" style="fill:#F1592F;" width="30.58" height="287.728"/>
<rect x="110.844" y="345.842" style="fill:#656D7A;" width="30.58" height="115.716"/>
<rect x="5.612" y="370.202" style="fill:#F1592F;" width="30.58" height="91.372"/>
<path style="fill:#656D7A;" d="M11.192,335.658c-2.22-2.46-2.02-6.252,0.44-8.472l57.872-52.148c1.844-1.664,4.528-2.02,6.744-0.888
	l46.424,23.7l51.16-73.164c1.872-2.676,5.532-3.368,8.248-1.552l47.788,31.896l97.184-135.76c1.928-2.696,5.672-3.32,8.372-1.388
	c2.696,1.928,3.316,5.676,1.388,8.372L236.244,266.738c-1.888,2.632-5.52,3.292-8.208,1.5l-47.736-31.86l-50.788,72.628
	c-1.716,2.456-4.972,3.268-7.648,1.908l-47.4-24.196l-54.8,49.384C17.192,338.326,13.396,338.114,11.192,335.658z"/>
<circle style="fill:#7EC359;" cx="15.648" cy="331.642" r="15.648"/>
<circle style="fill:#F1592F;" cx="73.16" cy="282.762" r="15.648"/>
<circle style="fill:#FDFEFF;" cx="124.6" cy="307.122" r="15.648"/>
<circle style="fill:#F1592F;" cx="178.748" cy="231.314" r="15.648"/>
<circle style="fill:#FDFEFF;" cx="232.92" cy="264.082" r="15.648"/>
<circle style="fill:#70B1E1;" cx="331.928" cy="122.762" r="15.648"/>
<path style="fill:#656D7A;" d="M364.14,338.302c31.16,43.548,71.708,91.988,80.376,100.656c15.44,15.44,40.468,15.44,55.908,0
	s15.44-40.468,0-55.908c-8.668-8.668-57.108-49.212-100.656-80.376L364.14,338.302z"/>
<rect x="348.605" y="275.189" transform="matrix(-0.7071 -0.7071 0.7071 -0.7071 415.0051 792.0349)" style="fill:#4D535F;" width="45.868" height="69.755"/>
<circle style="fill:#D2D2D4;" cx="269.32" cy="207.866" r="146.4"/>
<circle style="fill:#FDFEFF;" cx="269.32" cy="207.866" r="122.752"/>
<path style="fill:#F1592F;" d="M226.012,260.594v62.152c-13.68-5.124-26.2-12.688-37.028-22.108v-40.044H226.012z"/>
<path style="fill:#7EC359;" d="M289.732,300.182v28.764c-6.652,1.116-13.472,1.696-20.416,1.696c-5.62,0-11.2-0.372-16.612-1.156
	v-29.3h37.028V300.182z"/>
<path style="fill:#70B1E1;" d="M353.456,218.978v78.268c-10.704,10.084-23.224,18.308-37.028,24.008v-102.28h37.028V218.978z"/>
<path style="fill:#F1592F;" d="M392.096,207.862c0,18.968-4.296,36.904-11.984,52.936V154.966
	C387.796,170.958,392.096,188.894,392.096,207.862z"/>
<path style="fill:#656D7A;" d="M360.108,125.254L287.916,226.13l-10.788,15.044c-2.272,3.18-6.696,4.008-9.916,1.82l-12.728-8.512
	l-33.844-22.564l-11.24-7.52l-8.224,11.736l-37.648,53.928c-2.808-4.752-5.288-9.668-7.44-14.796l34.26-49.012l11.2-15.992
	c2.272-3.224,6.696-4.092,10-1.9l14.916,9.96l35.912,23.968l7.028,4.712l5.66-7.936l74.508-104.056
	C353.292,118.19,356.804,121.618,360.108,125.254z"/>
<circle style="fill:#F1592F;" cx="207.516" cy="198.282" r="18.944"/>
<circle style="fill:#70B1E1;" cx="273.08" cy="237.922" r="18.944"/>
<g>
</g>
<g>
</g>
<g>
</g>
<g>
</g>
<g>
</g>
<g>
</g>
<g>
</g>
<g>
</g>
<g>
</g>
<g>
</g>
<g>
</g>
<g>
</g>
<g>
</g>
<g>
</g>
<g>
</g>
</svg>
