<?xml version="1.0" encoding="iso-8859-1"?>
<!-- Generator: Adobe Illustrator 19.0.0, SVG Export Plug-In . SVG Version: 6.00 Build 0)  -->
<svg version="1.1" id="Capa_1" xmlns="http://www.w3.org/2000/svg" xmlns:xlink="http://www.w3.org/1999/xlink" x="0px" y="0px"
	 viewBox="0 0 512 512" style="enable-background:new 0 0 512 512;" xml:space="preserve">
<circle style="fill:#896D61;" cx="256" cy="256" r="256"/>
<circle style="fill:#F1592F;" cx="256" cy="256" r="112.96"/>
<g>
	<path style="fill:#FDFEFF;" d="M251.568,339.552v-14.716c-18.416-1.88-34.94-9.204-49.592-21.964l14.716-17.536
		c11.296,9.808,22.916,15.652,34.876,17.536v-39.108c-15.192-3.624-26.304-8.4-33.36-14.312s-10.588-14.684-10.588-26.304
		c0-11.624,4.068-21.128,12.196-28.528c8.128-7.392,18.716-11.416,31.752-12.092v-10.08h12.904v10.276
		c14.78,1.084,28.756,6.12,41.932,15.124l-13.108,18.544c-8.868-6.316-18.48-10.212-28.824-11.696v37.896h0.608
		c15.452,3.632,26.804,8.54,34.064,14.716c7.26,6.184,10.884,15.156,10.884,26.912c0,11.764-4.168,21.344-12.5,28.724
		c-8.332,7.4-19.348,11.424-33.056,12.1v14.508H251.568z M237.352,209.44c-3.42,3.02-5.136,6.784-5.136,11.288
		s1.336,8.064,4.028,10.68c2.692,2.624,7.792,5.144,15.32,7.564v-34.876C245.52,204.632,240.78,206.412,237.352,209.44z
		 M279.792,297.828c3.756-3.084,5.644-6.98,5.644-11.688c0-4.7-1.484-8.432-4.436-11.188s-8.464-5.34-16.528-7.76v36.28
		C270.916,302.808,276.028,300.92,279.792,297.828z"/>
	<path style="fill:#FDFEFF;" d="M256,432.904c-97.544,0-176.904-79.36-176.904-176.904S158.456,79.096,256,79.096
		S432.904,158.456,432.904,256S353.544,432.904,256,432.904z M256,99.96c-86.04,0-156.04,70-156.04,156.04s70,156.04,156.04,156.04
		s156.04-70,156.04-156.04S342.04,99.96,256,99.96z"/>
	<path style="fill:#FDFEFF;" d="M256,379.52c-68.108,0-123.52-55.412-123.52-123.52S187.892,132.48,256,132.48
		S379.52,187.892,379.52,256S324.108,379.52,256,379.52z M256,153.344c-56.604,0-102.656,46.052-102.656,102.656
		S199.396,358.656,256,358.656S358.656,312.604,358.656,256S312.604,153.344,256,153.344z"/>
	<rect x="245.56" y="368.08" style="fill:#FDFEFF;" width="20.864" height="102.612"/>
	<rect x="245.56" y="41.304" style="fill:#FDFEFF;" width="20.864" height="103.028"/>
	<rect x="368.96" y="245.56" style="fill:#FDFEFF;" width="101.724" height="20.864"/>
	<rect x="41.304" y="245.56" style="fill:#FDFEFF;" width="102.572" height="20.864"/>
	<polygon style="fill:#FDFEFF;" points="470.692,378.352 470.692,470.692 378.356,470.692 378.356,449.86 449.812,449.86 
		449.812,378.352 	"/>
	<polygon style="fill:#FDFEFF;" points="378.356,41.304 470.696,41.304 470.696,133.644 449.86,133.644 449.86,62.188 
		378.356,62.188 	"/>
	<polygon style="fill:#FDFEFF;" points="41.308,378.352 41.308,470.692 133.644,470.692 133.644,449.86 62.188,449.86 
		62.188,378.352 	"/>
	<polygon style="fill:#FDFEFF;" points="133.644,41.304 41.304,41.304 41.304,133.644 62.14,133.644 62.14,62.188 133.644,62.188 	
		"/>
</g>
<g>
</g>
<g>
</g>
<g>
</g>
<g>
</g>
<g>
</g>
<g>
</g>
<g>
</g>
<g>
</g>
<g>
</g>
<g>
</g>
<g>
</g>
<g>
</g>
<g>
</g>
<g>
</g>
<g>
</g>
</svg>
