<?xml version="1.0" encoding="iso-8859-1"?>
<!-- Generator: Adobe Illustrator 19.0.0, SVG Export Plug-In . SVG Version: 6.00 Build 0)  -->
<svg version="1.1" id="Capa_1" xmlns="http://www.w3.org/2000/svg" xmlns:xlink="http://www.w3.org/1999/xlink" x="0px" y="0px"
	 viewBox="0 0 504.96 504.96" style="enable-background:new 0 0 504.96 504.96;" xml:space="preserve">
<circle style="fill:#FAD307;" cx="252.48" cy="252.48" r="252.48"/>
<polygon style="fill:#FDFEFF;" points="425.94,31.58 425.94,473.428 79.012,473.428 79.012,117.504 164.936,31.58 "/>
<g>
	<polygon style="fill:#E8E7E8;" points="164.936,31.58 164.936,117.504 79.012,117.504 	"/>
	<rect x="177.32" y="282.92" style="fill:#E8E7E8;" width="206.468" height="14.688"/>
	<rect x="177.32" y="339.72" style="fill:#E8E7E8;" width="206.468" height="14.688"/>
	<rect x="177.32" y="396.48" style="fill:#E8E7E8;" width="206.468" height="14.688"/>
</g>
<g>
	<rect x="121.16" y="272.048" style="fill:#F1592F;" width="36.468" height="36.468"/>
	<rect x="121.16" y="328.84" style="fill:#F1592F;" width="36.468" height="36.468"/>
	<rect x="121.16" y="385.6" style="fill:#F1592F;" width="36.468" height="36.468"/>
</g>
<rect x="140.188" y="169" style="fill:#7EC359;" width="26.04" height="70.664"/>
<rect x="189.84" y="133.84" style="fill:#40B9E3;" width="26.04" height="105.844"/>
<rect x="289.08" y="133.84" style="fill:#7EC359;" width="26.04" height="105.844"/>
<rect x="338.72" y="111.836" style="fill:#40B9E3;" width="26.04" height="127.828"/>
<rect x="239.46" y="155.808" style="fill:#F1592F;" width="26.04" height="83.856"/>
<g>
</g>
<g>
</g>
<g>
</g>
<g>
</g>
<g>
</g>
<g>
</g>
<g>
</g>
<g>
</g>
<g>
</g>
<g>
</g>
<g>
</g>
<g>
</g>
<g>
</g>
<g>
</g>
<g>
</g>
</svg>
