<?xml version="1.0" encoding="iso-8859-1"?>
<!-- Generator: Adobe Illustrator 19.0.0, SVG Export Plug-In . SVG Version: 6.00 Build 0)  -->
<svg version="1.1" id="Capa_1" xmlns="http://www.w3.org/2000/svg" xmlns:xlink="http://www.w3.org/1999/xlink" x="0px" y="0px"
	 viewBox="0 0 512 512" style="enable-background:new 0 0 512 512;" xml:space="preserve">
<circle style="fill:#4786C6;" cx="256" cy="256" r="256"/>
<g>
	<polygon style="fill:#FDFEFF;" points="455.864,201.004 455.864,484.104 322.616,443.836 189.392,484.104 56.144,443.836 
		56.144,160.716 189.392,201.004 322.616,160.716 	"/>
	<polygon style="fill:#FDFEFF;" points="189.392,222.048 138.468,206.652 189.388,222.048 	"/>
	<polygon style="fill:#FDFEFF;" points="433.54,215.292 322.62,181.76 322.62,181.764 375.688,197.808 428.096,213.652 
		433.532,215.296 433.532,351.628 433.532,373.364 433.532,456.308 433.54,456.312 	"/>
	<polygon style="fill:#FDFEFF;" points="78.476,188.516 138.468,206.652 78.468,188.512 78.468,239.56 78.476,239.568 	"/>
	<rect x="256" y="132.32" style="fill:#FDFEFF;" width="0" height="139.18"/>
</g>
<g>
	<polygon style="fill:#F7CFA3;" points="78.476,239.568 177.416,362.1 188.436,352.076 189.396,351.128 189.396,222.048 
		189.392,222.048 189.388,222.048 138.468,206.652 78.476,188.516 	"/>
	<polygon style="fill:#F7CFA3;" points="375.688,197.808 322.62,181.764 322.62,220.496 	"/>
</g>
<polygon style="fill:#F0B97C;" points="189.396,351.128 321.4,221.016 322.62,220.496 322.62,181.764 322.616,181.764 
	189.396,222.048 "/>
<polygon style="fill:#FDFEFF;" points="78.476,429.536 78.476,271.764 78.468,271.752 78.468,429.54 99.156,435.792 99.16,435.784 
	"/>
<g>
	<polygon style="fill:#F7CFA3;" points="78.476,271.764 78.476,429.536 99.16,435.784 162.092,373.132 	"/>
	<polygon style="fill:#F7CFA3;" points="322.62,255.284 322.62,272.2 322.88,272.204 433.532,351.628 433.532,215.296 
		428.096,213.652 323.376,254.556 	"/>
</g>
<polygon style="fill:#F0B97C;" points="322.62,272.2 322.62,255.284 305.58,271.764 "/>
<polygon style="fill:#FDFEFF;" points="189.396,463.044 137.952,447.504 137.944,447.512 189.388,463.06 322.612,422.792 
	433.532,456.312 433.532,456.308 322.62,422.78 "/>
<g>
	<polygon style="fill:#7EC359;" points="137.952,447.504 189.396,463.044 189.396,393.552 	"/>
	<polygon style="fill:#7EC359;" points="322.88,294.096 322.62,294.064 322.62,422.78 433.532,456.308 433.532,373.364 	"/>
</g>
<polygon style="fill:#6BBE49;" points="189.396,393.552 189.396,463.044 322.62,422.78 322.62,294.064 288.28,289.856 "/>
<g>
	<rect x="118.548" y="421.4" style="fill:#FDFEFF;" width="0.008" height="40.52"/>
	<rect x="78.468" y="239.564" style="fill:#FDFEFF;" width="0.012" height="32.2"/>
	<polygon style="fill:#FDFEFF;" points="189.396,351.128 188.436,352.076 177.416,362.1 78.476,239.568 78.476,271.764 
		162.092,373.132 99.16,435.784 137.952,447.504 189.396,393.552 	"/>
	<polygon style="fill:#FDFEFF;" points="322.62,272.2 322.62,294.064 322.88,294.096 433.532,373.364 433.532,351.628 
		322.88,272.204 	"/>
	<polygon style="fill:#FDFEFF;" points="322.62,255.284 323.376,254.556 428.096,213.652 375.688,197.808 322.62,220.496 	"/>
</g>
<polygon style="fill:#E8E7E8;" points="305.58,271.764 322.62,255.284 322.62,220.496 321.4,221.016 189.396,351.128 
	189.396,393.552 288.28,289.856 322.62,294.064 322.62,272.2 "/>
<path style="fill:#F1592F;" d="M312.772,115.692c0,45.112-81.684,159.616-81.684,159.616s-81.684-114.504-81.684-159.616
	s36.572-81.684,81.684-81.684S312.772,70.58,312.772,115.692z"/>
<circle style="fill:#FDFEFF;" cx="231.088" cy="115.692" r="45.936"/>
<g>
</g>
<g>
</g>
<g>
</g>
<g>
</g>
<g>
</g>
<g>
</g>
<g>
</g>
<g>
</g>
<g>
</g>
<g>
</g>
<g>
</g>
<g>
</g>
<g>
</g>
<g>
</g>
<g>
</g>
</svg>
