<?xml version="1.0" encoding="iso-8859-1"?>
<!-- Generator: Adobe Illustrator 19.0.0, SVG Export Plug-In . SVG Version: 6.00 Build 0)  -->
<svg version="1.1" id="Capa_1" xmlns="http://www.w3.org/2000/svg" xmlns:xlink="http://www.w3.org/1999/xlink" x="0px" y="0px"
	 viewBox="0 0 512 512" style="enable-background:new 0 0 512 512;" xml:space="preserve">
<circle style="fill:#DFDFDF;" cx="256" cy="256" r="256"/>
<path style="fill:#F1592F;" d="M66.736,131.984h207.292c6.284,0,11.38,4.972,11.38,11.108v130.044
	c0,6.136-5.096,11.108-11.38,11.108H66.736c-6.284,0-11.38-4.972-11.38-11.108v-130.04C55.352,136.96,60.448,131.984,66.736,131.984
	z"/>
<g>
	<path style="fill:#D64331;" d="M197.184,175.772c0.528,0.496,1.268,0.496,1.54,1.208c0.16,0.424-0.1,1,0.012,1.44
		c0.148,0.584,0.716,1.416,1.004,1.904c2.036,3.424,7.44-0.1,4.036-6.38c-0.452-0.836-1.128-1.74-1.088-2.732
		c0.044-1.128,1.044-1.876,1.264-2.92c0.256-1.22-0.592-2.484-0.28-3.652c0.416-1.544,1.228-0.86,2.276-1.248
		c0.62-0.228,1.296-1.224,1.456-1.82c0.348-1.312-0.488-1.828-1.556-2.028c-1.016-0.192-1.796-0.728-2.668-1.28
		c-0.632-0.4-0.604-0.824-1.028-1.28c-0.476-0.516-1.056-0.64-1.664-0.868c-0.98-0.364-1.984-0.816-3.048-0.824
		c-0.968-0.008-2.384,1.492-3.164,1.052c-1.052-0.596-0.504-2.612-2.248-2.8c-0.744-0.08-1.688,0.28-2.484,0.296
		c-0.692,0.012-1.616-0.08-2.184,0.396c-0.876,0.736-0.12,2.444-0.864,2.972c-0.52,0.368-2.724,0-3.404,0.024
		c-0.428,1.096,0.288,2.448,0.808,3.368c0.528,0.936,1.772,1.44,2.08,2.148c0.34,0.784,0.148,1.88,0.288,2.728
		c0.128,0.784,0.992,2.868,1.568,3.34c0.448,0.364,0.896,0.088,1.288,0.692c0.364,0.56,0.156,1.068,0.24,1.68
		C189.804,174.416,195.176,173.544,197.184,175.772z"/>
	<path style="fill:#D64331;" d="M216.048,264.136c2.188,0,2.46,0.268,3.636-1.252c0.976-1.256,0.504-1.696,0.884-3.256
		c0.368-1.508,1.224-2.236,0.94-4.1c-0.892-5.848,0.724-6.228,0.404-10.64c-0.148-2.064-2.26-5.16-1.088-7.328
		c1.28-2.368,5.64-3.096,7.248-5.284c0.908-1.232,1.172-4.796,0.888-6.408c-0.256-1.456-1.828-2.644-1.92-4.02
		c-0.112-1.712,1.088-1.556,2.304-2.416c1.168-0.824,1.852-2.016,3.144-2.684c1.38-0.712,3.036-0.512,4.516-0.992
		c1.536-0.5,3.484-1.836,4.716-2.896c1.568-1.348,1.392-2.512,1.9-4.428c0.548-2.056,2.352-5.78,3.688-7.376
		c0.072,1.536-0.02,2.872-0.352,4.32c-0.26,1.124-1.384,3.232-1.072,4.148c2.056-0.992,1.884-3.48,2.54-5.336
		c0.872-2.472,4.296-6.384,4.196-9.128c-0.064-1.74-1.708-2.552-2.36-4.028c-0.296-0.672-0.672-2.216-0.584-2.944
		c0.18-1.492,0.648-1.072,1.34-2.228c0.896-1.496,0.876-3.172,0.816-4.9c-0.136-3.844,0.532-6.688,4.652-8.208
		c2.076-0.764,4.352,0.124,6.104,1.656c0.988,0.864,1.312,1.76,2.576,2.388c1.252,0.62,2.38,0.728,3.736,0.744
		c-0.372-2.02-4.776-1.62-4.292-4.276c2.78,0.14,3.648-4.392,1.988-5.94c-1.084-1.012-2.98-0.656-3.24-2.292
		c-0.12-0.752,0.884-1.752,0.76-2.924c-0.976-0.188-3.44,0.22-4.048-0.716c-0.956-1.468,1.276-2.544-1.076-3.436
		c-1.048-0.396-3.024-0.472-4.172-0.6c-5-0.572-6.248,0.664-7.876,2.536c-0.744,0.856-1.444,2.5-2.352,3.212
		c-1.856,1.456-5.112-0.284-7.14,0.896c-1.46,0.848-1.232,2.468-2.34,3.552c-0.964,0.94-2.284,0.6-3.604,0.964
		c3.38-0.036,3.212-1.392,3.1-3.712c-0.128-2.636,0.828-2.256,3.34-2.388c-0.54-1.256-1.772-0.668-2.708-1.288
		c-0.512-0.34-1.084-2.176-1.216-2.228c-0.528-0.224-2.628,1.232-3.168,1.772c-0.624,0.628-0.74,2.228-1.3,2.552
		c-0.792,0.46-2.052-0.7-2.592-0.38c-1.268,0.752-0.18,1.548-0.08,2.244c0.2,1.408,0.476,1.492,1,2.448
		c0.452,0.828,1.384,0.544,0.66,2.128c-1.84,0.036-1.88,0.184-2.72-1.048c-0.596-0.872,0.548-2.184-1.532-1.86
		c-0.016,0.736-0.012,1.468-0.22,2.088c-1.212-1.324,0.1-2.576-0.34-4.008c0.976,1.576,2.528,0.508,1.672-0.976
		c-0.596-1.036-2.052-0.572-3.06-0.632c-0.844-0.052-3.3,0.18-2.08-1.392c0.876-1.128,2.936,0.536,3.044-1.476
		c2.096,0.768,3.908-0.224,6.332-0.068c0.268-0.784-0.072-1.644-0.224-2.312c0.916,0.008,1.808-0.392,2.464-0.972
		c-0.492,0.044-0.924-0.188-1.364-0.22c-0.004-0.124-0.008-0.248-0.012-0.368c-0.812-0.344-2.02-0.724-2.924-0.284
		c-1.232,0.596-1.032,1.956-1.912,2.792c-0.184-1.428-0.076-4.316-2.188-3.908c-2.292,0.444-0.224,2.74-0.412,4.26
		c-1.016,0.608-1.808,0.228-2.904,0.332c-1.112,0.108-1.612,0.568-2.728,0.704c0.22,1.92-0.68,2.376-2.532,2.34
		c1.104-0.204,2.088-0.948,1.66-2.144c-0.952,0.192-1.7-0.348-1.468-1.26c-0.448-0.036-0.912-0.392-1.316-0.456
		c0.68-0.844,1.708-0.492,2.084-1.472c0.384-1-0.5-2.06-1.136-2.708c-1.512-1.544-3.084-1.444-5.032-1.752
		c-9.78-1.544-6.152-0.056-10.276,0.98c0.668,0.584,1.372,1.336,2.116,1.736c0.52,0.28,1.14,0.304,1.616,0.584
		c0.396,0.236,0.588,0.732,0.94,0.98c0.716,0.5,1.656,0.56,2.5,0.564c1.376,0.004,2.188,0.152,3.456,0.572
		c-0.308,0.652-2.276,0.216-1.288,1.572c0.296,0.404,1.4,0.932,1.872,1.24c0.716,0.468,1.568,0.776,1.908,1.5
		c0.312,0.672,0.4,0.996,0.8,1.592c0.272,0.408,0.372,0.22,0.356,0.716c-0.004,0.108-0.516,1.148-0.572,1.228
		c-0.44,0.6-1.372,0.976-1.844,1.572c-0.424,0.536-0.708,2.272-0.864,2.936c-0.156,0.66-0.436,0.78-0.752,1.332
		c-0.248,0.428-0.684,2.348-0.12,2.856c0.536,0.484,2.36,0.104,2.532-0.592c1.288,0.876-0.648,1.26-0.896,1.66
		c-0.588,0.94,0.98,1.956,1.688,2.088c1.66,0.316,2.536,0.232,2.896-3.548c0.544,0.116,1.164,0.124,1.696,0.052
		c0.044-0.164,0.044-0.464-0.008-0.624c-0.4-0.108-0.792-0.272-1.184-0.372c-0.208-0.052-1.452-0.116-1.584-0.212
		c-0.128-0.092-0.752-1.392-0.792-1.652c-0.308-2.06,2.224,0.972,2.632-0.532c0.212-0.792-2.036-2.748,0.56-2.084
		c1.54,0.392,1.768,1.692,1.74,3.084c0.912,0.064,2.752-0.028,3.228,0.784c-0.388,0.268-1.716,0.528-1.96,0.912
		c-0.448,0.696,0.3,1.404,0.852,1.672c0.38,0.184,1.384,0.496,1.804,0.308c1.068-0.484,0.284-1.724,1.956-1.536
		c1.692,0.192,2.672,2.06,3.572,3.272c0.704,0.944,0.784,2.928,0.344,4.076c-0.312,0.804-1.032,1.444-1.736,1.74
		c-1.132,0.476-1.884,0.24-2.452,1.468c-0.62,1.336-0.448,4.068-2.736,3.476c-1.708-0.444-0.24-3.548-0.756-4.756
		c-0.156-0.36-0.516-0.312-0.672-0.688c-0.14-0.344,0.012-1.1,0.008-1.46c-0.012-0.988-0.08-1.888-0.652-2.688
		c-0.9-1.256-3.464-1.732-4.188,0.1c-0.228,0.576,0.224,1.676-0.088,2.232c-0.344,0.612-1.144,0.352-1.92,0.4
		c-0.156-0.488-0.704-1.188-1.212-1.276c-1.312-0.224-0.836,1.392-0.92,2.192c-0.136,1.32-0.244,1.74-1.252,2.348
		c-0.536,0.324-1.532,0.772-1.732,1.396c-0.268,0.84,0.524,1.084,0.78,1.776c0.464,1.252-0.336,1.44-1.036,2.068
		c-0.604,0.544-0.928,1.06-0.556,2.036c0.42,1.088,3.216,1.264,3.896,0.36c0.572-0.76-0.06-2.288,0.972-2.912
		c0.952-0.576,3.252,0.016,4.196,0.376c-0.596,0.896-2.388,1.324-2.688,2.336c-0.284,0.964,0.672,2.26,1.512,2.528
		c1.516,0.484,1.96-0.864,3.3-0.784c0.588,0.036,0.6,0.036,0.9,0.496c0.356,0.552,0.388,1.368,0.788,1.98
		c0.152,0.236,0.336,0.48,0.504,0.704c0.6,0.812,1.068,1.776,1.812,2.44c0.72,0.64,1.412,1.144,1.844,2.012
		c0.392,0.788,0.428,1.808,0.92,2.544c0.272,0.404,0.916,0.764,1.244,1.256c0.832,1.244,0.388,0.796,0.12,1.9
		c-0.112,0.464-0.06,0.876,0.076,1.364c1.672,0.332,1.54-1.636,2.1-2.592c0.5-0.848,1.168-1.788,2.136-1.964
		c1.268-0.232,2.872,0.044,4.12,0.108c0.916,0.048,2.036,0.044,2.416,1.048c0.404,1.064-0.332,2.28,0.084,3.42
		c0.344,0.936,0.9,1.332-0.044,2.124c-1.164,0.976-5.072,1.956-4.788-0.404c-2.212-0.96-0.564,2.296-0.568,2.728
		c-0.02,1.272-2.68,1.52-3.1,2.68c-0.488,1.348,0.156,2.276-1.572,2.848c-1.796,0.596-2.576,0.16-3.836-1.204
		c-2.272-0.612-4.6-0.584-6.708,0.44c-0.344,0.168-0.78,0.448-1.236,0.536c-0.34,0.064-0.68-0.108-1,0.08
		c-0.328,0.192-0.116,0.428-0.396,0.644c-0.592,0.452-2.748,0.856-2.068,2.088c-1.256,1.224-2.412-0.184-2.936,1.856
		c-0.156,0.604-0.368,1.144-0.228,1.848c0.116,0.572,0.448,1.032,0.36,1.672c-1.528,0.488-3.268,0.276-4.856,0.428
		c-0.636,0.06-1.62-0.064-2.188,0.26c-0.724,0.412-0.656,1.044-0.776,1.856c-0.32,2.112-0.208,4.308,0.432,6.312
		c0.484,1.516,1.588,2.692,2.08,4.2c0.564,0.044,1.3,0.86,1.844,1.188c0.652,0.392,0.924,0.216,1.536,0.448
		c0.828,0.316,0.792,1.148,0.872,1.94c0.108,1.1,0.308,1.904,0.988,2.824c0.816,1.104,2.164,1.576,2.96,2.728
		c2.148,3.116,4.932,4.876,4.124,8.572c-0.168,0.772,1.268,3.012,0.636,5.344C216.996,263.688,217.116,263.84,216.048,264.136z"/>
	<path style="fill:#D64331;" d="M147.804,218.816c-0.236-0.06-0.648-0.008-0.896,0.02c-0.644,2.036,1.352,4.044,2.944,4.952
		c0.596,0.34,3.404,2.148,3.804,2.704c0.904,1.252-0.524,2.88-0.708,4.212c-0.232,1.692-0.052,2.912,0.956,4.368
		c0.74,1.068,2.048,1.488,2.628,2.616c0.332,0.652,0.076,1.24,0.3,1.84c0.36,0.964,1.18,1.648,1.66,2.56
		c0.468,0.884,0.712,1.896,1.124,2.768c1.56,3.288,5.356,2.904,7.924,1.024c1.4-1.024,2.02-3.332,2.804-4.936
		c1.264-2.588,0.512-6.984,0.26-9.768c-0.184-2.02,0.672-2.724,1.26-4.432c0.64-1.852-0.496-3.192,1.992-3.752
		c0.396-0.088,1.344-0.036,1.652-0.276c0.656-0.512,0.292-1.464,1.184-1.936c1.304-0.688,3.688,0.58,5.032,0.676
		c7.884,0.544,10.248-18.144-3.916-21.06c-2.316-0.476-4.892,0.304-7.184,0.488c-0.032,0.636,0.272,2.264-0.016,2.82
		c-0.404,0.772-1.228,0.512-2.2,0.512c-1.58,0-3.024-0.28-4.568-0.28c-1.564,0.004-4.244,0.46-5.628-0.248
		c-3.924-2.012,4.696-3.472,5.9-3.632c1.108-0.144,2.388,0.388,3.04-0.848c0.432-0.82-0.184-1.3,0.676-1.984
		c1.196-0.952,4.164-1.332,5.636-1.352c1.088-0.016,2.324-0.1,3.192,0.604c1.072,0.872,1.316,2.04,2.692,2.784
		c1.772,0.96,4.368,1.964,5.42-0.292c1.456-3.124-1.664-4.108-4.028-4.788c-0.724-0.208-2.068-0.436-1.952-1.588
		c0.048-0.468,0.484-0.512,0.612-0.812c0.116-0.28,0.448-1.512,0.62-1.7c0.692-0.756,2.272,0.28,3.072-0.3
		c2.564-1.856-3.024-11.356-4.072-5.888c-0.3,1.568,0.072,2.368-2.84,2.668c-4,0.408-0.86-2.668-0.692-4.472
		c0.148-1.592-0.676-2.252-1.612-3.444c-2.804-3.576-1.6-4.884-6.292-7.04c-7.104-3.264-6.3,1.736-11.74,1.744
		c-1.888,0.004-2.808-0.332-4.476-1.408c-0.808-0.524-1.644-1.412-2.572-1.656c-0.976-0.252-1.936,0.448-2.504-0.48
		c-0.576-0.94,0.544-2.368,0.416-3.352c-0.568-0.116-1.52-0.548-2.092-0.404c-0.648,0.164-0.496,0.752-1.032,1
		c-1.64,0.756-3.796-1.26-4.756-2.34c-1.5-1.68-1.516-4.52-2.544-5.692c-0.888-1.012-2.924-2.64-4.212-1.8
		c-1.164,0.76-0.644,1.496-2.264,1.804c-1.316,0.252-2.008-0.276-2.132,1.16c-0.112,1.276,1.016,2.22,1.508,3.28
		c-0.984,0.104-1.388-0.628-2.088-1.092c-2.028-1.352-5.604,0.228-6.02-2.456c-2.364-0.556-2.696,1.796-4.46,2.436
		c-1.256,0.456-4.112-0.636-3.984-2.068c0.092-1.008,0.176-1.66,0.344-2.656c-2.412-1.04-4.068,0.212-6.184,0.716
		c-0.772,0.184-1.588,0.152-2.384,0.26c-1.944,0.26-0.972-0.088-2.336-1.136c-0.58-0.444-1.44-0.544-2.2-0.384
		c-1.56,0.332-0.508,0.976-1.668,1.768c-0.744,0.512-2.324-0.172-2.924-0.468c-1.172-0.58-1.22-0.9-1.108-2.428
		c-5.36-1.456-13.116,1.096-13.552,2.64c-0.172,0.604,0.4,1.548,0.756,1.992c0.936,1.176,1.452,0.508,2.748,0.92
		c2.908,0.916,1.42,3.3-1.092,3.244c-0.504,1.34,0.312,2.288,1.228,3.284c1.092,1.188,2.1,1.112,3.416,1.828
		c0.916,0.496,2.072,1.884,1.604,3.212c-0.364,1.032-1.608,1.06-1.948,2.496c-0.292,1.232-0.416,2.52-0.424,3.792
		c-0.012,1.54-0.616,3.688,1.152,4.14c3.444,0.884,2.796-6.712,3.18-8.696c0.192-0.992,0.864-3.508,1.764-3.98
		c2.524-1.32,2.78,2.348,2.156,3.752c0.88,0.412,1.912,0.192,2.88,0.292c1.34,0.14,1.96,0.736,3.132,1.46
		c0.632,0.388,2.468,1.012,2.648,1.832c0.304,1.404-1.812,1.276-2.692,1.676c-2.992,1.368-2.676,4.296-2.832,7.912
		c-0.252,0.052-0.684,0.124-0.96,0.052c-0.536,1.504-0.052,3.912,1.38,4.768c1.268,0.76,2.292,1.208,2.588,2.824
		c0.276,1.508-1,1.852-1.6,3.028c-0.8,1.572,0.268,3.564,2.092,1.988c0.828-0.716,0.428-1.98,1.184-2.644
		c0.416-0.364,1.376-0.756,1.908-1.112c1.668-1.12,2.712,0.148,2.62,2c-0.056,1.128-0.416,1.588-1.22,2.388
		c-0.6,0.596-1.584,1.204-1.828,2.076c-0.432,1.544,0.088,3.468,0.888,4.728c1.108,1.744,1.884,2.644,3.912,3.056
		c3.024,0.616,4.068,2.284,2.396,6.388c-0.336,0.82-1.308,1.376-0.16,2.004c1.688,0.924,4.788-1.212,5.26-2.548
		c0.068-0.192-0.192-0.46-0.1-0.688c0.096-0.244,0.496-0.256,0.632-0.468c1.428-2.208,0.432-0.884,2.432-2.492
		c0.812-0.652,1.14-1.208,1.672-1.976c0.608-0.876,0.94-0.92,1.964-0.288c1.664,1.036,3.984,2.384,4.92,4.196
		c0.504,0.98,0.412,1.184,0.188,2.344c-0.104,0.544-0.108,1.112-0.348,1.62c-0.176,0.368-0.948,0.888-1.012,1.272
		c-0.18,1.132,1.848,0.964,2.624,0.684c1.188-0.432,1.652-1.464,2.028-2.576c0.356-1.048,1.076-1.836,1.372-2.852
		c0.296-1.016,0-1.808,0.692-2.732c0.892-1.188,1.792-2.188,3.152-2.768c0.912-0.388,1.84-1.124,2.724-1.32
		c2.296-0.504,4.72,0.896,6.444-0.992c0.764-0.836,1.448-1.504,2.436-1.896c-0.008,0.704-1.152,2.904-1.708,3.484
		c-0.992,1.032-2.36,0.684-3.672,0.76c-0.872,0.048-1.012-0.228-1.372,0.62c-0.212,0.496-0.056,1.46,0.26,1.892
		c0.552,0.752,2.416,1.3,3.284,1.776c6.268,3.432,6.108,1.892,6.732-0.492c0.676-2.568,3.468-6.08,6.096-6.928
		c0.848,3.384-2.372,6.448-4.72,8.26c-0.992,0.768-1.876,1.62-2.7,2.544C149.876,218.732,149.072,218.28,147.804,218.816z"/>
	<path style="fill:#D64331;" d="M102.54,248.08c1.232,0.6,2.564,1.028,3.928,1.308c1.436,0.292,2.592,0.62,3.384-0.704
		c0.828-1.384,1.564-2.832,0.496-4.08c-0.392-0.456-0.652-0.432-0.9-1.052c-0.264-0.664-0.384-1.596-0.452-2.316
		c-0.18-1.836-1.32-2.564-2.904-3.216c-1.396-0.576-2.816-1.16-4.064-2.228c-1.12-0.96-1.704-2.032-3.112-2.496
		c-0.824-0.272-1.544-0.464-2.464-0.448c-0.96,0.02-1.516,0.04-2.264,0.708c-0.7,0.628-0.744,1.944-1.496,2.356
		c-1.608,0.88-2.644-1.988-2.756-3.052c-1.888-0.272-2.488,1.64-3.056,3.008c-0.672,1.612-1.936,3.12-2.148,4.856
		c-0.14,1.172-0.012,2.308-0.24,3.472c-0.276,1.4-0.076,2.012,0.416,3.336c0.368,0.992,0.336,2.412,0.956,3.284
		c0.288,0.404,0.876,0.6,1.22,1c0.468,0.544,0.54,1.12,1.136,1.568c1.588,1.2,3.268,0.796,4.884-0.02
		c1.872-0.944,2.696-1.292,3.352-3.492C97.348,246.896,100.508,246.944,102.54,248.08z"/>
</g>
<path style="fill:#F5EA07;" d="M225.74,166.944v25.048c0,0.372,0.024,0.744,0.1,1.092c0.52,2.928,3.08,5.14,6.156,5.14h25.02
	c3.504,0,6.256-2.844,6.256-6.232c0-1.176,0.084-25.34-0.148-26.388c-0.596-2.804-3.104-4.916-6.108-4.916h-25.02
	C228.524,160.692,225.74,163.488,225.74,166.944z"/>
<path style="fill:#E8BB20;" d="M225.74,167.444h10.624c-1.068,3.672-1.664,5.512-1.764,10.996h-8.86v1.836h8.86
	c0.124,3.648,1.068,7.324,2.656,10.996H225.74v0.72c0,0.372,0.024,0.744,0.1,1.092h37.332c0.128-0.588,0.1-1.2,0.1-1.812h-12.264
	c1.588-3.672,2.532-7.348,2.656-10.996h9.608v-1.836h-9.608c-0.1-5.484-0.696-7.324-1.764-10.996h11.368
	c0-0.704,0.012-1.112-0.148-1.836h-37.236c-0.1,0.448-0.148,0.892-0.148,1.34v0.496H225.74z M238.348,167.444h11.544
	c1.24,3.672,1.936,7.124,1.936,10.872c0,4.816-1.092,9.284-2.98,12.956h-9.432C236.164,184.94,235.276,176.724,238.348,167.444z"/>
<circle style="fill:#FDFEFF;" cx="95.736" cy="183.172" r="17.224"/>
<circle style="fill:#4D5BA5;" cx="117.404" cy="183.172" r="17.224"/>
<g>
	<path style="fill:#FFFFFF;" d="M260.928,239.436c0.892,1.132,1.34,2.98,1.34,5.548c0,2.62-0.404,4.436-1.22,5.456
		c-0.812,1.02-1.884,1.532-3.212,1.532c-1.32,0-2.352-0.464-3.092-1.396c-0.892-1.132-1.34-2.984-1.34-5.568
		c0-2.588,0.444-4.44,1.332-5.556c0.744-0.944,1.776-1.416,3.1-1.416C259.156,238.04,260.188,238.504,260.928,239.436z
		 M256.996,240.508c-0.244,0.204-0.448,0.604-0.612,1.2c-0.16,0.6-0.24,1.7-0.24,3.3s0.092,2.736,0.268,3.408
		c0.136,0.52,0.328,0.884,0.576,1.084s0.532,0.3,0.848,0.3c0.316,0,0.596-0.1,0.844-0.296c0.244-0.2,0.448-0.596,0.608-1.196
		s0.244-1.7,0.244-3.3s-0.088-2.74-0.268-3.416c-0.136-0.52-0.328-0.884-0.576-1.084s-0.528-0.3-0.848-0.3
		C257.52,240.208,257.24,240.308,256.996,240.508z"/>
	<path style="fill:#FFFFFF;" d="M250.324,239.436c0.892,1.132,1.34,2.98,1.34,5.548c0,2.62-0.404,4.436-1.22,5.456
		c-0.812,1.02-1.884,1.532-3.212,1.532c-1.32,0-2.352-0.464-3.092-1.396c-0.892-1.132-1.34-2.984-1.34-5.568
		c0-2.588,0.444-4.44,1.332-5.556c0.744-0.944,1.776-1.416,3.1-1.416C248.556,238.04,249.588,238.504,250.324,239.436z
		 M246.392,240.508c-0.244,0.204-0.448,0.604-0.612,1.2c-0.16,0.6-0.24,1.7-0.24,3.3s0.092,2.736,0.268,3.408
		c0.136,0.52,0.328,0.884,0.576,1.084s0.532,0.3,0.848,0.3c0.316,0,0.596-0.1,0.844-0.296c0.244-0.2,0.448-0.596,0.608-1.196
		s0.24-1.7,0.24-3.3s-0.088-2.74-0.268-3.416c-0.136-0.52-0.328-0.884-0.576-1.084s-0.528-0.3-0.848-0.3
		C246.92,240.208,246.636,240.308,246.392,240.508z"/>
	<path style="fill:#FFFFFF;" d="M239.724,239.436c0.892,1.132,1.34,2.98,1.34,5.548c0,2.62-0.404,4.436-1.22,5.456
		c-0.812,1.02-1.884,1.532-3.212,1.532c-1.32,0-2.352-0.464-3.092-1.396c-0.892-1.132-1.34-2.984-1.34-5.568
		c0-2.588,0.444-4.44,1.332-5.556c0.744-0.944,1.776-1.416,3.1-1.416C237.956,238.04,238.988,238.504,239.724,239.436z
		 M235.792,240.508c-0.244,0.204-0.448,0.604-0.612,1.2c-0.16,0.6-0.24,1.7-0.24,3.3s0.092,2.736,0.268,3.408
		c0.136,0.52,0.328,0.884,0.576,1.084s0.532,0.3,0.848,0.3c0.316,0,0.596-0.1,0.844-0.296c0.244-0.2,0.448-0.596,0.608-1.196
		s0.24-1.7,0.24-3.3s-0.088-2.74-0.268-3.416c-0.136-0.52-0.328-0.884-0.576-1.084s-0.528-0.3-0.848-0.3
		C236.32,240.208,236.036,240.308,235.792,240.508z"/>
	<path style="fill:#FFFFFF;" d="M229.124,239.436c0.892,1.132,1.34,2.98,1.34,5.548c0,2.62-0.404,4.436-1.22,5.456
		c-0.812,1.02-1.884,1.532-3.212,1.532c-1.32,0-2.352-0.464-3.092-1.396c-0.892-1.132-1.34-2.984-1.34-5.568
		c0-3.588,0.844-6.972,4.428-6.972C227.352,238.04,228.384,238.504,229.124,239.436z M225.192,240.508
		c-0.244,0.204-0.448,0.604-0.612,1.2c-0.16,0.6-0.24,1.7-0.24,3.3s0.092,2.736,0.268,3.408c0.136,0.52,0.328,0.884,0.576,1.084
		s0.532,0.3,0.848,0.3c0.316,0,0.596-0.1,0.844-0.296c0.244-0.2,0.448-0.596,0.608-1.196s0.24-1.7,0.24-3.3s-0.088-2.74-0.268-3.416
		c-0.136-0.52-0.328-0.884-0.576-1.084s-0.528-0.3-0.848-0.3C225.716,240.208,225.436,240.308,225.192,240.508z"/>
	<path style="fill:#FFFFFF;" d="M213.224,239.436c0.892,1.132,1.34,2.98,1.34,5.548c0,2.62-0.404,4.436-1.22,5.456
		c-0.812,1.02-1.884,1.532-3.212,1.532c-1.32,0-2.352-0.464-3.092-1.396c-0.892-1.132-1.34-2.984-1.34-5.568
		c0-2.588,0.444-4.44,1.332-5.556c0.744-0.944,1.776-1.416,3.1-1.416C211.456,238.04,212.488,238.504,213.224,239.436z
		 M209.292,240.508c-0.244,0.204-0.448,0.604-0.612,1.2c-0.16,0.6-0.24,1.7-0.24,3.3s0.092,2.736,0.268,3.408
		c0.136,0.52,0.328,0.884,0.576,1.084s0.532,0.3,0.848,0.3c0.316,0,0.596-0.1,0.844-0.296c0.244-0.2,0.448-0.596,0.608-1.196
		s0.24-1.7,0.24-3.3s-0.088-2.74-0.268-3.416c-0.136-0.52-0.328-0.884-0.576-1.084s-0.528-0.3-0.848-0.3
		C209.82,240.208,209.536,240.308,209.292,240.508z"/>
	<path style="fill:#FFFFFF;" d="M202.624,239.436c0.892,1.132,1.34,2.98,1.34,5.548c0,2.62-0.404,4.436-1.22,5.456
		c-0.812,1.02-1.884,1.532-3.212,1.532c-1.32,0-2.352-0.464-3.092-1.396c-0.892-1.132-1.34-2.984-1.34-5.568
		c0-2.588,0.444-4.44,1.332-5.556c0.744-0.944,1.776-1.416,3.1-1.416C200.852,238.04,201.884,238.504,202.624,239.436z
		 M198.692,240.508c-0.244,0.204-0.448,0.604-0.612,1.2c-0.16,0.6-0.24,1.7-0.24,3.3s0.092,2.736,0.268,3.408
		c0.136,0.52,0.328,0.884,0.576,1.084s0.532,0.3,0.848,0.3c0.316,0,0.596-0.1,0.844-0.296c0.244-0.2,0.448-0.596,0.608-1.196
		s0.244-1.7,0.244-3.3s-0.088-2.74-0.268-3.416c-0.136-0.52-0.328-0.884-0.576-1.084s-0.528-0.3-0.848-0.3
		C199.216,240.208,198.936,240.308,198.692,240.508z"/>
	<path style="fill:#FFFFFF;" d="M192.02,239.436c0.892,1.132,1.34,2.98,1.34,5.548c0,2.62-0.404,4.436-1.22,5.456
		c-0.812,1.02-1.884,1.532-3.212,1.532c-1.32,0-2.352-0.464-3.092-1.396c-0.892-1.132-1.34-2.984-1.34-5.568
		c0-2.588,0.444-4.44,1.332-5.556c0.744-0.944,1.776-1.416,3.1-1.416C190.252,238.04,191.284,238.504,192.02,239.436z
		 M188.088,240.508c-0.244,0.204-0.448,0.604-0.612,1.2c-0.16,0.6-0.24,1.7-0.24,3.3s0.092,2.736,0.268,3.408
		c0.136,0.52,0.328,0.884,0.576,1.084s0.532,0.3,0.848,0.3c0.316,0,0.596-0.1,0.844-0.296c0.244-0.2,0.448-0.596,0.608-1.196
		s0.24-1.7,0.24-3.3s-0.088-2.74-0.268-3.416c-0.136-0.52-0.328-0.884-0.576-1.084s-0.528-0.3-0.848-0.3
		C188.616,240.208,188.332,240.308,188.088,240.508z"/>
	<path style="fill:#FFFFFF;" d="M181.42,239.436c0.892,1.132,1.34,2.98,1.34,5.548c0,2.62-0.404,4.436-1.22,5.456
		c-0.812,1.02-1.884,1.532-3.212,1.532c-1.32,0-2.352-0.464-3.092-1.396c-0.892-1.132-1.34-2.984-1.34-5.568
		c0-2.588,0.444-4.44,1.332-5.556c0.744-0.944,1.776-1.416,3.1-1.416C179.652,238.04,180.684,238.504,181.42,239.436z
		 M177.488,240.508c-0.244,0.204-0.448,0.604-0.612,1.2c-0.16,0.6-0.24,1.7-0.24,3.3s0.092,2.736,0.268,3.408
		c0.136,0.52,0.328,0.884,0.576,1.084s0.532,0.3,0.848,0.3c0.316,0,0.596-0.1,0.844-0.296c0.244-0.2,0.448-0.596,0.608-1.196
		s0.24-1.7,0.24-3.3s-0.088-2.74-0.268-3.416c-0.136-0.52-0.328-0.884-0.576-1.084s-0.528-0.3-0.848-0.3
		C178.012,240.208,177.732,240.308,177.488,240.508z"/>
	<path style="fill:#FFFFFF;" d="M165.52,239.436c1.88,2.38,1.716,9.008,0.12,11.008c-0.812,1.02-1.884,1.532-3.212,1.532
		c-1.32,0-2.352-0.464-3.092-1.396c-1.808-2.292-1.816-8.852-0.008-11.124c0.744-0.944,1.776-1.416,3.1-1.416
		C163.752,238.04,164.784,238.504,165.52,239.436z M161.588,240.508c-1.184,0.976-0.948,6.544-0.584,7.908
		c0.208,0.792,0.588,1.388,1.424,1.388c2.152,0,1.956-6.224,1.424-8.208c-0.136-0.52-0.328-0.884-0.576-1.084s-0.528-0.3-0.848-0.3
		C162.116,240.208,161.832,240.308,161.588,240.508z"/>
	<path style="fill:#FFFFFF;" d="M156.26,244.984c0,2.62-0.404,4.436-1.22,5.456c-0.812,1.02-1.884,1.532-3.212,1.532
		c-1.32,0-2.352-0.464-3.092-1.396c-0.892-1.132-1.34-2.984-1.34-5.568c0-2.588,0.444-4.44,1.332-5.556
		c0.744-0.944,1.776-1.416,3.1-1.416C155.412,238.04,156.26,241.416,156.26,244.984z M150.988,240.508
		c-0.244,0.204-0.448,0.604-0.612,1.2c-0.16,0.6-0.24,1.7-0.24,3.3s0.092,2.736,0.268,3.408c0.136,0.52,0.328,0.884,0.576,1.084
		s0.532,0.3,0.848,0.3c0.316,0,0.596-0.1,0.844-0.296c0.244-0.2,0.448-0.596,0.608-1.196s0.24-1.7,0.24-3.3s-0.088-2.74-0.268-3.416
		c-0.136-0.52-0.328-0.884-0.576-1.084s-0.528-0.3-0.848-0.3C151.512,240.208,151.232,240.308,150.988,240.508z"/>
	<path style="fill:#FFFFFF;" d="M144.32,239.436c0.892,1.132,1.34,2.98,1.34,5.548c0,2.62-0.404,4.436-1.22,5.456
		c-0.812,1.02-1.884,1.532-3.212,1.532c-1.32,0-2.352-0.464-3.092-1.396c-0.892-1.132-1.34-2.984-1.34-5.568
		c0-2.588,0.444-4.44,1.332-5.556c0.744-0.944,1.776-1.416,3.1-1.416C142.548,238.04,143.58,238.504,144.32,239.436z
		 M140.388,240.508c-0.244,0.204-0.448,0.604-0.612,1.2c-0.16,0.6-0.24,1.7-0.24,3.3s0.092,2.736,0.268,3.408
		c0.136,0.52,0.328,0.884,0.576,1.084s0.532,0.3,0.848,0.3c0.316,0,0.596-0.1,0.844-0.296c0.244-0.2,0.448-0.596,0.608-1.196
		s0.244-1.7,0.244-3.3s-0.088-2.74-0.268-3.416c-0.136-0.52-0.328-0.884-0.576-1.084s-0.528-0.3-0.848-0.3
		C140.912,240.208,140.632,240.308,140.388,240.508z"/>
	<path style="fill:#FFFFFF;" d="M133.716,239.436c0.892,1.132,1.34,2.98,1.34,5.548c0,2.62-0.404,4.436-1.22,5.456
		c-0.812,1.02-1.884,1.532-3.212,1.532c-1.32,0-2.352-0.464-3.092-1.396c-0.892-1.132-1.34-2.984-1.34-5.568
		c0-2.588,0.444-4.44,1.332-5.556c0.744-0.944,1.776-1.416,3.1-1.416C131.948,238.04,132.98,238.504,133.716,239.436z
		 M129.784,240.508c-0.244,0.204-0.448,0.604-0.612,1.2c-0.16,0.6-0.24,1.7-0.24,3.3s0.092,2.736,0.268,3.408
		c0.136,0.52,0.328,0.884,0.576,1.084s0.532,0.3,0.848,0.3c0.316,0,0.596-0.1,0.844-0.296c0.244-0.2,0.448-0.596,0.608-1.196
		s0.24-1.7,0.24-3.3s-0.088-2.74-0.268-3.416c-0.136-0.52-0.328-0.884-0.576-1.084s-0.528-0.3-0.848-0.3
		C130.312,240.208,130.028,240.308,129.784,240.508z"/>
	<path style="fill:#FFFFFF;" d="M117.82,239.436c0.892,1.132,1.34,2.98,1.34,5.548c0,2.62-0.404,4.436-1.22,5.456
		c-0.812,1.02-1.884,1.532-3.212,1.532c-1.32,0-2.352-0.464-3.092-1.396c-0.892-1.132-1.34-2.984-1.34-5.568
		c0-2.588,0.444-4.44,1.332-5.556c0.744-0.944,1.776-1.416,3.1-1.416S117.08,238.504,117.82,239.436z M113.888,240.508
		c-0.244,0.204-0.448,0.604-0.612,1.2c-0.16,0.6-0.24,1.7-0.24,3.3s0.092,2.736,0.268,3.408c0.136,0.52,0.328,0.884,0.576,1.084
		c0.248,0.2,0.532,0.3,0.848,0.3s0.596-0.1,0.844-0.296c0.244-0.2,0.448-0.596,0.608-1.196s0.24-1.7,0.24-3.3
		s-0.088-2.74-0.268-3.416c-0.136-0.52-0.328-0.884-0.576-1.084c-0.248-0.2-0.528-0.3-0.848-0.3
		C114.412,240.208,114.132,240.308,113.888,240.508z"/>
	<path style="fill:#FFFFFF;" d="M107.216,239.436c0.892,1.132,1.34,2.98,1.34,5.548c0,2.62-0.404,4.436-1.22,5.456
		c-0.812,1.02-1.884,1.532-3.212,1.532c-1.32,0-2.352-0.464-3.092-1.396c-0.892-1.132-1.34-2.984-1.34-5.568
		c0-2.588,0.444-4.44,1.332-5.556c0.744-0.944,1.776-1.416,3.1-1.416S106.48,238.504,107.216,239.436z M103.284,240.508
		c-0.244,0.204-0.448,0.604-0.612,1.2c-0.16,0.6-0.24,1.7-0.24,3.3s0.092,2.736,0.268,3.408c0.136,0.52,0.328,0.884,0.576,1.084
		c0.248,0.2,0.532,0.3,0.848,0.3s0.596-0.1,0.844-0.296c0.244-0.2,0.448-0.596,0.608-1.196s0.244-1.7,0.244-3.3
		s-0.088-2.74-0.268-3.416c-0.136-0.52-0.328-0.884-0.576-1.084c-0.248-0.2-0.528-0.3-0.848-0.3
		C103.812,240.208,103.528,240.308,103.284,240.508z"/>
	<path style="fill:#FFFFFF;" d="M96.616,239.436c0.892,1.132,1.34,2.98,1.34,5.548c0,2.62-0.404,4.436-1.22,5.456
		c-0.812,1.02-1.884,1.532-3.212,1.532c-1.32,0-2.352-0.464-3.092-1.396c-0.892-1.132-1.34-2.984-1.34-5.568
		c0-2.588,0.444-4.44,1.332-5.556c0.744-0.944,1.776-1.416,3.1-1.416S95.876,238.504,96.616,239.436z M92.684,240.508
		c-0.244,0.204-0.448,0.604-0.612,1.2c-0.16,0.6-0.24,1.7-0.24,3.3s0.092,2.736,0.268,3.408c0.136,0.52,0.328,0.884,0.576,1.084
		c0.248,0.2,0.532,0.3,0.848,0.3s0.596-0.1,0.844-0.296c0.244-0.2,0.448-0.596,0.608-1.196s0.24-1.7,0.24-3.3
		s-0.088-2.74-0.268-3.416c-0.136-0.52-0.328-0.884-0.576-1.084c-0.248-0.2-0.528-0.3-0.848-0.3
		C93.208,240.208,92.928,240.308,92.684,240.508z"/>
	<path style="fill:#FFFFFF;" d="M86.016,239.436c0.892,1.132,1.34,2.98,1.34,5.548c0,2.62-0.404,4.436-1.22,5.456
		c-0.812,1.02-1.884,1.532-3.212,1.532c-1.32,0-2.352-0.464-3.092-1.396c-0.892-1.132-1.34-2.984-1.34-5.568
		c0-2.588,0.444-4.44,1.332-5.556c0.744-0.944,1.776-1.416,3.1-1.416C84.244,238.04,85.276,238.504,86.016,239.436z M82.084,240.508
		c-0.244,0.204-0.448,0.604-0.612,1.2c-0.16,0.6-0.24,1.7-0.24,3.3s0.092,2.736,0.268,3.408c0.136,0.52,0.328,0.884,0.576,1.084
		c0.248,0.2,0.532,0.3,0.848,0.3s0.596-0.1,0.844-0.296c0.244-0.2,0.448-0.596,0.608-1.196s0.244-1.7,0.244-3.3
		s-0.088-2.74-0.268-3.416c-0.136-0.52-0.328-0.884-0.576-1.084c-0.248-0.2-0.528-0.3-0.848-0.3
		C82.608,240.208,82.328,240.308,82.084,240.508z"/>
</g>
<path style="fill:#656D7A;" d="M439.78,44.764c-84.412-20.236-167.124-20.78-248.008-0.216c-9.736,2.476-16.56,11.232-16.56,21.276
	v380.064c0,10.164,6.984,18.98,16.868,21.352c84.412,20.236,167.124,20.78,248.008,0.216c9.736-2.476,16.56-11.232,16.56-21.276
	V66.112C456.648,55.952,449.664,47.132,439.78,44.764z"/>
<g>
	<path style="fill:#4D535F;" d="M333.852,443.6c0,9.904-8.012,17.916-17.952,17.916c-9.904,0-17.952-8.012-17.952-17.916
		c0-9.94,8.048-17.952,17.952-17.952C325.84,425.648,333.852,433.66,333.852,443.6z"/>
	<path style="fill:#4D535F;" d="M345.972,61.684H317.44c-1.964,0-3.556-1.592-3.556-3.556v-0.54c0-1.964,1.592-3.556,3.556-3.556
		h28.532c1.964,0,3.556,1.592,3.556,3.556v0.54C349.528,60.092,347.936,61.684,345.972,61.684z"/>
	<path style="fill:#4D535F;" d="M304.256,61.684H293.56c-1.964,0-3.556-1.592-3.556-3.556v-0.54c0-1.964,1.592-3.556,3.556-3.556
		h10.692c1.964,0,3.556,1.592,3.556,3.556v0.54C307.812,60.092,306.22,61.684,304.256,61.684z"/>
	<circle style="fill:#4D535F;" cx="237.76" cy="57.86" r="3.824"/>
</g>
<rect x="200.8" y="74.288" style="fill:#70B1E1;" width="230.24" height="339.772"/>
<path style="fill:#F1592F;" d="M282.516,123.584h-81.708v169.064h81.708c6.98,0,12.636-5.524,12.636-12.336V135.92
	C295.156,129.108,289.496,123.584,282.516,123.584z"/>
<g>
	<path style="fill:#D64331;" d="M206.82,154.18c-1.128-0.212-1.996-0.808-2.964-1.424c-0.7-0.444-0.672-0.916-1.14-1.42
		c-0.536-0.576-1.168-0.708-1.904-0.984v27.804c2.576,2.164,7.08-1.764,3.712-7.984c-0.504-0.928-1.252-1.932-1.208-3.032
		c0.052-1.252,1.16-2.084,1.404-3.24c0.284-1.352-0.66-2.756-0.308-4.056c0.46-1.712,1.364-0.956,2.524-1.388
		c0.688-0.256,1.44-1.36,1.616-2.024C208.932,154.976,208.004,154.404,206.82,154.18z"/>
	<path style="fill:#D64331;" d="M272.072,169.424c3.088,0.156,4.052-4.876,2.208-6.596c-1.204-1.124-3.308-0.728-3.6-2.544
		c-0.132-0.836,0.98-1.948,0.848-3.244c-1.084-0.208-3.82,0.244-4.496-0.796c-1.06-1.628,1.42-2.824-1.196-3.812
		c-0.932-0.352-5.612-1.004-8.672-0.672c-2.34,0.256-3.284,1.184-4.708,2.82c-0.824,0.948-1.604,2.776-2.612,3.568
		c-2.06,1.616-5.676-0.316-7.928,0.992c-1.62,0.944-1.368,2.74-2.596,3.944c-0.544,0.532-1.196,0.696-1.892,0.78
		c1.552-0.556,1.424-1.888,1.332-3.828c-0.14-2.924,0.92-2.504,3.708-2.652c-0.6-1.392-1.964-0.74-3.004-1.428
		c-0.568-0.376-1.204-2.412-1.352-2.476c-0.588-0.248-2.92,1.368-3.516,1.968c-0.692,0.7-0.824,2.472-1.444,2.832
		c-0.88,0.512-2.276-0.78-2.876-0.42c-1.408,0.836-0.2,1.72-0.092,2.492c0.22,1.56,0.528,1.66,1.112,2.716
		c0.504,0.92,1.536,0.604,0.732,2.36c-2.04,0.04-2.088,0.204-3.02-1.164c-0.66-0.968,0.608-2.428-1.7-2.064
		c-0.02,0.82-0.016,1.632-0.248,2.316c-1.344-1.468,0.112-2.86-0.376-4.448c1.084,1.752,2.808,0.564,1.86-1.084
		c-0.66-1.148-2.28-0.636-3.4-0.704c-0.94-0.056-3.664,0.2-2.312-1.548c0.972-1.256,3.26,0.596,3.38-1.64
		c2.328,0.852,4.34-0.248,7.032-0.076c0.296-0.868-0.08-1.824-0.252-2.568c1.016,0.008,2.008-0.432,2.736-1.08
		c-0.548,0.048-1.024-0.208-1.512-0.244c0-0.136-0.008-0.272-0.016-0.408c-0.904-0.384-2.24-0.804-3.244-0.316
		c-1.368,0.664-1.148,2.172-2.124,3.1c-0.204-1.584-0.084-4.792-2.432-4.336c-2.544,0.492-0.248,3.04-0.456,4.728
		c-1.128,0.676-2.008,0.252-3.224,0.368c-1.236,0.12-1.792,0.628-3.032,0.78c0.244,2.132-0.756,2.636-2.812,2.6
		c1.224-0.228,2.316-1.056,1.844-2.38c-1.06,0.212-1.888-0.384-1.632-1.4c-0.5-0.04-1.012-0.436-1.46-0.508
		c0.756-0.94,1.896-0.544,2.316-1.636c0.428-1.108-0.556-2.288-1.26-3.008c-1.676-1.712-3.424-1.6-5.588-1.944
		c-2.06-0.324-3.992-0.888-6.148-0.868c-1.908,0.02-2.74,0.892-4.136,1.532v1.444c0.4,0.352,0.808,0.68,1.228,0.908
		c0.576,0.312,1.264,0.336,1.796,0.648c0.44,0.26,0.652,0.812,1.044,1.088c0.792,0.556,1.84,0.624,2.776,0.624
		c1.528,0.004,2.432,0.168,3.836,0.636c-0.34,0.724-2.528,0.24-1.428,1.744c0.328,0.448,1.556,1.032,2.08,1.376
		c3.42,2.248,1.024,0.464,3.004,3.428c0.304,0.456,0.412,0.244,0.396,0.796c-0.004,0.12-0.572,1.276-0.636,1.364
		c-0.488,0.664-1.524,1.084-2.044,1.744c-0.4,0.504-0.488,1.24-0.656,1.888c-0.12,0.456-0.192,0.912-0.3,1.372
		c-0.172,0.732-0.484,0.864-0.836,1.48c-0.276,0.476-0.76,2.608-0.132,3.172c0.596,0.54,2.62,0.112,2.812-0.656
		c1.432,0.972-0.72,1.4-0.996,1.844c-0.652,1.044,1.088,2.172,1.872,2.32c1.364,0.26,2.116,0.176,2.648-0.988
		c0.476-1.04,0.464-1.852,0.568-2.956c0.604,0.128,1.292,0.136,1.884,0.056c0.048-0.184,0.048-0.516-0.008-0.692
		c-0.444-0.12-0.88-0.3-1.316-0.412c-0.232-0.06-1.612-0.132-1.76-0.236c-0.14-0.104-0.836-1.544-0.876-1.836
		c-0.344-2.288,2.472,1.08,2.92-0.592c0.236-0.88-2.26-3.052,0.624-2.312c1.712,0.436,1.964,1.88,1.932,3.424
		c1.012,0.068,3.052-0.032,3.584,0.872c-0.432,0.296-1.904,0.588-2.176,1.012c-0.496,0.772,0.332,1.56,0.948,1.856
		c0.42,0.204,1.536,0.548,2.004,0.34c1.188-0.536,0.316-1.916,2.168-1.708c3.968,0.448,6.832,8.232,2.42,10.088
		c-1.256,0.528-2.092,0.264-2.724,1.632c-0.688,1.484-0.496,4.516-3.036,3.86c-1.9-0.492-0.264-3.94-0.84-5.28
		c-0.172-0.4-0.576-0.344-0.744-0.764c-0.152-0.38,0.016-1.22,0.012-1.624c-0.012-1.096-0.092-2.096-0.724-2.984
		c-1-1.396-3.848-1.924-4.648,0.112c-0.252,0.64,0.248,1.864-0.1,2.48c-0.38,0.676-1.272,0.392-2.132,0.444
		c-0.172-0.54-0.78-1.32-1.344-1.42c-1.456-0.252-0.928,1.544-1.02,2.432c-0.152,1.468-0.272,1.932-1.388,2.608
		c-0.596,0.36-1.704,0.856-1.924,1.548c-0.3,0.932,0.584,1.204,0.864,1.968c0.516,1.392-0.372,1.596-1.148,2.296
		c-0.668,0.6-1.032,1.176-0.616,2.26c0.464,1.208,3.568,1.404,4.324,0.4c0.632-0.844-0.068-2.54,1.08-3.236
		c1.06-0.64,3.612,0.02,4.66,0.42c-0.664,0.996-2.652,1.472-2.984,2.596c-0.312,1.068,0.748,2.512,1.68,2.808
		c1.684,0.536,2.176-0.96,3.664-0.868c0.652,0.04,0.664,0.036,0.996,0.548c0.396,0.612,0.428,1.52,0.876,2.2
		c0.172,0.26,0.372,0.532,0.56,0.784c0.664,0.9,1.184,1.972,2.012,2.708c0.796,0.712,1.568,1.268,2.048,2.236
		c0.436,0.872,0.476,2.004,1.024,2.824c0.3,0.448,1.016,0.848,1.38,1.392c0.924,1.384,0.432,0.884,0.136,2.108
		c-0.124,0.516-0.068,0.972,0.088,1.516c1.856,0.368,1.708-1.816,2.332-2.88c0.556-0.944,1.3-1.984,2.372-2.18
		c1.408-0.26,3.188,0.048,4.572,0.12c1.016,0.052,2.26,0.052,2.68,1.16c0.448,1.18-0.368,2.532,0.096,3.796
		c0.38,1.036,1,1.48-0.048,2.356c-1.292,1.08-5.636,2.172-5.316-0.448c-2.456-1.064-0.624,2.552-0.632,3.028
		c-0.02,1.412-2.976,1.688-3.444,2.976c-0.54,1.496,0.172,2.528-1.744,3.16c-1.996,0.66-2.86,0.18-4.26-1.336
		c-2.524-0.68-5.108-0.648-7.448,0.488c-0.38,0.184-0.864,0.496-1.372,0.592c-0.38,0.072-0.756-0.116-1.108,0.092
		c-0.364,0.212-0.128,0.476-0.436,0.716c-0.66,0.504-3.052,0.952-2.296,2.32c-1.396,1.36-2.676-0.204-3.26,2.064
		c-0.172,0.668-0.408,1.268-0.252,2.052c0.128,0.636,0.496,1.148,0.4,1.856c-1.696,0.544-3.628,0.304-5.388,0.472
		c-2.556,0.244-2.888-0.344-3.296,2.352c-0.352,2.344-0.232,4.784,0.476,7.008c0.536,1.684,1.764,2.992,2.312,4.664
		c0.628,0.048,1.44,0.956,2.048,1.32c0.724,0.436,1.028,0.24,1.704,0.496c0.916,0.348,0.88,1.276,0.968,2.152
		c0.12,1.22,0.344,2.112,1.096,3.136c0.904,1.228,2.404,1.748,3.288,3.028c2.388,3.46,5.476,5.412,4.576,9.52
		c-0.188,0.856,1.408,3.34,0.708,5.936c-0.332,1.216-0.196,1.384-1.38,1.716c2.428,0,2.728,0.296,4.04-1.392
		c1.084-1.396,0.56-1.884,0.984-3.616c0.412-1.676,1.356-2.48,1.044-4.552c-0.204-1.336-0.564-1.976-0.432-3.408
		c0.268-2.872,1.096-5.42,0.88-8.408c-0.164-2.292-2.508-5.732-1.208-8.136c1.42-2.632,6.26-3.44,8.048-5.868
		c1.008-1.368,1.3-5.328,0.988-7.116c-0.284-1.616-2.032-2.936-2.132-4.464c-0.128-1.9,1.208-1.728,2.556-2.684
		c1.296-0.916,2.056-2.236,3.492-2.98c1.532-0.792,3.372-0.568,5.012-1.1c1.704-0.556,3.868-2.04,5.236-3.216
		c1.74-1.496,1.544-2.788,2.108-4.92c0.608-2.284,2.612-6.42,4.096-8.192c0.076,1.704-0.02,3.188-0.392,4.796
		c-0.288,1.248-1.536,3.588-1.188,4.608c2.284-1.1,2.092-3.868,2.82-5.928c0.608-1.72,1.852-3.212,2.696-4.844
		c0.752-1.456,2.028-3.544,1.968-5.292c-0.088-2.468-3.744-3.836-3.268-7.74c0.2-1.66,0.724-1.188,1.488-2.472
		c0.992-1.664,0.972-3.524,0.904-5.44c-0.332-9.54,7.128-11.484,11.948-7.276c1.1,0.96,1.456,1.956,2.86,2.648
		c1.392,0.688,2.644,0.808,4.148,0.824C276.42,171.932,271.532,172.372,272.072,169.424z"/>
</g>
<path style="fill:#F5EA07;" d="M228.904,190.212c0,0.412,0.028,0.828,0.112,1.212c0.58,3.252,3.416,5.704,6.836,5.704h27.784
	c3.416,0,6.256-2.452,6.836-5.704c0.084-0.384,0.112-0.8,0.112-1.212c0-1.308,0.092-28.136-0.164-29.3
	c-0.66-3.116-3.444-5.456-6.78-5.456h-27.784c-3.336,0-6.12,2.344-6.78,5.456C228.812,162.076,228.904,188.912,228.904,190.212z"/>
<path style="fill:#E8BB20;" d="M228.904,162.956H240.7c-1.184,4.08-1.848,6.12-1.956,12.208h-9.84v2.04h9.84
	c0.136,4.052,1.184,8.132,2.948,12.208h-12.788v0.8c0,0.412,0.028,0.828,0.112,1.212h41.452c0.084-0.384,0.112-0.8,0.112-1.212v-0.8
	h-13.62c1.764-4.08,2.812-8.16,2.948-12.208h10.668v-2.04h-10.668c-0.112-6.092-0.772-8.132-1.956-12.208h12.624
	c0-0.78,0.012-1.232-0.164-2.04h-41.344C228.892,161.716,228.904,162.172,228.904,162.956z M242.904,162.956h12.816
	c1.38,4.08,2.148,7.912,2.148,12.072c0,5.348-1.212,10.308-3.308,14.388h-10.472C240.48,182.384,239.492,173.26,242.904,162.956z"/>
<g>
	<path style="fill:#FFFFFF;" d="M267.976,242.892c0.992,1.256,1.488,3.308,1.488,6.16c0,2.908-0.448,4.928-1.352,6.06
		c-0.904,1.136-2.092,1.7-3.568,1.7c-1.468,0-2.612-0.516-3.432-1.548c-0.992-1.256-1.488-3.316-1.488-6.18
		c0-2.876,0.492-4.928,1.48-6.168c0.828-1.048,1.972-1.572,3.44-1.572S267.156,241.856,267.976,242.892z M263.608,244.084
		c-0.272,0.224-0.496,0.668-0.68,1.332c-0.18,0.664-0.268,1.888-0.268,3.664s0.1,3.036,0.3,3.78c0.152,0.58,0.364,0.98,0.64,1.204
		s0.592,0.336,0.94,0.336c0.352,0,0.664-0.112,0.936-0.332s0.496-0.664,0.676-1.328s0.268-1.884,0.268-3.664
		c0-1.776-0.1-3.04-0.3-3.792c-0.152-0.58-0.364-0.98-0.64-1.204s-0.588-0.336-0.94-0.336
		C264.192,243.748,263.88,243.86,263.608,244.084z"/>
	<path style="fill:#FFFFFF;" d="M256.204,242.892c0.992,1.256,1.488,3.308,1.488,6.16c0,2.908-0.448,4.928-1.352,6.06
		c-0.904,1.136-2.092,1.7-3.568,1.7c-1.468,0-2.612-0.516-3.432-1.548c-0.992-1.256-1.488-3.316-1.488-6.18
		c0-2.876,0.492-4.928,1.476-6.168c0.828-1.048,1.972-1.572,3.44-1.572S255.384,241.856,256.204,242.892z M251.836,244.084
		c-0.272,0.224-0.496,0.668-0.68,1.332c-0.18,0.664-0.268,1.888-0.268,3.664s0.1,3.036,0.3,3.78c0.152,0.58,0.364,0.98,0.64,1.204
		s0.592,0.336,0.94,0.336c0.352,0,0.664-0.112,0.936-0.332s0.5-0.664,0.676-1.328c0.18-0.664,0.268-1.884,0.268-3.664
		c0-1.776-0.1-3.04-0.3-3.792c-0.152-0.58-0.364-0.98-0.64-1.204s-0.588-0.336-0.94-0.336
		C252.42,243.748,252.108,243.86,251.836,244.084z"/>
	<path style="fill:#FFFFFF;" d="M244.432,242.892c0.992,1.256,1.488,3.308,1.488,6.16c0,2.908-0.448,4.928-1.352,6.06
		c-0.904,1.136-2.092,1.7-3.568,1.7c-1.468,0-2.612-0.516-3.432-1.548c-0.992-1.256-1.488-3.316-1.488-6.18
		c0-2.876,0.492-4.928,1.476-6.168c0.824-1.048,1.972-1.572,3.44-1.572C242.468,241.34,243.612,241.856,244.432,242.892z
		 M240.068,244.084c-0.272,0.224-0.496,0.668-0.68,1.332c-0.18,0.664-0.268,1.888-0.268,3.664s0.1,3.036,0.3,3.78
		c0.152,0.58,0.364,0.98,0.64,1.204s0.592,0.336,0.94,0.336c0.352,0,0.664-0.112,0.936-0.332s0.496-0.664,0.676-1.328
		s0.268-1.884,0.268-3.664c0-1.776-0.1-3.04-0.3-3.792c-0.152-0.58-0.364-0.98-0.64-1.204s-0.588-0.336-0.94-0.336
		C240.652,243.748,240.336,243.86,240.068,244.084z"/>
	<path style="fill:#FFFFFF;" d="M232.66,242.892c0.992,1.256,1.488,3.308,1.488,6.16c0,2.908-0.448,4.928-1.352,6.06
		c-0.904,1.136-2.092,1.7-3.568,1.7c-1.468,0-2.612-0.516-3.432-1.548c-0.992-1.256-1.488-3.316-1.488-6.18
		c0-2.876,0.492-4.928,1.48-6.168c0.828-1.048,1.972-1.572,3.44-1.572S231.84,241.856,232.66,242.892z M228.296,244.084
		c-0.272,0.224-0.496,0.668-0.68,1.332c-0.18,0.664-0.268,1.888-0.268,3.664s0.1,3.036,0.3,3.78c0.152,0.58,0.364,0.98,0.64,1.204
		s0.592,0.336,0.94,0.336c0.352,0,0.664-0.112,0.936-0.332s0.496-0.664,0.676-1.328s0.268-1.884,0.268-3.664
		c0-1.776-0.1-3.04-0.3-3.792c-0.152-0.58-0.364-0.98-0.64-1.204s-0.588-0.336-0.94-0.336
		C228.88,243.748,228.568,243.86,228.296,244.084z"/>
	<path style="fill:#FFFFFF;" d="M215.008,242.892c2.084,2.644,1.904,10.004,0.136,12.22c-0.904,1.136-2.092,1.7-3.568,1.7
		c-1.468,0-2.612-0.516-3.432-1.548c-0.992-1.256-1.488-3.316-1.488-6.18c0-2.876,0.492-4.928,1.476-6.168
		c0.828-1.048,1.972-1.572,3.44-1.572S214.188,241.856,215.008,242.892z M210.644,244.084c-0.272,0.224-0.496,0.668-0.68,1.332
		c-0.18,0.664-0.268,1.888-0.268,3.664s0.1,3.036,0.3,3.78c0.152,0.58,0.364,0.98,0.64,1.204s0.592,0.336,0.94,0.336
		c0.352,0,0.664-0.112,0.936-0.332s0.496-0.664,0.676-1.328s0.268-1.884,0.268-3.664c0-1.776-0.1-3.04-0.3-3.792
		c-0.152-0.58-0.364-0.98-0.64-1.204s-0.588-0.336-0.94-0.336C211.228,243.748,210.912,243.86,210.644,244.084z"/>
	<path style="fill:#FFFFFF;" d="M203.236,242.892c-0.608-0.768-1.46-1.152-2.428-1.352v2.624c0.244,0.232,0.44,0.596,0.576,1.124
		c0.2,0.752,0.3,2.016,0.3,3.792s-0.092,2.996-0.268,3.664c-0.16,0.604-0.368,1-0.608,1.236v2.616
		c0.996-0.212,1.888-0.636,2.564-1.488c0.904-1.132,1.352-3.152,1.352-6.06C204.724,246.2,204.228,244.144,203.236,242.892z"/>
</g>
<path style="fill:#4D5BA5;" d="M399.632,380.432c0,3.372-1.356,6.412-3.592,8.648c-2.2,2.2-5.24,3.552-8.612,3.552h-145.74
	c-6.74,0-12.2-5.46-12.2-12.2c0-3.372,1.356-6.412,3.592-8.648c2.196-2.2,5.24-3.552,8.608-3.552h145.744
	C394.172,368.232,399.632,373.692,399.632,380.432z"/>
<path style="fill:#F5EA07;" d="M241.688,387.136c-3.696,0-6.704-3.004-6.704-6.7c0-1.792,0.704-3.484,1.984-4.764
	c1.252-1.252,2.932-1.944,4.724-1.944H350.8c3.696,0,6.704,3.008,6.704,6.704c0,1.792-0.704,3.48-1.98,4.76
	c-1.256,1.252-2.932,1.944-4.728,1.944H241.688z"/>
<g>
</g>
<g>
</g>
<g>
</g>
<g>
</g>
<g>
</g>
<g>
</g>
<g>
</g>
<g>
</g>
<g>
</g>
<g>
</g>
<g>
</g>
<g>
</g>
<g>
</g>
<g>
</g>
<g>
</g>
</svg>
