<?xml version="1.0" encoding="iso-8859-1"?>
<!-- Generator: Adobe Illustrator 19.0.0, SVG Export Plug-In . SVG Version: 6.00 Build 0)  -->
<svg version="1.1" id="Capa_1" xmlns="http://www.w3.org/2000/svg" xmlns:xlink="http://www.w3.org/1999/xlink" x="0px" y="0px"
	 viewBox="0 0 512 512" style="enable-background:new 0 0 512 512;" xml:space="preserve">
<circle style="fill:#4D5BA5;" cx="256" cy="256" r="256"/>
<g>
	<path style="fill:#D2D2D4;" d="M408.62,408.62c-2.364,2.364-6.2,2.364-8.568,0c-2.364-2.364-2.364-6.2,0-8.568
		c7.192-7.192,7.192-18.896,0-26.092c-7.192-7.192-18.896-7.192-26.092,0c-2.364,2.364-6.2,2.364-8.568,0
		c-2.364-2.364-2.364-6.2,0-8.568c11.916-11.916,31.308-11.916,43.224,0C420.536,377.312,420.536,396.704,408.62,408.62z"/>
	<path style="fill:#D2D2D4;" d="M146.604,408.62c-11.916,11.916-31.308,11.916-43.224,0c-2.364-2.364-2.364-6.2,0-8.568
		c2.364-2.364,6.2-2.364,8.568,0c7.192,7.192,18.896,7.192,26.092,0c7.192-7.192,7.192-18.896,0-26.092
		c-2.364-2.364-2.364-6.2,0-8.568c2.364-2.364,6.2-2.364,8.568,0C158.52,377.312,158.52,396.704,146.604,408.62z"/>
</g>
<g>
	<path style="fill:#FDFEFF;" d="M397.42,397.42C359.648,435.196,309.424,456,256,456s-103.648-20.804-141.42-58.58l8.568-8.568
		c73.256,73.256,192.452,73.256,265.708,0L397.42,397.42z"/>
	<path style="fill:#FDFEFF;" d="M397.42,397.42l-8.568-8.568c73.256-73.256,73.256-192.452,0-265.708l8.568-8.568
		C435.196,152.352,456,202.58,456,256S435.196,359.648,397.42,397.42z"/>
</g>
<path style="fill:#D2D2D4;" d="M408.62,111.948c-2.364,2.364-6.2,2.364-8.568,0c-7.192-7.192-18.896-7.192-26.092,0
	c-7.192,7.192-7.192,18.896,0,26.092c2.364,2.364,2.364,6.2,0,8.568c-2.364,2.364-6.2,2.364-8.568,0
	c-11.916-11.916-11.916-31.308,0-43.224s31.308-11.916,43.224,0C410.988,105.744,410.988,109.58,408.62,111.948z"/>
<path style="fill:#FDFEFF;" d="M397.42,114.58l-8.568,8.568c-73.256-73.256-192.452-73.256-265.708,0l-8.568-8.568
	C152.352,76.804,202.58,56,256,56S359.648,76.804,397.42,114.58z"/>
<path style="fill:#D2D2D4;" d="M146.604,146.604c-11.916,11.916-31.308,11.916-43.224,0s-11.916-31.308,0-43.224
	c2.364-2.364,6.2-2.364,8.568,0c2.364,2.364,2.364,6.2,0,8.568c-7.192,7.192-7.192,18.896,0,26.092
	c7.192,7.192,18.896,7.192,26.092,0c2.364-2.364,6.2-2.364,8.568,0C148.968,140.404,148.968,144.236,146.604,146.604z"/>
<path style="fill:#FDFEFF;" d="M123.144,388.856l-8.568,8.568C76.804,359.648,56,309.42,56,256s20.804-103.648,58.58-141.42
	l8.568,8.568C49.888,196.4,49.888,315.6,123.144,388.856z"/>
<g>
	<path style="fill:#D2D2D4;" d="M408.62,146.604c-11.916,11.916-31.308,11.916-43.224,0c-2.364-2.364-2.364-6.2,0-8.568
		s6.2-2.364,8.568,0c7.192,7.192,18.896,7.192,26.092,0c7.192-7.192,7.192-18.896,0-26.092c-2.364-2.364-2.364-6.2,0-8.568
		c2.364-2.364,6.2-2.364,8.568,0C420.536,115.296,420.536,134.688,408.62,146.604z"/>
	<path style="fill:#D2D2D4;" d="M146.604,373.964c-2.364,2.364-6.2,2.364-8.568,0c-7.192-7.192-18.896-7.192-26.092,0
		c-7.192,7.192-7.192,18.896,0,26.092c2.364,2.364,2.364,6.2,0,8.568c-2.364,2.364-6.2,2.364-8.568,0
		c-11.916-11.916-11.916-31.308,0-43.224s31.308-11.916,43.224,0C148.968,367.76,148.968,371.596,146.604,373.964z"/>
	<path style="fill:#D2D2D4;" d="M408.62,408.62c-11.916,11.916-31.308,11.916-43.224,0c-11.916-11.916-11.916-31.308,0-43.224
		c2.364-2.364,6.2-2.364,8.568,0c2.364,2.364,2.364,6.2,0,8.568c-7.192,7.192-7.192,18.896,0,26.092
		c7.192,7.192,18.896,7.192,26.092,0c2.364-2.364,6.2-2.364,8.568,0C410.988,402.42,410.988,406.256,408.62,408.62z"/>
	<path style="fill:#D2D2D4;" d="M146.604,146.604c-2.364,2.364-6.2,2.364-8.568,0c-2.364-2.364-2.364-6.2,0-8.568
		c7.192-7.192,7.192-18.896,0-26.092c-7.192-7.192-18.896-7.192-26.092,0c-2.364,2.364-6.2,2.364-8.568,0
		c-2.364-2.364-2.364-6.2,0-8.568c11.916-11.916,31.308-11.916,43.224,0C158.52,115.296,158.52,134.688,146.604,146.604z"/>
</g>
<path style="fill:#F1592F;" d="M132.888,132.888c-67.992,67.992-67.992,178.236,0,246.228s178.228,67.988,246.224-0.004
	c67.996-67.996,68-178.228,0.004-246.224S200.884,64.892,132.888,132.888z M320.644,320.644c-35.7,35.7-93.584,35.7-129.284,0
	s-35.7-93.584,0-129.284s93.584-35.7,129.284,0S356.344,284.944,320.644,320.644z"/>
<g>
	<path style="fill:#F5EA07;" d="M171.24,287.376l-77.68,32.808l0,0c-0.812,29.876,68.384,99.072,98.26,98.256l0,0l32.804-77.684
		C219.98,323.884,188.116,292.02,171.24,287.376z"/>
	<path style="fill:#F5EA07;" d="M287.38,171.24l32.804-77.684l0,0c29.876-0.812,99.072,68.384,98.256,98.26l0,0l-77.68,32.804
		C323.884,219.976,292.024,188.116,287.38,171.24z"/>
	<path style="fill:#F5EA07;" d="M224.624,171.24l-32.808-77.68l0,0c-29.876-0.812-99.072,68.384-98.26,98.26l0,0l77.684,32.804
		C188.116,219.976,219.98,188.116,224.624,171.24z"/>
	<path style="fill:#F5EA07;" d="M340.76,287.38l77.684,32.804l0,0c0.812,29.876-68.384,99.072-98.26,98.256l0,0l-32.804-77.68
		C292.024,323.884,323.884,292.02,340.76,287.38z"/>
</g>
<g>
</g>
<g>
</g>
<g>
</g>
<g>
</g>
<g>
</g>
<g>
</g>
<g>
</g>
<g>
</g>
<g>
</g>
<g>
</g>
<g>
</g>
<g>
</g>
<g>
</g>
<g>
</g>
<g>
</g>
</svg>
