<?xml version="1.0" encoding="iso-8859-1"?>
<!-- Generator: Adobe Illustrator 19.0.0, SVG Export Plug-In . SVG Version: 6.00 Build 0)  -->
<svg version="1.1" id="Capa_1" xmlns="http://www.w3.org/2000/svg" xmlns:xlink="http://www.w3.org/1999/xlink" x="0px" y="0px"
	 viewBox="0 0 512 512" style="enable-background:new 0 0 512 512;" xml:space="preserve">
<circle style="fill:#4786C6;" cx="256" cy="256" r="256"/>
<rect x="248.4" y="363.36" style="fill:#FDFEFF;" width="14.352" height="74.156"/>
<circle style="fill:#D2D2D4;" cx="255.596" cy="437.48" r="18.5"/>
<path style="fill:#FDFEFF;" d="M340.82,437.5h-14.352v-14.692c0-11.228-9.136-20.364-20.364-20.364H205.088
	c-11.228,0-20.364,9.136-20.364,20.364V437.5h-14.352v-14.692c0-19.144,15.576-34.716,34.716-34.716h101.016
	c19.144,0,34.716,15.572,34.716,34.716V437.5z"/>
<g>
	<circle style="fill:#D2D2D4;" cx="333.64" cy="437.48" r="18.5"/>
	<circle style="fill:#D2D2D4;" cx="177.56" cy="437.48" r="18.5"/>
</g>
<polygon style="fill:#656D7A;" points="286.616,330.896 224.572,330.896 237.02,371.056 274.172,371.056 "/>
<path style="fill:#353944;" d="M388.724,241.636c-6.832,48.048-35.52,94.288-86.188,99.616c-30.66,3.224-61.848,3.088-93.516-0.096
	c-16.816-1.688-32.976-8.032-45.836-19c-29.736-25.356-38.324-63.76-40.732-80.524c-0.996-7.056,0.792-14.352,5.472-19.72
	c16.372-18.884,42.616,18.948,50.144,43.744c4.872,16.12,14.744,28.668,31.388,28.668h92.264c16.776,0,26.524-12.692,31.424-28.668
	c7.432-24.484,33.68-62.664,50.144-43.744C387.968,227.284,389.756,234.58,388.724,241.636z"/>
<path style="fill:#656D7A;" d="M386.696,227.216c-5.576,25.604-21.784,69.312-67.8,86.452c-41.232,5.988-83.492,5.748-126.58,0
	c-46.052-17.14-62.228-60.848-67.836-86.452c0.896-1.892,2.032-3.684,3.44-5.3c16.372-18.884,42.616,18.948,50.144,43.744
	c4.84,16.016,14.572,28.668,31.388,28.668h92.268c16.748,0,26.472-12.528,31.424-28.668
	C342.448,235.012,373.488,198.164,386.696,227.216z"/>
<path style="fill:#4D535F;" d="M395.156,150.556c0,11.136-2.836,21.832-8.04,31.752c-26.208,49.948-44.852,113.396-43.752,109.928
	c-9.848,31.056-33.396,51.368-59.556,51.368h-55.616c-49.088,0-63.028-62.324-60.236-53.52
	c-11.88-37.464-25.46-74.22-43.068-107.776c-5.204-9.92-8.04-20.616-8.04-31.752C116.844,98.296,179.164,56,256.024,56
	C332.836,56,395.156,98.296,395.156,150.556z"/>
<g>
</g>
<g>
</g>
<g>
</g>
<g>
</g>
<g>
</g>
<g>
</g>
<g>
</g>
<g>
</g>
<g>
</g>
<g>
</g>
<g>
</g>
<g>
</g>
<g>
</g>
<g>
</g>
<g>
</g>
</svg>
