<?xml version="1.0" encoding="iso-8859-1"?>
<!-- Generator: Adobe Illustrator 19.0.0, SVG Export Plug-In . SVG Version: 6.00 Build 0)  -->
<svg version="1.1" id="Capa_1" xmlns="http://www.w3.org/2000/svg" xmlns:xlink="http://www.w3.org/1999/xlink" x="0px" y="0px"
	 viewBox="0 0 512 512" style="enable-background:new 0 0 512 512;" xml:space="preserve">
<circle style="fill:#4C5BA8;" cx="256" cy="256" r="256"/>
<polygon style="fill:#FDFEFF;" points="416.8,28.32 416.8,483.684 395.78,466.716 375.884,482.96 355.872,466.716 335.976,482.96 
	315.856,466.716 295.96,482.96 275.952,466.716 256.056,482.96 235.936,466.716 216.04,482.96 196.032,466.716 176.132,482.96 
	156.012,466.716 136.116,482.96 116.108,466.716 95.2,483.684 95.2,28.32 116.108,45.284 136.116,29.044 156.012,45.284 
	176.02,29.044 196.032,45.284 216.04,29.044 235.936,45.284 255.944,29.044 275.952,45.284 295.96,29.044 315.856,45.284 
	335.868,29.044 355.872,45.284 375.884,29.044 395.78,45.284 "/>
<g>
	<rect x="128.84" y="272.88" style="fill:#D2D2D4;" width="254.28" height="14.26"/>
	<rect x="128.84" y="310.72" style="fill:#D2D2D4;" width="254.28" height="14.26"/>
	<rect x="128.84" y="348.6" style="fill:#D2D2D4;" width="167.644" height="14.26"/>
	<rect x="128.84" y="101.432" style="fill:#D2D2D4;" width="251.372" height="14.096"/>
	<rect x="128.84" y="141.44" style="fill:#D2D2D4;" width="251.372" height="14.096"/>
	<rect x="128.84" y="181.48" style="fill:#D2D2D4;" width="251.372" height="14.096"/>
	<rect x="128.84" y="221.48" style="fill:#D2D2D4;" width="179.636" height="14.096"/>
</g>
<path style="fill:#F1592F;" d="M350.54,438.836V431.2c-9.556-0.98-18.132-4.776-25.736-11.408l7.636-9.1
	c5.86,5.092,11.892,8.132,18.1,9.1v-20.296c-7.884-1.88-13.652-4.352-17.312-7.424c-3.66-3.064-5.496-7.62-5.496-13.656
	c0-6.028,2.112-10.964,6.328-14.796c4.22-3.84,9.712-5.932,16.48-6.284v-5.228h6.696v5.34c7.672,0.552,14.924,3.176,21.76,7.84
	l-6.804,9.628c-4.6-3.276-9.592-5.304-14.96-6.072v19.668h0.316c8.02,1.88,13.912,4.436,17.68,7.636
	c3.768,3.208,5.648,7.868,5.648,13.972c0,6.104-2.164,11.068-6.488,14.908c-4.324,3.832-10.04,5.924-17.156,6.276v7.536h-6.692
	V438.836z M343.164,371.304c-1.776,1.568-2.664,3.524-2.664,5.856c0,2.34,0.692,4.18,2.092,5.544
	c1.396,1.364,4.044,2.672,7.952,3.924v-18.1C347.404,368.812,344.944,369.74,343.164,371.304z M365.188,417.176
	c1.948-1.6,2.928-3.628,2.928-6.072c0-2.436-0.772-4.376-2.304-5.808c-1.532-1.42-4.392-2.768-8.576-4.028V420.1
	C360.584,419.756,363.236,418.784,365.188,417.176z"/>
<g>
</g>
<g>
</g>
<g>
</g>
<g>
</g>
<g>
</g>
<g>
</g>
<g>
</g>
<g>
</g>
<g>
</g>
<g>
</g>
<g>
</g>
<g>
</g>
<g>
</g>
<g>
</g>
<g>
</g>
</svg>
