<?xml version="1.0" encoding="iso-8859-1"?>
<!-- Generator: Adobe Illustrator 19.0.0, SVG Export Plug-In . SVG Version: 6.00 Build 0)  -->
<svg version="1.1" id="Capa_1" xmlns="http://www.w3.org/2000/svg" xmlns:xlink="http://www.w3.org/1999/xlink" x="0px" y="0px"
	 viewBox="0 0 512 512" style="enable-background:new 0 0 512 512;" xml:space="preserve">
<circle style="fill:#FAD307;" cx="256" cy="256" r="256"/>
<polygon style="fill:#F1592F;" points="248.34,161.288 74.768,161.288 74.768,57.656 248.34,57.656 223.124,109.472 "/>
<rect x="65.428" y="23.056" style="fill:#656D7A;" width="18.68" height="235.372"/>
<rect x="54.136" y="244.96" style="fill:#E8E7E8;" width="41.26" height="208.88"/>
<rect x="41.716" y="449.88" style="fill:#D2D2D4;" width="66.104" height="28.12"/>
<g>
	<path style="fill:#FDFEFF;" d="M100.736,88.664h9.404v42.156h-9.404V88.664z"/>
	<path style="fill:#FDFEFF;" d="M149.556,92.436c2.956,2.516,4.432,6.372,4.432,11.58s-1.516,9.016-4.552,11.428
		s-7.672,3.62-13.9,3.62h-5.608v11.76h-9.404v-42.16h14.896C141.884,88.664,146.6,89.924,149.556,92.436z M142.648,109.02
		c1.124-1.268,1.688-3.116,1.688-5.548s-0.732-4.16-2.2-5.188s-3.748-1.536-6.844-1.536h-5.368v14.172h6.332
		C139.392,110.92,141.524,110.288,142.648,109.02z"/>
	<path style="fill:#FDFEFF;" d="M196.8,125c-4.264,4.16-9.508,6.244-15.74,6.244c-6.232,0-11.48-2.08-15.74-6.244
		c-4.264-4.16-6.396-9.336-6.396-15.528s2.132-11.368,6.396-15.528c4.26-4.16,9.508-6.244,15.74-6.244
		c6.232,0,11.476,2.08,15.74,6.244c4.264,4.16,6.392,9.336,6.392,15.528C203.196,115.664,201.064,120.84,196.8,125z M193.608,109.5
		c0-3.756-1.208-6.964-3.62-9.616c-2.412-2.656-5.376-3.984-8.896-3.984s-6.484,1.328-8.896,3.984
		c-2.412,2.652-3.616,5.86-3.616,9.616c0,3.76,1.204,6.956,3.616,9.588c2.412,2.632,5.376,3.952,8.896,3.952
		s6.484-1.316,8.896-3.952C192.4,116.46,193.608,113.264,193.608,109.5z"/>
</g>
<rect x="194.04" y="379.88" style="fill:#5F87C4;" width="28.768" height="98.112"/>
<rect x="293.04" y="347.44" style="fill:#F1592F;" width="28.768" height="130.568"/>
<rect x="342.52" y="378.2" style="fill:#7EC359;" width="28.768" height="99.8"/>
<rect x="392.04" y="315.12" style="fill:#70B1E1;" width="28.768" height="162.88"/>
<rect x="441.52" y="244.96" style="fill:#F1592F;" width="28.768" height="233.04"/>
<rect x="243.536" y="406.76" style="fill:#656D7A;" width="28.768" height="71.228"/>
<rect x="144.56" y="429.68" style="fill:#F1592F;" width="28.768" height="48.32"/>
<path style="fill:#656D7A;" d="M153.988,399.04c-1.544,0-3.08-0.628-4.196-1.868c-2.088-2.316-1.9-5.884,0.412-7.972l54.44-49.056
	c1.736-1.564,4.26-1.9,6.344-0.836L254.66,361.6l48.124-68.824c1.76-2.516,5.204-3.168,7.76-1.46L355.5,321.32l91.42-127.708
	c1.816-2.536,5.336-3.12,7.876-1.304c2.536,1.816,3.12,5.34,1.304,7.876l-94.6,132.152c-1.776,2.476-5.196,3.096-7.724,1.408
	l-44.904-29.972L261.1,372.104c-1.612,2.308-4.676,3.076-7.192,1.792l-44.588-22.764l-51.556,46.46
	C156.684,398.564,155.336,399.04,153.988,399.04z"/>
<circle style="fill:#7EC359;" cx="153.988" cy="393.4" r="14.72"/>
<circle style="fill:#F1592F;" cx="208.08" cy="347.44" r="14.72"/>
<circle style="fill:#FDFEFF;" cx="256.48" cy="370.32" r="14.72"/>
<circle style="fill:#F1592F;" cx="307.416" cy="299" r="14.72"/>
<circle style="fill:#FDFEFF;" cx="358.36" cy="329.84" r="14.72"/>
<circle style="fill:#70B1E1;" cx="451.52" cy="196.92" r="14.72"/>
<circle style="fill:#FDFEFF;" cx="74.768" cy="26.22" r="22.084"/>
<g>
</g>
<g>
</g>
<g>
</g>
<g>
</g>
<g>
</g>
<g>
</g>
<g>
</g>
<g>
</g>
<g>
</g>
<g>
</g>
<g>
</g>
<g>
</g>
<g>
</g>
<g>
</g>
<g>
</g>
</svg>
