<?xml version="1.0" encoding="iso-8859-1"?>
<!-- Generator: Adobe Illustrator 19.0.0, SVG Export Plug-In . SVG Version: 6.00 Build 0)  -->
<svg version="1.1" id="Capa_1" xmlns="http://www.w3.org/2000/svg" xmlns:xlink="http://www.w3.org/1999/xlink" x="0px" y="0px"
	 viewBox="0 0 512 512" style="enable-background:new 0 0 512 512;" xml:space="preserve">
<circle style="fill:#656C7A;" cx="256" cy="256" r="256"/>
<path style="fill:#F1592F;" d="M379.472,340.7c0,68.192-55.292,123.46-123.484,123.46s-123.46-55.268-123.46-123.46
	c0-25.012,7.44-66.308,20.196-108.608c3.34-11.04,7.008-22.128,11.04-33l35.86-3.98l19.288,19.36c-1.48,5.244-2.884,10.612-4.22,16
	c-0.024,0.096-0.048,0.168-0.072,0.24c-1.692,6.892-3.22,13.828-4.6,20.648c-5.128,25.06-8.204,48.736-8.608,63.684
	c-0.736,26.368,3.4,56.428,24.488,72.08c10.276,7.628,22.936,10.588,36.336,10.588c33.572,0,60.8-37.004,60.8-82.664
	c0-17.788-4.124-47.852-11.136-77.968h-0.024c-3.004-12.972-6.58-25.964-10.588-37.984l26.704-6.628l23.82,16.692
	c5.152,14.856,9.68,29.9,13.52,44.516C374.372,288.076,379.472,319.98,379.472,340.7z"/>
<g>
	<path style="fill:#D64331;" d="M266.692,463.684c-70.648,6.684-134.168-49.64-134.168-122.984c0-25.012,7.44-66.308,20.196-108.608
		c0.072-0.216,0.12-0.428,0.192-0.644c3.48-11.304,6.736-21.28,10.848-32.356l21.052-2.336c-6.868,18.596-12.732,38.1-17.452,56.916
		c-8.632,34.452-13.424,66.644-13.424,87.028C153.94,405.292,203.508,458.272,266.692,463.684z"/>
	<path style="fill:#D64331;" d="M344.9,320.6c0,71.856-71.456,111.084-119.004,66.524c10.276,7.628,22.936,10.588,36.336,10.588
		c33.572,0,60.8-37.004,60.8-82.664c0-17.788-4.124-47.852-11.136-77.968h-0.024c-2.932-12.632-6.544-25.852-10.588-37.984l16-3.98
		c6.916,17.476,12.9,37.816,17.524,57.464C341.156,279.516,344.9,305.196,344.9,320.6z"/>
</g>
<path style="fill:#FDFEFF;" d="M218.912,214.472c-1.48,5.244-2.884,10.612-4.22,16c-0.024,0.096-0.048,0.168-0.072,0.24
	c-1.692,6.892-3.22,13.828-4.6,20.648l-0.024,0.024l-42.62,2.288l-14.648-21.58c3.34-11.04,7.008-22.128,11.04-33l35.86-3.98
	L218.912,214.472z"/>
<path style="fill:#E8E7E8;" d="M184.816,196.756c-6.868,18.596-12.732,38.1-17.452,56.916l-14.64-21.58
	c0.072-0.216,0.12-0.428,0.192-0.644c3.48-11.304,6.736-21.28,10.848-32.356L184.816,196.756z"/>
<polygon style="fill:#D2D2D4;" points="218.904,214.472 177.988,216.548 163.752,199.092 199.612,195.112 "/>
<path style="fill:#FDFEFF;" d="M365.324,253.672l-30.496-1.072l-22.936-15.524h-0.024c-3.004-12.972-6.58-25.964-10.588-37.984
	l26.704-6.628l23.82,16.692C356.956,224.008,361.488,239.056,365.324,253.672z"/>
<path style="fill:#E8E7E8;" d="M334.816,252.572l-22.912-15.5h-0.024c-2.912-12.548-6.584-25.972-10.588-37.984l16-3.98
	C324.204,212.588,330.188,232.928,334.816,252.572z"/>
<g>
	<polygon style="fill:#D2D2D4;" points="351.804,209.156 323.336,211.756 301.28,199.092 327.988,192.464 	"/>
	<path style="fill:#D2D2D4;" d="M186.396,167.812c9.092,2.26,22.972,12.208,27.792,19.208
		C205.968,184.992,191.732,175.528,186.396,167.812z"/>
	<path style="fill:#D2D2D4;" d="M231.24,191.568c-12.544-10.368-36.168-37.516-45.704-54.08
		C199.124,148.696,222.556,176.52,231.24,191.568z"/>
	<path style="fill:#D2D2D4;" d="M198.064,124.6c13.744,15.236,35.948,50.016,43.436,66.968
		C227.648,176.236,205.5,141.388,198.064,124.6z"/>
	<path style="fill:#D2D2D4;" d="M251.084,193.88c-10.948-19.672-29.88-66.432-36-90.696
		C226.388,123.452,245.092,170.2,251.084,193.88z"/>
	<path style="fill:#D2D2D4;" d="M257.324,193.88c-7.332-26.748-16.016-83.272-17.072-110.252
		C247.272,109.168,256.22,166.108,257.324,193.88z"/>
	<path style="fill:#D2D2D4;" d="M266.584,193.88c-1.036-29.852,2.924-96.58,8.236-128.908
		C275.948,97.088,271.516,163.736,266.584,193.88z"/>
	<path style="fill:#D2D2D4;" d="M275.832,191.568c4.836-27.808,21.42-83.696,31.632-107.944
		C303.088,108.912,287.112,164.74,275.832,191.568z"/>
	<path style="fill:#D2D2D4;" d="M288.012,187.016c6.016-18.152,24.496-53.624,36.172-69.14
		C318.332,135.6,299.728,171.416,288.012,187.016z"/>
	<path style="fill:#D2D2D4;" d="M298.576,187.016c5.684-11.8,22.076-30.868,31.96-37.872
		C325.296,160.064,309.252,179.432,298.576,187.016z"/>
</g>
<g>
	<path style="fill:#FDFEFF;" d="M189.968,172.008l-1.584-1.584c-2.184,1.78-4.752,2.772-7.704,2.972l-0.304-3.472
		c2.272-0.16,4.152-0.784,5.64-1.868l-4.208-4.208c-2.024,1.244-3.736,1.928-5.132,2.052s-2.72-0.44-3.972-1.692
		s-1.836-2.712-1.756-4.384s0.784-3.244,2.116-4.72l-1.084-1.084l1.388-1.388l1.108,1.108c1.708-1.476,3.756-2.436,6.14-2.884
		l0.584,3.408c-1.636,0.276-3.088,0.888-4.36,1.844l4.08,4.08l0.064-0.064c2.056-1.272,3.804-1.968,5.252-2.084
		s2.804,0.46,4.068,1.724c1.268,1.268,1.848,2.744,1.748,4.436s-0.852,3.312-2.256,4.86l1.56,1.56L189.968,172.008z
		 M174.432,159.532c-0.044,0.692,0.176,1.284,0.664,1.768s1.012,0.724,1.584,0.716s1.392-0.284,2.464-0.836l-3.756-3.756
		C174.792,158.132,174.476,158.836,174.432,159.532z M188.516,164.476c0.072-0.736-0.144-1.36-0.652-1.864
		c-0.504-0.504-1.068-0.748-1.68-0.728c-0.616,0.02-1.484,0.336-2.616,0.944l3.904,3.904
		C188.096,165.968,188.444,165.216,188.516,164.476z"/>
	<path style="fill:#FDFEFF;" d="M188.188,142.076l-1.768-1.768c-2.44,1.988-5.308,3.096-8.604,3.32l-0.34-3.876
		c2.536-0.18,4.636-0.872,6.3-2.084l-4.704-4.704c-2.264,1.392-4.172,2.152-5.732,2.288s-3.04-0.492-4.436-1.888
		c-1.396-1.396-2.052-3.028-1.964-4.896c0.088-1.864,0.876-3.624,2.364-5.272l-1.212-1.212l1.552-1.552l1.236,1.236
		c1.908-1.648,4.192-2.72,6.86-3.224l0.652,3.804c-1.824,0.308-3.448,0.996-4.872,2.06l4.556,4.556l0.072-0.072
		c2.296-1.42,4.248-2.196,5.864-2.328c1.616-0.128,3.132,0.512,4.544,1.928c1.416,1.416,2.064,3.068,1.952,4.956
		c-0.112,1.892-0.952,3.7-2.52,5.428l1.744,1.744L188.188,142.076z M170.836,128.144c-0.048,0.776,0.2,1.432,0.74,1.976
		c0.54,0.54,1.132,0.808,1.768,0.8c0.64-0.008,1.556-0.32,2.752-0.932l-4.192-4.192C171.24,126.584,170.884,127.368,170.836,128.144
		z M186.564,133.668c0.08-0.824-0.16-1.516-0.728-2.084c-0.564-0.564-1.192-0.836-1.88-0.812s-1.66,0.376-2.92,1.056l4.36,4.36
		C186.096,135.332,186.484,134.492,186.564,133.668z"/>
	<path style="fill:#FDFEFF;" d="M239.936,90.444l-0.284-2.484c-3.148,0.04-6.08-0.876-8.804-2.748l2.144-3.248
		c2.1,1.436,4.176,2.2,6.232,2.284l-0.76-6.608c-2.636-0.316-4.608-0.908-5.912-1.772s-2.072-2.276-2.3-4.236
		c-0.224-1.964,0.276-3.648,1.508-5.056c1.228-1.408,2.94-2.292,5.128-2.66l-0.196-1.704l2.18-0.252l0.2,1.736
		c2.516-0.104,4.976,0.476,7.376,1.74l-1.856,3.388c-1.62-0.896-3.32-1.368-5.096-1.416l0.736,6.4l0.104-0.012
		c2.68,0.316,4.692,0.924,6.04,1.824c1.348,0.904,2.132,2.348,2.36,4.336s-0.288,3.684-1.556,5.096
		c-1.264,1.412-3.048,2.304-5.348,2.684l0.28,2.452L239.936,90.444z M235.008,68.74c-0.52,0.576-0.736,1.244-0.648,2.008
		c0.088,0.76,0.384,1.336,0.888,1.724c0.504,0.392,1.416,0.716,2.736,0.98l-0.676-5.892
		C236.296,67.772,235.528,68.164,235.008,68.74z M243.892,82.848c0.576-0.592,0.816-1.288,0.728-2.084
		c-0.092-0.792-0.416-1.396-0.968-1.804s-1.532-0.736-2.944-0.992l0.704,6.128C242.492,83.864,243.316,83.444,243.892,82.848z"/>
	<path style="fill:#FDFEFF;" d="M273.512,72.568l0.04-2.5c-3.124-0.368-5.916-1.66-8.372-3.868l2.548-2.94
		c1.892,1.7,3.852,2.724,5.88,3.076l0.104-6.648c-2.572-0.656-4.448-1.5-5.632-2.524s-1.76-2.524-1.728-4.5s0.748-3.58,2.152-4.816
		c1.4-1.236,3.212-1.892,5.432-1.968l0.028-1.712l2.192,0.036l-0.028,1.748c2.508,0.224,4.872,1.116,7.088,2.684l-2.28,3.116
		c-1.492-1.096-3.116-1.788-4.868-2.068l-0.104,6.444h0.104c2.616,0.66,4.536,1.524,5.752,2.592
		c1.216,1.072,1.808,2.608,1.776,4.604c-0.032,2-0.768,3.616-2.204,4.848c-1.436,1.236-3.32,1.892-5.652,1.968l-0.04,2.468
		L273.512,72.568z M271.448,50.412c-0.588,0.504-0.892,1.14-0.904,1.904s0.204,1.376,0.656,1.828s1.312,0.896,2.584,1.328
		l0.096-5.928C272.852,49.616,272.04,49.904,271.448,50.412z M278.424,65.552c0.648-0.516,0.98-1.172,0.992-1.972
		c0.012-0.8-0.228-1.436-0.724-1.916c-0.496-0.476-1.424-0.932-2.788-1.364l-0.1,6.168
		C276.904,66.376,277.776,66.068,278.424,65.552z"/>
	<path style="fill:#FDFEFF;" d="M199.208,127.984l-1.204-2.04c-2.708,1.244-5.6,1.58-8.676,1.008l0.608-3.636
		c2.368,0.436,4.46,0.296,6.272-0.42l-3.2-5.428c-2.404,0.74-4.336,0.988-5.8,0.744c-1.464-0.244-2.672-1.172-3.62-2.784
		c-0.952-1.612-1.164-3.264-0.64-4.956s1.664-3.116,3.416-4.276l-0.824-1.4l1.792-1.056l0.84,1.424
		c2.14-1.06,4.492-1.504,7.056-1.332l-0.3,3.644c-1.748-0.152-3.4,0.096-4.956,0.736l3.1,5.256l0.084-0.048
		c2.44-0.76,4.416-1.008,5.932-0.744c1.512,0.264,2.752,1.212,3.712,2.844c0.964,1.632,1.168,3.304,0.616,5.008
		c-0.552,1.708-1.748,3.168-3.596,4.384l1.188,2.012L199.208,127.984z M186.592,111.092c-0.228,0.7-0.156,1.36,0.212,1.984
		s0.844,1.008,1.432,1.152c0.588,0.144,1.5,0.076,2.744-0.204l-2.852-4.84C187.332,109.76,186.82,110.392,186.592,111.092z
		 M199.712,119.884c0.268-0.736,0.212-1.432-0.172-2.084s-0.896-1.048-1.532-1.188s-1.612-0.048-2.928,0.276l2.968,5.032
		C198.888,121.304,199.44,120.624,199.712,119.884z"/>
	<path style="fill:#FDFEFF;" d="M215.672,107.188l-1.052-2.204c-2.892,1.032-5.892,1.116-8.996,0.252l0.952-3.676
		c2.392,0.664,4.548,0.708,6.476,0.136l-2.792-5.856c-2.532,0.54-4.54,0.62-6.02,0.24c-1.48-0.38-2.636-1.444-3.464-3.184
		c-0.832-1.74-0.9-3.456-0.212-5.144c0.688-1.688,1.988-3.048,3.892-4.08l-0.72-1.508l1.932-0.92l0.736,1.54
		c2.292-0.892,4.744-1.136,7.36-0.728l-0.64,3.712c-1.78-0.312-3.496-0.208-5.152,0.308l2.708,5.676l0.092-0.044
		c2.572-0.56,4.624-0.636,6.152-0.228c1.528,0.408,2.712,1.492,3.552,3.252s0.9,3.492,0.18,5.196s-2.08,3.092-4.088,4.172
		l1.036,2.172L215.672,107.188z M204.252,88.716c-0.296,0.696-0.284,1.384,0.036,2.056c0.32,0.676,0.776,1.112,1.364,1.312
		c0.592,0.2,1.536,0.212,2.836,0.04l-2.492-5.224C205.132,87.412,204.548,88.02,204.252,88.716z M216.92,98.924
		c0.344-0.732,0.348-1.448,0.012-2.152c-0.336-0.704-0.824-1.156-1.464-1.36c-0.64-0.2-1.648-0.196-3.028,0.02l2.592,5.432
		C215.944,100.304,216.576,99.656,216.92,98.924z"/>
	<path style="fill:#FDFEFF;" d="M315.716,64.572l-0.752,2.108c2.544,1.212,4.54,3.108,5.988,5.688l-3.008,1.76
		c-1.116-1.984-2.484-3.416-4.104-4.3l-2,5.608c1.992,1.296,3.34,2.552,4.052,3.76c0.708,1.208,0.768,2.648,0.172,4.312
		c-0.596,1.668-1.664,2.82-3.208,3.468c-1.544,0.644-3.268,0.68-5.172,0.108l-0.516,1.444l-1.848-0.66l0.524-1.472
		c-2.064-0.912-3.812-2.348-5.24-4.312l2.828-1.988c0.948,1.36,2.128,2.408,3.536,3.152l1.94-5.432l-0.088-0.032
		c-2.028-1.312-3.408-2.596-4.132-3.852c-0.724-1.26-0.784-2.732-0.184-4.416c0.6-1.688,1.688-2.848,3.26-3.48
		c1.572-0.636,3.36-0.648,5.36-0.044l0.744-2.08L315.716,64.572z M311.096,83.952c0.644-0.256,1.084-0.708,1.312-1.356
		c0.232-0.644,0.22-1.224-0.032-1.736s-0.856-1.136-1.808-1.868l-1.784,5C309.68,84.224,310.452,84.212,311.096,83.952z
		 M309.536,69.108c-0.696,0.248-1.168,0.712-1.408,1.388c-0.24,0.672-0.22,1.284,0.064,1.832c0.284,0.548,0.94,1.2,1.972,1.96
		l1.856-5.2C311.064,68.848,310.232,68.856,309.536,69.108z"/>
	<path style="fill:#FDFEFF;" d="M337.996,100.616l-1.436,2.048c2.38,2.06,3.964,4.692,4.76,7.9l-3.76,1.004
		c-0.616-2.468-1.66-4.416-3.144-5.848l-3.82,5.444c1.76,1.988,2.84,3.736,3.244,5.248s0.04,3.076-1.096,4.696
		s-2.628,2.544-4.484,2.78c-1.852,0.236-3.72-0.24-5.6-1.416l-0.984,1.404l-1.796-1.26l1.004-1.432
		c-1.952-1.592-3.404-3.66-4.36-6.2l3.636-1.3c0.616,1.744,1.576,3.224,2.868,4.444l3.7-5.276l-0.084-0.06
		c-1.796-2.016-2.896-3.804-3.304-5.376c-0.408-1.568-0.036-3.172,1.112-4.808s2.664-2.564,4.544-2.776
		c1.884-0.216,3.808,0.3,5.784,1.544l1.416-2.02L337.996,100.616z M327.272,120.116c0.772-0.088,1.376-0.444,1.816-1.068
		s0.6-1.252,0.484-1.88c-0.12-0.628-0.584-1.476-1.396-2.548l-3.404,4.856C325.664,119.988,326.5,120.204,327.272,120.116z
		 M329.996,103.668c-0.824,0.064-1.468,0.42-1.928,1.076c-0.46,0.656-0.616,1.32-0.476,1.992c0.14,0.672,0.656,1.568,1.544,2.692
		l3.544-5.048C331.716,103.84,330.82,103.604,329.996,103.668z"/>
	<path style="fill:#FDFEFF;" d="M351.056,138.42l-2.052,1.324c1.396,2.736,1.86,5.7,1.396,8.892l-3.768-0.476
		c0.352-2.456,0.12-4.604-0.692-6.44l-5.452,3.516c0.86,2.444,1.196,4.424,1.004,5.94c-0.192,1.516-1.096,2.796-2.716,3.844
		c-1.62,1.044-3.312,1.332-5.076,0.864c-1.76-0.468-3.276-1.584-4.54-3.34l-1.404,0.908l-1.16-1.8l1.432-0.924
		c-1.18-2.16-1.732-4.56-1.664-7.208l3.764,0.16c-0.084,1.804,0.24,3.496,0.96,5.072l5.284-3.408l-0.056-0.084
		c-0.884-2.48-1.22-4.504-1.012-6.072c0.208-1.568,1.136-2.88,2.772-3.94c1.64-1.056,3.352-1.34,5.128-0.84
		c1.78,0.496,3.332,1.672,4.66,3.52l2.024-1.304L351.056,138.42z M334.192,152.104c0.728,0.204,1.408,0.104,2.036-0.3
		c0.628-0.404,1.004-0.912,1.128-1.524s0.016-1.548-0.324-2.816l-4.864,3.136C332.788,151.396,333.464,151.896,334.192,152.104z
		 M342.7,138.236c-0.768-0.248-1.48-0.16-2.136,0.264c-0.656,0.424-1.044,0.964-1.16,1.624c-0.12,0.66,0.016,1.66,0.404,3.004
		l5.06-3.264C344.192,139.028,343.468,138.484,342.7,138.236z"/>
</g>
<g>
</g>
<g>
</g>
<g>
</g>
<g>
</g>
<g>
</g>
<g>
</g>
<g>
</g>
<g>
</g>
<g>
</g>
<g>
</g>
<g>
</g>
<g>
</g>
<g>
</g>
<g>
</g>
<g>
</g>
</svg>
