<?xml version="1.0" encoding="iso-8859-1"?>
<!-- Generator: Adobe Illustrator 19.0.0, SVG Export Plug-In . SVG Version: 6.00 Build 0)  -->
<svg version="1.1" id="Capa_1" xmlns="http://www.w3.org/2000/svg" xmlns:xlink="http://www.w3.org/1999/xlink" x="0px" y="0px"
	 viewBox="0 0 512 512" style="enable-background:new 0 0 512 512;" xml:space="preserve">
<circle style="fill:#F5EB07;" cx="256" cy="256" r="256"/>
<g>
	<rect x="108.08" y="197.6" style="fill:#656D7A;" width="20.5" height="12.664"/>
	<rect x="383.44" y="197.6" style="fill:#656D7A;" width="20.5" height="12.664"/>
	
		<rect x="126.501" y="266.43" transform="matrix(-0.866 0.5 -0.5 -0.866 391.5627 440.6015)" style="fill:#656D7A;" width="20.5" height="12.664"/>
	
		<rect x="364.987" y="128.753" transform="matrix(-0.866 0.5 -0.5 -0.866 767.7422 64.4482)" style="fill:#656D7A;" width="20.5" height="12.664"/>
	
		<rect x="314.594" y="78.368" transform="matrix(-0.5 0.866 -0.866 -0.5 560.6209 -154.2701)" style="fill:#656D7A;" width="20.5" height="12.664"/>
	<rect x="249.68" y="56" style="fill:#656D7A;" width="12.664" height="20.5"/>
	
		<rect x="176.896" y="78.351" transform="matrix(0.5 0.866 -0.866 0.5 166.9077 -119.7313)" style="fill:#656D7A;" width="20.5" height="12.664"/>
	
		<rect x="364.97" y="266.463" transform="matrix(0.866 0.5 -0.5 0.866 186.6725 -151.0646)" style="fill:#656D7A;" width="20.5" height="12.664"/>
	
		<rect x="126.508" y="128.779" transform="matrix(0.866 0.5 -0.5 0.866 85.8801 -50.2779)" style="fill:#656D7A;" width="20.5" height="12.664"/>
</g>
<path style="fill:#FDFEFF;" d="M349.524,275.184c-25.724,33.96-34.168,69.372-34.168,108.524H196.644
	c0-38.732-8.772-73.78-35.34-110.1c-58.08-79.388,2.388-192.336,102.228-186.096C355.372,93.256,406.192,200.38,349.524,275.184z"/>
<path style="fill:#656D7A;" d="M307.06,442.952l-13.6,8.4c-6.448,1.604-12.896,2.792-19.34,3.556c-12.08,1.46-24.16,1.46-36.24,0
	c-6.448-0.764-12.896-1.952-19.34-3.556l-13.6-8.4c-3.808-2.36-3.808-7.908,0-10.256l5.304-3.276c3.808-2.36,3.808-7.896,0-10.256
	l-5.292-3.276c-3.816-2.348-3.816-7.896,0-10.256l5.284-3.268c3.816-2.36,3.816-7.908,0-10.256l-13.592-8.4h118.712l-13.592,8.4
	c-2.416,1.484-3.3,4.252-2.656,6.676c0.816,3.176,3.416,4.052,7.94,6.844c3.82,2.352,3.82,7.904,0,10.256
	c-4.468,2.764-6.832,3.576-7.804,6.396c-0.892,2.528-0.052,5.548,2.512,7.136l5.304,3.276
	C310.868,435.048,310.868,440.596,307.06,442.952z"/>
<g>
	<path style="fill:#4D535F;" d="M315.356,383.716l-13.592,8.4c-2.416,1.484-3.3,4.252-2.656,6.676l-87.336,12.572l102.376-27.648
		L315.356,383.716L315.356,383.716z"/>
	<path style="fill:#4D535F;" d="M307.052,415.892c-4.468,2.764-6.832,3.576-7.804,6.396l-83.628,19.42l94.164-32.204
		C310.284,411.852,309.368,414.468,307.052,415.892z"/>
</g>
<path style="fill:#353944;" d="M274.12,454.904c-12.08,1.46-24.16,1.46-36.24,0c1.152-4.164,8.824-7.388,18.12-7.388
	C265.296,447.516,272.964,450.74,274.12,454.904z"/>
<path style="fill:#5F87C4;" d="M278.984,384.188l-10.7-1.004l12.62-134.288h-49.8l12.62,134.288l-10.7,1.004l-12.712-135.292
	h-20.508c-15.616,0-28.32-12.704-28.32-28.32v-2.12c0-15.616,12.704-28.32,28.32-28.32c14.536,0,26.644,10.9,28.164,25.356
	l2.128,22.656h51.82l2.124-22.596c1.528-14.516,13.636-25.416,28.168-25.416c15.616,0,28.32,12.704,28.32,28.32v2.12
	c0,15.616-12.704,28.32-28.32,28.32H291.7L278.984,384.188z M292.704,238.148H312.2c9.688,0,17.572-7.884,17.572-17.572v-2.12
	c0-9.688-7.884-17.572-17.572-17.572c-9.02,0-16.532,6.764-17.476,15.732L292.704,238.148z M199.796,200.884
	c-9.688,0-17.572,7.884-17.572,17.572v2.12c0,9.688,7.884,17.572,17.572,17.572h19.496l-2.028-21.588
	C216.328,207.648,208.816,200.884,199.796,200.884z"/>
<g>
</g>
<g>
</g>
<g>
</g>
<g>
</g>
<g>
</g>
<g>
</g>
<g>
</g>
<g>
</g>
<g>
</g>
<g>
</g>
<g>
</g>
<g>
</g>
<g>
</g>
<g>
</g>
<g>
</g>
</svg>
