<?xml version="1.0" encoding="iso-8859-1"?>
<!-- Generator: Adobe Illustrator 19.0.0, SVG Export Plug-In . SVG Version: 6.00 Build 0)  -->
<svg version="1.1" id="Capa_1" xmlns="http://www.w3.org/2000/svg" xmlns:xlink="http://www.w3.org/1999/xlink" x="0px" y="0px"
	 viewBox="0 0 512 512" style="enable-background:new 0 0 512 512;" xml:space="preserve">
<circle style="fill:#F5EB07;" cx="256" cy="256" r="256"/>
<rect x="23.556" y="91.768" style="fill:#656D7A;" width="464.88" height="328.8"/>
<rect x="50.248" y="155.104" style="fill:#FDFEFF;" width="411.52" height="238.756"/>
<rect x="204.48" y="111.296" style="fill:#4D535F;" width="103.064" height="24.304"/>
<rect x="219.544" y="31.644" style="fill:#FDFEFF;" width="72.908" height="89.552"/>
<circle style="fill:#656D7A;" cx="256" cy="61.304" r="16.928"/>
<rect x="223.536" y="195.836" style="fill:#F1592F;" width="213.08" height="17.24"/>
<g>
	<rect x="223.536" y="238.12" style="fill:#656D7A;" width="213.08" height="17.24"/>
	<rect x="223.536" y="280.4" style="fill:#656D7A;" width="213.08" height="17.24"/>
	<rect x="223.536" y="322.68" style="fill:#656D7A;" width="213.08" height="17.24"/>
</g>
<rect x="75.872" y="191.108" style="fill:#70B1E1;" width="115.836" height="135.416"/>
<rect x="84.72" y="352.32" style="fill:#656D7A;" width="98.096" height="16.696"/>
<g>
	<path style="fill:#FDFEFF;" d="M133.788,268.608c-31.988,0-57.92,25.932-57.92,57.92h115.836
		C191.708,294.536,165.776,268.608,133.788,268.608z"/>
	<circle style="fill:#FDFEFF;" cx="133.788" cy="233.84" r="25.288"/>
</g>
<g>
</g>
<g>
</g>
<g>
</g>
<g>
</g>
<g>
</g>
<g>
</g>
<g>
</g>
<g>
</g>
<g>
</g>
<g>
</g>
<g>
</g>
<g>
</g>
<g>
</g>
<g>
</g>
<g>
</g>
</svg>
