<?xml version="1.0" encoding="iso-8859-1"?>
<!-- Generator: Adobe Illustrator 19.0.0, SVG Export Plug-In . SVG Version: 6.00 Build 0)  -->
<svg version="1.1" id="Capa_1" xmlns="http://www.w3.org/2000/svg" xmlns:xlink="http://www.w3.org/1999/xlink" x="0px" y="0px"
	 viewBox="0 0 512 512" style="enable-background:new 0 0 512 512;" xml:space="preserve">
<circle style="fill:#FAD307;" cx="256" cy="256" r="256"/>
<g>
	<rect x="351.32" y="45.94" style="fill:#FDFEFF;" width="56.16" height="113.492"/>
	<polygon style="fill:#FDFEFF;" points="444.872,457.816 67.232,457.816 67.232,184.848 253.684,34.864 444.872,184.848 	"/>
</g>
<polygon style="fill:#F1592F;" points="59.2,209.22 41.652,187.404 253.5,16.984 470.428,187.16 453.144,209.192 253.72,52.744 "/>
<rect x="216.8" y="345.56" style="fill:#70B1E1;" width="78.376" height="107.188"/>
<g>
	<path style="fill:#656D7A;" d="M212.584,341.332v111.396h8.504V349.836H290.9v102.892h8.504V341.332H212.584z"/>
	<circle style="fill:#656D7A;" cx="276.52" cy="403.84" r="6.412"/>
</g>
<rect x="332.88" y="290.24" style="fill:#D2D2D4;" width="86.752" height="100.88"/>
<g>
	<path style="fill:#656D7A;" d="M424.12,395.612h-95.696V285.788h95.696V395.612z M337.372,386.668h77.804v-91.936h-77.804V386.668z
		"/>
	<rect x="332.88" y="336.24" style="fill:#656D7A;" width="86.748" height="8.944"/>
	<rect x="371.8" y="290.24" style="fill:#656D7A;" width="8.944" height="100.88"/>
</g>
<rect x="324.16" y="383.16" style="fill:#4D535F;" width="104.2" height="15.428"/>
<rect x="92.44" y="290.24" style="fill:#D2D2D4;" width="86.752" height="100.88"/>
<g>
	<path style="fill:#656D7A;" d="M183.68,395.612H87.984V285.788h95.696V395.612z M96.932,386.668h77.804v-91.936H96.932V386.668z"/>
	<rect x="92.44" y="336.24" style="fill:#656D7A;" width="86.748" height="8.944"/>
	<rect x="131.364" y="290.24" style="fill:#656D7A;" width="8.944" height="100.88"/>
</g>
<rect x="83.724" y="383.16" style="fill:#4D535F;" width="104.2" height="15.428"/>
<rect x="46.776" y="450.4" style="fill:#656D7A;" width="418.44" height="22.304"/>
<rect x="34.728" y="472.72" style="fill:#4D535F;" width="442.56" height="22.304"/>
<rect x="342.6" y="31.468" style="fill:#F1592F;" width="73.528" height="25.916"/>
<circle style="fill:#D2D2D4;" cx="256.04" cy="185.6" r="47.04"/>
<g>
	<path style="fill:#656D7A;" d="M256.052,237.328c-28.524,0-51.728-23.208-51.728-51.728s23.204-51.728,51.728-51.728
		S307.78,157.08,307.78,185.6S284.576,237.328,256.052,237.328z M256.052,143.248c-23.352,0-42.356,19-42.356,42.356
		s19,42.356,42.356,42.356s42.356-19,42.356-42.356S279.408,143.248,256.052,143.248z"/>
	<rect x="209" y="180.92" style="fill:#656D7A;" width="94.084" height="9.376"/>
	<rect x="251.364" y="138.56" style="fill:#656D7A;" width="9.376" height="94.084"/>
</g>
<g>
</g>
<g>
</g>
<g>
</g>
<g>
</g>
<g>
</g>
<g>
</g>
<g>
</g>
<g>
</g>
<g>
</g>
<g>
</g>
<g>
</g>
<g>
</g>
<g>
</g>
<g>
</g>
<g>
</g>
</svg>
