<?xml version="1.0" encoding="iso-8859-1"?>
<!-- Generator: Adobe Illustrator 19.0.0, SVG Export Plug-In . SVG Version: 6.00 Build 0)  -->
<svg version="1.1" id="Capa_1" xmlns="http://www.w3.org/2000/svg" xmlns:xlink="http://www.w3.org/1999/xlink" x="0px" y="0px"
	 viewBox="0 0 512 512" style="enable-background:new 0 0 512 512;" xml:space="preserve">
<circle style="fill:#70B1E1;" cx="256" cy="256" r="256"/>
<g>
	<path style="fill:#656D7A;" d="M36,276.576c5.608,28.712,46.324,50.992,95.748,50.992s90.14-22.28,95.748-50.992H36z"/>
	<path style="fill:#656D7A;" d="M284.504,276.576c5.608,28.712,46.324,50.992,95.748,50.992s90.14-22.28,95.748-50.992H284.504z"/>
</g>
<rect x="161.796" y="147.384" style="fill:#D64331;" width="19.656" height="33.252"/>
<rect x="74.044" y="195.536" style="fill:#F5EA07;" width="115.408" height="81.04"/>
<path style="fill:#F1592F;" d="M202.16,194.584l-67.052-59.228c-1.92-1.696-4.8-1.696-6.716,0l-67.056,59.228
	c-3.5,3.092-1.316,8.876,3.36,8.876H198.8C203.472,203.456,205.66,197.676,202.16,194.584z"/>
<path style="fill:#DA8D27;" d="M139.844,236.476h-16.192c-3.72,0-6.736,3.016-6.736,6.736v33.36h29.668v-33.36
	C146.58,239.492,143.564,236.476,139.844,236.476z"/>
<path style="fill:#896D61;" d="M415.828,183.596H344.76l7.68-32.764h55.712L415.828,183.596z M355.624,174.98h49.336l-3.64-15.536
	h-42.052L355.624,174.98z"/>
<g>
	<rect x="342.32" y="166.036" style="fill:#E8BB20;" width="20.472" height="15.844"/>
	<rect x="397.8" y="166.036" style="fill:#E8BB20;" width="20.472" height="15.844"/>
	<rect x="309.08" y="200.64" style="fill:#E8BB20;" width="142.38" height="75.94"/>
</g>
<path style="fill:#F5EA07;" d="M454.228,173.336H306.276v36.284c52.12,19.4,101.52,19.968,147.952,0V173.336z"/>
<rect x="362.36" y="203.38" style="fill:#FDFEFF;" width="35.78" height="30.44"/>
<polygon style="fill:#896D61;" points="390.308,242.008 380.252,252.156 370.192,242.008 370.192,173.336 390.308,173.336 "/>
<rect x="362.36" y="226.52" style="fill:#FDFEFF;" width="35.78" height="7.3"/>
<rect x="377.32" y="213.72" style="fill:#D2D2D4;" width="5.876" height="16.464"/>
<rect x="77.252" y="323.684" style="fill:#E8E7E8;" width="357.48" height="21.88"/>
<g>
	<path style="fill:#FDFEFF;" d="M198.844,394.452c28.992-17.744,88-17.712,116.952,0h9.488c-22.932-59.572-112.916-59.784-135.928,0
		H198.844z"/>
	<path style="fill:#FDFEFF;" d="M295.192,362.8l-28.916-46.58c-4.676-7.532-15.64-7.532-20.316,0l-28.92,46.58H295.192z"/>
	<path style="fill:#FDFEFF;" d="M220.984,396.744c0,2.14-0.892,4.1-2.284,5.492c-1.428,1.428-3.388,2.284-5.528,2.284h-29.064
		c-4.316,0-7.776-3.46-7.776-7.776c0-4.236,3.4-7.772,7.776-7.772h29.064C217.488,388.972,220.984,392.428,220.984,396.744z"/>
	<path style="fill:#FDFEFF;" d="M335.916,396.744c0,4.348-3.524,7.776-7.808,7.776h-29.064c-4.316,0-7.772-3.46-7.772-7.776
		c0-4.276,3.448-7.772,7.772-7.772h29.064C332.42,388.972,335.916,392.428,335.916,396.744z"/>
</g>
<circle style="fill:#D2D2D4;" cx="254.92" cy="334.72" r="9.252"/>
<g>
</g>
<g>
</g>
<g>
</g>
<g>
</g>
<g>
</g>
<g>
</g>
<g>
</g>
<g>
</g>
<g>
</g>
<g>
</g>
<g>
</g>
<g>
</g>
<g>
</g>
<g>
</g>
<g>
</g>
</svg>
