<?xml version="1.0" encoding="iso-8859-1"?>
<!-- Generator: Adobe Illustrator 19.0.0, SVG Export Plug-In . SVG Version: 6.00 Build 0)  -->
<svg version="1.1" id="Capa_1" xmlns="http://www.w3.org/2000/svg" xmlns:xlink="http://www.w3.org/1999/xlink" x="0px" y="0px"
	 viewBox="0 0 512 512" style="enable-background:new 0 0 512 512;" xml:space="preserve">
<circle style="fill:#EE4C68;" cx="256" cy="256" r="256"/>
<rect x="247.128" y="44" style="fill:#D2D2D4;" width="32.04" height="421.2"/>
<g>
	<polygon style="fill:#FDFEFF;" points="112.076,79.452 150.988,114.36 386.192,148.696 390.196,85.176 150.988,56.564 	"/>
	<polygon style="fill:#FDFEFF;" points="163.58,170.524 163.58,213.444 342.696,228.896 372.456,188.264 339.836,151.64 	"/>
	<polygon style="fill:#FDFEFF;" points="138.4,239.716 138.4,325.552 366.16,299.228 399.924,268.216 362.728,239.716 	"/>
</g>
<path style="fill:#7EC359;" d="M296.06,462.332c-1.928-13.136,33.98-56.928,33.98-56.928c-18.04,12.26-40.288,48.344-40.288,48.344
	c-1.4-10.16,36.96-55.352,36.96-55.352c-15.24,10.16-39.06,45.716-39.06,45.716c3.328-13.312,23.296-47.996,23.296-47.996
	c-13.488,14.712-29.076,48.344-29.076,48.344c0.352-16.816,23.648-54.652,23.648-54.652c-13.488,11.912-28.9,50.972-28.9,50.972
	c0.176-13.664,9.632-31.704,9.632-31.704c-9.984,11.036-19.092,36.432-19.092,36.432c-1.228-25.224,16.116-52.372,16.116-52.372
	c-12.26,12.612-21.704,42.74-21.704,42.74c2.468-27.676-0.016-30.652-0.016-30.652c0.352,12.436-4.728,31.004-4.728,31.004
	c-10.16-38.008-23.996-46.416-23.996-46.416c15.164,22.028,18.98,39.036,18.644,51.028c-5.26-7.448-11.736-16.108-18.136-23.356
	c-7.716-14.024-16.444-18.916-16.444-18.916c15.416,19.62,14.364,30.304,14.364,30.304c-14.188-27.676-28.728-35.384-28.728-35.384
	c38.536,44.84,26.664,68.048,26.448,67.436c-2.1-25.224-21.02-51.496-21.02-51.496c19.968,42.04,9.808,62.008,9.808,62.008
	c-0.524,7.008,5.78,5.08,5.78,5.08c1.4,8.408,9.632,3.852,9.632,3.852c4.556,6.48,11.036,0.524,11.036,0.524
	c-0.352,5.428,11.212,1.052,11.212,1.052c2.804,4.904,9.604-0.524,9.604-0.524c1.024,4.556,4.584-1.052,4.584-1.052
	c6.132,7.708,13.312-0.176,13.312-0.176c15.588,8.584,12.612-6.832,12.612-6.832c2.804,3.68,6.48,0,6.48,0
	c-3.328-14.54,9.284-37.136,9.284-37.136C302.54,444.64,296.06,462.332,296.06,462.332z M244.736,462.332
	c-0.608-12.296-2.632-22.408-5.324-30.676c3.14,5.156,6.956,11.796,10.672,19.232C248.104,458.512,244.736,462.332,244.736,462.332z
	"/>
<g>
</g>
<g>
</g>
<g>
</g>
<g>
</g>
<g>
</g>
<g>
</g>
<g>
</g>
<g>
</g>
<g>
</g>
<g>
</g>
<g>
</g>
<g>
</g>
<g>
</g>
<g>
</g>
<g>
</g>
</svg>
