<?xml version="1.0" encoding="iso-8859-1"?>
<!-- Generator: Adobe Illustrator 19.0.0, SVG Export Plug-In . SVG Version: 6.00 Build 0)  -->
<svg version="1.1" id="Capa_1" xmlns="http://www.w3.org/2000/svg" xmlns:xlink="http://www.w3.org/1999/xlink" x="0px" y="0px"
	 viewBox="0 0 512 512" style="enable-background:new 0 0 512 512;" xml:space="preserve">
<circle style="fill:#70B1E1;" cx="256" cy="256" r="256"/>
<g>
	<polygon style="fill:#4D535F;" points="228.356,321.364 190.484,321.364 137.872,436 179.02,436 	"/>
	<polygon style="fill:#4D535F;" points="320.04,321.364 280.004,321.364 331.508,436 374.128,436 	"/>
</g>
<rect x="58.808" y="93.632" style="fill:#FDFEFF;" width="394.4" height="247.632"/>
<g>
	<rect x="43.392" y="76" style="fill:#F1592F;" width="425.2" height="23.508"/>
	<rect x="43.392" y="335.4" style="fill:#F1592F;" width="425.2" height="23.508"/>
</g>
<rect x="256" y="203.436" style="fill:#656D7A;" width="22.964" height="35.548"/>
<rect x="301.4" y="184.2" style="fill:#7EC359;" width="22.964" height="54.788"/>
<rect x="346.8" y="159.408" style="fill:#F5EA07;" width="22.964" height="79.576"/>
<rect x="392.2" y="139.112" style="fill:#F1592F;" width="22.964" height="99.872"/>
<g>
	<rect x="95.864" y="268.12" style="fill:#E8E7E8;" width="320.28" height="14.796"/>
	<rect x="95.864" y="302.32" style="fill:#E8E7E8;" width="320.28" height="14.796"/>
</g>
<path style="fill:#F1592F;" d="M101.928,154.984c0-8.456,1.856-14.72,5.568-18.8c3.712-4.076,8.744-6.116,15.096-6.116
	c6.568,0,11.704,2.028,15.42,6.084s5.568,10.332,5.568,18.832c0,8.456-1.856,14.72-5.568,18.8s-8.744,6.116-15.096,6.116
	c-6.568,0-11.704-2.028-15.42-6.084C103.784,169.76,101.928,163.484,101.928,154.984z M116.028,154.856
	c0,6.136,0.708,10.256,2.124,12.36c1.072,1.544,2.552,2.316,4.444,2.316c1.932,0,3.432-0.772,4.508-2.316
	c1.372-2.104,2.06-6.224,2.06-12.36s-0.688-10.236-2.06-12.296c-1.072-1.588-2.576-2.38-4.508-2.38
	c-1.888,0-3.368,0.772-4.444,2.316C116.736,144.6,116.028,148.72,116.028,154.856z M136.372,229.664H122.98l50.28-99.592h13.004
	L136.372,229.664z M165.596,204.88c0-8.456,1.856-14.72,5.568-18.8c3.712-4.076,8.788-6.116,15.224-6.116
	c6.48,0,11.576,2.04,15.288,6.116c3.712,4.076,5.568,10.344,5.568,18.8c0,8.496-1.856,14.784-5.568,18.864
	c-3.712,4.076-8.744,6.116-15.096,6.116c-6.568,0-11.704-2.04-15.42-6.116C167.452,219.664,165.596,213.376,165.596,204.88z
	 M179.696,204.812c0,6.136,0.708,10.236,2.124,12.296c1.072,1.588,2.552,2.38,4.444,2.38c1.932,0,3.412-0.772,4.444-2.316
	c1.416-2.104,2.124-6.224,2.124-12.36s-0.688-10.256-2.06-12.36c-1.072-1.544-2.576-2.316-4.508-2.316
	c-1.932,0-3.412,0.772-4.444,2.316C180.404,194.556,179.696,198.676,179.696,204.812z"/>
<g>
</g>
<g>
</g>
<g>
</g>
<g>
</g>
<g>
</g>
<g>
</g>
<g>
</g>
<g>
</g>
<g>
</g>
<g>
</g>
<g>
</g>
<g>
</g>
<g>
</g>
<g>
</g>
<g>
</g>
</svg>
