<?xml version="1.0" encoding="iso-8859-1"?>
<!-- Generator: Adobe Illustrator 19.0.0, SVG Export Plug-In . SVG Version: 6.00 Build 0)  -->
<svg version="1.1" id="Capa_1" xmlns="http://www.w3.org/2000/svg" xmlns:xlink="http://www.w3.org/1999/xlink" x="0px" y="0px"
	 viewBox="0 0 512 512" style="enable-background:new 0 0 512 512;" xml:space="preserve">
<circle style="fill:#F1592F;" cx="256" cy="256" r="256"/>
<g>
	<path style="fill:#F5EA07;" d="M152.66,411.752H16.64c-7.448,0-12.608-7.428-10.012-14.408l20.384-62.78
		c1.556-4.184,5.548-6.956,10.012-6.956h95.256c4.464,0,8.456,2.772,10.012,6.956l20.384,62.78
		C165.268,404.328,160.108,411.752,152.66,411.752z"/>
	<path style="fill:#F5EA07;" d="M152.66,411.76H16.644c-3.344,0-6.228-1.5-8.148-3.776c-2.38-2.808-3.3-6.792-1.872-10.644
		l20.38-62.776c1.56-4.176,5.56-6.956,10.02-6.956h95.256c1.784,0,3.492,0.444,5.008,1.264c2.26,1.188,4.072,3.196,4.996,5.692
		l2.408,6.452l17.988,56.328c0.028,0.076,0.06,0.164,0.076,0.24C165.148,404.492,160.02,411.76,152.66,411.76z"/>
</g>
<path style="fill:#E8BB20;" d="M152.66,411.76H16.644c-3.344,0-6.228-1.5-8.148-3.776l128.792-79.116
	c2.26,1.188,4.072,3.196,4.996,5.692l2.408,6.452l18.06,56.564C165.148,404.492,160.02,411.76,152.66,411.76z"/>
<g>
	<path style="fill:#F5EA07;" d="M324.012,411.752H187.988c-7.448,0-12.608-7.428-10.012-14.408l20.384-62.78
		c1.556-4.184,5.548-6.956,10.012-6.956h95.256c4.464,0,8.456,2.772,10.012,6.956l20.384,62.78
		C336.62,404.328,331.456,411.752,324.012,411.752z"/>
	<path style="fill:#F5EA07;" d="M324.012,411.76H187.996c-3.344,0-6.228-1.5-8.148-3.776c-2.38-2.808-3.3-6.792-1.872-10.644
		l20.38-62.776c1.56-4.176,5.56-6.956,10.02-6.956h95.256c1.784,0,3.492,0.444,5.008,1.264c4.36,2.292,4.992,5.684,7.404,12.144
		l17.988,56.328c0.028,0.076,0.06,0.164,0.076,0.24C336.496,404.492,331.368,411.76,324.012,411.76z"/>
</g>
<path style="fill:#E8BB20;" d="M324.012,411.76H187.996c-3.344,0-6.228-1.5-8.148-3.776l128.792-79.112
	c4.36,2.292,4.992,5.684,7.404,12.144l18.06,56.564C336.496,404.492,331.368,411.76,324.012,411.76z"/>
<g>
	<path style="fill:#F5EA07;" d="M324.012,207.784H187.988c-7.448,0-12.608-7.428-10.012-14.408l20.384-62.78
		c1.556-4.184,5.548-6.956,10.012-6.956h95.256c4.464,0,8.456,2.772,10.012,6.956l20.384,62.78
		C336.62,200.356,331.456,207.784,324.012,207.784z"/>
	<path style="fill:#F5EA07;" d="M324.012,207.788H187.996c-3.344,0-6.228-1.5-8.148-3.776c-2.38-2.808-3.3-6.792-1.872-10.644
		l20.38-62.776c1.56-4.176,5.56-6.956,10.02-6.956h95.256c1.784,0,3.492,0.444,5.008,1.264c2.26,1.188,4.072,3.196,4.996,5.692
		l2.408,6.452l17.988,56.328c0.028,0.076,0.06,0.164,0.076,0.24C336.496,200.52,331.368,207.788,324.012,207.788z"/>
</g>
<path style="fill:#E8BB20;" d="M324.012,207.788H187.996c-3.344,0-6.228-1.5-8.148-3.776L308.64,124.9
	c2.26,1.188,4.072,3.196,4.996,5.692l2.408,6.452l18.06,56.564C336.496,200.52,331.368,207.788,324.012,207.788z"/>
<g>
	<path style="fill:#F5EA07;" d="M495.36,411.752H359.34c-7.448,0-12.608-7.428-10.012-14.408l20.384-62.78
		c1.556-4.184,5.548-6.956,10.012-6.956h95.256c4.464,0,8.456,2.772,10.012,6.956l20.384,62.78
		C507.968,404.328,502.808,411.752,495.36,411.752z"/>
	<path style="fill:#F5EA07;" d="M495.36,411.76H359.344c-3.344,0-6.228-1.5-8.148-3.776c-2.38-2.808-3.3-6.792-1.872-10.644
		l20.38-62.776c1.56-4.176,5.56-6.956,10.02-6.956h95.256c1.784,0,3.492,0.444,5.008,1.264c2.26,1.188,4.072,3.196,4.996,5.692
		l2.408,6.452l17.988,56.328c0.028,0.076,0.06,0.164,0.076,0.24C507.848,404.492,502.72,411.76,495.36,411.76z"/>
</g>
<path style="fill:#E8BB20;" d="M495.36,411.76H359.344c-3.344,0-6.228-1.5-8.148-3.776l128.792-79.116
	c2.26,1.188,4.072,3.196,4.996,5.692l2.408,6.452l18.06,56.564C507.848,404.492,502.72,411.76,495.36,411.76z"/>
<g>
	<path style="fill:#F5EA07;" d="M238.336,309.768H102.312c-7.448,0-12.608-7.428-10.012-14.408l20.384-62.78
		c1.556-4.184,5.548-6.956,10.012-6.956h95.256c4.464,0,8.456,2.772,10.012,6.956l20.384,62.78
		C250.944,302.34,245.784,309.768,238.336,309.768z"/>
	<path style="fill:#F5EA07;" d="M238.336,309.776H102.32c-7.444,0-12.608-7.432-10.02-14.42l20.38-62.776
		c1.56-4.176,5.56-6.956,10.02-6.956h95.256c1.784,0,3.492,0.444,5.008,1.264c2.26,1.188,4.072,3.196,4.996,5.692l2.408,6.452
		l17.988,56.328c0.028,0.076,0.06,0.164,0.076,0.24C250.82,302.504,245.692,309.776,238.336,309.776z"/>
</g>
<path style="fill:#E8BB20;" d="M238.336,309.776H102.32c-3.344,0-6.228-1.5-8.148-3.776l128.792-79.116
	c2.26,1.188,4.072,3.196,4.996,5.692l2.408,6.452l18.06,56.564C250.82,302.504,245.692,309.776,238.336,309.776z"/>
<g>
	<path style="fill:#F5EA07;" d="M409.688,309.768H273.664c-7.448,0-12.608-7.428-10.012-14.408l20.384-62.78
		c1.556-4.184,5.548-6.956,10.012-6.956h95.256c4.464,0,8.456,2.772,10.012,6.956l20.384,62.78
		C422.296,302.34,417.132,309.768,409.688,309.768z"/>
	<path style="fill:#F5EA07;" d="M409.684,309.776H273.668c-3.344,0-6.228-1.5-8.148-3.776c-2.38-2.808-3.3-6.792-1.872-10.644
		l20.38-62.776c1.56-4.176,5.56-6.956,10.02-6.956h95.256c1.784,0,3.492,0.444,5.008,1.264c2.26,1.188,4.072,3.196,4.996,5.692
		l2.408,6.452l17.988,56.328c0.028,0.076,0.06,0.164,0.076,0.24C422.172,302.504,417.044,309.776,409.684,309.776z"/>
</g>
<path style="fill:#E8BB20;" d="M409.684,309.776H273.668c-3.344,0-6.228-1.5-8.148-3.776l128.792-79.116
	c2.26,1.188,4.072,3.196,4.996,5.692l2.408,6.452l18.06,56.564C422.172,302.504,417.044,309.776,409.684,309.776z"/>
<g>
	<path style="fill:#FDFEFF;" d="M20.072,307.448c9.824,9.824,25.752,9.824,35.576,0c-9.824,9.824-9.824,25.752,0,35.576
		c-9.824-9.824-25.752-9.824-35.576,0C29.896,333.2,29.896,317.272,20.072,307.448z"/>
	<path style="fill:#FDFEFF;" d="M60.844,322.704c6.572,6.572,17.232,6.572,23.804,0c-6.572,6.572-6.572,17.232,0,23.804
		c-6.572-6.572-17.232-6.572-23.804,0C67.416,339.936,67.416,329.28,60.844,322.704z"/>
	<path style="fill:#FDFEFF;" d="M23.04,348.26c6.572,6.572,17.232,6.572,23.804,0c-6.572,6.572-6.572,17.232,0,23.804
		c-6.572-6.572-17.232-6.572-23.804,0C29.616,365.492,29.616,354.832,23.04,348.26z"/>
	<path style="fill:#FDFEFF;" d="M184.452,100.24c9.824,9.824,25.752,9.824,35.576,0c-9.824,9.824-9.824,25.752,0,35.576
		c-9.824-9.824-25.752-9.824-35.576,0C194.276,125.992,194.276,110.064,184.452,100.24z"/>
	<path style="fill:#FDFEFF;" d="M225.224,115.496c6.572,6.572,17.232,6.572,23.804,0c-6.572,6.572-6.572,17.232,0,23.804
		c-6.572-6.572-17.232-6.572-23.804,0C231.796,132.728,231.796,122.072,225.224,115.496z"/>
	<path style="fill:#FDFEFF;" d="M187.42,141.052c6.572,6.572,17.232,6.572,23.804,0c-6.572,6.572-6.572,17.232,0,23.804
		c-6.572-6.572-17.232-6.572-23.804,0C193.992,158.28,193.992,147.624,187.42,141.052z"/>
	<path style="fill:#FDFEFF;" d="M420.372,209.42c-8.864,8.864-8.864,23.24,0,32.104c-8.864-8.864-23.24-8.864-32.104,0
		c8.864-8.864,8.864-23.24,0-32.104C397.132,218.288,411.508,218.288,420.372,209.42z"/>
	<path style="fill:#FDFEFF;" d="M406.604,246.216c-5.932,5.932-5.932,15.552,0,21.484c-5.932-5.932-15.552-5.932-21.484,0
		c5.932-5.932,5.932-15.552,0-21.484C391.056,252.148,400.672,252.148,406.604,246.216z"/>
	<path style="fill:#FDFEFF;" d="M383.544,212.1c-5.932,5.932-5.932,15.552,0,21.484c-5.932-5.932-15.552-5.932-21.484,0
		c5.932-5.932,5.932-15.552,0-21.484C367.992,218.032,377.612,218.032,383.544,212.1z"/>
</g>
<g>
</g>
<g>
</g>
<g>
</g>
<g>
</g>
<g>
</g>
<g>
</g>
<g>
</g>
<g>
</g>
<g>
</g>
<g>
</g>
<g>
</g>
<g>
</g>
<g>
</g>
<g>
</g>
<g>
</g>
</svg>
