<?xml version="1.0" encoding="iso-8859-1"?>
<!-- Generator: Adobe Illustrator 19.0.0, SVG Export Plug-In . SVG Version: 6.00 Build 0)  -->
<svg version="1.1" id="Capa_1" xmlns="http://www.w3.org/2000/svg" xmlns:xlink="http://www.w3.org/1999/xlink" x="0px" y="0px"
	 viewBox="0 0 512 512" style="enable-background:new 0 0 512 512;" xml:space="preserve">
<circle style="fill:#7EC359;" cx="256" cy="256" r="256"/>
<polygon style="fill:#FFFFFF;" points="138.416,183.384 98.42,258.848 413.58,258.848 373.584,183.384 "/>
<polygon style="fill:#A8A7A8;" points="98.42,258.848 256,441.724 413.58,258.848 "/>
<polygon style="fill:#BEBDBE;" points="178.112,258.848 256,441.724 333.888,258.848 "/>
<g>
	<polygon style="fill:#DFDFDF;" points="333.888,258.848 256,183.384 178.112,258.848 	"/>
	<polygon style="fill:#DFDFDF;" points="177.148,258.848 138.416,183.384 98.42,258.848 	"/>
	<polygon style="fill:#DFDFDF;" points="413.336,258.848 373.584,183.384 334.608,258.848 	"/>
</g>
<g>
	<path style="fill:#FDFEFF;" d="M256,122.836c-5.372-9.676-6.16-30.464,0-41.112C262.128,92.328,261.384,113.144,256,122.836z"/>
	<path style="fill:#FDFEFF;" d="M181.756,137.832c-9.7-7.456-18.232-26.528-17.42-37.52
		C173.664,106.956,182.784,125.808,181.756,137.832z"/>
	<path style="fill:#FDFEFF;" d="M120.944,179.948c-10.56-2.912-26.508-16.444-30.764-27.744
		C102.324,154.988,117.472,169.56,120.944,179.948z"/>
	<path style="fill:#FDFEFF;" d="M421.82,152.204c-4.272,11.268-20.16,24.852-30.764,27.744
		C394.48,169.6,409.624,155.032,421.82,152.204z"/>
	<path style="fill:#FDFEFF;" d="M347.664,100.312c0.784,10.952-7.68,30.068-17.42,37.52
		C329.184,125.772,338.404,106.944,347.664,100.312z"/>
</g>
<g>
</g>
<g>
</g>
<g>
</g>
<g>
</g>
<g>
</g>
<g>
</g>
<g>
</g>
<g>
</g>
<g>
</g>
<g>
</g>
<g>
</g>
<g>
</g>
<g>
</g>
<g>
</g>
<g>
</g>
</svg>
