<?xml version="1.0" encoding="iso-8859-1"?>
<!-- Generator: Adobe Illustrator 19.0.0, SVG Export Plug-In . SVG Version: 6.00 Build 0)  -->
<svg version="1.1" id="Capa_1" xmlns="http://www.w3.org/2000/svg" xmlns:xlink="http://www.w3.org/1999/xlink" x="0px" y="0px"
	 viewBox="0 0 512 512" style="enable-background:new 0 0 512 512;" xml:space="preserve">
<circle style="fill:#40B9E3;" cx="256" cy="256" r="256"/>
<path style="fill:#E8E7E8;" d="M100.46,100.424v311.1h311.096v-311.1H100.46z M137.704,374.348v-236.68h236.608v236.684H137.704
	V374.348z"/>
<circle style="fill:#F5EA07;" cx="148.04" cy="148.04" r="134.932"/>
<g>
	<path style="fill:#E8BB20;" d="M148.052,263.34c-63.564,0-115.284-51.716-115.284-115.288c0-63.564,51.716-115.284,115.284-115.284
		s115.284,51.716,115.284,115.284C263.336,211.624,211.62,263.34,148.052,263.34z M148.052,51.248
		c-53.376,0-96.804,43.428-96.804,96.804c0,53.384,43.428,96.812,96.804,96.812s96.804-43.428,96.804-96.812
		C244.856,94.676,201.428,51.248,148.052,51.248z"/>
	<path style="fill:#E8BB20;" d="M142.56,185.14v-32.884c-10.256-2.932-17.776-7.364-22.564-13.304
		c-4.788-5.94-7.18-13.148-7.18-21.624c0-8.58,2.708-15.788,8.124-21.624s12.624-9.196,21.624-10.084v-7.768h11.38v7.768
		c8.32,0.996,14.94,3.832,19.856,8.516s8.056,10.948,9.42,18.796l-19.856,2.588c-1.204-6.176-4.344-10.36-9.42-12.556v30.688
		c12.556,3.4,21.112,7.808,25.664,13.224s6.828,12.36,6.828,20.836c0,9.472-2.864,17.448-8.592,23.936s-13.696,10.464-23.9,11.928
		v14.676H142.56v-14.284c-9.052-1.1-16.404-4.472-22.052-10.124s-9.26-13.628-10.832-23.936l20.484-2.196
		c0.836,4.184,2.408,7.796,4.708,10.832S139.736,183.78,142.56,185.14z M142.56,102.732c-3.088,1.048-5.548,2.824-7.376,5.336
		c-1.832,2.512-2.748,5.284-2.748,8.32c0,2.772,0.836,5.348,2.512,7.732s4.212,4.304,7.612,5.768L142.56,102.732L142.56,102.732z
		 M153.94,186.24c3.924-0.732,7.116-2.552,9.576-5.456c2.46-2.904,3.688-6.316,3.688-10.244c0-3.504-1.032-6.528-3.1-9.064
		c-2.068-2.536-5.456-4.488-10.164-5.848V186.24z"/>
</g>
<circle style="fill:#F1592F;" cx="363.96" cy="363.96" r="134.932"/>
<g>
	<path style="fill:#FDFEFF;" d="M363.944,479.232c-63.564,0-115.284-51.716-115.284-115.288
		c0-63.564,51.716-115.284,115.284-115.284s115.284,51.716,115.284,115.284C479.228,427.516,427.512,479.232,363.944,479.232z
		 M363.944,267.14c-53.376,0-96.804,43.428-96.804,96.804c0,53.384,43.428,96.812,96.804,96.812s96.804-43.428,96.804-96.812
		C460.748,310.568,417.32,267.14,363.944,267.14z"/>
	<path style="fill:#FDFEFF;" d="M394.2,309.508l-4.608,21.636c-4.428-4.428-10.884-6.64-19.372-6.64s-15.36,3.048-20.62,9.14
		c-2.968,3.436-5.076,7.732-6.328,12.888h42.96l-2.5,12.108h-42.02c-0.052,1.196-0.08,2.732-0.08,4.608
		c0,1.824,0.052,3.724,0.156,5.7h39.756l-2.5,12.108h-35.616c1.3,5.572,3.308,9.944,6.016,13.124
		c5.208,6.144,11.976,9.216,20.308,9.216c9.996,0,17.964-3.072,23.9-9.216v23.9c-6.768,3.384-14.66,5.076-23.668,5.076
		c-15.204,0-27.704-5.208-37.492-15.62c-6.664-7.08-11.064-15.908-13.2-26.48h-11.56l2.5-12.108h7.656
		c-0.052-1.248-0.08-2.576-0.08-3.984c0-2.396,0.052-4.504,0.156-6.328h-10.232l2.5-12.108h9.296
		c2.188-10.364,6.536-19.032,13.044-26.008c9.84-10.52,22.78-15.776,38.82-15.776C380.14,304.74,387.744,306.328,394.2,309.508z"/>
</g>
<g>
</g>
<g>
</g>
<g>
</g>
<g>
</g>
<g>
</g>
<g>
</g>
<g>
</g>
<g>
</g>
<g>
</g>
<g>
</g>
<g>
</g>
<g>
</g>
<g>
</g>
<g>
</g>
<g>
</g>
</svg>
