<?xml version="1.0" encoding="iso-8859-1"?>
<!-- Generator: Adobe Illustrator 19.0.0, SVG Export Plug-In . SVG Version: 6.00 Build 0)  -->
<svg version="1.1" id="Capa_1" xmlns="http://www.w3.org/2000/svg" xmlns:xlink="http://www.w3.org/1999/xlink" x="0px" y="0px"
	 viewBox="0 0 512 512" style="enable-background:new 0 0 512 512;" xml:space="preserve">
<circle style="fill:#F5EA07;" cx="256" cy="256" r="256"/>
<path style="fill:#656D7A;" d="M320.472,315.42V144.944c0-35.552-28.92-64.472-64.468-64.472c-35.552,0-64.472,28.92-64.472,64.472
	v50.32h-34.06v-52.62c0-54.328,44.2-98.528,98.532-98.528c54.328,0,98.528,44.2,98.528,98.528V315.42L320.472,315.42L320.472,315.42
	z"/>
<path style="fill:#F1592F;" d="M400.104,259.4v148.984c0,12.14-8.664,22.512-20.596,24.764
	c-37.192,7.02-79.136,10.972-123.508,10.972s-86.308-3.952-123.508-10.972c-11.932-2.252-20.596-12.62-20.596-24.764V259.4
	c0-12.14,8.664-22.512,20.596-24.764c37.2-7.02,79.136-10.972,123.508-10.972s86.316,3.952,123.508,10.972
	C391.44,236.888,400.104,247.26,400.104,259.4z"/>
<g>
	<path style="fill:#E8E7E8;" d="M256,410.208c-42.08,0-76.316-34.236-76.316-76.32c0-42.08,34.236-76.316,76.316-76.316
		s76.316,34.236,76.316,76.316C332.316,375.972,298.08,410.208,256,410.208z M256,269.808c-35.336,0-64.084,28.748-64.084,64.084
		c0,35.34,28.748,64.088,64.084,64.088s64.084-28.748,64.084-64.088C320.084,298.556,291.336,269.808,256,269.808z"/>
	<path style="fill:#E8E7E8;" d="M252.364,358.44v-21.768c-6.788-1.94-11.768-4.876-14.936-8.808s-4.752-8.704-4.752-14.312
		c0-5.68,1.792-10.452,5.376-14.312c3.584-3.86,8.356-6.088,14.312-6.676v-5.144h7.532v5.144c5.508,0.66,9.888,2.536,13.144,5.636
		s5.336,7.248,6.236,12.444l-13.144,1.716c-0.796-4.088-2.876-6.86-6.236-8.312v20.316c8.312,2.252,13.976,5.168,16.988,8.756
		c3.012,3.584,4.52,8.184,4.52,13.796c0,6.268-1.896,11.552-5.688,15.848s-9.068,6.928-15.82,7.896v9.716h-7.532v-9.456
		c-5.992-0.728-10.86-2.96-14.6-6.704c-3.74-3.74-6.132-9.024-7.168-15.848l13.56-1.456c0.556,2.772,1.592,5.16,3.116,7.168
		C248.796,356.084,250.492,357.54,252.364,358.44z M252.364,303.888c-2.044,0.692-3.672,1.872-4.884,3.532
		c-1.212,1.664-1.82,3.5-1.82,5.508c0,1.836,0.556,3.54,1.664,5.116s2.788,2.848,5.04,3.82L252.364,303.888L252.364,303.888z
		 M259.896,359.168c2.596-0.484,4.712-1.688,6.34-3.612s2.44-4.184,2.44-6.78c0-2.32-0.684-4.32-2.052-6s-3.612-2.972-6.728-3.872
		V359.168z"/>
</g>
<path style="fill:#4D535F;" d="M191.528,183.072H179.52c-4.736,0-8.58-3.352-8.58-7.484l0,0c0-4.132,3.84-7.484,8.58-7.484h12.012
	v14.968H191.528z"/>
<g>
</g>
<g>
</g>
<g>
</g>
<g>
</g>
<g>
</g>
<g>
</g>
<g>
</g>
<g>
</g>
<g>
</g>
<g>
</g>
<g>
</g>
<g>
</g>
<g>
</g>
<g>
</g>
<g>
</g>
</svg>
