<?xml version="1.0" encoding="iso-8859-1"?>
<!-- Generator: Adobe Illustrator 19.0.0, SVG Export Plug-In . SVG Version: 6.00 Build 0)  -->
<svg version="1.1" id="Capa_1" xmlns="http://www.w3.org/2000/svg" xmlns:xlink="http://www.w3.org/1999/xlink" x="0px" y="0px"
	 viewBox="0 0 512 512" style="enable-background:new 0 0 512 512;" xml:space="preserve">
<circle style="fill:#7EC359;" cx="256" cy="256" r="256"/>
<path style="fill:#FDFEFF;" d="M440.824,125.784v167.072c0,0-8.78,135.352-184.824,184.932
	C79.848,428.208,71.176,292.856,71.176,292.856V125.784C142.28,131.996,203.316,110.26,256,65.068
	C308.576,110.26,369.616,131.996,440.824,125.784z"/>
<path style="fill:#5F87C4;" d="M256,454.54C108.228,410.176,94.48,302.216,93.508,291.932v-142.78
	c0.408,0.004,0.816,0.004,1.212,0.004c58.756,0,112.916-18.616,161.264-55.376c48.272,36.764,102.436,55.376,161.264,55.376
	c0,0,0.836,0,1.252-0.004v142.8C417.588,301.624,404.084,410.056,256,454.54z"/>
<circle style="fill:#F5EA07;" cx="256" cy="283.212" r="116.88"/>
<path style="fill:#F1592F;" d="M249.46,327.376v-39.164c-12.212-3.488-21.156-8.772-26.888-15.844
	c-5.672-7.072-8.536-15.656-8.536-25.752c0-10.22,3.24-18.804,9.66-25.752c6.48-6.948,15.048-10.952,25.768-12.012V199.6h13.552
	v9.252c9.908,1.184,17.792,4.564,23.648,10.14c5.856,5.576,9.596,13.04,11.216,22.388l-23.648,3.084
	c-1.432-7.352-5.172-12.34-11.216-14.956v36.548c14.956,4.052,25.144,9.3,30.564,15.748c5.42,6.448,8.132,14.72,8.132,24.816
	c0,11.28-3.428,20.78-10.22,28.508c-6.856,7.728-16.328,12.464-28.476,14.208v17.48h-13.552v-17.012
	c-10.78-1.308-19.536-5.328-26.264-12.056c-6.728-6.728-11.028-16.232-12.9-28.508l24.396-2.616c0.996,4.984,2.868,9.284,5.608,12.9
	C243.04,323.14,246.096,325.756,249.46,327.376z M249.46,229.232c-3.676,1.248-6.604,3.364-8.788,6.356
	c-2.18,2.992-3.272,6.292-3.272,9.908c0,3.304,0.996,6.372,2.992,9.208c1.996,2.836,5.016,5.124,9.068,6.872V229.232z
	 M263.012,328.684c4.672-0.872,8.476-3.036,11.404-6.496c2.928-3.46,4.392-7.524,4.392-12.196c0-4.176-1.248-7.772-3.708-10.796
	s-6.48-5.344-12.088-6.964L263.012,328.684L263.012,328.684z"/>
<g>
</g>
<g>
</g>
<g>
</g>
<g>
</g>
<g>
</g>
<g>
</g>
<g>
</g>
<g>
</g>
<g>
</g>
<g>
</g>
<g>
</g>
<g>
</g>
<g>
</g>
<g>
</g>
<g>
</g>
</svg>
