<?xml version="1.0" encoding="iso-8859-1"?>
<!-- Generator: Adobe Illustrator 19.0.0, SVG Export Plug-In . SVG Version: 6.00 Build 0)  -->
<svg version="1.1" id="Capa_1" xmlns="http://www.w3.org/2000/svg" xmlns:xlink="http://www.w3.org/1999/xlink" x="0px" y="0px"
	 viewBox="0 0 512 512" style="enable-background:new 0 0 512 512;" xml:space="preserve">
<circle style="fill:#FAD307;" cx="256" cy="256" r="256"/>
<circle style="fill:#5F87C4;" cx="170.252" cy="337.76" r="52.86"/>
<g>
	<path style="fill:#FDFEFF;" d="M170.252,382.916c-24.904,0-45.164-20.26-45.164-45.164s20.26-45.164,45.164-45.164
		s45.164,20.26,45.164,45.164C215.412,362.656,195.152,382.916,170.252,382.916z M170.252,299.828
		c-20.912,0-37.924,17.012-37.924,37.924c0,20.912,17.012,37.928,37.924,37.928s37.924-17.012,37.924-37.928
		C208.176,316.84,191.16,299.828,170.252,299.828z"/>
	<path style="fill:#FDFEFF;" d="M168.1,352.28v-12.884c-4.016-1.148-6.964-2.884-8.84-5.212c-1.876-2.328-2.812-5.152-2.812-8.472
		c0-3.36,1.06-6.184,3.184-8.472c2.12-2.284,4.944-3.604,8.472-3.952v-3.044h4.46v3.044c3.26,0.388,5.852,1.5,7.78,3.336
		s3.156,4.288,3.688,7.364l-7.78,1.016c-0.472-2.42-1.7-4.06-3.688-4.92v12.02c4.92,1.332,8.272,3.06,10.056,5.18
		s2.676,4.844,2.676,8.164c0,3.712-1.124,6.836-3.368,9.376s-5.364,4.1-9.364,4.672v5.748h-4.46v-5.596
		c-3.548-0.432-6.428-1.752-8.64-3.968c-2.212-2.212-3.628-5.34-4.244-9.376l8.024-0.86c0.328,1.64,0.944,3.056,1.844,4.244
		S166.992,351.748,168.1,352.28z M168.1,319.996c-1.208,0.408-2.172,1.108-2.892,2.092c-0.716,0.984-1.076,2.072-1.076,3.26
		c0,1.088,0.328,2.096,0.984,3.028s1.652,1.684,2.984,2.26L168.1,319.996L168.1,319.996z M172.556,352.712
		c1.536-0.288,2.788-1,3.752-2.136s1.444-2.476,1.444-4.012c0-1.372-0.404-2.556-1.216-3.552s-2.136-1.756-3.98-2.292V352.712z"/>
</g>
<circle style="fill:#5F87C4;" cx="341.76" cy="337.76" r="52.86"/>
<g>
	<path style="fill:#FDFEFF;" d="M341.748,382.916c-24.904,0-45.164-20.26-45.164-45.164s20.26-45.164,45.164-45.164
		s45.164,20.26,45.164,45.164C386.912,362.656,366.652,382.916,341.748,382.916z M341.748,299.828
		c-20.912,0-37.924,17.012-37.924,37.924c0,20.912,17.012,37.928,37.924,37.928s37.924-17.012,37.924-37.928
		C379.672,316.84,362.66,299.828,341.748,299.828z"/>
	<path style="fill:#FDFEFF;" d="M339.596,352.28v-12.884c-4.016-1.148-6.964-2.884-8.84-5.212s-2.812-5.152-2.812-8.472
		c0-3.36,1.06-6.184,3.184-8.472s4.944-3.604,8.472-3.952v-3.044h4.46v3.044c3.26,0.388,5.852,1.5,7.78,3.336
		s3.156,4.288,3.688,7.364l-7.78,1.016c-0.472-2.42-1.7-4.06-3.688-4.92v12.02c4.92,1.332,8.272,3.06,10.056,5.18
		s2.676,4.844,2.676,8.164c0,3.712-1.124,6.836-3.368,9.376c-2.244,2.54-5.364,4.1-9.364,4.672v5.748h-4.46v-5.596
		c-3.548-0.432-6.428-1.752-8.64-3.968c-2.212-2.212-3.628-5.34-4.244-9.376l8.024-0.86c0.328,1.64,0.944,3.056,1.844,4.244
		C337.484,350.888,338.488,351.748,339.596,352.28z M339.596,319.996c-1.208,0.408-2.172,1.108-2.892,2.092
		c-0.716,0.984-1.076,2.072-1.076,3.26c0,1.088,0.328,2.096,0.984,3.028s1.652,1.684,2.984,2.26L339.596,319.996L339.596,319.996z
		 M344.056,352.712c1.536-0.288,2.788-1,3.752-2.136c0.964-1.136,1.444-2.476,1.444-4.012c0-1.372-0.404-2.556-1.216-3.552
		s-2.136-1.756-3.98-2.292V352.712z"/>
	<path style="fill:#FDFEFF;" d="M213.384,468.932c-23.64-3.032-40.728-24.304-40.728-48.136v-6.16
		c0-5.772,4.68-10.456,10.456-10.456l0,0c5.772,0,10.456,4.68,10.456,10.456v7.052c0,12.4,8.384,23.684,20.532,26.172
		c16.704,3.42,31.448-9.312,31.448-25.428V79.784c0-5.772,4.68-10.456,10.456-10.456l0,0c5.772,0,10.456,4.68,10.456,10.456v342.648
		C266.456,450.32,241.984,472.604,213.384,468.932z"/>
</g>
<path style="fill:#70B1E1;" d="M256,85.08c-96.304,0-174.376,70.804-174.376,158.14h348.752
	C430.376,155.884,352.304,85.08,256,85.08z"/>
<path style="fill:#FDFEFF;" d="M256,85.08c-57.732,0-104.532,70.804-104.532,158.14h209.064
	C360.532,155.884,313.732,85.08,256,85.08z"/>
<path style="fill:#F1592F;" d="M256,85.08c-19.492,0-35.296,70.804-35.296,158.14h70.588C291.296,155.884,275.492,85.08,256,85.08z"
	/>
<ellipse style="fill:#70B1E1;" cx="116.48" cy="243.224" rx="34.876" ry="31.628"/>
<ellipse style="fill:#FDFEFF;" cx="186.248" cy="243.224" rx="34.876" ry="31.628"/>
<ellipse style="fill:#F1592F;" cx="256" cy="243.224" rx="34.876" ry="31.628"/>
<ellipse style="fill:#FDFEFF;" cx="325.76" cy="243.224" rx="34.876" ry="31.628"/>
<ellipse style="fill:#70B1E1;" cx="395.48" cy="243.224" rx="34.876" ry="31.628"/>
<g>
</g>
<g>
</g>
<g>
</g>
<g>
</g>
<g>
</g>
<g>
</g>
<g>
</g>
<g>
</g>
<g>
</g>
<g>
</g>
<g>
</g>
<g>
</g>
<g>
</g>
<g>
</g>
<g>
</g>
</svg>
