<?xml version="1.0" encoding="iso-8859-1"?>
<!-- Generator: Adobe Illustrator 19.0.0, SVG Export Plug-In . SVG Version: 6.00 Build 0)  -->
<svg version="1.1" id="Capa_1" xmlns="http://www.w3.org/2000/svg" xmlns:xlink="http://www.w3.org/1999/xlink" x="0px" y="0px"
	 viewBox="0 0 512 512" style="enable-background:new 0 0 512 512;" xml:space="preserve">
<circle style="fill:#4786C6;" cx="256" cy="256" r="256"/>
<g>
	<path style="fill:#4D535F;" d="M326.964,215.772L326.964,215.772c-43.468-5.948-73.884,24.468-67.936,67.936l0,0
		C302.496,289.656,332.912,259.24,326.964,215.772z"/>
	<path style="fill:#4D535F;" d="M184.5,215.772L184.5,215.772c43.468-5.948,73.884,24.468,67.936,67.936l0,0
		C208.968,289.656,178.552,259.24,184.5,215.772z"/>
</g>
<rect x="245.48" y="123.612" style="fill:#656D7A;" width="21.016" height="199.34"/>
<path style="fill:#FDFEFF;" d="M170.3,339.264c0,0.048-0.004,0.1-0.004,0.148c0,67.54,38.368,122.292,85.7,122.292
	s85.7-54.752,85.7-122.292c0-0.052-0.004-0.1-0.004-0.148v-25.588h-171.4L170.3,339.264z"/>
<g>
	<rect x="164.04" y="295.332" style="fill:#D2D2D4;" width="183.944" height="33.312"/>
	<rect x="200.12" y="444.04" style="fill:#D2D2D4;" width="111.736" height="31.972"/>
</g>
<circle style="fill:#F5EA07;" cx="256" cy="123.612" r="87.608"/>
<g>
	<path style="fill:#E8BB20;" d="M256,198.464c-41.272,0-74.852-33.58-74.852-74.856c0-41.272,33.58-74.852,74.852-74.852
		s74.852,33.58,74.852,74.852C330.852,164.884,297.272,198.464,256,198.464z M256,60.756c-34.656,0-62.852,28.196-62.852,62.852
		c0,34.66,28.196,62.856,62.852,62.856s62.852-28.196,62.852-62.856C318.852,88.952,290.656,60.756,256,60.756z"/>
	<path style="fill:#E8BB20;" d="M252.432,147.688v-21.352c-6.66-1.904-11.544-4.78-14.652-8.636s-4.664-8.536-4.664-14.04
		c0-5.572,1.76-10.252,5.276-14.04s8.196-5.972,14.04-6.548v-5.044h7.388v5.044c5.4,0.644,9.7,2.488,12.892,5.528
		s5.232,7.108,6.116,12.204l-12.892,1.68c-0.78-4.008-2.82-6.728-6.116-8.152v19.924c8.152,2.208,13.708,5.072,16.664,8.588
		s4.432,8.024,4.432,13.528c0,6.148-1.86,11.328-5.58,15.544c-3.72,4.212-8.892,6.796-15.516,7.744v9.528h-7.388v-9.268
		c-5.876-0.712-10.652-2.904-14.32-6.572s-6.012-8.848-7.032-15.544l13.3-1.428c0.544,2.716,1.564,5.06,3.056,7.032
		S250.6,146.808,252.432,147.688z M252.432,94.184c-2.004,0.68-3.6,1.836-4.792,3.464s-1.784,3.432-1.784,5.4
		c0,1.8,0.544,3.472,1.632,5.02c1.088,1.544,2.736,2.796,4.944,3.744L252.432,94.184L252.432,94.184z M259.82,148.404
		c2.548-0.476,4.62-1.656,6.216-3.54c1.596-1.884,2.396-4.104,2.396-6.652c0-2.276-0.672-4.24-2.012-5.884
		c-1.34-1.648-3.54-2.912-6.6-3.796V148.404z"/>
</g>
<g>
</g>
<g>
</g>
<g>
</g>
<g>
</g>
<g>
</g>
<g>
</g>
<g>
</g>
<g>
</g>
<g>
</g>
<g>
</g>
<g>
</g>
<g>
</g>
<g>
</g>
<g>
</g>
<g>
</g>
</svg>
