<?xml version="1.0" encoding="iso-8859-1"?>
<!-- Generator: Adobe Illustrator 19.0.0, SVG Export Plug-In . SVG Version: 6.00 Build 0)  -->
<svg version="1.1" id="Capa_1" xmlns="http://www.w3.org/2000/svg" xmlns:xlink="http://www.w3.org/1999/xlink" x="0px" y="0px"
	 viewBox="0 0 512 512" style="enable-background:new 0 0 512 512;" xml:space="preserve">
<circle style="fill:#7EC359;" cx="256" cy="256" r="256"/>
<path style="fill:#D2D2D4;" d="M155.276,143.592l124.216,192.4l9.212-5.424l-22.392-43.536c-2.872-5.58-4.304-11.792-4.164-18.068
	l0.464-21.168l-91.536-104.26c-3.36-3.828-9.052-4.548-13.26-1.676L155.276,143.592z"/>
<path style="fill:#F1592F;" d="M60.068,133.696L189.272,62.9c3.916-2.148,8.792-0.788,10.888,3.036l44.416,81.056
	c2.096,3.824,0.62,8.664-3.3,10.812L112.072,228.6c-3.916,2.148-8.792,0.788-10.888-3.036l-44.412-81.056
	C54.676,140.684,56.152,135.844,60.068,133.696z"/>
<g>
	<path style="fill:#D64331;" d="M157.708,116.664c0.244,0.208,0.276,0.656,0.5,0.896c1.696,1.82,3.968,1.508,4.048-1.076
		c0.048-1.592-1.22-2.652-2.436-3.436c-0.568-0.368-1.296-0.7-1.612-1.332c-0.356-0.716,0.012-1.524-0.208-2.252
		c-0.256-0.848-1.22-1.344-1.42-2.184c-0.268-1.104,0.472-0.956,0.992-1.556c0.308-0.356,0.388-1.208,0.284-1.632
		c-0.232-0.936-0.928-0.972-1.664-0.732c-0.7,0.228-1.368,0.16-2.1,0.112c-0.528-0.032-0.66-0.308-1.076-0.448
		c-0.54-0.18-2.76,0.152-3.516,0.556c-0.604,0.324-0.976,1.744-1.612,1.736c-0.86-0.012-1.204-1.456-2.36-0.976
		c-0.212,0.088-2.52,1.636-2.672,2.024c-0.296,0.76,0.76,1.564,0.476,2.148c-0.2,0.408-1.7,0.932-2.112,1.18
		c0.108,0.828,1.016,1.428,1.652,1.824c0.648,0.404,1.596,0.292,2.028,0.628c0.48,0.372,0.736,1.124,1.108,1.604
		c0.348,0.444,1.596,1.448,2.116,1.544c0.404,0.076,0.588-0.252,1.04-0.008c0.42,0.224,0.46,0.612,0.724,0.964
		C151.412,118.304,155.868,115.1,157.708,116.664z"/>
	<path style="fill:#D64331;" d="M198.272,165.068c1.364-0.748,1.624-0.672,1.84-2.024c0.18-1.116-0.264-1.228-0.56-2.332
		c-0.284-1.068,0-1.812-0.816-2.876c-0.524-0.688-0.924-0.936-1.288-1.78c-0.732-1.696-1.052-3.38-2.092-4.988
		c-0.8-1.236-3.172-2.444-3.18-4.196c-0.012-1.912,2.456-3.856,2.712-5.772c0.144-1.076-0.908-3.388-1.636-4.296
		c-0.656-0.82-2.044-1.024-2.568-1.848c-0.656-1.028,0.148-1.34,0.612-2.292c0.444-0.912,0.468-1.888,1.044-2.748
		c0.616-0.916,1.72-1.356,2.476-2.16c0.788-0.836,1.544-2.336,1.948-3.416c0.516-1.376,0.008-2.04-0.328-3.412
		c-0.36-1.468-0.508-4.408-0.22-5.856c0.568,0.932,0.968,1.796,1.256,2.812c0.224,0.788,0.24,2.488,0.748,2.952
		c0.944-1.32-0.016-2.816-0.24-4.196c-0.188-1.152,0.052-2.372,0.024-3.548c-0.024-1.048,0.048-2.612-0.524-3.576
		c-0.812-1.36-3.28-0.996-4.216-3.34c-0.396-0.992,0.04-0.888,0.076-1.844c0.048-1.24-0.536-2.276-1.164-3.332
		c-1.396-2.348-1.952-4.352,0.096-6.704c1.032-1.188,2.756-1.408,4.372-1.052c2.088,0.46,2.136,1.324,5.004-0.204
		c-0.924-1.132-3.532,0.62-4.136-1.2c1.78-0.864,0.772-3.984-0.792-4.38c-1.02-0.26-2.08,0.608-2.804-0.32
		c-0.332-0.428-0.048-1.396-0.524-2.084c-0.672,0.216-2.068,1.312-2.768,0.936c-1.096-0.588-0.072-2.024-1.844-1.772
		c-0.788,0.112-2.044,0.74-2.808,1.052c-3.332,1.36-3.668,2.548-4.044,4.272c-0.172,0.788-0.048,2.052-0.368,2.808
		c-0.66,1.54-3.284,1.568-4.144,2.996c-0.62,1.028,0.076,1.96-0.244,3.012c-0.28,0.916-1.22,1.152-1.92,1.832
		c2.096-1.176,1.524-1.964,0.664-3.372c-0.98-1.6-0.256-1.688,1.268-2.632c-0.764-0.6-1.332,0.188-2.128,0.12
		c-0.436-0.036-1.42-0.984-1.52-0.976c-0.408,0.04-1.22,1.664-1.368,2.188c-0.176,0.604,0.3,1.64,0.06,2.036
		c-0.336,0.56-1.516,0.264-1.744,0.648c-0.532,0.904,0.416,1.028,0.716,1.428c0.604,0.808,0.808,0.768,1.46,1.184
		c0.564,0.36,1.048-0.132,1.136,1.1c-1.136,0.652-1.108,0.756-2.052,0.276c-0.668-0.34-0.404-1.548-1.592-0.636
		c0.24,0.464,0.492,0.92,0.576,1.376c-1.204-0.412-0.82-1.64-1.58-2.384c1.148,0.648,1.748-0.548,0.708-1.18
		c-1.288-0.784-4.284,2.924-3.896,0.492c0.16-1.004,2.012-0.668,1.392-1.96c1.568-0.236,2.36-1.472,3.924-2.204
		c-0.1-0.58-0.608-1-0.932-1.364c0.572-0.308,0.992-0.86,1.204-1.448c-0.292,0.196-0.64,0.2-0.924,0.328
		c-0.044-0.076-0.088-0.152-0.136-0.224c-0.624,0.064-1.504,0.24-1.92,0.82c-0.564,0.792,0.024,1.572-0.236,2.392
		c-0.604-0.828-1.52-2.664-2.7-1.688c-1.276,1.06,0.796,1.784,1.2,2.796c-0.424,0.724-1.048,0.76-1.696,1.2
		c-0.656,0.448-0.812,0.904-1.46,1.372c0.792,1.124,0.388,1.712-0.78,2.324c0.616-0.504,0.976-1.304,0.304-1.904
		c-0.528,0.444-1.176,0.364-1.348-0.284c-0.292,0.132-0.704,0.068-0.976,0.164c0.136-0.76,0.896-0.888,0.796-1.632
		c-0.104-0.752-1.016-1.112-1.632-1.3c-1.468-0.444-2.416,0.152-3.736,0.628c-1.256,0.452-2.516,0.728-3.72,1.404
		c-1.324,0.744-1.272,1.716-2.352,2.716c0.616,0.136,1.312,0.364,1.912,0.36c0.42-0.004,0.812-0.2,1.208-0.188
		c0.328,0.012,0.616,0.256,0.92,0.288c0.616,0.068,1.224-0.216,1.748-0.504c0.86-0.468,1.416-0.652,2.348-0.824
		c0.032,0.512-1.344,0.912-0.264,1.42c0.32,0.152,1.192,0.1,1.592,0.132c2.616,0.212,0.712-0.056,2.74,1
		c0.312,0.16,0.308,0.012,0.468,0.324c0.484,0.952-0.412,1.756-0.552,2.568c-0.068,0.408,0.108,0.848,0.212,1.26
		c0.416,1.656,0.276,0.356,0.24,1.952c-0.008,0.352,0.376,1.696,0.9,1.824c0.5,0.12,1.504-0.744,1.376-1.232
		c1.1,0.104,0.028,1.008,0.008,1.344c-0.068,1.2,3.076,1.152,2.948-0.64c-0.052-0.728-0.308-1.184-0.588-1.832
		c0.38-0.112,0.768-0.32,1.076-0.548c-0.028-0.116-0.132-0.304-0.216-0.388c-0.288,0.072-0.588,0.1-0.868,0.172
		c-0.148,0.036-0.944,0.424-1.06,0.408c-0.112-0.016-0.944-0.612-1.056-0.76c-0.896-1.176,1.72-0.156,1.456-1.232
		c-0.14-0.568-2.208-1.016-0.36-1.492c1.096-0.28,1.68,0.448,2.14,1.328c0.588-0.272,1.704-0.956,2.28-0.612
		c-0.148,0.3-0.888,0.916-0.912,1.236c-0.04,0.588,0.668,0.772,1.104,0.752c0.3-0.016,1.032-0.164,1.228-0.424
		c0.5-0.664-0.412-1.172,0.692-1.624c1.292-0.528,4.624,0.796,4.948,3.24c0.08,0.608-0.148,1.252-0.488,1.676
		c-0.544,0.684-1.092,0.792-1.028,1.752c0.072,1.044,1.112,2.688-0.516,3.1c-1.216,0.308-1.36-2.132-2.096-2.704
		c-0.22-0.172-0.428-0.016-0.652-0.2c-0.204-0.164-0.368-0.688-0.492-0.912c-1.548-2.752-4.108-1.608-3.9,0.044
		c0.056,0.436,0.712,0.968,0.708,1.42c-0.004,0.496-0.592,0.612-1.06,0.904c-0.264-0.252-0.844-0.5-1.192-0.384
		c-0.896,0.308-0.048,1.152,0.176,1.68c0.364,0.872,0.44,1.168,0.024,1.892c-0.224,0.388-0.692,1.004-0.604,1.46
		c0.12,0.616,0.696,0.496,1.092,0.84c1.244,1.08-1.024,1.884,0.412,3.1c0.632,0.536,2.436-0.308,2.552-1.108
		c0.096-0.668-0.82-1.404-0.388-2.148c0.396-0.684,2.032-1.1,2.744-1.2c-0.064,0.764-1.036,1.64-0.876,2.376
		c0.152,0.696,1.192,1.18,1.808,1.06c1.112-0.216,0.928-1.208,1.788-1.616c0.892-0.42,1.056,0.52,1.896,0.968
		c0.448,0.24,2.016,1.056,2.516,1.172c0.668,0.152,1.272,0.232,1.836,0.624c0.512,0.356,0.884,0.98,1.444,1.272
		c0.308,0.16,0.832,0.164,1.204,0.356c1.292,0.676,0.12,0.828,1.24,1.968c1.156-0.364,0.4-1.544,0.424-2.332
		c0.068-2.264,1.12-2.26,3.264-3.292c0.588-0.284,1.284-0.668,1.864-0.172c0.616,0.524,0.572,1.536,1.22,2.1
		c0.532,0.464,1.016,0.524,0.7,1.34c-0.392,1.004-2.492,2.952-3.12,1.384c-1.708,0.16,0.436,1.624,0.576,1.896
		c0.42,0.8-1.152,1.864-1.016,2.732c0.156,1.008,0.872,1.364-0.008,2.312c-0.916,0.984-1.552,0.98-2.804,0.56
		c-1.624,0.396-3.068,1.208-4.032,2.564c-0.156,0.22-0.332,0.544-0.588,0.756c-0.192,0.156-0.46,0.164-0.596,0.392
		c-0.136,0.232,0.076,0.308-0.028,0.536c-0.216,0.484-1.42,1.472-0.576,2.008c-0.364,1.192-1.564,0.708-1.196,2.16
		c0.108,0.428,0.16,0.84,0.488,1.232c0.268,0.316,0.632,0.492,0.796,0.92c-0.428,0.448-3.976,2.544-4.156,2.836
		c-0.308,0.504-0.052,0.872,0.152,1.424c0.524,1.424,1.34,2.756,2.424,3.788c0.82,0.78,1.912,1.136,2.732,1.908
		c0.368-0.164,1.104,0.092,1.556,0.112c0.54,0.024,0.652-0.184,1.112-0.248c0.624-0.088,0.888,0.444,1.204,0.912
		c0.444,0.648,0.844,1.08,1.58,1.424c0.884,0.412,1.888,0.244,2.776,0.688c2.404,1.208,4.74,1.352,5.496,3.936
		c0.16,0.54,1.82,1.444,2.22,3.116C198.708,164.464,198.836,164.52,198.272,165.068z"/>
	<path style="fill:#D64331;" d="M140.256,160.128c-0.168,0.044-0.408,0.216-0.552,0.32c0.44,2.224,2.928,1.824,4.872,2.184
		c0.544,0.1,1.476,0.06,1.948,0.284c0.988,0.472,0.656,1.976,0.996,2.868c0.432,1.136,0.964,1.832,2.088,2.396
		c0.828,0.416,1.784,0.228,2.532,0.736c0.428,0.292,0.472,0.748,0.816,1.044c0.552,0.476,1.296,0.624,1.908,1.028
		c0.596,0.392,1.092,0.94,1.648,1.34c3.432,2.484,7.96-2.312,3.912-9.728c-2.184-4-1.592-0.632-2.464-5.744
		c-0.232-1.372-1.4-1.82-0.04-3.02c0.216-0.192,0.824-0.48,0.936-0.736c0.236-0.54-0.316-1.012,0.076-1.608
		c0.576-0.876,2.496-0.896,3.364-1.296c5.188-2.396,0.148-14.796-9.632-11.788c-1.608,0.492-2.944,1.86-4.312,2.756
		c0.196,0.408,0.944,1.316,0.952,1.764c0.016,0.796-3.428,2.064-4.14,2.456c-0.972,0.536-2.488,1.736-3.596,1.768
		c-3.132,0.084,1.74-3.768,2.436-4.28c0.64-0.468,1.624-0.572,1.604-1.568c-0.012-0.656-0.556-0.748-0.256-1.468
		c0.54-1.292,3.908-3.728,5.248-3.48c0.964,0.176,1.516,0.82,2.628,0.816c1.432-0.008,3.392-0.268,3.28-2.032
		c-0.16-2.444-2.44-1.992-4.148-1.608c-0.524,0.116-1.44,0.432-1.76-0.324c-0.132-0.308,0.128-0.484,0.104-0.716
		c-0.02-0.212-0.236-1.096-0.196-1.272c0.172-0.708,1.512-0.604,1.812-1.236c0.964-2.032-5.76-6.04-4.548-2.28
		c0.348,1.08,0.856,1.452-0.86,2.632c-2.352,1.62-1.448-1.368-1.96-2.552c-0.452-1.044-1.192-1.172-2.18-1.596
		c-2.972-1.272-2.548-2.508-6.328-2.24c-6.824,0.484-2.792,6.268-9.992,5.748c-0.684-0.048-1.508-0.32-2.168-0.152
		c-0.696,0.176-1.052,0.94-1.724,0.556c-0.68-0.388-0.468-1.664-0.884-2.232c-0.392,0.12-1.136,0.176-1.44,0.46
		c-0.348,0.324-0.052,0.636-0.304,0.976c-0.764,1.032-2.796,0.508-3.764,0.164c-1.508-0.536-2.488-2.3-3.532-2.676
		c-0.9-0.328-2.724-0.648-3.24,0.316c-0.468,0.872,0.108,1.152-0.796,1.9c-0.736,0.608-1.344,0.512-0.932,1.452
		c0.368,0.832,1.392,1.036,2.06,1.528c-0.58,0.4-1.08,0.084-1.676,0.032c-1.728-0.152-3.412,2.056-4.592,0.528
		c-1.664,0.46-1.068,2.04-1.948,3.04c-0.628,0.712-2.78,1.008-3.188,0.072c-0.288-0.66-0.456-1.096-0.692-1.772
		c-1.86,0.176-2.464,1.52-3.608,2.556c-0.416,0.376-0.94,0.64-1.396,0.976c-1.496,1.104-1.664-0.844-3.348,0.604
		c-0.86,0.736,0.016,0.784-0.436,1.672c-0.292,0.572-1.508,0.688-1.98,0.708c-0.928,0.036-1.068-0.144-1.52-1.136
		c-3.856,0.928-7.8,5.164-7.544,6.276c0.1,0.436,0.78,0.828,1.152,0.984c0.984,0.412,1.076-0.176,2.028-0.368
		c2.128-0.424,2.012,1.572,0.424,2.396c0.144,1.008,0.976,1.32,1.888,1.628c1.088,0.368,1.688-0.024,2.752-0.028
		c0.74-0.004,1.936,0.468,2.096,1.456c0.124,0.768-0.64,1.208-0.364,2.22c0.24,0.868,0.6,1.712,1.032,2.508
		c0.52,0.964,0.876,2.508,2.132,2.188c2.448-0.628-0.552-5.14-0.988-6.504c-0.22-0.684-0.66-2.48-0.26-3.084
		c1.12-1.684,2.536,0.512,2.628,1.604c0.692-0.044,1.256-0.532,1.896-0.8c0.884-0.372,1.472-0.208,2.448-0.16
		c0.528,0.028,1.884-0.212,2.276,0.24c0.668,0.768-0.696,1.412-1.104,1.964c-0.296,0.4-0.56,0.824-0.688,1.312
		c-0.184,0.72-0.008,0.692,0.204,1.392c0.352,1.152,0.868,2.076,1.42,3.196c-0.14,0.12-0.384,0.312-0.58,0.36
		c0.18,1.12,1.304,2.456,2.488,2.5c1.052,0.04,1.844-0.028,2.576,0.876c0.688,0.848,0.008,1.496,0.04,2.432
		c0.036,1.252,1.384,2.128,1.984,0.524c0.272-0.728-0.408-1.38-0.164-2.052c1.4-3.856,3.936-1.664,3.176,0.912
		c-0.168,0.576-0.576,1.292-0.432,1.92c0.44,1.88,3.172,3.98,5.648,3.212c1.172-0.364,2.696-0.332,3.1,0.976
		c0.204,0.656,0.496,1.516,0.572,2.188c0.072,0.624-0.344,1.304,0.584,1.304c1.368,0,2.568-2.392,2.408-3.384
		c-0.024-0.144-0.276-0.22-0.3-0.396c-0.024-0.184,0.22-0.328,0.236-0.508c0.268-3.648,0.648-0.548,1.032-4.188
		c0.08-0.752,0.272-0.896,1.128-0.848c3.068,0.168,5.588,0.388,5.752,3.46c0.016,0.288-0.288,0.876-0.196,1.136
		c0.276,0.768,1.48-0.028,1.868-0.472c0.596-0.676,0.528-1.476,0.384-2.296c-0.136-0.776,0.044-1.512-0.12-2.248
		c-0.16-0.732-0.616-1.128-0.5-1.94c0.152-1.044,0.368-1.976,1.02-2.8c0.436-0.552,0.76-1.328,1.248-1.752
		c1.26-1.096,3.248-1.052,3.676-2.82c0.188-0.78,0.388-1.432,0.872-2.012c0.236,0.44,0.272,2.204,0.124,2.756
		c-0.264,0.984-1.236,1.232-2.028,1.728c-0.528,0.328-0.708,0.204-0.644,0.856c0.172,1.74,1.876,1.076,3.464,1.076
		c5.08,0,4.452-0.908,4.028-2.608c-0.456-1.832,0.084-4.972,1.432-6.4c2.328,2.516-0.184,6.024-0.936,9.268
		C141.516,159.368,140.864,159.364,140.256,160.128z"/>
	<path style="fill:#D64331;" d="M122.036,193.828c0.972-0.048,1.952-0.236,2.896-0.528c0.996-0.308,1.828-0.5,1.868-1.596
		c0.044-1.144,0.008-2.3-1.084-2.712c-0.4-0.152-0.556-0.048-0.92-0.348c-0.392-0.324-0.784-0.864-1.072-1.288
		c-0.74-1.084-1.7-1.148-2.908-1.012c-1.068,0.116-2.152,0.24-3.292,0c-1.024-0.216-1.756-0.684-2.792-0.492
		c-0.608,0.112-1.12,0.236-1.688,0.564c-0.592,0.34-0.932,0.544-1.168,1.216c-0.224,0.632,0.2,1.468-0.128,1.98
		c-0.7,1.096-2.328-0.336-2.76-0.96c-1.268,0.476-0.988,1.872-0.876,2.92c0.132,1.236-0.14,2.608,0.32,3.76
		c0.312,0.78,0.78,1.444,1.036,2.244c0.308,0.968,0.64,1.28,1.4,1.936c0.568,0.492,1.032,1.388,1.716,1.72
		c0.316,0.152,0.752,0.076,1.104,0.204c0.476,0.18,0.72,0.512,1.244,0.588c1.4,0.208,2.308-0.62,3.036-1.68
		c0.844-1.228,1.24-1.724,0.9-3.32C118.396,194.864,120.384,193.812,122.036,193.828z"/>
</g>
<path style="fill:#F5EA07;" d="M171.116,101.18l8.556,15.612c0.128,0.232,0.268,0.456,0.436,0.648c3.216,4,7.004,0.324,21.188-7.444
	c1.92-1.052,2.756-3.3,2.084-5.304c-0.072-0.24-0.184-0.484-0.312-0.716c-0.404-0.732-8.604-15.824-9.104-16.396
	c-1.328-1.544-3.612-2.004-5.484-0.976l-15.596,8.544c-1.872,1.024-2.716,3.196-2.128,5.148
	C170.84,100.608,170.964,100.9,171.116,101.18z"/>
<path style="fill:#E8BB20;" d="M171.284,101.488l6.62-3.628c0.588,2.656,0.844,4.004,2.656,7.456l-5.524,3.028l0.628,1.144
	l5.524-3.028c1.324,2.232,3.168,4.2,5.412,5.948l-7.18,3.932l0.244,0.448c0.128,0.232,0.268,0.456,0.436,0.648l23.268-12.752
	c-0.072-0.24-0.184-0.484-0.312-0.716l-0.244-0.448l-7.644,4.188c-0.264-2.832-0.932-5.444-2.1-7.76l5.988-3.28l-0.628-1.144
	l-5.988,3.28c-1.936-3.384-2.936-4.328-4.856-6.252l7.088-3.884c-0.24-0.44-0.372-0.696-0.72-1.096l-23.208,12.716
	c0.092,0.312,0.212,0.608,0.364,0.888L171.284,101.488z M179.144,97.184l7.196-3.944c5.028,4.628,7.352,10.08,7.488,15.208
	l-5.88,3.22C183.76,108.836,180.4,104.02,179.144,97.184z"/>
<path style="fill:#FDFEFF;" d="M84.896,161.576c7.768,14.18,29.248,2.432,21.468-11.764
	C98.596,135.636,77.116,147.38,84.896,161.576z"/>
<path style="fill:#70B1E1;" d="M98.4,154.176c7.768,14.18,29.248,2.432,21.468-11.764c-3.248-5.928-10.688-8.1-16.616-4.852
	C97.324,140.808,95.152,148.248,98.4,154.176z"/>
<g>
	<path style="fill:#F5EA07;" d="M217.808,134.344c0.944,0.4,1.852,1.4,2.728,3c0.896,1.632,1.264,2.904,1.104,3.816
		c-0.16,0.916-0.652,1.596-1.48,2.052c-0.824,0.452-1.624,0.512-2.404,0.188c-0.944-0.4-1.856-1.404-2.736-3.012
		c-0.884-1.612-1.24-2.92-1.068-3.92c0.14-0.844,0.624-1.488,1.448-1.94C216.228,134.08,217.028,134.016,217.808,134.344z
		 M215.724,136.356c-0.084,0.212-0.072,0.528,0.028,0.956c0.104,0.428,0.428,1.144,0.976,2.14s0.992,1.672,1.332,2.032
		c0.264,0.28,0.508,0.436,0.732,0.48c0.224,0.04,0.436,0.008,0.632-0.1s0.34-0.264,0.424-0.472s0.076-0.524-0.028-0.952
		s-0.428-1.14-0.976-2.14c-0.548-0.996-0.992-1.676-1.336-2.036c-0.264-0.28-0.508-0.436-0.732-0.48
		c-0.224-0.04-0.432-0.008-0.632,0.1C215.948,135.988,215.808,136.148,215.724,136.356z"/>
	<path style="fill:#F5EA07;" d="M211.2,137.964c0.944,0.4,1.852,1.4,2.728,3c0.896,1.632,1.264,2.904,1.104,3.816
		c-0.16,0.916-0.652,1.596-1.48,2.052c-0.824,0.452-1.624,0.512-2.404,0.188c-0.944-0.4-1.856-1.404-2.736-3.012
		c-0.884-1.612-1.24-2.92-1.068-3.92c0.14-0.844,0.624-1.488,1.448-1.94C209.62,137.7,210.42,137.636,211.2,137.964z
		 M209.116,139.98c-0.084,0.212-0.072,0.528,0.028,0.956c0.104,0.428,0.428,1.144,0.976,2.14s0.992,1.672,1.332,2.032
		c0.264,0.28,0.508,0.436,0.732,0.48c0.224,0.04,0.436,0.008,0.632-0.1s0.34-0.264,0.424-0.472s0.076-0.524-0.028-0.952
		s-0.428-1.14-0.976-2.14c-0.548-0.996-0.992-1.676-1.336-2.036c-0.264-0.28-0.508-0.436-0.732-0.48
		c-0.224-0.04-0.432-0.008-0.632,0.1C209.34,139.612,209.2,139.768,209.116,139.98z"/>
	<path style="fill:#F5EA07;" d="M204.592,141.584c0.944,0.4,1.852,1.4,2.728,3c0.896,1.632,1.264,2.904,1.104,3.816
		c-0.16,0.916-0.652,1.596-1.48,2.052c-0.824,0.452-1.624,0.512-2.404,0.188c-0.944-0.4-1.856-1.404-2.736-3.012
		c-0.884-1.612-1.24-2.92-1.068-3.92c0.14-0.844,0.624-1.488,1.448-1.94C203.012,141.32,203.812,141.256,204.592,141.584z
		 M202.508,143.6c-0.084,0.212-0.072,0.528,0.028,0.956c0.104,0.428,0.428,1.144,0.976,2.14s0.992,1.672,1.332,2.032
		c0.264,0.28,0.508,0.436,0.732,0.48c0.224,0.04,0.436,0.008,0.632-0.1s0.34-0.264,0.424-0.472s0.076-0.524-0.028-0.952
		s-0.428-1.14-0.976-2.14c-0.548-0.996-0.992-1.676-1.336-2.036c-0.264-0.28-0.508-0.436-0.732-0.48
		c-0.224-0.04-0.432-0.008-0.632,0.1C202.732,143.232,202.592,143.392,202.508,143.6z"/>
	<path style="fill:#F5EA07;" d="M197.984,145.208c0.944,0.4,1.852,1.4,2.728,3c0.896,1.632,1.264,2.904,1.104,3.816
		c-0.156,0.916-0.652,1.596-1.48,2.052c-0.824,0.452-1.624,0.512-2.404,0.188c-0.944-0.4-1.856-1.404-2.736-3.012
		c-0.884-1.612-1.24-2.92-1.068-3.92c0.14-0.844,0.624-1.488,1.448-1.94S197.204,144.88,197.984,145.208z M195.9,147.22
		c-0.084,0.212-0.072,0.528,0.028,0.956c0.104,0.428,0.428,1.144,0.976,2.14s0.992,1.672,1.332,2.032
		c0.264,0.28,0.508,0.436,0.732,0.48c0.224,0.04,0.436,0.008,0.632-0.1s0.34-0.264,0.424-0.472s0.076-0.524-0.028-0.952
		s-0.428-1.14-0.976-2.14c-0.548-0.996-0.992-1.676-1.336-2.036c-0.264-0.28-0.508-0.436-0.732-0.48
		c-0.224-0.04-0.432-0.008-0.632,0.1C196.124,146.852,195.984,147.012,195.9,147.22z"/>
	<path style="fill:#F5EA07;" d="M188.072,150.636c0.944,0.4,1.852,1.4,2.728,3c0.896,1.632,1.264,2.904,1.104,3.816
		c-0.16,0.916-0.652,1.596-1.48,2.052c-0.824,0.452-1.624,0.512-2.404,0.188c-0.944-0.4-1.856-1.404-2.736-3.012
		c-0.884-1.612-1.24-2.92-1.068-3.92c0.14-0.844,0.624-1.488,1.448-1.94C186.496,150.372,187.296,150.308,188.072,150.636z
		 M185.992,152.648c-0.084,0.212-0.072,0.528,0.028,0.956c0.104,0.428,0.428,1.144,0.976,2.14s0.992,1.672,1.332,2.032
		c0.264,0.28,0.508,0.436,0.732,0.48c0.224,0.04,0.436,0.008,0.632-0.1s0.34-0.264,0.424-0.472s0.076-0.524-0.028-0.952
		s-0.428-1.14-0.976-2.14c-0.548-0.996-0.992-1.676-1.336-2.036c-0.264-0.28-0.508-0.436-0.732-0.48
		c-0.224-0.04-0.432-0.008-0.632,0.1C186.216,152.284,186.072,152.44,185.992,152.648z"/>
	<path style="fill:#F5EA07;" d="M181.464,154.256c0.944,0.4,1.852,1.4,2.728,3c0.896,1.632,1.264,2.904,1.104,3.816
		c-0.16,0.916-0.652,1.596-1.48,2.052c-0.824,0.452-1.624,0.512-2.404,0.188c-0.944-0.4-1.856-1.404-2.736-3.012
		c-0.884-1.612-1.24-2.92-1.068-3.92c0.14-0.844,0.624-1.488,1.448-1.94C179.888,153.992,180.688,153.928,181.464,154.256z
		 M179.384,156.272c-0.084,0.212-0.072,0.528,0.028,0.956c0.104,0.428,0.428,1.144,0.976,2.14s0.992,1.672,1.332,2.032
		c0.264,0.28,0.508,0.436,0.732,0.48c0.224,0.04,0.436,0.008,0.632-0.1s0.34-0.264,0.424-0.472s0.076-0.524-0.028-0.952
		s-0.428-1.14-0.976-2.14c-0.548-0.996-0.992-1.676-1.336-2.036c-0.264-0.28-0.508-0.436-0.732-0.48
		c-0.224-0.04-0.432-0.008-0.632,0.1C179.608,155.904,179.464,156.064,179.384,156.272z"/>
	<path style="fill:#F5EA07;" d="M174.86,157.88c0.944,0.4,1.852,1.4,2.728,3c0.896,1.632,1.264,2.904,1.104,3.816
		c-0.156,0.916-0.652,1.596-1.48,2.052c-0.824,0.452-1.624,0.512-2.404,0.188c-0.944-0.4-1.856-1.404-2.736-3.012
		c-0.884-1.612-1.24-2.92-1.068-3.92c0.14-0.844,0.624-1.488,1.448-1.94C173.28,157.612,174.08,157.552,174.86,157.88z
		 M172.776,159.892c-0.084,0.212-0.072,0.528,0.028,0.956c0.104,0.428,0.428,1.144,0.976,2.14s0.992,1.672,1.332,2.032
		c0.264,0.28,0.508,0.436,0.732,0.48c0.224,0.04,0.436,0.008,0.632-0.1s0.34-0.264,0.424-0.472s0.076-0.524-0.028-0.952
		s-0.428-1.14-0.976-2.14c-0.548-0.996-0.992-1.676-1.336-2.036c-0.264-0.28-0.508-0.436-0.732-0.48
		c-0.224-0.04-0.432-0.008-0.632,0.1C173,159.524,172.86,159.684,172.776,159.892z"/>
	<path style="fill:#F5EA07;" d="M168.252,161.5c0.944,0.4,1.852,1.4,2.728,3c0.896,1.632,1.264,2.904,1.104,3.816
		c-0.16,0.916-0.652,1.596-1.48,2.052c-0.824,0.452-1.624,0.512-2.404,0.188c-0.944-0.4-1.856-1.404-2.736-3.012
		c-0.884-1.612-1.24-2.92-1.068-3.92c0.14-0.844,0.624-1.488,1.448-1.94C166.672,161.236,167.472,161.172,168.252,161.5z
		 M166.168,163.512c-0.084,0.212-0.072,0.528,0.028,0.956c0.104,0.428,0.428,1.144,0.976,2.14s0.992,1.672,1.332,2.032
		c0.264,0.28,0.508,0.436,0.732,0.48c0.224,0.04,0.436,0.008,0.632-0.1s0.34-0.264,0.424-0.472s0.076-0.524-0.028-0.952
		s-0.428-1.14-0.976-2.14c-0.548-0.996-0.992-1.676-1.336-2.036c-0.264-0.28-0.508-0.436-0.732-0.48
		c-0.224-0.04-0.432-0.008-0.632,0.1C166.392,163.144,166.252,163.304,166.168,163.512z"/>
	<path style="fill:#F5EA07;" d="M158.34,166.928c1.984,0.84,4.144,5.028,3.836,6.82c-0.16,0.916-0.652,1.596-1.48,2.052
		c-0.824,0.452-1.624,0.512-2.404,0.188c-2.612-1.108-5.712-7.032-2.356-8.872C156.76,166.664,157.564,166.6,158.34,166.928z
		 M156.256,168.94c-0.084,0.212-0.072,0.528,0.028,0.956c0.228,0.932,2,4.46,3.04,4.652c0.452,0.08,0.884-0.16,1.056-0.576
		c0.304-0.744-0.62-2.388-1.004-3.092c-0.548-0.996-0.992-1.676-1.336-2.036c-0.264-0.28-0.508-0.436-0.732-0.48
		c-0.224-0.04-0.432-0.008-0.632,0.1C156.484,168.576,156.34,168.732,156.256,168.94z"/>
	<path style="fill:#F5EA07;" d="M151.732,170.548c1.984,0.84,4.144,5.028,3.836,6.82c-0.16,0.916-0.652,1.596-1.48,2.052
		c-0.824,0.452-1.624,0.512-2.404,0.188c-0.944-0.4-1.856-1.404-2.736-3.012c-0.884-1.612-1.24-2.92-1.068-3.92
		c0.14-0.844,0.624-1.488,1.448-1.94C150.152,170.284,150.956,170.22,151.732,170.548z M149.648,172.564
		c-0.084,0.212-0.072,0.528,0.028,0.956c0.104,0.428,0.428,1.144,0.976,2.14s0.992,1.672,1.332,2.032
		c0.264,0.28,0.508,0.436,0.732,0.48c0.224,0.04,0.436,0.008,0.632-0.1s0.34-0.264,0.424-0.472s0.076-0.524-0.028-0.952
		s-0.428-1.14-0.976-2.14c-0.548-0.996-0.992-1.676-1.336-2.036c-0.264-0.28-0.508-0.436-0.732-0.48
		c-0.224-0.04-0.432-0.008-0.632,0.1C149.876,172.196,149.732,172.356,149.648,172.564z"/>
	<path style="fill:#F5EA07;" d="M145.124,174.172c0.944,0.4,1.852,1.4,2.728,3c0.896,1.632,1.264,2.904,1.104,3.816
		c-0.16,0.916-0.652,1.596-1.48,2.052c-0.824,0.452-1.624,0.512-2.404,0.188c-0.944-0.4-1.856-1.404-2.736-3.012
		c-0.884-1.612-1.24-2.92-1.068-3.92c0.14-0.844,0.624-1.488,1.448-1.94C143.548,173.904,144.348,173.844,145.124,174.172z
		 M143.04,176.184c-0.084,0.212-0.072,0.528,0.028,0.956c0.104,0.428,0.428,1.144,0.976,2.14s0.992,1.672,1.332,2.032
		c0.264,0.28,0.508,0.436,0.732,0.48c0.224,0.04,0.436,0.008,0.632-0.1s0.34-0.264,0.424-0.472s0.076-0.524-0.028-0.952
		s-0.428-1.14-0.976-2.14c-0.548-0.996-0.992-1.676-1.336-2.036c-0.264-0.28-0.508-0.436-0.732-0.48
		c-0.224-0.04-0.432-0.008-0.632,0.1C143.268,175.816,143.124,175.976,143.04,176.184z"/>
	<path style="fill:#F5EA07;" d="M138.516,177.792c0.944,0.4,1.852,1.4,2.728,3c0.896,1.632,1.264,2.904,1.104,3.816
		c-0.156,0.916-0.652,1.596-1.48,2.052c-0.824,0.452-1.624,0.512-2.404,0.188c-0.944-0.4-1.856-1.404-2.736-3.012
		c-0.884-1.612-1.24-2.92-1.068-3.92c0.14-0.844,0.624-1.488,1.448-1.94C136.94,177.528,137.74,177.464,138.516,177.792z
		 M136.432,179.804c-0.084,0.212-0.072,0.528,0.028,0.956c0.104,0.428,0.428,1.144,0.976,2.14s0.992,1.672,1.332,2.032
		c0.264,0.28,0.508,0.436,0.732,0.48c0.224,0.04,0.436,0.008,0.632-0.1s0.34-0.264,0.424-0.472s0.076-0.524-0.028-0.952
		s-0.428-1.14-0.976-2.14c-0.548-0.996-0.992-1.676-1.336-2.036c-0.264-0.28-0.508-0.436-0.732-0.48
		c-0.224-0.04-0.432-0.008-0.632,0.1C136.66,179.436,136.516,179.596,136.432,179.804z"/>
	<path style="fill:#F5EA07;" d="M128.608,183.22c0.944,0.4,1.852,1.4,2.728,3c0.896,1.632,1.264,2.904,1.104,3.816
		c-0.16,0.916-0.652,1.596-1.48,2.052c-0.824,0.452-1.624,0.512-2.404,0.188c-0.944-0.4-1.856-1.404-2.736-3.012
		c-0.884-1.612-1.24-2.92-1.068-3.92c0.14-0.844,0.624-1.488,1.448-1.94C127.028,182.956,127.832,182.892,128.608,183.22z
		 M126.524,185.236c-0.084,0.212-0.072,0.528,0.028,0.956c0.104,0.428,0.428,1.144,0.976,2.14c0.548,0.996,0.992,1.672,1.332,2.032
		c0.264,0.28,0.508,0.436,0.732,0.48c0.224,0.04,0.436,0.008,0.632-0.1s0.34-0.264,0.424-0.472s0.076-0.524-0.028-0.952
		s-0.428-1.14-0.976-2.14c-0.548-0.996-0.992-1.676-1.336-2.036c-0.264-0.28-0.508-0.436-0.732-0.48
		c-0.224-0.04-0.432-0.008-0.632,0.1C126.748,184.868,126.608,185.024,126.524,185.236z"/>
	<path style="fill:#F5EA07;" d="M122,186.844c0.944,0.4,1.852,1.4,2.728,3c0.896,1.632,1.264,2.904,1.104,3.816
		c-0.156,0.916-0.652,1.596-1.48,2.052c-0.824,0.452-1.624,0.512-2.404,0.188c-0.944-0.4-1.856-1.404-2.736-3.012
		c-0.884-1.612-1.24-2.92-1.068-3.92c0.14-0.844,0.624-1.488,1.448-1.94S121.224,186.516,122,186.844z M119.916,188.856
		c-0.084,0.212-0.072,0.528,0.028,0.956c0.104,0.428,0.428,1.144,0.976,2.14s0.992,1.672,1.332,2.032
		c0.264,0.28,0.508,0.436,0.732,0.48c0.224,0.04,0.436,0.008,0.632-0.1c0.196-0.108,0.34-0.264,0.424-0.472
		c0.084-0.208,0.076-0.524-0.028-0.952s-0.428-1.14-0.976-2.14c-0.548-0.996-0.992-1.676-1.336-2.036
		c-0.264-0.28-0.508-0.436-0.732-0.48c-0.224-0.04-0.432-0.008-0.632,0.1C120.14,188.488,120,188.648,119.916,188.856z"/>
	<path style="fill:#F5EA07;" d="M115.392,190.464c0.944,0.4,1.852,1.4,2.728,3c0.896,1.632,1.264,2.904,1.104,3.816
		c-0.16,0.916-0.652,1.596-1.48,2.052c-0.824,0.452-1.624,0.512-2.404,0.188c-0.944-0.4-1.856-1.404-2.736-3.012
		c-0.884-1.612-1.24-2.92-1.068-3.92c0.14-0.844,0.624-1.488,1.448-1.94C113.812,190.196,114.616,190.136,115.392,190.464z
		 M113.308,192.476c-0.084,0.212-0.072,0.528,0.028,0.956c0.104,0.428,0.428,1.144,0.976,2.14s0.992,1.672,1.332,2.032
		c0.264,0.28,0.508,0.436,0.732,0.48c0.224,0.04,0.436,0.008,0.632-0.1c0.196-0.108,0.34-0.264,0.424-0.472
		c0.084-0.208,0.076-0.524-0.028-0.952s-0.428-1.14-0.976-2.14c-0.548-0.996-0.992-1.676-1.336-2.036
		c-0.264-0.28-0.508-0.436-0.732-0.48c-0.224-0.04-0.432-0.008-0.632,0.1C113.532,192.108,113.392,192.268,113.308,192.476z"/>
	<path style="fill:#F5EA07;" d="M108.784,194.084c0.944,0.4,1.852,1.4,2.728,3c0.896,1.632,1.264,2.904,1.104,3.816
		c-0.156,0.916-0.652,1.596-1.48,2.052c-0.824,0.452-1.624,0.512-2.404,0.188c-0.944-0.4-1.856-1.404-2.736-3.012
		c-0.884-1.612-1.24-2.92-1.068-3.92c0.14-0.844,0.624-1.488,1.448-1.94C107.204,193.82,108.008,193.756,108.784,194.084z
		 M106.7,196.096c-0.084,0.212-0.072,0.528,0.028,0.956c0.104,0.428,0.428,1.144,0.976,2.14s0.992,1.672,1.332,2.032
		c0.264,0.28,0.508,0.436,0.732,0.48c0.224,0.04,0.436,0.008,0.632-0.1c0.196-0.108,0.34-0.264,0.424-0.472
		c0.084-0.208,0.076-0.524-0.028-0.952s-0.428-1.14-0.976-2.14c-0.548-1-0.992-1.68-1.336-2.04c-0.264-0.28-0.508-0.436-0.732-0.48
		c-0.224-0.04-0.432-0.008-0.632,0.1C106.928,195.728,106.784,195.888,106.7,196.096z"/>
</g>
<path style="fill:#FDFEFF;" d="M131.04,160.824L330.804,272.82l-4.84,9.532l-44.848-19.636c-5.748-2.516-12.036-3.56-18.292-3.032
	l-21.1,1.78l-109.756-84.868c-4.032-3.116-5.104-8.752-2.496-13.128L131.04,160.824z"/>
<g>
	<path style="fill:#4D5BA5;" d="M394.76,270.292c-45.68-2.528-95.004-21.432-104.3-29.372c0,0-5.712-3.86-5.94,0
		c0,0-0.084,10.52-4.164,23.256c0,0-2.68,8.044,8.272,9.612c0,0,12.336,4.32,38.756,24.848l50.324,37.804
		c0,0,4.024,2.716,3.98,5.684c0,0-0.212,3.62,10.024,9.936c5.052,2.856,9.348,6.7,12.468,2.864c0,0,4.228-1.816,6.392,0.552
		c0,0,22.212,7,35.836-10.016C470.928,316.912,447.72,270.996,394.76,270.292z M430.312,336.996c0,0-22.528,9.256-45.448-22.732
		c0,0-11.304-16.964,6.144-24.78c0,0,24.468-11.632,45.192,16.272C436.2,305.752,447.516,326.092,430.312,336.996z"/>
	<path style="fill:#4D5BA5;" d="M353.476,439.288c16.288-14.48,8.156-36.304,8.156-36.304c-2.476-2.04-0.88-6.356-0.88-6.356
		c3.096-2.796,0.276-6.36,0.276-6.36c-2.356-3.708-9.804-15.936-14.216-15.444c-2.964,0.196-5.88-3.68-5.88-3.68
		c-39.236-46.976-61.704-72.396-67.164-85.732c-2.132-10.856-10.028-7.764-10.028-7.764c-12.512,4.728-23.012,5.356-23.012,5.356
		c-3.844,0.428,0.308,5.932,0.308,5.932c7.588,8.008,29.604,55.056,34.708,102.648c2.5,38.492,27.776,52.456,27.776,52.456
		C331.64,460.092,353.476,439.288,353.476,439.288z M313.292,431.148c-28.936-19.26-18.58-44.296-18.58-44.296
		c6.908-17.828,24.432-7.416,24.432-7.416c33.128,21.24,25.044,44.216,25.044,44.216C334.188,441.4,313.292,431.148,313.292,431.148
		z"/>
</g>
<circle style="fill:#D2D2D4;" cx="236.28" cy="236.44" r="4.968"/>
<g>
</g>
<g>
</g>
<g>
</g>
<g>
</g>
<g>
</g>
<g>
</g>
<g>
</g>
<g>
</g>
<g>
</g>
<g>
</g>
<g>
</g>
<g>
</g>
<g>
</g>
<g>
</g>
<g>
</g>
</svg>
