<?xml version="1.0" encoding="iso-8859-1"?>
<!-- Generator: Adobe Illustrator 19.0.0, SVG Export Plug-In . SVG Version: 6.00 Build 0)  -->
<svg version="1.1" id="Capa_1" xmlns="http://www.w3.org/2000/svg" xmlns:xlink="http://www.w3.org/1999/xlink" x="0px" y="0px"
	 viewBox="0 0 512 512" style="enable-background:new 0 0 512 512;" xml:space="preserve">
<circle style="fill:#F5EA07;" cx="256" cy="256" r="256"/>
<path style="fill:#656D7A;" d="M365.288,69.6C290.8,51.74,217.812,51.264,146.44,69.408c-8.592,2.184-14.612,9.912-14.612,18.776
	v335.38c0,8.968,6.164,16.748,14.884,18.84c74.488,17.86,147.476,18.336,218.848,0.188c8.592-2.184,14.612-9.912,14.612-18.776
	V88.44C380.172,79.472,374.008,71.688,365.288,69.6z"/>
<rect x="154.416" y="95.652" style="fill:#70B1E1;" width="203.172" height="299.824"/>
<g>
	<path style="fill:#4D535F;" d="M271.812,421.544c0,8.74-7.068,15.808-15.844,15.808c-8.74,0-15.84-7.072-15.84-15.808
		c0-8.772,7.104-15.844,15.84-15.844C264.744,405.7,271.812,412.772,271.812,421.544z"/>
	<path style="fill:#4D535F;" d="M282.508,84.532h-25.18c-1.732,0-3.136-1.404-3.136-3.136V80.92c0-1.732,1.404-3.136,3.136-3.136
		h25.18c1.732,0,3.136,1.404,3.136,3.136v0.476C285.648,83.128,284.24,84.532,282.508,84.532z"/>
	<path style="fill:#4D535F;" d="M245.696,84.532h-9.436c-1.732,0-3.136-1.404-3.136-3.136V80.92c0-1.732,1.404-3.136,3.136-3.136
		h9.436c1.732,0,3.136,1.404,3.136,3.136v0.476C248.836,83.128,247.432,84.532,245.696,84.532z"/>
	<circle style="fill:#4D535F;" cx="187.004" cy="81.156" r="3.376"/>
</g>
<path style="fill:#4D5BA5;" d="M330.664,323.064H226.472c-2.772,0-5.016,2.248-5.016,5.016s2.248,5.016,5.016,5.016h104.192
	c2.772,0,5.016-2.248,5.016-5.016S333.436,323.064,330.664,323.064z"/>
<path style="fill:#E8E7E8;" d="M281.948,118.052V256.04c0,7.104-5.772,12.876-12.876,12.876h-79.876
	c-7.104,0-12.876-5.772-12.876-12.876V118.052l6.44,6.436l6.124-6.164l6.124,6.164l6.124-6.164l6.164,6.164l6.124-6.164l6.124,6.164
	l6.124-6.164l6.164,6.164l6.124-6.164l13.024,6.164l6.124-6.164l6.164,6.164l6.124-6.164l6.124,6.164L281.948,118.052z"/>
<path style="fill:#D2D2D4;" d="M214.956,191.86c-7.116,0-12.884,5.768-12.884,12.884v51.284c0,7.112-5.756,12.884-12.884,12.884
	h114.356c7.116,0,12.884-5.768,12.884-12.884V191.86H214.956z"/>
<path style="fill:#FDFEFF;" d="M227.832,204.74v123.48h101.476V204.74c0-7.116-5.768-12.884-12.884-12.884H214.948
	C222.076,191.856,227.832,197.628,227.832,204.74z"/>
<g>
	<rect x="237.28" y="219.716" style="fill:#D2D2D4;" width="82.564" height="5.68"/>
	<rect x="237.28" y="233.36" style="fill:#D2D2D4;" width="82.564" height="5.68"/>
	<rect x="237.28" y="247.028" style="fill:#D2D2D4;" width="56.78" height="5.68"/>
	<rect x="237.28" y="273" style="fill:#D2D2D4;" width="82.564" height="5.68"/>
	<rect x="237.28" y="286.8" style="fill:#D2D2D4;" width="82.564" height="5.68"/>
	<rect x="237.28" y="300.6" style="fill:#D2D2D4;" width="48.08" height="5.68"/>
</g>
<path style="fill:#4D5BA5;" d="M333.724,364.344H178.28c-2.896,0-5.24,2.348-5.24,5.24c0,2.896,2.344,5.24,5.24,5.24h155.444
	c2.896,0,5.24-2.348,5.24-5.24C338.964,366.688,336.616,364.344,333.724,364.344z"/>
<g>
</g>
<g>
</g>
<g>
</g>
<g>
</g>
<g>
</g>
<g>
</g>
<g>
</g>
<g>
</g>
<g>
</g>
<g>
</g>
<g>
</g>
<g>
</g>
<g>
</g>
<g>
</g>
<g>
</g>
</svg>
