<?xml version="1.0" encoding="iso-8859-1"?>
<!-- Generator: Adobe Illustrator 19.0.0, SVG Export Plug-In . SVG Version: 6.00 Build 0)  -->
<svg version="1.1" id="Capa_1" xmlns="http://www.w3.org/2000/svg" xmlns:xlink="http://www.w3.org/1999/xlink" x="0px" y="0px"
	 viewBox="0 0 512 512" style="enable-background:new 0 0 512 512;" xml:space="preserve">
<circle style="fill:#6FB1E1;" cx="256" cy="256" r="256"/>
<path style="fill:#E8BB20;" d="M323.62,405.448c0,21.652-29.372,39.204-65.608,39.204s-65.608-17.552-65.608-39.204v-15.512h131.212
	v15.512H323.62z"/>
<ellipse style="fill:#F5EA07;" cx="258" cy="389.92" rx="65.608" ry="39.204"/>
<path style="fill:#E8BB20;" d="M323.62,380.448c0,21.652-29.372,39.204-65.608,39.204s-65.608-17.552-65.608-39.204v-15.512h131.212
	v15.512H323.62z"/>
<ellipse style="fill:#F5EA07;" cx="258" cy="364.92" rx="65.608" ry="39.204"/>
<path style="fill:#E8BB20;" d="M323.62,355.448c0,21.652-29.372,39.204-65.608,39.204s-65.608-17.552-65.608-39.204v-15.512h131.212
	v15.512H323.62z"/>
<ellipse style="fill:#F5EA07;" cx="258" cy="339.94" rx="65.608" ry="39.204"/>
<path style="fill:#E8BB20;" d="M323.62,330.452c0,21.652-29.372,39.204-65.608,39.204s-65.608-17.552-65.608-39.204V314.94h131.212
	v15.512H323.62z"/>
<ellipse style="fill:#F5EA07;" cx="258" cy="314.92" rx="65.608" ry="39.204"/>
<path style="fill:#E8BB20;" d="M323.62,305.452c0,21.652-29.372,39.204-65.608,39.204s-65.608-17.552-65.608-39.204V289.94h131.212
	v15.512H323.62z"/>
<ellipse style="fill:#F5EA07;" cx="258" cy="289.96" rx="65.608" ry="39.204"/>
<g>
	<path style="fill:#E8BB20;" d="M258.012,320.98c-30.996,0-56.22-13.924-56.22-31.036s25.22-31.036,56.22-31.036
		s56.22,13.924,56.22,31.036S289.008,320.98,258.012,320.98z M258.012,264.38c-25.532,0-46.304,11.468-46.304,25.564
		s20.772,25.564,46.304,25.564s46.304-11.468,46.304-25.564S283.544,264.38,258.012,264.38z"/>
	<path style="fill:#E8BB20;" d="M275.26,292.02c-1.56-1.368-3.66-2.268-6.296-2.7c0.732-0.248,1.236-0.424,1.52-0.532
		s0.812-0.376,1.58-0.808c2.108-1.232,3.164-3.108,3.164-5.632c0-2.092-0.972-3.972-2.92-5.632c-1.016-0.892-2.564-1.6-4.656-2.124
		c-1.856-0.464-4.04-0.712-6.52-0.764v-2.652h-3.692v2.632h-4.04v-2.632h-3.692v2.632h-6.056v32.268h6.056v2.632h3.692v-2.632h4.04
		v2.632h3.692v-2.632h1.136c5.8,0,9.896-1,12.288-3c2.028-1.724,3.04-3.708,3.04-5.956
		C277.604,295.092,276.824,293.392,275.26,292.02z M267.748,283.18c0,2.676-2.596,4.016-7.788,4.016h-9.124v-8.356h9.188
		c2.636,0,4.584,0.34,5.84,1.016C267.12,280.532,267.748,281.64,267.748,283.18z M268.144,300.1c-1.4,0.632-3.416,0.948-6.052,0.948
		h-11.256v-8.816h10.344c6.044,0,9.064,1.432,9.064,4.292C270.244,298.276,269.544,299.468,268.144,300.1z"/>
	<path style="fill:#E8BB20;" d="M471.872,405.448c0,21.652-29.372,39.204-65.608,39.204s-65.608-17.552-65.608-39.204v-15.512
		h131.212v15.512H471.872z"/>
</g>
<ellipse style="fill:#F5EA07;" cx="406.28" cy="389.92" rx="65.608" ry="39.204"/>
<path style="fill:#E8BB20;" d="M471.872,380.448c0,21.652-29.372,39.204-65.608,39.204s-65.608-17.552-65.608-39.204v-15.512
	h131.212v15.512H471.872z"/>
<ellipse style="fill:#F5EA07;" cx="406.28" cy="364.92" rx="65.608" ry="39.204"/>
<path style="fill:#E8BB20;" d="M471.872,355.448c0,21.652-29.372,39.204-65.608,39.204s-65.608-17.552-65.608-39.204v-15.512
	h131.212v15.512H471.872z"/>
<ellipse style="fill:#F5EA07;" cx="406.28" cy="339.94" rx="65.608" ry="39.204"/>
<path style="fill:#E8BB20;" d="M471.872,330.452c0,21.652-29.372,39.204-65.608,39.204s-65.608-17.552-65.608-39.204V314.94h131.212
	v15.512H471.872z"/>
<ellipse style="fill:#F5EA07;" cx="406.28" cy="314.92" rx="65.608" ry="39.204"/>
<path style="fill:#E8BB20;" d="M471.872,305.452c0,21.652-29.372,39.204-65.608,39.204s-65.608-17.552-65.608-39.204V289.94h131.212
	v15.512H471.872z"/>
<ellipse style="fill:#F5EA07;" cx="406.28" cy="289.96" rx="65.608" ry="39.204"/>
<path style="fill:#E8BB20;" d="M471.872,280.456c0,21.652-29.372,39.204-65.608,39.204s-65.608-17.552-65.608-39.204v-15.512
	h131.212v15.512H471.872z"/>
<ellipse style="fill:#F5EA07;" cx="406.28" cy="264.96" rx="65.608" ry="39.204"/>
<path style="fill:#E8BB20;" d="M471.872,255.456c0,21.652-29.372,39.204-65.608,39.204s-65.608-17.552-65.608-39.204v-15.512
	h131.212v15.512H471.872z"/>
<ellipse style="fill:#F5EA07;" cx="406.28" cy="239.948" rx="65.608" ry="39.204"/>
<path style="fill:#E8BB20;" d="M471.872,230.46c0,21.652-29.372,39.204-65.608,39.204s-65.608-17.552-65.608-39.204v-15.512h131.212
	v15.512H471.872z"/>
<ellipse style="fill:#F5EA07;" cx="406.28" cy="214.948" rx="65.608" ry="39.204"/>
<g>
	<path style="fill:#E8BB20;" d="M406.26,245.984c-30.996,0-56.22-13.924-56.22-31.036s25.22-31.036,56.22-31.036
		s56.22,13.924,56.22,31.036S437.26,245.984,406.26,245.984z M406.26,189.384c-25.532,0-46.304,11.468-46.304,25.564
		s20.772,25.564,46.304,25.564s46.304-11.468,46.304-25.564S431.796,189.384,406.26,189.384z"/>
	<path style="fill:#E8BB20;" d="M423.512,217.024c-1.56-1.368-3.66-2.268-6.296-2.7c0.732-0.248,1.236-0.424,1.52-0.532
		s0.812-0.376,1.58-0.808c2.108-1.232,3.164-3.108,3.164-5.632c0-2.092-0.972-3.972-2.92-5.632c-1.016-0.892-2.564-1.6-4.656-2.124
		c-1.856-0.464-4.04-0.712-6.52-0.764v-2.652h-3.692v2.632h-4.04v-2.632h-3.692v2.632h-6.056v32.268h6.056v2.632h3.692v-2.632h4.04
		v2.632h3.692v-2.632h1.136c5.8,0,9.896-1,12.288-3c2.028-1.724,3.04-3.708,3.04-5.956
		C425.852,220.096,425.072,218.396,423.512,217.024z M416,208.184c0,2.676-2.596,4.016-7.788,4.016h-9.124v-8.356h9.188
		c2.636,0,4.584,0.34,5.84,1.016C415.368,205.54,416,206.648,416,208.184z M416.392,225.104c-1.4,0.632-3.416,0.948-6.052,0.948
		h-11.256v-8.816h10.344c6.044,0,9.064,1.432,9.064,4.292C418.492,223.28,417.792,224.472,416.392,225.104z"/>
	<path style="fill:#E8BB20;" d="M171.344,405.448c0,21.652-29.372,39.204-65.608,39.204S40.128,427.1,40.128,405.448v-15.512H171.34
		v15.512H171.344z"/>
</g>
<ellipse style="fill:#F5EA07;" cx="105.736" cy="389.92" rx="65.608" ry="39.204"/>
<path style="fill:#E8BB20;" d="M171.344,380.448c0,21.652-29.372,39.204-65.608,39.204S40.128,402.1,40.128,380.448v-15.512H171.34
	v15.512H171.344z"/>
<ellipse style="fill:#F5EA07;" cx="105.736" cy="364.92" rx="65.608" ry="39.204"/>
<path style="fill:#E8BB20;" d="M171.344,355.448c0,21.652-29.372,39.204-65.608,39.204S40.128,377.1,40.128,355.448v-15.512H171.34
	v15.512H171.344z"/>
<ellipse style="fill:#F5EA07;" cx="105.736" cy="339.94" rx="65.608" ry="39.204"/>
<g>
	<path style="fill:#E8BB20;" d="M105.736,370.976c-30.996,0-56.22-13.924-56.22-31.036s25.22-31.036,56.22-31.036
		s56.22,13.924,56.22,31.036S136.732,370.976,105.736,370.976z M105.736,314.376c-25.532,0-46.304,11.468-46.304,25.564
		s20.772,25.564,46.304,25.564s46.304-11.468,46.304-25.564S131.268,314.376,105.736,314.376z"/>
	<path style="fill:#E8BB20;" d="M122.984,342.016c-1.56-1.368-3.66-2.268-6.296-2.7c0.732-0.248,1.236-0.424,1.52-0.532
		s0.812-0.376,1.58-0.808c2.108-1.232,3.164-3.108,3.164-5.632c0-2.092-0.972-3.972-2.92-5.632c-1.016-0.892-2.564-1.6-4.656-2.124
		c-1.856-0.464-4.04-0.712-6.52-0.764v-2.652h-3.692v2.632h-4.04v-2.632h-3.692v2.632h-6.056v32.268h6.056v2.632h3.692v-2.632h4.04
		v2.632h3.692v-2.632h1.136c5.8,0,9.896-1,12.288-3c2.028-1.724,3.04-3.708,3.04-5.956
		C125.328,345.088,124.548,343.388,122.984,342.016z M115.472,333.176c0,2.676-2.596,4.016-7.788,4.016H98.56v-8.356h9.188
		c2.636,0,4.584,0.34,5.84,1.016C114.844,330.528,115.472,331.636,115.472,333.176z M115.868,350.096
		c-1.4,0.632-3.416,0.948-6.052,0.948H98.56v-8.816h10.344c6.044,0,9.064,1.432,9.064,4.292
		C117.968,348.272,117.268,349.464,115.868,350.096z"/>
</g>
<g>
	<path style="fill:#F1592F;" d="M99.188,269.78c-3.604-3.604-3.604-9.448,0-13.052l63.384-63.384
		c15.724-15.728,41.184-15.728,56.908,0l16.204,16.204c8.492,8.492,22.312,8.492,30.808,0l95.232-95.232
		c8.616-8.624,21.684,4.42,13.052,13.052L279.544,222.6c-15.688,15.688-41.22,15.692-56.908,0l-16.204-16.208
		c-8.492-8.488-22.312-8.488-30.808,0L112.24,269.78C108.636,273.384,102.792,273.384,99.188,269.78z"/>
	<path style="fill:#F1592F;" d="M386.572,96.488l-63.152,9.184c-3.316,0.48-4.66,4.536-2.292,6.908l53.972,53.972
		c2.368,2.368,6.424,1.024,6.908-2.292l9.184-63.152C391.576,98.408,389.264,96.096,386.572,96.488z"/>
</g>
<g>
</g>
<g>
</g>
<g>
</g>
<g>
</g>
<g>
</g>
<g>
</g>
<g>
</g>
<g>
</g>
<g>
</g>
<g>
</g>
<g>
</g>
<g>
</g>
<g>
</g>
<g>
</g>
<g>
</g>
</svg>
