<?xml version="1.0" encoding="iso-8859-1"?>
<!-- Generator: Adobe Illustrator 19.0.0, SVG Export Plug-In . SVG Version: 6.00 Build 0)  -->
<svg version="1.1" id="Capa_1" xmlns="http://www.w3.org/2000/svg" xmlns:xlink="http://www.w3.org/1999/xlink" x="0px" y="0px"
	 viewBox="0 0 512 512" style="enable-background:new 0 0 512 512;" xml:space="preserve">
<circle style="fill:#FDFEFF;" cx="256" cy="256" r="256"/>
<path style="fill:#7EC359;" d="M187.748,87.796c-49.412,0-89.464,40.056-89.464,89.464c0,49.412,40.056,89.464,89.464,89.464
	c24.704,0,47.072-10.012,63.26-26.204l-63.26-63.26V87.796z"/>
<path style="fill:#70B1E1;" d="M251.008,114c-16.192-16.192-38.556-26.204-63.26-26.204v89.464L251.008,114z"/>
<path style="fill:#E8E7E8;" d="M251.008,114l-63.26,63.26l63.26,63.26c16.188-16.188,26.204-38.556,26.204-63.26
	S267.2,130.188,251.008,114z"/>
<path style="fill:#F1592F;" d="M343.356,198.004v-41.488l-24.696-2.708c-1.356-7.464-3.272-14.672-5.828-21.652l20.016-14.724
	l-20.732-35.916l-22.776,10.02c-4.804-5.728-10.096-11.044-15.848-15.824l10.02-22.804l-35.916-20.732l-14.724,20.04
	c-6.952-2.556-14.188-4.472-21.652-5.804l-2.74-24.744h-41.464l-2.736,24.744c-7.44,1.328-14.7,3.248-21.652,5.804l-14.724-20.04
	L91.988,52.908l10.02,22.804c-5.752,4.78-11.044,10.096-15.848,15.824l-22.776-10.02l-20.732,35.916l20.016,14.724
	c-2.556,6.98-4.472,14.188-5.828,21.652l-24.696,2.708v41.488l24.696,2.708c1.356,7.464,3.272,14.724,5.828,21.676l-20.016,14.724
	l20.732,35.892l22.776-9.968c4.832,5.7,10.148,11.016,15.848,15.824l-10.02,22.776l35.916,20.732l14.724-20.016
	c6.952,2.532,14.212,4.472,21.652,5.804l2.736,24.696h41.464l2.736-24.696c7.464-1.328,14.7-3.272,21.652-5.804l14.724,20.016
	l35.916-20.732l-9.996-22.776c5.728-4.804,11.02-10.124,15.824-15.824l22.776,9.968l20.732-35.892l-20.016-14.724
	c2.556-6.952,4.472-14.212,5.828-21.676L343.356,198.004z M187.748,266.96c-49.552,0-89.712-40.136-89.712-89.688
	s40.16-89.736,89.712-89.736s89.688,40.184,89.688,89.736S237.3,266.96,187.748,266.96z"/>
<circle style="fill:#353944;" cx="108.8" cy="457.6" r="32.748"/>
<circle style="fill:#656D7A;" cx="108.8" cy="457.6" r="18.928"/>
<path style="fill:#4D535F;" d="M108.3,469.484L108.3,469.484c-5.492,0-10.296-3.696-11.704-9.004l-12.384-46.688h30.22l5.86,41.908
	C121.312,462.98,115.652,469.484,108.3,469.484z"/>
<circle style="fill:#353944;" cx="348.28" cy="457.6" r="32.748"/>
<circle style="fill:#656D7A;" cx="348.28" cy="457.6" r="18.928"/>
<path style="fill:#4D535F;" d="M347.776,469.484L347.776,469.484c-5.492,0-10.296-3.696-11.704-9.004l-12.384-46.688h30.22
	l5.86,41.908C360.788,462.98,355.132,469.484,347.776,469.484z"/>
<g>
	<path style="fill:#656D7A;" d="M362.26,343.616H63.372c-2.408,0-4.524-1.6-5.18-3.92L18.34,198.556
		c-0.412-1.464-0.188-3.036,0.624-4.328c0.812-1.288,2.128-2.176,3.628-2.436l354.972-62.032c1.64-0.288,3.32,0.204,4.548,1.324
		c1.232,1.12,1.872,2.748,1.74,4.408l-16.228,203.176C367.404,341.46,365.068,343.616,362.26,343.616z M67.444,332.852h289.848
		l15.28-191.296L30.316,201.368L67.444,332.852z"/>
	<path style="fill:#656D7A;" d="M34.68,242.028c-2.72,0-5.056-2.056-5.344-4.82c-0.312-2.956,1.832-5.604,4.788-5.916l338.532-35.6
		c2.956-0.308,5.604,1.832,5.916,4.788c0.312,2.956-1.832,5.604-4.788,5.916L35.248,242C35.06,242.02,34.868,242.028,34.68,242.028z
		"/>
	<path style="fill:#656D7A;" d="M52.476,299.952c-2.784,0-5.14-2.144-5.36-4.964c-0.232-2.964,1.984-5.552,4.948-5.784
		L367.292,264.7c2.968-0.228,5.552,1.984,5.784,4.948s-1.984,5.552-4.948,5.784L52.9,299.936
		C52.756,299.944,52.616,299.952,52.476,299.952z"/>
	<path style="fill:#656D7A;" d="M103.504,343.616c-2.564,0-4.832-1.836-5.292-4.448l-26.564-150.48
		c-0.516-2.928,1.436-5.72,4.364-6.236c2.924-0.516,5.72,1.436,6.236,4.364l26.564,150.48c0.516,2.928-1.436,5.72-4.364,6.236
		C104.132,343.592,103.816,343.616,103.504,343.616z"/>
	<path style="fill:#656D7A;" d="M142.144,343.616c-2.564,0-4.832-1.836-5.292-4.448l-27.72-157.032
		c-0.516-2.928,1.436-5.72,4.364-6.236c2.924-0.516,5.72,1.436,6.236,4.364l27.72,157.032c0.516,2.928-1.436,5.72-4.364,6.236
		C142.768,343.592,142.456,343.616,142.144,343.616z"/>
	<path style="fill:#656D7A;" d="M177.904,343.616c-2.68,0-5-1.996-5.336-4.724l-20.244-164.584c-0.364-2.952,1.736-5.636,4.684-6
		c2.948-0.368,5.636,1.736,6,4.684l20.244,164.584c0.364,2.952-1.736,5.636-4.684,6C178.344,343.604,178.12,343.616,177.904,343.616
		z"/>
	<path style="fill:#656D7A;" d="M212.076,343.616c-2.816,0-5.18-2.188-5.364-5.036l-11.08-172.16
		c-0.192-2.964,2.06-5.524,5.024-5.716c2.968-0.184,5.524,2.06,5.716,5.024l11.08,172.16c0.192,2.964-2.06,5.524-5.024,5.716
		C212.312,343.612,212.192,343.616,212.076,343.616z"/>
	<path style="fill:#656D7A;" d="M243.776,343.616c-2.972,0-5.38-2.408-5.38-5.38V158.6c0-2.972,2.408-5.38,5.38-5.38
		s5.38,2.408,5.38,5.38v179.636C249.16,341.208,246.748,343.616,243.776,343.616z"/>
	<path style="fill:#656D7A;" d="M283.656,343.616c-2.972,0-5.38-2.408-5.38-5.38V151.632c0-2.972,2.408-5.38,5.38-5.38
		s5.38,2.408,5.38,5.38v186.604C289.036,341.208,286.628,343.616,283.656,343.616z"/>
	<path style="fill:#656D7A;" d="M318.664,343.616c-0.076,0-0.152,0-0.228-0.004c-2.968-0.124-5.276-2.632-5.152-5.604l8.14-194.144
		c0.124-2.968,2.628-5.284,5.604-5.152c2.968,0.124,5.276,2.632,5.152,5.604l-8.14,194.144
		C323.912,341.352,321.532,343.616,318.664,343.616z"/>
	<path style="fill:#656D7A;" d="M370.564,419.168h-296.4c-2.972,0-5.38-2.408-5.38-5.38c0-2.972,2.408-5.38,5.38-5.38H364.56
		l-7.648-69.584c-0.036-0.336-0.044-0.676-0.016-1.016L375.092,110c1.732-21.668,16.24-39.912,36.964-46.476l68.968-21.84
		c2.832-0.896,5.86,0.672,6.756,3.504c0.896,2.832-0.672,5.86-3.504,6.756l-68.968,21.84c-16.532,5.236-28.104,19.788-29.484,37.072
		l-18.156,227.296l8.248,75.044c0.168,1.52-0.32,3.04-1.34,4.18C373.552,418.52,372.092,419.168,370.564,419.168z"/>
</g>
<path style="fill:#F1592F;" d="M398.936,87.584c-4.62,0-8.948-2.876-10.572-7.484c-2.06-5.84,1-12.244,6.84-14.304l83.712-29.552
	c5.84-2.064,12.244,1,14.304,6.84s-1,12.244-6.84,14.304L402.668,86.94C401.432,87.38,400.172,87.584,398.936,87.584z"/>
<g>
</g>
<g>
</g>
<g>
</g>
<g>
</g>
<g>
</g>
<g>
</g>
<g>
</g>
<g>
</g>
<g>
</g>
<g>
</g>
<g>
</g>
<g>
</g>
<g>
</g>
<g>
</g>
<g>
</g>
</svg>
