<?xml version="1.0" encoding="iso-8859-1"?>
<!-- Generator: Adobe Illustrator 19.0.0, SVG Export Plug-In . SVG Version: 6.00 Build 0)  -->
<svg version="1.1" id="Capa_1" xmlns="http://www.w3.org/2000/svg" xmlns:xlink="http://www.w3.org/1999/xlink" x="0px" y="0px"
	 viewBox="0 0 512 512" style="enable-background:new 0 0 512 512;" xml:space="preserve">
<circle style="fill:#70B1E1;" cx="256" cy="256" r="256"/>
<path style="fill:#353944;" d="M379.192,229.24H132.808v-117.4c0-29.1,23.676-52.78,52.78-52.78H326.42
	c29.1,0,52.776,23.676,52.776,52.78v117.4H379.192z M170.188,191.86h171.624v-80.02c0-8.492-6.908-15.4-15.396-15.4H185.584
	c-8.492,0-15.4,6.904-15.4,15.4v80.02H170.188z"/>
<path style="fill:#4D535F;" d="M171.24,452.94h169.54c18.884,0,37.032-8.064,49.16-22.54c27.36-32.652,43.008-75.452,40.464-121.936
	c-4.884-89.256-77.932-161.148-167.252-164.712c-99.728-3.984-181.828,75.684-181.828,174.528c0,42.048,14.86,80.624,39.612,110.768
	C133.316,444.124,151.736,452.94,171.24,452.94z"/>
<path style="fill:#656D7A;" d="M113.872,318.28c-4.296-42.86,10.024-73.788,37.364-104.764
	c31.172-27.836,62.292-41.748,104.764-37.364c-15.844,3.22-29.844,3.064-65.176,21.932c-23.852,16.004-33.356,22.608-55.032,55.012
	C116.784,288.916,117.24,301.764,113.872,318.28z"/>
<path style="fill:#F5EA07;" d="M316.16,234.904c-34.656-28.412-85.668-28.412-120.324,0c-46.832,38.392-46.832,109.432,0,147.824
	c34.656,28.412,85.668,28.412,120.324,0C362.996,344.336,362.996,273.296,316.16,234.904z"/>
<g>
	<path style="fill:#E8BB20;" d="M255.996,388.988c44.288,0.008,80.188-35.888,80.176-80.176c0-44.28-35.896-80.176-80.176-80.176
		s-80.176,35.9-80.18,80.176C175.82,353.092,211.716,388.988,255.996,388.988z M184.26,308.812
		c-0.008-39.624,32.116-71.748,71.74-71.736c39.632,0,71.748,32.116,71.748,71.748c0,39.612-32.124,71.736-71.736,71.736
		C216.376,380.56,184.26,348.444,184.26,308.812z"/>
	<path style="fill:#E8BB20;" d="M253.18,354.82v-8.1c-10.136-1.036-19.236-5.068-27.3-12.096l8.104-9.656
		c6.216,5.4,12.616,8.62,19.2,9.656v-21.532c-8.36-2-14.484-4.624-18.368-7.88s-5.828-8.084-5.828-14.484
		c0-6.4,2.236-11.636,6.712-15.704c4.476-4.068,10.304-6.288,17.48-6.66v-5.548h7.104v5.66c8.14,0.592,15.832,3.368,23.084,8.324
		l-7.212,10.212c-4.884-3.476-10.176-5.624-15.872-6.436v20.864h0.332c8.508,1.996,14.76,4.7,18.756,8.104s5.996,8.344,5.996,14.816
		c0,6.476-2.296,11.748-6.884,15.816c-4.588,4.072-10.656,6.288-18.2,6.66v7.992h-7.104V354.82z M245.36,283.18
		c-1.888,1.664-2.832,3.736-2.832,6.216s0.74,4.44,2.22,5.884s4.292,2.828,8.436,4.164v-19.2
		C249.852,280.532,247.244,281.516,245.36,283.18z M268.72,331.848c2.068-1.7,3.108-3.848,3.108-6.436s-0.816-4.644-2.444-6.16
		s-4.66-2.94-9.1-4.272v19.976C263.836,334.584,266.648,333.548,268.72,331.848z"/>
</g>
<g>
</g>
<g>
</g>
<g>
</g>
<g>
</g>
<g>
</g>
<g>
</g>
<g>
</g>
<g>
</g>
<g>
</g>
<g>
</g>
<g>
</g>
<g>
</g>
<g>
</g>
<g>
</g>
<g>
</g>
</svg>
