<?xml version="1.0" encoding="iso-8859-1"?>
<!-- Generator: Adobe Illustrator 19.0.0, SVG Export Plug-In . SVG Version: 6.00 Build 0)  -->
<svg version="1.1" id="Capa_1" xmlns="http://www.w3.org/2000/svg" xmlns:xlink="http://www.w3.org/1999/xlink" x="0px" y="0px"
	 viewBox="0 0 512 512" style="enable-background:new 0 0 512 512;" xml:space="preserve">
<circle style="fill:#6FB1E1;" cx="256" cy="256" r="256"/>
<path style="fill:#E8E7E8;" d="M486.08,428.72l-0.04,8.32c-0.32,6.12-5.4,11.4-12.12,11.4H38.08c-6.72,0-11.8-5.28-12.12-11.4
	l-0.04-8.32h1.96l29.52-85.04c1.68-4.88,6.28-8.12,11.44-8.12h374.32c5.16,0,9.76,3.24,11.44,8.12l29.52,85.04H486.08z"/>
<path style="fill:#FDFEFF;" d="M485.384,425.16l-30.788-88.66c-1.692-4.876-6.288-8.144-11.452-8.144H68.852
	c-5.164,0-9.76,3.268-11.452,8.144l-30.784,88.66c-2.736,7.876,3.112,16.1,11.452,16.1h435.868
	C482.272,441.26,488.12,433.036,485.384,425.16z"/>
<path style="fill:#656D7A;" d="M439.648,63.56h-367.7c-6.696,0-12.124,5.428-12.124,12.124v240.552
	c0,6.696,5.428,12.124,12.124,12.124h367.7c6.696,0,12.124-5.428,12.124-12.124V75.68C451.772,68.988,446.344,63.56,439.648,63.56z"
	/>
<rect x="81.04" y="84.76" style="fill:#FDFEFF;" width="349.52" height="222.36"/>
<g>
	<polygon style="fill:#D2D2D4;" points="451.772,392 57.372,392 71.368,343.7 437.776,343.7 	"/>
	<polygon style="fill:#D2D2D4;" points="309.368,425.624 202.632,425.624 207.336,401.692 304.664,401.692 	"/>
</g>
<g>
	<path style="fill:#F1592F;" d="M270.024,186.116v-20.524l-11.92-1.864c-1.372-6.088-3.756-11.764-6.996-16.896l7.1-9.744
		l-14.512-14.512l-9.744,7.1c-5.104-3.24-10.804-5.624-16.896-6.996l-1.864-11.892h-20.524l-1.864,11.892
		c-6.088,1.372-11.764,3.756-16.896,7.024l-9.744-7.124l-14.512,14.512l7.124,9.744c-3.264,5.132-5.648,10.804-7.024,16.896
		l-11.896,1.864v20.524l11.896,1.864c1.348,6.088,3.756,11.792,6.996,16.896l-7.1,9.744l14.512,14.512l9.744-7.1
		c5.132,3.24,10.804,5.648,16.896,6.996l1.864,11.92h20.524l1.864-11.92c6.088-1.348,11.792-3.756,16.92-6.996l9.716,7.1
		l14.512-14.512l-7.1-9.744c3.24-5.104,5.648-10.804,6.996-16.896L270.024,186.116z M204.932,210.004
		c-18.864,0-34.152-15.288-34.152-34.152s15.288-34.152,34.152-34.152s34.152,15.288,34.152,34.152
		C239.088,194.716,223.796,210.004,204.932,210.004z"/>
	<path style="fill:#F1592F;" d="M349.448,252.448v-14.792l-8.592-1.344c-0.988-4.388-2.708-8.48-5.04-12.176l5.116-7.02
		l-10.456-10.456l-7.024,5.116c-3.68-2.336-7.788-4.052-12.176-5.044l-1.344-8.572H295.14l-1.344,8.572
		c-4.388,0.988-8.48,2.708-12.176,5.06l-7.02-5.136l-10.456,10.456l5.136,7.02c-2.352,3.696-4.072,7.788-5.06,12.176l-8.572,1.344
		v14.792l8.572,1.344c0.972,4.388,2.708,8.496,5.04,12.176l-5.116,7.02L274.6,283.44l7.02-5.116
		c3.696,2.336,7.788,4.072,12.176,5.044l1.344,8.592h14.792l1.344-8.592c4.388-0.972,8.496-2.708,12.196-5.044l7.004,5.116
		l10.456-10.456l-5.116-7.02c2.336-3.68,4.072-7.788,5.04-12.176L349.448,252.448z M302.54,269.668
		c-13.596,0-24.612-11.016-24.612-24.612c0-13.596,11.016-24.612,24.612-24.612s24.612,11.016,24.612,24.612
		C327.152,258.648,316.136,269.668,302.54,269.668z"/>
	<path style="fill:#F1592F;" d="M371.728,154.236v-14.792l-8.592-1.344c-0.988-4.388-2.708-8.48-5.04-12.176l5.116-7.02
		l-10.456-10.456l-7.024,5.116c-3.68-2.336-7.788-4.052-12.176-5.044l-1.344-8.572H317.42l-1.34,8.572
		c-4.388,0.988-8.48,2.708-12.176,5.06l-7.02-5.136L286.428,118.9l5.136,7.02c-2.352,3.696-4.072,7.788-5.06,12.176l-8.572,1.344
		v14.792l8.572,1.344c0.972,4.388,2.708,8.496,5.04,12.176l-5.116,7.02l10.456,10.456l7.02-5.116
		c3.696,2.336,7.788,4.072,12.176,5.044l1.344,8.592h14.792l1.344-8.592c4.388-0.972,8.496-2.708,12.196-5.044l7.004,5.116
		l10.456-10.456l-5.116-7.02c2.336-3.68,4.072-7.788,5.04-12.176L371.728,154.236z M324.82,171.452
		c-13.596,0-24.612-11.016-24.612-24.612s11.016-24.612,24.612-24.612s24.612,11.016,24.612,24.612
		C349.432,160.436,338.412,171.452,324.82,171.452z"/>
</g>
<g>
</g>
<g>
</g>
<g>
</g>
<g>
</g>
<g>
</g>
<g>
</g>
<g>
</g>
<g>
</g>
<g>
</g>
<g>
</g>
<g>
</g>
<g>
</g>
<g>
</g>
<g>
</g>
<g>
</g>
</svg>
