<?xml version="1.0" encoding="iso-8859-1"?>
<!-- Generator: Adobe Illustrator 19.0.0, SVG Export Plug-In . SVG Version: 6.00 Build 0)  -->
<svg version="1.1" id="Capa_1" xmlns="http://www.w3.org/2000/svg" xmlns:xlink="http://www.w3.org/1999/xlink" x="0px" y="0px"
	 viewBox="0 0 512 512" style="enable-background:new 0 0 512 512;" xml:space="preserve">
<circle style="fill:#896D61;" cx="256" cy="256" r="256"/>
<polygon style="fill:#F5EA07;" points="425.024,256 455.964,309.628 402.408,340.568 402.408,402.448 340.532,402.448 309.592,456 
	256.036,425.06 202.408,456 171.468,402.448 109.592,402.448 109.592,340.568 56.036,309.628 86.976,256 56.036,202.444 
	109.592,171.508 109.592,109.628 171.468,109.628 202.408,56 256.036,86.94 309.592,56 340.532,109.628 402.408,109.628 
	402.408,171.508 455.964,202.444 "/>
<circle style="fill:#FDFEFF;" cx="256" cy="256" r="149.52"/>
<circle style="fill:#F1592F;" cx="256" cy="256" r="123.892"/>
<path style="fill:#FDFEFF;" d="M173.304,216.776c0-13.276,2.916-23.116,8.744-29.52s13.732-9.604,23.708-9.604
	c10.312,0,18.384,3.184,24.212,9.552s8.744,16.224,8.744,29.572c0,13.276-2.916,23.116-8.744,29.52s-13.732,9.604-23.708,9.604
	c-10.312,0-18.384-3.184-24.212-9.552C176.22,239.976,173.304,230.12,173.304,216.776z M195.444,216.572
	c0,9.636,1.112,16.108,3.336,19.412c1.684,2.428,4.012,3.64,6.976,3.64c3.032,0,5.392-1.212,7.076-3.64
	c2.156-3.304,3.236-9.772,3.236-19.412c0-9.636-1.08-16.076-3.236-19.308c-1.684-2.492-4.044-3.74-7.076-3.74
	c-2.964,0-5.292,1.212-6.976,3.64C196.556,200.464,195.444,206.936,195.444,216.572z M227.388,334.048H206.36l78.956-156.396h20.42
	L227.388,334.048z M273.288,295.124c0-13.276,2.916-23.116,8.744-29.52S295.832,256,305.94,256c10.176,0,18.18,3.2,24.012,9.604
	s8.744,16.244,8.744,29.52c0,13.344-2.916,23.22-8.744,29.62s-13.732,9.604-23.708,9.604c-10.312,0-18.384-3.2-24.212-9.604
	S273.288,308.468,273.288,295.124z M295.428,295.024c0,9.636,1.112,16.076,3.336,19.308c1.684,2.492,4.012,3.74,6.976,3.74
	c3.032,0,5.36-1.212,6.976-3.64c2.224-3.304,3.336-9.772,3.336-19.412s-1.08-16.108-3.236-19.412
	c-1.684-2.428-4.044-3.64-7.076-3.64c-3.032,0-5.36,1.212-6.976,3.64C296.54,278.916,295.428,285.384,295.428,295.024z"/>
<g>
</g>
<g>
</g>
<g>
</g>
<g>
</g>
<g>
</g>
<g>
</g>
<g>
</g>
<g>
</g>
<g>
</g>
<g>
</g>
<g>
</g>
<g>
</g>
<g>
</g>
<g>
</g>
<g>
</g>
</svg>
