<?xml version="1.0" encoding="iso-8859-1"?>
<!-- Generator: Adobe Illustrator 19.0.0, SVG Export Plug-In . SVG Version: 6.00 Build 0)  -->
<svg version="1.1" id="Capa_1" xmlns="http://www.w3.org/2000/svg" xmlns:xlink="http://www.w3.org/1999/xlink" x="0px" y="0px"
	 viewBox="0 0 512 512" style="enable-background:new 0 0 512 512;" xml:space="preserve">
<circle style="fill:#D2D2D4;" cx="256" cy="256" r="256"/>
<path style="fill:#F1592F;" d="M97.4,97.384l-26.504,135.58l237.932,237.932l162.068-162.068L232.964,70.896L97.4,97.384z
	 M162.028,162.012c-8.312,8.312-21.776,8.312-30.088,0s-8.312-21.776,0-30.088c8.296-8.296,21.76-8.296,30.072,0.016
	C170.324,140.252,170.324,153.716,162.028,162.012z"/>
<rect x="175.524" y="201.543" transform="matrix(0.7071 0.7071 -0.7071 0.7071 290.4285 -120.3113)" style="fill:#FDFEFF;" width="229.838" height="177.758"/>
<g>
	<path style="fill:#F1592F;" d="M257.608,258.904c5.164-5.164,10.128-7.86,14.888-8.084s9.08,1.608,12.96,5.488
		c4.012,4.012,5.912,8.392,5.704,13.136s-2.912,9.716-8.104,14.908c-5.164,5.164-10.128,7.86-14.888,8.084
		c-4.76,0.224-9.08-1.608-12.96-5.488c-4.012-4.012-5.912-8.392-5.704-13.136C249.716,269.064,252.416,264.096,257.608,258.904z
		 M266.3,267.44c-3.748,3.748-5.836,6.7-6.256,8.852c-0.288,1.6,0.144,2.976,1.3,4.132c1.18,1.18,2.568,1.624,4.168,1.336
		c2.124-0.444,5.06-2.544,8.812-6.292s5.836-6.672,6.256-8.772c0.316-1.624-0.116-3.028-1.3-4.208
		c-1.152-1.152-2.532-1.588-4.132-1.3C273,261.604,270.052,263.692,266.3,267.44z M233.024,325.576l-8.18-8.18l91.568-30.128
		l7.944,7.944L233.024,325.576z M266.028,328.288c5.164-5.164,10.128-7.86,14.888-8.084c4.76-0.224,9.104,1.632,13.04,5.564
		c3.96,3.96,5.828,8.32,5.604,13.08s-2.916,9.724-8.084,14.888c-5.192,5.192-10.168,7.9-14.928,8.124s-9.08-1.608-12.96-5.488
		c-4.012-4.012-5.908-8.396-5.684-13.156C258.128,338.456,260.836,333.48,266.028,328.288z M274.68,336.864
		c-3.748,3.748-5.82,6.688-6.216,8.812c-0.316,1.624,0.104,3.016,1.26,4.168c1.18,1.18,2.556,1.612,4.132,1.3
		c2.152-0.42,5.1-2.504,8.852-6.256c3.748-3.748,5.848-6.688,6.292-8.812c0.288-1.6-0.156-2.988-1.336-4.168s-2.556-1.612-4.132-1.3
		C281.38,331.028,278.428,333.116,274.68,336.864z"/>
	<path style="fill:#F1592F;" d="M269.836,178.412l6.828,6.828c1.54,1.54,2.596,2.832,3.168,3.876
		c0.764,1.404,1.128,2.904,1.084,4.496c-0.044,1.592-0.452,3.18-1.232,4.764c-0.78,1.588-2.036,3.248-3.768,4.98
		c-1.524,1.524-3.024,2.648-4.508,3.372c-1.808,0.884-3.56,1.312-5.252,1.288c-1.28-0.016-2.648-0.4-4.104-1.148
		c-1.084-0.564-2.32-1.536-3.7-2.916l-7.032-7.032L269.836,178.412z M270.44,185.28l-12.26,12.26l2.788,2.788
		c1.044,1.044,1.856,1.736,2.436,2.084c0.756,0.456,1.516,0.7,2.28,0.74s1.684-0.232,2.764-0.808c1.08-0.576,2.336-1.58,3.768-3.012
		c1.432-1.432,2.404-2.656,2.916-3.672c0.512-1.02,0.756-1.968,0.732-2.852c-0.024-0.884-0.312-1.752-0.86-2.6
		c-0.404-0.64-1.368-1.72-2.892-3.244L270.44,185.28z"/>
	<path style="fill:#F1592F;" d="M269.896,215.488l18.508-18.508l3.736,3.736l-18.508,18.508L269.896,215.488z"/>
	<path style="fill:#F1592F;" d="M282.268,215.816l3.988,3.284c-1,1.44-1.452,2.78-1.356,4.02s0.712,2.432,1.848,3.568
		c1.204,1.204,2.364,1.856,3.484,1.956c1.12,0.1,2.02-0.188,2.7-0.872c0.436-0.436,0.68-0.94,0.732-1.504s-0.132-1.28-0.544-2.148
		c-0.288-0.588-1.016-1.856-2.184-3.8c-1.508-2.5-2.3-4.516-2.384-6.048c-0.116-2.156,0.556-3.964,2.02-5.428
		c0.944-0.944,2.092-1.556,3.448-1.844s2.748-0.14,4.184,0.436s2.864,1.576,4.284,3c2.324,2.324,3.564,4.58,3.716,6.772
		s-0.588,4.168-2.228,5.928l-3.9-3.572c0.792-1.112,1.132-2.136,1.024-3.08s-0.692-1.94-1.744-2.992
		c-1.084-1.084-2.16-1.712-3.22-1.88c-0.68-0.108-1.264,0.076-1.744,0.556c-0.436,0.436-0.628,0.996-0.568,1.68
		c0.076,0.868,0.808,2.424,2.196,4.672s2.288,4.036,2.7,5.364c0.412,1.328,0.468,2.64,0.164,3.928s-1.04,2.516-2.208,3.688
		c-1.06,1.06-2.348,1.76-3.864,2.096c-1.516,0.336-3.036,0.192-4.564-0.436c-1.528-0.628-3.096-1.744-4.704-3.352
		c-2.34-2.34-3.596-4.676-3.768-7.012C279.616,220.456,280.444,218.132,282.268,215.816z"/>
	<path style="fill:#F1592F;" d="M313.084,245.068l2.476,4.772c-2.576,1.464-5,2.04-7.272,1.728s-4.4-1.46-6.388-3.448
		c-2.456-2.456-3.636-5.316-3.54-8.58c0.096-3.26,1.6-6.348,4.512-9.26c3.08-3.08,6.268-4.676,9.564-4.792
		c3.296-0.112,6.24,1.124,8.832,3.716c2.264,2.264,3.432,4.772,3.508,7.524c0.052,1.632-0.456,3.4-1.516,5.304l-4.584-2.816
		c0.74-1.18,1.04-2.392,0.904-3.644c-0.14-1.248-0.704-2.372-1.696-3.364c-1.372-1.372-2.976-1.992-4.816-1.864
		s-3.86,1.3-6.064,3.504c-2.34,2.34-3.584,4.428-3.736,6.26c-0.152,1.836,0.448,3.424,1.792,4.772
		c0.992,0.992,2.164,1.532,3.508,1.616C309.912,246.592,311.42,246.112,313.084,245.068z"/>
	<path style="fill:#F1592F;" d="M321.492,248.804c1.884-1.884,3.748-3.184,5.592-3.9c1.364-0.52,2.784-0.792,4.26-0.816
		c1.476-0.02,2.828,0.22,4.06,0.724c1.64,0.664,3.216,1.752,4.72,3.256c2.728,2.728,4.064,5.756,4.008,9.084s-1.588,6.5-4.6,9.512
		c-2.988,2.988-6.136,4.512-9.448,4.576s-6.328-1.264-9.044-3.984c-2.752-2.752-4.1-5.78-4.048-9.084
		C317.048,254.876,318.548,251.752,321.492,248.804z M325.468,252.528c-2.096,2.096-3.2,4.168-3.312,6.216
		c-0.112,2.048,0.576,3.82,2.064,5.308s3.248,2.176,5.276,2.056s4.116-1.248,6.26-3.396c2.12-2.12,3.24-4.168,3.352-6.14
		c0.112-1.972-0.6-3.732-2.14-5.272c-1.54-1.54-3.308-2.252-5.308-2.14C329.664,249.28,327.6,250.4,325.468,252.528z"/>
	<path style="fill:#F1592F;" d="M351.7,260.28l3.736,3.736l-10.024,10.024c-1.592,1.592-2.576,2.668-2.956,3.232
		c-0.596,0.916-0.824,1.908-0.68,2.968s0.736,2.112,1.78,3.156c1.06,1.06,2.076,1.644,3.048,1.748
		c0.972,0.104,1.828-0.104,2.568-0.624s1.844-1.516,3.308-2.98l10.24-10.24l3.736,3.736l-9.72,9.72
		c-2.22,2.22-3.892,3.692-5.012,4.404c-1.12,0.716-2.268,1.116-3.44,1.204c-1.176,0.088-2.404-0.136-3.688-0.668
		c-1.284-0.536-2.656-1.532-4.12-3c-1.768-1.768-2.904-3.312-3.408-4.632c-0.504-1.32-0.696-2.572-0.576-3.756
		s0.456-2.216,1.004-3.1c0.816-1.304,2.26-2.992,4.332-5.064L351.7,260.28z"/>
	<path style="fill:#F1592F;" d="M351.928,297.52l18.508-18.508l3.636,3.636l-4.784,19.932l12.36-12.36l3.472,3.472L366.612,312.2
		l-3.748-3.748l4.608-19.528l-12.068,12.068L351.928,297.52z"/>
	<path style="fill:#F1592F;" d="M374.728,320.32l15.376-15.376l-5.492-5.492l3.132-3.132l14.708,14.708l-3.132,3.132l-5.48-5.48
		l-15.376,15.376L374.728,320.32z"/>
</g>
<g>
</g>
<g>
</g>
<g>
</g>
<g>
</g>
<g>
</g>
<g>
</g>
<g>
</g>
<g>
</g>
<g>
</g>
<g>
</g>
<g>
</g>
<g>
</g>
<g>
</g>
<g>
</g>
<g>
</g>
</svg>
