<?xml version="1.0" encoding="iso-8859-1"?>
<!-- Generator: Adobe Illustrator 19.0.0, SVG Export Plug-In . SVG Version: 6.00 Build 0)  -->
<svg version="1.1" id="Capa_1" xmlns="http://www.w3.org/2000/svg" xmlns:xlink="http://www.w3.org/1999/xlink" x="0px" y="0px"
	 viewBox="0 0 512 512" style="enable-background:new 0 0 512 512;" xml:space="preserve">
<circle style="fill:#EE4B68;" cx="256" cy="256" r="256"/>
<polygon style="fill:#5F87C4;" points="453.532,238.452 256.016,477.62 58.468,238.452 "/>
<g>
	<polygon style="fill:#70B1E1;" points="338.924,238.452 256.008,477.62 173.076,238.452 	"/>
	<polygon style="fill:#70B1E1;" points="147.656,130.46 58.468,238.452 453.532,238.452 364.328,130.46 	"/>
</g>
<polygon style="fill:#5F87C4;" points="210.516,130.46 173.076,238.452 338.924,238.452 301.476,130.46 "/>
<g>
	
		<rect x="168.692" y="64.781" transform="matrix(0.4393 0.8983 -0.8983 0.4393 176.4155 -136.6648)" style="fill:#FDFEFF;" width="57.998" height="16.427"/>
	
		<rect x="234.046" y="55.474" transform="matrix(0.0012 1 -1 0.0012 323.4813 -196.4945)" style="fill:#FDFEFF;" width="52.12" height="16.428"/>
	
		<rect x="293.457" y="64.677" transform="matrix(-0.4373 0.8993 -0.8993 -0.4373 529.0241 -185.2248)" style="fill:#FDFEFF;" width="58.003" height="16.428"/>
	<path style="fill:#FDFEFF;" d="M126.688,109.872c12.536,12.536,32.856,12.536,45.392,0c-12.536,12.536-12.536,32.856,0,45.392
		c-12.536-12.536-32.856-12.536-45.392,0C139.22,142.728,139.22,122.404,126.688,109.872z"/>
	<path style="fill:#FDFEFF;" d="M178.704,129.336c8.388,8.388,21.984,8.388,30.372,0c-8.388,8.388-8.388,21.984,0,30.372
		c-8.388-8.388-21.984-8.388-30.372,0C187.088,151.32,187.088,137.72,178.704,129.336z"/>
	<path style="fill:#FDFEFF;" d="M130.472,161.94c8.388,8.388,21.984,8.388,30.372,0c-8.388,8.388-8.388,21.984,0,30.372
		c-8.388-8.388-21.984-8.388-30.372,0C138.86,183.924,138.86,170.324,130.472,161.94z"/>
</g>
<g>
</g>
<g>
</g>
<g>
</g>
<g>
</g>
<g>
</g>
<g>
</g>
<g>
</g>
<g>
</g>
<g>
</g>
<g>
</g>
<g>
</g>
<g>
</g>
<g>
</g>
<g>
</g>
<g>
</g>
</svg>
