<?xml version="1.0" encoding="iso-8859-1"?>
<!-- Generator: Adobe Illustrator 19.0.0, SVG Export Plug-In . SVG Version: 6.00 Build 0)  -->
<svg version="1.1" id="Capa_1" xmlns="http://www.w3.org/2000/svg" xmlns:xlink="http://www.w3.org/1999/xlink" x="0px" y="0px"
	 viewBox="0 0 512 512" style="enable-background:new 0 0 512 512;" xml:space="preserve">
<circle style="fill:#DA8D27;" cx="256" cy="256" r="256"/>
<polygon style="fill:#FDFEFF;" points="431.88,32 431.88,480 80.12,480 80.12,119.12 167.24,32 "/>
<polygon style="fill:#E8E7E8;" points="167.24,32 167.24,119.12 80.12,119.12 "/>
<g>
	<rect x="108.32" y="168.88" style="fill:#D2D2D4;" width="295.356" height="13.296"/>
	<rect x="108.32" y="209.16" style="fill:#D2D2D4;" width="295.356" height="13.296"/>
	<rect x="108.32" y="249.48" style="fill:#D2D2D4;" width="295.356" height="13.296"/>
	<rect x="108.32" y="289.76" style="fill:#D2D2D4;" width="295.356" height="13.296"/>
	<rect x="108.32" y="330.04" style="fill:#D2D2D4;" width="111.988" height="13.296"/>
	<rect x="108.32" y="370.32" style="fill:#D2D2D4;" width="111.988" height="13.296"/>
	<rect x="108.32" y="410.6" style="fill:#D2D2D4;" width="111.988" height="13.296"/>
</g>
<g>
	<polygon style="fill:#4D5BA5;" points="367.588,446.912 352.2,439.82 340.62,452.196 330,397.968 356.968,392.684 	"/>
	<polygon style="fill:#4D5BA5;" points="295.964,446.912 311.356,439.82 322.932,452.196 333.556,397.968 306.584,392.684 	"/>
</g>
<polygon style="fill:#7EC359;" points="381.436,370.952 366.904,385.488 366.904,406.108 346.336,406.108 331.804,420.64 
	317.272,406.108 296.648,406.108 296.648,385.488 282.116,370.952 296.648,356.42 296.648,335.852 317.272,335.852 331.804,321.32 
	346.336,335.852 366.904,335.852 366.904,356.42 "/>
<circle style="fill:#FDFEFF;" cx="331.776" cy="371" r="29.632"/>
<g>
</g>
<g>
</g>
<g>
</g>
<g>
</g>
<g>
</g>
<g>
</g>
<g>
</g>
<g>
</g>
<g>
</g>
<g>
</g>
<g>
</g>
<g>
</g>
<g>
</g>
<g>
</g>
<g>
</g>
</svg>
