<?xml version="1.0" encoding="iso-8859-1"?>
<!-- Generator: Adobe Illustrator 19.0.0, SVG Export Plug-In . SVG Version: 6.00 Build 0)  -->
<svg version="1.1" id="Capa_1" xmlns="http://www.w3.org/2000/svg" xmlns:xlink="http://www.w3.org/1999/xlink" x="0px" y="0px"
	 viewBox="0 0 512 512" style="enable-background:new 0 0 512 512;" xml:space="preserve">
<circle style="fill:#7EC359;" cx="256" cy="256" r="256"/>
<g>
	<polygon style="fill:#D2D2D4;" points="383.448,73.416 383.448,354.952 162.392,354.952 162.392,128.164 217.14,73.416 	"/>
	<polygon style="fill:#D2D2D4;" points="217.14,73.416 217.14,128.164 162.392,128.164 	"/>
	<rect x="180.12" y="193.88" style="fill:#D2D2D4;" width="185.6" height="9.34"/>
	<rect x="180.12" y="165.8" style="fill:#D2D2D4;" width="185.6" height="9.34"/>
	<rect x="180.12" y="221.96" style="fill:#D2D2D4;" width="185.6" height="9.34"/>
	<rect x="180.12" y="250.04" style="fill:#D2D2D4;" width="185.6" height="9.34"/>
	<rect x="180.12" y="278.08" style="fill:#D2D2D4;" width="185.6" height="9.34"/>
</g>
<polygon style="fill:#E8E7E8;" points="366.528,90.336 366.528,371.872 145.472,371.872 145.472,145.084 200.22,90.336 "/>
<g>
	<polygon style="fill:#D2D2D4;" points="200.22,90.336 200.22,145.084 145.472,145.084 	"/>
	<rect x="163.196" y="210.788" style="fill:#D2D2D4;" width="185.6" height="9.34"/>
	<rect x="163.196" y="182.712" style="fill:#D2D2D4;" width="185.6" height="9.34"/>
	<rect x="163.196" y="238.864" style="fill:#D2D2D4;" width="185.6" height="9.34"/>
	<rect x="163.196" y="266.936" style="fill:#D2D2D4;" width="185.6" height="9.34"/>
	<rect x="163.196" y="295" style="fill:#D2D2D4;" width="185.6" height="9.34"/>
</g>
<polygon style="fill:#FDFEFF;" points="349.608,107.252 349.608,388.792 128.552,388.792 128.552,162 183.3,107.252 "/>
<polygon style="fill:#E8E7E8;" points="183.3,107.252 183.3,162 128.552,162 "/>
<g>
	<rect x="146.276" y="227.708" style="fill:#D2D2D4;" width="185.6" height="9.34"/>
	<rect x="146.276" y="199.632" style="fill:#D2D2D4;" width="185.6" height="9.34"/>
	<rect x="146.276" y="255.78" style="fill:#D2D2D4;" width="185.6" height="9.34"/>
	<rect x="146.276" y="283.856" style="fill:#D2D2D4;" width="185.6" height="9.34"/>
	<rect x="146.276" y="311.928" style="fill:#D2D2D4;" width="185.6" height="9.34"/>
</g>
<rect x="67.184" y="267.064" style="fill:#F1592F;" width="377.64" height="189.2"/>
<path style="fill:#D64331;" d="M425.696,437.168H86.304V286.184H425.7v150.984H425.696z M93.948,429.52h324.104V293.828H93.948
	V429.52z"/>
<g>
	<circle style="fill:#70B1E1;" cx="314.68" cy="361.68" r="16.24"/>
	<circle style="fill:#70B1E1;" cx="197.32" cy="361.68" r="16.24"/>
</g>
<path style="fill:#FDFEFF;" d="M318.328,370.74H193.672c-1.92,0-3.476-1.556-3.476-3.476v-11.176c0-1.92,1.556-3.476,3.476-3.476
	h124.652c1.92,0,3.476,1.556,3.476,3.476v11.176C321.804,369.184,320.248,370.74,318.328,370.74z"/>
<g>
</g>
<g>
</g>
<g>
</g>
<g>
</g>
<g>
</g>
<g>
</g>
<g>
</g>
<g>
</g>
<g>
</g>
<g>
</g>
<g>
</g>
<g>
</g>
<g>
</g>
<g>
</g>
<g>
</g>
</svg>
