<?xml version="1.0" encoding="iso-8859-1"?>
<!-- Generator: Adobe Illustrator 19.0.0, SVG Export Plug-In . SVG Version: 6.00 Build 0)  -->
<svg version="1.1" id="Capa_1" xmlns="http://www.w3.org/2000/svg" xmlns:xlink="http://www.w3.org/1999/xlink" x="0px" y="0px"
	 viewBox="0 0 512 512" style="enable-background:new 0 0 512 512;" xml:space="preserve">
<circle style="fill:#7EC359;" cx="256" cy="256" r="256"/>
<polygon style="fill:#FDFEFF;" points="167.792,32 167.792,120.636 79.16,120.636 79.16,480 432.84,480 432.84,32 "/>
<path style="fill:#F1592F;" d="M334.504,128.928v70.964c0,0-3.728,57.492-78.504,78.552c-74.82-21.06-78.504-78.552-78.504-78.552
	v-70.964c30.2,2.64,56.128-6.596,78.504-25.788C278.332,122.336,304.256,131.568,334.504,128.928z"/>
<path style="fill:#70B1E1;" d="M322.92,193.98v-53.544c-0.172,0-0.516,0-0.516,0c-24.224,0-46.524-7.664-66.404-22.8v76.34h66.92
	V193.98z"/>
<path style="fill:#E8E7E8;" d="M256,117.64l-0.008-0.004c-19.912,15.136-42.216,22.804-66.412,22.804c-0.164,0-0.332,0-0.5,0v53.544
	H256V117.64z"/>
<path style="fill:#70B1E1;" d="M189.084,193.98v5.256c0.4,4.236,6.06,48.696,66.916,66.964l0,0v-72.22H189.084z"/>
<g>
	<path style="fill:#E8E7E8;" d="M256,193.98v72.22c60.984-18.32,66.544-62.972,66.92-66.956v-5.264L256,193.98L256,193.98z"/>
	<polygon style="fill:#E8E7E8;" points="168.228,33.112 80.036,121.308 168.228,121.308 	"/>
</g>
<g>
	<rect x="108.32" y="314.56" style="fill:#D2D2D4;" width="295.356" height="14.864"/>
	<rect x="108.32" y="361.28" style="fill:#D2D2D4;" width="295.356" height="14.864"/>
	<rect x="108.32" y="408.04" style="fill:#D2D2D4;" width="295.356" height="14.864"/>
</g>
<g>
</g>
<g>
</g>
<g>
</g>
<g>
</g>
<g>
</g>
<g>
</g>
<g>
</g>
<g>
</g>
<g>
</g>
<g>
</g>
<g>
</g>
<g>
</g>
<g>
</g>
<g>
</g>
<g>
</g>
</svg>
