<?xml version="1.0" encoding="iso-8859-1"?>
<!-- Generator: Adobe Illustrator 19.0.0, SVG Export Plug-In . SVG Version: 6.00 Build 0)  -->
<svg version="1.1" id="Capa_1" xmlns="http://www.w3.org/2000/svg" xmlns:xlink="http://www.w3.org/1999/xlink" x="0px" y="0px"
	 viewBox="0 0 512 512" style="enable-background:new 0 0 512 512;" xml:space="preserve">
<circle style="fill:#896D61;" cx="256" cy="256" r="256"/>
<rect x="82.144" y="23.36" style="fill:#FDFEFF;" width="347.72" height="463.44"/>
<g>
	<rect x="82.144" y="134.368" style="fill:#D2D2D4;" width="347.72" height="7.804"/>
	<rect x="82.144" y="161.44" style="fill:#D2D2D4;" width="347.72" height="7.804"/>
	<rect x="82.144" y="188.48" style="fill:#D2D2D4;" width="347.72" height="7.804"/>
	<rect x="82.144" y="215.556" style="fill:#D2D2D4;" width="347.72" height="7.804"/>
	<rect x="82.144" y="242.6" style="fill:#D2D2D4;" width="347.72" height="7.804"/>
	<rect x="82.144" y="269.68" style="fill:#D2D2D4;" width="347.72" height="7.804"/>
	<rect x="82.144" y="296.76" style="fill:#D2D2D4;" width="347.72" height="7.804"/>
	<rect x="82.144" y="323.804" style="fill:#D2D2D4;" width="347.72" height="7.804"/>
	<rect x="82.144" y="350.88" style="fill:#D2D2D4;" width="347.72" height="7.804"/>
	<rect x="82.144" y="377.92" style="fill:#D2D2D4;" width="347.72" height="7.804"/>
	<rect x="82.144" y="405" style="fill:#D2D2D4;" width="347.72" height="7.804"/>
	<rect x="82.144" y="432.04" style="fill:#D2D2D4;" width="347.72" height="7.804"/>
	<rect x="128.24" y="96.92" style="fill:#D2D2D4;" width="7.064" height="389.88"/>
</g>
<g>
	<rect x="82.144" y="94.788" style="fill:#F1592F;" width="347.72" height="4.28"/>
	<rect x="82.144" y="85.252" style="fill:#F1592F;" width="347.72" height="4.28"/>
</g>
<g>
	<path style="fill:#4D535F;" d="M201.38,404.36l43.292-112.4l43.292,112.4h3.744l-45.156-117.748
		c-0.62,0.076-1.26,0.132-1.932,0.132c-0.636,0-1.244-0.048-1.836-0.116L197.636,404.36H201.38z"/>
	<path style="fill:#4D535F;" d="M246.44,404.36V286.632c-0.584,0.068-1.188,0.112-1.816,0.112c-0.596,0-1.164-0.036-1.716-0.096
		v117.716h3.532V404.36z"/>
</g>
<path style="fill:#F5EA07;" d="M193.548,397.336c0,20.692,23.468,37.464,52.42,37.464s52.42-16.772,52.42-37.464H193.548z"/>
<g>
	<path style="fill:#4D535F;" d="M244.672,288.352c-4.412,0-8.004-3.588-8.004-8.004c0-4.412,3.588-8.004,8.004-8.004
		c4.412,0,8.004,3.588,8.004,8.004C252.672,284.764,249.084,288.352,244.672,288.352z M244.672,275.884
		c-2.464,0-4.468,2.004-4.468,4.468s2.004,4.468,4.468,4.468s4.468-2.004,4.468-4.468S247.136,275.884,244.672,275.884z"/>
	<path style="fill:#4D535F;" d="M396.084,404.36l43.292-112.4l43.292,112.4h3.744L441.28,286.676c-1.232,0.104-2.26,0.1-3.76-0.136
		l-45.18,117.82H396.084z"/>
	<path style="fill:#4D535F;" d="M441.144,404.36V286.68c-1.136,0.088-2,0.104-3.528-0.128c0,0.012-0.008,0.02-0.008,0.032V404.36
		L441.144,404.36L441.144,404.36z"/>
</g>
<path style="fill:#F5EA07;" d="M490.5,397.336c0,20.692-23.468,37.464-52.42,37.464s-52.42-16.772-52.42-37.464H490.5z"/>
<path style="fill:#4D535F;" d="M439.376,288.352c-4.412,0-8.004-3.588-8.004-8.004c0-4.412,3.588-8.004,8.004-8.004
	s8.004,3.588,8.004,8.004C447.38,284.764,443.788,288.352,439.376,288.352z M439.376,275.884c-2.464,0-4.468,2.004-4.468,4.468
	s2.004,4.468,4.468,4.468s4.468-2.004,4.468-4.468S441.84,275.884,439.376,275.884z"/>
<g>
	<path style="fill:#F1592F;" d="M234.92,275.648c-2.276,0-4.124-1.848-4.124-4.124s1.848-4.124,4.124-4.124
		c8.336,0,19.64,1.16,37.616-12.404c12.416-9.368,31.568-17.84,69.776-0.08c2.064,0.96,2.96,3.412,2,5.476
		c-0.96,2.064-3.412,2.964-5.476,2c-38.62-17.948-54.532-5.94-61.332-0.812C257.376,276.768,243.948,275.648,234.92,275.648z"/>
	<path style="fill:#F1592F;" d="M449.128,275.648c-8.932,0-22.404,1.16-42.584-14.068c-6.796-5.128-22.712-17.136-61.332,0.812
		c-2.064,0.96-4.516,0.064-5.476-2c-0.96-2.064-0.064-4.516,2-5.476c38.208-17.76,57.36-9.284,69.776,0.08
		c17.852,13.468,29.036,12.404,37.616,12.404c2.276,0,4.124,1.848,4.124,4.124S451.404,275.648,449.128,275.648z"/>
</g>
<path style="fill:#4D535F;" d="M342.024,240.868c-4.1,0-7.424,3.324-7.424,7.424V381.6h14.844V248.288
	C349.444,244.192,346.124,240.868,342.024,240.868z"/>
<path style="fill:#656D7A;" d="M342.024,363.5c-6.096,0-11.04,4.944-11.04,11.04v80.244h22.08v-80.24
	C353.064,368.444,348.12,363.5,342.024,363.5z"/>
<ellipse style="fill:#4D535F;" cx="342.08" cy="461.88" rx="37.544" ry="16.928"/>
<rect x="294.8" y="461.88" style="fill:#656D7A;" width="93.728" height="15.172"/>
<rect x="287.416" y="471.64" style="fill:#4D535F;" width="108.48" height="15.172"/>
<g>
</g>
<g>
</g>
<g>
</g>
<g>
</g>
<g>
</g>
<g>
</g>
<g>
</g>
<g>
</g>
<g>
</g>
<g>
</g>
<g>
</g>
<g>
</g>
<g>
</g>
<g>
</g>
<g>
</g>
</svg>
