<?xml version="1.0" encoding="iso-8859-1"?>
<!-- Generator: Adobe Illustrator 19.0.0, SVG Export Plug-In . SVG Version: 6.00 Build 0)  -->
<svg version="1.1" id="Capa_1" xmlns="http://www.w3.org/2000/svg" xmlns:xlink="http://www.w3.org/1999/xlink" x="0px" y="0px"
	 viewBox="0 0 512 512" style="enable-background:new 0 0 512 512;" xml:space="preserve">
<circle style="fill:#6FB1E1;" cx="256" cy="256" r="256"/>
<g>
	<path style="fill:#FDFEFF;" d="M256,468.5c-117.2,0-212.5-95.3-212.5-212.5S138.8,43.5,256,43.5S468.5,138.8,468.5,256
		S373.2,468.5,256,468.5z M256,65.9C151.2,65.9,65.9,151.2,65.9,256S151.2,446.1,256,446.1S446.1,360.8,446.1,256
		S360.8,65.9,256,65.9z"/>
	<polygon style="fill:#FDFEFF;" points="358.4,169.5 342.5,153.6 256,240.1 169.5,153.6 153.6,169.5 240.1,256 153.6,342.5 
		169.5,358.4 256,271.9 342.5,358.4 358.4,342.5 271.9,256 	"/>
</g>
<circle style="fill:#F5EA07;" cx="131.2" cy="131.2" r="100"/>
<path style="fill:#E8BB20;" d="M131.2,216.6c-47.1,0-85.4-38.3-85.4-85.4s38.3-85.4,85.4-85.4s85.4,38.3,85.4,85.4
	S178.3,216.6,131.2,216.6z M131.2,59.5c-39.6,0-71.7,32.2-71.7,71.7c0,39.6,32.2,71.7,71.7,71.7s71.7-32.2,71.7-71.7
	C202.9,91.6,170.8,59.5,131.2,59.5z"/>
<path style="fill:#FDFEFF;" d="M127.1,158.7v-24.4c-7.6-2.2-13.2-5.5-16.7-9.9c-3.5-4.4-5.3-9.7-5.3-16c0-6.4,2-11.7,6-16
	s9.4-6.8,16-7.5v-5.8h8.4v5.8c6.2,0.7,11.1,2.8,14.7,6.3s6,8.1,7,13.9l-14.7,1.9c-0.9-4.6-3.2-7.7-7-9.3v22.7
	c9.3,2.5,15.6,5.8,19,9.8s5.1,9.2,5.1,15.4c0,7-2.1,12.9-6.4,17.7c-4.2,4.8-10.1,7.8-17.7,8.8V183h-8.4v-10.6
	c-6.7-0.8-12.2-3.3-16.3-7.5s-6.9-10.1-8-17.7l15.2-1.6c0.6,3.1,1.8,5.8,3.5,8C123.1,156.1,125,157.7,127.1,158.7z M127.1,97.6
	c-2.3,0.8-4.1,2.1-5.5,4s-2,3.9-2,6.2c0,2.1,0.6,4,1.9,5.7s3.1,3.2,5.6,4.3V97.6L127.1,97.6z M135.6,159.5c2.9-0.5,5.3-1.9,7.1-4
	c1.8-2.2,2.7-4.7,2.7-7.6c0-2.6-0.8-4.8-2.3-6.7s-4-3.3-7.5-4.3V159.5L135.6,159.5z"/>
<circle style="fill:#7EC359;" cx="380.8" cy="131.2" r="100"/>
<g>
	<path style="fill:#FDFEFF;" d="M380.8,216.6c-47.1,0-85.4-38.3-85.4-85.4s38.3-85.4,85.4-85.4s85.4,38.3,85.4,85.4
		C466.2,178.3,427.9,216.6,380.8,216.6z M380.8,59.5c-39.6,0-71.7,32.2-71.7,71.7c0,39.6,32.2,71.7,71.7,71.7s71.7-32.2,71.7-71.7
		C452.5,91.6,420.3,59.5,380.8,59.5z"/>
	<path style="fill:#FDFEFF;" d="M372.7,157.3h-21.1v-12.6h21.1V138h-21.1v-12.6h14.8l-17.7-35.8h17.5l11.4,24.2c1.4,3,2.5,5.7,3.1,8
		c0.7-2.5,1.7-5.2,3.1-8l11.6-24.2h17.5L395,125.4h15V138h-21.4v6.8H410v12.6h-21.4v15.5h-16L372.7,157.3L372.7,157.3z"/>
</g>
<circle style="fill:#656D7A;" cx="380.8" cy="380.8" r="100"/>
<g>
	<path style="fill:#FDFEFF;" d="M380.8,466.2c-47.1,0-85.4-38.3-85.4-85.4s38.3-85.4,85.4-85.4s85.4,38.3,85.4,85.4
		C466.2,427.9,427.9,466.2,380.8,466.2z M380.8,309c-39.6,0-71.7,32.2-71.7,71.7c0,39.6,32.2,71.7,71.7,71.7s71.7-32.2,71.7-71.7
		S420.3,309,380.8,309z"/>
	<path style="fill:#FDFEFF;" d="M359.9,397.4h-11.1v-10.9h12.1c-0.4-2.3-0.9-4.4-1.4-6.3h-10.7v-10.9h7.8c-0.7-2.9-1-5.7-1-8.4
		c0-7.4,2.6-13.4,7.8-17.8c5.2-4.5,11.8-6.7,19.7-6.7c7.1,0,13,1.9,17.8,5.6s7.7,9.4,8.8,17l-15.9,2.3c-1.4-7.8-5.1-11.8-11.3-11.8
		c-3.5,0-6.2,1.1-8.1,3.4s-2.8,4.8-2.8,7.7c0,2.1,0.5,5,1.4,8.7h19.8v10.9h-16.9c0.8,3.5,1.2,5.6,1.2,6.3h15.6v10.9h-16.8
		c-0.9,2.8-3.5,6.6-7.6,11.4c2.1-1.1,4.8-1.6,8-1.6c2.1,0,6.1,0.7,11.8,2.2c2.6,0.7,4.7,1,6.4,1c3.2,0,7.1-1.1,11.9-3.3l6.3,13.9
		c-5.1,2.7-10.5,4.1-16.3,4.1c-3.4,0-8-0.8-13.8-2.5c-6-1.7-10.4-2.5-13.2-2.5c-4.9,0-9.8,1.7-14.6,5.1l-6.3-14.2
		C354.4,407,358.1,402.4,359.9,397.4z"/>
</g>
<circle style="fill:#F1592F;" cx="131.2" cy="380.8" r="100"/>
<g>
	<path style="fill:#FDFEFF;" d="M131.2,466.2c-47.1,0-85.4-38.3-85.4-85.4s38.3-85.4,85.4-85.4s85.4,38.3,85.4,85.4
		S178.3,466.2,131.2,466.2z M131.2,309c-39.6,0-71.7,32.2-71.7,71.7c0,39.6,32.2,71.7,71.7,71.7s71.7-32.2,71.7-71.7
		S170.8,309,131.2,309z"/>
	<path style="fill:#FDFEFF;" d="M153.6,340.4l-3.4,16c-3.3-3.3-8.1-4.9-14.4-4.9s-11.4,2.3-15.3,6.8c-2.2,2.5-3.8,5.7-4.7,9.6h31.8
		l-1.9,9h-31.1c0,0.9-0.1,2-0.1,3.4s0,2.8,0.1,4.2h29.5l-1.9,9H116c1,4.1,2.5,7.4,4.5,9.7c3.9,4.6,8.9,6.8,15.1,6.8
		c7.4,0,13.3-2.3,17.7-6.8v17.7c-5,2.5-10.9,3.8-17.5,3.8c-11.3,0-20.5-3.9-27.8-11.6c-4.9-5.2-8.2-11.8-9.8-19.6h-8.6l1.9-9h5.7
		c0-0.9-0.1-1.9-0.1-3c0-1.8,0-3.3,0.1-4.7h-7.6l1.9-9h6.9c1.6-7.7,4.8-14.1,9.7-19.3c7.3-7.8,16.9-11.7,28.8-11.7
		C143.2,336.9,148.8,338.1,153.6,340.4z"/>
</g>
<g>
</g>
<g>
</g>
<g>
</g>
<g>
</g>
<g>
</g>
<g>
</g>
<g>
</g>
<g>
</g>
<g>
</g>
<g>
</g>
<g>
</g>
<g>
</g>
<g>
</g>
<g>
</g>
<g>
</g>
</svg>
