<?xml version="1.0" encoding="iso-8859-1"?>
<!-- Generator: Adobe Illustrator 19.0.0, SVG Export Plug-In . SVG Version: 6.00 Build 0)  -->
<svg version="1.1" id="Capa_1" xmlns="http://www.w3.org/2000/svg" xmlns:xlink="http://www.w3.org/1999/xlink" x="0px" y="0px"
	 viewBox="0 0 512 512" style="enable-background:new 0 0 512 512;" xml:space="preserve">
<circle style="fill:#40B9E3;" cx="256" cy="256" r="256"/>
<circle style="fill:#F5EA07;" cx="135.1" cy="129.944" r="110"/>
<g>
	<path style="fill:#E8BB20;" d="M135.096,223.928c-51.82,0-93.98-42.16-93.98-93.984c0-51.82,42.16-93.98,93.98-93.98
		s93.984,42.16,93.984,93.98C229.08,181.768,186.916,223.928,135.096,223.928z M135.096,51.028
		c-43.512,0-78.916,35.404-78.916,78.916c0,43.52,35.404,78.92,78.916,78.92s78.916-35.404,78.916-78.92
		C214.016,86.428,178.612,51.028,135.096,51.028z"/>
	<path style="fill:#E8BB20;" d="M130.62,160.176v-26.808c-8.36-2.388-14.492-6.004-18.396-10.844s-5.856-10.716-5.856-17.628
		c0-6.996,2.208-12.872,6.624-17.628s10.292-7.496,17.628-8.22v-6.336h9.276v6.336c6.784,0.812,12.176,3.124,16.188,6.94
		c4.008,3.816,6.568,8.924,7.676,15.324l-16.188,2.112c-0.98-5.032-3.54-8.444-7.676-10.236v25.016
		c10.236,2.772,17.212,6.368,20.92,10.78s5.568,10.076,5.568,16.988c0,7.72-2.336,14.224-7.004,19.516s-11.164,8.532-19.484,9.724
		v11.964h-9.276v-11.644c-7.38-0.896-13.372-3.648-17.98-8.252s-7.548-11.112-8.828-19.516l16.7-1.792
		c0.684,3.412,1.964,6.356,3.84,8.828C126.228,157.276,128.316,159.068,130.62,160.176z M130.62,92.996
		c-2.516,0.852-4.52,2.304-6.016,4.352c-1.492,2.048-2.24,4.308-2.24,6.784c0,2.26,0.684,4.36,2.048,6.304
		c1.364,1.94,3.432,3.508,6.208,4.704V92.996z M139.896,161.072c3.2-0.596,5.8-2.08,7.804-4.448s3.008-5.152,3.008-8.348
		c0-2.856-0.844-5.32-2.528-7.388s-4.448-3.656-8.284-4.768V161.072z"/>
</g>
<circle style="fill:#F1592F;" cx="376.88" cy="382.04" r="110"/>
<g>
	<path style="fill:#FDFEFF;" d="M376.9,476.04c-51.82,0-93.98-42.16-93.98-93.984c0-51.82,42.16-93.98,93.98-93.98
		s93.98,42.16,93.98,93.98C470.88,433.88,428.72,476.04,376.9,476.04z M376.9,303.136c-43.512,0-78.916,35.404-78.916,78.916
		c0,43.52,35.404,78.92,78.916,78.92s78.916-35.404,78.916-78.92C455.816,338.54,420.416,303.136,376.9,303.136z"/>
	<path style="fill:#FDFEFF;" d="M401.564,337.676l-3.756,17.636c-3.608-3.608-8.872-5.412-15.792-5.412
		c-6.92,0-12.524,2.484-16.812,7.448c-2.42,2.8-4.14,6.304-5.156,10.508h35.02l-2.036,9.868h-34.256
		c-0.044,0.976-0.064,2.228-0.064,3.756c0,1.484,0.044,3.036,0.128,4.648h32.412l-2.04,9.872h-29.036
		c1.06,4.544,2.696,8.108,4.904,10.696c4.244,5.008,9.764,7.512,16.556,7.512c8.152,0,14.644-2.504,19.484-7.512v19.484
		c-5.52,2.76-11.948,4.14-19.292,4.14c-12.396,0-22.584-4.244-30.564-12.736c-5.432-5.772-9.02-12.968-10.76-21.584h-9.424
		l2.036-9.868h6.24c-0.044-1.02-0.064-2.1-0.064-3.248c0-1.952,0.044-3.672,0.128-5.156h-8.34l2.036-9.868h7.576
		c1.784-8.448,5.328-15.516,10.632-21.204c8.024-8.576,18.572-12.864,31.648-12.864C390.104,333.792,396.3,335.084,401.564,337.676z
		"/>
	<path style="fill:#FDFEFF;" d="M270.308,457.304h-74.132c-60.656,0-110-49.348-110-110v-62.128h20v62.128c0,49.624,40.372,90,90,90
		h74.132L270.308,457.304L270.308,457.304z"/>
	<polygon style="fill:#FDFEFF;" points="126.276,303.58 95.1,254.732 63.92,303.58 	"/>
	<path style="fill:#FDFEFF;" d="M241.692,54.696h74.132c60.656,0,110,49.348,110,110v62.128h-20v-62.128c0-49.624-40.372-90-90-90
		h-74.132V54.696z"/>
	<polygon style="fill:#FDFEFF;" points="385.724,208.42 416.9,257.272 448.08,208.42 	"/>
</g>
<g>
</g>
<g>
</g>
<g>
</g>
<g>
</g>
<g>
</g>
<g>
</g>
<g>
</g>
<g>
</g>
<g>
</g>
<g>
</g>
<g>
</g>
<g>
</g>
<g>
</g>
<g>
</g>
<g>
</g>
</svg>
