<?xml version="1.0" encoding="iso-8859-1"?>
<!-- Generator: Adobe Illustrator 19.0.0, SVG Export Plug-In . SVG Version: 6.00 Build 0)  -->
<svg version="1.1" id="Capa_1" xmlns="http://www.w3.org/2000/svg" xmlns:xlink="http://www.w3.org/1999/xlink" x="0px" y="0px"
	 viewBox="0 0 512 512" style="enable-background:new 0 0 512 512;" xml:space="preserve">
<circle style="fill:#FDFEFF;" cx="256" cy="256" r="256"/>
<path style="fill:#7EC359;" d="M468.968,407.788H43.032c-6.628,0-12-5.372-12-12V116.216c0-6.628,5.372-12,12-12h425.936
	c6.628,0,12,5.372,12,12v279.572C480.968,402.412,475.596,407.788,468.968,407.788z"/>
<g>
	<rect x="282.16" y="274.36" style="fill:#FDFEFF;" width="46.772" height="25.912"/>
	<rect x="209.92" y="274.36" style="fill:#FDFEFF;" width="46.772" height="25.912"/>
	<rect x="137.656" y="274.36" style="fill:#FDFEFF;" width="46.772" height="25.912"/>
	<rect x="65.408" y="274.36" style="fill:#FDFEFF;" width="46.772" height="25.912"/>
</g>
<circle style="fill:#F1592F;" cx="409.24" cy="183.916" r="37.356"/>
<g>
	<circle style="fill:#FDFEFF;" cx="371.88" cy="183.916" r="37.356"/>
	<rect x="65.408" y="231.148" style="fill:#FDFEFF;" width="191.26" height="24.2"/>
</g>
<rect x="65.452" y="135.096" style="fill:#DA8D27;" width="67.228" height="67.312"/>
<g>
	<rect x="65.072" y="175.44" style="fill:#E8BB20;" width="46.22" height="8.476"/>
	<rect x="65.072" y="153.6" style="fill:#E8BB20;" width="67.984" height="8.476"/>
	<rect x="83.904" y="179.68" style="fill:#E8BB20;" width="8.476" height="23.064"/>
	<rect x="105.756" y="134.76" style="fill:#E8BB20;" width="8.476" height="67.984"/>
</g>
<rect x="31.032" y="326.72" style="fill:#4D535F;" width="449.92" height="43.428"/>
<g>
</g>
<g>
</g>
<g>
</g>
<g>
</g>
<g>
</g>
<g>
</g>
<g>
</g>
<g>
</g>
<g>
</g>
<g>
</g>
<g>
</g>
<g>
</g>
<g>
</g>
<g>
</g>
<g>
</g>
</svg>
