<?xml version="1.0" encoding="iso-8859-1"?>
<!-- Generator: Adobe Illustrator 19.0.0, SVG Export Plug-In . SVG Version: 6.00 Build 0)  -->
<svg version="1.1" id="Capa_1" xmlns="http://www.w3.org/2000/svg" xmlns:xlink="http://www.w3.org/1999/xlink" x="0px" y="0px"
	 viewBox="0 0 512 512" style="enable-background:new 0 0 512 512;" xml:space="preserve">
<circle style="fill:#F5EB07;" cx="256" cy="256" r="256"/>
<path style="fill:#F1592F;" d="M38.484,27.88h435.032c13.192,0,23.884,10.44,23.884,23.316v272.916
	c0,12.876-10.696,23.316-23.884,23.316H38.484c-13.192,0-23.884-10.44-23.884-23.316V51.196C14.6,38.32,25.292,27.88,38.484,27.88z"
	/>
<g>
	<path style="fill:#D64331;" d="M312.252,119.776c1.108,1.044,2.66,1.036,3.232,2.536c0.34,0.892-0.212,2.096,0.02,3.024
		c0.308,1.22,1.504,2.972,2.112,3.996c2.708,4.556,7.42,3.18,9.9-1.036c2.384-4.048,0.608-8.6-1.428-12.356
		c-0.952-1.756-2.368-3.648-2.284-5.732c0.096-2.364,2.192-3.936,2.652-6.128c0.536-2.56-1.244-5.212-0.584-7.668
		c0.872-3.236,2.576-1.804,4.776-2.62c1.296-0.48,2.72-2.572,3.052-3.824c0.732-2.752-1.028-3.832-3.264-4.256
		c-2.128-0.404-3.768-1.528-5.604-2.688c-1.324-0.836-1.272-1.728-2.156-2.684c-1.144-1.232-7.364-3.528-9.888-3.552
		c-2.028-0.02-5.004,3.132-6.64,2.208c-2.212-1.248-1.056-5.48-4.72-5.872c-1.56-0.168-3.544,0.592-5.212,0.624
		c-1.448,0.028-3.392-0.168-4.584,0.832c-1.84,1.544-0.252,5.132-1.816,6.236c-1.088,0.772-5.716,0-7.144,0.052
		c-0.896,2.3,0.604,5.14,1.692,7.072c1.108,1.96,3.72,3.02,4.364,4.504c0.712,1.644,0.308,3.948,0.6,5.724
		c0.272,1.644,2.08,6.016,3.288,7.008c0.936,0.768,1.884,0.188,2.704,1.452c0.764,1.18,0.328,2.24,0.504,3.528
		C296.716,116.56,308.652,115.776,312.252,119.776z"/>
	<path style="fill:#D64331;" d="M351.844,305.22c4.592,0,5.16,0.56,7.632-2.628c2.044-2.64,1.056-3.56,1.856-6.832
		c0.776-3.168,2.568-4.688,1.972-8.604c-0.384-2.524-1.064-3.736-0.812-6.44c0.508-5.432,2.072-10.248,1.664-15.888
		c-0.312-4.332-4.74-10.832-2.288-15.376c2.684-4.972,11.832-6.5,15.212-11.092c1.904-2.584,2.46-10.068,1.868-13.448
		c-0.536-3.056-3.84-5.552-4.032-8.436c-0.24-3.592,2.284-3.268,4.832-5.068c2.448-1.732,3.888-4.228,6.6-5.632
		c2.896-1.496,6.376-1.076,9.476-2.084c3.224-1.048,7.308-3.856,9.892-6.076c3.288-2.828,2.92-5.272,3.988-9.296
		c1.148-4.316,4.94-12.132,7.74-15.48c0.148,3.224-0.04,6.024-0.74,9.068c-0.544,2.36-2.904,6.78-2.248,8.708
		c4.32-2.08,3.956-7.308,5.332-11.2c1.148-3.252,3.5-6.068,5.092-9.156c7.48-14.472,1.564-12.104-1.232-18.452
		c-0.624-1.412-1.412-4.652-1.228-6.176c0.38-3.136,1.364-2.248,2.812-4.672c4.908-8.208-3.832-21.86,11.48-27.504
		c4.356-1.608,9.136,0.26,12.816,3.476c4,3.496,3.812,6.464,13.244,6.568c-0.784-4.24-10.024-3.404-9.004-8.98
		c5.832,0.292,7.656-9.22,4.168-12.468c-2.276-2.124-6.252-1.376-6.8-4.812c-0.252-1.58,1.852-3.68,1.6-6.136
		c-2.048-0.396-7.22,0.46-8.5-1.504c-2.008-3.076,2.68-5.34-2.26-7.208c-2.204-0.832-6.344-0.988-8.76-1.264
		c-2.364-0.268-5.276-0.26-7.632-0.004c-9.052,0.984-9.836,8.932-13.836,12.072c-3.896,3.056-10.728-0.6-14.988,1.88
		c-3.06,1.78-2.584,5.18-4.908,7.456c-2.02,1.976-4.792,1.256-7.568,2.024c7.096-0.072,6.736-2.92,6.504-7.788
		c-0.264-5.528,1.736-4.732,7.012-5.016c-1.132-2.632-3.716-1.4-5.68-2.7c-1.072-0.712-2.276-4.564-2.552-4.68
		c-1.112-0.468-5.52,2.584-6.648,3.72c-1.312,1.32-1.556,4.672-2.728,5.356c-1.664,0.968-4.304-1.472-5.44-0.796
		c-2.656,1.58-0.376,3.248-0.172,4.708c0.416,2.952,1,3.136,2.1,5.132c0.952,1.736,2.9,1.14,1.384,4.464
		c-3.86,0.076-3.944,0.384-5.708-2.2c-1.248-1.828,1.152-4.588-3.216-3.904c-0.036,1.548-0.028,3.084-0.464,4.38
		c-2.54-2.776,0.208-5.408-0.708-8.412c2.052,3.308,5.304,1.068,3.512-2.048c-1.252-2.172-4.312-1.2-6.424-1.328
		c-1.776-0.108-6.92,0.376-4.364-2.924c1.836-2.372,6.16,1.128,6.384-3.096c4.4,1.612,8.204-0.468,13.292-0.144
		c0.564-1.64-0.152-3.452-0.472-4.856c1.924,0.016,3.792-0.82,5.172-2.044c-1.032,0.092-1.936-0.392-2.86-0.456
		c-0.004-0.26-0.016-0.516-0.028-0.776c-1.708-0.724-4.236-1.516-6.136-0.596c-2.588,1.252-2.164,4.104-4.012,5.864
		c-0.388-2.996-0.16-9.06-4.596-8.2c-4.812,0.932-0.472,5.748-0.864,8.94c-2.128,1.276-3.796,0.476-6.092,0.7
		c-2.336,0.228-3.384,1.188-5.728,1.476c0.464,4.032-1.428,4.984-5.312,4.912c2.316-0.432,4.376-1.992,3.488-4.5
		c-2,0.4-3.564-0.728-3.084-2.644c-0.944-0.076-1.916-0.824-2.76-0.96c1.428-1.776,3.588-1.032,4.376-3.092
		c0.804-2.096-1.048-4.32-2.38-5.68c-3.172-3.236-6.468-3.028-10.56-3.672c-3.896-0.616-7.544-1.68-11.624-1.64
		c-4.484,0.044-5.732,2.636-9.94,3.692c1.404,1.228,2.876,2.804,4.44,3.648c1.088,0.588,2.392,0.636,3.392,1.228
		c0.832,0.492,1.236,1.54,1.976,2.056c1.5,1.048,3.48,1.176,5.244,1.18c2.888,0.008,4.596,0.32,7.248,1.2
		c-0.644,1.372-4.776,0.456-2.7,3.3c0.62,0.844,2.94,1.952,3.928,2.604c6.132,4.032,2.724,2.064,5.68,6.484
		c0.576,0.86,0.78,0.464,0.748,1.504c-0.008,0.224-1.084,2.412-1.204,2.576c-0.92,1.256-2.884,2.048-3.868,3.296
		c-0.888,1.124-1.484,4.764-1.812,6.164c-0.324,1.384-0.912,1.636-1.58,2.792c-0.52,0.9-1.44,4.928-0.252,5.996
		c1.128,1.016,4.952,0.216,5.316-1.24c2.704,1.836-1.36,2.648-1.884,3.488c-1.232,1.976,2.056,4.104,3.544,4.384
		c3.48,0.66,5.324,0.512,6.076-7.448c1.14,0.244,2.44,0.26,3.564,0.108c0.092-0.344,0.092-0.972-0.012-1.308
		c-0.84-0.224-1.664-0.568-2.488-0.78c-0.436-0.112-3.048-0.248-3.324-0.448c-0.268-0.196-1.576-2.92-1.66-3.472
		c-0.648-4.32,4.672,2.04,5.52-1.116c0.448-1.668-4.272-5.764,1.18-4.372c3.232,0.828,3.716,3.548,3.656,6.472
		c1.912,0.132,5.772-0.06,6.776,1.648c-0.812,0.564-3.6,1.108-4.116,1.912c-0.94,1.464,0.632,2.948,1.788,3.508
		c0.796,0.384,2.904,1.04,3.784,0.644c2.244-1.012,0.6-3.62,4.1-3.224c3.552,0.4,5.604,4.324,7.496,6.864
		c1.476,1.984,1.648,6.148,0.72,8.552c-0.652,1.688-2.164,3.028-3.644,3.652c-2.372,0.996-3.952,0.504-5.152,3.084
		c-1.3,2.804-0.936,8.54-5.74,7.292c-3.588-0.932-0.5-7.448-1.588-9.98c-0.324-0.76-1.088-0.652-1.408-1.44
		c-0.292-0.72,0.028-2.308,0.02-3.068c-0.024-2.072-0.172-3.964-1.368-5.636c-1.892-2.64-7.272-3.636-8.788,0.216
		c-0.476,1.208,0.472,3.52-0.184,4.684c-0.72,1.28-2.404,0.74-4.028,0.84c-0.328-1.024-1.476-2.496-2.54-2.68
		c-2.752-0.472-1.756,2.916-1.932,4.596c-0.288,2.772-0.516,3.652-2.624,4.932c-1.128,0.684-3.22,1.62-3.636,2.928
		c-0.564,1.764,1.1,2.276,1.636,3.724c0.972,2.632-0.704,3.02-2.172,4.34c-1.264,1.136-1.952,2.224-1.164,4.272
		c0.876,2.284,6.748,2.656,8.176,0.752c1.196-1.596-0.128-4.8,2.04-6.116c2-1.212,6.824,0.036,8.812,0.792
		c-1.252,1.884-5.016,2.78-5.636,4.908c-0.592,2.02,1.412,4.744,3.172,5.304c3.184,1.016,4.112-1.812,6.924-1.64
		c1.236,0.076,1.256,0.072,1.884,1.04c0.752,1.16,0.812,2.872,1.652,4.156c0.324,0.492,0.704,1.008,1.056,1.48
		c1.256,1.704,2.24,3.732,3.8,5.12c1.508,1.344,2.964,2.4,3.872,4.224c0.82,1.648,0.9,3.792,1.932,5.336
		c0.568,0.848,1.924,1.6,2.612,2.636c1.744,2.616,0.816,1.668,0.256,3.988c-0.236,0.972-0.128,1.84,0.164,2.864
		c3.512,0.696,3.232-3.436,4.408-5.44c1.048-1.78,2.456-3.752,4.48-4.124c2.66-0.488,6.028,0.092,8.644,0.228
		c1.92,0.1,4.268,0.096,5.068,2.196c0.852,2.236-0.696,4.784,0.18,7.176c0.72,1.964,1.888,2.796-0.092,4.456
		c-2.44,2.044-10.648,4.108-10.048-0.844c-4.644-2.012-1.18,4.824-1.196,5.724c-0.04,2.668-5.628,3.192-6.508,5.628
		c-1.024,2.828,0.324,4.776-3.3,5.976c-3.772,1.248-5.408,0.336-8.052-2.528c-4.768-1.288-9.652-1.228-14.08,0.924
		c-0.72,0.348-1.632,0.94-2.596,1.12c-0.712,0.132-1.424-0.224-2.096,0.172c-0.684,0.404-0.244,0.904-0.828,1.348
		c-1.244,0.948-5.768,1.8-4.336,4.38c-2.636,2.572-5.06-0.384-6.164,3.9c-0.324,1.264-0.776,2.396-0.476,3.88
		c0.24,1.2,0.94,2.168,0.76,3.508c-3.204,1.028-6.86,0.576-10.188,0.896c-1.332,0.128-3.4-0.136-4.596,0.548
		c-1.516,0.868-1.372,2.188-1.632,3.896c-0.668,4.432-0.44,9.044,0.904,13.244c1.016,3.18,3.336,5.652,4.364,8.82
		c1.184,0.096,2.724,1.804,3.868,2.492c1.368,0.824,1.944,0.452,3.224,0.94c1.732,0.66,1.664,2.408,1.828,4.068
		c0.228,2.308,0.648,3.996,2.072,5.924c1.708,2.316,4.544,3.308,6.212,5.728c4.532,6.576,10.352,10.228,8.652,17.992
		c-0.508,2.324,1.24,3.624,1.52,6.004c0.18,1.548,0.212,3.756-0.184,5.216C353.828,304.28,354.084,304.6,351.844,305.22z"/>
	<path style="fill:#D64331;" d="M208.624,210.112c-0.5-0.128-1.36-0.012-1.88,0.044c-1.352,4.272,2.836,8.484,6.18,10.396
		c1.388,0.792,2.188,1.236,3.336,2.176c1.268,1.036,3.74,2.248,4.644,3.5c1.892,2.628-1.1,6.044-1.484,8.836
		c-0.488,3.552-0.104,6.112,2.004,9.168c1.552,2.244,4.3,3.12,5.512,5.496c0.696,1.368,0.16,2.604,0.628,3.86
		c0.752,2.02,2.472,3.456,3.488,5.372c0.984,1.86,1.492,3.98,2.36,5.812c3.276,6.904,11.24,6.092,16.632,2.148
		c2.94-2.148,4.236-6.992,5.884-10.364c1.74-3.56,1.416-7.484,1.424-11.428c0.004-3.128-0.6-6.04-0.876-9.068
		c-0.384-4.24,1.412-5.72,2.648-9.3c1.34-3.884-1.036-6.704,4.18-7.872c0.832-0.188,2.816-0.076,3.464-0.58
		c1.376-1.072,0.616-3.072,2.484-4.06c2.736-1.444,7.74,1.22,10.556,1.416c4.02,0.276,8.084-2.408,10.148-5.664
		c5.4-8.528,2.908-24.192-3.572-31.204c-3.42-3.7-10.028-6.348-14.792-7.332c-4.86-1-10.264,0.636-15.076,1.024
		c-0.064,1.332,0.572,4.752-0.032,5.916c-0.844,1.624-2.576,1.076-4.616,1.072c-3.312-0.004-6.348-0.592-9.592-0.584
		c-3.28,0.008-8.908,0.968-11.816-0.524c-8.236-4.224,9.852-7.288,12.384-7.62c2.328-0.304,5.016,0.82,6.38-1.78
		c0.904-1.716-0.384-2.728,1.42-4.164c2.512-2,8.74-2.796,11.828-2.84c9.964-0.148,7.092,4.264,12.352,7.108
		c3.72,2.012,9.164,4.124,11.372-0.612c3.06-6.556-3.492-8.62-8.456-10.048c-1.524-0.44-4.34-0.916-4.092-3.332
		c0.1-0.984,1.016-1.076,1.28-1.708c0.248-0.584,0.936-3.172,1.3-3.568c1.448-1.588,4.768,0.588,6.444-0.628
		c5.452-3.952-6.352-23.804-8.544-12.356c-0.632,3.292-0.108,4.996-5.964,5.596c-8.392,0.856-1.808-5.596-1.452-9.384
		c0.312-3.34-1.42-4.724-3.384-7.228c-3.976-5.068-3.608-10.368-13.204-14.776c-4.544-2.088-8.624-3.436-13.024-1.096
		c-6.3,3.352-4.492,4.744-11.616,4.756c-8.888,0.016-10.788-5.384-14.788-6.424c-2.048-0.532-4.06,0.936-5.256-1.008
		c-1.212-1.972,1.144-4.972,0.872-7.032c-1.188-0.244-3.192-1.152-4.388-0.848c-1.364,0.348-1.036,1.576-2.168,2.096
		c-3.052,1.404-11.316-2.852-13.072-11.54c-1.524-7.548-8.564-10.744-11.092-9.092c-2.444,1.592-1.348,3.14-4.752,3.788
		c-2.764,0.528-4.212-0.584-4.472,2.436c-0.232,2.676,2.132,4.66,3.164,6.88c-2.068,0.22-2.916-1.32-4.38-2.296
		c-1.568-1.048-1.988-1.164-4.196-1.176c-2.72-0.012-7.884-0.432-8.44-3.976c-4.964-1.172-5.66,3.768-9.356,5.108
		c-2.64,0.956-8.632-1.332-8.356-4.344c0.192-2.116,0.368-3.48,0.72-5.572c-5.064-2.188-8.54,0.444-12.976,1.5
		c-1.62,0.384-3.336,0.32-5.004,0.544c-4.08,0.548-2.04-0.188-4.9-2.384c-1.22-0.936-3.024-1.144-4.62-0.804
		c-3.268,0.692-1.068,2.048-3.5,3.716c-1.564,1.072-4.876-0.356-6.132-0.98c-2.46-1.22-2.56-1.892-2.32-5.092
		c-11.248-3.056-27.528,2.304-28.44,5.544c-0.356,1.268,0.84,3.248,1.588,4.184c1.968,2.464,3.044,1.068,5.768,1.928
		c6.104,1.924,2.976,6.92-2.296,6.804c-1.056,2.808,0.656,4.8,2.58,6.896c2.292,2.496,4.404,2.332,7.168,3.836
		c1.924,1.044,4.348,3.956,3.364,6.744c-1.412,4-4.872-0.116-4.98,13.196c-0.028,3.236-1.296,7.736,2.42,8.688
		c9.408,2.412,3.596-23.056,10.368-26.6c5.292-2.772,5.84,4.928,4.528,7.876c1.852,0.868,4.012,0.404,6.044,0.612
		c2.812,0.292,4.112,1.548,6.572,3.06c1.328,0.816,5.18,2.12,5.556,3.848c0.64,2.944-3.808,2.676-5.648,3.516
		c-1.332,0.612-2.62,1.336-3.64,2.424c-1.5,1.596-1.004,1.776-1.444,3.888c-0.724,3.48-0.696,6.612-0.852,10.288
		c-0.528,0.108-1.44,0.26-2.012,0.112c-1.124,3.16-0.104,8.208,2.896,10.004c2.664,1.596,4.812,2.536,5.428,5.928
		c0.576,3.164-2.096,3.888-3.356,6.356c-1.68,3.296,0.568,7.476,4.388,4.172c1.74-1.504,0.896-4.152,2.488-5.548
		c0.872-0.768,2.888-1.588,4-2.332c3.5-2.348,5.692,0.312,5.496,4.192c-0.12,2.364-0.876,3.332-2.564,5.012
		c-1.26,1.252-3.328,2.524-3.84,4.36c-0.904,3.24,0.184,7.276,1.864,9.92c2.324,3.656,3.956,5.548,8.208,6.412
		c3.544,0.72,7.448,2.964,6.648,6.928c-0.404,1.992-0.868,4.628-1.624,6.48c-0.7,1.72-2.74,2.888-0.336,4.208
		c3.54,1.944,10.048-2.548,11.036-5.352c0.144-0.408-0.404-0.968-0.212-1.444c0.204-0.512,1.04-0.54,1.328-0.98
		c2.976-4.596,1.096-2.008,5.104-5.232c4.392-3.532,3.42-7.36,7.632-4.744c7.42,4.612,11.884,7.636,10.72,13.724
		c-0.22,1.144-0.224,2.336-0.732,3.4c-0.372,0.772-1.992,1.864-2.12,2.668c-0.38,2.376,3.876,2.028,5.508,1.432
		c2.496-0.904,3.468-3.076,4.256-5.404c0.744-2.2,2.256-3.848,2.88-5.988c0.62-2.128,0.004-3.8,1.456-5.732
		c1.872-2.496,3.756-4.596,6.612-5.808c1.916-0.812,3.86-2.36,5.716-2.768c4.82-1.056,9.9,1.88,13.52-2.084
		c1.6-1.752,3.04-3.156,5.112-3.976c-0.016,1.476-2.42,6.096-3.588,7.316c-2.08,2.168-4.956,1.44-7.704,1.592
		c-1.832,0.104-2.124-0.476-2.88,1.304c-0.44,1.04-0.116,3.06,0.548,3.968c1.08,1.476,12.22,6.164,13.88,6.944
		c4.968,2.324,5.764,0.996,7.144-4.252c1.416-5.392,7.276-12.76,12.796-14.54c2.456,9.812-10.256,16.72-15.572,22.676
		C212.964,209.932,211.284,208.984,208.624,210.112z"/>
	<path style="fill:#D64331;" d="M128.972,272.788c1.732-2.9,3.28-5.944,1.04-8.56c-0.82-0.956-1.368-0.908-1.888-2.204
		c-0.556-1.392-0.804-3.344-0.952-4.856c-0.704-7.184-8.216-5.94-14.62-11.428c-2.352-2.012-3.58-4.264-6.536-5.236
		c-3.24-1.068-7.376-1.724-9.92,0.552c-1.472,1.316-1.564,4.084-3.14,4.944c-3.376,1.848-5.552-4.172-5.788-6.404
		c-3.96-0.572-5.22,3.444-6.412,6.316c-1.408,3.388-4.064,6.548-4.504,10.192c-0.296,2.46-0.028,4.848-0.508,7.284
		c-0.58,2.936-0.164,4.22,0.876,7c0.776,2.08,0.704,5.064,2.004,6.888c0.6,0.844,1.844,1.26,2.564,2.096
		c0.98,1.14,1.136,2.348,2.38,3.288c3.328,2.52,6.86,1.668,10.248-0.04c3.932-1.98,5.656-2.708,7.04-7.328
		C105.008,261.416,124.192,280.788,128.972,272.788z"/>
</g>
<circle style="fill:#70B1E1;" cx="89.392" cy="100.64" r="42.656"/>
<circle style="fill:#F5EA07;" cx="143.056" cy="100.64" r="42.656"/>
<g>
	<path style="fill:#FFFFFF;" d="M428.744,220.548c1.704,2.156,2.556,5.684,2.556,10.584c0,4.996-0.772,8.464-2.324,10.412
		s-3.592,2.92-6.128,2.92c-2.52,0-4.484-0.884-5.896-2.66c-1.704-2.156-2.556-5.696-2.556-10.62c0-4.94,0.844-8.472,2.54-10.6
		c1.42-1.8,3.392-2.7,5.912-2.7C425.368,217.888,427.336,218.776,428.744,220.548z M421.24,222.6
		c-0.468,0.388-0.856,1.152-1.164,2.288c-0.308,1.144-0.46,3.244-0.46,6.296c0,3.056,0.176,5.22,0.516,6.496
		c0.26,0.996,0.628,1.684,1.1,2.072c0.472,0.384,1.016,0.576,1.616,0.576c0.604,0,1.14-0.188,1.608-0.568
		c0.464-0.38,0.856-1.14,1.16-2.284c0.308-1.144,0.464-3.24,0.464-6.292c0-3.056-0.172-5.228-0.516-6.516
		c-0.26-0.996-0.628-1.684-1.1-2.072c-0.472-0.384-1.012-0.576-1.616-0.576C422.244,222.024,421.708,222.22,421.24,222.6z"/>
	<path style="fill:#FFFFFF;" d="M408.516,220.548c1.704,2.156,2.556,5.684,2.556,10.584c0,4.996-0.772,8.464-2.324,10.412
		s-3.592,2.92-6.128,2.92c-2.52,0-4.484-0.884-5.896-2.66c-1.704-2.156-2.556-5.696-2.556-10.62
		C394.168,214.656,405.344,216.548,408.516,220.548z M401.016,222.6c-0.468,0.388-0.856,1.152-1.164,2.288
		c-0.308,1.144-0.46,3.244-0.46,6.296c0,3.056,0.172,5.22,0.516,6.496c0.26,0.996,0.628,1.684,1.1,2.072
		c0.472,0.384,1.016,0.576,1.616,0.576c0.604,0,1.14-0.188,1.608-0.568c0.464-0.38,0.856-1.14,1.164-2.284s0.46-3.24,0.46-6.292
		c0-3.056-0.172-5.228-0.516-6.516c-0.26-0.996-0.628-1.684-1.1-2.072c-0.472-0.384-1.012-0.576-1.616-0.576
		C402.02,222.024,401.48,222.22,401.016,222.6z"/>
	<path style="fill:#FFFFFF;" d="M388.292,220.548c1.704,2.156,2.556,5.684,2.556,10.584c0,4.996-0.772,8.464-2.324,10.412
		s-3.592,2.92-6.128,2.92c-2.52,0-4.484-0.884-5.896-2.66c-1.704-2.156-2.556-5.696-2.556-10.62c0-4.94,0.844-8.472,2.54-10.6
		c1.42-1.8,3.392-2.7,5.912-2.7C384.916,217.888,386.884,218.776,388.292,220.548z M380.792,222.6
		c-0.468,0.388-0.856,1.152-1.164,2.288c-0.308,1.144-0.46,3.244-0.46,6.296c0,3.056,0.176,5.22,0.516,6.496
		c0.26,0.996,0.628,1.684,1.1,2.072c0.472,0.384,1.016,0.576,1.616,0.576c0.604,0,1.14-0.188,1.608-0.568
		c0.464-0.38,0.856-1.14,1.164-2.284s0.46-3.24,0.46-6.292c0-3.056-0.172-5.228-0.516-6.516c-0.26-0.996-0.628-1.684-1.1-2.072
		c-0.472-0.384-1.012-0.576-1.616-0.576C381.792,222.024,381.256,222.22,380.792,222.6z"/>
	<path style="fill:#FFFFFF;" d="M368.068,220.548c1.704,2.156,2.556,5.684,2.556,10.584c0,4.996-0.772,8.464-2.324,10.412
		s-3.592,2.92-6.128,2.92c-2.52,0-4.484-0.884-5.896-2.66c-1.704-2.156-2.556-5.696-2.556-10.62c0-4.94,0.844-8.472,2.54-10.6
		c1.42-1.8,3.392-2.7,5.912-2.7S366.66,218.776,368.068,220.548z M360.564,222.6c-0.468,0.388-0.856,1.152-1.164,2.288
		c-0.308,1.144-0.46,3.244-0.46,6.296c0,3.056,0.176,5.22,0.516,6.496c0.26,0.996,0.628,1.684,1.1,2.072
		c0.472,0.384,1.016,0.576,1.616,0.576c0.604,0,1.14-0.188,1.608-0.568c0.464-0.38,0.856-1.14,1.16-2.284
		c0.308-1.144,0.46-3.24,0.46-6.292c0-3.056-0.172-5.228-0.516-6.516c-0.26-0.996-0.628-1.684-1.1-2.072
		c-0.472-0.384-1.012-0.576-1.616-0.576C361.568,222.024,361.032,222.22,360.564,222.6z"/>
	<path style="fill:#FFFFFF;" d="M337.736,220.548c1.704,2.156,2.556,5.684,2.556,10.584c0,4.996-0.772,8.464-2.324,10.412
		s-3.592,2.92-6.128,2.92c-2.52,0-4.484-0.884-5.896-2.66c-1.704-2.156-2.556-5.696-2.556-10.62c0-4.94,0.844-8.472,2.54-10.6
		c1.42-1.8,3.392-2.7,5.912-2.7S336.328,218.776,337.736,220.548z M330.236,222.6c-0.468,0.388-0.856,1.152-1.164,2.288
		c-0.308,1.144-0.46,3.244-0.46,6.296c0,3.056,0.172,5.22,0.516,6.496c0.26,0.996,0.628,1.684,1.1,2.072
		c0.472,0.384,1.016,0.576,1.616,0.576c0.604,0,1.14-0.188,1.608-0.568c0.464-0.38,0.856-1.14,1.164-2.284s0.46-3.24,0.46-6.292
		c0-3.056-0.172-5.228-0.516-6.516c-0.26-0.996-0.628-1.684-1.1-2.072c-0.472-0.384-1.012-0.576-1.616-0.576
		C331.24,222.024,330.7,222.22,330.236,222.6z"/>
	<path style="fill:#FFFFFF;" d="M317.512,220.548c1.704,2.156,2.556,5.684,2.556,10.584c0,4.996-0.772,8.464-2.324,10.412
		s-3.592,2.92-6.128,2.92c-2.52,0-4.484-0.884-5.896-2.66c-1.704-2.156-2.556-5.696-2.556-10.62c0-4.94,0.844-8.472,2.54-10.6
		c1.42-1.8,3.392-2.7,5.912-2.7S316.104,218.776,317.512,220.548z M310.012,222.6c-0.468,0.388-0.856,1.152-1.164,2.288
		c-0.308,1.144-0.46,3.244-0.46,6.296c0,3.056,0.176,5.22,0.516,6.496c0.26,0.996,0.628,1.684,1.1,2.072
		c0.472,0.384,1.016,0.576,1.616,0.576c0.604,0,1.14-0.188,1.608-0.568c0.464-0.38,0.856-1.14,1.16-2.284
		c0.308-1.144,0.464-3.24,0.464-6.292c0-3.056-0.172-5.228-0.516-6.516c-0.26-0.996-0.628-1.684-1.1-2.072
		c-0.472-0.384-1.012-0.576-1.616-0.576C311.012,222.024,310.476,222.22,310.012,222.6z"/>
	<path style="fill:#FFFFFF;" d="M297.288,220.548c1.704,2.156,2.556,5.684,2.556,10.584c0,4.996-0.772,8.464-2.324,10.412
		s-3.592,2.92-6.128,2.92c-2.52,0-4.484-0.884-5.896-2.66c-1.704-2.156-2.556-5.696-2.556-10.62c0-4.94,0.844-8.472,2.54-10.6
		c1.42-1.8,3.392-2.7,5.912-2.7S295.88,218.776,297.288,220.548z M289.784,222.6c-0.468,0.388-0.856,1.152-1.164,2.288
		c-0.308,1.144-0.46,3.244-0.46,6.296c0,3.056,0.172,5.22,0.516,6.496c0.26,0.996,0.628,1.684,1.1,2.072
		c0.472,0.384,1.016,0.576,1.616,0.576c0.604,0,1.14-0.188,1.608-0.568c0.464-0.38,0.856-1.14,1.16-2.284
		c0.308-1.144,0.46-3.24,0.46-6.292c0-3.056-0.172-5.228-0.516-6.516c-0.26-0.996-0.628-1.684-1.1-2.072
		c-0.472-0.384-1.012-0.576-1.616-0.576C290.788,222.024,290.252,222.22,289.784,222.6z"/>
	<path style="fill:#FFFFFF;" d="M277.06,220.548c1.704,2.156,2.556,5.684,2.556,10.584c0,4.996-0.772,8.464-2.324,10.412
		s-3.592,2.92-6.128,2.92c-2.52,0-4.484-0.884-5.896-2.66c-1.704-2.156-2.556-5.696-2.556-10.62c0-4.94,0.844-8.472,2.54-10.6
		c1.42-1.8,3.392-2.7,5.912-2.7C273.684,217.888,275.652,218.776,277.06,220.548z M269.56,222.6
		c-0.468,0.388-0.856,1.152-1.164,2.288c-0.308,1.144-0.46,3.244-0.46,6.296c0,3.056,0.176,5.22,0.516,6.496
		c0.26,0.996,0.628,1.684,1.1,2.072c0.472,0.384,1.016,0.576,1.616,0.576c0.604,0,1.14-0.188,1.608-0.568
		c0.464-0.38,0.856-1.14,1.164-2.284s0.46-3.24,0.46-6.292c0-3.056-0.172-5.228-0.516-6.516c-0.26-0.996-0.628-1.684-1.1-2.072
		c-0.472-0.384-1.012-0.576-1.616-0.576C270.564,222.024,270.024,222.22,269.56,222.6z"/>
	<path style="fill:#FFFFFF;" d="M246.732,220.548c1.704,2.156,2.556,5.684,2.556,10.584c0,4.996-0.772,8.464-2.324,10.412
		s-3.592,2.92-6.128,2.92c-2.52,0-4.484-0.884-5.896-2.66c-1.704-2.156-2.556-5.696-2.556-10.62c0-4.94,0.844-8.472,2.54-10.6
		c1.42-1.8,3.392-2.7,5.912-2.7C243.356,217.888,245.324,218.776,246.732,220.548z M239.232,222.6
		c-0.468,0.388-0.856,1.152-1.164,2.288c-0.308,1.144-0.46,3.244-0.46,6.296c0,3.056,0.176,5.22,0.516,6.496
		c0.26,0.996,0.628,1.684,1.1,2.072c0.472,0.384,1.012,0.576,1.616,0.576s1.14-0.188,1.608-0.568c0.464-0.38,0.856-1.14,1.16-2.284
		c0.308-1.144,0.464-3.24,0.464-6.292c0-3.056-0.172-5.228-0.516-6.516c-0.26-0.996-0.628-1.684-1.1-2.072
		c-0.472-0.384-1.012-0.576-1.616-0.576C240.232,222.024,239.696,222.22,239.232,222.6z"/>
	<path style="fill:#FFFFFF;" d="M226.508,220.548c1.704,2.156,2.556,5.684,2.556,10.584c0,4.996-0.772,8.464-2.324,10.412
		s-3.592,2.92-6.128,2.92c-2.52,0-4.484-0.884-5.896-2.66c-1.704-2.156-2.556-5.696-2.556-10.62
		C212.16,214.752,223.268,216.464,226.508,220.548z M219.004,222.6c-0.468,0.388-0.856,1.152-1.164,2.288
		c-0.308,1.144-0.46,3.244-0.46,6.296c0,3.056,0.172,5.22,0.516,6.496c0.26,0.996,0.628,1.684,1.1,2.072
		c0.472,0.384,1.016,0.576,1.616,0.576c0.604,0,1.14-0.188,1.608-0.568c0.464-0.38,0.856-1.14,1.164-2.284s0.46-3.24,0.46-6.292
		c0-3.056-0.172-5.228-0.516-6.516c-0.26-0.996-0.628-1.684-1.1-2.072c-0.472-0.384-1.012-0.576-1.616-0.576
		C220.008,222.024,219.472,222.22,219.004,222.6z"/>
	<path style="fill:#FFFFFF;" d="M208.836,231.136c0,4.996-0.772,8.464-2.324,10.412s-3.592,2.92-6.128,2.92
		c-2.52,0-4.484-0.884-5.896-2.66c-1.704-2.156-2.556-5.696-2.556-10.62c0-4.94,0.844-8.472,2.54-10.6c1.42-1.8,3.392-2.7,5.912-2.7
		C207.22,217.888,208.836,224.332,208.836,231.136z M198.78,222.6c-0.468,0.388-0.856,1.152-1.164,2.288
		c-0.308,1.144-0.46,3.244-0.46,6.296c0,3.056,0.176,5.22,0.516,6.496c0.26,0.996,0.628,1.684,1.1,2.072
		c0.472,0.384,1.016,0.576,1.616,0.576c0.604,0,1.14-0.188,1.608-0.568c0.464-0.38,0.856-1.14,1.16-2.284
		c0.308-1.144,0.464-3.24,0.464-6.292c0-3.056-0.172-5.228-0.516-6.516c-0.26-0.996-0.628-1.684-1.1-2.072
		c-0.472-0.384-1.012-0.576-1.616-0.576C199.784,222.024,199.244,222.22,198.78,222.6z"/>
	<path style="fill:#FFFFFF;" d="M186.056,220.548c1.704,2.156,2.556,5.684,2.556,10.584c0,4.996-0.772,8.464-2.324,10.412
		s-3.592,2.92-6.128,2.92c-2.52,0-4.484-0.884-5.896-2.66c-1.704-2.156-2.556-5.696-2.556-10.62c0-4.94,0.844-8.472,2.54-10.6
		c1.42-1.8,3.392-2.7,5.912-2.7S184.648,218.776,186.056,220.548z M178.556,222.6c-0.468,0.388-0.856,1.152-1.164,2.288
		c-0.308,1.144-0.46,3.244-0.46,6.296c0,3.056,0.176,5.22,0.516,6.496c0.26,0.996,0.628,1.684,1.1,2.072
		c0.472,0.384,1.016,0.576,1.616,0.576c0.604,0,1.14-0.188,1.608-0.568c0.464-0.38,0.856-1.14,1.16-2.284
		c0.308-1.144,0.46-3.24,0.46-6.292c0-3.056-0.172-5.228-0.516-6.516c-0.26-0.996-0.628-1.684-1.1-2.072
		c-0.472-0.384-1.012-0.576-1.616-0.576C179.56,222.024,179.02,222.22,178.556,222.6z"/>
	<path style="fill:#FFFFFF;" d="M155.728,220.548c1.704,2.156,2.556,5.684,2.556,10.584c0,4.996-0.772,8.464-2.324,10.412
		s-3.592,2.92-6.128,2.92c-2.52,0-4.484-0.884-5.896-2.66c-1.704-2.156-2.556-5.696-2.556-10.62c0-4.94,0.844-8.472,2.54-10.6
		c1.42-1.8,3.392-2.7,5.912-2.7S154.32,218.776,155.728,220.548z M148.224,222.6c-0.468,0.388-0.856,1.152-1.164,2.288
		c-0.308,1.144-0.46,3.244-0.46,6.296c0,3.056,0.172,5.22,0.516,6.496c0.26,0.996,0.628,1.684,1.1,2.072
		c0.472,0.384,1.016,0.576,1.616,0.576c0.604,0,1.14-0.188,1.608-0.568c0.464-0.38,0.856-1.14,1.164-2.284s0.46-3.24,0.46-6.292
		c0-3.056-0.172-5.228-0.516-6.516c-0.26-0.996-0.628-1.684-1.1-2.072c-0.472-0.384-1.012-0.576-1.616-0.576
		C149.228,222.024,148.692,222.22,148.224,222.6z"/>
	<path style="fill:#FFFFFF;" d="M135.5,220.548c1.704,2.156,2.556,5.684,2.556,10.584c0,4.996-0.772,8.464-2.324,10.412
		s-3.592,2.92-6.128,2.92c-2.52,0-4.484-0.884-5.896-2.66c-1.704-2.156-2.556-5.696-2.556-10.62c0-4.94,0.844-8.472,2.54-10.6
		c1.42-1.8,3.392-2.7,5.912-2.7C132.124,217.888,134.092,218.776,135.5,220.548z M128,222.6c-0.468,0.388-0.856,1.152-1.164,2.288
		c-0.308,1.144-0.46,3.244-0.46,6.296c0,3.056,0.176,5.22,0.516,6.496c0.26,0.996,0.628,1.684,1.1,2.072
		c0.472,0.384,1.012,0.576,1.616,0.576s1.14-0.188,1.608-0.568c0.464-0.38,0.856-1.14,1.16-2.284
		c0.308-1.144,0.464-3.24,0.464-6.292c0-3.056-0.172-5.228-0.516-6.516c-0.26-0.996-0.628-1.684-1.1-2.072
		c-0.472-0.384-1.012-0.576-1.616-0.576C129.004,222.024,128.464,222.22,128,222.6z"/>
	<path style="fill:#FFFFFF;" d="M115.276,220.548c1.704,2.156,2.556,5.684,2.556,10.584c0,4.996-0.772,8.464-2.324,10.412
		c-3.492,4.384-14.58,6.228-14.58-10.36c0-4.94,0.844-8.472,2.54-10.6c1.42-1.8,3.392-2.7,5.912-2.7
		S113.868,218.776,115.276,220.548z M107.776,222.6c-0.468,0.388-0.856,1.152-1.164,2.288c-0.308,1.144-0.46,3.244-0.46,6.296
		c0,3.056,0.172,5.22,0.516,6.496c0.76,2.892,2.948,3.188,4.324,2.076c0.464-0.38,0.856-1.14,1.164-2.284s0.46-3.24,0.46-6.292
		c0-3.056-0.172-5.228-0.516-6.516c-0.26-0.996-0.628-1.684-1.1-2.072c-0.472-0.384-1.012-0.576-1.616-0.576
		C108.776,222.024,108.24,222.22,107.776,222.6z"/>
	<path style="fill:#FFFFFF;" d="M95.052,220.548c1.704,2.156,2.556,5.684,2.556,10.584c0,4.996-0.772,8.464-2.324,10.412
		c-3.46,4.344-14.58,6.192-14.58-10.36c0-4.94,0.844-8.472,2.54-10.6c1.42-1.8,3.392-2.7,5.912-2.7
		C91.676,217.888,93.644,218.776,95.052,220.548z M87.548,222.6c-0.468,0.388-0.856,1.152-1.164,2.288
		c-0.308,1.144-0.46,3.244-0.46,6.296c0,3.056,0.176,5.22,0.516,6.496c0.876,3.348,4.384,3.916,5.488-0.204
		c0.308-1.144,0.464-3.24,0.464-6.292c0-3.056-0.172-5.228-0.516-6.516c-0.26-0.996-0.628-1.684-1.1-2.072
		c-0.472-0.384-1.012-0.576-1.616-0.576C88.552,222.024,88.016,222.22,87.548,222.6z"/>
</g>
<g>
	<rect x="14.6" y="261.88" style="fill:#FDFEFF;" width="482.8" height="39.068"/>
	<path style="fill:#FDFEFF;" d="M458.236,117.88h-134.8c-2.716,0-4.94-2.224-4.94-4.94s2.224-4.94,4.94-4.94h134.8
		C464.764,107.996,464.764,117.88,458.236,117.88z"/>
	<path style="fill:#FDFEFF;" d="M463.18,140.244c0,2.716-2.224,4.94-4.94,4.94h-134.8c-2.716,0-4.94-2.224-4.94-4.94
		c0-6.852-3.688-4.94,139.74-4.94C460.956,135.304,463.18,137.528,463.18,140.244z"/>
	<path style="fill:#FDFEFF;" d="M323.44,80.688h93.628c2.716,0,4.94,2.18,4.94,4.94c0,6.8-0.492,4.94-98.568,4.94
		C316.936,90.572,316.884,80.688,323.44,80.688z"/>
</g>
<path style="fill:#4D5BA5;" d="M455.72,447.052l-2.336,1.452l-41.42-58.968l1.684-1.048c3.624-2.252,4.724-6.972,2.472-10.596
	c-2.244-3.608-6.988-4.712-10.596-2.472l-1.716,1.068L390.756,355.5l-27.248,16.924l13.048,20.988l-1.716,1.064
	c-3.584,2.228-4.74,6.908-2.476,10.62c2.244,3.608,6.988,4.712,10.596,2.472l1.684-1.048l34.616,63.22l-2.364,1.472
	c-1.648,1.004-2.704,2.604-3.112,4.356c-0.404,1.728-0.164,3.628,0.872,5.26c2.016,3.276,6.332,4.28,9.612,2.24l38.836-24.128
	c1.624-1.012,2.704-2.604,3.112-4.352s0.144-3.656-0.864-5.284C463.312,446.044,458.996,445.036,455.72,447.052z"/>
<path style="fill:#F1592F;" d="M413.864,247.616c-2.048-11.676-9.084-20.824-15.084-30.696
	c-6.788-11.168-10.148-19.564-22.708-25.368c-12.132-5.608-26.976-9.248-40.088-11.412c-26.924-4.444-57.648,4.236-80,19.708
	c-1.164,0.804-2.32,1.44-3.468,1.952c-4.08,5.776-8.832,12.088-14.908,15.796c-1.812,6-3.636,11.992-4.8,17.968
	c-3.496,17.928-6.548,39.112-2.048,57c1.62,6.436,1.4,14.86,3.836,20.912c2.232,5.544,6.956,10.076,9.544,15.572
	c3.216,6.84,3.868,15.672,9.508,21.16c4.86,4.728,13.372,6.472,19.656,8.248c8.88,2.504,13.068,9.184,13.628,16.28h77.852
	c1.404-5.988,5.372-11.456,12.5-14.188c9.116-3.492,18.64-25.704,22.5-33.04c7.108-13.5,12.424-26.86,14.012-42.128
	C415.052,273.32,415.976,259.66,413.864,247.616z"/>
<g>
	<path style="fill:#D64331;" d="M364.98,300.056c-0.46-3.164-1.328-4.64-1.02-8.008c0.664-6.732,2.604-12.7,2.092-19.688
		c-0.104-1.12-0.356-2.344-0.764-3.62c-1.532-4.948-4.488-10.968-2.092-15.404c2.908-5.356,11.784-7.496,16.832-11.68
		c0.816-0.612,1.48-1.324,2.04-2.092c2.344-3.16,3.06-12.444,2.292-16.628c-0.356-1.988-1.684-3.824-2.856-5.612
		c-1.072-1.58-2.04-3.164-2.144-4.844c-0.256-4.44,2.856-4.028,6.02-6.272c1.62-1.152,2.896-2.576,4.244-3.924
		c-1.388-1.804-2.956-3.46-4.728-5.02c-0.744,3.056,0.264,5.196-3.852,6.6c-4.64,1.532-6.68,0.408-9.944-3.164
		c-5.916-1.58-11.984-1.532-17.444,1.172c-0.92,0.408-2.04,1.12-3.216,1.376c-0.916,0.152-1.784-0.308-2.6,0.204
		c-0.868,0.512-0.304,1.124-1.02,1.684c-1.58,1.172-7.14,2.244-5.408,5.408c-3.264,3.216-6.272-0.46-7.6,4.848
		c-0.152,0.712-0.408,1.376-0.508,2.092v0.052c-0.204,0.816-0.304,1.684-0.1,2.652c0.308,1.48,1.172,2.704,0.968,4.336
		c-1.376,0.46-2.856,0.664-4.336,0.764c-2.552,0.204-5.152,0.1-7.652,0.304c-0.204,0-0.46,0.052-0.664,0.052
		c-1.632,0.152-4.232-0.152-5.712,0.664c0,0-0.048,0-0.048,0.052c-1.784,1.124-1.632,2.704-1.94,4.796
		c-0.816,5.508-0.56,11.22,1.12,16.424c1.224,3.928,4.132,6.988,5.408,10.916c1.48,0.1,3.364,2.244,4.796,3.112
		c1.684,1.02,2.396,0.56,3.98,1.124c2.14,0.816,2.04,3.008,2.244,5.048c0.052,0.356,0.052,0.664,0.1,0.968
		c0.356,2.396,0.92,4.284,2.5,6.376c2.092,2.856,5.612,4.08,7.704,7.088c5.62,8.132,12.812,12.68,10.712,22.292
		c-0.664,2.908,1.528,4.488,1.888,7.448c0.192,1.904,0.204,4.612-0.256,6.48c-0.764,2.856-0.46,3.212-3.212,3.976
		c5.66,0,6.376,0.716,9.436-3.212c2.436-3.04,1.412-4.672,2.296-8.468C363.5,306.792,365.744,304.9,364.98,300.056z"/>
	<path style="fill:#D64331;" d="M229.048,268.74c1.072-2.244,1.94-4.644,2.908-6.632c2.192-4.388,1.784-9.284,1.784-14.128
		c0-3.876-0.764-7.5-1.072-11.272c-0.012-0.116-0.004-0.208-0.012-0.32c-2.024,10.48-3.828,22.008-4.084,33.332
		C228.732,269.392,228.9,269.072,229.048,268.74z"/>
	<path style="fill:#D64331;" d="M255.988,199.844c-1.164,0.804-2.32,1.44-3.468,1.952c-3.444,4.876-7.368,10.124-12.156,13.888
		c0.268-0.08,0.464-0.176,0.772-0.248c1.02-0.204,3.468-0.104,4.284-0.716c1.684-1.324,0.764-3.776,3.06-5
		c3.368-1.836,9.588,1.48,13.056,1.732c5,0.356,10.048-2.96,12.6-7.04c2.784-4.384,3.856-10.304,3.592-16.344
		C269.964,191.3,262.604,195.264,255.988,199.844z"/>
</g>
<g>
	<path style="fill:#FFFFFF;" d="M406.4,243.848c1.736,2.192,4.184,3.316,7.292,3.316c0.024,0,0.044-0.008,0.064-0.008
		c-0.356-1.904-0.872-3.728-1.464-5.516c-0.2-0.104-0.412-0.184-0.588-0.344c-0.612-0.46-1.02-1.328-1.376-2.552
		c-0.2-0.776-0.348-1.832-0.452-3.14c-1.788-3.74-3.94-7.304-6.172-10.848c-0.28,1.768-0.464,3.688-0.464,5.932
		C403.236,236.808,404.308,241.196,406.4,243.848z"/>
	<path style="fill:#FFFFFF;" d="M388.648,214.212c-2.956,0-5.356,1.02-7.14,3.112c-0.052,0.052-0.152,0.152-0.204,0.256
		c-2.092,2.652-3.112,6.988-3.112,13.108c0,4.64,0.612,8.316,1.836,10.968c0.356,0.816,0.816,1.58,1.328,2.192
		c1.732,2.192,4.184,3.316,7.292,3.316c3.164,0,5.664-1.224,7.6-3.62c1.888-2.396,2.856-6.732,2.856-12.904
		C399.104,222.204,397.124,214.212,388.648,214.212z M392.068,238.492c-0.356,1.428-0.868,2.348-1.428,2.856
		c-0.56,0.46-1.224,0.664-1.988,0.664s-1.428-0.204-1.988-0.716c-0.612-0.46-1.072-1.328-1.376-2.552
		c-0.408-1.58-0.664-4.284-0.664-8.06s0.204-6.376,0.612-7.804c0.356-1.376,0.868-2.348,1.428-2.804
		c0.56-0.512,1.224-0.716,1.988-0.716s1.428,0.204,1.988,0.716c0.612,0.46,1.072,1.328,1.376,2.552
		c0.408,1.58,0.612,4.284,0.612,8.06S392.472,237.064,392.068,238.492z"/>
	<path style="fill:#FFFFFF;" d="M370.896,217.528c-1.736-2.192-4.184-3.316-7.292-3.316c-3.164,0-5.56,1.12-7.344,3.368
		c-2.092,2.652-3.164,6.988-3.164,13.108s1.072,10.508,3.164,13.16c1.784,2.192,4.18,3.316,7.344,3.316c3.112,0,5.66-1.224,7.6-3.62
		c1.888-2.396,2.856-6.732,2.856-12.904C374.06,224.568,372.988,220.18,370.896,217.528z M367.02,238.492
		c-0.356,1.428-0.868,2.348-1.428,2.856c-0.612,0.46-1.276,0.664-1.988,0.664c-0.764,0-1.428-0.204-2.04-0.716
		c-0.56-0.46-1.02-1.328-1.328-2.552c-0.46-1.58-0.664-4.284-0.664-8.06s0.204-6.376,0.56-7.804c0.408-1.376,0.868-2.348,1.48-2.804
		c0.56-0.512,1.224-0.716,1.988-0.716c0.712,0,1.376,0.204,1.988,0.716c0.56,0.46,1.02,1.328,1.376,2.552
		c0.408,1.58,0.612,4.284,0.612,8.06C367.584,234.464,367.38,237.064,367.02,238.492z"/>
	<path style="fill:#FFFFFF;" d="M333.308,217.528v-0.052c-1.784-2.144-4.232-3.264-7.296-3.264c-3.112,0-5.56,1.12-7.344,3.368
		c-1.58,1.988-2.5,4.896-2.908,8.772c-0.156,1.328-0.204,2.756-0.204,4.336c0,6.12,1.02,10.508,3.16,13.16
		c1.736,2.192,4.184,3.316,7.292,3.316c3.164,0,5.664-1.224,7.6-3.62s2.856-6.732,2.856-12.904
		C336.468,224.568,335.448,220.18,333.308,217.528z M329.428,238.492c-0.356,1.428-0.868,2.348-1.428,2.856
		c-0.56,0.46-1.224,0.664-1.988,0.664s-1.428-0.204-1.988-0.716c-0.612-0.46-1.072-1.328-1.376-2.552
		c-0.408-1.58-0.612-4.284-0.612-8.06c0-2.04,0.048-3.724,0.152-5.1c0.104-1.172,0.204-2.04,0.408-2.704
		c0.356-1.376,0.868-2.348,1.428-2.804c0.56-0.512,1.224-0.716,1.988-0.716s1.428,0.204,1.988,0.716
		c0.612,0.46,1.072,1.328,1.376,2.552c0.152,0.664,0.308,1.58,0.46,2.652c0.104,1.428,0.204,3.264,0.204,5.408
		C330.04,234.464,329.836,237.064,329.428,238.492z"/>
	<path style="fill:#FFFFFF;" d="M308.26,217.528c-1.732-2.192-4.18-3.316-7.292-3.316s-5.56,1.12-7.344,3.368
		c-2.092,2.652-3.112,6.988-3.112,13.108s1.02,10.508,3.164,13.16c1.732,2.192,4.18,3.316,7.292,3.316s5.664-1.224,7.6-3.62
		c1.888-2.396,2.856-6.732,2.856-12.904C311.424,224.568,310.352,220.18,308.26,217.528z M304.384,238.492
		c-0.356,1.428-0.868,2.348-1.428,2.856c-0.612,0.46-1.224,0.664-1.988,0.664s-1.428-0.204-1.988-0.716
		c-0.612-0.46-1.072-1.328-1.376-2.552c-0.408-1.58-0.664-4.284-0.664-8.06s0.204-6.376,0.612-7.804
		c0.356-1.376,0.816-2.348,1.428-2.804c0.56-0.512,1.224-0.716,1.988-0.716s1.428,0.204,1.988,0.716
		c0.612,0.46,1.02,1.328,1.376,2.552c0.408,1.58,0.612,4.284,0.612,8.06C304.948,234.464,304.792,237.064,304.384,238.492z"/>
	<path style="fill:#FFFFFF;" d="M283.216,217.528c-1.736-2.192-4.184-3.316-7.292-3.316c-3.164,0-5.612,1.12-7.344,3.368
		c-2.092,2.652-3.164,6.988-3.164,13.108s1.072,10.508,3.164,13.16c1.784,2.192,4.18,3.316,7.344,3.316
		c3.112,0,5.66-1.224,7.548-3.62c1.936-2.396,2.908-6.732,2.908-12.904C286.38,224.568,285.308,220.18,283.216,217.528z
		 M279.34,238.492c-0.408,1.428-0.868,2.348-1.428,2.856c-0.612,0.46-1.276,0.664-1.988,0.664c-0.764,0-1.428-0.204-2.04-0.716
		c-0.56-0.46-1.02-1.328-1.328-2.552c-0.46-1.58-0.664-4.284-0.664-8.06s0.204-6.376,0.56-7.804c0.408-1.376,0.868-2.348,1.48-2.804
		c0.56-0.512,1.224-0.716,1.988-0.716c0.712,0,1.376,0.204,1.988,0.716c0.56,0.46,1.02,1.328,1.376,2.552
		c0.408,1.58,0.612,4.284,0.612,8.06C279.9,234.464,279.7,237.064,279.34,238.492z"/>
	<path style="fill:#FFFFFF;" d="M258.172,217.528c-1.784-2.192-4.184-3.316-7.344-3.316c-3.112,0-5.56,1.12-7.292,3.368
		c-2.092,2.652-3.164,6.988-3.164,13.108s1.072,10.508,3.164,13.16c1.736,2.192,4.184,3.316,7.292,3.316
		c3.164,0,5.664-1.224,7.6-3.62c1.94-2.396,2.908-6.732,2.908-12.904C261.336,224.568,260.264,220.18,258.172,217.528z
		 M254.296,238.492c-0.408,1.428-0.868,2.348-1.48,2.856c-0.56,0.46-1.224,0.664-1.988,0.664c-0.712,0-1.376-0.204-1.988-0.716
		c-0.56-0.46-1.02-1.328-1.376-2.552c-0.408-1.58-0.612-4.284-0.612-8.06s0.204-6.376,0.56-7.804
		c0.408-1.376,0.868-2.348,1.428-2.804c0.612-0.512,1.276-0.716,1.988-0.716c0.764,0,1.428,0.204,2.04,0.716
		c0.56,0.46,1.02,1.328,1.328,2.552c0.46,1.58,0.664,4.284,0.664,8.06C254.856,234.464,254.652,237.064,254.296,238.492z"/>
</g>
<path style="fill:#FDFEFF;" d="M228.612,268.74c-0.248,8.196,0.26,16.304,2.152,23.824c2.14,8.508,0.848,16.524,5.716,24.584
	h168.368c4.516-10.096,7.768-20.404,8.952-31.772c0.556-5.324,1.024-10.964,1.22-16.636L228.612,268.74L228.612,268.74z"/>
<path style="fill:#70B1E1;" d="M262.036,178.848c-52.856,32.864-69.056,102.336-36.192,155.188
	c32.864,52.856,102.336,69.056,155.188,36.192c52.844-32.856,69.056-102.336,36.192-155.188
	C384.36,162.184,314.876,145.992,262.036,178.848z M368.78,350.52c-41.968,26.096-97.156,13.224-123.24-28.728
	c-26.096-41.968-13.216-97.14,28.752-123.236c41.952-26.084,97.12-13.22,123.212,28.744
	C423.588,269.252,410.732,324.432,368.78,350.52z"/>
<g>
</g>
<g>
</g>
<g>
</g>
<g>
</g>
<g>
</g>
<g>
</g>
<g>
</g>
<g>
</g>
<g>
</g>
<g>
</g>
<g>
</g>
<g>
</g>
<g>
</g>
<g>
</g>
<g>
</g>
</svg>
