<?xml version="1.0" encoding="iso-8859-1"?>
<!-- Generator: Adobe Illustrator 19.0.0, SVG Export Plug-In . SVG Version: 6.00 Build 0)  -->
<svg version="1.1" id="Capa_1" xmlns="http://www.w3.org/2000/svg" xmlns:xlink="http://www.w3.org/1999/xlink" x="0px" y="0px"
	 viewBox="0 0 512 512" style="enable-background:new 0 0 512 512;" xml:space="preserve">
<circle style="fill:#896D61;" cx="256" cy="256" r="256"/>
<rect x="84.44" y="32" style="fill:#FDFEFF;" width="343.16" height="448"/>
<g>
	<rect x="105.524" y="365.28" style="fill:#D2D2D4;" width="205.6" height="8.36"/>
	<rect x="105.524" y="391.64" style="fill:#D2D2D4;" width="205.6" height="8.36"/>
	<rect x="105.524" y="418" style="fill:#D2D2D4;" width="205.6" height="8.36"/>
	<rect x="105.524" y="444.32" style="fill:#D2D2D4;" width="205.6" height="8.36"/>
</g>
<g>
	<rect x="121.792" y="162.876" style="fill:#F5EA07;" width="14.124" height="8.724"/>
	<rect x="311.52" y="162.876" style="fill:#F5EA07;" width="14.124" height="8.724"/>
	
		<rect x="134.506" y="210.301" transform="matrix(-0.866 0.5 -0.5 -0.866 371.502 329.7802)" style="fill:#F5EA07;" width="14.124" height="8.724"/>
	
		<rect x="298.794" y="115.459" transform="matrix(-0.866 0.5 -0.5 -0.866 630.644 70.6572)" style="fill:#F5EA07;" width="14.124" height="8.724"/>
	
		<rect x="264.078" y="80.73" transform="matrix(-0.5 0.866 -0.866 -0.5 480.4043 -107.1734)" style="fill:#F5EA07;" width="14.124" height="8.724"/>
	<rect x="219.352" y="65.316" style="fill:#F5EA07;" width="8.724" height="14.124"/>
	
		<rect x="169.208" y="80.7" transform="matrix(0.5 0.866 -0.866 0.5 161.7979 -110.1234)" style="fill:#F5EA07;" width="14.124" height="8.724"/>
	
		<rect x="298.837" y="210.323" transform="matrix(0.866 0.5 -0.5 0.866 148.3293 -124.1889)" style="fill:#F5EA07;" width="14.124" height="8.724"/>
	
		<rect x="134.488" y="115.465" transform="matrix(0.866 0.5 -0.5 0.866 78.8799 -54.7222)" style="fill:#F5EA07;" width="14.124" height="8.724"/>
	<path style="fill:#F5EA07;" d="M304.392,163.48c0.992,19.88-5.216,38.288-16.24,52.844c-15.324,20.228-23.54,44.948-23.54,70.328
		v4.444H182.82v-4.432c0-25.844-9.088-50.564-24.348-71.42c-9.768-13.352-15.536-29.816-15.536-47.628
		c0-46.32,39.016-83.52,85.968-80.584C269.488,89.564,302.368,122.868,304.392,163.48z"/>
</g>
<path style="fill:#656D7A;" d="M258.896,331.908l-9.368,5.788c-4.44,1.104-8.884,1.924-13.324,2.448
	c-8.324,1.004-16.644,1.004-24.968,0c-4.44-0.528-8.884-1.344-13.324-2.448l-9.368-5.788c-2.624-1.624-2.624-5.448,0-7.068
	l3.652-2.256c2.624-1.624,2.624-5.44,0-7.068l-3.648-2.256c-2.632-1.62-2.632-5.44,0-7.068l3.64-2.252
	c2.632-1.624,2.632-5.448,0-7.068l-9.364-5.788h81.788l-9.364,5.788c-1.664,1.024-2.272,2.928-1.828,4.6
	c0.252,0.976,0.864,1.872,1.828,2.468l3.64,2.252c1.036,0.636,1.66,1.612,1.88,2.664c0.344,1.62-0.288,3.42-1.88,4.4l-3.648,2.264
	c-0.86,0.532-1.436,1.304-1.728,2.152c-0.612,1.74-0.036,3.824,1.728,4.916l3.652,2.256
	C261.52,326.464,261.52,330.284,258.896,331.908z"/>
<g>
	<path style="fill:#4D535F;" d="M264.612,291.096l-9.364,5.788c-1.664,1.024-2.272,2.928-1.828,4.6l-60.172,8.66l70.532-19.048
		H264.612z"/>
	<path style="fill:#4D535F;" d="M258.888,313.264l-3.648,2.256c-0.86,0.532-1.436,1.304-1.728,2.152l-57.616,13.38l64.876-22.188
		C261.116,310.484,260.484,312.284,258.888,313.264z"/>
</g>
<path style="fill:#353944;" d="M236.2,340.144c-8.324,1.004-16.644,1.004-24.968,0c0.796-2.868,6.08-5.092,12.484-5.092
	C230.12,335.056,235.404,337.276,236.2,340.144z"/>
<path style="fill:#E8BB20;" d="M239.552,291.424l-7.372-0.692l8.692-92.52H206.56l8.696,92.52l-7.372,0.692l-8.76-93.212h-14.128
	c-10.76,0-19.512-8.752-19.512-19.512c0-13.716,9.792-20.972,19.512-20.972c10.016,0,18.356,7.512,19.404,17.468l1.468,15.608
	h35.704l1.464-15.568c1.052-10,9.396-17.512,19.408-17.512c9.82,0,19.512,7.328,19.512,20.972c0,10.76-8.752,19.512-19.512,19.512
	h-14.128L239.552,291.424z M249.004,190.808h13.432c6.676,0,12.108-5.432,12.108-12.108c0-9.144-5.964-13.564-12.108-13.564
	c-6.212,0-11.388,4.66-12.04,10.84L249.004,190.808z M184.992,165.136c-6.172,0-12.104,4.428-12.104,13.564
	c0,6.676,5.432,12.108,12.104,12.108h13.432l-1.396-14.872C196.384,169.796,191.208,165.136,184.992,165.136z"/>
<polygon style="fill:#4D535F;" points="342.152,406.576 342.684,435.2 361.488,413.616 "/>
<path style="fill:#F7CFA3;" d="M344.72,364.816l-1.54,4.228c-1.084,2.976-1.608,6.124-1.548,9.288l0.524,28.24l19.336,7.036
	l18.556-21.296c2.08-2.388,3.7-5.136,4.784-8.112l1.54-4.228L344.72,364.816z"/>
<path style="fill:#5F87C4;" d="M443.676,179.324l-72.628,199.54c-1.396,3.832,0.58,8.072,4.416,9.468
	c3.832,1.396,8.072-0.58,9.468-4.416l72.628-199.54L443.676,179.324z"/>
<path style="fill:#70B1E1;" d="M429.792,174.272l-72.624,199.54c-1.396,3.832,0.58,8.072,4.416,9.468
	c3.832,1.396,8.072-0.58,9.468-4.416l72.628-199.54L429.792,174.272z"/>
<path style="fill:#5F87C4;" d="M415.912,169.22l-72.628,199.54c-1.396,3.832,0.58,8.072,4.416,9.468
	c3.832,1.396,8.072-0.58,9.468-4.416l72.628-199.54L415.912,169.22z"/>
<rect x="416.382" y="166.634" transform="matrix(0.9397 0.342 -0.342 0.9397 85.2277 -139.6168)" style="fill:#656D7A;" width="44.32" height="10.496"/>
<path style="fill:#F1592F;" d="M461.884,142.512l-22.376-8.144c-5.32-1.936-11.208,0.808-13.144,6.128l-6.864,18.86l41.648,15.16
	l6.864-18.86C469.952,150.332,467.204,144.448,461.884,142.512z"/>
<g>
</g>
<g>
</g>
<g>
</g>
<g>
</g>
<g>
</g>
<g>
</g>
<g>
</g>
<g>
</g>
<g>
</g>
<g>
</g>
<g>
</g>
<g>
</g>
<g>
</g>
<g>
</g>
<g>
</g>
</svg>
