<?xml version="1.0" encoding="iso-8859-1"?>
<!-- Generator: Adobe Illustrator 19.0.0, SVG Export Plug-In . SVG Version: 6.00 Build 0)  -->
<svg version="1.1" id="Capa_1" xmlns="http://www.w3.org/2000/svg" xmlns:xlink="http://www.w3.org/1999/xlink" x="0px" y="0px"
	 viewBox="0 0 512 512" style="enable-background:new 0 0 512 512;" xml:space="preserve">
<circle style="fill:#4786C6;" cx="256" cy="256" r="256"/>
<polygon style="fill:#FDFEFF;" points="431.88,32 431.88,480 80.12,480 80.12,119.12 167.24,32 "/>
<polygon style="fill:#E8E7E8;" points="167.24,32 167.24,119.12 80.12,119.12 "/>
<path style="fill:#FDFEFF;" d="M255.992,191.296c-41.684,0-75.464,33.804-75.464,75.484c0,41.684,33.78,75.464,75.464,75.464
	s75.464-33.78,75.464-75.464S297.676,191.296,255.992,191.296z M255.992,342.06c-41.592,0-75.28-33.688-75.28-75.28
	s33.688-75.304,75.28-75.304s75.28,33.712,75.28,75.304S297.584,342.06,255.992,342.06z"/>
<path style="fill:#F1592F;" d="M389.796,286.54v-35.676l-21.232-2.328c-1.164-6.42-2.812-12.616-5.012-18.616l17.212-12.66
	l-17.828-30.884l-19.584,8.616c-4.132-4.924-8.684-9.496-13.628-13.604l8.616-19.608l-30.884-17.828l-12.66,17.232
	c-5.98-2.2-12.2-3.848-18.616-4.988l-2.352-21.276h-35.652l-2.352,21.276c-6.396,1.144-12.64,2.792-18.616,4.988l-12.66-17.232
	l-30.884,17.828l8.616,19.608c-4.944,4.112-9.496,8.684-13.628,13.604l-19.584-8.616L131.24,217.26l17.212,12.66
	c-2.2,6-3.848,12.2-5.012,18.616l-21.232,2.328v35.676l21.232,2.328c1.164,6.42,2.812,12.66,5.012,18.64l-17.212,12.66l17.828,30.86
	l19.584-8.572c4.156,4.9,8.728,9.472,13.628,13.604l-8.616,19.584l30.884,17.828l12.66-17.212c5.98,2.176,12.22,3.848,18.616,4.988
	l2.352,21.232h35.652l2.352-21.232c6.42-1.144,12.64-2.812,18.616-4.988l12.66,17.212l30.884-17.828l-8.596-19.584
	c4.924-4.132,9.472-8.704,13.604-13.604l19.584,8.572l17.828-30.86l-17.212-12.66c2.2-5.98,3.848-12.22,5.012-18.64L389.796,286.54z
	 M256,353.896c-47.064,0-85.204-38.12-85.204-85.184S208.94,183.484,256,183.484c47.064,0,85.184,38.168,85.184,85.228
	S303.064,353.896,256,353.896z"/>
<path style="fill:#E8E7E8;" d="M332.06,264.688c0.936,18.744-4.916,36.1-15.312,49.824c-14.448,19.072-22.196,42.38-22.196,66.308
	v4.188h-77.116v-4.18c0-24.368-8.568-47.672-22.956-67.34c-9.208-12.588-14.648-28.112-14.648-44.904
	c0-43.672,36.788-78.744,81.052-75.98C299.152,194.996,330.148,226.396,332.06,264.688z"/>
<path style="fill:#353944;" d="M270.46,418.984h-28.936v4.004c0,3.868,3.136,7.004,7.004,7.004h14.924
	c3.868,0,7.004-3.136,7.004-7.004v-4.004H270.46z"/>
<path style="fill:#D2D2D4;" d="M276.8,387.684h-41.628l-0.52-3.828c-2.9-21.372-11.236-62.452-24.096-80.84
	c-7.024-10.044-10.74-21.948-10.74-34.428v-4.304l112.076-3.036l0.208,4.332c0.664,13.948-3.22,27.164-11.232,38.22
	c-12.56,17.344-20.724,58.472-23.564,80.04L276.8,387.684z M242.868,378.836h26.208c2.112-14.316,9.78-59.724,24.632-80.228
	c5.988-8.264,9.264-17.964,9.592-28.276l-94.464,2.556c0.736,9.076,3.8,17.664,8.968,25.056
	C232.904,319.528,240.712,364.624,242.868,378.836z"/>
<path style="fill:#656D7A;" d="M280.112,421.108H231.88c-7.976,0-14.44-6.464-14.44-14.44V378.12h77.112v28.548
	C294.552,414.64,288.088,421.108,280.112,421.108z"/>
<g>
	<rect x="217.44" y="385" style="fill:#353944;" width="77.112" height="4.136"/>
	<rect x="217.44" y="394.24" style="fill:#353944;" width="77.112" height="4.136"/>
	<rect x="217.44" y="403.44" style="fill:#353944;" width="77.112" height="4.136"/>
</g>
<path style="fill:#F2EA12;" d="M255.996,325.288c-31.46,0-57.052-25.596-57.052-57.052s25.592-57.052,57.052-57.052
	s57.052,25.592,57.052,57.052S287.452,325.288,255.996,325.288z"/>
<g>
	<path style="fill:#FAD307;" d="M255.996,316.696c-26.72,0-48.456-21.74-48.456-48.46s21.74-48.456,48.456-48.456
		s48.456,21.74,48.456,48.456C304.452,294.956,282.712,316.696,255.996,316.696z M255.996,226.852
		c-22.82,0-41.384,18.564-41.384,41.384s18.564,41.384,41.384,41.384s41.384-18.564,41.384-41.384
		C297.376,245.416,278.816,226.852,255.996,226.852z"/>
	<path style="fill:#FAD307;" d="M254.264,300.892v-5.752c-7.196-0.736-13.656-3.596-19.384-8.584l5.752-6.856
		c4.416,3.836,8.956,6.116,13.632,6.856v-15.284c-5.936-1.416-10.28-3.284-13.04-5.596s-4.14-5.74-4.14-10.28
		s1.592-8.26,4.768-11.148c3.176-2.888,7.316-4.464,12.408-4.724v-3.94h5.044v4.016c5.776,0.424,11.24,2.392,16.388,5.912
		l-5.124,7.248c-3.464-2.468-7.224-3.992-11.264-4.572V263h0.236c6.04,1.42,10.476,3.336,13.312,5.752
		c2.836,2.416,4.256,5.924,4.256,10.52c0,4.596-1.628,8.34-4.884,11.228c-3.256,2.892-7.564,4.464-12.92,4.728v5.672h-5.04V300.892z
		 M248.708,250.04c-1.336,1.18-2.008,2.652-2.008,4.412s0.524,3.152,1.576,4.172c1.052,1.024,3.044,2.012,5.988,2.956v-13.632
		C251.9,248.16,250.048,248.856,248.708,250.04z M265.292,284.584c1.468-1.204,2.204-2.728,2.204-4.568
		c0-1.836-0.58-3.296-1.736-4.372c-1.156-1.076-3.308-2.088-6.46-3.032v14.18C261.824,286.532,263.82,285.796,265.292,284.584z"/>
</g>
<g>
</g>
<g>
</g>
<g>
</g>
<g>
</g>
<g>
</g>
<g>
</g>
<g>
</g>
<g>
</g>
<g>
</g>
<g>
</g>
<g>
</g>
<g>
</g>
<g>
</g>
<g>
</g>
<g>
</g>
</svg>
