<?xml version="1.0" encoding="iso-8859-1"?>
<!-- Generator: Adobe Illustrator 19.0.0, SVG Export Plug-In . SVG Version: 6.00 Build 0)  -->
<svg version="1.1" id="Capa_1" xmlns="http://www.w3.org/2000/svg" xmlns:xlink="http://www.w3.org/1999/xlink" x="0px" y="0px"
	 viewBox="0 0 512 512" style="enable-background:new 0 0 512 512;" xml:space="preserve">
<circle style="fill:#4C5BA8;" cx="256" cy="256" r="256"/>
<polygon style="fill:#FDFEFF;" points="167.228,32 167.228,119.104 80.128,119.104 80.128,480 431.872,480 431.872,32 "/>
<polygon style="fill:#E8E7E8;" points="167.228,32.668 80.128,119.768 167.228,119.768 "/>
<rect x="166.284" y="148.12" style="fill:#7EC359;" width="179.436" height="16.668"/>
<g>
	<rect x="113.916" y="197.92" style="fill:#E8E7E8;" width="284.16" height="16.668"/>
	<rect x="113.916" y="247.724" style="fill:#E8E7E8;" width="284.16" height="16.668"/>
	<rect x="113.916" y="297.52" style="fill:#E8E7E8;" width="284.16" height="16.668"/>
	<rect x="113.916" y="347.32" style="fill:#E8E7E8;" width="284.16" height="16.668"/>
</g>
<polygon style="fill:#656D7A;" points="321.344,391.044 318.144,428.832 345.86,402.952 "/>
<path style="fill:#F7CFA3;" d="M330.412,336.364l-2.604,5.364c-1.832,3.772-2.952,7.852-3.308,12.028l-3.156,37.284l24.52,11.908
	l27.352-25.536c5.276-4.928,7.048-9.292,10.016-15.4L330.412,336.364z"/>
<path style="fill:#D64331;" d="M442.864,194.408l-79.672,164.056c-2.36,4.86-0.332,10.716,4.528,13.076s10.716,0.332,13.076-4.528
	l79.672-164.056L442.864,194.408z"/>
<path style="fill:#F1592F;" d="M425.26,185.86l-79.672,164.052c-2.36,4.86-0.332,10.716,4.528,13.076
	c4.86,2.36,10.716,0.332,13.076-4.528l79.672-164.056L425.26,185.86z"/>
<path style="fill:#D64331;" d="M407.656,177.308l-79.672,164.056c-2.36,4.86-0.332,10.716,4.528,13.076
	c4.86,2.36,10.716,0.332,13.076-4.528l79.672-164.056L407.656,177.308z"/>
<rect x="407.734" y="176.967" transform="matrix(0.8995 0.4368 -0.4368 0.8995 124.2457 -172.4555)" style="fill:#F5EA07;" width="58.709" height="13.899"/>
<path style="fill:#7EC359;" d="M472.984,146.088l-28.376-13.78c-6.748-3.276-14.876-0.464-18.156,6.284l-12.728,26.212
	l52.812,25.648l12.728-26.212C482.548,157.492,479.736,149.364,472.984,146.088z"/>
<rect x="113.916" y="391.04" style="fill:#656D7A;" width="93.644" height="45.788"/>
<g>
</g>
<g>
</g>
<g>
</g>
<g>
</g>
<g>
</g>
<g>
</g>
<g>
</g>
<g>
</g>
<g>
</g>
<g>
</g>
<g>
</g>
<g>
</g>
<g>
</g>
<g>
</g>
<g>
</g>
</svg>
