<?xml version="1.0" encoding="iso-8859-1"?>
<!-- Generator: Adobe Illustrator 19.0.0, SVG Export Plug-In . SVG Version: 6.00 Build 0)  -->
<svg version="1.1" id="Capa_1" xmlns="http://www.w3.org/2000/svg" xmlns:xlink="http://www.w3.org/1999/xlink" x="0px" y="0px"
	 viewBox="0 0 512 512" style="enable-background:new 0 0 512 512;" xml:space="preserve">
<circle style="fill:#F1592F;" cx="256" cy="256" r="256"/>
<path style="fill:#E8BB20;" d="M465.912,333.468c0,18.844-28.296,34.12-63.204,34.12s-63.204-15.276-63.204-34.12v-13.5h126.412
	v13.5H465.912z"/>
<ellipse style="fill:#F5EA07;" cx="402.72" cy="319.968" rx="63.204" ry="34.12"/>
<path style="fill:#E8BB20;" d="M465.912,311.712c0,18.844-28.296,34.12-63.204,34.12s-63.204-15.276-63.204-34.12v-13.5h126.412
	v13.5H465.912z"/>
<ellipse style="fill:#F5EA07;" cx="402.72" cy="298.2" rx="63.204" ry="34.12"/>
<path style="fill:#E8BB20;" d="M465.912,289.96c0,18.844-28.296,34.12-63.204,34.12S339.5,308.8,339.5,289.96v-13.5h126.412V289.96z
	"/>
<ellipse style="fill:#F5EA07;" cx="402.72" cy="276.44" rx="63.204" ry="34.12"/>
<path style="fill:#E8BB20;" d="M465.912,268.204c0,18.844-28.296,34.12-63.204,34.12s-63.204-15.276-63.204-34.12v-13.5h126.412
	v13.5H465.912z"/>
<ellipse style="fill:#F5EA07;" cx="402.72" cy="254.72" rx="63.204" ry="34.12"/>
<path style="fill:#E8BB20;" d="M465.912,246.448c0,18.844-28.296,34.12-63.204,34.12s-63.204-15.276-63.204-34.12v-13.5h126.412
	v13.5H465.912z"/>
<ellipse style="fill:#F5EA07;" cx="402.72" cy="232.96" rx="63.204" ry="34.12"/>
<path style="fill:#E8BB20;" d="M465.912,224.692c0,18.844-28.296,34.12-63.204,34.12s-63.204-15.276-63.204-34.12v-13.5h126.412
	v13.5H465.912z"/>
<ellipse style="fill:#F5EA07;" cx="402.72" cy="211.196" rx="63.204" ry="34.12"/>
<path style="fill:#E8BB20;" d="M465.912,202.936c0,18.844-28.296,34.12-63.204,34.12s-63.204-15.276-63.204-34.12V189.44h126.412
	v13.496H465.912z"/>
<ellipse style="fill:#F5EA07;" cx="402.72" cy="189.44" rx="63.204" ry="34.12"/>
<path style="fill:#E8BB20;" d="M465.912,181.184c0,18.844-28.296,34.12-63.204,34.12s-63.204-15.276-63.204-34.12v-13.5h126.412
	v13.5H465.912z"/>
<ellipse style="fill:#F5EA07;" cx="402.72" cy="167.684" rx="63.204" ry="34.12"/>
<g>
	<path style="fill:#E8BB20;" d="M402.704,194.696c-29.864,0-54.16-12.116-54.16-27.008s24.3-27.008,54.16-27.008
		c29.864,0,54.16,12.116,54.16,27.008C456.864,182.576,432.564,194.696,402.704,194.696z M402.704,145.436
		c-24.596,0-44.612,9.98-44.612,22.248s20.012,22.248,44.612,22.248c24.596,0,44.612-9.98,44.612-22.248
		C447.312,155.416,427.3,145.436,402.704,145.436z"/>
	<path style="fill:#E8BB20;" d="M400.968,184.016v-2.876c-7.216-0.368-13.696-1.8-19.44-4.292l5.768-3.428
		c4.428,1.916,8.984,3.06,13.672,3.428v-7.644c-5.956-0.708-10.312-1.64-13.076-2.796c-2.764-1.156-4.152-2.868-4.152-5.14
		s1.596-4.132,4.78-5.576c3.188-1.444,7.336-2.232,12.444-2.364v-1.972h5.056v2.008c5.792,0.212,11.272,1.196,16.436,2.956
		l-5.136,3.624c-3.476-1.236-7.244-1.996-11.296-2.288v7.408h0.236c6.056,0.712,10.508,1.668,13.352,2.876
		c2.844,1.208,4.268,2.964,4.268,5.26c0,2.3-1.632,4.172-4.9,5.616c-3.268,1.448-7.584,2.232-12.956,2.364v2.836L400.968,184.016
		L400.968,184.016z M395.396,158.584c-1.34,0.592-2.012,1.324-2.012,2.208c0,0.88,0.524,1.576,1.58,2.088s3.056,1.004,6.004,1.48
		v-6.816C398.6,157.644,396.74,157.992,395.396,158.584z M412.032,175.86c1.472-0.604,2.212-1.364,2.212-2.284
		s-0.58-1.648-1.74-2.188c-1.156-0.54-3.316-1.044-6.48-1.516v7.092C408.552,176.832,410.556,176.464,412.032,175.86z"/>
	<path style="fill:#E8BB20;" d="M319.204,333.468c0,18.844-28.3,34.12-63.204,34.12s-63.204-15.276-63.204-34.12v-13.5h126.412v13.5
		H319.204z"/>
</g>
<ellipse style="fill:#F5EA07;" cx="256" cy="319.968" rx="63.204" ry="34.12"/>
<path style="fill:#E8BB20;" d="M319.204,311.712c0,18.844-28.3,34.12-63.204,34.12s-63.204-15.276-63.204-34.12v-13.5h126.412v13.5
	H319.204z"/>
<ellipse style="fill:#F5EA07;" cx="256" cy="298.2" rx="63.204" ry="34.12"/>
<path style="fill:#E8BB20;" d="M319.204,289.96c0,18.844-28.3,34.12-63.204,34.12s-63.204-15.28-63.204-34.12v-13.5h126.412v13.5
	H319.204z"/>
<ellipse style="fill:#F5EA07;" cx="256" cy="276.44" rx="63.204" ry="34.12"/>
<path style="fill:#E8BB20;" d="M319.204,268.204c0,18.844-28.3,34.12-63.204,34.12s-63.204-15.276-63.204-34.12v-13.5h126.412v13.5
	H319.204z"/>
<ellipse style="fill:#F5EA07;" cx="256" cy="254.72" rx="63.204" ry="34.12"/>
<path style="fill:#E8BB20;" d="M319.204,246.448c0,18.844-28.3,34.12-63.204,34.12s-63.204-15.276-63.204-34.12v-13.5h126.412v13.5
	H319.204z"/>
<ellipse style="fill:#F5EA07;" cx="256" cy="232.96" rx="63.204" ry="34.12"/>
<g>
	<path style="fill:#E8BB20;" d="M255.996,259.96c-29.864,0-54.16-12.116-54.16-27.008s24.3-27.008,54.16-27.008
		s54.16,12.116,54.16,27.008C310.16,247.844,285.86,259.96,255.996,259.96z M255.996,210.704c-24.596,0-44.612,9.98-44.612,22.248
		s20.012,22.248,44.612,22.248s44.612-9.98,44.612-22.248C300.608,220.684,280.596,210.704,255.996,210.704z"/>
	<path style="fill:#E8BB20;" d="M254.264,249.28v-2.876c-7.216-0.368-13.696-1.8-19.44-4.292l5.768-3.428
		c4.428,1.916,8.984,3.06,13.672,3.428v-7.644c-5.956-0.708-10.312-1.64-13.076-2.796c-2.764-1.156-4.152-2.868-4.152-5.14
		s1.596-4.132,4.78-5.576c3.188-1.444,7.336-2.232,12.444-2.364v-1.972h5.056v2.008c5.792,0.212,11.272,1.196,16.436,2.956
		l-5.136,3.624c-3.476-1.236-7.244-1.996-11.296-2.288v7.408h0.236c6.056,0.712,10.508,1.668,13.352,2.876
		c2.844,1.208,4.268,2.964,4.268,5.26c0,2.3-1.632,4.172-4.9,5.616c-3.268,1.448-7.584,2.232-12.956,2.364v2.836L254.264,249.28
		L254.264,249.28z M248.692,223.848c-1.34,0.592-2.012,1.324-2.012,2.208c0,0.88,0.524,1.576,1.58,2.088s3.056,1.004,6.004,1.48
		v-6.816C251.892,222.908,250.036,223.256,248.692,223.848z M265.324,241.124c1.472-0.604,2.212-1.364,2.212-2.284
		s-0.58-1.648-1.74-2.188c-1.156-0.54-3.316-1.044-6.48-1.516v7.092C261.848,242.1,263.848,241.732,265.324,241.124z"/>
	<path style="fill:#E8BB20;" d="M172.5,333.468c0,18.844-28.296,34.12-63.204,34.12s-63.204-15.276-63.204-34.12v-13.5h126.412v13.5
		H172.5z"/>
</g>
<ellipse style="fill:#F5EA07;" cx="109.296" cy="319.968" rx="63.204" ry="34.12"/>
<path style="fill:#E8BB20;" d="M172.5,311.712c0,18.844-28.296,34.12-63.204,34.12s-63.204-15.276-63.204-34.12v-13.5h126.412v13.5
	H172.5z"/>
<ellipse style="fill:#F5EA07;" cx="109.296" cy="298.2" rx="63.204" ry="34.12"/>
<path style="fill:#E8BB20;" d="M172.5,289.96c0,18.844-28.296,34.12-63.204,34.12s-63.208-15.28-63.208-34.12v-13.5H172.5V289.96z"
	/>
<ellipse style="fill:#F5EA07;" cx="109.296" cy="276.44" rx="63.204" ry="34.12"/>
<g>
	<path style="fill:#E8BB20;" d="M109.292,303.468c-29.864,0-54.16-12.116-54.16-27.008s24.3-27.008,54.16-27.008
		s54.16,12.116,54.16,27.008S139.156,303.468,109.292,303.468z M109.292,254.212c-24.596,0-44.612,9.98-44.612,22.248
		c0,12.268,20.012,22.248,44.612,22.248s44.612-9.98,44.612-22.248C153.904,264.192,133.892,254.212,109.292,254.212z"/>
	<path style="fill:#E8BB20;" d="M107.556,292.792v-2.876c-7.216-0.368-13.696-1.8-19.44-4.292l5.768-3.428
		c4.428,1.916,8.984,3.06,13.672,3.428v-7.644c-5.956-0.708-10.312-1.64-13.076-2.796s-4.152-2.868-4.152-5.14
		s1.596-4.132,4.78-5.576c3.188-1.444,7.336-2.232,12.444-2.364v-1.972h5.056v2.008c5.792,0.212,11.272,1.196,16.436,2.956
		l-5.136,3.624c-3.476-1.236-7.244-1.996-11.296-2.288v7.408h0.236c6.056,0.712,10.508,1.668,13.352,2.876
		c2.844,1.208,4.268,2.964,4.268,5.26c0,2.3-1.632,4.172-4.9,5.616c-3.268,1.448-7.584,2.232-12.956,2.364v2.836H107.556z
		 M101.984,267.36c-1.34,0.592-2.012,1.324-2.012,2.208s0.524,1.576,1.58,2.088c1.056,0.512,3.056,1.004,6.004,1.48v-6.816
		C105.188,266.42,103.328,266.768,101.984,267.36z M118.62,284.636c1.472-0.604,2.212-1.364,2.212-2.284
		c0-0.92-0.58-1.648-1.74-2.188c-1.156-0.54-3.316-1.044-6.48-1.516v7.092C115.14,285.608,117.144,285.24,118.62,284.636z"/>
</g>
<g>
</g>
<g>
</g>
<g>
</g>
<g>
</g>
<g>
</g>
<g>
</g>
<g>
</g>
<g>
</g>
<g>
</g>
<g>
</g>
<g>
</g>
<g>
</g>
<g>
</g>
<g>
</g>
<g>
</g>
</svg>
