<?xml version="1.0" encoding="iso-8859-1"?>
<!-- Generator: Adobe Illustrator 19.0.0, SVG Export Plug-In . SVG Version: 6.00 Build 0)  -->
<svg version="1.1" id="Capa_1" xmlns="http://www.w3.org/2000/svg" xmlns:xlink="http://www.w3.org/1999/xlink" x="0px" y="0px"
	 viewBox="0 0 512 512" style="enable-background:new 0 0 512 512;" xml:space="preserve">
<circle style="fill:#7EC359;" cx="256" cy="256" r="256"/>
<path style="fill:#D2D2D4;" d="M256,107.108c-82.232,0-148.888,66.656-148.888,148.888S173.768,404.888,256,404.888
	c82.228,0,148.888-66.656,148.888-148.892C404.888,173.768,338.228,107.108,256,107.108z M376.144,215.936
	c2.824,8.476-3.416,17.24-12.352,17.24h-87.088c-4.66,0-8.964-2.484-11.296-6.52l-43.532-75.408
	c-4.452-7.712-0.04-17.524,8.684-19.304C294.524,118.88,356.26,156.288,376.144,215.936z M256,256.004l-0.024-0.012L256,255.98
	V256.004z M161.376,171.88c5.888-6.616,16.552-5.456,20.98,2.216l43.52,75.38c2.328,4.036,2.328,9.008,0,13.04L182.352,337.9
	c-4.428,7.668-15.096,8.832-20.984,2.212C118.728,292.18,118.684,219.856,161.376,171.88z M230.552,380.052
	c-8.724-1.784-13.136-11.592-8.684-19.304l43.532-75.404c2.328-4.036,6.636-6.52,11.296-6.52h87.096
	c8.936,0,15.176,8.764,12.352,17.24C356.256,355.732,294.504,393.12,230.552,380.052z"/>
<path style="fill:#FDFEFF;" d="M456,265.744v-19.492l-33.424-4.632c-0.428-5.02-1.068-9.976-1.928-14.86l31.06-13.112l-5.044-18.828
	l-33.44,4.172c-1.712-4.72-3.636-9.34-5.752-13.852l26.604-20.704l-9.744-16.88l-31.256,12.7c-2.868-4.096-5.912-8.06-9.128-11.876
	l20.364-26.912l-13.784-13.784l-26.912,20.364c-3.816-3.212-7.78-6.26-11.876-9.128l12.7-31.256l-16.88-9.744l-20.704,26.604
	c-4.512-2.116-9.132-4.04-13.852-5.752l4.172-33.44l-18.828-5.044l-13.112,31.06c-4.884-0.86-9.84-1.504-14.86-1.928L265.744,56
	h-19.492l-4.632,33.424c-5.02,0.428-9.976,1.068-14.86,1.928l-13.112-31.06l-18.828,5.044l4.172,33.44
	c-4.72,1.712-9.34,3.636-13.852,5.752l-20.7-26.608l-16.88,9.744l12.7,31.256c-4.096,2.868-8.06,5.912-11.876,9.128l-26.912-20.364
	l-13.784,13.784l20.364,26.912c-3.212,3.816-6.26,7.78-9.128,11.876l-31.256-12.7l-9.744,16.88l26.604,20.704
	c-2.116,4.512-4.04,9.128-5.752,13.852l-33.44-4.172l-5.044,18.828l31.06,13.112c-0.86,4.884-1.504,9.84-1.928,14.86L56,246.256
	v19.492l33.424,4.632c0.428,5.02,1.068,9.976,1.928,14.86l-31.06,13.112l5.044,18.828l33.44-4.172
	c1.712,4.72,3.636,9.34,5.752,13.852l-26.604,20.704l9.744,16.88l31.256-12.7c2.868,4.096,5.912,8.06,9.128,11.876l-20.364,26.912
	l13.784,13.784l26.912-20.364c3.816,3.212,7.78,6.26,11.876,9.128l-12.7,31.256l16.88,9.744l20.704-26.604
	c4.512,2.116,9.128,4.04,13.852,5.752l-4.172,33.44l18.828,5.044l13.112-31.06c4.884,0.86,9.84,1.504,14.86,1.928l4.632,33.42
	h19.492l4.632-33.424c5.02-0.428,9.976-1.068,14.86-1.928l13.112,31.06l18.828-5.044l-4.172-33.44
	c4.72-1.712,9.34-3.636,13.852-5.752l20.704,26.604l16.88-9.744l-12.7-31.256c4.096-2.868,8.06-5.912,11.876-9.128l26.912,20.364
	l13.784-13.784l-20.364-26.912c3.212-3.816,6.26-7.78,9.128-11.876l31.256,12.7l9.744-16.88l-26.604-20.704
	c2.116-4.512,4.04-9.128,5.752-13.852l33.44,4.172l5.044-18.828l-31.06-13.112c0.86-4.884,1.504-9.84,1.928-14.86L456,265.744z
	 M256,398.34c-78.616,0-142.34-63.728-142.34-142.34c0-78.608,63.724-142.34,142.34-142.34c78.608,0,142.34,63.728,142.34,142.34
	C398.34,334.608,334.608,398.34,256,398.34z"/>
<circle style="fill:#E8E7E8;" cx="256" cy="256" r="20.552"/>
<circle style="fill:#FDFEFF;" cx="256" cy="256" r="12.08"/>
<g>
</g>
<g>
</g>
<g>
</g>
<g>
</g>
<g>
</g>
<g>
</g>
<g>
</g>
<g>
</g>
<g>
</g>
<g>
</g>
<g>
</g>
<g>
</g>
<g>
</g>
<g>
</g>
<g>
</g>
</svg>
