<?xml version="1.0" encoding="iso-8859-1"?>
<!-- Generator: Adobe Illustrator 19.0.0, SVG Export Plug-In . SVG Version: 6.00 Build 0)  -->
<svg version="1.1" id="Capa_1" xmlns="http://www.w3.org/2000/svg" xmlns:xlink="http://www.w3.org/1999/xlink" x="0px" y="0px"
	 viewBox="0 0 512 512" style="enable-background:new 0 0 512 512;" xml:space="preserve">
<circle style="fill:#F5EA07;" cx="256" cy="256" r="256"/>
<rect x="47.384" y="220.32" style="fill:#FDFEFF;" width="417.24" height="207.7"/>
<g>
	<path style="fill:#D2D2D4;" d="M452.496,415.92H59.504V232.456h392.992V415.92z M62.968,412.456h386.064V235.92H62.968V412.456z"/>
	<rect x="71.856" y="292.92" style="fill:#D2D2D4;" width="253.04" height="8.656"/>
</g>
<rect x="71.856" y="252.8" style="fill:#70B1E1;" width="85.376" height="8.656"/>
<g>
	<rect x="71.856" y="320.92" style="fill:#D2D2D4;" width="253.04" height="8.656"/>
	<rect x="71.856" y="348.92" style="fill:#D2D2D4;" width="368.28" height="8.656"/>
</g>
<rect x="349.72" y="254.52" style="fill:#656D7A;" width="90.42" height="22.256"/>
<rect x="332.64" y="375.36" style="fill:#70B1E1;" width="100.56" height="23.652"/>
<g>
	<path style="fill:#424854;" d="M301.94,153.424c27.74-39.94,78.8-77.7,91.9-68.124l12.04,12.04l4.748-4.748l-18.26-18.26
		c-12.484-12.484-70.092,31.204-96.436,73.08L301.94,153.424z"/>
	<circle style="fill:#424854;" cx="296.48" cy="150.44" r="9.04"/>
</g>
<g>
	<path style="fill:#F1592F;" d="M426.376,64.348c-6.372-6.372-17.492-5.592-52.716,29.328l-38.044,38.044l23.388,23.388
		l38.044-38.044C431.968,81.84,432.748,70.72,426.376,64.348z"/>
	
		<rect x="280.354" y="158.748" transform="matrix(-0.7071 0.7071 -0.7071 -0.7071 662.4457 76.1776)" style="fill:#F1592F;" width="70.183" height="33.076"/>
	<path style="fill:#F1592F;" d="M236.784,270.94l-17.02-17.02c-2.824-2.824-0.844-7.604,2.96-7.848
		c3.188-0.204,6.032-2.096,8.148-4.492l38.596-43.748l23.4,23.4l-43.72,38.572c-2.432,2.148-4.26,5.052-4.504,8.288
		C244.36,271.928,239.576,273.728,236.784,270.94z"/>
</g>
<g>
	
		<rect x="331.561" y="129.239" transform="matrix(-0.7071 0.7071 -0.7071 -0.7071 691.9197 4.9511)" style="fill:#656D7A;" width="26.748" height="33.076"/>
	
		<rect x="277.249" y="183.578" transform="matrix(-0.7071 0.7071 -0.7071 -0.7071 637.627 136.1185)" style="fill:#656D7A;" width="26.748" height="33.076"/>
	<path style="fill:#656D7A;" d="M294.912,216.768l-20.952-20.952c-1.804-1.804-4.724-1.804-6.528,0s-1.804,4.724,0,6.528
		l20.952,20.952c1.804,1.804,4.724,1.804,6.528,0C296.716,221.492,296.716,218.572,294.912,216.768z"/>
	<path style="fill:#656D7A;" d="M213.244,305.192l21.732-36.064l-13.352-13.352l-36.064,21.732
		c1.164,11.836-3.728,24.972-6.872,31.972c-1.796,0.008-3.084,1.796-2.272,3.584l27.216-27.216
		c-0.432-0.948-0.272-2.096,0.508-2.876c1.004-1.004,2.636-1.004,3.64,0s1.004,2.636,0,3.64c-0.78,0.78-1.928,0.936-2.876,0.508
		l-27.216,27.216c1.768,0.804,3.576-0.448,3.584-2.272C188.272,308.92,201.408,304.028,213.244,305.192z"/>
</g>
<g>
</g>
<g>
</g>
<g>
</g>
<g>
</g>
<g>
</g>
<g>
</g>
<g>
</g>
<g>
</g>
<g>
</g>
<g>
</g>
<g>
</g>
<g>
</g>
<g>
</g>
<g>
</g>
<g>
</g>
</svg>
