<?xml version="1.0" encoding="iso-8859-1"?>
<!-- Generator: Adobe Illustrator 19.0.0, SVG Export Plug-In . SVG Version: 6.00 Build 0)  -->
<svg version="1.1" id="Capa_1" xmlns="http://www.w3.org/2000/svg" xmlns:xlink="http://www.w3.org/1999/xlink" x="0px" y="0px"
	 viewBox="0 0 512 512" style="enable-background:new 0 0 512 512;" xml:space="preserve">
<circle style="fill:#4C5BA8;" cx="256" cy="256" r="256"/>
<g>
	<polygon style="fill:#F5EA07;" points="446.712,448.872 64.784,448.872 64.784,63.128 78.2,63.128 78.2,435.46 446.712,435.46 	"/>
	<rect x="71.492" y="99.28" style="fill:#F5EA07;" width="30.54" height="13.416"/>
	<rect x="71.492" y="164.8" style="fill:#F5EA07;" width="30.54" height="13.416"/>
	<rect x="71.492" y="230.32" style="fill:#F5EA07;" width="30.54" height="13.416"/>
	<rect x="71.492" y="295.816" style="fill:#F5EA07;" width="30.54" height="13.416"/>
	<rect x="71.492" y="361.32" style="fill:#F5EA07;" width="30.54" height="13.416"/>
	<rect x="399.04" y="411.64" style="fill:#F5EA07;" width="13.416" height="30.54"/>
	<rect x="333.56" y="411.64" style="fill:#F5EA07;" width="13.416" height="30.54"/>
	<rect x="268.04" y="411.64" style="fill:#F5EA07;" width="13.416" height="30.54"/>
	<rect x="202.516" y="411.64" style="fill:#F5EA07;" width="13.416" height="30.54"/>
	<rect x="137" y="411.64" style="fill:#F5EA07;" width="13.416" height="30.54"/>
</g>
<polygon style="fill:#FDFEFF;" points="132.104,383.136 123.084,373.204 328.392,186.856 432.216,306.14 422.096,314.948 
	327.268,205.996 "/>
<g>
	<polygon style="fill:#F1592F;" points="314.368,338.684 162.52,176.572 129.524,186.472 125.668,173.624 166.628,161.332 
		311.708,316.22 407.768,147.212 446.204,144.3 447.216,157.676 415.9,160.048 	"/>
	<path style="fill:#F1592F;" d="M413.944,173.524c-10.244,0-18.576-8.336-18.576-18.58s8.336-18.576,18.576-18.576
		c10.244,0,18.58,8.332,18.58,18.576S424.188,173.524,413.944,173.524z"/>
	<path style="fill:#F1592F;" d="M314.624,346.028c-10.244,0-18.58-8.332-18.58-18.576s8.336-18.58,18.58-18.58
		s18.576,8.336,18.576,18.58C333.2,337.696,324.864,346.028,314.624,346.028z"/>
	<path style="fill:#F1592F;" d="M164.052,190.136c-10.244,0-18.576-8.336-18.576-18.58s8.336-18.576,18.576-18.576
		c10.244,0,18.58,8.332,18.58,18.576S174.296,190.136,164.052,190.136z"/>
</g>
<g>
	<path style="fill:#FDFEFF;" d="M153.48,372.452c-10.244,0-18.58-8.332-18.58-18.576s8.336-18.58,18.58-18.58
		s18.576,8.336,18.576,18.58C172.056,364.116,163.72,372.452,153.48,372.452z"/>
	<path style="fill:#FDFEFF;" d="M219.524,313.268c-10.244,0-18.58-8.336-18.58-18.58s8.336-18.576,18.58-18.576
		s18.576,8.332,18.576,18.576C238.1,304.936,229.764,313.268,219.524,313.268z"/>
	<path style="fill:#FDFEFF;" d="M327.832,218.172c-10.244,0-18.576-8.332-18.576-18.576s8.336-18.58,18.576-18.58
		c10.244,0,18.576,8.336,18.576,18.58C346.412,209.84,338.076,218.172,327.832,218.172z"/>
	<path style="fill:#FDFEFF;" d="M400.732,297.424c-10.244,0-18.576-8.336-18.576-18.58s8.336-18.576,18.576-18.576
		s18.576,8.332,18.576,18.576C419.308,289.088,410.972,297.424,400.732,297.424z"/>
</g>
<g>
</g>
<g>
</g>
<g>
</g>
<g>
</g>
<g>
</g>
<g>
</g>
<g>
</g>
<g>
</g>
<g>
</g>
<g>
</g>
<g>
</g>
<g>
</g>
<g>
</g>
<g>
</g>
<g>
</g>
</svg>
