<?xml version="1.0" encoding="iso-8859-1"?>
<!-- Generator: Adobe Illustrator 19.0.0, SVG Export Plug-In . SVG Version: 6.00 Build 0)  -->
<svg version="1.1" id="Capa_1" xmlns="http://www.w3.org/2000/svg" xmlns:xlink="http://www.w3.org/1999/xlink" x="0px" y="0px"
	 viewBox="0 0 512 512" style="enable-background:new 0 0 512 512;" xml:space="preserve">
<circle style="fill:#4C5BA8;" cx="256" cy="256" r="256"/>
<polygon style="fill:#F5EA07;" points="256,148.092 85.476,201.072 85.476,401.672 256,348.692 "/>
<polygon style="fill:#E8BB20;" points="426.524,201.072 256,148.092 256,348.692 426.524,401.672 "/>
<circle style="fill:#F1592F;" cx="256" cy="168.68" r="118.808"/>
<g>
	<path style="fill:#FDFEFF;" d="M256,267.116c-54.284,0-98.448-44.16-98.448-98.448S201.716,70.224,256,70.224
		s98.448,44.16,98.448,98.448S310.284,267.116,256,267.116z M256,88.188c-44.376,0-80.48,36.104-80.48,80.48
		s36.104,80.48,80.48,80.48s80.48-36.104,80.48-80.48S300.376,88.188,256,88.188z"/>
	<path style="fill:#FDFEFF;" d="M251.48,199.192v-27.064c-8.44-2.412-14.632-6.06-18.572-10.948s-5.912-10.82-5.912-17.796
		c0-7.064,2.228-12.996,6.684-17.796c4.456-4.8,10.388-7.568,17.796-8.3v-6.396h9.368v6.396c6.848,0.82,12.296,3.156,16.344,7.008
		c4.048,3.856,6.632,9.012,7.752,15.472l-16.344,2.132c-0.992-5.08-3.576-8.528-7.752-10.336v25.256
		c10.336,2.8,17.376,6.428,21.124,10.884c3.748,4.456,5.62,10.172,5.62,17.152c0,7.796-2.356,14.36-7.072,19.7
		s-11.272,8.612-19.668,9.82v12.08h-9.368V214.7c-7.452-0.904-13.5-3.68-18.152-8.332s-7.624-11.22-8.916-19.7l16.86-1.808
		c0.688,3.444,1.98,6.416,3.876,8.916S249.152,198.072,251.48,199.192z M251.48,131.364c-2.54,0.86-4.564,2.324-6.072,4.392
		c-1.508,2.068-2.26,4.348-2.26,6.848c0,2.284,0.688,4.404,2.068,6.364s3.468,3.54,6.264,4.748L251.48,131.364L251.48,131.364z
		 M260.844,200.096c3.228-0.604,5.856-2.1,7.88-4.488c2.024-2.392,3.036-5.2,3.036-8.428c0-2.884-0.852-5.372-2.552-7.46
		c-1.7-2.088-4.488-3.692-8.364-4.812V200.096z"/>
</g>
<polygon style="fill:#E8BB20;" points="85.476,403.7 256,456.68 256,256.08 85.476,203.096 "/>
<polygon style="fill:#F5EA07;" points="256,256.084 256,456.688 426.52,403.704 426.52,203.1 "/>
<polygon style="fill:#DA8D27;" points="256,256.084 224.516,371.856 85.476,328.66 85.476,203.096 "/>
<polygon style="fill:#E8BB20;" points="256,256.084 287.484,371.86 426.52,328.66 426.52,203.1 "/>
<polygon style="fill:#F5EA07;" points="305.476,349.372 476,296.392 426.524,203.096 256,256.08 "/>
<polygon style="fill:#E8BB20;" points="206.524,349.372 36,296.392 85.476,203.096 256,256.08 "/>
<g>
</g>
<g>
</g>
<g>
</g>
<g>
</g>
<g>
</g>
<g>
</g>
<g>
</g>
<g>
</g>
<g>
</g>
<g>
</g>
<g>
</g>
<g>
</g>
<g>
</g>
<g>
</g>
<g>
</g>
</svg>
