<?xml version="1.0" encoding="iso-8859-1"?>
<!-- Generator: Adobe Illustrator 19.0.0, SVG Export Plug-In . SVG Version: 6.00 Build 0)  -->
<svg version="1.1" id="Capa_1" xmlns="http://www.w3.org/2000/svg" xmlns:xlink="http://www.w3.org/1999/xlink" x="0px" y="0px"
	 viewBox="0 0 512 512" style="enable-background:new 0 0 512 512;" xml:space="preserve">
<circle style="fill:#4C5BA8;" cx="256" cy="256" r="256"/>
<path style="fill:#7EC359;" d="M442.844,167.72L281.312,329.216c-6.172,6.204-16.216,6.204-22.424,0L174.472,244.8
	c-6.172-6.172-6.172-16.216,0-22.424L336,60.88c6.172-6.208,16.216-6.208,22.424,0l84.42,84.42
	C449.016,151.472,449.016,161.516,442.844,167.72z"/>
<path style="fill:#FDFEFF;" d="M247.524,294.804l-38.616-38.616c12.476-12.476,12.476-32.704,0-45.18L324.616,95.3
	c12.476,12.476,32.704,12.476,45.18,0l38.616,38.616c-12.476,12.476-12.476,32.704,0,45.18L292.704,294.804
	C280.228,282.328,260,282.328,247.524,294.804z"/>
<g>
	<circle style="fill:#7EC359;" cx="360.52" cy="143.192" r="18.164"/>
	<circle style="fill:#7EC359;" cx="256.8" cy="246.912" r="18.164"/>
	
		<ellipse transform="matrix(-0.7071 -0.7071 0.7071 -0.7071 389.0155 551.2188)" style="fill:#7EC359;" cx="308.669" cy="195.042" rx="45.412" ry="34.204"/>
</g>
<path style="fill:#FDFEFF;" d="M327.688,216.216l-3.54-3.54c-4.88,3.976-10.616,6.188-17.212,6.64l-0.68-7.756
	c5.076-0.356,9.276-1.744,12.608-4.168l-9.408-9.408c-4.524,2.78-8.344,4.308-11.468,4.584c-3.116,0.276-6.076-0.984-8.872-3.78
	c-2.796-2.796-4.104-6.06-3.928-9.796c0.176-3.732,1.752-7.248,4.724-10.544l-2.424-2.424l3.104-3.104l2.472,2.472
	c3.816-3.296,8.388-5.444,13.72-6.452l1.312,7.612c-3.652,0.616-6.904,1.988-9.748,4.124l9.116,9.116l0.148-0.148
	c4.588-2.844,8.5-4.396,11.732-4.656c3.232-0.26,6.264,1.024,9.092,3.852s4.128,6.136,3.904,9.916
	c-0.228,3.784-1.908,7.4-5.044,10.86l3.492,3.492L327.688,216.216z M292.976,188.34c-0.096,1.552,0.396,2.868,1.48,3.952
	s2.264,1.616,3.54,1.6c1.276-0.016,3.112-0.64,5.504-1.868l-8.388-8.388C293.784,185.22,293.072,186.788,292.976,188.34z
	 M324.44,199.392c0.164-1.648-0.32-3.04-1.452-4.172s-2.388-1.672-3.76-1.624s-3.32,0.752-5.844,2.108l8.728,8.728
	C323.504,202.724,324.28,201.044,324.44,199.392z"/>
<circle style="fill:#E8BB20;" cx="179.248" cy="186.408" r="79.12"/>
<g>
	<path style="fill:#F5EA07;" d="M179.244,254.208c-37.38,0-67.796-30.412-67.796-67.796s30.416-67.796,67.796-67.796
		s67.796,30.408,67.796,67.792S216.624,254.208,179.244,254.208z M179.244,128.464c-31.952,0-57.944,25.992-57.944,57.944
		s25.996,57.944,57.944,57.944s57.944-25.992,57.944-57.944S211.192,128.464,179.244,128.464z"/>
	<path style="fill:#F5EA07;" d="M206.364,190.556c-2.368-2.736-5.548-4.532-9.544-5.396c1.108-0.492,1.876-0.844,2.304-1.06
		s1.228-0.752,2.4-1.612c3.196-2.46,4.796-6.208,4.796-11.252c0-4.18-1.476-7.932-4.428-11.252
		c-1.536-1.784-3.888-3.196-7.056-4.244c-2.812-0.928-6.124-1.42-9.884-1.524v-5.296h-5.592v5.256h-6.128v-5.256h-5.596v5.256h-9.18
		v64.464h9.18v5.256h5.596v-5.256h6.128v5.256h5.596v-5.256h1.72c8.792,0,15-1.996,18.628-5.996
		c3.072-3.444,4.612-7.408,4.612-11.896C209.916,196.692,208.732,193.296,206.364,190.556z M194.976,172.896
		c0,5.348-3.936,8.024-11.804,8.024H169.34v-16.692h13.924c3.996,0,6.948,0.676,8.852,2.028
		C194.02,167.612,194.976,169.824,194.976,172.896z M195.576,206.696c-2.12,1.26-5.18,1.892-9.176,1.892h-17.06v-17.616h15.68
		c9.16,0,13.74,2.86,13.74,8.576C198.756,203.056,197.696,205.436,195.576,206.696z"/>
</g>
<path style="fill:#4D535F;" d="M381.084,198.316H112.26c-26.364,0-47.732,21.372-47.732,47.732v190.404
	c0,26.364,21.372,47.732,47.732,47.732h268.812c26.368,0,47.744-21.376,47.744-47.744V246.052
	C428.816,219.688,407.444,198.316,381.084,198.316z"/>
<path style="fill:#656D7A;" d="M408.876,269.624v165.868c0,15.668-12.7,28.368-28.368,28.368H113.156
	c-15.648,0-28.332-12.684-28.332-28.332V269.624h80.672c22.576,0,43.744,9.168,60.88,23.868c11.764,10.092,29.148,10.096,40.912,0
	c17.136-14.7,38.304-23.868,60.88-23.868H408.876z"/>
<path style="fill:#D2D2D4;" d="M376.856,465.86h-20.648c-1.124,0-2.036-0.912-2.036-2.036c0-1.124,0.912-2.036,2.036-2.036h20.648
	c1.124,0,2.036,0.912,2.036,2.036C378.892,464.952,377.98,465.86,376.856,465.86z M343.82,465.86h-20.648
	c-1.124,0-2.036-0.912-2.036-2.036c0-1.124,0.912-2.036,2.036-2.036h20.648c1.124,0,2.036,0.912,2.036,2.036
	C345.856,464.952,344.948,465.86,343.82,465.86z M310.788,465.86H290.14c-1.124,0-2.036-0.912-2.036-2.036
	c0-1.124,0.912-2.036,2.036-2.036h20.648c1.124,0,2.036,0.912,2.036,2.036C312.824,464.952,311.912,465.86,310.788,465.86z
	 M277.752,465.86h-20.648c-1.124,0-2.036-0.912-2.036-2.036c0-1.124,0.912-2.036,2.036-2.036h20.648
	c1.124,0,2.036,0.912,2.036,2.036C279.788,464.952,278.88,465.86,277.752,465.86z M244.72,465.86h-20.648
	c-1.124,0-2.036-0.912-2.036-2.036c0-1.124,0.912-2.036,2.036-2.036h20.648c1.124,0,2.036,0.912,2.036,2.036
	C246.756,464.952,245.844,465.86,244.72,465.86z M211.684,465.86H191.04c-1.124,0-2.036-0.912-2.036-2.036
	c0-1.124,0.912-2.036,2.036-2.036h20.648c1.124,0,2.036,0.912,2.036,2.036C213.72,464.952,212.812,465.86,211.684,465.86z
	 M178.652,465.86h-20.648c-1.124,0-2.036-0.912-2.036-2.036c0-1.124,0.912-2.036,2.036-2.036h20.648
	c1.124,0,2.036,0.912,2.036,2.036C180.688,464.952,179.776,465.86,178.652,465.86z M145.616,465.86h-20.648
	c-1.124,0-2.036-0.912-2.036-2.036c0-1.124,0.912-2.036,2.036-2.036h20.648c1.124,0,2.036,0.912,2.036,2.036
	C147.652,464.952,146.744,465.86,145.616,465.86z M112.584,465.86h-0.324c-7.5,0-14.648-2.836-20.124-7.988
	c-0.82-0.772-0.86-2.06-0.088-2.88c0.768-0.816,2.06-0.86,2.876-0.088c4.72,4.44,10.88,6.88,17.336,6.88
	c1.124,0,2.196,0.912,2.196,2.036C114.456,464.952,113.708,465.86,112.584,465.86z M387.172,463.212
	c-0.332-1.072,0.272-2.212,1.348-2.54c6.168-1.896,11.34-6.04,14.564-11.672c0.56-0.98,1.8-1.312,2.78-0.752
	c0.976,0.556,1.316,1.8,0.756,2.78c-3.74,6.528-9.744,11.336-16.9,13.536C388.684,464.892,387.512,464.316,387.172,463.212z
	 M84.784,446.924c-1.28-3.34-1.928-6.864-1.928-10.468v-10.684c0-1.124,0.912-2.036,2.036-2.036s2.036,0.912,2.036,2.036v10.684
	c0,3.108,0.556,6.136,1.656,9.012c0.4,1.052-0.124,2.228-1.172,2.628C86.348,448.504,85.18,447.964,84.784,446.924z
	 M408.396,440.296c-0.044,0-0.092,0-0.136-0.004c-1.12-0.076-1.972-1.048-1.896-2.168c0.092-1.328,0.056-19.176,0.056-20.512
	c0-1.124,0.912-2.036,2.036-2.036c1.124,0,2.036,0.912,2.036,2.036c0,1.58,0.04,19.204-0.064,20.78
	C410.356,439.468,409.46,440.296,408.396,440.296z M84.892,415.424c-1.124,0-2.036-0.912-2.036-2.036V392.74
	c0-1.124,0.912-2.036,2.036-2.036s2.036,0.912,2.036,2.036v20.648C86.928,414.512,86.016,415.424,84.892,415.424z M408.452,407.26
	c-1.124,0-2.036-0.912-2.036-2.036v-20.648c0-1.124,0.912-2.036,2.036-2.036c1.124,0,2.036,0.912,2.036,2.036v20.648
	C410.488,406.348,409.58,407.26,408.452,407.26z M84.892,382.388c-1.124,0-2.036-0.912-2.036-2.036v-20.648
	c0-1.124,0.912-2.036,2.036-2.036s2.036,0.912,2.036,2.036v20.648C86.928,381.476,86.016,382.388,84.892,382.388z M408.452,374.228
	c-1.124,0-2.036-0.912-2.036-2.036v-20.648c0-1.124,0.912-2.036,2.036-2.036c1.124,0,2.036,0.912,2.036,2.036v20.648
	C410.488,373.316,409.58,374.228,408.452,374.228z M84.892,349.356c-1.124,0-2.036-0.912-2.036-2.036v-20.648
	c0-1.124,0.912-2.036,2.036-2.036s2.036,0.912,2.036,2.036v20.648C86.928,348.444,86.016,349.356,84.892,349.356z M408.452,341.192
	c-1.124,0-2.036-0.912-2.036-2.036v-20.648c0-1.124,0.912-2.036,2.036-2.036c1.124,0,2.036,0.912,2.036,2.036v20.648
	C410.488,340.28,409.58,341.192,408.452,341.192z M84.892,316.32c-1.124,0-2.036-0.912-2.036-2.036v-20.648
	c0-1.124,0.912-2.036,2.036-2.036s2.036,0.912,2.036,2.036v20.648C86.928,315.408,86.016,316.32,84.892,316.32z M408.452,308.16
	c-1.124,0-2.036-0.912-2.036-2.036v-20.648c0-1.124,0.912-2.036,2.036-2.036c1.124,0,2.036,0.912,2.036,2.036v20.648
	C410.488,307.248,409.58,308.16,408.452,308.16z M84.892,283.288c-1.124,0-2.036-0.912-2.036-2.036v-20.648
	c0-1.124,0.912-2.036,2.036-2.036s2.036,0.912,2.036,2.036v20.648C86.928,282.376,86.016,283.288,84.892,283.288z M408.452,275.124
	c-1.124,0-2.036-0.912-2.036-2.036V252.44c0-1.124,0.912-2.036,2.036-2.036c1.124,0,2.036,0.912,2.036,2.036v20.648
	C410.488,274.212,409.58,275.124,408.452,275.124z M84.892,250.252c-1.124,0-2.036-0.912-2.036-2.036
	c0-6.876,0.892-13.588,6.46-20.536c0.704-0.876,1.984-1.02,2.864-0.316c0.876,0.7,1.02,1.984,0.316,2.86
	c-5.576,6.956-5.564,13.596-5.564,17.988C86.928,249.34,86.016,250.252,84.892,250.252z M405.812,240.544
	c-1.4-6.292-5.124-11.772-10.488-15.432c-0.928-0.632-1.168-1.9-0.536-2.832c0.632-0.928,1.9-1.16,2.828-0.532
	c6.224,4.244,10.544,10.608,12.172,17.916c0.244,1.096-0.448,2.184-1.548,2.432C407.108,242.332,406.052,241.62,405.812,240.544z
	 M98.688,222.2c-0.484-1.016-0.052-2.232,0.964-2.712c7.228-3.448,12.544-2.844,21.124-2.844c1.124,0,2.036,0.912,2.036,2.036
	s-0.912,2.036-2.036,2.036c-8.856,0-13.176-0.504-19.372,2.448C100.392,223.644,99.176,223.216,98.688,222.2z M385.036,221
	c-0.096,0-0.196-0.008-0.296-0.02c-2.796-0.408-4.052-0.264-20.34-0.264c-1.124,0-2.036-0.912-2.036-2.036s0.912-2.036,2.036-2.036
	c15.852,0,17.636-0.168,20.924,0.304c1.112,0.164,1.884,1.196,1.724,2.308C386.904,220.268,386.032,221,385.036,221z
	 M352.016,220.716h-20.648c-1.124,0-2.036-0.912-2.036-2.036s0.912-2.036,2.036-2.036h20.648c1.124,0,2.036,0.912,2.036,2.036
	S353.14,220.716,352.016,220.716z M318.98,220.716h-20.648c-1.124,0-2.036-0.912-2.036-2.036s0.912-2.036,2.036-2.036h20.648
	c1.124,0,2.036,0.912,2.036,2.036S320.104,220.716,318.98,220.716z M285.948,220.716H265.3c-1.124,0-2.036-0.912-2.036-2.036
	s0.912-2.036,2.036-2.036h20.648c1.124,0,2.036,0.912,2.036,2.036S287.072,220.716,285.948,220.716z M252.912,220.716h-20.648
	c-1.124,0-2.036-0.912-2.036-2.036s0.912-2.036,2.036-2.036h20.648c1.124,0,2.036,0.912,2.036,2.036
	S254.036,220.716,252.912,220.716z M219.88,220.716h-20.648c-1.124,0-2.036-0.912-2.036-2.036s0.912-2.036,2.036-2.036h20.648
	c1.124,0,2.036,0.912,2.036,2.036S221.004,220.716,219.88,220.716z M186.844,220.716h-20.648c-1.124,0-2.036-0.912-2.036-2.036
	s0.912-2.036,2.036-2.036h20.648c1.124,0,2.036,0.912,2.036,2.036S187.968,220.716,186.844,220.716z M153.812,220.716h-20.648
	c-1.124,0-2.036-0.912-2.036-2.036s0.912-2.036,2.036-2.036h20.648c1.124,0,2.036,0.912,2.036,2.036
	S154.936,220.716,153.812,220.716z"/>
<path style="fill:#FDFEFF;" d="M417.184,279.444l-50.852,39.452c-14.6,11.328-14.6,33.384,0,44.712l50.852,39.452
	c7.336,5.692,11.632,14.456,11.632,23.744V255.7C428.816,264.988,424.524,273.752,417.184,279.444z"/>
<circle style="fill:#656D7A;" cx="382.08" cy="342.84" r="13.812"/>
<g>
</g>
<g>
</g>
<g>
</g>
<g>
</g>
<g>
</g>
<g>
</g>
<g>
</g>
<g>
</g>
<g>
</g>
<g>
</g>
<g>
</g>
<g>
</g>
<g>
</g>
<g>
</g>
<g>
</g>
</svg>
