<?xml version="1.0" encoding="iso-8859-1"?>
<!-- Generator: Adobe Illustrator 19.0.0, SVG Export Plug-In . SVG Version: 6.00 Build 0)  -->
<svg version="1.1" id="Capa_1" xmlns="http://www.w3.org/2000/svg" xmlns:xlink="http://www.w3.org/1999/xlink" x="0px" y="0px"
	 viewBox="0 0 512 512" style="enable-background:new 0 0 512 512;" xml:space="preserve">
<circle style="fill:#6FB1E1;" cx="256" cy="256" r="256"/>
<polygon style="fill:#656D7A;" points="453.82,237.052 453.82,482.728 58.188,482.728 58.188,237.052 255.964,68.356 "/>
<path style="fill:#F1592F;" d="M442.032,204.716l-127.176,198.3c-4.852,7.612-14.972,9.824-22.592,4.94l-103.652-66.46
	c-7.58-4.86-9.792-14.98-4.94-22.592l127.172-198.3c4.852-7.612,14.972-9.824,22.592-4.94l103.652,66.46
	C444.672,186.984,446.884,197.104,442.032,204.716z"/>
<path style="fill:#FDFEFF;" d="M273.744,376.112l-48.432-31.052c9.64-15.036,5.268-35.044-9.768-44.684l91.748-143.092
	c15.036,9.64,35.044,5.268,44.684-9.768l48.432,31.052c-9.64,15.036-5.268,35.044,9.768,44.684l-91.748,143.092
	C303.388,356.704,283.384,361.076,273.744,376.112z"/>
<g>
	<circle style="fill:#F1592F;" cx="353.68" cy="198.12" r="18.736"/>
	<circle style="fill:#F1592F;" cx="272.04" cy="325.48" r="18.736"/>
	
		<ellipse transform="matrix(-0.8418 -0.5398 0.5398 -0.8418 434.8671 651.1536)" style="fill:#F1592F;" cx="312.854" cy="261.851" rx="46.836" ry="35.276"/>
</g>
<path style="fill:#FDFEFF;" d="M336.692,278.944l-4.344-2.784c-4.04,5.08-9.336,8.576-15.88,10.484l-2.396-7.668
	c5.036-1.476,8.964-3.804,11.784-6.976l-11.552-7.404c-3.944,3.8-7.46,6.18-10.544,7.144c-3.08,0.964-6.34,0.344-9.772-1.856
	c-3.432-2.2-5.472-5.2-6.112-9.004c-0.644-3.8,0.168-7.688,2.436-11.664l-2.976-1.908l2.444-3.808l3.036,1.948
	c3.116-4.164,7.252-7.336,12.404-9.52l2.996,7.38c-3.544,1.424-6.516,3.524-8.912,6.3l11.192,7.176l0.116-0.18
	c3.996-3.876,7.596-6.3,10.796-7.272c3.2-0.972,6.536-0.348,10.008,1.88c3.476,2.228,5.512,5.272,6.116,9.132
	s-0.292,7.876-2.688,12.052l4.284,2.748L336.692,278.944z M295.572,258.504c0.248,1.584,1.032,2.804,2.36,3.656
	c1.332,0.852,2.636,1.128,3.916,0.832c1.284-0.296,2.992-1.328,5.132-3.092l-10.3-6.604
	C295.704,255.184,295.332,256.92,295.572,258.504z M329.712,262.712c-0.2-1.696-0.992-2.992-2.384-3.88
	c-1.388-0.892-2.772-1.16-4.144-0.808s-3.18,1.488-5.42,3.412l10.716,6.872C329.504,266.272,329.916,264.408,329.712,262.712z"/>
<path style="fill:#7EC359;" d="M382.96,175.012l-70.476,224.784c-2.676,8.62-11.856,13.42-20.496,10.712l-117.492-36.824
	c-8.592-2.692-13.388-11.872-10.712-20.496l70.476-224.784c2.676-8.624,11.856-13.42,20.496-10.712l117.492,36.824
	C380.84,157.212,385.636,166.388,382.96,175.012z"/>
<path style="fill:#FDFEFF;" d="M265.736,384.668l-54.9-17.208c5.344-17.044-4.144-35.192-21.188-40.536l50.836-162.2
	c17.044,5.344,35.192-4.144,40.536-21.188l54.9,17.208c-5.344,17.044,4.144,35.192,21.188,40.536l-50.836,162.2
	C289.228,358.136,271.08,367.624,265.736,384.668z"/>
<g>
	<circle style="fill:#7EC359;" cx="296" cy="191.924" r="18.736"/>
	<circle style="fill:#7EC359;" cx="250.756" cy="336.28" r="18.736"/>
	
		<ellipse transform="matrix(-0.9542 -0.2991 0.2991 -0.9542 455.2436 597.9944)" style="fill:#7EC359;" cx="273.385" cy="264.158" rx="46.835" ry="35.275"/>
</g>
<g>
	<path style="fill:#FDFEFF;" d="M300.884,274.356l-4.924-1.544c-2.56,5.964-6.748,10.732-12.556,14.292l-4.328-6.764
		c4.468-2.748,7.644-6.028,9.532-9.832l-13.092-4.104c-2.808,4.704-5.572,7.924-8.292,9.668c-2.72,1.74-6.024,2-9.916,0.784
		c-3.892-1.22-6.648-3.576-8.268-7.076c-1.62-3.496-1.86-7.46-0.72-11.896l-3.372-1.056l1.352-4.32l3.44,1.08
		c1.912-4.836,5.064-8.984,9.46-12.452l4.836,6.332c-3.044,2.308-5.36,5.116-6.94,8.424l12.684,3.976l0.064-0.204
		c2.836-4.792,5.672-8.08,8.5-9.86c2.832-1.78,6.216-2.056,10.152-0.82c3.94,1.236,6.704,3.636,8.308,7.2
		c1.6,3.568,1.792,7.676,0.58,12.336l4.86,1.524L300.884,274.356z M255.832,265.46c0.656,1.464,1.736,2.432,3.24,2.904
		c1.508,0.472,2.84,0.396,4-0.228s2.54-2.068,4.14-4.336l-11.672-3.66C255.084,262.224,255.18,263.996,255.832,265.46z
		 M289.876,260.532c-0.64-1.584-1.744-2.624-3.32-3.116c-1.576-0.492-2.98-0.388-4.212,0.312s-2.676,2.272-4.332,4.72l12.148,3.808
		C290.608,264.024,290.516,262.116,289.876,260.532z"/>
	<circle style="fill:#FDFEFF;" cx="187.884" cy="303.5" r="47.1"/>
</g>
<g>
	<path style="fill:#D2D2D4;" d="M187.884,343.856c-22.252,0-40.36-18.104-40.36-40.36s18.108-40.36,40.36-40.36
		s40.36,18.104,40.36,40.36S210.136,343.856,187.884,343.856z M187.884,270.256c-18.328,0-33.244,14.912-33.244,33.244
		s14.912,33.244,33.244,33.244s33.244-14.912,33.244-33.244S206.212,270.256,187.884,270.256z"/>
	<path style="fill:#D2D2D4;" d="M186.592,327.904v-4.3c-5.38-0.548-10.204-2.688-14.484-6.416l4.296-5.124
		c3.3,2.864,6.692,4.572,10.188,5.124v-11.424c-4.436-1.06-7.684-2.452-9.744-4.18s-3.092-4.288-3.092-7.684
		s1.188-6.172,3.564-8.332c2.376-2.16,5.468-3.336,9.272-3.532v-2.944h3.768v3c4.316,0.316,8.4,1.788,12.248,4.416l-3.828,5.416
		c-2.588-1.844-5.396-2.984-8.42-3.416v11.068h0.176c4.512,1.06,7.828,2.492,9.948,4.296c2.12,1.808,3.18,4.428,3.18,7.86
		c0,3.436-1.216,6.232-3.652,8.388c-2.436,2.16-5.652,3.336-9.656,3.532v4.24h-3.764V327.904z M182.44,289.9
		c-1,0.88-1.5,1.98-1.5,3.296c0,1.316,0.392,2.356,1.176,3.12c0.784,0.768,2.276,1.504,4.476,2.208v-10.188
		C184.824,288.496,183.44,289.016,182.44,289.9z M194.836,315.716c1.096-0.9,1.648-2.04,1.648-3.412
		c0-1.372-0.432-2.464-1.296-3.268c-0.864-0.804-2.472-1.56-4.828-2.268v10.596C192.244,317.168,193.736,316.62,194.836,315.716z"/>
</g>
<circle style="fill:#FDFEFF;" cx="110.108" cy="240.28" r="39.58"/>
<g>
	<path style="fill:#D2D2D4;" d="M86.124,264.248c-13.224-13.224-13.224-34.74,0-47.964s34.744-13.224,47.964,0
		s13.224,34.74,0,47.964C120.864,277.476,99.348,277.472,86.124,264.248z M129.86,220.512c-10.892-10.892-28.616-10.892-39.508,0
		s-10.892,28.616,0,39.508s28.616,10.892,39.508,0C140.752,249.128,140.752,231.404,129.86,220.512z"/>
	<path style="fill:#D2D2D4;" d="M94.836,254l2.556-2.556c-2.872-3.524-4.468-7.664-4.796-12.42l5.596-0.488
		c0.256,3.664,1.26,6.692,3.008,9.096l6.788-6.788c-2.008-3.264-3.108-6.024-3.304-8.276s0.712-4.388,2.728-6.404
		s4.372-2.96,7.068-2.836c2.692,0.128,5.232,1.268,7.608,3.412l1.748-1.748l2.24,2.24l-1.784,1.784
		c2.376,2.752,3.928,6.052,4.652,9.904l-5.492,0.944c-0.444-2.636-1.436-4.98-2.972-7.032l-6.576,6.576l0.104,0.104
		c2.052,3.312,3.172,6.136,3.36,8.468s-0.74,4.52-2.78,6.56c-2.04,2.04-4.428,2.98-7.156,2.816c-2.732-0.164-5.34-1.376-7.836-3.636
		l-2.52,2.52L94.836,254z M114.952,228.952c-1.116-0.068-2.068,0.288-2.852,1.068c-0.78,0.78-1.168,1.632-1.156,2.552
		c0.012,0.924,0.46,2.244,1.348,3.972l6.052-6.052C117.204,229.532,116.072,229.02,114.952,228.952z M106.976,251.656
		c1.188,0.116,2.192-0.232,3.008-1.048c0.816-0.816,1.204-1.72,1.172-2.712c-0.036-0.992-0.544-2.396-1.52-4.216l-6.296,6.296
		C104.572,250.98,105.788,251.54,106.976,251.656z"/>
</g>
<circle style="fill:#FDFEFF;" cx="115.716" cy="139.232" r="49.396"/>
<g>
	<path style="fill:#D2D2D4;" d="M85.784,169.16c-16.504-16.504-16.504-43.356,0-59.86s43.356-16.504,59.86,0s16.504,43.356,0,59.86
		S102.284,185.664,85.784,169.16z M140.364,114.58c-13.592-13.592-35.712-13.592-49.304,0s-13.592,35.712,0,49.304
		s35.712,13.592,49.304,0C153.96,150.288,153.956,128.172,140.364,114.58z"/>
	<path style="fill:#D2D2D4;" d="M96.656,156.368l3.188-3.188c-3.58-4.396-5.576-9.56-5.984-15.5l6.984-0.612
		c0.32,4.572,1.576,8.352,3.756,11.352l8.472-8.472c-2.504-4.076-3.88-7.516-4.124-10.324c-0.248-2.808,0.888-5.472,3.404-7.992
		c2.516-2.516,5.456-3.696,8.82-3.536c3.36,0.16,6.528,1.58,9.496,4.26l2.184-2.184l2.796,2.796l-2.228,2.228
		c2.968,3.436,4.904,7.556,5.808,12.36l-6.856,1.176c-0.552-3.288-1.792-6.216-3.708-8.776l-8.208,8.208l0.132,0.132
		c2.56,4.136,3.956,7.656,4.192,10.564c0.232,2.912-0.924,5.64-3.472,8.188s-5.524,3.72-8.928,3.516
		c-3.408-0.204-6.664-1.716-9.78-4.54l-3.144,3.144L96.656,156.368z M121.76,125.108c-1.396-0.088-2.58,0.356-3.556,1.332
		s-1.456,2.036-1.44,3.184c0.016,1.152,0.572,2.8,1.68,4.956l7.556-7.556C124.572,125.836,123.16,125.196,121.76,125.108z
		 M111.808,153.444c1.48,0.144,2.736-0.288,3.756-1.308s1.504-2.148,1.464-3.384c-0.044-1.236-0.676-2.992-1.9-5.26l-7.86,7.86
		C108.808,152.6,110.32,153.3,111.808,153.444z"/>
</g>
<path style="fill:#E8BB20;" d="M453.816,237.06v245.676H58.184V237.06C222.62,377.324,181.344,342.116,255.96,405.752
	C329.028,343.432,289.02,377.548,453.816,237.06z"/>
<polygon style="fill:#F5EA07;" points="256,314.072 58.164,482.752 453.836,482.752 "/>
<g>
</g>
<g>
</g>
<g>
</g>
<g>
</g>
<g>
</g>
<g>
</g>
<g>
</g>
<g>
</g>
<g>
</g>
<g>
</g>
<g>
</g>
<g>
</g>
<g>
</g>
<g>
</g>
<g>
</g>
</svg>
