<?xml version="1.0" encoding="iso-8859-1"?>
<!-- Generator: Adobe Illustrator 19.0.0, SVG Export Plug-In . SVG Version: 6.00 Build 0)  -->
<svg version="1.1" id="Capa_1" xmlns="http://www.w3.org/2000/svg" xmlns:xlink="http://www.w3.org/1999/xlink" x="0px" y="0px"
	 viewBox="0 0 512 512" style="enable-background:new 0 0 512 512;" xml:space="preserve">
<circle style="fill:#F1592F;" cx="256" cy="256" r="256"/>
<rect x="36.428" y="173.08" style="fill:#FDFEFF;" width="439.16" height="289.24"/>
<rect x="36.428" y="72.944" style="fill:#70B1E1;" width="439.16" height="100.12"/>
<circle style="fill:#5F87C4;" cx="132.48" cy="118.044" r="28.668"/>
<rect x="119.48" y="49.688" style="fill:#D2D2D4;" width="26.04" height="70.804"/>
<circle style="fill:#5F87C4;" cx="395.56" cy="118.044" r="28.668"/>
<rect x="382.52" y="49.688" style="fill:#D2D2D4;" width="26.04" height="70.804"/>
<g>
	<path style="fill:#FDFEFF;" d="M191.368,100.084h17.176c3.872,0,6.828,0.292,8.86,0.876c2.732,0.792,5.068,2.2,7.016,4.224
		s3.428,4.5,4.444,7.428s1.524,6.544,1.524,10.836c0,3.776-0.476,7.028-1.428,9.76c-1.164,3.336-2.824,6.036-4.984,8.1
		c-1.628,1.564-3.832,2.784-6.604,3.66c-2.076,0.648-4.848,0.968-8.32,0.968h-17.684V100.084z M200.768,107.84v30.368h7.016
		c2.624,0,4.52-0.144,5.684-0.436c1.524-0.376,2.788-1.012,3.796-1.908c1.004-0.896,1.824-2.372,2.46-4.424s0.952-4.852,0.952-8.396
		s-0.316-6.264-0.952-8.164c-0.636-1.896-1.524-3.376-2.668-4.44s-2.592-1.784-4.348-2.16c-1.312-0.292-3.884-0.436-7.716-0.436
		h-4.224V107.84z"/>
	<path style="fill:#FDFEFF;" d="M238.36,145.932v-45.848h34.516v7.756H247.76v10.164h23.368v7.724H247.76v12.48h26.004v7.724
		L238.36,145.932L238.36,145.932z"/>
	<path style="fill:#FDFEFF;" d="M311.516,129.076l9.112,2.848c-1.396,5.004-3.72,8.72-6.968,11.152
		c-3.248,2.428-7.372,3.644-12.368,3.644c-6.18,0-11.26-2.08-15.24-6.24s-5.968-9.848-5.968-17.06c0-7.632,2-13.56,6-17.78
		c4-4.224,9.26-6.332,15.78-6.332c5.696,0,10.32,1.656,13.876,4.972c2.116,1.96,3.704,4.776,4.764,8.444l-9.304,2.184
		c-0.552-2.376-1.7-4.252-3.444-5.628c-1.748-1.376-3.868-2.064-6.368-2.064c-3.452,0-6.248,1.22-8.4,3.66
		s-3.224,6.392-3.224,11.852c0,5.796,1.06,9.924,3.176,12.384s4.868,3.692,8.256,3.692c2.496,0,4.648-0.78,6.444-2.344
		S310.736,132.432,311.516,129.076z"/>
</g>
<g>
	<path style="fill:#656D7A;" d="M148.896,356.052l31.192-3.784c0.992,7.952,3.668,14.028,8.028,18.232s9.632,6.308,15.824,6.308
		c6.652,0,12.252-2.524,16.8-7.568s6.824-11.848,6.824-20.412c0-8.104-2.18-14.524-6.536-19.264
		c-4.356-4.74-9.672-7.108-15.94-7.108c-4.128,0-9.06,0.804-14.792,2.408l3.556-26.26c8.716,0.228,15.368-1.664,19.952-5.676
		c4.588-4.012,6.88-9.344,6.88-15.996c0-5.656-1.68-10.168-5.044-13.532s-7.836-5.044-13.416-5.044
		c-5.504,0-10.204,1.912-14.104,5.732c-3.9,3.824-6.268,9.404-7.108,16.744l-29.7-5.044c2.064-10.168,5.18-18.292,9.344-24.368
		c4.168-6.076,9.976-10.856,17.432-14.336s15.804-5.216,25.056-5.216c15.824,0,28.516,5.044,38.072,15.136
		c7.876,8.256,11.812,17.584,11.812,27.98c0,14.756-8.064,26.528-24.196,35.32c9.632,2.064,17.336,6.688,23.108,13.876
		s8.656,15.864,8.656,26.032c0,14.756-5.388,27.332-16.168,37.728s-24.196,15.596-40.252,15.596
		c-15.212,0-27.828-4.376-37.844-13.132C156.312,381.64,150.5,370.192,148.896,356.052z"/>
	<path style="fill:#656D7A;" d="M363.104,400.66H330.88V279.22c-11.772,11.008-25.648,19.152-41.628,24.424v-29.24
		c8.408-2.752,17.544-7.968,27.408-15.652c9.86-7.684,16.628-16.648,20.296-26.892H363.1v168.8H363.104z"/>
</g>
<g>
</g>
<g>
</g>
<g>
</g>
<g>
</g>
<g>
</g>
<g>
</g>
<g>
</g>
<g>
</g>
<g>
</g>
<g>
</g>
<g>
</g>
<g>
</g>
<g>
</g>
<g>
</g>
<g>
</g>
</svg>
