<?xml version="1.0" encoding="iso-8859-1"?>
<!-- Generator: Adobe Illustrator 19.0.0, SVG Export Plug-In . SVG Version: 6.00 Build 0)  -->
<svg version="1.1" id="Capa_1" xmlns="http://www.w3.org/2000/svg" xmlns:xlink="http://www.w3.org/1999/xlink" x="0px" y="0px"
	 viewBox="0 0 512 512" style="enable-background:new 0 0 512 512;" xml:space="preserve">
<circle style="fill:#F5EA07;" cx="256" cy="256" r="256"/>
<path style="fill:#FDFEFF;" d="M426.924,55.668v400.664c0,13.088-10.604,23.668-23.668,23.668H108.744
	c-13.064,0-23.668-10.58-23.668-23.668V55.668C85.076,42.604,95.68,32,108.744,32h294.508C416.32,32,426.924,42.604,426.924,55.668z
	"/>
<rect x="113.964" y="63.192" style="fill:#5F87C4;" width="284.08" height="89.884"/>
<g>
	<rect x="113.812" y="251.552" style="fill:#656D7A;" width="48.704" height="50.244"/>
	<rect x="113.812" y="325.08" style="fill:#656D7A;" width="48.704" height="50.244"/>
	<rect x="192.36" y="251.552" style="fill:#656D7A;" width="48.704" height="50.244"/>
	<rect x="192.36" y="325.08" style="fill:#656D7A;" width="48.704" height="50.244"/>
	<rect x="270.92" y="251.552" style="fill:#656D7A;" width="48.704" height="50.244"/>
	<rect x="270.92" y="325.08" style="fill:#656D7A;" width="48.704" height="50.244"/>
	<rect x="270.92" y="178.044" style="fill:#656D7A;" width="48.704" height="50.244"/>
	<rect x="349.48" y="178.044" style="fill:#656D7A;" width="48.704" height="50.244"/>
	<rect x="113.812" y="178.044" style="fill:#656D7A;" width="48.704" height="50.244"/>
	<rect x="192.36" y="178.044" style="fill:#656D7A;" width="48.704" height="50.244"/>
	<rect x="349.48" y="251.552" style="fill:#656D7A;" width="48.704" height="50.244"/>
	<rect x="113.812" y="398.56" style="fill:#656D7A;" width="48.704" height="50.244"/>
	<rect x="270.92" y="398.56" style="fill:#656D7A;" width="48.704" height="50.244"/>
	<rect x="192.36" y="398.56" style="fill:#656D7A;" width="48.704" height="50.244"/>
</g>
<rect x="349.48" y="321.92" style="fill:#4D535F;" width="48.704" height="123.872"/>
<g>
</g>
<g>
</g>
<g>
</g>
<g>
</g>
<g>
</g>
<g>
</g>
<g>
</g>
<g>
</g>
<g>
</g>
<g>
</g>
<g>
</g>
<g>
</g>
<g>
</g>
<g>
</g>
<g>
</g>
</svg>
