<?xml version="1.0" encoding="iso-8859-1"?>
<!-- Generator: Adobe Illustrator 19.0.0, SVG Export Plug-In . SVG Version: 6.00 Build 0)  -->
<svg version="1.1" id="Capa_1" xmlns="http://www.w3.org/2000/svg" xmlns:xlink="http://www.w3.org/1999/xlink" x="0px" y="0px"
	 viewBox="0 0 512 512" style="enable-background:new 0 0 512 512;" xml:space="preserve">
<circle style="fill:#E8BB20;" cx="256" cy="256" r="256"/>
<path style="fill:#656D7A;" d="M382.048,20.988H129.952c-11.044,0-20,8.956-20,20v430.028c0,11.044,8.956,20,20,20h252.096
	c11.044,0,20-8.956,20-20V40.988C402.048,29.94,393.092,20.988,382.048,20.988z"/>
<rect x="132.48" y="59.92" style="fill:#FDFEFF;" width="247.036" height="372.4"/>
<g>
	<circle style="fill:#4D535F;" cx="256" cy="461.88" r="16.836"/>
	<path style="fill:#4D535F;" d="M279.716,47.064h-47.432c-1.324,0-2.396-1.072-2.396-2.396V39.52c0-1.324,1.072-2.396,2.396-2.396
		h47.432c1.324,0,2.396,1.072,2.396,2.396v5.144C282.112,45.988,281.04,47.064,279.716,47.064z"/>
</g>
<polygon style="fill:#F1592F;" points="151.068,189.452 98.604,189.452 132.5,59.92 173.668,59.92 "/>
<polygon style="fill:#70B1E1;" points="203.536,189.452 151.068,189.452 173.668,59.92 214.832,59.92 "/>
<polygon style="fill:#F1592F;" points="256,189.452 203.536,189.452 214.832,59.92 256,59.92 "/>
<polygon style="fill:#70B1E1;" points="308.464,189.452 256,189.452 256,59.92 297.168,59.92 "/>
<polygon style="fill:#F1592F;" points="360.932,189.452 308.464,189.452 297.168,59.92 338.332,59.92 "/>
<polygon style="fill:#70B1E1;" points="413.396,189.452 360.932,189.452 338.332,59.92 379.5,59.92 "/>
<g>
	<path style="fill:#5F87C4;" d="M256,189.436h52.48v22.648c0,14.444-11.76,26.2-26.28,26.2c-14.44,0-26.2-11.76-26.2-26.2V189.436z"
		/>
	<path style="fill:#5F87C4;" d="M413.36,189.436v22.648c0,14.444-11.68,26.2-26.2,26.2c-14.52,0-26.2-11.76-26.2-26.2v-22.648
		H413.36z"/>
	<path style="fill:#5F87C4;" d="M151.04,189.436h52.48v22.648c0,14.444-11.76,26.2-26.2,26.2c-14.52,0-26.28-11.76-26.28-26.2
		V189.436z"/>
</g>
<g>
	<path style="fill:#E34E30;" d="M203.52,189.436H256v22.648c0,14.444-11.76,26.2-26.2,26.2c-14.52,0-26.28-11.76-26.28-26.2V189.436
		z"/>
	<path style="fill:#E34E30;" d="M308.48,189.436h52.48v22.648c0,14.444-11.76,26.2-26.28,26.2c-14.44,0-26.2-11.76-26.2-26.2
		V189.436z"/>
	<path style="fill:#E34E30;" d="M98.64,189.436h52.4v22.648c0,14.444-11.68,26.2-26.2,26.2s-26.2-11.76-26.2-26.2L98.64,189.436
		L98.64,189.436z"/>
</g>
<rect x="168.88" y="315" style="fill:#F1592F;" width="174.248" height="60.668"/>
<g>
	<path style="fill:#FDFEFF;" d="M197.052,324.304h16.544c3.276,0,5.716,0.136,7.324,0.408c1.612,0.272,3.052,0.844,4.32,1.708
		c1.272,0.868,2.332,2.016,3.176,3.456s1.272,3.056,1.272,4.844c0,1.94-0.524,3.72-1.568,5.336c-1.044,1.62-2.46,2.832-4.248,3.64
		c2.524,0.732,4.464,1.984,5.82,3.752c1.352,1.772,2.032,3.852,2.032,6.24c0,1.88-0.436,3.712-1.312,5.492
		c-0.876,1.78-2.072,3.2-3.584,4.264c-1.516,1.064-3.388,1.716-5.604,1.96c-1.396,0.152-4.752,0.244-10.08,0.284h-14.088v-41.384
		H197.052z M205.408,331.192v9.572h5.476c3.256,0,5.28-0.048,6.072-0.144c1.428-0.168,2.556-0.664,3.376-1.48
		c0.816-0.816,1.228-1.896,1.228-3.232c0-1.28-0.352-2.32-1.06-3.12c-0.704-0.796-1.756-1.284-3.148-1.452
		c-0.828-0.092-3.208-0.14-7.144-0.14h-4.8V331.192z M205.408,347.652v11.068h7.736c3.008,0,4.92-0.088,5.728-0.256
		c1.244-0.228,2.256-0.776,3.036-1.652c0.78-0.872,1.172-2.044,1.172-3.512c0-1.244-0.3-2.296-0.9-3.164
		c-0.604-0.868-1.476-1.496-2.616-1.896c-1.14-0.396-3.608-0.592-7.408-0.592h-6.748V347.652z"/>
	<path style="fill:#FDFEFF;" d="M238.724,324.304h8.356v22.416c0,3.556,0.1,5.864,0.312,6.916c0.356,1.696,1.208,3.056,2.556,4.08
		c1.344,1.024,3.184,1.536,5.52,1.536c2.372,0,4.16-0.484,5.364-1.452s1.928-2.16,2.172-3.572s0.368-3.752,0.368-7.028v-22.896
		h8.356v21.736c0,4.968-0.224,8.48-0.676,10.532s-1.284,3.78-2.5,5.192c-1.212,1.412-2.836,2.536-4.868,3.372
		c-2.032,0.84-4.688,1.26-7.96,1.26c-3.952,0-6.952-0.456-8.992-1.368c-2.044-0.912-3.656-2.096-4.844-3.556
		c-1.184-1.456-1.968-2.988-2.34-4.584c-0.544-2.372-0.816-5.876-0.816-10.504v-22.08H238.724z"/>
	<path style="fill:#FDFEFF;" d="M291.404,365.692v-17.416l-15.16-23.972h9.796l9.74,16.372l9.544-16.372h9.624l-15.216,24.028v17.36
		L291.404,365.692L291.404,365.692z"/>
</g>
<g>
</g>
<g>
</g>
<g>
</g>
<g>
</g>
<g>
</g>
<g>
</g>
<g>
</g>
<g>
</g>
<g>
</g>
<g>
</g>
<g>
</g>
<g>
</g>
<g>
</g>
<g>
</g>
<g>
</g>
</svg>
