<?xml version="1.0" encoding="iso-8859-1"?>
<!-- Generator: Adobe Illustrator 19.0.0, SVG Export Plug-In . SVG Version: 6.00 Build 0)  -->
<svg version="1.1" id="Capa_1" xmlns="http://www.w3.org/2000/svg" xmlns:xlink="http://www.w3.org/1999/xlink" x="0px" y="0px"
	 viewBox="0 0 512 512" style="enable-background:new 0 0 512 512;" xml:space="preserve">
<circle style="fill:#DFDFDF;" cx="256" cy="256" r="256"/>
<path style="fill:#E8E7E8;" d="M328.388,311.8c-4.14,9.896-6,19.936-8.176,30.676c-5.9,28.832-32.328,26.396-18.32,113.332H218.04
	c0.668-8.144-3.476-16.04-14.144-17.724c-1.44-0.176-2.88-0.42-4.316-0.7c0.948-0.56,0.948-2.388-0.036-5.616
	c0.212-7.372-0.772-14.532-2.28-21.724c-2.88-13.548,0.316-25.796-5.792-38.856c-4.772-10.212-14.18-11.864-22.18-8.564v-42.188
	c4.62-2.496,11.172-6.224,15.336-9.372c1.332-1.016,2.596-2.072,3.756-3.196c4.632-4.248,7.896-8.984,10.18-13.828
	c8.636-18.356,2.668-37.764,2.668-37.764h109.54c0,0-5.616,18.18,1.932,36.048c1.544,3.684,3.652,7.336,6.492,10.844
	C322.516,307.268,324.832,309.028,328.388,311.8z"/>
<path style="fill:#F0B97C;" d="M303.308,342.228c4.644-4.984,11.636-6.568,18.004-5.176c1.784-8.72,3.644-17.036,7.084-25.256
	c-3.66-2.628-6.616-5.44-9.204-8.628c-2.844-3.508-4.948-7.16-6.492-10.844c-7.544-17.864-1.932-36.048-1.932-36.048h-109.54
	c0,0,5.968,19.408-2.668,37.764c-2.28,4.844-5.544,9.58-10.18,13.828c-1.16,1.124-2.424,2.176-3.756,3.196
	c-4.164,3.148-10.732,6.892-15.32,9.376v18.704c3.148-4.848,7.696-9.408,13.804-13.584c10.624-7.26,20.892-2.064,25.72,6.656
	c9.86-5.064,22.784-2.992,25.916,9.848c11.092-1.252,18.9,8.004,26.028,6.052c8.376-2.296,16.052-6.4,24.416-8.732
	c7.204-2.012,13.164-0.116,17.38,3.712C302.82,342.808,303.044,342.508,303.308,342.228z"/>
<g>
	<path style="fill:#4D535F;" d="M207.632,434.172c-0.04-6.408-0.752-15.272-0.128-18.764c-1.012-2.912-1.432-11.02-1.48-14.14
		h-5.128v-13.224c-5.056-4.924-6.028-10.112-5.952-16.256c-5.36-5.776-7.676-12.04-7.76-18.84c-3.78-4.24-6.716-13.912-7.356-17.92
		c-3.168-4.96-3.944-12.832-3.34-18.664c-4.904,2.928-10.852,6.136-17.62,9.472c-22.92,11.476-54.368,24.78-79.532,34.992
		c-25.376,10.32-41.944,34.924-41.944,62.3v32.676H221.08v-3.076C213.332,450.112,207.684,442.712,207.632,434.172z"/>
	<path style="fill:#4D535F;" d="M304.368,434.172c0.04-6.408,0.752-15.272,0.128-18.764c1.012-2.912,1.432-11.02,1.48-14.14h5.128
		v-13.224c5.056-4.924,6.028-10.112,5.952-16.256c5.36-5.776,7.676-12.04,7.76-18.84c3.776-4.232,6.716-13.92,7.356-17.92
		c3.168-4.96,3.944-12.832,3.34-18.664c23.512,14.04,71.96,34.244,97.152,44.468c25.376,10.32,41.944,34.924,41.944,62.3v32.676
		H290.924v-3.076C298.668,450.112,304.316,442.712,304.368,434.172z"/>
</g>
<polygon style="fill:#5F87C4;" points="290.624,455.808 218.252,455.808 240.048,370.872 265.144,370.872 "/>
<path style="fill:#70B1E1;" d="M242.156,387.968c0,0-30.384-6.032-11.288-50.256l23.112-14.572l18.1,7.284l13.068,22.364
	c0,0-8.616,38.072-29.148,35.18H242.156z"/>
<g>
	<path style="fill:#F7CFA3;" d="M163.384,174.784c0,66.516,39.972,120.44,89.28,120.44s89.28-53.924,89.28-120.44l-10.164-55.468
		c-30.048-23.304-21.916-21.608-58.34-30.056l-68.184,4.42l-25.072,21.216l-8.396,31.38L163.384,174.784z"/>
	<path style="fill:#F7CFA3;" d="M179.376,227.288c-7.308,2.76-18.064-7.804-24.024-23.596s-4.868-30.828,2.44-33.584
		C175.224,163.528,196.804,220.708,179.376,227.288z"/>
	<path style="fill:#F7CFA3;" d="M328.628,227.288c7.308,2.76,18.064-7.804,24.024-23.596c5.96-15.788,4.868-30.828-2.44-33.584
		C332.78,163.528,311.2,220.708,328.628,227.288z"/>
</g>
<g>
	<path style="fill:#FDFEFF;" d="M253.98,323.136l-35.168,51.244l-39.204-59.912c1.932-1.192,3.58-2.316,5.02-3.404
		c6.704-5.088,11.092-10.988,13.932-17.024L253.98,323.136z"/>
	<path style="fill:#FDFEFF;" d="M329.584,312.644l-40.4,61.74L253.98,323.14l58.72-30.816
		C316.336,300.972,322.62,308.1,329.584,312.644z"/>
</g>
<g>
	<path style="fill:#656D7A;" d="M235.416,455.808h-44.68l-29.728-55.772l28.64-22.112l-34.676,3.508l3.896-55.596
		c7.416-3.66,19.284-9.88,25.764-14.776c1.332-1.016,2.596-2.072,3.756-3.196L235.416,455.808z"/>
	<path style="fill:#656D7A;" d="M316.456,377.924l28.64,22.112l-29.728,55.772h-44.68l48.508-152.644
		c7.04,8.692,17.304,14.112,27.832,19.584l4.108,58.684L316.456,377.924z"/>
	<path style="fill:#656D7A;" d="M303.512,110.216c0,0,39.696,5.92,24.204,82.024h11.296c0,0,21.944-53.628,3.228-86.868
		L303.512,110.216z"/>
</g>
<path style="fill:#4D535F;" d="M350.868,105.04c0,0-57.348,71.1-164.98,14.928c0,0-23.96,13.356-9.036,72.276h-13.748
	c0,0-16.636-60.46-1.044-85.012c0,0-10.78-11.868-6.668-23.972c0,0,5.624,11.404,13.536,14.196c0,0-15.476-16.992-2.792-34.56
	c0,0,0.232,17.456,11.056,22.228C177.192,85.12,264.14-4.024,350.868,105.04z"/>
<g>
	<path style="fill:#FDFEFF;" d="M238.788,176.964c-1.344,10.004-10.06,29.188-31.192,29.188c-4.596,0-24.628,2.328-27.272-20.28
		c0-31.324,1.204-29.088,38.092-29.088c0,0,17.52,1.74,20.372,11.464L238.788,176.964L238.788,176.964z"/>
	<path style="fill:#FDFEFF;" d="M324.508,170.268c0,12.284,1.668,23.952-8.34,31.7c-3.624,2.808-8.16,4.184-12.744,4.184h-6.184
		c-18.04,0-29.292-15.028-31.192-29.188v-8.716c2.848-9.724,20.38-11.464,20.38-11.464h19.36
		C324.968,155.956,324.508,170.268,324.508,170.268z"/>
</g>
<path style="fill:#353944;" d="M276.172,154.468c-43.668,11.312-55.88-13.824-119.66,2.9l1.156,8.336
	c3.94-0.368,6.948,0.128,9.184,0.94c6.648,2.408,5.976,8.604,6.448,15.732c2.04,28.136,25.008,27.096,25.008,27.096
	c13.36,0,23.58,1.316,33.512-7.468c8.044-7.112,12.272-17.372,13.128-23.02c1.308-8.596,7.276-9.116,7.276-9.116
	s5.968,0.52,7.268,9.116c1.508,9.912,11.748,30.484,34.304,30.484c9.932,0,35.104,3.784,37.352-27.096
	c0.476-7.148-0.196-13.332,6.436-15.732c2.248-0.808,5.248-1.308,9.196-0.94l1.516-8.336
	C348.292,157.364,306.72,146.56,276.172,154.468z M238.788,176.964c-1.344,10.004-10.06,29.188-31.192,29.188
	c-4.596,0-24.628,2.328-27.272-20.28c0-31.324,1.204-29.088,38.092-29.088c0,0,17.52,1.74,20.372,11.464L238.788,176.964
	L238.788,176.964z M324.508,170.268c0,12.284,1.668,23.952-8.34,31.7c-3.624,2.808-8.16,4.184-12.744,4.184h-6.184
	c-18.04,0-29.292-15.028-31.192-29.188v-8.716c2.848-9.724,20.38-11.464,20.38-11.464h19.36
	C324.968,155.956,324.508,170.268,324.508,170.268z"/>
<path style="fill:#F0B97C;" d="M269.552,258.92h-33.776c-3.408,0-6.172-2.764-6.172-6.172v-0.108c0-3.408,2.764-6.172,6.172-6.172
	h33.776c3.408,0,6.172,2.764,6.172,6.172v0.108C275.724,256.156,272.96,258.92,269.552,258.92z"/>
<g>
</g>
<g>
</g>
<g>
</g>
<g>
</g>
<g>
</g>
<g>
</g>
<g>
</g>
<g>
</g>
<g>
</g>
<g>
</g>
<g>
</g>
<g>
</g>
<g>
</g>
<g>
</g>
<g>
</g>
</svg>
