<?xml version="1.0" encoding="iso-8859-1"?>
<!-- Generator: Adobe Illustrator 19.0.0, SVG Export Plug-In . SVG Version: 6.00 Build 0)  -->
<svg version="1.1" id="Capa_1" xmlns="http://www.w3.org/2000/svg" xmlns:xlink="http://www.w3.org/1999/xlink" x="0px" y="0px"
	 viewBox="0 0 512 512" style="enable-background:new 0 0 512 512;" xml:space="preserve">
<circle style="fill:#7EC359;" cx="256" cy="256" r="256"/>
<ellipse style="fill:#DA8D27;" cx="259.716" cy="270.68" rx="91.02" ry="157"/>
<path style="fill:#E8E7E8;" d="M324.24,329.676c-3.904,9.332-5.656,18.792-7.708,28.916c-2.612,12.772-12.376,22.928-16.544,35.204
	c-7.972,23.36-4.564,47.808-0.728,71.632h-79.044c0.628-7.676-3.276-15.12-13.332-16.708c-1.356-0.164-2.712-0.396-4.068-0.66
	c0.892-0.528,0.892-2.252-0.032-5.296c0.2-6.948-0.728-13.696-2.152-20.48c-2.712-12.772,0.296-24.32-5.46-36.628
	c-4.5-9.628-13.368-11.184-20.912-8.072v-39.768c3.672-1.984,6.948-3.872,9.728-5.624c1.82-1.124,3.376-2.184,4.732-3.208
	c1.256-0.96,2.448-1.952,3.54-3.012c4.368-4.004,7.444-8.468,9.596-13.036c8.14-17.304,2.516-35.6,2.516-35.6h103.26
	c0,0-5.292,17.14,1.82,33.98c1.456,3.476,3.44,6.916,6.12,10.224C318.76,325.476,320.884,327.064,324.24,329.676z"/>
<path style="fill:#F0B97C;" d="M300.596,358.36c4.376-4.696,10.968-6.188,16.972-4.88c1.68-8.22,3.432-16.056,6.68-23.808
	c-3.448-2.476-6.24-5.128-8.676-8.136c-2.68-3.308-4.664-6.748-6.12-10.224c-7.112-16.84-1.82-33.98-1.82-33.98H204.368
	c0,0,5.624,18.296-2.516,35.6c-2.152,4.568-5.228,9.032-9.596,13.036c-1.092,1.06-2.284,2.052-3.54,3.012
	c-1.356,1.024-2.912,2.084-4.732,3.208c-2.764,1.752-6.056,3.652-9.712,5.632v17.632c2.968-4.568,7.252-8.868,13.012-12.804
	c10.016-6.844,19.696-1.944,24.244,6.272c9.292-4.772,21.48-2.82,24.432,9.284c2.024-0.228,4.192-0.14,6.496,0.368
	c5.032,1.104,13,6.716,18.036,5.336c7.896-2.164,15.132-6.032,23.016-8.232c6.792-1.896,12.408-0.108,16.384,3.5
	C300.136,358.908,300.348,358.624,300.596,358.36z"/>
<g>
	<path style="fill:#F7CFA3;" d="M168.696,200.516c0,62.704,37.68,113.532,84.16,113.532s84.16-50.832,84.16-113.532l-9.584-52.288
		c-28.336-21.976-20.66-20.368-54.996-28.332l-64.276,4.168l-23.636,20l-7.916,29.58L168.696,200.516z"/>
	
		<ellipse transform="matrix(-0.3531 -0.9356 0.9356 -0.3531 26.186 464.2517)" style="fill:#F7CFA3;" cx="173.595" cy="223.073" rx="28.808" ry="13.332"/>
	
		<ellipse transform="matrix(-0.3531 0.9356 -0.9356 -0.3531 661.4863 -11.2523)" style="fill:#F7CFA3;" cx="334.633" cy="223.064" rx="28.808" ry="13.332"/>
</g>
<g>
	<path style="fill:#FDFEFF;" d="M239.776,202.572c-1.26,9.396-9.46,27.512-29.404,27.512c-6.088,0-11.976,0.6-17.84-3.944
		c-3.548-2.748-6.956-7.38-7.868-15.176v-14.708c0,0-0.432-13.492,17.648-12.712h18.26c0,0,16.516,1.64,19.204,10.808V202.572z"/>
	<path style="fill:#FDFEFF;" d="M320.584,196.26v14.708c-1.44,12.384-9.82,19.116-19.876,19.116h-5.832
		c-17.04,0-27.616-14.208-29.404-27.512v-8.216c2.684-9.168,19.212-10.808,19.212-10.808h18.252
		C321.016,182.768,320.584,196.26,320.584,196.26z"/>
</g>
<path style="fill:#353944;" d="M275.016,181.364c-14.584,3.78-30.708,3.74-45.152,0c-28.804-7.452-67.648,2.732-67.648,2.732
	l1.088,7.86c3.712-0.348,6.548,0.124,8.66,0.884c3.176,1.148,5.36,4.08,5.588,7.444l0.488,7.388
	c1.924,26.524,23.576,25.544,23.576,25.544c12.632,0,22.236,1.232,31.592-7.04c7.584-6.704,11.568-16.376,12.372-21.7
	c1.236-8.104,6.86-8.592,6.86-8.592s5.624,0.488,6.852,8.592c1.424,9.344,11.072,28.736,32.336,28.736
	c9.4,0,33.088,3.624,35.212-25.544l0.488-7.388c0.228-3.364,2.404-6.296,5.576-7.444c2.12-0.764,4.948-1.236,8.668-0.884l1.428-7.86
	C343.004,184.096,303.812,173.912,275.016,181.364z M239.776,202.572c-1.26,9.396-9.46,27.512-29.404,27.512
	c-6.088,0-11.976,0.6-17.84-3.944c-3.548-2.748-6.956-7.38-7.868-15.176v-14.708c0,0-0.432-13.492,17.648-12.712h18.26
	c0,0,16.516,1.64,19.204,10.808V202.572z M320.584,196.26v14.708c-1.44,12.384-9.82,19.116-19.876,19.116h-5.832
	c-17.04,0-27.616-14.208-29.404-27.512v-8.216c2.684-9.168,19.212-10.808,19.212-10.808h18.252
	C321.016,182.768,320.584,196.26,320.584,196.26z"/>
<path style="fill:#F0B97C;" d="M274.596,273.956c0,3.244-2.632,5.876-5.876,5.876h-31.74c-3.24,0-5.864-2.636-5.864-5.876
	c0-3.332,2.724-5.864,5.864-5.864h31.74C271.96,268.092,274.596,270.716,274.596,273.956z"/>
<path style="fill:#E8BB20;" d="M217.196,124.664c0,0,144.508,51.104,122.96,219.536c0,0,76.392-158.64-20.288-242.496
	c-15.708-13.624-36.072-20.692-56.856-20.088l-11.052,0.32L217.196,124.664z"/>
<path style="fill:#F5EA07;" d="M179.584,342.86c-12.32-14.084-96.488-249.976,72.372-260.924
	C218.768,137.116,160.872,205.056,179.584,342.86z"/>
<g>
	<path style="fill:#4D535F;" d="M210.404,445.032c-0.036-6.04-0.708-14.4-0.12-17.688c-0.952-2.748-1.348-10.388-1.392-13.332
		h-4.836v-12.464c-4.768-4.64-5.68-9.532-5.612-15.324c-5.052-5.444-7.236-11.348-7.316-17.76
		c-3.42-3.836-6.296-12.892-6.936-16.892c-2.988-4.676-3.72-12.096-3.152-17.592c-4.624,2.76-10.232,5.784-16.608,8.932
		c-21.604,10.82-51.252,23.36-74.972,32.988c-23.92,9.728-39.536,32.92-39.536,58.728v30.804H223.08v-2.9
		C215.776,460.06,210.452,453.084,210.404,445.032z"/>
	<path style="fill:#4D535F;" d="M301.596,445.032c0.036-6.04,0.708-14.4,0.12-17.688c0.952-2.748,1.348-10.388,1.392-13.332h4.836
		v-12.464c4.768-4.64,5.68-9.532,5.612-15.324c5.052-5.444,7.236-11.348,7.316-17.76c3.528-3.956,6.296-12.892,6.936-16.892
		c2.988-4.676,3.72-12.096,3.152-17.592c22.164,13.236,67.832,32.28,91.58,41.916c23.92,9.728,39.536,32.92,39.536,58.728v30.804
		H288.92v-2.9C296.224,460.06,301.548,453.084,301.596,445.032z"/>
</g>
<polygon style="fill:#5F87C4;" points="288.64,465.428 220.416,465.428 240.964,385.36 264.62,385.36 "/>
<path style="fill:#70B1E1;" d="M242.952,401.476c0,0-28.64-5.684-10.64-47.376l21.784-13.736l17.06,6.868l12.316,21.08
	c0,0-8.12,35.892-27.476,33.164H242.952z"/>
<g>
	<path style="fill:#FDFEFF;" d="M254.096,340.364l-33.152,48.304l-36.956-56.48c1.82-1.124,3.376-2.184,4.732-3.208
		c6.32-4.796,10.456-10.356,13.136-16.048L254.096,340.364z"/>
	<path style="fill:#FDFEFF;" d="M325.364,330.472l-38.084,58.2l-33.184-48.304l55.352-29.048
		C312.876,319.468,318.8,326.188,325.364,330.472z"/>
</g>
<g>
	<path style="fill:#656D7A;" d="M236.596,465.428h-42.12l-28.024-52.572l26.996-20.844l-32.688,3.308l3.672-52.408
		c7.776-3.84,14.492-7.512,19.552-10.72c1.82-1.124,3.376-2.184,4.732-3.208c1.256-0.96,2.448-1.952,3.54-3.012L236.596,465.428z"/>
	<path style="fill:#656D7A;" d="M312.992,392.012l26.996,20.844l-28.024,52.572h-42.12l45.724-143.892
		c6.636,8.196,16.312,13.304,26.236,18.46l3.872,55.32L312.992,392.012z"/>
</g>
<g>
</g>
<g>
</g>
<g>
</g>
<g>
</g>
<g>
</g>
<g>
</g>
<g>
</g>
<g>
</g>
<g>
</g>
<g>
</g>
<g>
</g>
<g>
</g>
<g>
</g>
<g>
</g>
<g>
</g>
</svg>
