<?xml version="1.0" encoding="iso-8859-1"?>
<!-- Generator: Adobe Illustrator 19.0.0, SVG Export Plug-In . SVG Version: 6.00 Build 0)  -->
<svg version="1.1" id="Capa_1" xmlns="http://www.w3.org/2000/svg" xmlns:xlink="http://www.w3.org/1999/xlink" x="0px" y="0px"
	 viewBox="0 0 521.689 521.689" style="enable-background:new 0 0 521.689 521.689;" xml:space="preserve">
<circle style="fill:#4C5BA8;" cx="260.844" cy="265.689" r="256"/>
<polygon style="fill:#F0BA7B;" points="117.724,83.185 117.724,140.765 120.228,162.337 160.48,166.765 175.5,164.069 
	168.568,124.977 171.072,76.829 "/>
<path style="fill:#DFDFDF;" d="M190.956,214.721c0-19.32,0-44.2,0-44.2l-10.536-39.008l-10.36-11.784
	c-0.896,3.424-3.468,6.008-6.748,8.248c-3.06,2.088-5.288,5.104-8.624,6.828c-1.216,0.628-2.416,0.928-3.556,0.976
	c-1.712,1.992-4.324,2.632-6.84,2.232c-1.884,1.216-4.184,1.716-6.312,0.872c-4.172-1.652-7.86-4.012-11.372-6.796
	c-1.508-1.196-2.724-2.692-3.752-4.324c-0.12-0.188-0.236-0.38-0.356-0.572c-1.88-0.384-3.324-1.356-4.328-2.652l-24.304,20.352
	v69.824h97.088V214.721z"/>
<path style="fill:#D64331;" d="M125.62,214.721h30.876l-4.548-32.432c0,0,1.864-9.816-5.332-23.816l-2.756-5.344l-6.9,1.276
	l-1.172,4.068c0,0-10.616,23.012-9.328,33.548L125.62,214.721z"/>
<path style="fill:#F1592F;" d="M122.8,140.573c0,0,4.612-4.928,20.756-2.648l17.1,5.632c0,0-8.568,0.876-14.044,14.912
	c0,0-7.408-3.596-10.828,0C135.784,158.469,127.876,142.505,122.8,140.573z"/>
<path style="fill:#F7CFA2;" d="M112.412,54.749c0,0-5.476-7.628-5.372,1.72c0,0-0.216,7.088,0.968,8.592c0,0-1.18,14.392,5.8,9.128
	c0,0,2.04,18.368,4.188,21.696c0,0,7.196,10.528,11.816,12.136c11.52,10.528,30.984,1.14,38.344-9.128
	c0,0,6.552-11.492,6.016-20.624c0,0,4.724,2.472,7.304-4.296c0,0,0.86-10.956,3.008-14.072c0,0,0.108-7.732-7.412,0l4.08-21.052
	c0,0-12.028-19.548-12.568-20.624c-0.536-1.076-13.64-6.876-19.656-6.876s-21.16,0-21.16,0l-11.064,16.004
	c0,0-3.76,18.796-3.868,19.548C112.736,47.661,112.412,54.749,112.412,54.749z"/>
<path style="fill:#656C7A;" d="M111.732,55.081c0,0-6.992-15.872,0-27.964c0,0,2.196-11.372,14.36-20.216
	c0,0,15.496-13.416,42.136-2.836c0,0,17.196,12.092,17.76,30.8c0,0,3.016,12.06-4.184,20.2c-2.916,3.296-6.068,9.396-5.64,13.812
	l-0.052-17.668c-0.008-2.972-0.948-5.912-2.88-8.172c-0.516-0.6-1.116-1.184-1.82-1.716c-7.608-5.72-10.428-14.152-19.368-13.852
	c0,0-13.552-0.632-18.688-3.652c-5.476-3.224-10.252,3.756-13.42,7.156c-1.016,1.092-1.836,2.34-2.412,3.716
	c-0.992,2.376-2.284,6.464-2.216,11.576l-1.396,19.332l-0.968,0.644C112.952,66.241,113.632,56.273,111.732,55.081z"/>
<g>
	<path style="fill:#FFFFFF;" d="M169.388,108.593c0,0,16.696,17.888,2.924,52.056c-6.592,2.696-18.96-13.628-28.76-22.724
		C143.556,137.925,169.344,120.585,169.388,108.593z"/>
	<path style="fill:#FFFFFF;" d="M117.724,108.593c0,0-16.696,17.888-2.924,52.056c6.592,2.696,18.96-13.628,28.76-22.724
		C143.556,137.925,117.34,120.413,117.724,108.593z"/>
</g>
<path style="fill:#755A4F;" d="M247.472,214.721c0.236-23.684-7.804-47.536-7.804-47.536c2.072-16.16-5.48-17.496-5.48-17.496
	c-36.64-16.072-27.644-12.068-43.976-19.512c-4.112-1.88-7.892-4.384-11.196-7.404c-3.168-2.872-4.516-6.3-6.724-10.024
	c-0.056-0.092-0.092-0.136-0.092-0.136c5.364,13.772-6.864,57.312-11.12,73.132c-1.14,4.236-2.132,8.508-2.972,12.812l-3.156,16.156
	h92.52V214.721z"/>
<path style="fill:#896D61;" d="M170.172,214.721c14.668-31.676,29.188-65.712,29.188-65.712l-11.14-4.74l7.94-4.224
	c-7.392-6.744-13.064-12.676-17.14-17.268c-4.988-5.604-6.212-9.304-6.724-10.024c-0.056-0.092-0.092-0.136-0.092-0.136
	c5.364,13.772-6.864,57.312-11.12,73.132c-1.14,4.236-2.132,8.508-2.972,12.812l-3.156,16.156h15.216V214.721z"/>
<path style="fill:#755A4F;" d="M122.796,214.721c-4.14-36.528-9.948-93.624-7.076-103.512c0,0,0,0-0.012,0.012
	c-0.468,0.548-17.784,17.66-65.62,29.36c0,0-7.084,2.496-10.128,19.248c-3.604,19.824-8.972,26.272-9.808,41.968
	c-0.228,4.324-0.668,8.632-1.212,12.928h93.856V214.721z"/>
<path style="fill:#896D61;" d="M109.672,214.721h13.124c-4.14-36.528-9.948-93.624-7.076-103.512c0,0,0,0-0.012,0.012
	c-0.228,0.468-9.208,13.54-27.26,25.248l8.316,5.352l-11.696,5.776C85.064,147.593,98.056,184.321,109.672,214.721z"/>
<path style="fill:#F0BA7B;" d="M366.232,334.657c0,67.648-0.692,51.624,2.504,79.152l40.248,4.428l15.02-2.696
	c-8.512-48.004-7.432-29.46-4.428-87.24L366.232,334.657z"/>
<path style="fill:#DFDFDF;" d="M439.46,466.189c0-19.32,0-44.2,0-44.2l-10.536-39.008l-10.36-11.784
	c-0.896,3.424-3.468,6.008-6.748,8.248c-4,2.728-7.156,7.6-12.18,7.804c-1.712,1.992-4.324,2.632-6.84,2.232
	c-1.884,1.216-4.184,1.716-6.312,0.872c-5.168-2.048-12.072-6.204-15.48-11.688c-1.88-0.384-3.324-1.356-4.328-2.652l-24.304,20.352
	v69.824L439.46,466.189L439.46,466.189z"/>
<path style="fill:#D64331;" d="M374.124,466.189H405l-4.548-32.432c0,0,1.864-9.816-5.332-23.816l-2.756-5.344l-6.9,1.276
	l-1.172,4.068c0,0-10.616,23.012-9.328,33.548L374.124,466.189z"/>
<path style="fill:#F1592F;" d="M371.308,392.045c0,0,4.612-4.928,20.756-2.648l17.1,5.632c0,0-8.568,0.876-14.044,14.912
	c0,0-7.408-3.596-10.828,0C384.288,409.941,376.384,393.977,371.308,392.045z"/>
<path style="fill:#F7CFA2;" d="M360.92,306.221c0,0-5.476-7.628-5.372,1.72c0,0-0.216,7.088,0.968,8.592c0,0-1.18,14.392,5.8,9.128
	c0,0,2.04,18.368,4.188,21.696c0,0,7.196,10.528,11.816,12.136c0,0,9.988,9.128,24.488,1.824c0,0,9.236-4.512,13.856-10.956
	c0,0,6.552-11.492,6.016-20.624c0,0,4.724,2.472,7.304-4.296c0,0,0.86-10.956,3.008-14.072c0,0,0.108-7.732-7.412,0l4.08-21.052
	c0,0-12.028-19.548-12.568-20.624c-0.536-1.076-13.64-6.876-19.656-6.876s-21.16,0-21.16,0l-11.064,16.004
	c0,0-3.76,18.796-3.868,19.548C361.24,299.129,360.92,306.221,360.92,306.221z"/>
<path style="fill:#656C7A;" d="M360.24,306.553c0,0-6.992-15.872,0-27.964c0,0,2.196-11.372,14.36-20.216
	c0,0,15.492-13.416,42.136-2.836c0,0,17.196,12.092,17.76,30.8c0,0,3.016,12.06-4.184,20.2c-2.916,3.296-6.068,9.396-5.64,13.812
	l-0.052-17.668c-0.028-8.824-5.82-9.188-11.348-16.332c-2.684-3.468-7.08-7.596-12.72-7.408c0,0-13.552-0.632-18.688-3.652
	c-5.476-3.224-10.252,3.756-13.416,7.156c-3.36,3.612-4.692,10.344-4.628,15.292l-1.396,19.332l-0.968,0.644
	C361.456,317.713,362.136,307.745,360.24,306.553z"/>
<g>
	<path style="fill:#FFFFFF;" d="M417.896,360.065c0,0,16.696,17.888,2.924,52.056c-6.592,2.696-18.96-13.628-28.76-22.724
		C392.06,389.397,417.848,372.057,417.896,360.065z"/>
	<path style="fill:#FFFFFF;" d="M366.228,360.065c0,0-16.696,17.888-2.924,52.056c6.592,2.696,18.96-13.628,28.76-22.724
		C392.06,389.397,365.844,371.885,366.228,360.065z"/>
</g>
<path style="fill:#755A4F;" d="M495.976,466.189c0.236-23.684-7.804-47.536-7.804-47.536c2.072-16.16-5.48-17.496-5.48-17.496
	l-31.004-13.6l-12.972-5.912c-4.112-1.88-7.892-4.384-11.196-7.404c-3.168-2.872-4.516-6.3-6.724-10.024
	c-0.056-0.092-0.092-0.136-0.092-0.136c5.364,13.772-6.864,57.312-11.12,73.132c-1.14,4.236-2.132,8.508-2.972,12.812l-3.156,16.156
	h92.52V466.189z"/>
<path style="fill:#896D61;" d="M418.676,466.189c14.668-31.676,29.188-65.712,29.188-65.712l-11.14-4.74l7.94-4.224
	c-7.392-6.744-13.064-12.676-17.14-17.268c-4.988-5.604-6.212-9.304-6.724-10.024c-0.056-0.092-0.092-0.136-0.092-0.136
	c5.364,13.772-6.864,57.312-11.12,73.132c-1.14,4.236-2.132,8.508-2.972,12.812l-3.156,16.156h15.216V466.189z"/>
<path style="fill:#755A4F;" d="M371.3,466.189c-4.14-36.528-9.948-93.624-7.076-103.512c0,0,0,0-0.012,0.012
	c-0.468,0.548-17.784,17.66-65.62,29.36c0,0-7.084,2.496-10.128,19.248c-3.604,19.824-8.972,26.272-9.808,41.968
	c-0.228,4.324-0.668,8.632-1.212,12.928H371.3V466.189z"/>
<path style="fill:#896D61;" d="M358.176,466.189H371.3c-4.14-36.528-9.948-93.624-7.076-103.512c0,0,0,0-0.012,0.012
	c-0.228,0.468-9.208,13.54-27.26,25.248l8.316,5.352l-11.696,5.776C333.572,399.065,346.56,435.789,358.176,466.189z"/>
<g>
	<path style="fill:#F5EA07;" d="M266.084,420.853h-69.128c-56.56,0-102.576-46.016-102.576-102.576v-57.94h18.652v57.936
		c0,46.276,37.648,83.928,83.928,83.928h69.124V420.853z"/>
	<polygon style="fill:#F5EA07;" points="131.772,277.497 102.7,231.945 73.628,277.497 	"/>
	<path style="fill:#F5EA07;" d="M411.108,205.925h-18.652v-46.748c0-46.276-37.648-83.928-83.928-83.928h-84.044V56.597h84.048
		c56.56,0,102.576,46.016,102.576,102.576L411.108,205.925L411.108,205.925z"/>
	<polygon style="fill:#F5EA07;" points="373.716,188.761 402.788,234.313 431.86,188.761 	"/>
</g>
<g>
</g>
<g>
</g>
<g>
</g>
<g>
</g>
<g>
</g>
<g>
</g>
<g>
</g>
<g>
</g>
<g>
</g>
<g>
</g>
<g>
</g>
<g>
</g>
<g>
</g>
<g>
</g>
<g>
</g>
</svg>
