<?xml version="1.0" encoding="iso-8859-1"?>
<!-- Generator: Adobe Illustrator 19.0.0, SVG Export Plug-In . SVG Version: 6.00 Build 0)  -->
<svg version="1.1" id="Capa_1" xmlns="http://www.w3.org/2000/svg" xmlns:xlink="http://www.w3.org/1999/xlink" x="0px" y="0px"
	 viewBox="0 0 512 512" style="enable-background:new 0 0 512 512;" xml:space="preserve">
<circle style="fill:#4D5BA5;" cx="256" cy="256" r="256"/>
<path style="fill:#FDFEFF;" d="M110,420.304c83.324,73.996,208.656,74.012,291.996,0L256,274.308L110,420.304z"/>
<path style="fill:#F5EA07;" d="M242.904,36.212C192.016,39.2,145.796,59.484,110,91.276L242.904,224.18V36.212z"/>
<path style="fill:#7EC359;" d="M420.516,401.788c121.184-136.456,32.06-354.8-151.42-365.576v214.156L420.516,401.788z"/>
<path style="fill:#F1592F;" d="M91.484,109.792c-73.996,83.32-74.016,208.656,0,292l146-146L91.484,109.792z"/>
<circle style="fill:#4D5BA5;" cx="256" cy="256" r="127.444"/>
<path style="fill:#FDFEFF;" d="M248.084,309.1v-47.388c-14.776-4.224-25.616-10.612-32.516-19.168
	c-6.9-8.556-10.348-18.944-10.348-31.16c0-12.364,3.9-22.752,11.704-31.16s18.188-13.252,31.16-14.532v-11.196h16.4v11.196
	c11.988,1.432,21.524,5.524,28.612,12.272s11.612,15.776,13.572,27.088l-28.612,3.732c-1.736-8.896-6.256-14.928-13.572-18.096
	v44.22c18.096,4.9,30.424,11.252,36.984,19.056c6.56,7.804,9.84,17.812,9.84,30.028c0,13.648-4.128,25.144-12.384,34.496
	c-8.256,9.348-19.736,15.08-34.436,17.192v21.148h-16.4V336.24c-13.044-1.584-23.636-6.448-31.78-14.588
	c-8.144-8.144-13.344-19.64-15.608-34.496l29.52-3.168c1.208,6.032,3.468,11.236,6.784,15.608
	C240.316,303.972,244.012,307.14,248.084,309.1z M248.084,190.348c-4.448,1.508-7.992,4.072-10.632,7.692s-3.96,7.616-3.96,11.988
	c0,3.996,1.208,7.708,3.62,11.14s6.068,6.2,10.972,8.312L248.084,190.348L248.084,190.348z M264.48,310.68
	c5.656-1.056,10.256-3.676,13.796-7.86c3.544-4.184,5.316-9.104,5.316-14.76c0-5.052-1.488-9.404-4.468-13.064
	c-2.98-3.656-7.86-6.464-14.644-8.424V310.68z"/>
<g>
</g>
<g>
</g>
<g>
</g>
<g>
</g>
<g>
</g>
<g>
</g>
<g>
</g>
<g>
</g>
<g>
</g>
<g>
</g>
<g>
</g>
<g>
</g>
<g>
</g>
<g>
</g>
<g>
</g>
</svg>
