<?xml version="1.0" encoding="iso-8859-1"?>
<!-- Generator: Adobe Illustrator 19.0.0, SVG Export Plug-In . SVG Version: 6.00 Build 0)  -->
<svg version="1.1" id="Capa_1" xmlns="http://www.w3.org/2000/svg" xmlns:xlink="http://www.w3.org/1999/xlink" x="0px" y="0px"
	 viewBox="0 0 512 512" style="enable-background:new 0 0 512 512;" xml:space="preserve">
<circle style="fill:#F1592F;" cx="256" cy="256" r="256"/>
<polygon style="fill:#70B1E1;" points="254.68,78.3 132.844,130.512 130.896,128.568 130.896,148.568 254.68,95.524 
	371.408,145.548 371.408,128.324 "/>
<g>
	<polygon style="fill:#D2D2D4;" points="62.96,298.396 48.708,291.512 134.944,113.008 221.18,291.512 206.928,298.396 
		134.944,149.404 	"/>
	<polygon style="fill:#D2D2D4;" points="449.04,298.396 377.056,149.404 305.072,298.396 290.82,291.512 377.056,113.008 
		463.292,291.512 	"/>
	<rect x="242" y="86.912" style="fill:#D2D2D4;" width="25.332" height="311.608"/>
</g>
<circle style="fill:#FDFEFF;" cx="254.68" cy="86.912" r="30.912"/>
<circle style="fill:#D2D2D4;" cx="254.68" cy="86.912" r="15.584"/>
<g>
	<circle style="fill:#FDFEFF;" cx="132.32" cy="134.848" r="23.296"/>
	<circle style="fill:#FDFEFF;" cx="377.04" cy="134.848" r="23.296"/>
</g>
<g>
	<path style="fill:#70B1E1;" d="M41.956,284.252c0,45.576,41.632,82.52,92.988,82.52s92.988-36.944,92.988-82.52H41.956z"/>
	<path style="fill:#70B1E1;" d="M284.064,284.252c0,45.576,41.632,82.52,92.988,82.52s92.988-36.944,92.988-82.52H284.064z"/>
</g>
<path style="fill:#FDFEFF;" d="M254.676,385.904c-31.916,0-57.788,21.648-57.788,48.348H312.46
	C312.464,407.548,286.592,385.904,254.676,385.904z"/>
<rect x="174.528" y="429.12" style="fill:#D2D2D4;" width="160.28" height="26.868"/>
<g>
	<path style="fill:#FDFEFF;" d="M373.32,261.74v-22.352c-6.972-1.992-12.084-5.004-15.336-9.04s-4.88-8.936-4.88-14.696
		c0-5.832,1.84-10.732,5.52-14.696s8.58-6.248,14.696-6.856v-5.28h7.736v5.28c5.656,0.676,10.152,2.604,13.496,5.788
		c3.344,3.184,5.476,7.44,6.4,12.776l-13.496,1.76c-0.816-4.196-2.952-7.04-6.4-8.536v20.856c8.536,2.312,14.348,5.308,17.444,8.988
		c3.092,3.68,4.64,8.4,4.64,14.164c0,6.436-1.948,11.86-5.84,16.268c-3.896,4.408-9.308,7.112-16.244,8.108v9.976h-7.736v-9.708
		c-6.152-0.748-11.148-3.04-14.988-6.88s-6.296-9.264-7.36-16.268l13.924-1.492c0.568,2.844,1.636,5.3,3.2,7.36
		C369.66,259.324,371.4,260.816,373.32,261.74z M373.32,205.732c-2.1,0.712-3.768,1.92-5.016,3.628s-1.868,3.592-1.868,5.656
		c0,1.884,0.568,3.636,1.708,5.256s2.864,2.924,5.176,3.92V205.732z M381.056,262.488c2.668-0.496,4.836-1.732,6.508-3.708
		c1.672-1.972,2.508-4.296,2.508-6.96c0-2.384-0.704-4.436-2.108-6.16s-3.708-3.048-6.908-3.976V262.488z"/>
	<path style="fill:#FDFEFF;" d="M131.212,261.74v-22.352c-6.972-1.992-12.084-5.004-15.336-9.04s-4.88-8.936-4.88-14.696
		c0-5.832,1.84-10.732,5.52-14.696s8.58-6.248,14.696-6.856v-5.28h7.736v5.28c5.656,0.676,10.152,2.604,13.496,5.788
		c3.344,3.184,5.476,7.44,6.4,12.776l-13.496,1.76c-0.816-4.196-2.952-7.04-6.4-8.536v20.856c8.536,2.312,14.348,5.308,17.444,8.988
		c3.092,3.68,4.64,8.4,4.64,14.164c0,6.436-1.948,11.86-5.84,16.268c-3.896,4.408-9.308,7.112-16.244,8.108v9.976h-7.736v-9.708
		c-6.152-0.748-11.148-3.04-14.988-6.88s-6.296-9.264-7.36-16.268l13.924-1.492c0.568,2.844,1.636,5.3,3.2,7.36
		C127.548,259.324,129.292,260.816,131.212,261.74z M131.212,205.732c-2.1,0.712-3.768,1.92-5.016,3.628
		c-1.244,1.708-1.868,3.592-1.868,5.656c0,1.884,0.568,3.636,1.708,5.256c1.136,1.62,2.864,2.924,5.176,3.92V205.732z
		 M138.944,262.488c2.668-0.496,4.836-1.732,6.508-3.708c1.672-1.972,2.508-4.296,2.508-6.96c0-2.384-0.704-4.436-2.108-6.16
		s-3.708-3.048-6.908-3.976L138.944,262.488L138.944,262.488z"/>
</g>
<g>
</g>
<g>
</g>
<g>
</g>
<g>
</g>
<g>
</g>
<g>
</g>
<g>
</g>
<g>
</g>
<g>
</g>
<g>
</g>
<g>
</g>
<g>
</g>
<g>
</g>
<g>
</g>
<g>
</g>
</svg>
