<?xml version="1.0" encoding="iso-8859-1"?>
<!-- Generator: Adobe Illustrator 19.0.0, SVG Export Plug-In . SVG Version: 6.00 Build 0)  -->
<svg version="1.1" id="Capa_1" xmlns="http://www.w3.org/2000/svg" xmlns:xlink="http://www.w3.org/1999/xlink" x="0px" y="0px"
	 viewBox="0 0 512 512" style="enable-background:new 0 0 512 512;" xml:space="preserve">
<circle style="fill:#EE4B68;" cx="256" cy="256" r="256"/>
<polygon style="fill:#E8BB20;" points="335.764,452.196 310.716,387.028 198.36,387.028 174.68,452.196 131.212,452.196 
	186.792,309.5 226.8,309.5 210.124,355.316 298.368,355.316 281.356,309.5 323.652,309.5 380.788,452.196 "/>
<rect x="47.692" y="77.028" style="fill:#FDFEFF;" width="416.6" height="261.6"/>
<rect x="31.408" y="52.2" style="fill:#E8BB20;" width="449.2" height="24.832"/>
<rect x="222.4" y="181.88" style="fill:#70B1E1;" width="32.704" height="126.076"/>
<rect x="341.88" y="181.88" style="fill:#F1592F;" width="32.704" height="126.076"/>
<rect x="401.6" y="148.16" style="fill:#7EC359;" width="32.704" height="159.796"/>
<rect x="282.12" y="209.16" style="fill:#F5EA07;" width="32.704" height="98.796"/>
<rect x="162.652" y="240.92" style="fill:#F1592F;" width="32.704" height="67.032"/>
<path style="fill:#70B1E1;" d="M111.34,217.452v-33.644c-10.492-2.996-18.188-7.536-23.084-13.608
	c-4.896-6.076-7.348-13.448-7.348-22.12c0-8.78,2.772-16.152,8.312-22.12s12.912-9.408,22.12-10.316v-7.948h11.644v7.948
	c8.512,1.016,15.284,3.92,20.312,8.712s8.244,11.2,9.636,19.228l-20.312,2.648c-1.232-6.316-4.444-10.6-9.636-12.848v31.396
	c12.848,3.48,21.6,7.988,26.256,13.528c4.656,5.54,6.984,12.644,6.984,21.316c0,9.688-2.932,17.852-8.792,24.488
	s-14.012,10.704-24.448,12.204v15.016H111.34V236.72c-9.26-1.124-16.78-4.576-22.56-10.356s-9.476-13.944-11.08-24.488l20.956-2.248
	c0.856,4.284,2.464,7.976,4.816,11.08S108.448,216.06,111.34,217.452z M111.34,133.144c-3.16,1.072-5.672,2.892-7.548,5.46
	s-2.812,5.408-2.812,8.512c0,2.836,0.856,5.472,2.568,7.908s4.308,4.404,7.788,5.9v-27.78H111.34z M122.98,218.576
	c4.016-0.748,7.28-2.608,9.796-5.58s3.772-6.464,3.772-10.48c0-3.588-1.056-6.676-3.172-9.272s-5.58-4.592-10.396-5.98
	C122.98,187.264,122.98,218.576,122.98,218.576z"/>
<g>
</g>
<g>
</g>
<g>
</g>
<g>
</g>
<g>
</g>
<g>
</g>
<g>
</g>
<g>
</g>
<g>
</g>
<g>
</g>
<g>
</g>
<g>
</g>
<g>
</g>
<g>
</g>
<g>
</g>
</svg>
