<?xml version="1.0" encoding="iso-8859-1"?>
<!-- Generator: Adobe Illustrator 19.0.0, SVG Export Plug-In . SVG Version: 6.00 Build 0)  -->
<svg version="1.1" id="Capa_1" xmlns="http://www.w3.org/2000/svg" xmlns:xlink="http://www.w3.org/1999/xlink" x="0px" y="0px"
	 viewBox="0 0 512 512" style="enable-background:new 0 0 512 512;" xml:space="preserve">
<circle style="fill:#D64331;" cx="256" cy="256" r="256"/>
<path style="fill:#FDFEFF;" d="M351.688,180.404c-0.34-0.552-34.772-55.228-95.728-55.948
	c-60.984,0.724-95.304,55.396-95.644,55.948l-5.972-3.672c1.468-2.388,36.728-58.516,101.616-59.284
	c64.972,0.772,100.228,56.896,101.7,59.284L351.688,180.404z"/>
<g>
	<path style="fill:#656D7A;" d="M322.136,155.524c-20.188-16.836-42.444-25.52-66.148-25.812
		c-23.688,0.292-45.936,8.976-66.128,25.812c-3.716,3.1-9.244,2.6-12.34-1.12c-3.1-3.716-2.6-9.24,1.116-12.34
		c23.068-19.232,49.78-29.564,77.252-29.876h0.1h0.1c27.484,0.312,54.204,10.64,77.268,29.876c3.716,3.1,4.216,8.624,1.116,12.34
		C331.38,158.12,325.852,158.62,322.136,155.524z"/>
	<path style="fill:#656D7A;" d="M451.988,178.564c-4.748-7.728-13.284-12.88-23.024-12.88H83.04c-9.744,0-18.276,5.152-23.024,12.88
		C57.472,182.68,56,187.536,56,192.72v242.712c0,14.928,12.108,27.04,27.04,27.04h345.924c14.928,0,27.04-12.108,27.04-27.04V192.72
		C456,187.536,454.528,182.68,451.988,178.564z"/>
</g>
<path style="fill:#D2D2D4;" d="M428.96,165.684H83.04c-9.744,0-18.276,5.152-23.024,12.88l23.236,74.648
	c9.972,31.996,39.584,53.796,73.108,53.796h199.292c33.52,0,63.136-21.8,73.108-53.796l23.236-74.648
	C447.24,170.836,438.704,165.684,428.96,165.684z"/>
<g>
	<path style="fill:#4D535F;" d="M185.344,286.784h-31.868c-5.232,0-9.472,4.24-9.472,9.476v40.048c0,5.232,4.24,9.476,9.472,9.476
		h31.868c5.232,0,9.476-4.24,9.476-9.476v-40.052C194.816,291.024,190.576,286.784,185.344,286.784z"/>
	<path style="fill:#4D535F;" d="M358.524,286.784h-31.868c-5.232,0-9.476,4.24-9.476,9.476v40.048c0,5.232,4.24,9.476,9.476,9.476
		h31.868c5.232,0,9.472-4.24,9.472-9.476v-40.052C368,291.024,363.756,286.784,358.524,286.784z"/>
</g>
<path style="fill:#FDFEFF;" d="M251.672,409.896v-25.9c-8.076-2.308-14-5.8-17.772-10.48c-3.772-4.676-5.656-10.356-5.656-17.032
	c0-6.76,2.132-12.436,6.4-17.032s9.944-7.244,17.032-7.944v-6.12h8.964v6.12c6.552,0.784,11.764,3.02,15.64,6.708
	c3.872,3.688,6.348,8.624,7.42,14.804l-15.64,2.04c-0.948-4.864-3.42-8.16-7.42-9.892v24.172c9.892,2.68,16.628,6.152,20.216,10.416
	c3.584,4.264,5.38,9.736,5.38,16.412c0,7.46-2.256,13.744-6.768,18.856s-10.788,8.244-18.824,9.396v11.56h-8.964v-11.252
	c-7.128-0.864-12.92-3.524-17.372-7.976c-4.452-4.452-7.296-10.736-8.532-18.856l16.136-1.732c0.66,3.296,1.896,6.14,3.708,8.532
	C247.428,407.096,249.448,408.824,251.672,409.896z M251.672,344.988c-2.432,0.824-4.368,2.224-5.812,4.204
	s-2.164,4.164-2.164,6.552c0,2.184,0.66,4.212,1.98,6.088s3.316,3.388,5.996,4.544V344.988z M260.636,410.764
	c3.092-0.576,5.604-2.008,7.54-4.296s2.904-4.976,2.904-8.068c0-2.76-0.812-5.14-2.44-7.14s-4.296-3.532-8.004-4.604V410.764z"/>
<g>
</g>
<g>
</g>
<g>
</g>
<g>
</g>
<g>
</g>
<g>
</g>
<g>
</g>
<g>
</g>
<g>
</g>
<g>
</g>
<g>
</g>
<g>
</g>
<g>
</g>
<g>
</g>
<g>
</g>
</svg>
