<?xml version="1.0" encoding="iso-8859-1"?>
<!-- Generator: Adobe Illustrator 19.0.0, SVG Export Plug-In . SVG Version: 6.00 Build 0)  -->
<svg version="1.1" id="Capa_1" xmlns="http://www.w3.org/2000/svg" xmlns:xlink="http://www.w3.org/1999/xlink" x="0px" y="0px"
	 viewBox="0 0 512 512" style="enable-background:new 0 0 512 512;" xml:space="preserve">
<circle style="fill:#70B1E1;" cx="256" cy="256" r="256"/>
<path style="fill:#656D7A;" d="M471.448,82.38H40.556c-9.096,0-16.468,7.372-16.468,16.468v274.14h463.824V98.848
	C487.912,89.752,480.54,82.38,471.448,82.38z"/>
<rect x="49.364" y="107.668" style="fill:#FFFFFF;" width="413.28" height="239.968"/>
<path style="fill:#4D535F;" d="M9.736,372.988v36.544c0,11.096,8.996,20.092,20.088,20.092h452.348
	c11.096,0,20.088-8.996,20.088-20.092v-36.544H9.736z"/>
<g>
	<polygon style="fill:#656D7A;" points="299.44,372.988 212.56,372.988 217.488,390.88 294.512,390.88 	"/>
	<polygon style="fill:#656D7A;" points="417.916,197.656 309.372,306.2 256.444,253.272 201.94,307.776 150.492,256.236 
		59.188,347.632 49.364,347.632 49.364,340.216 150.492,239.18 201.94,290.624 256.444,236.12 309.372,289.052 409.296,189.124 	"/>
</g>
<circle style="fill:#70B1E1;" cx="310.16" cy="296.16" r="16.636"/>
<circle style="fill:#7EC359;" cx="256.72" cy="247.276" r="16.636"/>
<circle style="fill:#F5EA07;" cx="150.36" cy="250.904" r="16.636"/>
<circle style="fill:#F1592F;" cx="202.268" cy="298.2" r="16.636"/>
<polygon style="fill:#656D7A;" points="430.728,178.02 371.76,188.408 420.34,236.988 "/>
<path style="fill:#F1592F;" d="M306.224,216.76v-23.508c-7.332-2.096-12.708-5.264-16.128-9.508s-5.132-9.396-5.132-15.456
	c0-6.132,1.936-11.288,5.808-15.456c3.872-4.172,9.024-6.572,15.456-7.208v-5.556h8.136v5.556c5.948,0.712,10.68,2.74,14.196,6.088
	c3.516,3.348,5.76,7.828,6.732,13.436L321.096,167c-0.86-4.412-3.104-7.404-6.732-8.976v21.936
	c8.976,2.432,15.092,5.584,18.344,9.452c3.252,3.872,4.88,8.836,4.88,14.896c0,6.768-2.048,12.472-6.144,17.112
	s-9.788,7.48-17.084,8.528v10.492h-8.136v-10.212c-6.472-0.784-11.724-3.196-15.764-7.236s-6.62-9.744-7.744-17.112l14.644-1.572
	c0.6,2.992,1.72,5.572,3.368,7.744S304.204,215.788,306.224,216.76z M306.224,157.852c-2.208,0.748-3.964,2.02-5.272,3.816
	c-1.308,1.796-1.964,3.776-1.964,5.948c0,1.984,0.6,3.824,1.796,5.528c1.196,1.7,3.012,3.076,5.44,4.124V157.852z M314.36,217.548
	c2.804-0.524,5.088-1.824,6.844-3.9c1.756-2.076,2.636-4.516,2.636-7.32c0-2.504-0.74-4.664-2.216-6.48
	c-1.476-1.812-3.9-3.208-7.264-4.18L314.36,217.548L314.36,217.548z"/>
<g>
	<rect x="72.24" y="141" style="fill:#D2D2D4;" width="167.264" height="13.804"/>
	<rect x="72.24" y="178.02" style="fill:#D2D2D4;" width="167.264" height="13.804"/>
</g>
<g>
</g>
<g>
</g>
<g>
</g>
<g>
</g>
<g>
</g>
<g>
</g>
<g>
</g>
<g>
</g>
<g>
</g>
<g>
</g>
<g>
</g>
<g>
</g>
<g>
</g>
<g>
</g>
<g>
</g>
</svg>
