<?xml version="1.0" encoding="iso-8859-1"?>
<!-- Generator: Adobe Illustrator 19.0.0, SVG Export Plug-In . SVG Version: 6.00 Build 0)  -->
<svg version="1.1" id="Capa_1" xmlns="http://www.w3.org/2000/svg" xmlns:xlink="http://www.w3.org/1999/xlink" x="0px" y="0px"
	 viewBox="0 0 512 512" style="enable-background:new 0 0 512 512;" xml:space="preserve">
<circle style="fill:#5F87C4;" cx="256" cy="256" r="256"/>
<g>
	<rect x="244" y="172.88" style="fill:#656D7A;" width="24" height="240.16"/>
	<polygon style="fill:#656D7A;" points="439.908,413.044 415.908,413.044 415.908,333.988 93.368,333.988 93.368,413.044 
		69.368,413.044 69.368,309.988 439.908,309.988 	"/>
</g>
<rect x="30.708" y="382.36" style="fill:#F1592F;" width="101.328" height="101.328"/>
<rect x="205.32" y="382.36" style="fill:#F5EA07;" width="101.328" height="101.328"/>
<g>
	<rect x="379.96" y="382.36" style="fill:#FDFEFF;" width="101.328" height="101.328"/>
	<rect x="220.04" y="302" style="fill:#FDFEFF;" width="69.184" height="40"/>
	<rect x="234.64" y="287.396" style="fill:#FDFEFF;" width="40" height="69.184"/>
</g>
<circle style="fill:#F5EA07;" cx="254.64" cy="146.768" r="118.476"/>
<g>
	<path style="fill:#E8BB20;" d="M254.636,247.992c-55.812,0-101.22-45.408-101.22-101.228c0-55.812,45.408-101.22,101.22-101.22
		s101.22,45.408,101.22,101.22C355.86,202.584,310.452,247.992,254.636,247.992z M254.636,61.768
		c-46.868,0-84.996,38.132-84.996,84.996c0,46.872,38.132,85.004,84.996,85.004s84.996-38.132,84.996-85.004
		C339.636,99.9,301.504,61.768,254.636,61.768z"/>
	<path style="fill:#E8BB20;" d="M249.816,179.328v-28.872c-9.004-2.572-15.608-6.468-19.812-11.68
		c-4.204-5.216-6.304-11.544-6.304-18.984c0-7.536,2.376-13.864,7.132-18.984s11.084-8.076,18.984-8.856v-6.824h9.992v6.824
		c7.304,0.872,13.116,3.364,17.436,7.476s7.076,9.612,8.268,16.504l-17.436,2.276c-1.056-5.42-3.812-9.096-8.268-11.024v26.944
		c11.024,2.988,18.536,6.856,22.532,11.612s5.996,10.852,5.996,18.296c0,8.316-2.516,15.32-7.544,21.016
		s-12.024,9.188-20.984,10.476v12.888h-9.992v-12.54c-7.948-0.964-14.404-3.928-19.364-8.888c-4.96-4.96-8.132-11.968-9.508-21.016
		l17.984-1.928c0.736,3.676,2.112,6.844,4.136,9.508C245.084,176.204,247.332,178.136,249.816,179.328z M249.816,106.972
		c-2.712,0.92-4.868,2.48-6.476,4.684c-1.608,2.204-2.412,4.64-2.412,7.304c0,2.436,0.736,4.696,2.204,6.788
		c1.472,2.092,3.7,3.78,6.684,5.064V106.972z M259.808,180.296c3.444-0.644,6.248-2.24,8.408-4.788s3.24-5.548,3.24-8.992
		c0-3.08-0.908-5.732-2.72-7.96c-1.816-2.228-4.788-3.94-8.924-5.132v26.872H259.808z"/>
</g>
<g>
</g>
<g>
</g>
<g>
</g>
<g>
</g>
<g>
</g>
<g>
</g>
<g>
</g>
<g>
</g>
<g>
</g>
<g>
</g>
<g>
</g>
<g>
</g>
<g>
</g>
<g>
</g>
<g>
</g>
</svg>
