<?xml version="1.0" encoding="iso-8859-1"?>
<!-- Generator: Adobe Illustrator 19.0.0, SVG Export Plug-In . SVG Version: 6.00 Build 0)  -->
<svg version="1.1" id="Capa_1" xmlns="http://www.w3.org/2000/svg" xmlns:xlink="http://www.w3.org/1999/xlink" x="0px" y="0px"
	 viewBox="0 0 512 512" style="enable-background:new 0 0 512 512;" xml:space="preserve">
<circle style="fill:#4786C6;" cx="256" cy="256" r="256"/>
<path style="fill:#F1592F;" d="M399.256,480H112.744c-22.108,0-40.028-17.924-40.028-40.028V84c0-28.72,23.28-52,52-52H399.26
	c22.108,0,40.028,17.924,40.028,40.028v367.94C439.288,462.08,421.364,480,399.256,480z"/>
<g>
	<path style="fill:#D64331;" d="M399.252,32.184H123.624v79.68h275.624c22.16,0,40,17.92,40,40v-79.6
		C439.252,50.104,421.332,32.184,399.252,32.184z"/>
	<path style="fill:#D64331;" d="M112.744,480c-22.108,0-40.028-17.924-40.028-40.028V84c0-28.72,23.28-52,52-52h12.876v448H112.744z
		"/>
</g>
<path style="fill:#FFFFFF;" d="M399.268,111.84H120.264c-16.52,0-29.912-13.392-29.912-29.912s13.392-29.912,29.912-29.912h278.984
	c22.124,0,40.028,17.928,40.028,40.028v59.828C439.276,129.768,421.372,111.84,399.268,111.84z"/>
<path style="fill:#DFDFDF;" d="M439.276,132.072v-20.016c0-22.104-17.904-40.028-40.028-40.028H92.02
	c-1.088,3.088-1.676,6.416-1.676,9.9c0,3.548,0.632,6.96,1.764,10.116h307.164C421.372,92.044,439.276,109.972,439.276,132.072z"/>
<path style="fill:#7EC359;" d="M373.228,237.144h-80.016v-79.956C336.296,159.6,370.816,194.12,373.228,237.144z"/>
<path style="fill:#F2EA12;" d="M283.692,157.188v82.748l-58.444,58.508c-13.452-15.04-21.64-34.776-21.64-56.54
	C203.608,196.656,239.084,159.664,283.692,157.188z"/>
<path style="fill:#E8E7E8;" d="M373.228,246.66c-2.476,44.672-39.472,80.144-84.78,80.144c-21.704,0-41.436-8.184-56.476-21.64
	l58.508-58.504H373.228z"/>
<g>
	<rect x="185.16" y="358.48" style="fill:#FDFEFF;" width="206.548" height="17.892"/>
	<rect x="185.16" y="395.44" style="fill:#FDFEFF;" width="206.548" height="17.892"/>
</g>
<g>
</g>
<g>
</g>
<g>
</g>
<g>
</g>
<g>
</g>
<g>
</g>
<g>
</g>
<g>
</g>
<g>
</g>
<g>
</g>
<g>
</g>
<g>
</g>
<g>
</g>
<g>
</g>
<g>
</g>
</svg>
