<?xml version="1.0" encoding="iso-8859-1"?>
<!-- Generator: Adobe Illustrator 19.0.0, SVG Export Plug-In . SVG Version: 6.00 Build 0)  -->
<svg version="1.1" id="Capa_1" xmlns="http://www.w3.org/2000/svg" xmlns:xlink="http://www.w3.org/1999/xlink" x="0px" y="0px"
	 viewBox="0 0 512 512" style="enable-background:new 0 0 512 512;" xml:space="preserve">
<circle style="fill:#DFDFDF;" cx="256" cy="256" r="256"/>
<path style="fill:#F0BA7B;" d="M360.62,336.56c0,64.556-0.66,49.264,2.388,75.536l38.412,4.228l14.336-2.572
	c-8.124-45.808-7.096-28.116-4.228-83.252L360.62,336.56z"/>
<path style="fill:#DFDFDF;" d="M430.504,462.084c0-18.436,0-42.18,0-42.18l-10.056-37.228l-9.888-11.244
	c-0.852,3.268-3.308,5.732-6.44,7.872c-3.912,2.668-6.812,7.252-11.624,7.448c-1.636,1.9-4.124,2.512-6.528,2.128
	c-1.796,1.16-3.996,1.636-6.024,0.832c-5.104-2.024-11.592-6.036-14.772-11.156c-1.792-0.364-3.172-1.296-4.132-2.532
	l-23.196,19.424v66.636L430.504,462.084L430.504,462.084z"/>
<path style="fill:#D64331;" d="M368.152,462.084h29.468l-4.34-30.952c0,0,1.78-9.368-5.088-22.728l-2.628-5.1l-6.584,1.216
	l-1.12,3.884C367.588,430.664,369.108,436.204,368.152,462.084z"/>
<path style="fill:#F1592F;" d="M365.464,391.328c0,0,4.404-4.704,19.808-2.528l16.32,5.372c0,0-8.176,0.836-13.404,14.232
	c0,0-7.068-3.432-10.332,0C377.856,408.404,370.308,393.168,365.464,391.328z"/>
<path style="fill:#F7CFA2;" d="M355.552,309.424c0,0-5.228-7.276-5.124,1.64c0,0-0.204,6.764,0.924,8.2
	c0,0-1.128,13.736,5.536,8.712c0,0,1.948,17.528,3.996,20.704c0,0,6.868,10.044,11.276,11.584c0,0,9.532,8.712,23.372,1.744
	c0,0,8.816-4.304,13.224-10.456c0,0,6.252-10.968,5.74-19.68c0,0,4.512,2.356,6.972-4.1c0,0,0.82-10.456,2.872-13.428
	c0,0,0.104-7.38-7.072,0l3.896-20.092c0,0-11.48-18.656-11.992-19.68s-13.016-6.56-18.756-6.56c-5.74,0-20.192,0-20.192,0
	l-10.556,15.272C355.396,304.572,355.948,300.672,355.552,309.424z"/>
<path style="fill:#656C7A;" d="M354.904,309.74c0,0-6.672-15.148,0-26.688c0,0,2.096-10.852,13.704-19.296
	c0,0,14.788-12.804,40.212-2.704c0,0,16.408,11.54,16.948,29.392c0,0,2.876,11.508-3.992,19.276
	c-2.784,3.148-5.792,8.968-5.384,13.18c-0.096-32.504-1.048-19.74-10.88-32.448c-2.56-3.312-6.756-7.248-12.14-7.068
	c0,0-12.936-0.604-17.836-3.484c-5.228-3.076-9.784,3.584-12.804,6.828c-0.972,1.04-1.752,2.232-2.3,3.544
	c-0.948,2.268-2.18,6.168-2.116,11.048l-1.332,18.452l-0.924,0.616C356.064,320.388,356.716,310.876,354.904,309.74z"/>
<g>
	<path style="fill:#FFFFFF;" d="M409.924,360.808c0,0,15.932,17.072,2.792,49.68c-6.292,2.572-18.096-13.004-27.444-21.684
		C385.272,388.8,409.88,372.252,409.924,360.808z"/>
	<path style="fill:#FFFFFF;" d="M360.62,360.808c0,0-15.932,17.072-2.792,49.68c6.292,2.572,18.096-13.004,27.444-21.684
		C385.272,388.8,360.252,372.088,360.62,360.808z"/>
</g>
<path style="fill:#4D535F;" d="M484.44,462.084c0.224-22.6-7.448-45.364-7.448-45.364c1.976-15.424-5.228-16.696-5.228-16.696
	l-29.588-12.976c-29.78-13.568-22.396-12.656-29.568-22.4c5.924,15.212-8.736,57.9-16.464,97.44h88.296V462.084z"/>
<path style="fill:#656D7A;" d="M410.672,462.084c13.996-30.228,27.856-62.712,27.856-62.712l-10.632-4.52l7.576-4.032
	c-21.884-19.964-19.916-22.172-22.864-26.172c5.924,15.212-8.736,57.9-16.464,97.44h14.528V462.084z"/>
<path style="fill:#4D535F;" d="M365.46,462.084c-3.948-34.86-9.496-89.348-6.752-98.784c0,0,0,0-0.012,0.012
	c-0.444,0.52-16.972,16.856-62.624,28.016c0,0-6.76,2.38-9.668,18.368c-3.44,18.92-8.56,25.072-9.36,40.048
	c-0.22,4.128-0.636,8.24-1.156,12.336h89.572V462.084z"/>
<path style="fill:#656D7A;" d="M352.936,462.084h12.524c-3.948-34.86-9.496-89.348-6.752-98.784c0,0,0,0-0.012,0.012
	c-0.22,0.444-8.788,12.92-26.016,24.092l7.936,5.108l-11.164,5.512C329.452,398.024,341.848,433.072,352.936,462.084z"/>
<g>
	<path style="fill:#70B1E1;" d="M264.524,426.66h-69.168c-56.596,0-102.64-46.044-102.64-102.64v-57.972h18.66v57.972
		c0,46.304,37.672,83.98,83.98,83.98h69.172v18.66H264.524z"/>
	<polygon style="fill:#70B1E1;" points="130.132,283.22 101.04,237.636 71.948,283.22 	"/>
	<path style="fill:#70B1E1;" d="M409.636,211.6h-18.66v-46.776c0-46.304-37.672-83.98-83.98-83.98h-84.1v-18.66h84.1
		c56.596,0,102.64,46.044,102.64,102.64V211.6z"/>
	<polygon style="fill:#70B1E1;" points="372.22,194.428 401.312,240.008 430.404,194.428 	"/>
</g>
<ellipse style="fill:#DA8D27;" cx="151.5" cy="120.8" rx="49.456" ry="85.308"/>
<path style="fill:#E8E7E8;" d="M186.56,152.884c-2.12,5.068-3.076,10.212-4.188,15.712c-3.02,14.768-16.56,13.52-9.384,58.048
	H130.04c0.34-4.172-1.78-8.216-7.244-9.08c-0.736-0.088-1.476-0.216-2.212-0.36c0.484-0.288,0.484-1.224-0.016-2.876
	c0.108-3.776-0.396-7.444-1.168-11.128c-1.476-6.94,0.16-13.212-2.968-19.9c-2.444-5.232-7.264-6.076-11.36-4.388v-21.608
	c2.364-1.276,5.724-3.188,7.856-4.8c0.684-0.52,1.332-1.06,1.924-1.636c2.372-2.176,4.044-4.604,5.212-7.084
	c4.424-9.404,1.368-19.344,1.368-19.344h56.108c0,0-2.876,9.312,0.988,18.464c0.792,1.888,1.868,3.756,3.324,5.556
	c1.152,1.42,2.536,2.788,4.188,4.044C186.2,152.632,186.4,152.756,186.56,152.884z"/>
<path style="fill:#F0B97C;" d="M182.936,165.816c0.912-4.464,1.864-8.724,3.628-12.936c-0.172-0.124-0.368-0.248-0.524-0.376
	c-1.652-1.26-3.04-2.624-4.188-4.044c-1.456-1.796-2.536-3.668-3.324-5.556c-3.864-9.152-0.988-18.464-0.988-18.464h-56.112
	c0,0,3.056,9.94-1.368,19.344c-1.168,2.48-2.84,4.908-5.212,7.084c-0.592,0.576-1.24,1.116-1.924,1.636
	c-2.132,1.612-5.496,3.528-7.848,4.804v9.58c5.608-8.636,15.276-12.52,20.244-3.548c5.048-2.592,11.672-1.532,13.276,5.044
	c1.1-0.124,2.276-0.076,3.532,0.2c2.736,0.6,7.064,3.648,9.8,2.9c4.288-1.176,8.22-3.276,12.504-4.472
	c3.688-1.028,6.744-0.06,8.9,1.9C175.924,165.932,179.468,165.06,182.936,165.816z"/>
<g>
	<path style="fill:#4D535F;" d="M124.484,207.696c-0.004-0.596,0.056-1.176,0.16-1.744c-0.516-1.492-0.732-5.644-0.756-7.244h-2.628
		v-6.772c-2.6-2.532-3.088-5.092-3.048-8.324c-2.744-2.956-3.932-6.164-3.976-9.648c-1.944-2.176-3.408-6.932-3.768-9.18
		c-1.624-2.544-2.02-6.568-1.712-9.56c-2.512,1.5-5.56,3.14-9.024,4.852c-11.74,5.88-27.848,12.692-40.736,17.924
		C46,183.284,37.512,195.888,37.512,209.908v16.736h94.084v-1.576C124.108,222.532,124.532,215.54,124.484,207.696z"/>
	<path style="fill:#4D535F;" d="M174.256,215.56c0.012-2.004,0.384-7.824,0.064-9.612c0.516-1.492,0.732-5.644,0.756-7.244h2.628
		v-6.772c2.6-2.532,3.088-5.092,3.048-8.324c2.744-2.956,3.932-6.164,3.976-9.648c1.84-2.06,3.396-6.86,3.768-9.18
		c1.624-2.544,2.02-6.568,1.712-9.56c12.044,7.192,36.856,17.54,49.76,22.776c12.996,5.284,21.484,17.888,21.484,31.908v16.736
		h-94.08v-1.576C171.336,223.724,174.232,219.936,174.256,215.56z"/>
</g>
<polygon style="fill:#5F87C4;" points="167.216,226.644 130.148,226.644 141.312,183.136 154.164,183.136 "/>
<path style="fill:#70B1E1;" d="M142.392,191.892c0,0-15.564-3.088-5.78-25.74l11.836-7.464l9.272,3.732l6.692,11.456
	c0,0-4.412,19.5-14.928,18.02h-7.092V191.892z"/>
<g>
	<path style="fill:#F7CFA3;" d="M102.048,82.704c0,34.068,20.472,61.688,45.728,61.688s45.728-27.62,45.728-61.688l-5.208-28.412
		c0,0-11.092-8.604-12.676-10.188s-17.204-5.208-17.204-5.208l-34.924,2.264l-12.844,10.868l-4.3,16.072L102.048,82.704z"/>
	
		<ellipse transform="matrix(-0.3531 -0.9356 0.9356 -0.3531 52.8555 226.4595)" style="fill:#F7CFA3;" cx="104.72" cy="94.956" rx="15.652" ry="7.244"/>
	
		<ellipse transform="matrix(-0.3531 0.9356 -0.9356 -0.3531 348.9435 -51.3521)" style="fill:#F7CFA3;" cx="192.225" cy="94.961" rx="15.652" ry="7.244"/>
</g>
<g>
	<path style="fill:#FDFEFF;" d="M148.448,158.688l-18.012,26.248l-20.08-30.688c0.988-0.612,1.832-1.188,2.572-1.744
		c3.432-2.608,5.68-5.628,7.136-8.72L148.448,158.688z"/>
	<path style="fill:#FDFEFF;" d="M187.172,153.312l-20.692,31.624l-18.032-26.248l30.076-15.784c1.42,3.38,3.756,6.74,7.516,9.6
		C186.38,152.776,186.76,153.044,187.172,153.312z"/>
</g>
<g>
	<path style="fill:#656D7A;" d="M138.94,226.644h-22.884l-15.228-28.564l14.668-11.324l-17.76,1.796l1.996-28.476
		c3.76-1.856,9.876-5.06,13.196-7.568c0.684-0.52,1.332-1.06,1.924-1.636L138.94,226.644z"/>
	<path style="fill:#656D7A;" d="M180.448,186.752l14.668,11.324l-15.228,28.564h-22.884l24.844-78.184
		c1.152,1.42,2.536,2.788,4.188,4.044c2.352,1.856,7.42,4.612,10.068,5.988l2.104,30.056L180.448,186.752z"/>
</g>
<g>
	<path style="fill:#FDFEFF;" d="M140.668,83.82c-0.68,5.068-5.12,14.948-15.976,14.948h-3.168c-5.44,0-10.012-3.632-10.8-10.388
		v-7.992c0,0-0.236-7.332,9.588-6.908h9.92c0,0,8.976,0.892,10.432,5.872v4.468H140.668z"/>
	<path style="fill:#FDFEFF;" d="M184.572,80.388v7.992c-0.784,6.728-5.336,10.388-10.8,10.388h-3.168
		c-9.204,0-14.996-7.652-15.976-14.948v-4.464c1.46-4.98,10.44-5.872,10.44-5.872h9.916
		C184.808,73.06,184.572,80.388,184.572,80.388z"/>
</g>
<path style="fill:#353944;" d="M159.816,72.296c-7.924,2.052-16.684,2.032-24.532,0c-15.652-4.048-36.756,1.484-36.756,1.484
	l0.592,4.268c2.016-0.188,3.56,0.068,4.704,0.48c1.724,0.624,2.912,2.216,3.036,4.044l0.268,4.012
	c1.044,14.412,12.808,13.88,12.808,13.88h6.736c11.04,0,16.376-10.468,17.152-15.616c0.672-4.404,3.728-4.668,3.728-4.668
	s3.056,0.268,3.72,4.668c0.772,5.076,6.016,15.616,17.572,15.616h6.316c0,0,11.764,0.532,12.816-13.88l0.268-4.012
	c0.124-1.828,1.304-3.42,3.032-4.044c1.152-0.416,2.688-0.672,4.712-0.48l0.776-4.268C196.756,73.78,175.46,68.248,159.816,72.296z
	 M140.668,83.82c-0.68,5.068-5.12,14.948-15.976,14.948h-3.168c-5.44,0-10.012-3.632-10.8-10.388v-7.992
	c0,0-0.236-7.332,9.588-6.908h9.92c0,0,8.976,0.892,10.432,5.872v4.468H140.668z M184.572,80.388v7.992
	c-0.784,6.728-5.336,10.388-10.8,10.388h-3.168c-9.204,0-14.996-7.652-15.976-14.948v-4.464c1.46-4.98,10.44-5.872,10.44-5.872
	h9.916C184.808,73.06,184.572,80.388,184.572,80.388z"/>
<path style="fill:#F0B97C;" d="M156.396,125.796h-17.244c-1.76,0-3.188-1.428-3.188-3.188l0,0c0-1.76,1.428-3.188,3.188-3.188
	h17.244c1.76,0,3.188,1.428,3.188,3.188l0,0C159.588,124.368,158.16,125.796,156.396,125.796z"/>
<path style="fill:#E8BB20;" d="M128.4,41.488c0,0,77.552,27.04,65.844,118.556c0,0,42.476-85.468-10.056-131.032
	c-8.536-7.404-19.6-11.244-30.892-10.916l-6.004,0.176L128.4,41.488z"/>
<path style="fill:#F5EA07;" d="M107.964,160.044c-6.696-7.652-52.424-135.824,39.324-141.772
	C129.252,48.256,97.796,85.168,107.964,160.044z"/>
<g>
</g>
<g>
</g>
<g>
</g>
<g>
</g>
<g>
</g>
<g>
</g>
<g>
</g>
<g>
</g>
<g>
</g>
<g>
</g>
<g>
</g>
<g>
</g>
<g>
</g>
<g>
</g>
<g>
</g>
</svg>
