<?xml version="1.0" encoding="iso-8859-1"?>
<!-- Generator: Adobe Illustrator 19.0.0, SVG Export Plug-In . SVG Version: 6.00 Build 0)  -->
<svg version="1.1" id="Capa_1" xmlns="http://www.w3.org/2000/svg" xmlns:xlink="http://www.w3.org/1999/xlink" x="0px" y="0px"
	 viewBox="0 0 512 512" style="enable-background:new 0 0 512 512;" xml:space="preserve">
<circle style="fill:#7EC359;" cx="256" cy="256" r="256"/>
<path style="fill:#656D7A;" d="M429.724,142.672H82.276c-14.964,0-27.096,12.132-27.096,27.096v262.544h401.644V169.768
	C456.82,154.804,444.688,142.672,429.724,142.672z"/>
<rect x="79" y="166.48" style="fill:#4786C6;" width="354" height="242.04"/>
<polygon style="fill:#D2D2D4;" points="502.856,455.808 9.144,455.808 55.18,432.3 456.82,432.3 "/>
<g>
	<rect id="SVGCleanerId_0" x="9.144" y="455.8" style="fill:#656D7A;" width="493.72" height="20.904"/>
</g>
<g>
	<rect id="SVGCleanerId_0_1_" x="9.144" y="455.8" style="fill:#656D7A;" width="493.72" height="20.904"/>
</g>
<g>
	<rect id="SVGCleanerId_0_2_" x="9.144" y="455.8" style="fill:#656D7A;" width="493.72" height="20.904"/>
</g>
<rect x="221.08" y="455.8" style="fill:#4D535F;" width="69.816" height="20.904"/>
<g>
	<path style="fill:#D2D2D4;" d="M433,281.24v127.28H79V264.04c0,0,28.68-9.24,41,23.84c0,0,46.12-33.76,56.48,19.48
		c0,0,26.64-5.2,31.8,27.92c0,0,13-2.6,15.6,11.68H305c0,0,11.04-35.72,41.56-9.08c0,0-3.24-35.08,27.24-20.12
		c0,0,1.96-49.36,43.48-22.72C417.28,295.04,421.28,283.08,433,281.24z"/>
	<path style="fill:#D2D2D4;" d="M294.852,280.06h-68.544c-24.872,77.116-97.384,84.636-97.384,84.636H392.24
		C392.24,364.696,319.724,357.18,294.852,280.06z"/>
</g>
<g>
	<path style="fill:#E8E7E8;" d="M433,408.52H79V290.48c0,0,28.68-9.28,41,23.84c0,0,46.12-33.76,56.48,19.48
		c0,0,26.64-5.2,31.8,27.88c0,0,13-2.6,15.6,11.68H305c0,0,11.04-35.68,41.56-9.08c0,0-3.24-35.04,27.24-20.12
		c0,0,1.96-49.32,43.48-22.72c0,0,4-11.92,15.72-13.76V408.52z"/>
	<path style="fill:#E8E7E8;" d="M294.852,301.092h-68.544c-24.872,77.116-97.384,84.636-97.384,84.636H392.24
		C392.24,385.724,319.724,378.208,294.852,301.092z"/>
</g>
<polygon style="fill:#656D7A;" points="312.124,314.656 209.024,314.656 216.212,300.068 304.936,300.068 "/>
<g>
	<path style="fill:#F1592F;" d="M364.056,305.388c0,0-29.148-78.788-42.08-91.716l-49.632,49.636
		C285.272,276.236,364.056,305.388,364.056,305.388z"/>
	<path style="fill:#F1592F;" d="M157.104,305.388c0,0,29.148-78.788,42.08-91.716l49.636,49.636
		C235.892,276.236,157.104,305.388,157.104,305.388z"/>
</g>
<path style="fill:#FDFEFF;" d="M305.008,301.092h-88.836c-24.396-59.576-25.396-127.952-2.712-188.324
	c10.524-28.136,26.244-54.58,47.108-77.476c20.864,22.9,36.58,49.34,47.156,77.476C330.36,173.04,329.424,241.432,305.008,301.092z"
	/>
<path style="fill:#F1592F;" d="M307.72,112.764c-13.24,10.576-29.52,16.788-47.156,16.788c-17.588,0-33.868-6.212-47.108-16.788
	c10.524-28.136,26.244-54.58,47.108-77.476C281.428,58.188,297.148,84.628,307.72,112.764z"/>
<circle style="fill:#656D7A;" cx="260.6" cy="190.136" r="37.032"/>
<circle style="fill:#E8E7E8;" cx="260.6" cy="190.136" r="23.564"/>
<ellipse style="fill:#F1592F;" cx="260.6" cy="289.28" rx="3.76" ry="44.604"/>
<g>
</g>
<g>
</g>
<g>
</g>
<g>
</g>
<g>
</g>
<g>
</g>
<g>
</g>
<g>
</g>
<g>
</g>
<g>
</g>
<g>
</g>
<g>
</g>
<g>
</g>
<g>
</g>
<g>
</g>
</svg>
