<?xml version="1.0" encoding="iso-8859-1"?>
<!-- Generator: Adobe Illustrator 19.0.0, SVG Export Plug-In . SVG Version: 6.00 Build 0)  -->
<svg version="1.1" id="Capa_1" xmlns="http://www.w3.org/2000/svg" xmlns:xlink="http://www.w3.org/1999/xlink" x="0px" y="0px"
	 viewBox="0 0 512 512" style="enable-background:new 0 0 512 512;" xml:space="preserve">
<circle style="fill:#896D61;" cx="256" cy="256" r="256"/>
<polygon style="fill:#FDFEFF;" points="260.244,208.388 208.58,260.052 360.796,412.272 382.544,412.272 394.08,412.292 
	410.544,412.292 410.544,364.808 399.936,354.2 376.84,354.22 376.82,321.62 350.172,321.62 350.152,294.572 317.992,294.572 
	317.992,266.136 "/>
<polygon style="fill:#656D7A;" points="275.736,293.944 269.976,299.704 382.544,412.272 394.08,412.292 "/>
<g>
	
		<rect x="201.531" y="187.467" transform="matrix(0.7071 0.7071 -0.7071 0.7071 236.4256 -99.128)" style="fill:#6BBE49;" width="72.679" height="96.719"/>
	<path style="fill:#6BBE49;" d="M74.344,178.512c0-58.688,47.532-106.224,106.22-106.224c58.612,0,106.224,47.532,106.224,106.224
		s-47.612,106.224-106.224,106.224C121.876,284.736,74.344,237.204,74.344,178.512z"/>
</g>
<path style="fill:#7EC359;" d="M99.764,178.512c0-44.644,36.156-80.804,80.804-80.804c44.584,0,80.804,36.156,80.804,80.804
	s-36.216,80.804-80.804,80.804C135.92,259.316,99.764,223.16,99.764,178.512z"/>
<path style="fill:#FDFEFF;" d="M175.952,209.66v-27.62c-8.612-2.46-14.932-6.184-18.952-11.172s-6.032-11.04-6.032-18.16
	c0-7.208,2.276-13.26,6.824-18.16s10.604-7.724,18.16-8.472v-6.528h9.56v6.528c6.988,0.836,12.548,3.22,16.676,7.152
	s6.768,9.196,7.912,15.788l-16.676,2.176c-1.012-5.184-3.648-8.7-7.912-10.548v25.776c10.548,2.856,17.732,6.56,21.556,11.108
	s5.736,10.384,5.736,17.5c0,7.956-2.408,14.656-7.22,20.104s-11.504,8.788-20.072,10.02v12.328h-9.56v-12
	c-7.604-0.924-13.776-3.756-18.524-8.504s-7.78-11.448-9.096-20.104l17.204-1.844c0.704,3.516,2.02,6.548,3.956,9.096
	C171.424,206.672,173.58,208.516,175.952,209.66z M175.952,140.444c-2.592,0.88-4.66,2.372-6.196,4.484
	c-1.54,2.108-2.308,4.44-2.308,6.988c0,2.328,0.704,4.492,2.108,6.492c1.408,2,3.536,3.616,6.396,4.844V140.444z M185.508,210.58
	c3.296-0.616,5.976-2.144,8.044-4.58c2.064-2.44,3.1-5.308,3.1-8.604c0-2.944-0.868-5.484-2.604-7.612
	c-1.736-2.132-4.58-3.768-8.536-4.912v25.708H185.508z"/>
<g>
</g>
<g>
</g>
<g>
</g>
<g>
</g>
<g>
</g>
<g>
</g>
<g>
</g>
<g>
</g>
<g>
</g>
<g>
</g>
<g>
</g>
<g>
</g>
<g>
</g>
<g>
</g>
<g>
</g>
</svg>
