<?xml version="1.0" encoding="iso-8859-1"?>
<!-- Generator: Adobe Illustrator 19.0.0, SVG Export Plug-In . SVG Version: 6.00 Build 0)  -->
<svg version="1.1" id="Capa_1" xmlns="http://www.w3.org/2000/svg" xmlns:xlink="http://www.w3.org/1999/xlink" x="0px" y="0px"
	 viewBox="0 0 512 512" style="enable-background:new 0 0 512 512;" xml:space="preserve">
<circle style="fill:#7EC359;" cx="256" cy="256" r="256"/>
<path style="fill:#FFFFFF;" d="M385.876,193.748c1.596,32.004-8.396,61.64-26.144,85.068
	c-24.668,32.568-37.896,72.36-37.896,113.216v7.152H190.168v-7.136c0-41.604-14.632-81.4-39.196-114.976
	c-15.724-21.496-25.012-48-25.012-76.672c0-74.564,62.812-134.452,138.396-129.728C329.688,74.756,382.616,128.368,385.876,193.748z
	"/>
<path style="fill:#353944;" d="M280.7,457.204h-49.4v12.472c0,3.492,2.832,6.324,6.324,6.324h36.756
	c3.492,0,6.324-2.832,6.324-6.324v-12.472H280.7z"/>
<path style="fill:#D2D2D4;" d="M291.524,403.756h-71.076l-0.884-6.54c-4.948-36.492-19.184-106.632-41.144-138.032
	c-11.996-17.152-18.34-37.48-18.34-58.78v-7.348l191.36-5.18l0.356,7.392c1.132,23.816-5.5,46.38-19.176,65.256
	c-21.448,29.616-35.384,99.84-40.236,136.664L291.524,403.756z M233.584,388.652h44.752c3.608-24.444,16.696-101.976,42.056-136.988
	c10.224-14.112,15.82-30.676,16.38-48.28l-161.292,4.364c1.256,15.496,6.488,30.156,15.316,42.78
	C216.576,287.384,229.904,364.38,233.584,388.652z"/>
<path style="fill:#656D7A;" d="M297.176,460.824h-82.352c-13.616,0-24.656-11.04-24.656-24.656v-48.74h131.668v48.74
	C321.832,449.788,310.796,460.824,297.176,460.824z"/>
<g>
	<rect x="190.168" y="399.2" style="fill:#353944;" width="131.668" height="7.064"/>
	<rect x="190.168" y="414.92" style="fill:#353944;" width="131.668" height="7.064"/>
	<rect x="190.168" y="430.68" style="fill:#353944;" width="131.668" height="7.064"/>
</g>
<g>
	<rect x="93.268" y="191.768" style="fill:#FFFFFF;" width="22.552" height="13.932"/>
	<rect x="396.2" y="191.768" style="fill:#FFFFFF;" width="22.548" height="13.932"/>
	
		<rect x="113.542" y="267.494" transform="matrix(-0.866 0.5 -0.5 -0.866 370.1447 449.7366)" style="fill:#FFFFFF;" width="22.552" height="13.932"/>
	
		<rect x="375.873" y="116.06" transform="matrix(-0.866 0.5 -0.5 -0.866 783.937 35.9918)" style="fill:#FFFFFF;" width="22.548" height="13.932"/>
	
		<rect x="320.447" y="60.633" transform="matrix(-0.5 0.866 -0.866 -0.5 556.1271 -185.8781)" style="fill:#FFFFFF;" width="22.548" height="13.932"/>
	<rect x="249.04" y="36" style="fill:#FFFFFF;" width="13.932" height="22.548"/>
	
		<rect x="168.993" y="60.614" transform="matrix(0.5 0.866 -0.866 0.5 148.6569 -122.3257)" style="fill:#FFFFFF;" width="22.548" height="13.932"/>
	
		<rect x="375.92" y="267.489" transform="matrix(0.866 0.5 -0.5 0.866 189.1071 -156.8306)" style="fill:#FFFFFF;" width="22.552" height="13.932"/>
	
		<rect x="113.559" y="116.042" transform="matrix(0.866 0.5 -0.5 0.866 78.2305 -45.9371)" style="fill:#FFFFFF;" width="22.548" height="13.932"/>
</g>
<path style="fill:#F2EA12;" d="M256,297.224c-53.712,0-97.412-43.7-97.412-97.416s43.7-97.412,97.412-97.412
	s97.412,43.696,97.412,97.412S309.716,297.224,256,297.224z"/>
<g>
	<path style="fill:#FAD307;" d="M256,282.548c-45.62,0-82.736-37.116-82.736-82.74c0-45.62,37.116-82.736,82.736-82.736
		s82.736,37.116,82.736,82.736C338.74,245.432,301.62,282.548,256,282.548z M256,129.148c-38.964,0-70.66,31.696-70.66,70.66
		s31.7,70.664,70.66,70.664s70.66-31.7,70.66-70.66S294.964,129.148,256,129.148z"/>
	<path style="fill:#FAD307;" d="M253.044,255.568v-9.82c-12.288-1.252-23.32-6.14-33.096-14.66l9.82-11.704
		c7.536,6.548,15.292,10.444,23.276,11.704v-26.1c-10.136-2.42-17.556-5.604-22.26-9.552c-4.708-3.948-7.068-9.796-7.068-17.556
		s2.716-14.1,8.14-19.036c5.424-4.932,12.492-7.62,21.188-8.068v-6.728h8.612v6.86c9.864,0.724,19.192,4.084,27.98,10.092
		l-8.748,12.376c-5.916-4.216-12.332-6.816-19.236-7.804v25.288h0.404c10.312,2.424,17.888,5.7,22.732,9.82
		c4.844,4.128,7.264,10.116,7.264,17.96c0,7.848-2.78,14.244-8.34,19.168c-5.56,4.936-12.912,7.624-22.06,8.072v9.684h-8.608
		V255.568z M243.556,168.74c-2.284,2.016-3.428,4.528-3.428,7.532s0.892,5.38,2.688,7.128c1.796,1.752,5.2,3.432,10.224,5.048
		v-23.276C249.008,165.532,245.844,166.72,243.556,168.74z M271.876,227.724c2.508-2.06,3.764-4.66,3.764-7.8
		c0-3.136-0.992-5.628-2.96-7.468s-5.648-3.564-11.028-5.18v24.212C265.956,231.044,269.364,229.788,271.876,227.724z"/>
</g>
<g>
</g>
<g>
</g>
<g>
</g>
<g>
</g>
<g>
</g>
<g>
</g>
<g>
</g>
<g>
</g>
<g>
</g>
<g>
</g>
<g>
</g>
<g>
</g>
<g>
</g>
<g>
</g>
<g>
</g>
</svg>
