<?xml version="1.0" encoding="iso-8859-1"?>
<!-- Generator: Adobe Illustrator 19.0.0, SVG Export Plug-In . SVG Version: 6.00 Build 0)  -->
<svg version="1.1" id="Capa_1" xmlns="http://www.w3.org/2000/svg" xmlns:xlink="http://www.w3.org/1999/xlink" x="0px" y="0px"
	 viewBox="0 0 512 512" style="enable-background:new 0 0 512 512;" xml:space="preserve">
<g>
	<circle style="fill:#4D5BA5;" cx="256" cy="256" r="256"/>
	<circle style="fill:#4D5BA5;" cx="256" cy="256.36" r="200"/>
</g>
<path style="fill:#F1592F;" d="M388.072,106.396l-51.932,51.928c-21.824-17.892-49.684-28.628-80.14-28.628
	c-30.384,0-58.316,10.736-80.14,28.632l-51.932-51.932C159.156,75.308,205.332,56.36,256,56.36S352.772,75.308,388.072,106.396z"/>
<path style="fill:#7EC359;" d="M243.3,381.764v73.964C138.808,449.132,56,362.536,56,256.36c0-50.668,18.948-96.84,50.036-132.068
	l51.928,51.928c-17.684,21.756-28.352,49.544-28.352,79.792C129.612,321.552,179.44,375.38,243.3,381.764z"/>
<path style="fill:#70B1E1;" d="M456,256.36c0,106.176-82.808,192.772-187.368,199.368v-73.964
	c63.86-6.316,113.684-60.212,113.684-125.752c0-30.248-10.596-58.036-28.352-79.792l51.928-51.928
	C436.984,159.52,456,205.692,456,256.36z"/>
<circle style="fill:#F5EA07;" cx="256" cy="256.04" r="109.52"/>
<path style="fill:#E8BB20;" d="M256,349.616c-51.592,0-93.568-41.976-93.568-93.576c0-51.592,41.976-93.568,93.568-93.568
	s93.568,41.976,93.568,93.568C349.568,307.64,307.592,349.616,256,349.616z M256,177.472c-43.324,0-78.572,35.248-78.572,78.572
	c0,43.328,35.248,78.576,78.572,78.576s78.572-35.248,78.572-78.576C334.572,212.72,299.324,177.472,256,177.472z"/>
<path style="fill:#FDFEFF;" d="M251.54,286.144v-26.692c-8.324-2.38-14.428-5.976-18.316-10.796
	c-3.884-4.82-5.828-10.668-5.828-17.548c0-6.964,2.196-12.816,6.592-17.548c4.396-4.736,10.244-7.464,17.548-8.184v-6.308h9.236
	v6.308c6.752,0.808,12.124,3.112,16.116,6.912s6.54,8.888,7.644,15.256l-16.116,2.104c-0.976-5.012-3.524-8.408-7.644-10.192v24.908
	c10.192,2.76,17.136,6.34,20.832,10.732c3.696,4.396,5.544,10.032,5.544,16.912c0,7.688-2.324,14.164-6.976,19.428
	s-11.116,8.492-19.396,9.684v11.912h-9.236V301.44c-7.348-0.892-13.312-3.632-17.9-8.216c-4.588-4.588-7.516-11.064-8.792-19.428
	l16.628-1.784c0.68,3.396,1.952,6.328,3.824,8.792C247.168,283.256,249.248,285.04,251.54,286.144z M251.54,219.26
	c-2.504,0.848-4.5,2.292-5.988,4.332s-2.228,4.288-2.228,6.752c0,2.252,0.68,4.344,2.04,6.276s3.42,3.492,6.18,4.684V219.26H251.54z
	 M260.776,287.036c3.184-0.596,5.776-2.072,7.772-4.428c1.996-2.356,2.992-5.128,2.992-8.312c0-2.844-0.84-5.296-2.516-7.356
	s-4.428-3.64-8.248-4.744L260.776,287.036L260.776,287.036z"/>
<g>
</g>
<g>
</g>
<g>
</g>
<g>
</g>
<g>
</g>
<g>
</g>
<g>
</g>
<g>
</g>
<g>
</g>
<g>
</g>
<g>
</g>
<g>
</g>
<g>
</g>
<g>
</g>
<g>
</g>
</svg>
