<?xml version="1.0" encoding="iso-8859-1"?>
<!-- Generator: Adobe Illustrator 19.0.0, SVG Export Plug-In . SVG Version: 6.00 Build 0)  -->
<svg version="1.1" id="Capa_1" xmlns="http://www.w3.org/2000/svg" xmlns:xlink="http://www.w3.org/1999/xlink" x="0px" y="0px"
	 viewBox="0 0 512 512" style="enable-background:new 0 0 512 512;" xml:space="preserve">
<circle style="fill:#F5EB07;" cx="256" cy="256" r="256"/>
<rect x="222.552" y="128.44" style="fill:#E8E7E8;" width="67.536" height="71.972"/>
<rect x="237.16" y="101.892" style="fill:#F0B97C;" width="37.604" height="42.172"/>
<g>
	<path style="fill:#FDFEFF;" d="M333.796,200.42c-3.544-32.016-13-56.356-13-56.356l-12.904,5.184l-1.056,51.172H333.796z"/>
	<path style="fill:#FDFEFF;" d="M205.164,200.42l-1.056-51.172l-12.904-5.184c0,0-9.456,24.34-13,56.356H205.164z"/>
</g>
<g>
	<path style="fill:#F7CFA3;" d="M294.968,71.656c0,27.592-17.472,49.952-38.988,49.952c-20.148,0-36.716-19.524-38.804-44.628
		c-0.156-1.744-0.216-3.52-0.216-5.324c0-27.592,17.472-49.952,39.02-49.952c17.936,0,33.072,15.54,37.588,36.684
		C294.472,62.628,294.968,67.048,294.968,71.656z"/>
	
		<ellipse transform="matrix(-0.5551 -0.8318 0.8318 -0.5551 270.3889 313.1295)" style="fill:#F7CFA3;" cx="218.938" cy="84.252" rx="14.44" ry="7.46"/>
	
		<ellipse transform="matrix(-0.4181 0.9084 -0.9084 -0.4181 493.4758 -147.6816)" style="fill:#F7CFA3;" cx="294.039" cy="84.214" rx="14.44" ry="7.46"/>
</g>
<path style="fill:#656D7A;" d="M293.568,58.392c-4.984,3.676-10.932,5.792-17.316,5.792c-8.252,0-15.788-3.552-21.488-9.372
	c-4.764,13.64-16.38,23.232-29.928,23.232c-2.648,0-5.2-0.376-7.66-1.06c-0.156-1.744-0.216-3.52-0.216-5.324
	c0-27.592,17.472-49.952,39.02-49.952C273.916,21.708,289.052,37.248,293.568,58.392z"/>
<polygon style="fill:#F1592F;" points="260.616,159.612 251.384,159.612 247.968,149.132 256.06,144 264.032,149.132 "/>
<polygon style="fill:#E34E30;" points="262.944,200.42 260.616,159.612 251.384,159.612 249.056,200.42 "/>
<g>
	<path style="fill:#656D7A;" d="M260.256,200.42h51.88c3.492-33.456,8.66-56.356,8.66-56.356
		c-7.348-14.976-31.412-15.616-31.412-15.616C290.68,162.544,269.564,190.024,260.256,200.42z"/>
	<path style="fill:#656D7A;" d="M251.68,200.42c-9.3-10.4-30.408-37.88-29.128-71.972c-0.132,0.004-24.02,0.68-31.348,15.616
		c0,0,5.176,22.904,8.672,56.356H251.68z"/>
</g>
<g>
	<path style="fill:#FDFEFF;" d="M237.164,125.896c0,0-20.344,10.752,6.596,30.332L256,144.064
		C256,144.064,236.844,134.008,237.164,125.896z"/>
	<path style="fill:#FDFEFF;" d="M274.768,125.996c0,0,20.416,10.652-6.528,30.236L256,144.064
		C256,144.064,275.344,134.8,274.768,125.996z"/>
</g>
<rect x="76.56" y="384.4" style="fill:#E8E7E8;" width="67.536" height="71.972"/>
<rect x="91.188" y="357.84" style="fill:#F0B97C;" width="37.604" height="42.172"/>
<g>
	<path style="fill:#FDFEFF;" d="M187.82,456.368c-3.544-32.016-13-56.356-13-56.356l-12.904,5.184l-1.056,51.172H187.82z"/>
	<path style="fill:#FDFEFF;" d="M59.188,456.368l-1.056-51.172l-12.904-5.184c0,0-9.456,24.34-13,56.356H59.188z"/>
</g>
<g>
	<path style="fill:#F7CFA3;" d="M148.996,327.604c0,27.592-17.472,49.952-38.988,49.952c-20.148,0-36.716-19.524-38.804-44.628
		c-0.156-1.744-0.216-3.52-0.216-5.324c0-27.592,17.468-49.952,39.02-49.952c17.936,0,33.072,15.54,37.588,36.684
		C148.496,318.572,148.996,322.996,148.996,327.604z"/>
	
		<ellipse transform="matrix(-0.5551 -0.8318 0.8318 -0.5551 -169.5171 589.7581)" style="fill:#F7CFA3;" cx="72.967" cy="340.215" rx="14.44" ry="7.46"/>
	
		<ellipse transform="matrix(-0.4181 0.9084 -0.9084 -0.4181 519.0623 347.8414)" style="fill:#F7CFA3;" cx="148.122" cy="340.17" rx="14.44" ry="7.46"/>
</g>
<path style="fill:#656D7A;" d="M147.592,314.336c-4.984,3.676-10.932,5.792-17.316,5.792c-8.252,0-15.788-3.552-21.488-9.372
	c-4.764,13.64-16.38,23.232-29.928,23.232c-2.648,0-5.2-0.376-7.66-1.06c-0.156-1.744-0.216-3.52-0.216-5.324
	c0-27.592,17.468-49.952,39.02-49.952C127.944,277.652,143.076,293.192,147.592,314.336z"/>
<polygon style="fill:#F1592F;" points="114.64,415.556 105.408,415.556 101.992,405.08 110.088,399.948 118.056,405.08 "/>
<polygon style="fill:#E34E30;" points="116.968,456.368 114.64,415.556 105.408,415.556 103.08,456.368 "/>
<g>
	<path style="fill:#656D7A;" d="M114.284,456.368h51.88c3.492-33.456,8.66-56.356,8.66-56.356
		c-7.348-14.976-31.412-15.616-31.412-15.616C144.708,418.488,123.588,445.968,114.284,456.368z"/>
	<path style="fill:#656D7A;" d="M105.708,456.368c-9.3-10.4-30.408-37.88-29.128-71.972c-0.132,0.004-24.02,0.68-31.348,15.616
		c0,0,5.176,22.904,8.672,56.356L105.708,456.368L105.708,456.368z"/>
</g>
<g>
	<path style="fill:#FDFEFF;" d="M91.188,381.844c0,0-20.344,10.752,6.596,30.332l12.24-12.168
		C110.024,400.008,90.868,389.956,91.188,381.844z"/>
	<path style="fill:#FDFEFF;" d="M128.792,381.944c0,0,20.416,10.652-6.528,30.236l-12.24-12.168
		C110.024,400.008,129.368,390.744,128.792,381.944z"/>
</g>
<rect x="368.52" y="384.4" style="fill:#E8E7E8;" width="67.536" height="71.972"/>
<rect x="383.12" y="357.84" style="fill:#F0B97C;" width="37.604" height="42.172"/>
<g>
	<path style="fill:#FDFEFF;" d="M479.768,456.368c-3.544-32.016-13-56.356-13-56.356l-12.904,5.184l-1.056,51.172H479.768z"/>
	<path style="fill:#FDFEFF;" d="M351.14,456.368l-1.056-51.172l-12.904-5.184c0,0-9.456,24.34-13,56.356H351.14z"/>
</g>
<g>
	<path style="fill:#F7CFA3;" d="M440.944,327.604c0,27.592-17.472,49.952-38.988,49.952c-20.148,0-36.716-19.524-38.804-44.628
		c-0.156-1.744-0.216-3.52-0.216-5.324c0-27.592,17.472-49.952,39.02-49.952c17.936,0,33.072,15.54,37.588,36.684
		C440.448,318.572,440.944,322.996,440.944,327.604z"/>
	
		<ellipse transform="matrix(-0.5551 -0.8318 0.8318 -0.5551 284.5119 832.6104)" style="fill:#F7CFA3;" cx="364.93" cy="340.215" rx="14.44" ry="7.46"/>
	
		<ellipse transform="matrix(-0.4181 0.9084 -0.9084 -0.4181 933.0416 82.5992)" style="fill:#F7CFA3;" cx="440.065" cy="340.142" rx="14.44" ry="7.46"/>
</g>
<path style="fill:#656D7A;" d="M439.544,314.336c-4.984,3.676-10.932,5.792-17.316,5.792c-8.252,0-15.788-3.552-21.488-9.372
	c-4.764,13.64-16.38,23.232-29.928,23.232c-2.648,0-5.2-0.376-7.66-1.06c-0.156-1.744-0.216-3.52-0.216-5.324
	c0-27.592,17.472-49.952,39.02-49.952C419.892,277.652,435.028,293.192,439.544,314.336z"/>
<polygon style="fill:#F1592F;" points="406.592,415.556 397.36,415.556 393.944,405.08 402.036,399.948 410.008,405.08 "/>
<polygon style="fill:#E34E30;" points="408.92,456.368 406.592,415.556 397.36,415.556 395.028,456.368 "/>
<g>
	<path style="fill:#656D7A;" d="M406.232,456.368h51.88c3.492-33.456,8.66-56.356,8.66-56.356
		c-7.348-14.976-31.412-15.616-31.412-15.616C436.656,418.488,415.54,445.968,406.232,456.368z"/>
	<path style="fill:#656D7A;" d="M397.656,456.368c-9.3-10.4-30.408-37.88-29.128-71.972c-0.132,0.004-24.02,0.68-31.348,15.616
		c0,0,5.176,22.904,8.672,56.356L397.656,456.368L397.656,456.368z"/>
</g>
<g>
	<path style="fill:#FDFEFF;" d="M383.14,381.844c0,0-20.344,10.752,6.596,30.332l12.24-12.168
		C401.976,400.008,382.816,389.956,383.14,381.844z"/>
	<path style="fill:#FDFEFF;" d="M420.744,381.944c0,0,20.416,10.652-6.528,30.236l-12.24-12.168
		C401.976,400.008,421.32,390.744,420.744,381.944z"/>
</g>
<polygon style="fill:#F1592F;" points="264.32,289.032 264.32,220.092 248.32,220.092 248.32,289.032 190.324,338.012 
	200.648,350.232 256.32,303.22 311.992,350.232 322.316,338.012 "/>
<g>
</g>
<g>
</g>
<g>
</g>
<g>
</g>
<g>
</g>
<g>
</g>
<g>
</g>
<g>
</g>
<g>
</g>
<g>
</g>
<g>
</g>
<g>
</g>
<g>
</g>
<g>
</g>
<g>
</g>
</svg>
