<?xml version="1.0" encoding="iso-8859-1"?>
<!-- Generator: Adobe Illustrator 19.0.0, SVG Export Plug-In . SVG Version: 6.00 Build 0)  -->
<svg version="1.1" id="Capa_1" xmlns="http://www.w3.org/2000/svg" xmlns:xlink="http://www.w3.org/1999/xlink" x="0px" y="0px"
	 viewBox="0 0 512 512" style="enable-background:new 0 0 512 512;" xml:space="preserve">
<circle style="fill:#F5EB07;" cx="256" cy="256" r="256"/>
<polygon style="fill:#FDFEFF;" points="312.892,246.268 259.86,299.296 103.624,143.06 103.624,120.74 103.604,108.896 103.604,92 
	152.34,92 163.228,102.888 163.208,126.592 196.668,126.612 196.668,153.964 224.432,153.984 224.432,186.996 253.62,186.996 "/>
<g>
	<polygon style="fill:#656D7A;" points="225.076,230.368 219.164,236.28 103.624,120.74 103.604,108.896 	"/>
	
		<rect x="247.43" y="219.574" transform="matrix(-0.7071 -0.7071 0.7071 -0.7071 295.6861 660.9076)" style="fill:#656D7A;" width="74.583" height="99.283"/>
	<path style="fill:#656D7A;" d="M399.8,384.3c36.86-36.86,36.86-96.528,0.024-133.364c-36.792-36.792-96.504-36.836-133.364,0.024
		c-36.836,36.836-36.792,96.548,0,133.34C303.296,421.136,362.964,421.136,399.8,384.3z M376.2,295.292
		c9.1,18.272,6.052,41.06-9.168,56.28c-15.176,15.176-37.964,18.224-56.212,9.1L376.2,295.292z"/>
</g>
<path style="fill:#4D535F;" d="M277.724,262.232c30.564-30.564,80.284-30.568,110.836-0.016s30.544,80.272-0.016,110.836
	c-30.552,30.552-80.268,30.552-110.82,0S247.172,292.784,277.724,262.232z M381.768,366.276
	c26.824-26.824,26.832-70.468,0.016-97.284s-70.46-26.808-97.284,0.016c-26.816,26.816-26.816,70.452,0,97.268
	S354.952,393.092,381.768,366.276z"/>
<path style="fill:#F1592F;" d="M362.5,365.336l-51.588-66.668H122.504V432h188.408L362.5,365.336z M302.304,365.336
	c0-8.412,6.784-15.16,15.16-15.16c8.412,0,15.16,6.748,15.16,15.16c0,8.372-6.744,15.16-15.16,15.16
	C309.088,380.492,302.304,373.708,302.304,365.336z"/>
<rect x="139.312" y="313.6" style="fill:#FDFEFF;" width="127.712" height="103.496"/>
<path style="fill:#F1592F;" d="M154.464,362.888h8.124c1.036-10.164,5.08-19.288,12.124-27.376l9.68,8.124
	c-5.416,6.236-8.64,12.652-9.68,19.252H196.3c2-8.384,4.636-14.52,7.9-18.416c3.264-3.892,8.104-5.844,14.52-5.844
	s11.664,2.244,15.748,6.732c4.08,4.488,6.304,10.332,6.672,17.528h5.564v7.124h-5.672c-0.596,8.16-3.376,15.876-8.348,23.144
	l-10.236-7.236c3.488-4.896,5.636-10.2,6.456-15.912h-20.92v0.336c-2.004,8.532-4.712,14.796-8.124,18.804
	c-3.412,4.008-8.368,6.008-14.856,6.008c-6.492,0-11.78-2.3-15.856-6.9c-4.084-4.6-6.308-10.68-6.68-18.248h-8.008v-7.12H154.464z
	 M226.288,355.04c-1.668-1.888-3.744-2.836-6.232-2.836c-2.484,0-4.452,0.74-5.896,2.224c-1.448,1.484-2.84,4.3-4.176,8.456h19.252
	C228.94,359.548,227.96,356.932,226.288,355.04z M177.496,378.468c1.704,2.072,3.852,3.116,6.452,3.116
	c2.596,0,4.656-0.82,6.176-2.448c1.52-1.632,2.948-4.672,4.284-9.124H174.38C174.748,373.568,175.792,376.388,177.496,378.468z"/>
<path style="fill:#FDFEFF;" d="M381.8,409.228l-60.012-45.648c-1.968-1.496-2.352-4.308-0.852-6.276
	c1.496-1.972,4.308-2.352,6.276-0.852l60.008,45.644c1.968,1.496,2.352,4.308,0.852,6.276
	C386.58,410.336,383.772,410.728,381.8,409.228z"/>
<g>
</g>
<g>
</g>
<g>
</g>
<g>
</g>
<g>
</g>
<g>
</g>
<g>
</g>
<g>
</g>
<g>
</g>
<g>
</g>
<g>
</g>
<g>
</g>
<g>
</g>
<g>
</g>
<g>
</g>
</svg>
