<?xml version="1.0" encoding="iso-8859-1"?>
<!-- Generator: Adobe Illustrator 19.0.0, SVG Export Plug-In . SVG Version: 6.00 Build 0)  -->
<svg version="1.1" id="Capa_1" xmlns="http://www.w3.org/2000/svg" xmlns:xlink="http://www.w3.org/1999/xlink" x="0px" y="0px"
	 viewBox="0 0 512 512" style="enable-background:new 0 0 512 512;" xml:space="preserve">
<circle style="fill:#DFDFDF;" cx="256" cy="256" r="256"/>
<rect x="237.48" y="123.408" style="fill:#E8E7E8;" width="37.388" height="84.32"/>
<rect x="245.56" y="108.72" style="fill:#F0B97C;" width="20.816" height="23.348"/>
<path style="fill:#FDFEFF;" d="M291.868,132.052c12.78,32.892,2.056,49.24,19.176,94.332c0,0-4.112,7.072-12.504,6.908
	l-15.136-34.544l1.316-63.828L291.868,132.052z"/>
<path style="fill:#F0B97C;" d="M298.544,233.296c0,0-1.644,12.504,3.948,9.048c0,0,0.68,6.624-1.856,9.9
	c-1.164,1.504-0.772,3.732,0.9,4.64c2.64,1.436,6.736,1.548,11.648-5.496c0,0,4.772-8.884-2.14-25.004L298.544,233.296z"/>
<path style="fill:#FDFEFF;" d="M220.132,132.052c-12.78,32.892-2.056,49.24-19.176,94.332c0,0,4.112,7.072,12.504,6.908
	l15.136-34.544l-1.316-63.828L220.132,132.052z"/>
<path style="fill:#F0B97C;" d="M213.456,233.296c0,0,1.644,12.504-3.948,9.048c0,0-0.68,6.624,1.856,9.9
	c1.164,1.504,0.772,3.732-0.9,4.64c-6.836,3.724-19.668-6.792-9.508-30.5L213.456,233.296z"/>
<path style="fill:#4D535F;" d="M286.78,221.528v158.676h-23.396V258.7c0-4.076-3.304-7.38-7.38-7.38l0,0
	c-4.076,0-7.38,3.304-7.38,7.38v121.508h-23.396v-158.68H286.78z"/>
<g>
	<path style="fill:#F7CFA3;" d="M277.572,91.968c0,15.276-9.672,27.652-21.584,27.652c-11.964,0-21.6-12.416-21.6-27.652
		c0-15.276,9.672-27.652,21.6-27.652c9.932,0,18.308,8.604,20.808,20.308C277.296,86.972,277.572,89.42,277.572,91.968z"/>
	
		<ellipse transform="matrix(-0.5551 -0.8318 0.8318 -0.5551 283.8935 349.7429)" style="fill:#F7CFA3;" cx="235.482" cy="98.947" rx="7.996" ry="4.132"/>
	
		<ellipse transform="matrix(-0.4181 0.9084 -0.9084 -0.4181 482.7664 -111.4024)" style="fill:#F7CFA3;" cx="277.064" cy="98.923" rx="7.996" ry="4.132"/>
</g>
<path style="fill:#656D7A;" d="M276.796,84.624c-2.76,2.036-6.052,3.208-9.584,3.208c-4.568,0-8.74-1.964-11.896-5.188
	c-3.232,9.256-11.96,14.74-20.808,12.276c-0.088-0.964-0.12-1.948-0.12-2.948c0-15.276,9.672-27.652,21.6-27.652
	C265.92,64.316,274.3,72.92,276.796,84.624z"/>
<g>
	<path style="fill:#353944;" d="M275.216,370.776c-7.652,0-13.856,6.204-13.856,13.856v2.976h27.716v-2.976
		C289.072,376.98,282.868,370.776,275.216,370.776z"/>
	<path style="fill:#353944;" d="M236.732,370.776c-7.652,0-13.856,6.204-13.856,13.856v2.976h27.716v-2.976
		C250.592,376.98,244.388,370.776,236.732,370.776z"/>
</g>
<polygon style="fill:#F1592F;" points="258.556,140.66 253.444,140.66 251.552,134.86 256.036,132.02 260.448,134.86 "/>
<polygon style="fill:#E34E30;" points="260.056,166.956 251.944,166.956 253.444,140.66 258.556,140.66 "/>
<path style="fill:#656D7A;" d="M237.484,123.408c-0.908,24.164,18.5,42.328,18.5,42.328s19.42-18.164,18.5-42.328
	c0,0,13.32,0.352,17.388,8.644c0,0-10.188,45.076-5.104,89.476h-61.536c5.104-44.4-5.104-89.476-5.104-89.476
	c4.068-8.292,17.36-8.644,17.36-8.644"/>
<g>
	<path style="fill:#FDFEFF;" d="M245.572,121.996c0,0-11.264,5.952,3.652,16.792l6.776-6.736
		C256,132.052,245.396,126.488,245.572,121.996z"/>
	<path style="fill:#FDFEFF;" d="M266.388,122.052c0,0,11.3,5.896-3.616,16.736L256,132.052
		C256,132.052,266.708,126.924,266.388,122.052z"/>
</g>
<rect x="225.24" y="221.52" style="fill:#353944;" width="61.548" height="4.86"/>
<rect x="251.816" y="221.52" style="fill:#F5EA07;" width="8.38" height="4.86"/>
<rect x="366.28" y="147.28" style="fill:#E8E7E8;" width="37.388" height="84.32"/>
<rect x="374.36" y="132.56" style="fill:#F0B97C;" width="20.816" height="23.348"/>
<path style="fill:#FDFEFF;" d="M420.664,155.924c12.78,32.892,2.056,49.24,19.176,94.332c0,0-4.112,7.072-12.504,6.908L412.2,222.62
	l1.316-63.828L420.664,155.924z"/>
<path style="fill:#F0B97C;" d="M427.34,257.168c0,0-1.644,12.504,3.948,9.048c0,0,0.68,6.624-1.856,9.9
	c-1.164,1.504-0.772,3.732,0.9,4.64c2.64,1.436,6.736,1.548,11.648-5.496c0,0,4.772-8.884-2.14-25.004L427.34,257.168z"/>
<path style="fill:#FDFEFF;" d="M348.924,155.924c-11.672,30.036-3.58,53.248-19.176,94.332c0,0,4.112,7.072,12.504,6.908
	l15.136-34.544l-1.316-63.828L348.924,155.924z"/>
<path style="fill:#F0B97C;" d="M342.252,257.168c0,0,1.644,12.504-3.948,9.048c0,0-0.68,6.624,1.856,9.9
	c3.092,4-4.768,10.3-12.548-0.856c0,0-4.772-8.884,2.14-25.004L342.252,257.168z"/>
<path style="fill:#4D535F;" d="M415.576,245.4v158.676H392.18V282.568c0-4.076-3.304-7.38-7.38-7.38l0,0
	c-4.076,0-7.38,3.304-7.38,7.38v121.508h-23.396V245.4H415.576z"/>
<g>
	<path style="fill:#F7CFA3;" d="M406.368,115.84c0,15.276-9.672,27.652-21.584,27.652c-11.156,0-20.324-10.808-21.48-24.704
		c-0.088-0.964-0.12-1.948-0.12-2.948c0-15.276,9.672-27.652,21.6-27.652c9.932,0,18.308,8.604,20.808,20.308
		C406.092,110.84,406.368,113.288,406.368,115.84z"/>
	
		<ellipse transform="matrix(-0.5551 -0.8318 0.8318 -0.5551 464.3473 494.0047)" style="fill:#F7CFA3;" cx="364.29" cy="122.817" rx="7.996" ry="4.132"/>
	
		<ellipse transform="matrix(-0.4181 0.9084 -0.9084 -0.4181 687.123 -194.5743)" style="fill:#F7CFA3;" cx="405.881" cy="122.79" rx="7.996" ry="4.132"/>
</g>
<path style="fill:#656D7A;" d="M405.592,108.496c-2.76,2.036-6.052,3.208-9.584,3.208c-4.568,0-8.74-1.964-11.896-5.188
	c-2.636,7.552-9.068,12.86-16.568,12.86c-1.464,0-2.88-0.208-4.24-0.588c-0.088-0.964-0.12-1.948-0.12-2.948
	c0-15.276,9.672-27.652,21.6-27.652C394.716,88.188,403.096,96.788,405.592,108.496z"/>
<g>
	<path style="fill:#353944;" d="M404.012,394.644c-7.652,0-13.856,6.204-13.856,13.856v2.976h27.716V408.5
		C417.868,400.852,411.664,394.644,404.012,394.644z"/>
	<path style="fill:#353944;" d="M365.528,394.644c-7.652,0-13.856,6.204-13.856,13.856v2.976h27.716V408.5
		C379.388,400.852,373.184,394.644,365.528,394.644z"/>
</g>
<polygon style="fill:#F1592F;" points="387.352,164.532 382.24,164.532 380.348,158.728 384.828,155.888 389.244,158.728 "/>
<polygon style="fill:#E34E30;" points="388.852,190.824 380.74,190.824 382.24,164.532 387.352,164.532 "/>
<path style="fill:#656D7A;" d="M366.28,147.28c-0.908,24.164,18.5,42.328,18.5,42.328s19.42-18.164,18.5-42.328
	c0,0,13.32,0.352,17.388,8.644c0,0-10.188,45.076-5.104,89.476h-61.536c5.104-44.4-5.104-89.476-5.104-89.476
	c4.068-8.292,17.36-8.644,17.36-8.644"/>
<g>
	<path style="fill:#FDFEFF;" d="M374.368,145.868c0,0-11.264,5.952,3.652,16.792l6.776-6.736
		C384.796,155.924,374.192,150.356,374.368,145.868z"/>
	<path style="fill:#FDFEFF;" d="M395.184,145.924c0,0,11.3,5.896-3.616,16.736l-6.776-6.736
		C384.796,155.924,395.504,150.796,395.184,145.924z"/>
</g>
<rect x="354.04" y="245.4" style="fill:#353944;" width="61.548" height="4.86"/>
<rect x="380.6" y="245.4" style="fill:#F5EA07;" width="8.38" height="4.86"/>
<rect x="108.68" y="72.08" style="fill:#E8E7E8;" width="37.388" height="84.32"/>
<rect x="116.76" y="57.392" style="fill:#F0B97C;" width="20.816" height="23.348"/>
<path style="fill:#FDFEFF;" d="M163.076,80.74c0,0,7.364,18.952,7.896,41.468c0.156,6.568,0.948,13.108,2.272,19.544
	c1.996,9.692,5.152,23.172,9.008,33.324c0,0-4.112,7.072-12.504,6.908l-15.136-34.544l1.316-63.828L163.076,80.74z"/>
<path style="fill:#F0B97C;" d="M169.748,181.98c0,0-1.644,12.504,3.948,9.048c0,0,0.68,6.624-1.856,9.9
	c-1.164,1.504-0.772,3.732,0.9,4.64c2.64,1.436,6.736,1.548,11.648-5.496c0,0,4.772-8.884-2.14-25.004L169.748,181.98z"/>
<path style="fill:#FDFEFF;" d="M91.336,80.74c-11.672,30.036-3.58,53.248-19.176,94.332c0,0,4.112,7.072,12.504,6.908L99.8,147.436
	l-1.316-63.828L91.336,80.74z"/>
<path style="fill:#F0B97C;" d="M84.66,181.98c0,0,1.644,12.504-3.948,9.048c0,0-0.68,6.624,1.856,9.9
	c1.164,1.504,0.772,3.732-0.9,4.64c-2.64,1.436-6.736,1.548-11.648-5.496c0,0-4.772-8.884,2.14-25.004L84.66,181.98z"/>
<path style="fill:#4D535F;" d="M157.984,170.212v158.676h-23.396V207.384c0-4.076-3.304-7.38-7.38-7.38l0,0
	c-4.076,0-7.38,3.304-7.38,7.38v121.508H96.432v-158.68H157.984z"/>
<g>
	<path style="fill:#F7CFA3;" d="M148.78,40.656c0,15.276-9.672,27.652-21.584,27.652c-11.156,0-20.324-10.808-21.48-24.704
		c-0.088-0.964-0.12-1.948-0.12-2.948c0-15.276,9.672-27.652,21.6-27.652c9.932,0,18.308,8.604,20.808,20.308
		C148.504,35.656,148.78,38.104,148.78,40.656z"/>
	
		<ellipse transform="matrix(-0.5551 -0.8318 0.8318 -0.5551 126.2897 162.7997)" style="fill:#F7CFA3;" cx="106.684" cy="47.625" rx="7.996" ry="4.132"/>
	
		<ellipse transform="matrix(-0.4181 0.9084 -0.9084 -0.4181 253.5353 -67.1491)" style="fill:#F7CFA3;" cx="148.275" cy="47.63" rx="7.996" ry="4.132"/>
</g>
<path style="fill:#656D7A;" d="M148.004,33.312c-2.76,2.036-6.052,3.208-9.584,3.208c-4.568,0-8.74-1.964-11.896-5.188
	c-2.636,7.552-9.068,12.86-16.568,12.86c-1.464,0-2.88-0.208-4.24-0.588c-0.088-0.964-0.12-1.948-0.12-2.948
	c0-15.276,9.672-27.652,21.6-27.652C137.124,13,145.504,21.604,148.004,33.312z"/>
<g>
	<path style="fill:#353944;" d="M146.42,319.46c-7.652,0-13.856,6.204-13.856,13.856v2.976h27.716v-2.976
		C160.276,325.664,154.072,319.46,146.42,319.46z"/>
	<path style="fill:#353944;" d="M107.94,319.46c-7.652,0-13.856,6.204-13.856,13.856v2.976H121.8v-2.976
		C121.796,325.664,115.592,319.46,107.94,319.46z"/>
</g>
<polygon style="fill:#F1592F;" points="129.76,89.348 124.648,89.348 122.756,83.544 127.24,80.704 131.652,83.544 "/>
<polygon style="fill:#E34E30;" points="131.26,115.64 123.148,115.64 124.648,89.348 129.76,89.348 "/>
<path style="fill:#656D7A;" d="M108.688,72.096c-0.908,24.164,18.5,42.328,18.5,42.328s19.42-18.164,18.5-42.328
	c0,0,13.32,0.352,17.388,8.644c0,0-10.188,45.076-5.104,89.476H96.436c5.104-44.4-5.104-89.476-5.104-89.476
	c4.068-8.292,17.36-8.644,17.36-8.644"/>
<g>
	<path style="fill:#FDFEFF;" d="M116.776,70.68c0,0-11.264,5.952,3.652,16.792l6.776-6.736
		C127.204,80.74,116.6,75.172,116.776,70.68z"/>
	<path style="fill:#FDFEFF;" d="M137.596,70.736c0,0,11.3,5.896-3.616,16.736l-6.776-6.736
		C127.204,80.74,137.912,75.608,137.596,70.736z"/>
</g>
<rect x="96.44" y="170.212" style="fill:#353944;" width="61.548" height="4.86"/>
<rect x="123.02" y="170.212" style="fill:#F5EA07;" width="8.38" height="4.86"/>
<rect x="62.808" y="336.28" style="fill:#70B1E1;" width="128.8" height="138.652"/>
<rect x="320.4" y="411.48" style="fill:#FAD307;" width="128.8" height="63.468"/>
<rect x="191.604" y="387.6" style="fill:#F1592F;" width="128.8" height="87.336"/>
<g>
</g>
<g>
</g>
<g>
</g>
<g>
</g>
<g>
</g>
<g>
</g>
<g>
</g>
<g>
</g>
<g>
</g>
<g>
</g>
<g>
</g>
<g>
</g>
<g>
</g>
<g>
</g>
<g>
</g>
</svg>
