<?xml version="1.0" encoding="iso-8859-1"?>
<!-- Generator: Adobe Illustrator 19.0.0, SVG Export Plug-In . SVG Version: 6.00 Build 0)  -->
<svg version="1.1" id="Capa_1" xmlns="http://www.w3.org/2000/svg" xmlns:xlink="http://www.w3.org/1999/xlink" x="0px" y="0px"
	 viewBox="0 0 512 512" style="enable-background:new 0 0 512 512;" xml:space="preserve">
<circle style="fill:#70B1E1;" cx="256" cy="256" r="256"/>
<rect x="234.36" y="92.28" style="fill:#E8E7E8;" width="36.24" height="81.716"/>
<rect x="242.2" y="78.036" style="fill:#F0B97C;" width="20.16" height="22.624"/>
<path style="fill:#FDFEFF;" d="M287.076,100.66c11.308,29.104,3.468,51.6,18.584,91.412c0,0-3.984,6.856-12.116,6.696
	l-14.664-33.476l1.276-61.852L287.076,100.66z"/>
<path style="fill:#F0B97C;" d="M293.544,198.768c0,0-1.596,12.116,3.824,8.768c0,0,0.66,6.42-1.8,9.596
	c-1.128,1.46-0.748,3.616,0.872,4.496c2.56,1.392,6.528,1.5,11.288-5.324c0,0,4.624-8.608-2.072-24.232L293.544,198.768z"/>
<path style="fill:#FDFEFF;" d="M217.556,100.66c-11.308,29.104-3.468,51.6-18.584,91.412c0,0,3.984,6.856,12.116,6.696
	l14.664-33.476l-1.276-61.852L217.556,100.66z"/>
<path style="fill:#F0B97C;" d="M211.088,198.768c0,0,1.596,12.116-3.824,8.768c0,0-0.66,6.42,1.8,9.596
	c1.128,1.46,0.748,3.616-0.872,4.496c-2.56,1.392-6.528,1.5-11.288-5.324c0,0-4.624-8.608,2.072-24.232L211.088,198.768z"/>
<path style="fill:#4D535F;" d="M282.144,187.368v153.764h-22.672V223.384c0-3.948-3.2-7.152-7.152-7.152l0,0
	c-3.948,0-7.152,3.2-7.152,7.152v117.748h-22.672V187.368H282.144z"/>
<g>
	<path style="fill:#F7CFA3;" d="M252.304,88.616c-11.592,0-20.932-12.032-20.932-26.796c0-14.8,9.372-26.796,20.932-26.796
		c9.624,0,17.744,8.336,20.164,19.68C276.164,72.024,265.928,88.616,252.304,88.616z"/>
	<path style="fill:#F7CFA3;" d="M235.756,66.344c5.692,8.524-0.968,12.972-6.66,4.444C223.408,62.26,230.064,57.816,235.756,66.344z
		"/>
	<path style="fill:#F7CFA3;" d="M269.1,66.892c-4.284,9.312,2.984,12.66,7.272,3.348C280.656,60.928,273.388,57.576,269.1,66.892z"
		/>
</g>
<path style="fill:#656D7A;" d="M272.468,54.7c-2.672,1.972-5.864,3.108-9.288,3.108c-4.428,0-8.472-1.904-11.528-5.028
	c-3.132,8.968-11.592,14.284-20.164,11.896c-1.372-15.344,8.088-29.652,20.816-29.652C261.928,35.02,270.048,43.356,272.468,54.7z"
	/>
<g>
	<path style="fill:#353944;" d="M270.936,331.992c-7.416,0-13.428,6.012-13.428,13.428v2.884h26.856v-2.884
		C284.364,338.004,278.352,331.992,270.936,331.992z"/>
	<path style="fill:#353944;" d="M233.644,331.992c-7.416,0-13.428,6.012-13.428,13.428v2.884h26.856v-2.884
		C247.076,338.004,241.064,331.992,233.644,331.992z"/>
</g>
<polygon style="fill:#F1592F;" points="254.792,109.004 249.84,109.004 248.008,103.38 252.348,100.628 256.624,103.38 "/>
<polygon style="fill:#E34E30;" points="256.244,134.48 248.384,134.48 249.84,109.004 254.792,109.004 "/>
<path style="fill:#656D7A;" d="M234.372,92.284c-0.88,23.416,17.924,41.016,17.924,41.016s18.816-17.604,17.924-41.016
	c0,0,12.908,0.344,16.852,8.376c0,0-9.872,43.68-4.944,86.704H222.5c4.944-43.024-4.944-86.704-4.944-86.704
	c3.944-8.032,16.824-8.376,16.824-8.376"/>
<g>
	<path style="fill:#FDFEFF;" d="M242.212,90.916c0,0-10.916,5.768,3.54,16.272l6.564-6.528
		C252.316,100.66,242.04,95.268,242.212,90.916z"/>
	<path style="fill:#FDFEFF;" d="M262.384,90.968c0,0,10.952,5.712-3.504,16.22l-6.564-6.528
		C252.316,100.66,262.692,95.692,262.384,90.968z"/>
</g>
<rect x="222.5" y="187.368" style="fill:#353944;" width="59.64" height="4.708"/>
<rect x="248.24" y="187.368" style="fill:#F5EA07;" width="8.124" height="4.708"/>
<rect x="355.68" y="164.88" style="fill:#E8E7E8;" width="36.24" height="81.716"/>
<rect x="363.52" y="150.624" style="fill:#F0B97C;" width="20.16" height="22.624"/>
<path style="fill:#FDFEFF;" d="M408.384,173.248c12.384,31.872,1.996,47.716,18.584,91.412c0,0-3.984,6.856-12.116,6.696
	l-14.664-33.476l1.276-61.852L408.384,173.248z"/>
<path style="fill:#F0B97C;" d="M414.852,271.356c0,0-1.596,12.116,3.824,8.768c0,0,0.66,6.42-1.8,9.596
	c-1.128,1.46-0.748,3.616,0.872,4.496c2.56,1.392,6.528,1.5,11.288-5.324c0,0,4.624-8.608-2.072-24.232L414.852,271.356z"/>
<path style="fill:#FDFEFF;" d="M338.864,173.248c-11.308,29.104-3.468,51.6-18.584,91.412c0,0,3.984,6.856,12.116,6.696
	l14.664-33.476l-1.276-61.852L338.864,173.248z"/>
<path style="fill:#F0B97C;" d="M332.396,271.356c0,0,1.596,12.116-3.824,8.768c0,0-0.66,6.42,1.8,9.596
	c1.128,1.46,0.748,3.616-0.872,4.496c-2.56,1.392-6.528,1.5-11.288-5.324c0,0-4.624-8.608,2.072-24.232L332.396,271.356z"/>
<path style="fill:#4D535F;" d="M403.452,259.952v153.764H380.78V295.968c0-3.948-3.2-7.152-7.152-7.152l0,0
	c-3.948,0-7.152,3.2-7.152,7.152v117.748h-22.672V259.952H403.452z"/>
<g>
	<path style="fill:#F7CFA3;" d="M373.616,161.2c-11.592,0-20.932-12.032-20.932-26.796c0-14.8,9.372-26.796,20.932-26.796
		c9.624,0,17.744,8.336,20.164,19.68C397.472,144.608,387.24,161.2,373.616,161.2z"/>
	<path style="fill:#F7CFA3;" d="M357.068,138.928c5.692,8.524-0.968,12.972-6.66,4.444
		C344.72,134.848,351.376,130.4,357.068,138.928z"/>
	<path style="fill:#F7CFA3;" d="M390.408,139.476c-4.284,9.312,2.984,12.66,7.272,3.348
		C401.968,133.512,394.696,130.16,390.408,139.476z"/>
</g>
<path style="fill:#656D7A;" d="M393.78,127.288c-2.672,1.972-5.864,3.108-9.288,3.108c-4.428,0-8.472-1.904-11.528-5.028
	c-3.132,8.968-11.592,14.284-20.164,11.896c-1.372-15.344,8.088-29.652,20.816-29.652
	C383.236,107.608,391.356,115.944,393.78,127.288z"/>
<g>
	<path style="fill:#353944;" d="M392.244,404.576c-7.416,0-13.428,6.012-13.428,13.428v2.884h26.856v-2.884
		C405.672,410.588,399.66,404.576,392.244,404.576z"/>
	<path style="fill:#353944;" d="M354.956,404.576c-7.416,0-13.428,6.012-13.428,13.428v2.884h26.856v-2.884
		C368.384,410.588,362.372,404.576,354.956,404.576z"/>
</g>
<polygon style="fill:#F1592F;" points="376.1,181.588 371.148,181.588 369.316,175.964 373.66,173.212 377.932,175.964 "/>
<polygon style="fill:#E34E30;" points="377.556,207.068 369.696,207.068 371.148,181.588 376.1,181.588 "/>
<path style="fill:#656D7A;" d="M355.684,164.868c-0.88,23.416,17.924,41.016,17.924,41.016s18.816-17.604,17.924-41.016
	c0,0,12.908,0.344,16.852,8.376c0,0-9.872,43.68-4.944,86.704h-59.628c4.944-43.024-4.944-86.704-4.944-86.704
	c3.944-8.032,16.824-8.376,16.824-8.376"/>
<g>
	<path style="fill:#FDFEFF;" d="M363.52,163.5c0,0-10.916,5.768,3.54,16.272l6.564-6.528
		C373.624,173.248,363.348,167.852,363.52,163.5z"/>
	<path style="fill:#FDFEFF;" d="M383.692,163.556c0,0,10.952,5.712-3.504,16.22l-6.564-6.528
		C373.624,173.248,384.004,168.276,383.692,163.556z"/>
</g>
<rect x="343.812" y="259.952" style="fill:#353944;" width="59.64" height="4.708"/>
<rect x="369.56" y="259.952" style="fill:#F5EA07;" width="8.124" height="4.708"/>
<rect x="120.44" y="142.012" style="fill:#E8E7E8;" width="36.24" height="81.716"/>
<rect x="128.28" y="127.764" style="fill:#F0B97C;" width="20.16" height="22.624"/>
<path style="fill:#FDFEFF;" d="M173.136,150.388c11.308,29.104,3.468,51.6,18.584,91.412c0,0-3.984,6.856-12.116,6.696
	L164.94,215.02l1.276-61.852L173.136,150.388z"/>
<path style="fill:#F0B97C;" d="M179.604,248.496c0,0-1.596,12.116,3.824,8.768c0,0,0.66,6.42-1.8,9.596
	c-1.128,1.46-0.748,3.616,0.872,4.496c2.56,1.392,6.528,1.5,11.288-5.324c0,0,4.624-8.608-2.072-24.232L179.604,248.496z"/>
<path style="fill:#FDFEFF;" d="M103.616,150.388c-11.308,29.104-3.468,51.6-18.584,91.412c0,0,3.984,6.856,12.116,6.696
	l14.664-33.476l-1.276-61.852L103.616,150.388z"/>
<path style="fill:#F0B97C;" d="M97.148,248.496c0,0,1.596,12.116-3.824,8.768c0,0-0.66,6.42,1.8,9.596
	c1.128,1.46,0.748,3.616-0.872,4.496c-2.56,1.392-6.528,1.5-11.288-5.324c0,0-4.624-8.608,2.072-24.232L97.148,248.496z"/>
<path style="fill:#4D535F;" d="M168.204,237.092v153.764h-22.672V273.112c0-3.948-3.2-7.152-7.152-7.152l0,0
	c-3.948,0-7.152,3.2-7.152,7.152V390.86H108.56V237.092H168.204z"/>
<g>
	<path style="fill:#F7CFA3;" d="M138.364,138.344c-11.592,0-20.932-12.032-20.932-26.796c0-14.8,9.372-26.796,20.932-26.796
		c9.624,0,17.744,8.336,20.164,19.68C162.224,121.748,151.988,138.344,138.364,138.344z"/>
	<path style="fill:#F7CFA3;" d="M122.788,124.736c-4.384,2.928-12.988-9.96-8.6-12.888
		C118.572,108.92,127.172,121.808,122.788,124.736z"/>
	<path style="fill:#F7CFA3;" d="M155.556,125.328c4.788,2.204,11.268-11.872,6.476-14.076
		C157.244,109.048,150.768,123.124,155.556,125.328z"/>
</g>
<path style="fill:#656D7A;" d="M158.528,104.428c-2.672,1.972-5.864,3.108-9.288,3.108c-4.428,0-8.472-1.904-11.528-5.028
	c-3.132,8.968-11.592,14.284-20.164,11.896c-1.372-15.344,8.088-29.652,20.816-29.652
	C147.988,84.748,156.108,93.084,158.528,104.428z"/>
<g>
	<path style="fill:#353944;" d="M156.996,381.72c-7.416,0-13.428,6.012-13.428,13.428v2.884h26.856v-2.884
		C170.424,387.732,164.412,381.72,156.996,381.72z"/>
	<path style="fill:#353944;" d="M119.704,381.72c-7.416,0-13.428,6.012-13.428,13.428v2.884h26.856v-2.884
		C133.132,387.732,127.12,381.72,119.704,381.72z"/>
</g>
<polygon style="fill:#F1592F;" points="140.852,158.728 135.9,158.728 134.068,153.108 138.408,150.356 142.684,153.108 "/>
<polygon style="fill:#E34E30;" points="142.304,184.208 134.444,184.208 135.9,158.728 140.852,158.728 "/>
<path style="fill:#656D7A;" d="M120.432,142.012c-0.88,23.416,17.924,41.016,17.924,41.016s18.816-17.604,17.924-41.016
	c0,0,12.908,0.344,16.852,8.376c0,0-9.872,43.68-4.944,86.704H108.56c4.944-43.024-4.944-86.704-4.944-86.704
	c3.944-8.032,16.824-8.376,16.824-8.376"/>
<g>
	<path style="fill:#FDFEFF;" d="M128.268,140.644c0,0-10.916,5.768,3.54,16.272l6.564-6.528
		C138.376,150.388,128.1,144.992,128.268,140.644z"/>
	<path style="fill:#FDFEFF;" d="M148.444,140.696c0,0,10.952,5.712-3.504,16.22l-6.564-6.528
		C138.376,150.388,148.752,145.42,148.444,140.696z"/>
</g>
<rect x="108.56" y="237.08" style="fill:#353944;" width="59.64" height="4.708"/>
<g>
	<rect x="134.32" y="237.08" style="fill:#F5EA07;" width="8.124" height="4.708"/>
	<rect x="195.344" y="348.32" style="fill:#F5EA07;" width="113.94" height="134.36"/>
</g>
<g>
	<rect x="309.28" y="421.16" style="fill:#E8BB20;" width="113.94" height="61.504"/>
	<rect x="81.404" y="398.04" style="fill:#E8BB20;" width="113.94" height="84.64"/>
</g>
<g>
</g>
<g>
</g>
<g>
</g>
<g>
</g>
<g>
</g>
<g>
</g>
<g>
</g>
<g>
</g>
<g>
</g>
<g>
</g>
<g>
</g>
<g>
</g>
<g>
</g>
<g>
</g>
<g>
</g>
</svg>
