<?xml version="1.0" encoding="iso-8859-1"?>
<!-- Generator: Adobe Illustrator 19.0.0, SVG Export Plug-In . SVG Version: 6.00 Build 0)  -->
<svg version="1.1" id="Capa_1" xmlns="http://www.w3.org/2000/svg" xmlns:xlink="http://www.w3.org/1999/xlink" x="0px" y="0px"
	 viewBox="0 0 512 512" style="enable-background:new 0 0 512 512;" xml:space="preserve">
<circle style="fill:#D64331;" cx="256" cy="256" r="256"/>
<g>
	<polygon style="fill:#DA8D27;" points="386.672,423.952 344.2,423.952 282.676,277.568 325.148,277.568 	"/>
	<polygon style="fill:#DA8D27;" points="125.328,423.952 167.8,423.952 229.324,277.568 186.852,277.568 	"/>
</g>
<rect x="49.636" y="43.568" style="fill:#E8BB20;" width="412.72" height="273.56"/>
<rect x="72.88" y="66.816" style="fill:#FFFFFF;" width="366.24" height="227.048"/>
<path style="fill:#70B1E1;" d="M111.928,188.312c10.328,9.172,23.92,14.752,38.82,14.752s28.492-5.58,38.82-14.752l-38.82-38.82
	L111.928,188.312z"/>
<path style="fill:#656D7A;" d="M147.264,86.188c-13.532,0.796-25.82,6.188-35.336,14.64l35.336,35.336V86.188z"/>
<path style="fill:#7EC359;" d="M194.488,183.388c9.172-10.328,14.752-23.92,14.752-38.82c0-31.136-24.328-56.58-55.012-58.384v56.94
	L194.488,183.388z"/>
<path style="fill:#F1592F;" d="M107.004,105.752c-9.172,10.328-14.752,23.92-14.752,38.82s5.58,28.492,14.752,38.82l38.82-38.82
	L107.004,105.752z"/>
<g>
	<rect x="119.544" y="227.472" style="fill:#D2D2D4;" width="272.92" height="12.58"/>
	<rect x="119.544" y="260.24" style="fill:#D2D2D4;" width="272.92" height="12.58"/>
</g>
<rect x="282.68" y="112.24" style="fill:#70B1E1;" width="18.836" height="88.4"/>
<rect x="351.48" y="112.24" style="fill:#F1592F;" width="18.836" height="88.4"/>
<rect x="385.88" y="88.6" style="fill:#656D7A;" width="18.836" height="112.04"/>
<rect x="317.08" y="131.376" style="fill:#F5EA07;" width="18.836" height="69.28"/>
<rect x="248.28" y="153.64" style="fill:#F1592F;" width="18.836" height="47.004"/>
<g>
</g>
<g>
</g>
<g>
</g>
<g>
</g>
<g>
</g>
<g>
</g>
<g>
</g>
<g>
</g>
<g>
</g>
<g>
</g>
<g>
</g>
<g>
</g>
<g>
</g>
<g>
</g>
<g>
</g>
</svg>
