<?xml version="1.0" encoding="iso-8859-1"?>
<!-- Generator: Adobe Illustrator 19.0.0, SVG Export Plug-In . SVG Version: 6.00 Build 0)  -->
<svg version="1.1" id="Capa_1" xmlns="http://www.w3.org/2000/svg" xmlns:xlink="http://www.w3.org/1999/xlink" x="0px" y="0px"
	 viewBox="0 0 512 512" style="enable-background:new 0 0 512 512;" xml:space="preserve">
<circle style="fill:#F1592F;" cx="256" cy="256" r="256"/>
<polygon style="fill:#F0B97C;" points="334.916,453.876 310.132,389.4 198.976,389.4 175.544,453.876 132.54,453.876 
	187.528,312.696 227.108,312.696 210.612,358.024 297.92,358.024 281.088,312.696 322.932,312.696 379.46,453.876 "/>
<rect x="49.908" y="82.696" style="fill:#FDFEFF;" width="412.2" height="258.8"/>
<rect x="33.796" y="58.128" style="fill:#F0B97C;" width="444.4" height="24.568"/>
<rect x="363.24" y="164.64" style="fill:#7EC359;" width="21.152" height="133.928"/>
<rect x="328.48" y="196.36" style="fill:#F5EA07;" width="21.152" height="102.228"/>
<rect x="293.72" y="219.96" style="fill:#F1592F;" width="21.152" height="78.612"/>
<rect x="258.956" y="237.76" style="fill:#70B1E1;" width="21.152" height="60.82"/>
<rect x="224.2" y="250.36" style="fill:#7EC359;" width="21.152" height="48.2"/>
<rect x="189.44" y="264.92" style="fill:#F1592F;" width="21.152" height="33.644"/>
<rect x="154.664" y="279.484" style="fill:#F5EA07;" width="21.152" height="19.088"/>
<rect x="119.904" y="285.56" style="fill:#70B1E1;" width="21.152" height="13"/>
<g>
	<path style="fill:#F1592F;" d="M383.088,135.904c-63.848,70.52-182.24,118.904-272.924,147.576l-1.048-3.464
		c46.008-15.308,94.016-31.476,155.864-66.568c60.464-34.588,99.556-69.036,111.992-83.14L383.088,135.904z"/>
	<polygon style="fill:#F1592F;" points="384.748,143.044 393.684,117.78 369.58,129.488 	"/>
</g>
<g>
	<polygon style="fill:#656D7A;" points="407.432,315.64 90.212,315.64 90.212,123.764 97.12,123.764 97.12,308.732 407.432,308.732 
			"/>
	<polygon style="fill:#656D7A;" points="102.164,126.456 93.668,103.524 85.168,126.456 	"/>
	<polygon style="fill:#656D7A;" points="403.896,320.684 426.832,312.188 403.896,303.688 	"/>
</g>
<path style="fill:#FDFEFF;" d="M329.796,117.28c54.188-17.868,112.8,11.676,130.668,65.864
	c17.868,54.188-11.676,112.8-65.864,130.668s-112.8-11.676-130.668-65.864C246.068,193.76,275.608,135.148,329.796,117.28z"/>
<circle style="fill:#F5EA07;" cx="163.476" cy="184" r="53.436"/>
<g>
	<path style="fill:#E8BB20;" d="M163.476,229.804c-25.248,0-45.792-20.54-45.792-45.792s20.544-45.792,45.792-45.792
		s45.792,20.54,45.792,45.792S188.72,229.804,163.476,229.804z M163.476,146.296c-20.796,0-37.716,16.92-37.716,37.716
		s16.92,37.716,37.716,37.716s37.716-16.92,37.716-37.716S184.272,146.296,163.476,146.296z"/>
	<path style="fill:#E8BB20;" d="M162.008,211.7v-4.876c-6.104-0.624-11.58-3.048-16.436-7.28l4.876-5.812
		c3.744,3.252,7.596,5.188,11.556,5.812v-12.96c-5.036-1.2-8.716-2.784-11.056-4.744c-2.336-1.96-3.508-4.864-3.508-8.716
		s1.348-7.004,4.04-9.452c2.692-2.448,6.204-3.784,10.524-4.008v-3.34h4.276v3.404c4.9,0.36,9.528,2.028,13.896,5.012l-4.344,6.144
		c-2.94-2.092-6.124-3.384-9.552-3.876v12.56h0.2c5.12,1.204,8.884,2.828,11.288,4.876c2.404,2.048,3.608,5.024,3.608,8.92
		s-1.38,7.072-4.144,9.52c-2.76,2.452-6.412,3.788-10.956,4.008v4.808L162.008,211.7L162.008,211.7z M157.296,168.584
		c-1.132,1-1.7,2.248-1.7,3.74s0.444,2.672,1.336,3.54s2.584,1.704,5.076,2.508v-11.556
		C160.004,166.992,158.432,167.58,157.296,168.584z M171.36,197.876c1.244-1.024,1.872-2.312,1.872-3.872
		c0-1.556-0.492-2.796-1.472-3.708c-0.98-0.912-2.804-1.768-5.476-2.572v12.024C168.42,199.524,170.112,198.9,171.36,197.876z"/>
</g>
<path style="fill:#4D535F;" d="M454.6,420.636l-2.688,0.888L424.776,352.5l1.94-0.64c4.172-1.376,6.416-5.828,5.04-10
	c-1.368-4.152-5.848-6.408-10-5.04l-1.972,0.652l-7.964-24.156l-31.36,10.32l7.964,24.156l-1.972,0.652
	c-4.132,1.364-6.416,5.76-5.052,10.02c1.368,4.152,5.848,6.408,10,5.04l1.94-0.64l19.3,71.628l-2.72,0.896
	c-3.724,1.192-5.844,5.324-4.572,9.072c1.224,3.764,5.296,5.816,9.072,4.572l44.696-14.72c3.76-1.24,5.824-5.336,4.584-9.092
	C462.44,421.468,458.368,419.416,454.6,420.636z"/>
<path style="fill:#656D7A;" d="M325.88,105.404c-60.836,20.06-93.88,85.62-73.82,146.46c20.06,60.836,85.62,93.88,146.46,73.82
	c60.82-20.056,93.884-85.62,73.824-146.46C452.28,118.388,386.704,85.348,325.88,105.404z M391.04,303
	c-48.304,15.928-100.388-10.324-116.312-58.612c-15.928-48.304,10.332-100.372,58.636-116.3
	c48.288-15.924,100.348,10.32,116.28,58.624C465.564,235,439.328,287.076,391.04,303z"/>
<path style="fill:#7EC359;" d="M440.48,166.992v97c-6.4,10.4-14.88,19.56-25.12,26.76v-150.4
	C425.28,147.352,433.88,156.352,440.48,166.992z"/>
<rect x="374.08" y="173.04" style="fill:#F5EA07;" width="25.116" height="121.384"/>
<rect x="332.8" y="201.08" style="fill:#F1592F;" width="25.116" height="93.344"/>
<path style="fill:#70B1E1;" d="M316.64,222.192v72.24h-1.96c-8.72-5.24-16.56-11.88-23.16-19.8v-52.44L316.64,222.192
	L316.64,222.192z"/>
<path style="fill:#F1592F;" d="M403.44,133.192c-47.648,37.844-106.264,70.912-133.36,83.24c-0.04-2.64,0.04-5.2,0.28-7.76
	c57.66-30.404,98.992-58.916,123.64-79.56C397.2,130.312,400.36,131.672,403.44,133.192z"/>
<g>
</g>
<g>
</g>
<g>
</g>
<g>
</g>
<g>
</g>
<g>
</g>
<g>
</g>
<g>
</g>
<g>
</g>
<g>
</g>
<g>
</g>
<g>
</g>
<g>
</g>
<g>
</g>
<g>
</g>
</svg>
