<?xml version="1.0" encoding="iso-8859-1"?>
<!-- Generator: Adobe Illustrator 19.0.0, SVG Export Plug-In . SVG Version: 6.00 Build 0)  -->
<svg version="1.1" id="Capa_1" xmlns="http://www.w3.org/2000/svg" xmlns:xlink="http://www.w3.org/1999/xlink" x="0px" y="0px"
	 viewBox="0 0 512 512" style="enable-background:new 0 0 512 512;" xml:space="preserve">
<circle style="fill:#EE4B68;" cx="256" cy="256" r="256"/>
<path style="fill:#70B1E1;" d="M192.608,361.448l-18.46,10.66l-14.356-24.864l18.46-10.66c5.912-3.412,13.468-1.388,16.884,4.524
	l1.996,3.456C200.544,350.476,198.52,358.036,192.608,361.448z"/>
<g>
	<path style="fill:#FDFEFF;" d="M111.292,318.716c0,0,13.288,63.348,45.228,110.144c4.536,6.644,13.448,8.62,20.296,4.4
		l30.916-19.068c7.744-4.776,9.468-15.28,3.672-22.288c-15.104-18.26-39.752-52.616-39.456-82.068L111.292,318.716z"/>
	<path style="fill:#FDFEFF;" d="M342.644,181.264h61.408c9.464,0,18.332,5.024,22.824,13.356c5.048,9.368,7.104,23.86-0.84,31.196
		c-9.024,8.34-32.992,27.324-66.196,29.608L342.644,181.264z"/>
</g>
<path style="fill:#70B1E1;" d="M315.464,83.636l9-5.212c6.828-3.952,15.568-1.552,19.392,5.352
	c16.508,29.824,56.872,114.032,77.988,256.364c1.472,9.936-7.06,19.028-16.936,17.196c-2.808-0.52-5.408-1.908-7.348-4.68
	l-47.148-29.952c0,0-33.28-121.476-34.944-124.252c-1.664-2.772-8.876-94.296-8.876-94.296L315.464,83.636z"/>
<path style="fill:#FDFEFF;" d="M182.14,320.548c0,0,84.512-16.7,215.42,32.112c0,0-9.984-134.512-82.092-269.024
	c0,0-103.38,114.74-164.568,131.42C133.652,249.332,119.124,283.692,182.14,320.548z"/>
<path style="fill:#70B1E1;" d="M182.14,320.548l-68.22,14.668c-5.512,1.228-11.236-0.536-15.044-4.696
	c-25.964-28.224-30.016-70.296-26.54-83.404c0.972-3.804,3.292-7.176,6.66-9.296c2.892-1.824,6.956-3.648,12.704-5.016l59.204-17.74
	C150.904,215.064,165.492,283.56,182.14,320.548z"/>
<g>
	<path style="fill:#4D5BA5;" d="M187.232,319.752c-3.368,0.456-5.092,0.792-5.092,0.792l-4.956,1.072
		c-15.996-36.132-29.712-98.96-31.06-105.124l4.776-1.428c1.564-0.416,3.152-0.912,4.756-1.488l0.1,0.456
		c0.14,0.672,14.668,68.4,30.9,104.472L187.232,319.752z"/>
	<path style="fill:#4D5BA5;" d="M91.72,250.82l-20.136,5.768c0.02-2.12,0.1-4.26,0.256-6.48c0.08-1.012,0.236-2.02,0.496-2.992
		l16.928-4.856C94.868,240.608,97.404,249.196,91.72,250.82z"/>
	<path style="fill:#4D5BA5;" d="M93.76,270.304l-20.792,5.964c-0.476-2.892-0.832-5.888-1.052-8.98L91.3,261.74
		C96.932,260.084,99.432,268.68,93.76,270.304z"/>
	<path style="fill:#4D5BA5;" d="M99.768,288.816l-21.98,6.304c-0.992-2.716-1.864-5.548-2.636-8.524l22.16-6.344
		C102.952,278.592,105.428,287.196,99.768,288.816z"/>
	<path style="fill:#4D5BA5;" d="M108.052,305.504l-22.576,6.48c-1.428-2.516-2.836-5.212-4.144-8.108l24.26-6.956
		C111.28,295.308,113.724,303.896,108.052,305.504z"/>
	<path style="fill:#4D5BA5;" d="M116.136,323.58l-18.672,5.352c-1.864-2.1-3.904-4.636-5.984-7.572l22.2-6.364
		C119.36,313.388,121.82,321.968,116.136,323.58z"/>
</g>
<g>
</g>
<g>
</g>
<g>
</g>
<g>
</g>
<g>
</g>
<g>
</g>
<g>
</g>
<g>
</g>
<g>
</g>
<g>
</g>
<g>
</g>
<g>
</g>
<g>
</g>
<g>
</g>
<g>
</g>
</svg>
