<?xml version="1.0" encoding="iso-8859-1"?>
<!-- Generator: Adobe Illustrator 19.0.0, SVG Export Plug-In . SVG Version: 6.00 Build 0)  -->
<svg version="1.1" id="Capa_1" xmlns="http://www.w3.org/2000/svg" xmlns:xlink="http://www.w3.org/1999/xlink" x="0px" y="0px"
	 viewBox="0 0 512 512" style="enable-background:new 0 0 512 512;" xml:space="preserve">
<circle style="fill:#F1592F;" cx="256" cy="256" r="256"/>
<path style="fill:#896D61;" d="M11.496,332.08C43.892,436.312,141.108,512,256,512s212.108-75.688,244.504-179.92L11.496,332.08
	L11.496,332.08z"/>
<polygon style="fill:#656D7A;" points="350.88,53.44 151.636,53.44 121.36,112.136 381.152,112.136 "/>
<polygon style="fill:#D2D2D4;" points="366.392,112.136 366.392,368.824 136.12,368.824 136.12,112.136 199.476,112.136 
	251.256,73.356 303.036,112.136 "/>
<circle style="fill:#70B1E1;" cx="251.26" cy="113.756" r="17.16"/>
<path style="fill:#FDFEFF;" d="M251.26,133.184c-10.712,0-19.428-8.716-19.428-19.428s8.716-19.428,19.428-19.428
	s19.428,8.716,19.428,19.428S261.972,133.184,251.26,133.184z M251.26,98.86c-8.212,0-14.896,6.684-14.896,14.896
	c0,8.216,6.684,14.896,14.896,14.896c8.216,0,14.896-6.684,14.896-14.896C266.156,105.54,259.472,98.86,251.26,98.86z"/>
<rect x="220.92" y="294.12" style="fill:#656D7A;" width="60.696" height="74.712"/>
<g>
	<polygon style="fill:#4D535F;" points="243.348,303.468 220.912,294.112 220.912,368.824 243.348,359.472 	"/>
	<polygon style="fill:#4D535F;" points="259.172,303.468 281.608,294.112 281.608,368.824 259.172,359.472 	"/>
</g>
<path style="fill:#FDFEFF;" d="M274.856,207.432h-48.252v-37.856c0-13.168,10.612-24.148,24.108-24.148
	c13.412,0,24.148,10.852,24.148,24.148v37.856H274.856z M235.304,198.728h30.852v-29.156c0-4.096-1.6-7.98-4.512-10.932
	c-5.916-5.832-16.02-5.812-21.824,0c-2.904,2.94-4.516,6.832-4.516,10.932V198.728z"/>
<rect x="230.94" y="169.56" style="fill:#70B1E1;" width="39.548" height="33.504"/>
<path style="fill:#FDFEFF;" d="M207.632,207.432h-48.256v-37.856c0-13.168,10.612-24.148,24.104-24.148
	c13.412,0,24.152,10.852,24.152,24.148L207.632,207.432L207.632,207.432z M168.08,198.728h30.852v-29.156
	c0-4.096-1.6-7.976-4.512-10.932c-5.92-5.832-16.024-5.812-21.824,0c-2.904,2.94-4.512,6.828-4.512,10.932v29.156H168.08z"/>
<rect x="163.716" y="169.56" style="fill:#70B1E1;" width="39.548" height="33.504"/>
<path style="fill:#FDFEFF;" d="M342.088,207.432h-48.26v-37.856c0-13.156,10.604-24.148,24.108-24.148
	c6.412,0,12.472,2.5,17.072,7.044c4.58,4.636,7.08,10.696,7.08,17.104L342.088,207.432L342.088,207.432z M302.532,198.728h30.852
	v-29.156c0-20.136-30.852-20.4-30.852,0V198.728z"/>
<rect x="298.16" y="169.56" style="fill:#70B1E1;" width="39.548" height="33.504"/>
<path style="fill:#FDFEFF;" d="M207.632,281.5h-48.256v-37.856c0-13.32,10.784-24.108,24.104-24.108
	c13.268,0,24.152,10.696,24.152,24.108L207.632,281.5L207.632,281.5z M168.08,272.8h30.852v-29.156c0-4.108-1.6-7.972-4.504-10.884
	c-5.924-5.84-16.024-5.82-21.836-0.008c-2.908,2.908-4.512,6.776-4.512,10.892L168.08,272.8L168.08,272.8z"/>
<rect x="163.716" y="243.664" style="fill:#70B1E1;" width="39.548" height="33.504"/>
<path style="fill:#FDFEFF;" d="M274.856,281.5h-48.252v-37.856c0-13.32,10.784-24.108,24.108-24.108
	c13.268,0,24.148,10.696,24.148,24.108V281.5H274.856z M235.304,272.8h30.852v-29.156c0-4.108-1.596-7.972-4.5-10.88
	c-5.924-5.848-16.024-5.824-21.836-0.012c-2.912,2.912-4.512,6.776-4.512,10.892V272.8H235.304z"/>
<rect x="230.94" y="243.664" style="fill:#70B1E1;" width="39.548" height="33.504"/>
<path style="fill:#FDFEFF;" d="M342.088,281.5h-48.26v-37.856c0-13.344,10.812-24.108,24.108-24.108
	c13.268,0,24.152,10.696,24.152,24.108V281.5z M302.532,272.8h30.852v-29.156c0-4.108-1.596-7.968-4.504-10.88
	c-5.924-5.848-16.016-5.824-21.836-0.012c-2.912,2.908-4.512,6.776-4.512,10.888V272.8z"/>
<rect x="298.16" y="243.664" style="fill:#70B1E1;" width="39.548" height="33.504"/>
<path style="fill:#FDFEFF;" d="M207.632,355.592h-48.256v-37.856c0-13.324,10.784-24.108,24.104-24.108
	c13.22,0,24.152,10.652,24.152,24.108L207.632,355.592L207.632,355.592z M168.08,346.888h30.852v-29.156
	c0-4.108-1.6-7.972-4.504-10.884c-5.924-5.84-16.024-5.82-21.836-0.008c-2.908,2.912-4.512,6.776-4.512,10.892L168.08,346.888
	L168.08,346.888z"/>
<rect x="163.716" y="317.76" style="fill:#70B1E1;" width="39.548" height="33.504"/>
<path style="fill:#FDFEFF;" d="M342.088,355.592h-48.26v-37.856c0-13.328,10.792-24.108,24.108-24.108
	c13.22,0,24.152,10.652,24.152,24.108V355.592z M302.532,346.888h30.852v-29.156c0-4.108-1.6-7.972-4.504-10.884
	c-5.924-5.84-16.016-5.82-21.836-0.008c-2.908,2.912-4.512,6.776-4.512,10.888V346.888z"/>
<g>
	<path style="fill:#5F87C4;" d="M250.716,149.78L250.716,149.78c-10.92,0-19.776,8.852-19.776,19.776h39.548
		C270.488,158.632,261.636,149.78,250.716,149.78z"/>
	<path style="fill:#5F87C4;" d="M183.492,149.78L183.492,149.78c-10.92,0-19.776,8.852-19.776,19.776h39.548
		C203.264,158.632,194.412,149.78,183.492,149.78z"/>
	<path style="fill:#5F87C4;" d="M317.94,149.78c-10.92,0-19.776,8.852-19.776,19.776h39.548
		C337.716,158.632,328.86,149.78,317.94,149.78z"/>
	<path style="fill:#5F87C4;" d="M183.492,223.892L183.492,223.892c-10.92,0-19.776,8.852-19.776,19.776h39.548
		C203.264,232.744,194.412,223.892,183.492,223.892z"/>
	<path style="fill:#5F87C4;" d="M250.716,223.892L250.716,223.892c-10.92,0-19.776,8.852-19.776,19.776h39.548
		C270.488,232.744,261.636,223.892,250.716,223.892z"/>
	<path style="fill:#5F87C4;" d="M317.94,223.892c-10.92,0-19.776,8.852-19.776,19.776h39.548
		C337.716,232.744,328.86,223.892,317.94,223.892z"/>
	<path style="fill:#5F87C4;" d="M183.492,297.98L183.492,297.98c-10.92,0-19.776,8.852-19.776,19.776h39.548
		C203.264,306.832,194.412,297.98,183.492,297.98z"/>
	<path style="fill:#5F87C4;" d="M317.94,297.98c-10.92,0-19.776,8.852-19.776,19.776h39.548
		C337.716,306.832,328.86,297.98,317.94,297.98z"/>
</g>
<rect x="298.16" y="317.76" style="fill:#70B1E1;" width="39.548" height="33.504"/>
<rect x="130.452" y="368.84" style="fill:#5F87C4;" width="250.68" height="20.368"/>
<rect x="112.72" y="389.2" style="fill:#70B1E1;" width="286.12" height="20.368"/>
<rect x="405.28" y="331.4" style="fill:#D2D2D4;" width="10.756" height="52.796"/>
<path style="fill:#7EC359;" d="M434.296,323.092c0-13.048-23.628-100.244-23.628-100.244S387.04,310.04,387.04,323.092
	c0,13.048,10.58,23.628,23.628,23.628S434.296,336.14,434.296,323.092z"/>
<path style="fill:#6BBE49;" d="M410.668,222.848V346.72c13.048,0,23.628-10.58,23.628-23.628
	C434.296,310.04,410.668,222.848,410.668,222.848z"/>
<rect x="92.36" y="331.4" style="fill:#D2D2D4;" width="10.756" height="52.796"/>
<path style="fill:#7EC359;" d="M121.36,323.092c0-13.048-23.628-100.244-23.628-100.244s-23.628,87.196-23.628,100.244
	s10.58,23.628,23.628,23.628S121.36,336.14,121.36,323.092z"/>
<path style="fill:#6BBE49;" d="M97.732,222.848V346.72c13.048,0,23.628-10.58,23.628-23.628
	C121.36,310.04,97.732,222.848,97.732,222.848z"/>
<g>
</g>
<g>
</g>
<g>
</g>
<g>
</g>
<g>
</g>
<g>
</g>
<g>
</g>
<g>
</g>
<g>
</g>
<g>
</g>
<g>
</g>
<g>
</g>
<g>
</g>
<g>
</g>
<g>
</g>
</svg>
