<?xml version="1.0" encoding="iso-8859-1"?>
<!-- Generator: Adobe Illustrator 19.0.0, SVG Export Plug-In . SVG Version: 6.00 Build 0)  -->
<svg version="1.1" id="Capa_1" xmlns="http://www.w3.org/2000/svg" xmlns:xlink="http://www.w3.org/1999/xlink" x="0px" y="0px"
	 viewBox="0 0 512 512" style="enable-background:new 0 0 512 512;" xml:space="preserve">
<circle style="fill:#4C5BA8;" cx="256" cy="256" r="256"/>
<rect x="181.36" y="404.52" style="fill:#F5EB07;" width="78.008" height="19.412"/>
<g>
	<rect x="254.32" y="408.16" style="fill:#E8BB20;" width="2.496" height="12.18"/>
	<rect x="247.928" y="408.16" style="fill:#E8BB20;" width="2.496" height="12.18"/>
	<rect x="241.52" y="408.16" style="fill:#E8BB20;" width="2.496" height="12.18"/>
	<rect x="235.128" y="408.16" style="fill:#E8BB20;" width="2.496" height="12.18"/>
	<rect x="228.72" y="408.16" style="fill:#E8BB20;" width="2.496" height="12.18"/>
	<rect x="222.32" y="408.16" style="fill:#E8BB20;" width="2.496" height="12.18"/>
	<rect x="215.928" y="408.16" style="fill:#E8BB20;" width="2.496" height="12.18"/>
	<rect x="209.52" y="408.16" style="fill:#E8BB20;" width="2.496" height="12.18"/>
	<rect x="203.128" y="408.16" style="fill:#E8BB20;" width="2.496" height="12.18"/>
	<rect x="196.72" y="408.16" style="fill:#E8BB20;" width="2.496" height="12.18"/>
	<rect x="190.328" y="408.16" style="fill:#E8BB20;" width="2.496" height="12.18"/>
	<rect x="183.928" y="408.16" style="fill:#E8BB20;" width="2.496" height="12.18"/>
</g>
<rect x="173.04" y="383.16" style="fill:#F5EB07;" width="78.008" height="19.412"/>
<g>
	<rect x="245.96" y="386.76" style="fill:#E8BB20;" width="2.496" height="12.18"/>
	<rect x="239.576" y="386.76" style="fill:#E8BB20;" width="2.496" height="12.18"/>
	<rect x="233.16" y="386.76" style="fill:#E8BB20;" width="2.496" height="12.18"/>
	<rect x="226.776" y="386.76" style="fill:#E8BB20;" width="2.496" height="12.18"/>
	<rect x="220.36" y="386.76" style="fill:#E8BB20;" width="2.496" height="12.18"/>
	<rect x="213.96" y="386.76" style="fill:#E8BB20;" width="2.496" height="12.18"/>
	<rect x="207.576" y="386.76" style="fill:#E8BB20;" width="2.496" height="12.18"/>
	<rect x="201.16" y="386.76" style="fill:#E8BB20;" width="2.496" height="12.18"/>
	<rect x="194.776" y="386.76" style="fill:#E8BB20;" width="2.496" height="12.18"/>
	<rect x="188.36" y="386.76" style="fill:#E8BB20;" width="2.496" height="12.18"/>
	<rect x="181.96" y="386.76" style="fill:#E8BB20;" width="2.496" height="12.18"/>
	<rect x="175.58" y="386.76" style="fill:#E8BB20;" width="2.496" height="12.18"/>
</g>
<rect x="164.12" y="361.76" style="fill:#F5EB07;" width="78.008" height="19.412"/>
<g>
	<rect x="237.08" y="365.4" style="fill:#E8BB20;" width="2.496" height="12.18"/>
	<rect x="230.68" y="365.4" style="fill:#E8BB20;" width="2.496" height="12.18"/>
	<rect x="224.28" y="365.4" style="fill:#E8BB20;" width="2.496" height="12.18"/>
	<rect x="217.88" y="365.4" style="fill:#E8BB20;" width="2.496" height="12.18"/>
	<rect x="211.48" y="365.4" style="fill:#E8BB20;" width="2.496" height="12.18"/>
	<rect x="205.08" y="365.4" style="fill:#E8BB20;" width="2.496" height="12.18"/>
	<rect x="198.68" y="365.4" style="fill:#E8BB20;" width="2.496" height="12.18"/>
	<rect x="192.28" y="365.4" style="fill:#E8BB20;" width="2.496" height="12.18"/>
	<rect x="185.88" y="365.4" style="fill:#E8BB20;" width="2.496" height="12.18"/>
	<rect x="179.48" y="365.4" style="fill:#E8BB20;" width="2.496" height="12.18"/>
	<rect x="173.08" y="365.4" style="fill:#E8BB20;" width="2.496" height="12.18"/>
	<rect x="166.684" y="365.4" style="fill:#E8BB20;" width="2.496" height="12.18"/>
</g>
<rect x="203.319" y="325.001" transform="matrix(-0.7071 0.7071 -0.7071 -0.7071 636.0654 402.1704)" style="fill:#F5EB07;" width="62.843" height="15.636"/>
<g>
	
		<rect x="253.795" y="307.856" transform="matrix(-0.7071 0.7071 -0.7071 -0.7071 656.1289 353.7472)" style="fill:#E8BB20;" width="2.012" height="9.812"/>
	
		<rect x="250.15" y="311.511" transform="matrix(-0.7071 0.7071 -0.7071 -0.7071 652.4903 362.5634)" style="fill:#E8BB20;" width="2.012" height="9.812"/>
	
		<rect x="246.486" y="315.175" transform="matrix(-0.7071 0.7071 -0.7071 -0.7071 648.827 371.4098)" style="fill:#E8BB20;" width="2.012" height="9.812"/>
	
		<rect x="242.839" y="318.799" transform="matrix(-0.7071 0.7071 -0.7071 -0.7071 645.1622 380.174)" style="fill:#E8BB20;" width="2.012" height="9.812"/>
	
		<rect x="239.196" y="322.425" transform="matrix(-0.7071 0.7071 -0.7071 -0.7071 641.5079 388.9408)" style="fill:#E8BB20;" width="2.012" height="9.812"/>
	
		<rect x="235.553" y="326.096" transform="matrix(-0.7071 0.7071 -0.7071 -0.7071 637.8846 397.7826)" style="fill:#E8BB20;" width="2.012" height="9.812"/>
	
		<rect x="231.907" y="329.729" transform="matrix(-0.7071 0.7071 -0.7071 -0.7071 634.2303 406.563)" style="fill:#E8BB20;" width="2.012" height="9.812"/>
	
		<rect x="228.298" y="333.382" transform="matrix(-0.7071 0.7071 -0.7071 -0.7071 630.6527 415.3512)" style="fill:#E8BB20;" width="2.012" height="9.812"/>
	
		<rect x="224.638" y="337.026" transform="matrix(-0.7071 0.7071 -0.7071 -0.7071 626.9812 424.1594)" style="fill:#E8BB20;" width="2.012" height="9.812"/>
	
		<rect x="220.966" y="340.706" transform="matrix(-0.7071 0.7071 -0.7071 -0.7071 623.3143 433.0382)" style="fill:#E8BB20;" width="2.012" height="9.812"/>
	
		<rect x="217.318" y="344.333" transform="matrix(-0.7071 0.7071 -0.7071 -0.7071 619.6519 441.8105)" style="fill:#E8BB20;" width="2.012" height="9.812"/>
	
		<rect x="213.677" y="347.968" transform="matrix(-0.7071 0.7071 -0.7071 -0.7071 616.006 450.5898)" style="fill:#E8BB20;" width="2.012" height="9.812"/>
</g>
<rect x="185.667" y="318.293" transform="matrix(-0.7071 0.7071 -0.7071 -0.7071 601.1889 403.2015)" style="fill:#F5EB07;" width="62.843" height="15.636"/>
<g>
	
		<rect x="236.157" y="301.133" transform="matrix(-0.7071 0.7071 -0.7071 -0.7071 621.2656 354.7418)" style="fill:#E8BB20;" width="2.012" height="9.812"/>
	
		<rect x="232.481" y="304.813" transform="matrix(-0.7071 0.7071 -0.7071 -0.7071 617.5918 363.6234)" style="fill:#E8BB20;" width="2.012" height="9.812"/>
	
		<rect x="228.837" y="308.457" transform="matrix(-0.7071 0.7071 -0.7071 -0.7071 613.9476 372.4203)" style="fill:#E8BB20;" width="2.012" height="9.812"/>
	
		<rect x="225.189" y="312.085" transform="matrix(-0.7071 0.7071 -0.7071 -0.7071 610.2853 381.1927)" style="fill:#E8BB20;" width="2.012" height="9.812"/>
	
		<rect x="221.536" y="315.736" transform="matrix(-0.7071 0.7071 -0.7071 -0.7071 606.6314 390.0081)" style="fill:#E8BB20;" width="2.012" height="9.812"/>
	
		<rect x="217.885" y="319.38" transform="matrix(-0.7071 0.7071 -0.7071 -0.7071 602.9752 398.8113)" style="fill:#E8BB20;" width="2.012" height="9.812"/>
	
		<rect x="214.273" y="323.036" transform="matrix(-0.7071 0.7071 -0.7071 -0.7071 599.3948 407.6064)" style="fill:#E8BB20;" width="2.012" height="9.812"/>
	
		<rect x="210.622" y="326.679" transform="matrix(-0.7071 0.7071 -0.7071 -0.7071 595.7375 416.4072)" style="fill:#E8BB20;" width="2.012" height="9.812"/>
	
		<rect x="206.979" y="330.305" transform="matrix(-0.7071 0.7071 -0.7071 -0.7071 592.0832 425.174)" style="fill:#E8BB20;" width="2.012" height="9.812"/>
	
		<rect x="203.326" y="333.959" transform="matrix(-0.7071 0.7071 -0.7071 -0.7071 588.4293 433.9941)" style="fill:#E8BB20;" width="2.012" height="9.812"/>
	
		<rect x="199.675" y="337.609" transform="matrix(-0.7071 0.7071 -0.7071 -0.7071 584.7783 442.8075)" style="fill:#E8BB20;" width="2.012" height="9.812"/>
	
		<rect x="196.025" y="341.243" transform="matrix(-0.7071 0.7071 -0.7071 -0.7071 581.1171 451.5907)" style="fill:#E8BB20;" width="2.012" height="9.812"/>
</g>
<rect x="155.847" y="323.739" transform="matrix(-0.7071 0.7071 -0.7071 -0.7071 554.1334 433.5852)" style="fill:#F5EB07;" width="62.843" height="15.636"/>
<g>
	
		<rect x="206.328" y="306.628" transform="matrix(-0.7071 0.7071 -0.7071 -0.7071 574.2297 385.2142)" style="fill:#E8BB20;" width="2.012" height="9.812"/>
	
		<rect x="202.679" y="310.261" transform="matrix(-0.7071 0.7071 -0.7071 -0.7071 570.5685 393.9974)" style="fill:#E8BB20;" width="2.012" height="9.812"/>
	
		<rect x="199.028" y="313.916" transform="matrix(-0.7071 0.7071 -0.7071 -0.7071 566.9203 402.8176)" style="fill:#E8BB20;" width="2.012" height="9.812"/>
	
		<rect x="195.381" y="317.562" transform="matrix(-0.7071 0.7071 -0.7071 -0.7071 563.2733 411.6213)" style="fill:#E8BB20;" width="2.012" height="9.812"/>
	
		<rect x="191.727" y="321.2" transform="matrix(-0.7071 0.7071 -0.7071 -0.7071 559.6081 420.4142)" style="fill:#E8BB20;" width="2.012" height="9.812"/>
	
		<rect x="188.06" y="324.835" transform="matrix(-0.7071 0.7071 -0.7071 -0.7071 555.9179 429.2126)" style="fill:#E8BB20;" width="2.012" height="9.812"/>
	
		<rect x="184.42" y="328.502" transform="matrix(-0.7071 0.7071 -0.7071 -0.7071 552.2975 438.0477)" style="fill:#E8BB20;" width="2.012" height="9.812"/>
	
		<rect x="180.78" y="332.126" transform="matrix(-0.7071 0.7071 -0.7071 -0.7071 548.6459 446.8075)" style="fill:#E8BB20;" width="2.012" height="9.812"/>
	
		<rect x="177.16" y="335.778" transform="matrix(-0.7071 0.7071 -0.7071 -0.7071 545.0479 455.6009)" style="fill:#E8BB20;" width="2.012" height="9.812"/>
	
		<rect x="173.528" y="339.414" transform="matrix(-0.7071 0.7071 -0.7071 -0.7071 541.4196 464.3761)" style="fill:#E8BB20;" width="2.012" height="9.812"/>
	
		<rect x="169.877" y="343.077" transform="matrix(-0.7071 0.7071 -0.7071 -0.7071 537.7766 473.2111)" style="fill:#E8BB20;" width="2.012" height="9.812"/>
	
		<rect x="166.207" y="346.726" transform="matrix(-0.7071 0.7071 -0.7071 -0.7071 534.0926 482.0358)" style="fill:#E8BB20;" width="2.012" height="9.812"/>
	<path style="fill:#E8BB20;" d="M350.748,304.748c-15.476-12.688-38.256-12.688-53.728,0c-20.912,17.144-20.912,48.864,0,66.008
		c15.476,12.688,38.252,12.688,53.728,0C371.66,353.616,371.66,321.892,350.748,304.748z"/>
</g>
<g>
	<path style="fill:#F5EA07;" d="M323.88,373.556c19.776,0.004,35.808-16.024,35.804-35.804c0-19.772-16.028-35.804-35.804-35.804
		c-19.772,0-35.804,16.032-35.804,35.804C288.08,357.524,304.108,373.556,323.88,373.556z M291.848,337.752
		c-0.004-17.692,14.34-32.04,32.036-32.032c17.696,0,32.04,14.34,32.04,32.04c0,17.688-14.344,32.032-32.032,32.032
		C306.188,369.792,291.848,355.448,291.848,337.752z"/>
	<path style="fill:#F5EA07;" d="M322.624,358.296v-3.616c-4.528-0.464-8.592-2.264-12.192-5.4l3.616-4.312
		c2.776,2.412,5.632,3.848,8.572,4.312v-9.616c-3.732-0.892-6.468-2.064-8.204-3.52c-1.736-1.452-2.6-3.608-2.6-6.468
		c0-2.856,1-5.196,3-7.012c2-1.816,4.6-2.808,7.804-2.972v-2.476h3.172v2.528c3.636,0.264,7.072,1.504,10.308,3.716l-3.22,4.56
		c-2.18-1.552-4.544-2.512-7.088-2.876v9.316h0.148c3.8,0.892,6.592,2.1,8.376,3.616c1.784,1.52,2.676,3.724,2.676,6.616
		s-1.024,5.244-3.072,7.064c-2.048,1.816-4.756,2.808-8.128,2.972v3.568L322.624,358.296L322.624,358.296z M319.132,326.304
		c-0.844,0.744-1.264,1.668-1.264,2.776s0.332,1.984,0.992,2.628c0.66,0.644,1.916,1.264,3.768,1.86v-8.576
		C321.136,325.124,319.972,325.564,319.132,326.304z M329.564,348.04c0.924-0.76,1.388-1.716,1.388-2.876
		c0-1.156-0.364-2.072-1.092-2.752c-0.728-0.676-2.08-1.312-4.064-1.908v8.92C327.38,349.26,328.636,348.8,329.564,348.04z"/>
</g>
<path style="fill:#E8BB20;" d="M233.42,74.912c-12.552-10.292-31.028-10.292-43.584,0c-16.964,13.908-16.964,39.636,0,53.544
	c12.552,10.292,31.028,10.292,43.584,0C250.384,114.548,250.384,88.816,233.42,74.912z"/>
<g>
	<path style="fill:#F5EA07;" d="M211.628,130.72c16.04,0.004,29.044-13,29.04-29.04c0-16.04-13.004-29.04-29.04-29.04
		s-29.04,13.004-29.04,29.04C182.588,117.72,195.592,130.72,211.628,130.72z M185.644,101.68
		c-0.004-14.352,11.632-25.988,25.984-25.984c14.356,0,25.988,11.632,25.988,25.988c0,14.348-11.636,25.984-25.984,25.984
		C197.276,127.668,185.644,116.036,185.644,101.68z"/>
	<path style="fill:#F5EA07;" d="M210.608,118.344v-2.936c-3.672-0.376-6.968-1.836-9.888-4.38l2.936-3.496
		c2.252,1.956,4.568,3.124,6.956,3.496v-7.8c-3.028-0.724-5.244-1.676-6.652-2.856c-1.408-1.18-2.112-2.928-2.112-5.248
		c0-2.316,0.808-4.212,2.432-5.688c1.62-1.472,3.732-2.276,6.332-2.412v-2.008h2.572v2.052c2.948,0.216,5.736,1.22,8.36,3.016
		l-2.612,3.7c-1.768-1.26-3.684-2.036-5.748-2.332v7.556h0.12c3.08,0.724,5.348,1.704,6.792,2.936
		c1.448,1.232,2.172,3.024,2.172,5.368c0,2.344-0.832,4.256-2.492,5.728c-1.66,1.476-3.86,2.28-6.592,2.412v2.896h-2.576V118.344z
		 M207.776,92.396c-0.684,0.604-1.024,1.352-1.024,2.252s0.268,1.608,0.804,2.132c0.536,0.524,1.556,1.024,3.056,1.508v-6.956
		C209.404,91.44,208.46,91.792,207.776,92.396z M216.236,110.024c0.748-0.616,1.124-1.392,1.124-2.332
		c0-0.936-0.296-1.68-0.884-2.232c-0.588-0.548-1.688-1.064-3.296-1.548v7.236C214.468,111.016,215.488,110.64,216.236,110.024z"/>
</g>
<path style="fill:#E8BB20;" d="M150.948,131.452c-13.004-10.66-32.14-10.66-45.14,0c-17.572,14.404-17.572,41.056,0,55.46
	c13,10.66,32.14,10.66,45.14,0C168.52,172.508,168.52,145.856,150.948,131.452z"/>
<g>
	<path style="fill:#F5EA07;" d="M128.376,189.26c16.616,0.004,30.084-13.464,30.08-30.08c0-16.612-13.468-30.08-30.08-30.08
		s-30.08,13.468-30.08,30.08C98.296,175.792,111.764,189.26,128.376,189.26z M101.46,159.18
		c-0.004-14.864,12.048-26.916,26.912-26.912c14.868,0,26.916,12.048,26.916,26.916c0,14.86-12.052,26.912-26.912,26.912
		C113.512,186.1,101.46,174.048,101.46,159.18z"/>
	<path style="fill:#F5EA07;" d="M127.32,176.44v-3.04c-3.804-0.388-7.216-1.9-10.244-4.54l3.04-3.624
		c2.332,2.028,4.732,3.236,7.204,3.624v-8.076c-3.136-0.748-5.432-1.736-6.892-2.956c-1.456-1.22-2.184-3.032-2.184-5.436
		c0-2.4,0.84-4.364,2.52-5.892s3.864-2.36,6.56-2.5v-2.08h2.664v2.124c3.052,0.224,5.94,1.264,8.66,3.124L135.944,151
		c-1.832-1.304-3.816-2.108-5.956-2.416v7.828h0.124c3.192,0.748,5.54,1.764,7.036,3.04c1.5,1.276,2.248,3.132,2.248,5.56
		s-0.86,4.408-2.584,5.932c-1.72,1.528-3.996,2.36-6.828,2.5v2.996H127.32z M124.384,149.564c-0.708,0.624-1.064,1.404-1.064,2.332
		c0,0.932,0.276,1.664,0.832,2.208c0.556,0.54,1.608,1.06,3.164,1.56v-7.204C126.072,148.572,125.092,148.94,124.384,149.564z
		 M133.148,167.824c0.776-0.64,1.164-1.444,1.164-2.416s-0.304-1.74-0.916-2.312c-0.612-0.568-1.748-1.104-3.416-1.604v7.496
		C131.316,168.848,132.372,168.46,133.148,167.824z"/>
</g>
<path style="fill:#E8BB20;" d="M236.784,199.892c-14.712-12.06-36.364-12.06-51.076,0c-19.88,16.296-19.88,46.452,0,62.748
	c14.712,12.06,36.364,12.06,51.072,0C256.664,246.344,256.664,216.188,236.784,199.892z"/>
<g>
	<path style="fill:#F5EA07;" d="M211.248,265.296c18.8,0.004,34.036-15.232,34.032-34.032c0-18.796-15.236-34.032-34.032-34.032
		s-34.032,15.236-34.032,34.032S192.452,265.296,211.248,265.296z M180.796,231.264c-0.004-16.82,13.632-30.456,30.452-30.452
		c16.824,0,30.456,13.632,30.456,30.456c0,16.816-13.636,30.452-30.452,30.452C194.428,261.72,180.796,248.088,180.796,231.264z"/>
	<path style="fill:#F5EA07;" d="M210.052,250.792v-3.44c-4.304-0.44-8.164-2.152-11.588-5.136l3.44-4.1
		c2.64,2.292,5.356,3.66,8.148,4.1v-9.136c-3.548-0.848-6.148-1.964-7.796-3.344c-1.648-1.38-2.472-3.432-2.472-6.148
		c0-2.716,0.948-4.94,2.848-6.664c1.9-1.728,4.372-2.668,7.42-2.828v-2.356h3.016v2.404c3.456,0.252,6.72,1.428,9.8,3.532
		l-3.06,4.336c-2.072-1.476-4.32-2.388-6.736-2.732v8.856h0.14c3.612,0.848,6.264,1.996,7.96,3.44
		c1.696,1.444,2.544,3.54,2.544,6.288s-0.976,4.988-2.92,6.712c-1.948,1.728-4.524,2.668-7.728,2.828v3.392h-3.016V250.792z
		 M206.732,220.384c-0.8,0.708-1.2,1.588-1.2,2.64s0.312,1.884,0.944,2.496c0.628,0.612,1.82,1.2,3.58,1.768v-8.152
		C208.64,219.26,207.532,219.676,206.732,220.384z M216.648,241.04c0.88-0.72,1.32-1.632,1.32-2.732c0-1.1-0.348-1.972-1.036-2.616
		c-0.692-0.644-1.98-1.248-3.864-1.812v8.48C214.576,242.204,215.768,241.764,216.648,241.04z"/>
</g>
<path style="fill:#D2D2D4;" d="M329.764,337.444c0,0-17.464,8.968-29.976,24.036c-4.612,5.556-10.008,10.468-16.196,14.256
	c-2.848,1.744-6,3.424-9.244,4.716c-3.372,1.344-5.124,5.068-3.988,8.288c1.46,4.14,4.868,9.776,12.668,15.608
	c2.124,1.588,5.14,1.596,7.508,0.06c9.632-6.252,35.5-21.88,51.644-20.66L329.764,337.444z"/>
<path style="fill:#FDFEFF;" d="M414.248,417.996c-0.796-3.764-0.836-6.744-0.572-8.996c2.956,1.684,6.724,2.272,10.568,1.524
	c18.264-3.532,13.836-26.708-4.504-23.164c-5.32,1.032-9.452,4.464-11.044,8.616c-2.688-0.748-5.028-2.104-6.916-3.52
	c28.276-23.876,30.808-71.844,6.296-113.04l-0.904,5.948l-26.412-1.396l-3.264,21.424l-26.412-1.396l-3.264,21.424l-26.412-1.396
	l-3.272,21.428l-26.412-1.396l-3.264,21.424l-4.22-0.224c5.208,6.444,10.88,12.208,16.876,17.228
	c-6.956,7.644-15.052,13.12-23.148,16.344c-3.376,1.344-5.124,5.072-3.988,8.288c1.46,4.148,4.864,9.78,12.668,15.608
	c2.124,1.592,5.136,1.6,7.508,0.056c6.504-4.216,20.412-12.716,33.732-17.408c5.092-1.796,10.616-2.104,15.872-0.876
	c18.12,4.232,36.116,2.244,50.96-6.924c2.788,2.404,6.648,5.028,11.4,6.412c-1.024,3.6-1.588,8.872-0.052,15.964
	C407.2,425.316,415.472,423.78,414.248,417.996z M416.728,400.732c-0.156-0.224-0.256-0.46-0.304-0.704
	c-0.716-3.704,8.252-6.552,10.828-2.868C429.78,400.764,419.64,404.888,416.728,400.732z"/>
<g>
	<path style="fill:#D2D2D4;" d="M401.14,315.644c-1.78-10.708-5.768-21.36-11.576-31.204l-8.804-0.464l-0.696,4.572
		c5.532,9.064,9.3,18.912,10.94,28.78c0.128,0.784,0.428,1.496,0.856,2.104c1.1,1.572,3.036,2.46,5.056,2.124
		C399.712,321.092,401.604,318.444,401.14,315.644z"/>
	<path style="fill:#D2D2D4;" d="M113.908,330.536c-14.548,26.936-4.972,41.78-19.112,62.592c-1.912,2.812-1.128,6.64,1.672,8.572
		c3.6,2.48,9.632,5.112,19.296,5.608c2.628,0.136,5.048-1.432,6.04-3.872c4.04-9.92,15.576-35.656,29.208-43.124L113.908,330.536z"
		/>
</g>
<path style="fill:#FDFEFF;" d="M169.416,381.748l22.436-14.004l-9.612-19.432l22.436-14.004l-9.616-19.42l22.436-14.004
	l-9.616-19.42l22.436-14.004l-2.668-5.392c-2.912-1.312-5.904-2.528-8.972-3.648c-19.492-7.092-39.248-9.08-57.044-6.672
	c-17.64,2.388-21.976-11.704-36.696-21.624c0,0-9.984,15.088-4.088,32.512c0.004,0.012,0.008,0.028,0.016,0.04
	c0.8,2.336,0.156,4.888-1.764,6.436c-12.284,9.896-15.78,8.596-28.768,3.868l-9.852,44.416l5.836,2.124
	c5.932,2.16,10.56,7.024,12.144,13.136c2.316,8.94,6.44,17.72,12.128,25.964c9.112,13.208,4.912,35.644-4.252,49.096
	c-1.908,2.796-1.116,6.58,1.668,8.504c3.6,2.488,9.64,5.132,19.328,5.628c2.632,0.14,5.048-1.432,6.04-3.872
	c2.352-5.76,7.22-16.852,13.56-26.596c8.852,5.076,18.428,9.128,28.512,12.032l3.584-2.236L169.416,381.748z"/>
<g>
	<path style="fill:#D2D2D4;" d="M215.36,276.788c-2.3-1.044-4.632-2.036-7.028-2.908c-9.568-3.48-19.4-5.412-29.224-5.744
		c-2.836-0.096-5.212,2.128-5.308,4.964c-0.096,2.84,2.124,5.212,4.964,5.308c8.74,0.292,17.508,2.02,26.056,5.128
		c1.736,0.632,3.436,1.332,5.116,2.064l-2.052-4.144L215.36,276.788z"/>
	<circle style="fill:#D2D2D4;" cx="131.244" cy="291.94" r="9.792"/>
</g>
<path style="fill:#E8E7E8;" d="M93.416,298.104c-2.72,12.264-8.508,20.904-12.932,19.292c-4.424-1.612-5.808-12.86-3.088-25.124
	s8.508-20.904,12.932-19.292C94.748,274.588,96.132,285.84,93.416,298.104z"/>
<g>
	<path style="fill:#D2D2D4;" d="M91.54,296.296c-0.752,5.468-2.412,9.664-3.7,9.376c-1.292-0.288-1.728-4.956-0.972-10.424
		c0.752-5.468,2.412-9.664,3.7-9.376C91.856,286.16,92.292,290.828,91.54,296.296z"/>
	<path style="fill:#D2D2D4;" d="M84.136,294.636c-0.752,5.468-2.412,9.664-3.7,9.376c-1.292-0.288-1.728-4.956-0.972-10.424
		c0.752-5.468,2.412-9.664,3.7-9.376S84.888,289.168,84.136,294.636z"/>
</g>
<rect x="252.69" y="126.618" transform="matrix(-0.866 0.5 -0.5 -0.866 711.0697 89.7673)" style="fill:#F5EA07;" width="181.636" height="27.067"/>
<rect x="257.791" y="145.68" transform="matrix(-0.866 0.5 -0.5 -0.866 725.0085 103.7136)" style="fill:#E8BB20;" width="181.636" height="6.624"/>
<polygon style="fill:#4D535F;" points="324.132,192.432 291.876,211.352 255.964,149.144 259.548,126.024 279.12,114.464 "/>
<path style="fill:#D2D2D4;" d="M140.448,263.44c0.668-1.352,0.432-3.1-0.576-4.22c-0.584-0.656-1.376-1.084-2.044-1.656
	c-5.76-4.908-0.164-16.6-10.272-19.5c-1.06,1.372,0.052,3.336-0.06,5.068c-0.068,1.096-0.64,2.088-1.124,3.076
	c-1.852,3.792-3.336,11.416-0.732,14.644c1.764,2.184,5.128,2.392,7.104,4.388c2.204,2.232,2.552,3.628,4.66,0.944
	C138.264,265.088,139.764,264.824,140.448,263.44z"/>
<g>
	<polygon style="fill:#FDFEFF;" points="241.268,285.972 230.288,294.844 223.396,287.64 228.344,277.092 242.452,273.108 	"/>
	<polygon style="fill:#FDFEFF;" points="267.412,283.86 278.392,274.988 285.284,282.196 280.336,292.744 266.228,296.728 	"/>
	<polygon style="fill:#FDFEFF;" points="308.436,280.396 299.564,269.42 316.512,264.632 321.3,281.58 	"/>
	<polygon style="fill:#FDFEFF;" points="279.336,258.084 270.464,247.104 287.412,242.32 292.2,259.268 	"/>
	<polygon style="fill:#FDFEFF;" points="257.384,360.024 248.512,349.048 255.716,342.152 266.264,347.104 270.248,361.208 	"/>
	<polygon style="fill:#FDFEFF;" points="346.616,285.212 337.744,274.232 344.948,267.34 355.496,272.288 359.48,286.396 	"/>
</g>
<g>
</g>
<g>
</g>
<g>
</g>
<g>
</g>
<g>
</g>
<g>
</g>
<g>
</g>
<g>
</g>
<g>
</g>
<g>
</g>
<g>
</g>
<g>
</g>
<g>
</g>
<g>
</g>
<g>
</g>
</svg>
