<?xml version="1.0" encoding="iso-8859-1"?>
<!-- Generator: Adobe Illustrator 19.0.0, SVG Export Plug-In . SVG Version: 6.00 Build 0)  -->
<svg version="1.1" id="Capa_1" xmlns="http://www.w3.org/2000/svg" xmlns:xlink="http://www.w3.org/1999/xlink" x="0px" y="0px"
	 viewBox="0 0 512 512" style="enable-background:new 0 0 512 512;" xml:space="preserve">
<circle style="fill:#896D61;" cx="256" cy="256" r="256"/>
<path style="fill:#F5EA07;" d="M364.9,156.784c-13.652,22.748-26.42,46.02-36.408,70.6l-13.92,34.26H198.348l-13.92-34.256
	c-9.988-24.58-22.76-47.852-36.412-70.608c-23.44-39.072,31.84-78.636,108.464-78.636C333.124,78.144,388.332,117.74,364.9,156.784z
	"/>
<rect x="247.82" y="332.56" style="fill:#FDFEFF;" width="16.36" height="84.52"/>
<circle style="fill:#D2D2D4;" cx="256" cy="417.08" r="21.084"/>
<path style="fill:#FDFEFF;" d="M353.136,417.06h-16.36v-16.748c0-12.8-10.412-23.212-23.208-23.212H198.432
	c-12.8,0-23.212,10.412-23.212,23.212v16.748h-16.36v-16.748c0-21.82,17.752-39.568,39.568-39.568h115.136
	c21.82,0,39.568,17.752,39.568,39.568v16.748H353.136z"/>
<g>
	<circle style="fill:#D2D2D4;" cx="344.96" cy="417.08" r="21.084"/>
	<circle style="fill:#D2D2D4;" cx="167.044" cy="417.08" r="21.084"/>
</g>
<polygon style="fill:#E8BB20;" points="291.356,295.552 220.644,295.552 234.828,341.328 277.172,341.328 "/>
<path style="fill:#F5EA07;" d="M407.736,193.82c-2.812,19.792-13.236,66.056-50.148,94.832
	c-13.812,10.768-30.668,16.876-48.084,18.708c-34.944,3.672-70.492,3.52-106.588-0.108c-19.168-1.924-37.584-9.156-52.244-21.656
	c-33.892-28.896-43.68-72.672-46.428-91.776c-2.424-17.14,12.856-47.348,42.912-11.26c9.376,11.296,16.2,24.556,20.476,38.636
	c5.552,18.376,16.804,32.676,35.776,32.676h105.164c19.12,0,30.228-14.464,35.812-32.676c4.276-14.084,11.06-27.34,20.476-38.636
	C394.42,146.948,410.34,176.02,407.736,193.82z"/>
<path style="fill:#E8BB20;" d="M405.424,177.384c-6.356,29.184-24.828,79-77.276,98.536c-46.992,6.824-95.164,6.552-144.272,0
	c-52.484-19.536-70.92-69.352-77.316-98.536c9.456-20,25.844-12.54,40.6,5.176c9.376,11.296,16.2,24.556,20.476,38.636
	c5.516,18.256,16.608,32.676,35.776,32.676h105.164c19.088,0,30.172-14.28,35.812-32.676c4.276-14.084,11.06-27.34,20.476-38.636
	C379.472,164.956,396.276,157.264,405.424,177.384z"/>
<g>
</g>
<g>
</g>
<g>
</g>
<g>
</g>
<g>
</g>
<g>
</g>
<g>
</g>
<g>
</g>
<g>
</g>
<g>
</g>
<g>
</g>
<g>
</g>
<g>
</g>
<g>
</g>
<g>
</g>
</svg>
