<?xml version="1.0" encoding="iso-8859-1"?>
<!-- Generator: Adobe Illustrator 19.0.0, SVG Export Plug-In . SVG Version: 6.00 Build 0)  -->
<svg version="1.1" id="Capa_1" xmlns="http://www.w3.org/2000/svg" xmlns:xlink="http://www.w3.org/1999/xlink" x="0px" y="0px"
	 viewBox="0 0 512 512" style="enable-background:new 0 0 512 512;" xml:space="preserve">
<circle style="fill:#70B1E1;" cx="256" cy="256" r="256"/>
<circle style="fill:#E8BB20;" cx="256" cy="256" r="214.94"/>
<g>
	<path style="fill:#F5EA07;" d="M255.992,440.18c-101.552,0-184.18-82.62-184.18-184.18S154.44,71.816,255.992,71.816
		S440.176,154.44,440.176,256S357.544,440.18,255.992,440.18z M255.992,98.584C169.196,98.584,98.58,169.2,98.58,256
		s70.616,157.416,157.416,157.416S413.408,342.8,413.408,256S342.788,98.584,255.992,98.584z"/>
	<path style="fill:#F5EA07;" d="M329.672,267.272c-6.432-7.428-15.076-12.316-25.928-14.656c3.008-1.336,5.092-2.292,6.264-2.88
		c1.168-0.584,3.34-2.044,6.516-4.384c8.68-6.68,13.028-16.868,13.028-30.564c0-11.356-4.008-21.544-12.024-30.564
		c-4.176-4.844-10.568-8.684-19.168-11.524c-7.64-2.52-16.64-3.856-26.848-4.14v-14.4h-15.204v14.28h-16.644v-14.28H224.46v14.28
		h-24.94v175.12h24.94v14.28h15.204v-14.28h16.644v14.28h15.204v-14.28h4.676c23.884,0,40.752-5.424,50.608-16.284
		c8.348-9.352,12.528-20.124,12.528-32.32C339.316,283.932,336.096,274.708,329.672,267.272z M298.732,219.296
		c0,14.528-10.692,21.796-32.068,21.796H229.08v-45.344h37.832c10.856,0,18.872,1.84,24.052,5.512
		C296.14,204.936,298.732,210.948,298.732,219.296z M300.36,311.116c-5.764,3.424-14.072,5.136-24.928,5.136H229.08V268.4h42.592
		c24.884,0,37.328,7.768,37.328,23.3C309,301.22,306.12,307.696,300.36,311.116z"/>
</g>
<g>
</g>
<g>
</g>
<g>
</g>
<g>
</g>
<g>
</g>
<g>
</g>
<g>
</g>
<g>
</g>
<g>
</g>
<g>
</g>
<g>
</g>
<g>
</g>
<g>
</g>
<g>
</g>
<g>
</g>
</svg>
