<?xml version="1.0" encoding="iso-8859-1"?>
<!-- Generator: Adobe Illustrator 19.0.0, SVG Export Plug-In . SVG Version: 6.00 Build 0)  -->
<svg version="1.1" id="Capa_1" xmlns="http://www.w3.org/2000/svg" xmlns:xlink="http://www.w3.org/1999/xlink" x="0px" y="0px"
	 viewBox="0 0 512 512" style="enable-background:new 0 0 512 512;" xml:space="preserve">
<circle style="fill:#7EC359;" cx="256" cy="256" r="256"/>
<g>
	<polygon style="fill:#656D7A;" points="197.204,248.796 170.596,197.712 233.06,176.348 250.512,209.856 	"/>
	<polygon style="fill:#656D7A;" points="311.048,248.796 337.656,197.712 275.192,176.348 257.74,209.856 	"/>
</g>
<g>
	<path style="fill:#4D535F;" d="M217.512,263.588l-15.524,15.5l-72.86-72.864l15.5-15.524c16.736-16.716,43.844-16.716,60.584,0
		l12.304,12.304C234.228,219.724,234.228,246.852,217.512,263.588z"/>
	<path style="fill:#4D535F;" d="M379.144,206.224l-72.888,72.868l-15.5-15.5c-16.736-16.736-16.736-43.868,0-60.584l12.284-12.304
		c16.736-16.716,43.844-16.716,60.584,0L379.144,206.224z"/>
</g>
<circle style="fill:#656D7A;" cx="383.44" cy="272.2" r="82.788"/>
<circle style="fill:#70B1E1;" cx="383.44" cy="272.2" r="61.32"/>
<circle style="fill:#5F87C4;" cx="383.44" cy="272.2" r="31.844"/>
<circle style="fill:#FDFEFF;" cx="361.72" cy="251.96" r="14.252"/>
<circle style="fill:#656D7A;" cx="124.8" cy="272.2" r="82.788"/>
<circle style="fill:#70B1E1;" cx="124.8" cy="272.2" r="61.32"/>
<circle style="fill:#5F87C4;" cx="124.8" cy="272.2" r="31.844"/>
<circle style="fill:#FDFEFF;" cx="146.516" cy="251.96" r="14.252"/>
<circle style="fill:#4D535F;" cx="254.12" cy="189.4" r="32.388"/>
<circle style="fill:#353944;" cx="254.12" cy="189.4" r="16.616"/>
<g>
</g>
<g>
</g>
<g>
</g>
<g>
</g>
<g>
</g>
<g>
</g>
<g>
</g>
<g>
</g>
<g>
</g>
<g>
</g>
<g>
</g>
<g>
</g>
<g>
</g>
<g>
</g>
<g>
</g>
</svg>
