<?xml version="1.0" encoding="iso-8859-1"?>
<!-- Generator: Adobe Illustrator 19.0.0, SVG Export Plug-In . SVG Version: 6.00 Build 0)  -->
<svg version="1.1" id="Capa_1" xmlns="http://www.w3.org/2000/svg" xmlns:xlink="http://www.w3.org/1999/xlink" x="0px" y="0px"
	 viewBox="0 0 512 512" style="enable-background:new 0 0 512 512;" xml:space="preserve">
<circle style="fill:#70B1E1;" cx="256" cy="256" r="256"/>
<g>
	<path style="fill:#E8BB20;" d="M465.388,353.824c-14.284-7.448-27.616-16.592-39.008-27.984l-80.14-80.14l-34.028,34.028
		l79.812,79.812c11.252,11.252,20.94,24.076,27.852,38.412c9.696,20.112,35.748,24.84,51.96,10.712
		C489.708,393.092,486.136,364.64,465.388,353.824z"/>
	
		<rect x="274.394" y="194.542" transform="matrix(-0.7071 0.7071 -0.7071 -0.7071 668.7592 182.9268)" style="fill:#E8BB20;" width="44.2" height="70.851"/>
	
		<rect x="159.813" y="126.155" transform="matrix(-0.7071 0.7071 -0.7071 -0.7071 537.6815 128.6699)" style="fill:#E8BB20;" width="164.758" height="99.075"/>
</g>
<g>
	<path style="fill:#F5EA07;" d="M229.388,294.064l-0.668,0.668c-5.38,5.38-14.104,5.38-19.484,0l-86.08-86.08
		c-5.38-5.38-5.38-14.104,0-19.484l0.668-0.668c5.38-5.38,14.104-5.38,19.484,0l86.08,86.08
		C234.768,279.96,234.768,288.684,229.388,294.064z"/>
	<path style="fill:#F5EA07;" d="M361.24,162.212l-0.668,0.668c-5.38,5.38-14.104,5.38-19.484,0l-86.08-86.08
		c-5.38-5.38-5.38-14.104,0-19.484l0.668-0.668c5.38-5.38,14.104-5.38,19.484,0l86.08,86.08
		C366.62,148.108,366.62,156.832,361.24,162.212z"/>
	<path style="fill:#F5EA07;" d="M242.968,91.968l-84.496,84.492c-3.1,3.1-3.1,8.128,0,11.232l71.72,71.72
		c3.1,3.1,8.128,3.1,11.232,0l84.496-84.492c3.1-3.1,3.1-8.128,0-11.232l-71.72-71.72C251.1,88.864,246.072,88.864,242.968,91.968z"
		/>
	<path style="fill:#F5EA07;" d="M335.324,235.72l-33.1,33.1c-5.768,5.768-5.768,15.12,0,20.884c5.768,5.768,15.12,5.768,20.884,0
		l33.1-33.1c5.768-5.768,5.768-15.12,0-20.884C350.444,229.952,341.092,229.952,335.324,235.72z"/>
</g>
<path style="fill:#4D535F;" d="M299.612,390.16H110.1c-12.244,0-22.168,9.924-22.168,22.168v23.444h233.852v-23.444
	C321.784,400.088,311.856,390.16,299.612,390.16z"/>
<path style="fill:#656D7A;" d="M325.836,406.044H83.876c-11.812,0-21.384,9.924-21.384,22.168V462.6H347.22v-34.388
	C347.22,415.968,337.644,406.044,325.836,406.044z"/>
<g>
</g>
<g>
</g>
<g>
</g>
<g>
</g>
<g>
</g>
<g>
</g>
<g>
</g>
<g>
</g>
<g>
</g>
<g>
</g>
<g>
</g>
<g>
</g>
<g>
</g>
<g>
</g>
<g>
</g>
</svg>
