<?xml version="1.0" encoding="iso-8859-1"?>
<!-- Generator: Adobe Illustrator 19.0.0, SVG Export Plug-In . SVG Version: 6.00 Build 0)  -->
<svg version="1.1" id="Capa_1" xmlns="http://www.w3.org/2000/svg" xmlns:xlink="http://www.w3.org/1999/xlink" x="0px" y="0px"
	 viewBox="0 0 512 512" style="enable-background:new 0 0 512 512;" xml:space="preserve">
<circle style="fill:#F1592F;" cx="256" cy="256" r="256"/>
<rect x="83.04" y="110" style="fill:#FDFEFF;" width="302.4" height="195.676"/>
<g>
	<rect x="99.216" y="127.656" style="fill:#656D7A;" width="16.94" height="160.36"/>
	<rect x="214.28" y="127.656" style="fill:#656D7A;" width="16.94" height="160.36"/>
	<rect x="124.32" y="127.656" style="fill:#656D7A;" width="12.776" height="141.768"/>
	<rect x="147.32" y="127.656" style="fill:#656D7A;" width="12.776" height="141.768"/>
	<rect x="170.332" y="127.656" style="fill:#656D7A;" width="12.776" height="141.768"/>
	<rect x="193.36" y="127.656" style="fill:#656D7A;" width="12.776" height="141.768"/>
	<rect x="237.28" y="127.656" style="fill:#656D7A;" width="16.94" height="160.36"/>
	<rect x="352.32" y="127.656" style="fill:#656D7A;" width="16.94" height="160.36"/>
	<rect x="262.36" y="127.656" style="fill:#656D7A;" width="12.776" height="141.768"/>
	<rect x="285.4" y="127.656" style="fill:#656D7A;" width="12.776" height="141.768"/>
	<rect x="308.4" y="127.656" style="fill:#656D7A;" width="12.776" height="141.768"/>
	<rect x="331.4" y="127.656" style="fill:#656D7A;" width="12.776" height="141.768"/>
</g>
<path style="fill:#F5EA07;" d="M356.776,330.956c7.628,31.184,19.384,67.184,22.276,73.94c5.148,12.036,19.076,17.616,31.112,12.472
	c12.036-5.148,17.616-19.076,12.472-31.112c-2.892-6.756-20.8-40.124-38.084-67.18L356.776,330.956z"/>
<rect x="353.47" y="296.001" transform="matrix(-0.3933 -0.9194 0.9194 -0.3933 220.2785 779.1776)" style="fill:#E8BB20;" width="27.5" height="41.82"/>
<circle style="fill:#70B1E1;" cx="333.12" cy="237.24" r="87.768"/>
<path style="fill:#FDFEFF;" d="M399.248,263.712c-1.856,4.548-4.132,8.86-6.764,12.808c-2.692,4.188-5.864,8.02-9.396,11.432
	c-1.856,1.856-3.832,3.592-5.924,5.208c-19.332,15.264-46.088,19.992-70.568,10.176c-6.464-2.572-12.212-6.104-17.42-10.176h-0.06
	v-0.06c-3.412-2.692-6.584-5.568-9.396-8.74c-17.24-19.512-23.104-47.824-12.748-73.624c3.112-7.78,7.48-14.724,12.748-20.652
	c2.872-3.292,6.044-6.224,9.396-8.86c4.548-3.592,9.456-6.524,14.664-8.86c3.772-1.736,7.72-3.172,11.792-4.132
	c4.788-1.256,9.696-2.036,14.664-2.152c3.832-0.24,7.78-0.06,11.732,0.476c4.968,0.6,9.876,1.736,14.724,3.472
	c1.016,0.3,1.976,0.72,2.932,1.076c3.052,1.256,5.984,2.636,8.8,4.312c5.448,3.052,10.416,6.824,14.664,11.072
	c3.592,3.472,6.704,7.304,9.396,11.372C404.936,216.724,408.288,241.144,399.248,263.712z"/>
<g>
	<path style="fill:#656D7A;" d="M279.716,190.088v94.272c-17.24-19.512-23.104-47.824-12.748-73.624
		C270.08,202.956,274.448,196.016,279.716,190.088z"/>
	<path style="fill:#656D7A;" d="M399.248,263.712c-1.856,4.548-4.132,8.86-6.764,12.808v-78.652
		C404.936,216.724,408.288,241.144,399.248,263.712z"/>
	<path style="fill:#656D7A;" d="M303.78,172.372V293.16h-14.664V181.228C293.664,177.636,298.572,174.704,303.78,172.372z"/>
	<path style="fill:#656D7A;" d="M330.236,166.088V293.16h-14.664V168.24C320.36,166.984,325.268,166.204,330.236,166.088z"/>
	<path style="fill:#656D7A;" d="M356.692,170.036V293.16h-14.724V166.564C346.936,167.164,351.844,168.3,356.692,170.036z"/>
	<path style="fill:#656D7A;" d="M383.088,186.496v101.456c-1.856,1.856-3.832,3.592-5.924,5.208h-8.74V175.424
		C373.868,178.476,378.836,182.248,383.088,186.496z"/>
</g>
<g>
</g>
<g>
</g>
<g>
</g>
<g>
</g>
<g>
</g>
<g>
</g>
<g>
</g>
<g>
</g>
<g>
</g>
<g>
</g>
<g>
</g>
<g>
</g>
<g>
</g>
<g>
</g>
<g>
</g>
</svg>
