<?xml version="1.0" encoding="iso-8859-1"?>
<!-- Generator: Adobe Illustrator 19.0.0, SVG Export Plug-In . SVG Version: 6.00 Build 0)  -->
<svg version="1.1" id="Capa_1" xmlns="http://www.w3.org/2000/svg" xmlns:xlink="http://www.w3.org/1999/xlink" x="0px" y="0px"
	 viewBox="0 0 511.608 511.608" style="enable-background:new 0 0 511.608 511.608;" xml:space="preserve">
<circle style="fill:#EE4B68;" cx="255.804" cy="255.804" r="255.804"/>
<rect x="88.912" y="263.472" style="fill:#F5EA07;" width="12.08" height="167.972"/>
<rect x="122.64" y="222.36" style="fill:#4D5BA5;" width="12.08" height="209.08"/>
<g>
	<rect x="156.364" y="181.244" style="fill:#FDFEFF;" width="12.08" height="250.2"/>
	<circle style="fill:#FDFEFF;" cx="162.408" cy="177.524" r="15.344"/>
</g>
<circle style="fill:#4D5BA5;" cx="128.684" cy="222.36" r="15.344"/>
<g>
	<path style="fill:#F5EA07;" d="M110.3,263.472c0,8.476-6.872,15.344-15.344,15.344s-15.344-6.872-15.344-15.344
		C79.612,243.204,110.3,243.176,110.3,263.472z"/>
	<rect x="190.088" y="263.472" style="fill:#F5EA07;" width="12.08" height="167.972"/>
</g>
<rect x="223.804" y="222.36" style="fill:#7EC359;" width="12.08" height="209.08"/>
<g>
	<rect x="257.524" y="181.244" style="fill:#4D5BA5;" width="12.08" height="250.2"/>
	<circle style="fill:#4D5BA5;" cx="263.584" cy="177.524" r="15.344"/>
</g>
<circle style="fill:#7EC359;" cx="229.844" cy="222.36" r="15.344"/>
<g>
	<path style="fill:#F5EA07;" d="M211.48,263.472c0,8.476-6.872,15.344-15.344,15.344c-8.476,0-15.344-6.872-15.344-15.344
		C180.788,243.204,211.48,243.176,211.48,263.472z"/>
	<rect x="325.004" y="304.564" style="fill:#F5EA07;" width="12.08" height="126.86"/>
</g>
<rect x="358.724" y="263.472" style="fill:#7EC359;" width="12.08" height="167.972"/>
<rect x="392.444" y="222.36" style="fill:#4D5BA5;" width="12.08" height="209.08"/>
<g>
	<rect x="291.268" y="257.284" style="fill:#FDFEFF;" width="12.08" height="174.136"/>
	<rect x="426.164" y="181.244" style="fill:#FDFEFF;" width="12.08" height="250.2"/>
	<circle style="fill:#FDFEFF;" cx="432.204" cy="177.524" r="15.344"/>
</g>
<circle style="fill:#4D5BA5;" cx="398.484" cy="222.36" r="15.344"/>
<circle style="fill:#7EC359;" cx="364.764" cy="263.472" r="15.344"/>
<circle style="fill:#F5EA07;" cx="331.044" cy="304.564" r="15.344"/>
<g>
	<circle style="fill:#FDFEFF;" cx="297.324" cy="257.284" r="15.344"/>
	<polygon style="fill:#FDFEFF;" points="447.56,460.7 43.188,460.7 43.188,69.984 57.392,69.984 57.392,446.496 447.56,446.496 	"/>
</g>
<g>
	<polygon style="fill:#F5EA07;" points="346.224,199.012 264.944,117.732 216.236,166.44 160.712,110.916 101.212,170.416 
		88.7,157.904 160.712,85.892 216.236,141.416 264.944,92.708 346.224,173.984 441.304,78.904 453.816,91.416 	"/>
	<polygon style="fill:#F5EA07;" points="468.42,62.844 404.568,75.992 456.736,126.98 	"/>
</g>
<g>
</g>
<g>
</g>
<g>
</g>
<g>
</g>
<g>
</g>
<g>
</g>
<g>
</g>
<g>
</g>
<g>
</g>
<g>
</g>
<g>
</g>
<g>
</g>
<g>
</g>
<g>
</g>
<g>
</g>
</svg>
