<?xml version="1.0" encoding="iso-8859-1"?>
<!-- Generator: Adobe Illustrator 19.0.0, SVG Export Plug-In . SVG Version: 6.00 Build 0)  -->
<svg version="1.1" id="Capa_1" xmlns="http://www.w3.org/2000/svg" xmlns:xlink="http://www.w3.org/1999/xlink" x="0px" y="0px"
	 viewBox="0 0 512.001 512.001" style="enable-background:new 0 0 512.001 512.001;" xml:space="preserve">
<path style="fill:#F1592F;" d="M511.472,239.37c9.764,154.496-117.608,281.864-272.104,272.104
	C111.96,503.422,8.576,400.038,0.528,272.626C-9.236,118.13,118.132-9.238,272.628,0.526
	C400.04,8.574,503.424,111.958,511.472,239.37z"/>
<polygon style="fill:#FDFEFF;" points="453.82,197.286 256,34.942 58.18,197.286 "/>
<g>
	<polygon style="fill:#E8E7E8;" points="128.276,172.206 256,67.386 383.724,172.206 	"/>
	<rect x="58.18" y="197.278" style="fill:#E8E7E8;" width="395.64" height="26.732"/>
	<rect x="58.18" y="418.518" style="fill:#E8E7E8;" width="395.64" height="26.732"/>
</g>
<rect x="41.508" y="445.238" style="fill:#D2D2D4;" width="429" height="26.732"/>
<rect x="104.52" y="257.598" style="fill:#E8E7E8;" width="44.12" height="127.332"/>
<g>
	<rect x="112.32" y="275.198" style="fill:#D2D2D4;" width="9.828" height="92.16"/>
	<rect x="131.004" y="275.198" style="fill:#D2D2D4;" width="9.828" height="92.16"/>
</g>
<g>
	<rect x="97.796" y="381.838" style="fill:#FDFEFF;" width="57.568" height="20.04"/>
	<rect x="97.796" y="240.678" style="fill:#FDFEFF;" width="57.568" height="20.04"/>
</g>
<g>
	<path style="fill:#D2D2D4;" d="M158.776,224.018H94.388c-14.576,0-14.592,22.068,0,22.068h64.388
		C173.352,246.086,173.368,224.018,158.776,224.018z"/>
	<path style="fill:#D2D2D4;" d="M158.776,396.45H94.388c-14.576,0-14.592,22.068,0,22.068h64.388
		C173.352,418.522,173.368,396.45,158.776,396.45z"/>
</g>
<rect x="233.92" y="257.598" style="fill:#E8E7E8;" width="44.12" height="127.332"/>
<g>
	<rect x="241.76" y="275.198" style="fill:#D2D2D4;" width="9.828" height="92.16"/>
	<rect x="260.44" y="275.198" style="fill:#D2D2D4;" width="9.828" height="92.16"/>
</g>
<g>
	<rect x="227.216" y="381.838" style="fill:#FDFEFF;" width="57.568" height="20.04"/>
	<rect x="227.216" y="240.678" style="fill:#FDFEFF;" width="57.568" height="20.04"/>
</g>
<g>
	<path style="fill:#D2D2D4;" d="M288.196,224.018h-64.388c-14.576,0-14.592,22.068,0,22.068h64.388
		C302.768,246.086,302.788,224.018,288.196,224.018z"/>
	<path style="fill:#D2D2D4;" d="M288.196,396.45h-64.388c-14.576,0-14.592,22.068,0,22.068h64.388
		C302.768,418.522,302.788,396.45,288.196,396.45z"/>
</g>
<rect x="363.36" y="257.598" style="fill:#E8E7E8;" width="44.12" height="127.332"/>
<g>
	<rect x="371.16" y="275.198" style="fill:#D2D2D4;" width="9.828" height="92.16"/>
	<rect x="389.84" y="275.198" style="fill:#D2D2D4;" width="9.828" height="92.16"/>
</g>
<g>
	<rect x="356.64" y="381.838" style="fill:#FDFEFF;" width="57.568" height="20.04"/>
	<rect x="356.64" y="240.678" style="fill:#FDFEFF;" width="57.568" height="20.04"/>
</g>
<g>
	<path style="fill:#D2D2D4;" d="M353.224,246.086h64.388c14.576,0,14.592-22.068,0-22.068h-64.388
		C338.648,224.018,338.632,246.086,353.224,246.086z"/>
	<path style="fill:#D2D2D4;" d="M417.612,396.45h-64.388c-14.572,0-14.592,22.068,0,22.068h64.388
		C432.188,418.522,432.204,396.45,417.612,396.45z"/>
</g>
<circle style="fill:#FDFEFF;" cx="256" cy="128.678" r="33.864"/>
<path style="fill:#E8BB20;" d="M253.96,142.462v-12.216c-3.808-1.088-6.604-2.736-8.38-4.94c-1.78-2.204-2.668-4.884-2.668-8.032
	c0-3.188,1.004-5.864,3.016-8.032c2.012-2.168,4.688-3.416,8.032-3.748v-2.888h4.228v2.888c3.092,0.368,5.548,1.424,7.376,3.164
	s2.992,4.068,3.5,6.984l-7.376,0.964c-0.448-2.292-1.612-3.848-3.5-4.664v11.4c4.664,1.264,7.844,2.9,9.532,4.912
	c1.692,2.012,2.536,4.592,2.536,7.74c0,3.516-1.064,6.48-3.192,8.892s-5.088,3.888-8.876,4.432v5.452h-4.228v-5.308
	c-3.364-0.408-6.092-1.66-8.192-3.76s-3.44-5.064-4.024-8.892l7.608-0.816c0.312,1.556,0.896,2.896,1.748,4.024
	C251.956,141.138,252.912,141.958,253.96,142.462z M253.96,111.85c-1.148,0.388-2.06,1.048-2.74,1.984
	c-0.68,0.932-1.02,1.964-1.02,3.092c0,1.032,0.312,1.988,0.932,2.872s1.564,1.6,2.828,2.144V111.85z M258.188,142.87
	c1.456-0.272,2.644-0.948,3.556-2.028s1.372-2.348,1.372-3.804c0-1.304-0.384-2.424-1.152-3.368s-2.028-1.668-3.776-2.172V142.87z"
	/>
<g>
</g>
<g>
</g>
<g>
</g>
<g>
</g>
<g>
</g>
<g>
</g>
<g>
</g>
<g>
</g>
<g>
</g>
<g>
</g>
<g>
</g>
<g>
</g>
<g>
</g>
<g>
</g>
<g>
</g>
</svg>
