<?xml version="1.0" encoding="iso-8859-1"?>
<!-- Generator: Adobe Illustrator 19.0.0, SVG Export Plug-In . SVG Version: 6.00 Build 0)  -->
<svg version="1.1" id="Capa_1" xmlns="http://www.w3.org/2000/svg" xmlns:xlink="http://www.w3.org/1999/xlink" x="0px" y="0px"
	 viewBox="0 0 512 512" style="enable-background:new 0 0 512 512;" xml:space="preserve">
<circle style="fill:#7EC359;" cx="256" cy="256" r="256"/>
<g>
	<path style="fill:#FDFEFF;" d="M244.82,425.356h-68.276c-55.864,0-101.312-45.452-101.312-101.312V266.82h18.42v57.224
		c0,45.708,37.184,82.892,82.892,82.892h68.276V425.356z"/>
	<polygon style="fill:#FDFEFF;" points="112.164,283.772 83.448,238.78 54.732,283.772 	"/>
	<path style="fill:#FDFEFF;" d="M388.056,213.076h-18.42v-46.168c0-45.708-37.184-82.892-82.892-82.892h-83.016v-18.42h83.012
		c55.864,0,101.312,45.452,101.312,101.312v46.168H388.056z"/>
	<polygon style="fill:#FDFEFF;" points="351.124,196.128 379.84,241.12 408.552,196.128 	"/>
</g>
<path style="fill:#F0BA7B;" d="M111.972,100.484c0,63.724-0.652,48.628,2.36,74.556l37.912,4.172l14.148-2.54
	c-8.02-45.224-7.004-27.756-4.172-82.176L111.972,100.484z"/>
<path style="fill:#DFDFDF;" d="M180.952,224.388c0-18.2,0-41.632,0-41.632l-9.924-36.748l-9.76-11.1
	c-0.844,3.224-3.268,5.66-6.356,7.768c-3.86,2.636-6.724,7.16-11.476,7.352c-1.616,1.876-4.072,2.48-6.444,2.1
	c-1.772,1.144-3.944,1.616-5.948,0.82c-4.868-1.928-11.372-5.844-14.58-11.012c-1.772-0.36-3.132-1.28-4.076-2.5l-22.896,19.172
	v65.772h91.46V224.388z"/>
<path style="fill:#D64331;" d="M119.404,224.388h29.084l-4.284-30.552c0,0,1.756-9.244-5.024-22.436l-2.596-5.036l-6.5,1.204
	l-1.104,3.832c0,0-10,21.68-8.788,31.604L119.404,224.388z"/>
<path style="fill:#F1592F;" d="M116.752,154.544c0,0,4.348-4.644,19.552-2.496l16.108,5.304c0,0-8.072,0.828-13.228,14.048
	c0,0-6.976-3.388-10.2,0C128.98,171.404,121.532,156.364,116.752,154.544z"/>
<path style="fill:#F7CFA2;" d="M106.968,73.7c0,0-5.16-7.184-5.06,1.62c0,0-0.204,6.676,0.912,8.096c0,0-1.112,13.556,5.464,8.6
	c0,0,1.924,17.3,3.944,20.436c0,0,6.78,9.916,11.128,11.432c0,0,9.408,8.6,23.068,1.72c0,0,8.7-4.248,13.052-10.32
	c0,0,6.172-10.824,5.664-19.424c0,0,4.452,2.328,6.88-4.048c0,0,0.808-10.32,2.832-13.256c0,0,0.1-7.284-6.98,0l3.844-19.832
	c0,0-11.332-18.416-11.836-19.424c-0.504-1.012-12.848-6.476-18.516-6.476c-5.664,0-19.932,0-19.932,0L111.012,47.9
	c0,0-3.54,17.704-3.644,18.416C107.272,67.02,106.968,73.7,106.968,73.7z"/>
<g>
	<path style="fill:#FFFFFF;" d="M160.636,124.42c0,0,15.724,16.852,2.756,49.036c-6.212,2.536-17.86-12.836-27.092-21.404
		C136.304,152.052,160.596,135.716,160.636,124.42z"/>
	<path style="fill:#FFFFFF;" d="M111.968,124.42c0,0-15.724,16.852-2.756,49.036c6.212,2.536,17.86-12.836,27.092-21.404
		C136.304,152.052,111.608,135.552,111.968,124.42z"/>
</g>
<path style="fill:#4D535F;" d="M234.188,224.388c0.22-22.308-7.348-44.776-7.348-44.776c1.952-15.224-5.16-16.48-5.16-16.48
	l-29.204-12.808l-12.22-5.568c-3.872-1.772-7.436-4.132-10.548-6.972c-4-3.624-3.696-5.872-6.42-9.572
	c5.052,12.972-6.464,53.988-10.476,68.888c-1.072,3.992-2.008,8.016-2.8,12.068l-2.976,15.22H234.188z"/>
<path style="fill:#656D7A;" d="M161.372,224.388c13.816-29.84,27.496-61.9,27.496-61.9l-10.492-4.464l7.48-3.98
	c-6.964-6.352-12.308-11.94-16.148-16.264c-4.7-5.28-5.852-8.764-6.336-9.44c-0.056-0.084-0.084-0.128-0.084-0.128
	c5.052,12.972-6.464,53.988-10.476,68.888c-1.072,3.992-2.008,8.016-2.8,12.068l-2.976,15.22L161.372,224.388L161.372,224.388z"/>
<path style="fill:#4D535F;" d="M116.748,224.388c-3.896-34.408-9.372-88.192-6.668-97.504c0,0,0,0-0.012,0.012
	c-0.44,0.516-16.752,16.636-61.812,27.656c0,0-6.672,2.352-9.54,18.132c-3.396,18.676-8.448,24.748-9.24,39.532
	c-0.216,4.076-0.628,8.132-1.14,12.176h88.412V224.388z"/>
<g>
	<path style="fill:#656D7A;" d="M104.384,224.388h12.364c-3.896-34.408-9.372-88.192-6.668-97.504c0,0,0,0-0.012,0.012
		c-0.216,0.44-8.672,12.752-25.68,23.784l7.832,5.044l-11.016,5.44C81.208,161.156,93.44,195.752,104.384,224.388z"/>
	<path style="fill:#656D7A;" d="M174.752,77.384c-0.34-1.62-1.66-4.224-6.864,1.168c-5.356-5.168-1.772-17.724-1.508-18.668
		c-33.488,15.272-51.892-7.504-51.892-7.504c0,13.804-4.904,24.512-4.904,24.512l-2.604-3.204c0,0-4.452-6.184-5.016-0.036
		c-3.272-14.796-1.816-30.108,9.692-39.936c0.376-0.3,0.604-0.492,0.904-0.756c10.568-8.3,21.896-7.352,31.224-7.352
		c27.716,0.756,28.848,22.364,28.848,22.364L174.752,77.384z"/>
	<polygon style="fill:#656D7A;" points="471.084,337.248 366.416,251.352 261.748,337.248 	"/>
</g>
<g>
	<polygon style="fill:#4D535F;" points="298.84,323.976 366.416,268.52 433.996,323.976 	"/>
	<rect x="261.76" y="337.24" style="fill:#4D535F;" width="209.32" height="14.144"/>
</g>
<rect x="261.76" y="454.32" style="fill:#656D7A;" width="209.32" height="14.144"/>
<g>
	<rect x="252.92" y="468.44" style="fill:#4D535F;" width="226.976" height="14.144"/>
	<rect x="286.28" y="369.16" style="fill:#4D535F;" width="23.348" height="67.372"/>
</g>
<g>
	<rect x="290.4" y="378.48" style="fill:#353944;" width="5.2" height="48.752"/>
	<rect x="300.28" y="378.48" style="fill:#353944;" width="5.2" height="48.752"/>
</g>
<g>
	<rect x="282.72" y="434.88" style="fill:#656D7A;" width="30.46" height="10.6"/>
	<rect x="282.72" y="360.2" style="fill:#656D7A;" width="30.46" height="10.6"/>
</g>
<g>
	<path style="fill:#4D535F;" d="M314.976,351.392h-34.068c-3.224,0-5.84,2.612-5.84,5.836s2.616,5.836,5.84,5.836h34.068
		c3.224,0,5.84-2.612,5.84-5.836C320.812,354.004,318.2,351.392,314.976,351.392z"/>
	<path style="fill:#4D535F;" d="M314.976,442.628h-34.068c-3.224,0-5.84,2.612-5.84,5.836s2.616,5.84,5.84,5.84h34.068
		c3.224,0,5.84-2.616,5.84-5.84C320.812,445.24,318.2,442.628,314.976,442.628z"/>
	<rect x="354.76" y="369.16" style="fill:#4D535F;" width="23.348" height="67.372"/>
</g>
<g>
	<rect x="358.88" y="378.48" style="fill:#353944;" width="5.2" height="48.752"/>
	<rect x="368.76" y="378.48" style="fill:#353944;" width="5.2" height="48.752"/>
</g>
<g>
	<rect x="351.2" y="434.88" style="fill:#656D7A;" width="30.46" height="10.6"/>
	<rect x="351.2" y="360.2" style="fill:#656D7A;" width="30.46" height="10.6"/>
</g>
<g>
	<path style="fill:#4D535F;" d="M383.452,351.392h-34.068c-3.224,0-5.84,2.612-5.84,5.836s2.616,5.836,5.84,5.836h34.068
		c3.224,0,5.84-2.612,5.84-5.836C389.288,354.004,386.676,351.392,383.452,351.392z"/>
	<path style="fill:#4D535F;" d="M383.452,442.628h-34.068c-3.224,0-5.84,2.612-5.84,5.836s2.616,5.84,5.84,5.84h34.068
		c3.224,0,5.84-2.616,5.84-5.84C389.288,445.24,386.676,442.628,383.452,442.628z"/>
	<rect x="423.2" y="369.16" style="fill:#4D535F;" width="23.348" height="67.372"/>
</g>
<g>
	<rect x="427.36" y="378.48" style="fill:#353944;" width="5.2" height="48.752"/>
	<rect x="437.24" y="378.48" style="fill:#353944;" width="5.2" height="48.752"/>
</g>
<g>
	<rect x="419.68" y="434.88" style="fill:#656D7A;" width="30.46" height="10.6"/>
	<rect x="419.68" y="360.2" style="fill:#656D7A;" width="30.46" height="10.6"/>
</g>
<g>
	<path style="fill:#4D535F;" d="M417.856,363.068h34.068c3.224,0,5.84-2.612,5.84-5.836s-2.616-5.836-5.84-5.836h-34.068
		c-3.224,0-5.84,2.612-5.84,5.836C412.02,360.452,414.632,363.068,417.856,363.068z"/>
	<path style="fill:#4D535F;" d="M451.924,442.628h-34.068c-3.224,0-5.84,2.612-5.84,5.836s2.612,5.84,5.84,5.84h34.068
		c3.224,0,5.84-2.616,5.84-5.84S455.148,442.628,451.924,442.628z"/>
</g>
<circle style="fill:#656D7A;" cx="366.4" cy="300.96" r="15.404"/>
<g>
</g>
<g>
</g>
<g>
</g>
<g>
</g>
<g>
</g>
<g>
</g>
<g>
</g>
<g>
</g>
<g>
</g>
<g>
</g>
<g>
</g>
<g>
</g>
<g>
</g>
<g>
</g>
<g>
</g>
</svg>
