<?xml version="1.0" encoding="iso-8859-1"?>
<!-- Generator: Adobe Illustrator 19.0.0, SVG Export Plug-In . SVG Version: 6.00 Build 0)  -->
<svg version="1.1" id="Capa_1" xmlns="http://www.w3.org/2000/svg" xmlns:xlink="http://www.w3.org/1999/xlink" x="0px" y="0px"
	 viewBox="0 0 511.608 511.608" style="enable-background:new 0 0 511.608 511.608;" xml:space="preserve">
<circle style="fill:#7EC359;" cx="255.804" cy="255.804" r="255.804"/>
<g>
	<polygon style="fill:#353944;" points="177.232,443.908 127.22,443.908 127.22,475.604 157.232,475.604 	"/>
	<polygon style="fill:#353944;" points="408.272,443.908 358.26,443.908 378.26,475.604 408.272,475.604 	"/>
</g>
<rect x="67.7" y="36.004" style="fill:#4D535F;" width="400.08" height="411.96"/>
<rect x="104.484" y="75.248" style="fill:#353944;" width="322.32" height="333.48"/>
<rect x="43.804" y="75.248" style="fill:#656D7A;" width="47.768" height="333.48"/>
<g>
	<circle style="fill:#D2D2D4;" cx="67.7" cy="135.14" r="14.688"/>
	<circle style="fill:#D2D2D4;" cx="67.7" cy="206.372" r="14.688"/>
	<circle style="fill:#D2D2D4;" cx="67.7" cy="277.604" r="14.688"/>
	<circle style="fill:#D2D2D4;" cx="67.7" cy="348.844" r="14.688"/>
</g>
<rect x="195.964" y="240.524" style="fill:#70B1E1;" width="205.24" height="42.048"/>
<rect x="279.884" y="240.524" style="fill:#FDFEFF;" width="37.356" height="42.048"/>
<rect x="173.364" y="282.564" style="fill:#5F87C4;" width="205.24" height="42.048"/>
<rect x="257.284" y="282.564" style="fill:#FDFEFF;" width="37.356" height="42.048"/>
<rect x="195.964" y="156.444" style="fill:#70B1E1;" width="205.24" height="42.048"/>
<rect x="279.884" y="156.444" style="fill:#FDFEFF;" width="37.356" height="42.048"/>
<rect x="173.364" y="198.48" style="fill:#5F87C4;" width="205.24" height="42.048"/>
<rect x="257.284" y="198.48" style="fill:#FDFEFF;" width="37.356" height="42.048"/>
<rect x="220.884" y="324.644" style="fill:#70B1E1;" width="205.24" height="42.048"/>
<rect x="304.804" y="324.644" style="fill:#FDFEFF;" width="37.356" height="42.048"/>
<rect x="211.176" y="366.684" style="fill:#5F87C4;" width="205.24" height="42.048"/>
<rect x="295.116" y="366.684" style="fill:#FDFEFF;" width="37.356" height="42.048"/>
<rect x="122.716" y="384.564" style="fill:#F5EB07;" width="97.04" height="24.16"/>
<g>
	<rect x="213.484" y="389.084" style="fill:#E8BB20;" width="3.104" height="15.156"/>
	<rect x="205.524" y="389.084" style="fill:#E8BB20;" width="3.104" height="15.156"/>
	<rect x="197.564" y="389.084" style="fill:#E8BB20;" width="3.104" height="15.156"/>
	<rect x="189.604" y="389.084" style="fill:#E8BB20;" width="3.104" height="15.156"/>
	<rect x="181.644" y="389.084" style="fill:#E8BB20;" width="3.104" height="15.156"/>
	<rect x="173.684" y="389.084" style="fill:#E8BB20;" width="3.104" height="15.156"/>
	<rect x="165.708" y="389.084" style="fill:#E8BB20;" width="3.104" height="15.156"/>
	<rect x="157.744" y="389.084" style="fill:#E8BB20;" width="3.104" height="15.156"/>
	<rect x="149.784" y="389.084" style="fill:#E8BB20;" width="3.104" height="15.156"/>
	<rect x="141.82" y="389.084" style="fill:#E8BB20;" width="3.104" height="15.156"/>
	<rect x="133.856" y="389.084" style="fill:#E8BB20;" width="3.104" height="15.156"/>
	<rect x="125.896" y="389.084" style="fill:#E8BB20;" width="3.104" height="15.156"/>
</g>
<rect x="112.324" y="358.004" style="fill:#F5EB07;" width="97.04" height="24.16"/>
<g>
	<rect x="203.088" y="362.484" style="fill:#E8BB20;" width="3.104" height="15.156"/>
	<rect x="195.128" y="362.484" style="fill:#E8BB20;" width="3.104" height="15.156"/>
	<rect x="187.164" y="362.484" style="fill:#E8BB20;" width="3.104" height="15.156"/>
	<rect x="179.204" y="362.484" style="fill:#E8BB20;" width="3.104" height="15.156"/>
	<rect x="171.24" y="362.484" style="fill:#E8BB20;" width="3.104" height="15.156"/>
	<rect x="163.28" y="362.484" style="fill:#E8BB20;" width="3.104" height="15.156"/>
	<rect x="155.316" y="362.484" style="fill:#E8BB20;" width="3.104" height="15.156"/>
	<rect x="147.356" y="362.484" style="fill:#E8BB20;" width="3.104" height="15.156"/>
	<rect x="139.392" y="362.484" style="fill:#E8BB20;" width="3.104" height="15.156"/>
	<rect x="131.432" y="362.484" style="fill:#E8BB20;" width="3.104" height="15.156"/>
	<rect x="123.468" y="362.484" style="fill:#E8BB20;" width="3.104" height="15.156"/>
	<rect x="115.508" y="362.484" style="fill:#E8BB20;" width="3.104" height="15.156"/>
</g>
<rect x="122.716" y="331.404" style="fill:#F5EB07;" width="97.04" height="24.16"/>
<g>
	<rect x="213.484" y="335.884" style="fill:#E8BB20;" width="3.104" height="15.156"/>
	<rect x="205.524" y="335.884" style="fill:#E8BB20;" width="3.104" height="15.156"/>
	<rect x="197.564" y="335.884" style="fill:#E8BB20;" width="3.104" height="15.156"/>
	<rect x="189.604" y="335.884" style="fill:#E8BB20;" width="3.104" height="15.156"/>
	<rect x="181.644" y="335.884" style="fill:#E8BB20;" width="3.104" height="15.156"/>
	<rect x="173.684" y="335.884" style="fill:#E8BB20;" width="3.104" height="15.156"/>
	<rect x="165.708" y="335.884" style="fill:#E8BB20;" width="3.104" height="15.156"/>
	<rect x="157.744" y="335.884" style="fill:#E8BB20;" width="3.104" height="15.156"/>
	<rect x="149.784" y="335.884" style="fill:#E8BB20;" width="3.104" height="15.156"/>
	<rect x="141.82" y="335.884" style="fill:#E8BB20;" width="3.104" height="15.156"/>
	<rect x="133.856" y="335.884" style="fill:#E8BB20;" width="3.104" height="15.156"/>
	<rect x="125.896" y="335.884" style="fill:#E8BB20;" width="3.104" height="15.156"/>
</g>
<rect x="134.66" y="304.804" style="fill:#F5EB07;" width="97.04" height="24.16"/>
<g>
	<rect x="225.444" y="309.284" style="fill:#E8BB20;" width="3.104" height="15.156"/>
	<rect x="217.444" y="309.284" style="fill:#E8BB20;" width="3.104" height="15.156"/>
	<rect x="209.484" y="309.284" style="fill:#E8BB20;" width="3.104" height="15.156"/>
	<rect x="201.524" y="309.284" style="fill:#E8BB20;" width="3.104" height="15.156"/>
	<rect x="193.564" y="309.284" style="fill:#E8BB20;" width="3.104" height="15.156"/>
	<rect x="185.604" y="309.284" style="fill:#E8BB20;" width="3.104" height="15.156"/>
	<rect x="177.644" y="309.284" style="fill:#E8BB20;" width="3.104" height="15.156"/>
	<rect x="169.688" y="309.284" style="fill:#E8BB20;" width="3.104" height="15.156"/>
	<rect x="161.724" y="309.284" style="fill:#E8BB20;" width="3.104" height="15.156"/>
	<rect x="153.764" y="309.284" style="fill:#E8BB20;" width="3.104" height="15.156"/>
	<rect x="145.8" y="309.284" style="fill:#E8BB20;" width="3.104" height="15.156"/>
	<rect x="137.84" y="309.284" style="fill:#E8BB20;" width="3.104" height="15.156"/>
</g>
<rect x="122.716" y="278.204" style="fill:#F5EB07;" width="97.04" height="24.16"/>
<g>
	<rect x="213.484" y="282.684" style="fill:#E8BB20;" width="3.104" height="15.156"/>
	<rect x="205.524" y="282.684" style="fill:#E8BB20;" width="3.104" height="15.156"/>
	<rect x="197.564" y="282.684" style="fill:#E8BB20;" width="3.104" height="15.156"/>
	<rect x="189.604" y="282.684" style="fill:#E8BB20;" width="3.104" height="15.156"/>
	<rect x="181.644" y="282.684" style="fill:#E8BB20;" width="3.104" height="15.156"/>
	<rect x="173.684" y="282.684" style="fill:#E8BB20;" width="3.104" height="15.156"/>
	<rect x="165.708" y="282.684" style="fill:#E8BB20;" width="3.104" height="15.156"/>
	<rect x="157.744" y="282.684" style="fill:#E8BB20;" width="3.104" height="15.156"/>
	<rect x="149.784" y="282.684" style="fill:#E8BB20;" width="3.104" height="15.156"/>
	<rect x="141.82" y="282.684" style="fill:#E8BB20;" width="3.104" height="15.156"/>
	<rect x="133.856" y="282.684" style="fill:#E8BB20;" width="3.104" height="15.156"/>
	<rect x="125.896" y="282.684" style="fill:#E8BB20;" width="3.104" height="15.156"/>
</g>
<rect x="128.244" y="251.596" style="fill:#F5EB07;" width="97.04" height="24.16"/>
<g>
	<rect x="219.012" y="256.084" style="fill:#E8BB20;" width="3.104" height="15.156"/>
	<rect x="211.052" y="256.084" style="fill:#E8BB20;" width="3.104" height="15.156"/>
	<rect x="203.088" y="256.084" style="fill:#E8BB20;" width="3.104" height="15.156"/>
	<rect x="195.128" y="256.084" style="fill:#E8BB20;" width="3.104" height="15.156"/>
	<rect x="187.164" y="256.084" style="fill:#E8BB20;" width="3.104" height="15.156"/>
	<rect x="179.2" y="256.084" style="fill:#E8BB20;" width="3.104" height="15.156"/>
	<rect x="171.24" y="256.084" style="fill:#E8BB20;" width="3.104" height="15.156"/>
	<rect x="163.28" y="256.084" style="fill:#E8BB20;" width="3.104" height="15.156"/>
	<rect x="155.316" y="256.084" style="fill:#E8BB20;" width="3.104" height="15.156"/>
	<rect x="147.352" y="256.084" style="fill:#E8BB20;" width="3.104" height="15.156"/>
	<rect x="139.392" y="256.084" style="fill:#E8BB20;" width="3.104" height="15.156"/>
	<rect x="131.432" y="256.084" style="fill:#E8BB20;" width="3.104" height="15.156"/>
</g>
<rect x="122.716" y="225.004" style="fill:#F5EB07;" width="97.04" height="24.16"/>
<g>
	<rect x="213.484" y="229.484" style="fill:#E8BB20;" width="3.104" height="15.156"/>
	<rect x="205.524" y="229.484" style="fill:#E8BB20;" width="3.104" height="15.156"/>
	<rect x="197.564" y="229.484" style="fill:#E8BB20;" width="3.104" height="15.156"/>
	<rect x="189.604" y="229.484" style="fill:#E8BB20;" width="3.104" height="15.156"/>
	<rect x="181.644" y="229.484" style="fill:#E8BB20;" width="3.104" height="15.156"/>
	<rect x="173.684" y="229.484" style="fill:#E8BB20;" width="3.104" height="15.156"/>
	<rect x="165.708" y="229.484" style="fill:#E8BB20;" width="3.104" height="15.156"/>
	<rect x="157.744" y="229.484" style="fill:#E8BB20;" width="3.104" height="15.156"/>
	<rect x="149.784" y="229.484" style="fill:#E8BB20;" width="3.104" height="15.156"/>
	<rect x="141.82" y="229.484" style="fill:#E8BB20;" width="3.104" height="15.156"/>
	<rect x="133.856" y="229.484" style="fill:#E8BB20;" width="3.104" height="15.156"/>
	<rect x="125.896" y="229.484" style="fill:#E8BB20;" width="3.104" height="15.156"/>
</g>
<rect x="242.084" y="384.564" style="fill:#F5EB07;" width="97.04" height="24.16"/>
<g>
	<rect x="332.884" y="389.084" style="fill:#E8BB20;" width="3.104" height="15.156"/>
	<rect x="324.884" y="389.084" style="fill:#E8BB20;" width="3.104" height="15.156"/>
	<rect x="316.924" y="389.084" style="fill:#E8BB20;" width="3.104" height="15.156"/>
	<rect x="308.964" y="389.084" style="fill:#E8BB20;" width="3.104" height="15.156"/>
	<rect x="301.004" y="389.084" style="fill:#E8BB20;" width="3.104" height="15.156"/>
	<rect x="293.044" y="389.084" style="fill:#E8BB20;" width="3.104" height="15.156"/>
	<rect x="285.084" y="389.084" style="fill:#E8BB20;" width="3.104" height="15.156"/>
	<rect x="277.124" y="389.084" style="fill:#E8BB20;" width="3.104" height="15.156"/>
	<rect x="269.164" y="389.084" style="fill:#E8BB20;" width="3.104" height="15.156"/>
	<rect x="261.204" y="389.084" style="fill:#E8BB20;" width="3.104" height="15.156"/>
	<rect x="253.244" y="389.084" style="fill:#E8BB20;" width="3.104" height="15.156"/>
	<rect x="245.284" y="389.084" style="fill:#E8BB20;" width="3.104" height="15.156"/>
</g>
<rect x="231.708" y="358.004" style="fill:#F5EB07;" width="97.04" height="24.16"/>
<g>
	<rect x="322.484" y="362.484" style="fill:#E8BB20;" width="3.104" height="15.156"/>
	<rect x="314.524" y="362.484" style="fill:#E8BB20;" width="3.104" height="15.156"/>
	<rect x="306.564" y="362.484" style="fill:#E8BB20;" width="3.104" height="15.156"/>
	<rect x="298.604" y="362.484" style="fill:#E8BB20;" width="3.104" height="15.156"/>
	<rect x="290.604" y="362.484" style="fill:#E8BB20;" width="3.104" height="15.156"/>
	<rect x="282.644" y="362.484" style="fill:#E8BB20;" width="3.104" height="15.156"/>
	<rect x="274.684" y="362.484" style="fill:#E8BB20;" width="3.104" height="15.156"/>
	<rect x="266.736" y="362.484" style="fill:#E8BB20;" width="3.104" height="15.156"/>
	<rect x="258.776" y="362.484" style="fill:#E8BB20;" width="3.104" height="15.156"/>
	<rect x="250.812" y="362.484" style="fill:#E8BB20;" width="3.104" height="15.156"/>
	<rect x="242.852" y="362.484" style="fill:#E8BB20;" width="3.104" height="15.156"/>
	<rect x="234.888" y="362.484" style="fill:#E8BB20;" width="3.104" height="15.156"/>
</g>
<rect x="242.084" y="331.404" style="fill:#F5EB07;" width="97.04" height="24.16"/>
<g>
	<rect x="332.884" y="335.884" style="fill:#E8BB20;" width="3.104" height="15.156"/>
	<rect x="324.884" y="335.884" style="fill:#E8BB20;" width="3.104" height="15.156"/>
	<rect x="316.924" y="335.884" style="fill:#E8BB20;" width="3.104" height="15.156"/>
	<rect x="308.964" y="335.884" style="fill:#E8BB20;" width="3.104" height="15.156"/>
	<rect x="301.004" y="335.884" style="fill:#E8BB20;" width="3.104" height="15.156"/>
	<rect x="293.044" y="335.884" style="fill:#E8BB20;" width="3.104" height="15.156"/>
	<rect x="285.084" y="335.884" style="fill:#E8BB20;" width="3.104" height="15.156"/>
	<rect x="277.124" y="335.884" style="fill:#E8BB20;" width="3.104" height="15.156"/>
	<rect x="269.164" y="335.884" style="fill:#E8BB20;" width="3.104" height="15.156"/>
	<rect x="261.204" y="335.884" style="fill:#E8BB20;" width="3.104" height="15.156"/>
	<rect x="253.244" y="335.884" style="fill:#E8BB20;" width="3.104" height="15.156"/>
	<rect x="245.284" y="335.884" style="fill:#E8BB20;" width="3.104" height="15.156"/>
</g>
<rect x="254.044" y="304.804" style="fill:#F5EB07;" width="97.04" height="24.16"/>
<g>
	<rect x="344.804" y="309.284" style="fill:#E8BB20;" width="3.104" height="15.156"/>
	<rect x="336.844" y="309.284" style="fill:#E8BB20;" width="3.104" height="15.156"/>
	<rect x="328.884" y="309.284" style="fill:#E8BB20;" width="3.104" height="15.156"/>
	<rect x="320.924" y="309.284" style="fill:#E8BB20;" width="3.104" height="15.156"/>
	<rect x="312.964" y="309.284" style="fill:#E8BB20;" width="3.104" height="15.156"/>
	<rect x="305.004" y="309.284" style="fill:#E8BB20;" width="3.104" height="15.156"/>
	<rect x="297.044" y="309.284" style="fill:#E8BB20;" width="3.104" height="15.156"/>
	<rect x="289.084" y="309.284" style="fill:#E8BB20;" width="3.104" height="15.156"/>
	<rect x="281.124" y="309.284" style="fill:#E8BB20;" width="3.104" height="15.156"/>
	<rect x="273.164" y="309.284" style="fill:#E8BB20;" width="3.104" height="15.156"/>
	<rect x="265.164" y="309.284" style="fill:#E8BB20;" width="3.104" height="15.156"/>
	<rect x="257.244" y="309.284" style="fill:#E8BB20;" width="3.104" height="15.156"/>
	<path style="fill:#E8BB20;" d="M263,327.144c-16.716-13.704-41.324-13.704-58.04,0c-22.592,18.52-22.592,52.788,0,71.308
		c16.716,13.704,41.324,13.704,58.04,0C285.588,379.932,285.588,345.664,263,327.144z"/>
</g>
<g>
	<path style="fill:#F5EA07;" d="M233.976,401.472c21.364,0.004,38.68-17.312,38.676-38.676c0-21.36-17.316-38.676-38.676-38.676
		S195.3,341.436,195.3,362.796S212.616,401.472,233.976,401.472z M199.372,362.796c-0.004-19.112,15.492-34.608,34.604-34.604
		c19.116,0,34.608,15.492,34.608,34.608c0,19.108-15.496,34.604-34.604,34.604C214.864,397.404,199.372,381.912,199.372,362.796z"/>
	<path style="fill:#F5EA07;" d="M232.62,384.988v-3.908c-4.892-0.5-9.28-2.444-13.168-5.836l3.908-4.656
		c2.996,2.604,6.084,4.16,9.26,4.656v-10.388c-4.032-0.964-6.988-2.232-8.86-3.8s-2.812-3.9-2.812-6.988s1.08-5.612,3.24-7.576
		s4.972-3.032,8.432-3.212v-2.676h3.428v2.732c3.924,0.288,7.636,1.624,11.136,4.016l-3.48,4.924
		c-2.356-1.676-4.908-2.712-7.656-3.104v10.064h0.16c4.104,0.964,7.12,2.268,9.048,3.908c1.928,1.64,2.892,4.024,2.892,7.148
		s-1.108,5.668-3.32,7.628c-2.212,1.964-5.14,3.036-8.78,3.212v3.856H232.62z M228.844,350.428c-0.912,0.804-1.364,1.804-1.364,3
		c0,1.196,0.356,2.14,1.072,2.836c0.716,0.696,2.072,1.364,4.068,2.008v-9.264C231.012,349.156,229.756,349.628,228.844,350.428z
		 M240.112,373.908c1-0.82,1.5-1.856,1.5-3.104s-0.392-2.24-1.18-2.972c-0.784-0.732-2.248-1.42-4.388-2.06v9.632
		C237.76,375.228,239.116,374.728,240.112,373.908z"/>
</g>
<g>
</g>
<g>
</g>
<g>
</g>
<g>
</g>
<g>
</g>
<g>
</g>
<g>
</g>
<g>
</g>
<g>
</g>
<g>
</g>
<g>
</g>
<g>
</g>
<g>
</g>
<g>
</g>
<g>
</g>
</svg>
