<?xml version="1.0" encoding="iso-8859-1"?>
<!-- Generator: Adobe Illustrator 19.0.0, SVG Export Plug-In . SVG Version: 6.00 Build 0)  -->
<svg version="1.1" id="Capa_1" xmlns="http://www.w3.org/2000/svg" xmlns:xlink="http://www.w3.org/1999/xlink" x="0px" y="0px"
	 viewBox="0 0 512 512" style="enable-background:new 0 0 512 512;" xml:space="preserve">
<circle style="fill:#70B1E1;" cx="256" cy="256" r="256"/>
<path style="fill:#F1592F;" d="M327.136,48.38c-24.12-15.688-48.24,15.688-72.36,0c0,17.432,0,34.864,0,52.292
	c24.12,15.688,48.24-15.688,72.36,0C327.136,83.244,327.136,65.812,327.136,48.38z"/>
<rect x="248.6" y="48.4" style="fill:#F5EA07;" width="14.8" height="104.6"/>
<rect x="80.8" y="269.04" style="fill:#FDFEFF;" width="350.36" height="163.648"/>
<polygon style="fill:#F1592F;" points="417.612,235.152 94.388,235.152 55.508,284.428 456.492,284.428 "/>
<polygon style="fill:#FDFEFF;" points="328.104,306.128 183.896,306.128 183.896,199.38 255.096,148.296 328.104,199.38 "/>
<polygon style="fill:#F1592F;" points="336.692,216.256 254.988,159.088 175.396,216.196 165.128,201.884 254.86,137.504 
	346.788,201.824 "/>
<rect x="224.44" y="346.4" style="fill:#F5EA07;" width="63.112" height="86.312"/>
<path style="fill:#656D7A;" d="M221.044,343v89.7h6.848v-82.852h56.216V432.7h6.848V343H221.044z"/>
<path style="fill:#D2D2D4;" d="M290.34,237.896v46.56h-68.68v-46.56c0-0.204,0-0.48,0.068-0.684c0-2.328,0.276-4.656,0.752-6.848
	c3.424-15.336,17.188-26.772,33.484-26.772c16.364,0,30.128,11.436,33.552,26.772c0.48,2.192,0.752,4.52,0.752,6.848
	C290.34,237.42,290.34,237.692,290.34,237.896z"/>
<circle style="fill:#656D7A;" cx="272.56" cy="393.32" r="5.164"/>
<g>
	<rect x="108.44" y="312.6" style="fill:#D2D2D4;" width="68.924" height="80.16"/>
	<rect x="334.64" y="312.6" style="fill:#D2D2D4;" width="68.924" height="80.16"/>
</g>
<g>
	<path style="fill:#656D7A;" d="M180.932,396.312H104.9v-87.256h76.032V396.312z M112.008,389.204h61.82V316.16h-61.82V389.204z"/>
	<path style="fill:#656D7A;" d="M407.1,396.312h-76.032v-87.256h76.028v87.256H407.1z M338.176,389.204h61.816V316.16h-61.816
		V389.204z"/>
	<rect x="252.56" y="203.588" style="fill:#656D7A;" width="6.848" height="80.84"/>
	<path style="fill:#656D7A;" d="M290.272,237.212h-68.544c0-2.328,0.276-4.656,0.752-6.848h67.036
		C289.996,232.556,290.272,234.884,290.272,237.212z"/>
	<rect x="334.64" y="349.12" style="fill:#656D7A;" width="68.924" height="7.108"/>
	<rect x="365.52" y="312.6" style="fill:#656D7A;" width="7.108" height="80.16"/>
	<rect x="108.44" y="349.12" style="fill:#656D7A;" width="68.924" height="7.108"/>
	<rect x="139.36" y="312.6" style="fill:#656D7A;" width="7.108" height="80.16"/>
</g>
<g>
	<rect x="327.684" y="386.4" style="fill:#F1592F;" width="82.8" height="12.256"/>
	<rect x="100.96" y="386.4" style="fill:#F1592F;" width="83.94" height="12.256"/>
</g>
<path style="fill:#656D7A;" d="M293.892,288.012h-75.784l0.068-51.036c0.016-2.436,0.3-4.912,0.836-7.368
	c3.824-17.14,19.368-29.568,36.956-29.568c17.628,0,33.2,12.432,37.016,29.552c0.512,2.344,0.796,4.7,0.832,7.02l0.008,0.012
	l0.068,1.272L293.892,288.012L293.892,288.012z M225.204,280.904h61.584v-43.008c-0.068-2.684-0.296-4.736-0.74-6.772
	c-3.1-13.888-15.752-23.98-30.08-23.98c-14.288,0-26.912,10.092-30.016,23.992c-0.44,2.02-0.668,4.072-0.668,6.072L225.204,280.904z
	"/>
<rect x="213.76" y="276.6" style="fill:#F1592F;" width="84.44" height="12.256"/>
<rect x="69.936" y="432.72" style="fill:#E8E7E8;" width="372.12" height="16.448"/>
<rect x="59.22" y="449.16" style="fill:#D2D2D4;" width="393.56" height="16.448"/>
<rect x="201.72" y="299.98" style="fill:#F1592F;" width="108.52" height="33.824"/>
<g>
	<path style="fill:#FDFEFF;" d="M207.048,304.436h9.956c1.972,0,3.44,0.084,4.408,0.248c0.968,0.164,1.836,0.508,2.6,1.028
		s1.4,1.216,1.912,2.08c0.508,0.868,0.764,1.836,0.764,2.912c0,1.168-0.316,2.236-0.944,3.212s-1.48,1.704-2.556,2.192
		c1.516,0.44,2.684,1.196,3.5,2.26s1.224,2.316,1.224,3.756c0,1.132-0.264,2.236-0.792,3.304c-0.528,1.072-1.244,1.924-2.156,2.564
		c-0.912,0.64-2.036,1.032-3.372,1.18c-0.84,0.092-2.86,0.148-6.064,0.168h-8.48L207.048,304.436L207.048,304.436z M212.08,308.584
		v5.76h3.296c1.96,0,3.176-0.028,3.652-0.084c0.86-0.1,1.536-0.4,2.032-0.892s0.74-1.14,0.74-1.944c0-0.772-0.212-1.396-0.636-1.876
		s-1.056-0.772-1.896-0.876c-0.5-0.056-1.932-0.084-4.3-0.084h-2.888V308.584z M212.08,318.488v6.66h4.656
		c1.812,0,2.964-0.052,3.448-0.152c0.748-0.136,1.356-0.468,1.828-0.992c0.472-0.528,0.704-1.232,0.704-2.116
		c0-0.748-0.18-1.38-0.544-1.904c-0.364-0.52-0.888-0.9-1.572-1.14c-0.684-0.236-2.172-0.356-4.46-0.356H212.08z"/>
	<path style="fill:#FDFEFF;" d="M254.624,329.344h-5.472l-2.176-5.656h-9.956l-2.056,5.656h-5.336l9.7-24.908h5.32L254.624,329.344z
		 M245.364,319.492l-3.432-9.244l-3.364,9.244H245.364z"/>
	<path style="fill:#FDFEFF;" d="M257.344,329.344v-24.908h4.892l10.196,16.636v-16.636h4.672v24.908h-5.048l-10.04-16.244v16.244
		H257.344z"/>
	<path style="fill:#FDFEFF;" d="M282.488,329.344v-24.908h5.028v11.06l10.16-11.06h6.764l-9.38,9.7l9.888,15.208h-6.508
		l-6.848-11.688l-4.076,4.164v7.528h-5.028V329.344z"/>
</g>
<g>
</g>
<g>
</g>
<g>
</g>
<g>
</g>
<g>
</g>
<g>
</g>
<g>
</g>
<g>
</g>
<g>
</g>
<g>
</g>
<g>
</g>
<g>
</g>
<g>
</g>
<g>
</g>
<g>
</g>
</svg>
