<?xml version="1.0" encoding="iso-8859-1"?>
<!-- Generator: Adobe Illustrator 19.0.0, SVG Export Plug-In . SVG Version: 6.00 Build 0)  -->
<svg version="1.1" id="Capa_1" xmlns="http://www.w3.org/2000/svg" xmlns:xlink="http://www.w3.org/1999/xlink" x="0px" y="0px"
	 viewBox="0 0 511.992 511.992" style="enable-background:new 0 0 511.992 511.992;" xml:space="preserve">
<circle style="fill:#F5EA07;" cx="255.996" cy="255.996" r="255.996"/>
<g>
	<path style="fill:#F1592F;" d="M81.392,183.512l-13.9-5.78c2.912-7.008,6.256-13.928,9.94-20.568l13.168,7.308
		C87.184,170.616,84.088,177.024,81.392,183.512z"/>
	<path style="fill:#F1592F;" d="M101.872,146.576l-12.268-8.724c4.4-6.188,9.192-12.184,14.248-17.836l11.224,10.036
		C110.388,135.284,105.948,140.844,101.872,146.576z"/>
	<path style="fill:#F1592F;" d="M130.032,115.088l-10.04-11.216c5.656-5.06,11.656-9.856,17.836-14.252l8.724,12.268
		C140.828,105.956,135.268,110.4,130.032,115.088z"/>
	<path style="fill:#F1592F;" d="M164.432,90.616l-7.308-13.168c6.64-3.684,13.552-7.028,20.548-9.936l5.78,13.9
		C176.98,84.104,170.58,87.2,164.432,90.616z"/>
	<path style="fill:#F1592F;" d="M203.396,74.408l-4.184-14.46c7.268-2.104,14.752-3.82,22.256-5.1l2.536,14.844
		C217.06,70.876,210.124,72.464,203.396,74.408z"/>
	<path style="fill:#F1592F;" d="M245.136,67.304l-0.86-15.032c3.876-0.22,7.784-0.328,11.716-0.328V67
		C252.348,67,248.728,67.096,245.136,67.304z"/>
	<path style="fill:#F1592F;" d="M290.52,457.148l-2.536-14.844c6.948-1.188,13.884-2.776,20.608-4.72l4.184,14.46
		C305.508,454.148,298.02,455.864,290.52,457.148z"/>
	<path style="fill:#F1592F;" d="M334.316,444.476l-5.78-13.9c6.468-2.692,12.868-5.784,19.016-9.2l7.308,13.168
		C348.22,438.224,341.308,441.572,334.316,444.476z"/>
	<path style="fill:#F1592F;" d="M374.164,422.376l-8.724-12.268c5.724-4.068,11.28-8.512,16.52-13.2L392,408.124
		C386.344,413.188,380.344,417.98,374.164,422.376z"/>
	<path style="fill:#F1592F;" d="M408.14,391.984l-11.224-10.036c4.688-5.236,9.128-10.8,13.204-16.528l12.268,8.724
		C417.988,380.332,413.192,386.328,408.14,391.984z"/>
	<path style="fill:#F1592F;" d="M434.564,354.832l-13.168-7.308c3.412-6.144,6.504-12.552,9.204-19.04l13.9,5.78
		C441.592,341.272,438.248,348.192,434.564,354.832z"/>
	<path style="fill:#F1592F;" d="M255.996,460.056V445c3.648,0,7.272-0.108,10.86-0.312l0.86,15.032
		C263.84,459.94,259.928,460.056,255.996,460.056z"/>
</g>
<path style="fill:#FDFEFF;" d="M43.936,255.996L43.936,255.996c117.116,150.728,307,150.728,424.116,0l0,0
	C350.94,105.268,161.056,105.268,43.936,255.996z"/>
<circle style="fill:#70B1E1;" cx="255.996" cy="255.996" r="102.028"/>
<path style="fill:#FDFEFF;" d="M247.64,300.172v-35.924c-11.204-3.2-19.42-8.044-24.648-14.532
	c-5.228-6.488-7.844-14.36-7.844-23.62c0-9.372,2.956-17.248,8.872-23.62s13.788-10.044,23.62-11.016v-8.488h12.432v8.488
	c9.088,1.084,16.32,4.188,21.692,9.304c5.372,5.116,8.804,11.96,10.288,20.532l-21.692,2.828
	c-1.316-6.744-4.744-11.316-10.288-13.716v33.524c13.716,3.716,23.064,8.532,28.036,14.448c4.972,5.916,7.46,13.504,7.46,22.764
	c0,10.344-3.128,19.064-9.388,26.148c-6.26,7.088-14.96,11.432-26.108,13.032v16.032H247.64v-15.604
	c-9.888-1.2-17.92-4.888-24.092-11.06s-10.116-14.888-11.832-26.148l22.376-2.4c0.916,4.572,2.628,8.516,5.144,11.832
	C241.752,296.288,244.556,298.688,247.64,300.172z M247.64,210.152c-3.372,1.144-6.06,3.088-8.06,5.832s-3,5.772-3,9.088
	c0,3.028,0.916,5.844,2.744,8.444s4.6,4.7,8.316,6.3V210.152z M260.072,301.376c4.288-0.8,7.772-2.788,10.46-5.96
	s4.028-6.9,4.028-11.188c0-3.828-1.128-7.132-3.388-9.904c-2.256-2.772-5.96-4.9-11.104-6.388v33.44H260.072z"/>
<g>
	<polyline style="fill:#F1592F;" points="271.632,416.548 235.652,452.524 271.632,488.5 	"/>
	<polyline style="fill:#F1592F;" points="235.652,23.492 271.632,59.468 235.652,95.444 	"/>
</g>
<g>
</g>
<g>
</g>
<g>
</g>
<g>
</g>
<g>
</g>
<g>
</g>
<g>
</g>
<g>
</g>
<g>
</g>
<g>
</g>
<g>
</g>
<g>
</g>
<g>
</g>
<g>
</g>
<g>
</g>
</svg>
