<?xml version="1.0" encoding="iso-8859-1"?>
<!-- Generator: Adobe Illustrator 19.0.0, SVG Export Plug-In . SVG Version: 6.00 Build 0)  -->
<svg version="1.1" id="Capa_1" xmlns="http://www.w3.org/2000/svg" xmlns:xlink="http://www.w3.org/1999/xlink" x="0px" y="0px"
	 viewBox="0 0 512 512" style="enable-background:new 0 0 512 512;" xml:space="preserve">
<circle style="fill:#F1592F;" cx="256" cy="256" r="256"/>
<rect x="28.58" y="85.756" style="fill:#FDFEFF;" width="454.84" height="340.48"/>
<rect x="56.784" y="121.916" style="fill:#E8E7E8;" width="220.48" height="193.84"/>
<rect x="80.56" y="145.688" style="fill:#70B1E1;" width="172.96" height="146.284"/>
<rect x="290.6" y="121.916" style="fill:#F1592F;" width="166.14" height="18.972"/>
<g>
	<rect x="311.844" y="182.976" style="fill:#D2D2D4;" width="27.692" height="27.692"/>
	<rect x="359.84" y="182.976" style="fill:#D2D2D4;" width="27.692" height="27.692"/>
	<rect x="407.84" y="182.976" style="fill:#D2D2D4;" width="27.692" height="27.692"/>
	<rect x="311.844" y="227.036" style="fill:#D2D2D4;" width="27.692" height="27.692"/>
	<rect x="359.84" y="227.036" style="fill:#D2D2D4;" width="27.692" height="27.692"/>
	<rect x="407.84" y="227.036" style="fill:#D2D2D4;" width="27.692" height="27.692"/>
	<rect x="311.844" y="271.096" style="fill:#D2D2D4;" width="27.692" height="27.692"/>
	<rect x="359.84" y="271.096" style="fill:#D2D2D4;" width="27.692" height="27.692"/>
	<rect x="407.84" y="271.096" style="fill:#D2D2D4;" width="27.692" height="27.692"/>
</g>
<rect x="56.784" y="363.24" style="fill:#7EC359;" width="220.48" height="26.036"/>
<g>
	<path style="fill:#656D7A;" d="M347.384,401.648h-11.16l-4.436-11.54H311.48l-4.192,11.54h-10.88l19.788-50.8h10.848
		L347.384,401.648z M328.5,381.552l-7-18.852l-6.86,18.852H328.5z"/>
	<path style="fill:#656D7A;" d="M358.996,401.648V359.44H343.92v-8.596h40.372v8.596h-15.04v42.208H358.996z"/>
	<path style="fill:#656D7A;" d="M390.768,401.648v-50.8h15.352l9.216,34.652l9.112-34.652h15.388v50.8h-9.528V361.66l-10.084,39.988
		h-9.876L400.3,361.66v39.988H390.768z"/>
</g>
<g>
</g>
<g>
</g>
<g>
</g>
<g>
</g>
<g>
</g>
<g>
</g>
<g>
</g>
<g>
</g>
<g>
</g>
<g>
</g>
<g>
</g>
<g>
</g>
<g>
</g>
<g>
</g>
<g>
</g>
</svg>
