<?xml version="1.0" encoding="iso-8859-1"?>
<!-- Generator: Adobe Illustrator 19.0.0, SVG Export Plug-In . SVG Version: 6.00 Build 0)  -->
<svg version="1.1" id="Capa_1" xmlns="http://www.w3.org/2000/svg" xmlns:xlink="http://www.w3.org/1999/xlink" x="0px" y="0px"
	 viewBox="0 0 512 512" style="enable-background:new 0 0 512 512;" xml:space="preserve">
<circle style="fill:#4D5BA5;" cx="256" cy="256" r="256"/>
<path style="fill:#F7CFA3;" d="M465.884,353.04c0,0-3.2,8.56-26.72,15.28c0,0-30.48,4.32-41.52,11.52
	c-13.788,9.192-41.256,13.248-58.48,28.64c-9.98,8.952-49.408,22.692-56.4,37.44c-6.64,14.08-57.6,0-57.6,0
	s-42.08-10.56-79.92-10.48c-23.168,0.144-34.248,9.528-51.68,18.48c-24.64-20.32-45.52-45.12-61.28-73.28
	c27.52-10.4,64.4-25.6,96-43.36c25.328-14.396,88.1-21.98,105.04,9.84c0,0,5.92,10.16,44.72,3.12c0,0,15.68-8.64,58,3.92
	c0,0,43.92-4.32,61.2-13.68c0,0,13.68-10.64,38.8-4.72C436.044,335.76,470.924,326.32,465.884,353.04z"/>
<path style="fill:#F0B97C;" d="M195.74,405.252c35.648,0.648,17.032-14.1,69.732-10.856c24.868,2.764,45.44,0.04,69.768-5.348
	l-0.412,0.136c19.388-8.284,15.764-20.788,1.072-34.772l0.348-0.46c4.896,3.288,11.108,7.772,13.716,13.036
	c8.436,13.868-8.016,26.276-13.328,27.684c-22.844,6.012-48.944,6.8-71.532,3.432c-47.936-5.488-35.572,9.968-69.404,7.728
	L195.74,405.252z"/>
<circle style="fill:#F5EA07;" cx="283.04" cy="293.28" r="45.432"/>
<g>
	<path style="fill:#E8BB20;" d="M283.044,332.104c-21.404,0-38.816-17.412-38.816-38.816c0-21.404,17.412-38.816,38.816-38.816
		s38.816,17.412,38.816,38.816C321.86,314.692,304.448,332.104,283.044,332.104z M283.044,260.692
		c-17.972,0-32.596,14.624-32.596,32.596c0,17.976,14.624,32.596,32.596,32.596c17.972,0,32.596-14.624,32.596-32.596
		C315.64,275.312,301.016,260.692,283.044,260.692z"/>
	<path style="fill:#E8BB20;" d="M281.196,305.772V294.7c-3.452-0.988-5.984-2.48-7.596-4.48s-2.416-4.428-2.416-7.28
		c0-2.888,0.912-5.316,2.736-7.28s4.252-3.096,7.28-3.396v-2.616h3.832v2.616c2.8,0.336,5.028,1.292,6.684,2.868
		c1.656,1.576,2.712,3.688,3.172,6.328l-6.684,0.872c-0.404-2.08-1.464-3.488-3.172-4.228v10.332
		c4.228,1.144,7.108,2.628,8.64,4.452s2.3,4.164,2.3,7.016c0,3.188-0.964,5.876-2.892,8.06s-4.612,3.524-8.048,4.016v4.94H281.2
		v-4.808c-3.048-0.368-5.524-1.508-7.424-3.408s-3.12-4.588-3.648-8.06l6.896-0.74c0.28,1.408,0.812,2.624,1.584,3.648
		C279.38,304.576,280.244,305.316,281.196,305.772z M281.196,278.024c-1.04,0.352-1.868,0.952-2.484,1.796s-0.924,1.78-0.924,2.8
		c0,0.932,0.28,1.8,0.844,2.604c0.564,0.8,1.42,1.448,2.564,1.944L281.196,278.024L281.196,278.024z M285.028,306.144
		c1.32-0.248,2.396-0.86,3.224-1.836s1.244-2.128,1.244-3.448c0-1.18-0.348-2.196-1.044-3.052s-1.836-1.512-3.424-1.968
		L285.028,306.144L285.028,306.144z"/>
</g>
<circle style="fill:#F5EA07;" cx="337.88" cy="188.08" r="50.908"/>
<g>
	<path style="fill:#E8BB20;" d="M337.9,231.564c-23.984,0-43.496-19.512-43.496-43.496s19.512-43.496,43.496-43.496
		s43.496,19.512,43.496,43.496S361.884,231.564,337.9,231.564z M337.9,151.544c-20.14,0-36.524,16.384-36.524,36.524
		s16.384,36.524,36.524,36.524s36.524-16.384,36.524-36.524C374.424,167.928,358.036,151.544,337.9,151.544z"/>
	<path style="fill:#E8BB20;" d="M335.828,202.06v-12.408c-3.868-1.104-6.708-2.78-8.512-5.02c-1.808-2.24-2.708-4.96-2.708-8.156
		c0-3.236,1.02-5.956,3.064-8.156s4.764-3.468,8.156-3.804v-2.932h4.292v2.932c3.14,0.376,5.636,1.448,7.492,3.212
		c1.856,1.768,3.04,4.132,3.552,7.092l-7.492,0.976c-0.456-2.328-1.64-3.908-3.552-4.736v11.58c4.736,1.284,7.964,2.948,9.684,4.988
		s2.576,4.664,2.576,7.86c0,3.572-1.08,6.584-3.244,9.032s-5.168,3.948-9.016,4.5v5.536h-4.292v-5.388
		c-3.416-0.416-6.188-1.688-8.32-3.82s-3.496-5.144-4.088-9.032l7.728-0.828c0.316,1.58,0.908,2.94,1.776,4.088
		S334.76,201.548,335.828,202.06z M335.828,170.968c-1.164,0.396-2.092,1.068-2.784,2.012c-0.692,0.948-1.036,1.992-1.036,3.14
		c0,1.048,0.316,2.02,0.948,2.916s1.588,1.624,2.872,2.176V170.968z M340.12,202.476c1.48-0.276,2.684-0.964,3.612-2.056
		c0.928-1.096,1.392-2.384,1.392-3.864c0-1.324-0.388-2.464-1.168-3.42s-2.06-1.692-3.836-2.208V202.476z"/>
</g>
<circle style="fill:#F5EA07;" cx="241.88" cy="98.46" r="63.12"/>
<g>
	<path style="fill:#E8BB20;" d="M241.892,152.392c-29.736,0-53.928-24.192-53.928-53.932c0-29.736,24.192-53.928,53.928-53.928
		S295.82,68.724,295.82,98.46C295.82,128.2,271.628,152.392,241.892,152.392z M241.892,53.176
		c-24.968,0-45.284,20.316-45.284,45.284c0,24.972,20.316,45.288,45.284,45.288s45.284-20.316,45.284-45.288
		C287.176,73.492,266.864,53.176,241.892,53.176z"/>
	<path style="fill:#E8BB20;" d="M239.324,115.808v-15.384c-4.796-1.372-8.316-3.444-10.556-6.224s-3.36-6.148-3.36-10.116
		c0-4.016,1.268-7.384,3.8-10.116c2.532-2.728,5.904-4.3,10.116-4.716v-3.636h5.324v3.636c3.892,0.464,6.988,1.792,9.288,3.984
		s3.768,5.12,4.404,8.792l-9.288,1.212c-0.564-2.888-2.032-4.848-4.404-5.876V91.72c5.876,1.592,9.876,3.652,12.004,6.188
		c2.128,2.532,3.196,5.784,3.196,9.748c0,4.432-1.34,8.164-4.02,11.196c-2.68,3.036-6.408,4.896-11.18,5.58v6.864h-5.324v-6.68
		c-4.236-0.512-7.672-2.092-10.316-4.736s-4.332-6.376-5.068-11.196l9.584-1.028c0.392,1.96,1.124,3.648,2.204,5.068
		C236.804,114.144,238,115.172,239.324,115.808z M239.324,77.26c-1.444,0.488-2.596,1.32-3.452,2.496s-1.284,2.472-1.284,3.892
		c0,1.296,0.392,2.504,1.176,3.616s1.972,2.012,3.56,2.7V77.26z M244.648,116.324c1.836-0.344,3.328-1.192,4.48-2.552
		s1.724-2.956,1.724-4.792c0-1.64-0.484-3.052-1.452-4.24c-0.968-1.188-2.552-2.1-4.756-2.736v14.32H244.648z"/>
</g>
<g>
</g>
<g>
</g>
<g>
</g>
<g>
</g>
<g>
</g>
<g>
</g>
<g>
</g>
<g>
</g>
<g>
</g>
<g>
</g>
<g>
</g>
<g>
</g>
<g>
</g>
<g>
</g>
<g>
</g>
</svg>
