<?xml version="1.0" encoding="iso-8859-1"?>
<!-- Generator: Adobe Illustrator 19.0.0, SVG Export Plug-In . SVG Version: 6.00 Build 0)  -->
<svg version="1.1" id="Capa_1" xmlns="http://www.w3.org/2000/svg" xmlns:xlink="http://www.w3.org/1999/xlink" x="0px" y="0px"
	 viewBox="0 0 512 512" style="enable-background:new 0 0 512 512;" xml:space="preserve">
<circle style="fill:#EE4B68;" cx="256" cy="256" r="256"/>
<polyline style="fill:#F5EA07;" points="71.464,315.748 95.76,286.524 120.06,296.504 167.344,221.688 208.716,248.06 
	285.552,172.512 316.416,208.148 345.312,172.512 378.148,183.2 418.528,113.008 454.984,132.964 476,132.964 476,403.412 
	71.464,403.412 71.464,315.748 "/>
<polygon style="fill:#70B1E1;" points="461.552,238.06 422.804,214.54 378.808,259.44 353.852,245.9 316.416,283.672 287.524,245.9 
	204.12,334.28 166.028,300.064 120.06,352.808 99.044,330 71.464,356.592 71.464,403.412 476,403.412 476,238.06 "/>
<polygon style="fill:#D2D2D4;" points="71.464,394.148 102.984,374.192 118.088,384.168 161.432,351.384 196.24,372.764 
	277.672,337.84 309.192,358.512 335.464,332.14 368.3,344.256 415.58,305.768 449.732,336.416 476,336.416 476,403.412 
	71.464,403.412 "/>
<g>
	<rect x="65.956" y="70.696" style="fill:#FDFEFF;" width="11.012" height="370.6"/>
	<rect x="36" y="397.36" style="fill:#FDFEFF;" width="440" height="12.12"/>
	<rect x="36" y="88.32" style="fill:#FDFEFF;" width="16.856" height="12.12"/>
	<rect x="36" y="126.424" style="fill:#FDFEFF;" width="16.856" height="12.12"/>
	<rect x="36" y="164.52" style="fill:#FDFEFF;" width="16.856" height="12.12"/>
	<rect x="36" y="202.596" style="fill:#FDFEFF;" width="16.856" height="12.12"/>
	<rect x="36" y="240.68" style="fill:#FDFEFF;" width="16.856" height="12.12"/>
	<rect x="36" y="278.76" style="fill:#FDFEFF;" width="16.856" height="12.12"/>
	<rect x="36" y="316.84" style="fill:#FDFEFF;" width="16.856" height="12.12"/>
	<rect x="36" y="354.96" style="fill:#FDFEFF;" width="16.856" height="12.12"/>
</g>
<g>
</g>
<g>
</g>
<g>
</g>
<g>
</g>
<g>
</g>
<g>
</g>
<g>
</g>
<g>
</g>
<g>
</g>
<g>
</g>
<g>
</g>
<g>
</g>
<g>
</g>
<g>
</g>
<g>
</g>
</svg>
