<?xml version="1.0" encoding="iso-8859-1"?>
<!-- Generator: Adobe Illustrator 19.0.0, SVG Export Plug-In . SVG Version: 6.00 Build 0)  -->
<svg version="1.1" id="Capa_1" xmlns="http://www.w3.org/2000/svg" xmlns:xlink="http://www.w3.org/1999/xlink" x="0px" y="0px"
	 viewBox="0 0 512 512" style="enable-background:new 0 0 512 512;" xml:space="preserve">
<circle style="fill:#F5EA07;" cx="256" cy="256" r="256"/>
<rect x="45.788" y="150.372" style="fill:#656D7A;" width="420.44" height="294.24"/>
<rect x="69.788" y="174.376" style="fill:#FDFEFF;" width="372.44" height="246.24"/>
<rect x="45.788" y="67.384" style="fill:#4D535F;" width="420.44" height="82.988"/>
<circle style="fill:#F1592F;" cx="90.888" cy="108.88" r="17.996"/>
<circle style="fill:#F5EA07;" cx="141.52" cy="108.88" r="17.996"/>
<circle style="fill:#70B1E1;" cx="192.2" cy="108.88" r="17.996"/>
<path style="fill:#656D7A;" d="M351.908,218.308v86.696c0,0-4.556,70.236-95.908,95.964c-91.408-25.728-95.908-95.964-95.908-95.964
	v-86.696c36.896,3.224,68.568-8.056,95.908-31.504C283.284,210.252,314.956,221.532,351.908,218.308z"/>
<path style="fill:#FDFEFF;" d="M340.32,297.9v-67.464c-0.216,0-0.648,0-0.648,0c-30.524,0-58.624-9.66-83.672-28.728V297.9
	L340.32,297.9L340.32,297.9z"/>
<path style="fill:#F1592F;" d="M256,201.708l-0.008-0.004c-25.092,19.072-53.196,28.732-83.684,28.732c-0.208,0-0.42,0-0.628,0
	V297.9H256V201.708z"/>
<path style="fill:#FDFEFF;" d="M171.68,297.9v6.624c0.508,5.336,7.64,61.356,84.32,84.376l0,0v-91H171.68z"/>
<path style="fill:#F1592F;" d="M256,297.9v91c76.84-23.084,83.848-79.348,84.32-84.368V297.9H256z"/>
<g>
</g>
<g>
</g>
<g>
</g>
<g>
</g>
<g>
</g>
<g>
</g>
<g>
</g>
<g>
</g>
<g>
</g>
<g>
</g>
<g>
</g>
<g>
</g>
<g>
</g>
<g>
</g>
<g>
</g>
</svg>
