<?xml version="1.0" encoding="iso-8859-1"?>
<!-- Generator: Adobe Illustrator 19.0.0, SVG Export Plug-In . SVG Version: 6.00 Build 0)  -->
<svg version="1.1" id="Capa_1" xmlns="http://www.w3.org/2000/svg" xmlns:xlink="http://www.w3.org/1999/xlink" x="0px" y="0px"
	 viewBox="0 0 512 512" style="enable-background:new 0 0 512 512;" xml:space="preserve">
<circle style="fill:#EE4C68;" cx="256" cy="256" r="256"/>
<path style="fill:#656D7A;" d="M339.824,76H172.176c-14.436,0-26.144,11.704-26.144,26.14v307.716
	c0,14.436,11.704,26.144,26.144,26.144H339.82c14.436,0,26.14-11.704,26.14-26.144V102.144C365.964,87.704,354.26,76,339.824,76z"/>
<g>
	<path style="fill:#4D535F;" d="M277.392,98.104h-42.784c-2.356,0-4.264,1.912-4.264,4.264v0.46c0,2.356,1.908,4.264,4.264,4.264
		h42.788c2.356,0,4.264-1.912,4.264-4.264v-0.46C281.66,100.016,279.748,98.104,277.392,98.104z"/>
	<circle style="fill:#4D535F;" cx="256" cy="414.56" r="9.524"/>
</g>
<rect x="157.52" y="120.44" style="fill:#FDFEFF;" width="196.96" height="273.2"/>
<g>
	<polygon style="fill:#7EC359;" points="322.852,278.724 238.444,363.2 197.292,321.98 157.516,361.752 157.516,348.432 
		197.292,308.72 238.444,349.808 316.156,272.096 	"/>
	<polygon style="fill:#7EC359;" points="332.852,263.492 286.988,271.572 324.772,309.356 	"/>
</g>
<circle style="fill:#F5EA07;" cx="256" cy="202.292" r="59.216"/>
<g>
	<path style="fill:#E8BB20;" d="M256,252.884c-27.896,0-50.592-22.696-50.592-50.596c0-27.896,22.696-50.592,50.592-50.592
		s50.592,22.696,50.592,50.592C306.592,230.188,283.896,252.884,256,252.884z M256,159.808c-23.424,0-42.484,19.06-42.484,42.484
		c0,23.428,19.06,42.484,42.484,42.484s42.484-19.06,42.484-42.484C298.484,178.864,279.424,159.808,256,159.808z"/>
	<path style="fill:#E8BB20;" d="M253.588,218.564v-14.432c-4.5-1.284-7.8-3.232-9.904-5.84s-3.152-5.768-3.152-9.488
		c0-3.764,1.188-6.928,3.564-9.488s5.54-4.036,9.488-4.424v-3.408h4.996v3.408c3.652,0.436,6.556,1.68,8.712,3.736
		c2.16,2.056,3.536,4.804,4.132,8.248l-8.712,1.136c-0.528-2.708-1.904-4.548-4.132-5.512v13.468
		c5.512,1.492,9.264,3.428,11.264,5.804c1.996,2.376,2.996,5.424,2.996,9.144c0,4.156-1.256,7.656-3.772,10.504
		c-2.516,2.848-6.012,4.592-10.488,5.236v6.44h-4.996v-6.268c-3.972-0.484-7.2-1.964-9.68-4.444s-4.064-5.98-4.752-10.504
		l8.988-0.964c0.368,1.836,1.056,3.42,2.068,4.752C251.224,217.004,252.348,217.968,253.588,218.564z M253.588,182.4
		c-1.356,0.46-2.432,1.24-3.236,2.344c-0.804,1.104-1.204,2.32-1.204,3.652c0,1.216,0.368,2.348,1.104,3.392s1.848,1.888,3.34,2.532
		V182.4H253.588z M258.584,219.048c1.724-0.32,3.124-1.12,4.2-2.392c1.08-1.276,1.62-2.772,1.62-4.496c0-1.54-0.452-2.864-1.36-3.98
		c-0.908-1.112-2.392-1.968-4.46-2.564L258.584,219.048L258.584,219.048z"/>
</g>
<g>
</g>
<g>
</g>
<g>
</g>
<g>
</g>
<g>
</g>
<g>
</g>
<g>
</g>
<g>
</g>
<g>
</g>
<g>
</g>
<g>
</g>
<g>
</g>
<g>
</g>
<g>
</g>
<g>
</g>
</svg>
