<?xml version="1.0" encoding="iso-8859-1"?>
<!-- Generator: Adobe Illustrator 19.0.0, SVG Export Plug-In . SVG Version: 6.00 Build 0)  -->
<svg version="1.1" id="Capa_1" xmlns="http://www.w3.org/2000/svg" xmlns:xlink="http://www.w3.org/1999/xlink" x="0px" y="0px"
	 viewBox="0 0 512 512" style="enable-background:new 0 0 512 512;" xml:space="preserve">
<circle style="fill:#FAD307;" cx="256" cy="256" r="256"/>
<path style="fill:#656D7A;" d="M298.444,339.396c35.82,50.056,82.424,105.732,92.388,115.696c17.744,17.744,46.516,17.744,64.264,0
	c17.744-17.744,17.744-46.516,0-64.264c-9.964-9.964-65.64-56.568-115.696-92.388L298.444,339.396z"/>
<rect x="280.586" y="266.875" transform="matrix(-0.7071 -0.7071 0.7071 -0.7071 306.9281 741.0825)" style="fill:#4D535F;" width="52.723" height="80.199"/>
<circle style="fill:#F1592F;" cx="183.196" cy="183.2" r="174.548"/>
<circle style="fill:#FDFEFF;" cx="183.196" cy="183.2" r="147.464"/>
<rect x="143.184" y="109.12" style="fill:#70B1E1;" width="29.004" height="149.6"/>
<rect x="249.12" y="109.12" style="fill:#7EC359;" width="29.004" height="149.6"/>
<rect x="196.16" y="146.572" style="fill:#F5EA07;" width="29.004" height="112.12"/>
<rect x="90.208" y="190.192" style="fill:#F1592F;" width="29.004" height="68.52"/>
<g>
</g>
<g>
</g>
<g>
</g>
<g>
</g>
<g>
</g>
<g>
</g>
<g>
</g>
<g>
</g>
<g>
</g>
<g>
</g>
<g>
</g>
<g>
</g>
<g>
</g>
<g>
</g>
<g>
</g>
</svg>
