<?xml version="1.0" encoding="iso-8859-1"?>
<!-- Generator: Adobe Illustrator 19.0.0, SVG Export Plug-In . SVG Version: 6.00 Build 0)  -->
<svg version="1.1" id="Capa_1" xmlns="http://www.w3.org/2000/svg" xmlns:xlink="http://www.w3.org/1999/xlink" x="0px" y="0px"
	 viewBox="0 0 512 512" style="enable-background:new 0 0 512 512;" xml:space="preserve">
<path style="fill:#896D61;" d="M512,256c0,141.192-114.348,256-256,256C114.892,512,0,397.68,0,256C0,114.64,114.64,0,256,0
	C397.4,0,512,114.64,512,256z"/>
<path style="fill:#F5EA07;" d="M309.724,347.028c32.628,45.596,75.08,96.316,84.156,105.392c16.164,16.164,42.372,16.164,58.54,0
	c16.164-16.164,16.164-42.372,0-58.54c-9.076-9.076-59.792-51.528-105.392-84.156L309.724,347.028z"/>
<rect x="293.448" y="280.947" transform="matrix(-0.7071 -0.7071 0.7071 -0.7071 317.4691 766.4293)" style="fill:#E8BB20;" width="48.04" height="73.035"/>
<circle style="fill:#70B1E1;" cx="210.456" cy="210.46" r="153.28"/>
<circle style="fill:#FDFEFF;" cx="210.456" cy="210.46" r="124.4"/>
<path style="fill:#70B1E1;" d="M136.212,294.012c19.752,17.544,45.748,28.216,74.244,28.216s54.492-10.672,74.244-28.216
	l-74.244-74.244L136.212,294.012z"/>
<path style="fill:#656D7A;" d="M203.8,98.688c-25.88,1.52-49.384,11.836-67.584,28l67.584,67.588V98.688z"/>
<path style="fill:#7EC359;" d="M294.116,284.596c17.544-19.752,28.216-45.748,28.216-74.244c0-59.552-46.532-108.216-105.216-111.66
	v108.904L294.116,284.596z"/>
<path style="fill:#F1592F;" d="M126.796,136.108c-17.544,19.756-28.216,45.748-28.216,74.244s10.672,54.492,28.216,74.244
	l74.244-74.244L126.796,136.108z"/>
<g>
</g>
<g>
</g>
<g>
</g>
<g>
</g>
<g>
</g>
<g>
</g>
<g>
</g>
<g>
</g>
<g>
</g>
<g>
</g>
<g>
</g>
<g>
</g>
<g>
</g>
<g>
</g>
<g>
</g>
</svg>
