<?xml version="1.0" encoding="iso-8859-1"?>
<!-- Generator: Adobe Illustrator 19.0.0, SVG Export Plug-In . SVG Version: 6.00 Build 0)  -->
<svg version="1.1" id="Capa_1" xmlns="http://www.w3.org/2000/svg" xmlns:xlink="http://www.w3.org/1999/xlink" x="0px" y="0px"
	 viewBox="0 0 512 512" style="enable-background:new 0 0 512 512;" xml:space="preserve">
<circle style="fill:#F1592F;" cx="256" cy="256" r="256"/>
<rect x="84.44" y="32" style="fill:#FDFEFF;" width="343.16" height="448"/>
<g>
	<rect x="173.956" y="184.6" style="fill:#D2D2D4;" width="164.08" height="8.36"/>
	<rect x="112.92" y="219.24" style="fill:#D2D2D4;" width="286.12" height="8.36"/>
	<rect x="112.92" y="253.88" style="fill:#D2D2D4;" width="286.12" height="8.36"/>
</g>
<g>
	<rect x="268.72" y="98.528" style="fill:#70B1E1;" width="130.352" height="8"/>
	<rect x="268.72" y="131.652" style="fill:#70B1E1;" width="130.352" height="8"/>
</g>
<g>
	<rect x="112.92" y="288.48" style="fill:#D2D2D4;" width="286.12" height="8.36"/>
	<rect x="112.92" y="323.12" style="fill:#D2D2D4;" width="286.12" height="8.36"/>
	<rect x="112.92" y="357.72" style="fill:#D2D2D4;" width="286.12" height="8.36"/>
</g>
<g>
	<path style="fill:#656D7A;" d="M329.284,442.348c-0.192,0-0.38-0.016-0.564-0.044c-0.84-0.132-1.564-0.576-2.04-1.24
		c-0.72-1.008-0.628-2.212-0.584-2.86l1.64-22.82c-6.732,5.356-10.94,13.844-10.932,22.472c0,0.912-0.74,1.656-1.656,1.656l0,0
		c-0.916,0-1.656-0.74-1.656-1.656c-0.008-10.876,5.988-21.564,15.28-27.224c0.524-0.324,1.192-0.324,1.72,0
		s0.832,0.916,0.788,1.532l-1.888,26.284c-0.012,0.152-0.044,0.608,0.004,0.744c-0.04-0.12,0.404-0.208,0.784-0.488
		c1.472-1.084,2.344-3.044,3.184-4.936c1.092-2.456,2.312-4.884,4.632-6.332c1.536-0.948,3.548-1.212,5.276-0.684
		c1.42,0.436,2.512,1.368,3.072,2.628c0.612,1.384,0.48,2.812,0.36,4.072c-0.124,1.28-0.332,2.684,0.932,2.84
		c0.548,0.08,1.204-0.116,1.64-0.48c0.816-0.68,1.372-1.872,1.748-3.744l0.208-1.152c0.256-1.456,0.52-2.964,1.236-4.412
		c0.292-0.608,0.948-1.016,1.604-0.92c0.672,0.052,1.248,0.504,1.452,1.152l1.964,6.164c0.756-1.504,1.28-3.12,1.54-4.792
		c0.116-0.72,0.692-1.284,1.416-1.38c0.732-0.124,1.424,0.292,1.728,0.96l1.468,3.252c2.924-0.996,5.604,0.124,8.316,1.44
		c2.196,1.08,5.628,2.536,6.976,0.38c0.488-0.772,1.512-1.004,2.276-0.532c0.78,0.484,1.016,1.504,0.532,2.276
		c-4.828,7.748-13.808-3.364-17.808,0.004c-0.4,0.336-0.924,0.476-1.436,0.344c-0.504-0.112-0.928-0.46-1.14-0.932l-0.344-0.772
		c-0.696,1.652-1.616,3.216-2.736,4.628c-0.38,0.48-1,0.68-1.596,0.596c-0.6-0.112-1.092-0.544-1.276-1.128l-1.26-3.956
		c-0.372,1.616-1.084,3.672-2.76,5.064c-2.1,1.74-5.504,1.748-7.144-0.46c-1.136-1.524-0.964-3.32-0.832-4.76
		c0.092-0.936,0.176-1.82-0.088-2.416c-0.208-0.468-0.672-0.696-1.02-0.804c-0.808-0.256-1.84-0.116-2.552,0.332
		c-1.528,0.948-2.444,2.8-3.32,4.776c-1.008,2.268-2.108,4.74-4.284,6.34C331.304,441.992,330.248,442.348,329.284,442.348z"/>
	<path style="fill:#656D7A;" d="M326.384,427.4c-0.496,0-0.988-0.076-1.468-0.228c-0.768-0.248-1.388-0.656-1.936-1.016
		c-0.272-0.176-0.54-0.36-0.828-0.504c-0.944-0.472-2.144-0.428-3.056,0.104c-0.784,0.456-1.8,0.192-2.264-0.592
		c-0.46-0.788-0.196-1.804,0.592-2.264c1.884-1.1,4.26-1.176,6.204-0.208c0.408,0.204,0.788,0.448,1.168,0.696
		c0.404,0.268,0.788,0.52,1.128,0.628c0.492,0.148,1.092,0.032,1.488-0.296c0.696-0.584,1.744-0.5,2.328,0.204
		c0.588,0.696,0.496,1.74-0.204,2.328C328.656,427.008,327.524,427.4,326.384,427.4z"/>
</g>
<rect x="112.92" y="407.72" style="fill:#70B1E1;" width="102.06" height="37.3"/>
<g>
</g>
<g>
</g>
<g>
</g>
<g>
</g>
<g>
</g>
<g>
</g>
<g>
</g>
<g>
</g>
<g>
</g>
<g>
</g>
<g>
</g>
<g>
</g>
<g>
</g>
<g>
</g>
<g>
</g>
</svg>
