<?xml version="1.0" encoding="iso-8859-1"?>
<!-- Generator: Adobe Illustrator 19.0.0, SVG Export Plug-In . SVG Version: 6.00 Build 0)  -->
<svg version="1.1" id="Capa_1" xmlns="http://www.w3.org/2000/svg" xmlns:xlink="http://www.w3.org/1999/xlink" x="0px" y="0px"
	 viewBox="0 0 512 512" style="enable-background:new 0 0 512 512;" xml:space="preserve">
<circle style="fill:#FDFEFF;" cx="256" cy="256" r="256"/>
<rect x="402.6" y="97.516" style="fill:#F1592F;" width="46.512" height="69.544"/>
<rect x="402.6" y="186.452" style="fill:#7EC359;" width="46.512" height="69.544"/>
<rect x="402.6" y="275.392" style="fill:#656D7A;" width="46.512" height="69.544"/>
<path style="fill:#70B1E1;" d="M426,71.436v369.128c0,16.992-13.78,30.76-30.76,30.76H137.776V40.68H395.24
	C412.22,40.68,426,54.444,426,71.436z"/>
<path style="fill:#5F87C4;" d="M137.784,40.68H93.652c-16.992,0-30.76,13.764-30.76,30.76v369.128
	c0,16.992,13.764,30.76,30.76,30.76h44.132V40.68z"/>
<rect x="128.44" y="40.68" style="fill:#4D5BA5;" width="9.36" height="430.64"/>
<path style="fill:#FDFEFF;" d="M340.072,300.156h18.388c-5.756,11.684-14.588,20.832-26.5,27.452
	c-13.64,7.596-30.272,11.396-49.896,11.396c-18.992,0-35.392-3.208-49.204-9.624s-24.084-15.884-30.816-28.4
	s-10.1-26.14-10.1-40.876c0-16.172,3.828-31.236,11.48-45.192s18.128-24.428,31.42-31.42s28.488-10.488,45.58-10.488
	c14.504,0,27.392,2.82,38.672,8.46s19.896,13.652,25.852,24.04s8.936,21.74,8.936,34.056c0,14.676-4.516,27.94-13.552,39.796
	C328.996,294.32,314.464,301.8,296.74,301.8c-4.776,0-8.372-0.836-10.792-2.504s-4.028-4.116-4.836-7.336
	c-6.792,6.56-14.616,9.84-23.48,9.84c-9.552,0-17.48-3.296-23.784-9.884s-9.448-15.356-9.448-26.292
	c0-13.524,3.8-25.868,11.396-37.032c9.208-13.58,21.004-20.372,35.392-20.372c10.244,0,17.812,3.912,22.704,11.74l2.16-9.58h22.788
	l-13.036,61.892c-0.804,3.912-1.208,6.444-1.208,7.596c0,1.44,0.332,2.516,0.992,3.236s1.452,1.08,2.372,1.08
	c2.764,0,6.332-1.668,10.704-5.008c5.868-4.372,10.616-10.244,14.244-17.608c3.624-7.368,5.44-14.992,5.44-22.876
	c0-14.156-5.12-25.996-15.364-35.524c-10.244-9.524-24.544-14.288-42.904-14.288c-15.596,0-28.816,3.18-39.664,9.54
	c-10.848,6.36-19.02,15.308-24.516,26.848s-8.244,23.552-8.244,36.04c0,12.144,3.064,23.192,9.192,33.148
	c6.128,9.956,14.732,17.22,25.812,21.796s23.752,6.864,38.024,6.864c13.756,0,25.58-1.912,35.48-5.74
	C326.06,313.548,334.032,307.808,340.072,300.156z M246.756,264.676c0,7.308,1.48,12.688,4.444,16.144s6.632,5.18,11.008,5.18
	c3.28,0,6.36-0.804,9.236-2.416c2.188-1.152,4.344-2.964,6.476-5.44c3.052-3.512,5.684-8.632,7.9-15.364
	c2.216-6.732,3.324-13.008,3.324-18.82c0-6.504-1.512-11.496-4.532-14.976s-6.832-5.224-11.436-5.224
	c-4.948,0-9.524,1.912-13.724,5.74c-4.2,3.828-7.368,9.28-9.496,16.36C247.824,252.936,246.756,259.208,246.756,264.676z"/>
<g>
</g>
<g>
</g>
<g>
</g>
<g>
</g>
<g>
</g>
<g>
</g>
<g>
</g>
<g>
</g>
<g>
</g>
<g>
</g>
<g>
</g>
<g>
</g>
<g>
</g>
<g>
</g>
<g>
</g>
</svg>
