<?xml version="1.0" encoding="iso-8859-1"?>
<!-- Generator: Adobe Illustrator 19.0.0, SVG Export Plug-In . SVG Version: 6.00 Build 0)  -->
<svg version="1.1" id="Capa_1" xmlns="http://www.w3.org/2000/svg" xmlns:xlink="http://www.w3.org/1999/xlink" x="0px" y="0px"
	 viewBox="0 0 512 512" style="enable-background:new 0 0 512 512;" xml:space="preserve">
<circle style="fill:#FDFEFF;" cx="256" cy="256" r="256"/>
<g>
	<rect x="85.872" y="89.2" style="fill:#4D535F;" width="340.24" height="22.476"/>
	<rect x="85.872" y="181.08" style="fill:#4D535F;" width="340.24" height="22.476"/>
	<rect x="85.872" y="272.96" style="fill:#4D535F;" width="340.24" height="22.476"/>
	<rect x="85.872" y="364.84" style="fill:#4D535F;" width="340.24" height="22.476"/>
</g>
<g>
	<rect x="69.912" y="43.8" style="fill:#656D7A;" width="31.924" height="409.68"/>
	<rect x="410.16" y="43.8" style="fill:#656D7A;" width="31.924" height="409.68"/>
	<rect x="32.844" y="438.72" style="fill:#656D7A;" width="446.32" height="29.484"/>
</g>
<g>
	<circle style="fill:#F5EA07;" cx="151.068" cy="376.08" r="25.756"/>
	<circle style="fill:#F5EA07;" cx="202.58" cy="376.08" r="25.756"/>
</g>
<g>
	<circle style="fill:#BC5C65;" cx="309.44" cy="376.08" r="25.756"/>
	<circle style="fill:#BC5C65;" cx="360.92" cy="376.08" r="25.756"/>
</g>
<g>
	<circle style="fill:#70B1E1;" cx="211.288" cy="284.2" r="25.756"/>
	<circle style="fill:#70B1E1;" cx="262.8" cy="284.2" r="25.756"/>
	<circle style="fill:#70B1E1;" cx="314.32" cy="284.2" r="25.756"/>
	<circle style="fill:#70B1E1;" cx="365.84" cy="284.2" r="25.756"/>
</g>
<g>
	<circle style="fill:#F1592F;" cx="144.36" cy="192.32" r="25.756"/>
	<circle style="fill:#F1592F;" cx="195.876" cy="192.32" r="25.756"/>
</g>
<circle style="fill:#7EC359;" cx="211.288" cy="100.44" r="25.756"/>
<circle style="fill:#E8BB20;" cx="333.28" cy="100.44" r="25.756"/>
<circle style="fill:#F1592F;" cx="247.392" cy="192.32" r="25.756"/>
<g>
</g>
<g>
</g>
<g>
</g>
<g>
</g>
<g>
</g>
<g>
</g>
<g>
</g>
<g>
</g>
<g>
</g>
<g>
</g>
<g>
</g>
<g>
</g>
<g>
</g>
<g>
</g>
<g>
</g>
</svg>
